<?xml version="1.0" encoding="utf-8" standalone="no"?>
<!DOCTYPE svg PUBLIC "-//W3C//DTD SVG 1.1//EN"
  "http://www.w3.org/Graphics/SVG/1.1/DTD/svg11.dtd">
<!-- Created with matplotlib (https://matplotlib.org/) -->
<svg height="360pt" version="1.1" viewBox="0 0 864 360" width="864pt" xmlns="http://www.w3.org/2000/svg" xmlns:xlink="http://www.w3.org/1999/xlink">
 <defs>
  <style type="text/css">
*{stroke-linecap:butt;stroke-linejoin:round;}
  </style>
 </defs>
 <g id="figure_1">
  <g id="patch_1">
   <path d="M 0 360 
L 864 360 
L 864 0 
L 0 0 
z
" style="fill:#ffffff;"/>
  </g>
  <g id="axes_1">
   <g id="patch_2">
    <path d="M 108 315 
L 777.6 315 
L 777.6 43.2 
L 108 43.2 
z
" style="fill:#ffffff;"/>
   </g>
   <g id="matplotlib.axis_1">
    <g id="xtick_1">
     <g id="line2d_1">
      <path clip-path="url(#p4f8ec3c44b)" d="M 133.877198 315 
L 133.877198 43.2 
" style="fill:none;stroke:#b0b0b0;stroke-linecap:square;stroke-width:0.8;"/>
     </g>
     <g id="line2d_2">
      <defs>
       <path d="M 0 0 
L 0 3.5 
" id="m41dc404400" style="stroke:#000000;stroke-width:0.8;"/>
      </defs>
      <g>
       <use style="stroke:#000000;stroke-width:0.8;" x="133.877198" xlink:href="#m41dc404400" y="315"/>
      </g>
     </g>
     <g id="text_1">
      <!-- $\mathdefault{0}$ -->
      <defs>
       <path d="M 42 31.84375 
C 42 37.96875 41.90625 48.421875 37.703125 56.453125 
C 34 63.484375 28.09375 66 22.90625 66 
C 18.09375 66 12 63.78125 8.203125 56.5625 
C 4.203125 49.015625 3.796875 39.671875 3.796875 31.84375 
C 3.796875 26.109375 3.90625 17.375 7 9.734375 
C 11.296875 -0.609375 19 -2 22.90625 -2 
C 27.5 -2 34.5 -0.109375 38.59375 9.4375 
C 41.59375 16.375 42 24.5 42 31.84375 
z
M 22.90625 -0.40625 
C 16.5 -0.40625 12.703125 5.125 11.296875 12.75 
C 10.203125 18.6875 10.203125 27.328125 10.203125 32.953125 
C 10.203125 40.6875 10.203125 47.109375 11.5 53.234375 
C 13.40625 61.78125 19 64.390625 22.90625 64.390625 
C 27 64.390625 32.296875 61.671875 34.203125 53.4375 
C 35.5 47.71875 35.59375 40.984375 35.59375 32.953125 
C 35.59375 26.421875 35.59375 18.375 34.40625 12.453125 
C 32.296875 1.5 26.40625 -0.40625 22.90625 -0.40625 
z
" id="CMR17-48"/>
      </defs>
      <g transform="translate(129.765055 334.776976)scale(0.18 -0.18)">
       <use transform="scale(0.996264)" xlink:href="#CMR17-48"/>
      </g>
     </g>
    </g>
    <g id="xtick_2">
     <g id="line2d_3">
      <path clip-path="url(#p4f8ec3c44b)" d="M 212.483509 315 
L 212.483509 43.2 
" style="fill:none;stroke:#b0b0b0;stroke-linecap:square;stroke-width:0.8;"/>
     </g>
     <g id="line2d_4">
      <g>
       <use style="stroke:#000000;stroke-width:0.8;" x="212.483509" xlink:href="#m41dc404400" y="315"/>
      </g>
     </g>
     <g id="text_2">
      <!-- $\mathdefault{5}$ -->
      <defs>
       <path d="M 11.40625 58.59375 
C 12.40625 58.1875 16.5 56.890625 20.703125 56.890625 
C 30 56.890625 35.09375 61.890625 38 64.6875 
C 38 65.484375 38 66 37.40625 66 
C 37.296875 66 37.09375 66 36.296875 65.59375 
C 32.796875 64.09375 28.703125 63 23.703125 63 
C 20.703125 63 16.203125 63.359375 11.296875 65.484375 
C 10.203125 66 10 66 9.90625 66 
C 9.40625 66 9.296875 65.890625 9.296875 63.90625 
L 9.296875 34.859375 
C 9.296875 33.015625 9.296875 32.5 10.296875 32.5 
C 10.796875 32.5 11 32.703125 11.5 33.421875 
C 14.703125 38.046875 19.09375 40 24.09375 40 
C 27.59375 40 35.09375 37.734375 35.09375 20.203125 
C 35.09375 16.984375 35.09375 11.1875 32.09375 6.59375 
C 29.59375 2.484375 25.703125 0.390625 21.40625 0.390625 
C 14.796875 0.390625 8.09375 4.984375 6.296875 12.6875 
C 6.703125 12.59375 7.5 12.390625 7.90625 12.390625 
C 9.203125 12.390625 11.703125 13.09375 11.703125 16.1875 
C 11.703125 18.890625 9.796875 20 7.90625 20 
C 5.59375 20 4.09375 18.59375 4.09375 15.796875 
C 4.09375 7.09375 11 -2 21.59375 -2 
C 31.90625 -2 41.703125 6.890625 41.703125 19.796875 
C 41.703125 32.09375 33.90625 41.59375 24.203125 41.59375 
C 19.09375 41.59375 14.796875 39.6875 11.40625 36 
z
" id="CMR17-53"/>
      </defs>
      <g transform="translate(208.371366 334.776976)scale(0.18 -0.18)">
       <use transform="scale(0.996264)" xlink:href="#CMR17-53"/>
      </g>
     </g>
    </g>
    <g id="xtick_3">
     <g id="line2d_5">
      <path clip-path="url(#p4f8ec3c44b)" d="M 291.08982 315 
L 291.08982 43.2 
" style="fill:none;stroke:#b0b0b0;stroke-linecap:square;stroke-width:0.8;"/>
     </g>
     <g id="line2d_6">
      <g>
       <use style="stroke:#000000;stroke-width:0.8;" x="291.08982" xlink:href="#m41dc404400" y="315"/>
      </g>
     </g>
     <g id="text_3">
      <!-- $\mathdefault{10}$ -->
      <defs>
       <path d="M 26.59375 63.796875 
C 26.59375 65.890625 26.5 66 25.09375 66 
C 21.203125 61.359375 15.296875 59.890625 9.703125 59.6875 
C 9.40625 59.6875 8.90625 59.6875 8.796875 59.5 
C 8.703125 59.296875 8.703125 59.09375 8.703125 57 
C 11.796875 57 17 57.59375 21 59.984375 
L 21 7.296875 
C 21 3.796875 20.796875 2.59375 12.203125 2.59375 
L 9.203125 2.59375 
L 9.203125 0 
C 14 0.09375 19 0.1875 23.796875 0.1875 
C 28.59375 0.1875 33.59375 0.09375 38.40625 0 
L 38.40625 2.59375 
L 35.40625 2.59375 
C 26.796875 2.59375 26.59375 3.6875 26.59375 7.296875 
z
" id="CMR17-49"/>
      </defs>
      <g transform="translate(282.865534 334.776976)scale(0.18 -0.18)">
       <use transform="scale(0.996264)" xlink:href="#CMR17-49"/>
       <use transform="translate(45.690477 0)scale(0.996264)" xlink:href="#CMR17-48"/>
      </g>
     </g>
    </g>
    <g id="xtick_4">
     <g id="line2d_7">
      <path clip-path="url(#p4f8ec3c44b)" d="M 369.696131 315 
L 369.696131 43.2 
" style="fill:none;stroke:#b0b0b0;stroke-linecap:square;stroke-width:0.8;"/>
     </g>
     <g id="line2d_8">
      <g>
       <use style="stroke:#000000;stroke-width:0.8;" x="369.696131" xlink:href="#m41dc404400" y="315"/>
      </g>
     </g>
     <g id="text_4">
      <!-- $\mathdefault{15}$ -->
      <g transform="translate(361.471845 334.776976)scale(0.18 -0.18)">
       <use transform="scale(0.996264)" xlink:href="#CMR17-49"/>
       <use transform="translate(45.690477 0)scale(0.996264)" xlink:href="#CMR17-53"/>
      </g>
     </g>
    </g>
    <g id="xtick_5">
     <g id="line2d_9">
      <path clip-path="url(#p4f8ec3c44b)" d="M 448.302442 315 
L 448.302442 43.2 
" style="fill:none;stroke:#b0b0b0;stroke-linecap:square;stroke-width:0.8;"/>
     </g>
     <g id="line2d_10">
      <g>
       <use style="stroke:#000000;stroke-width:0.8;" x="448.302442" xlink:href="#m41dc404400" y="315"/>
      </g>
     </g>
     <g id="text_5">
      <!-- $\mathdefault{20}$ -->
      <defs>
       <path d="M 41.703125 15.46875 
L 39.90625 15.46875 
C 38.90625 8.390625 38.09375 7.1875 37.703125 6.59375 
C 37.203125 5.796875 30 5.796875 28.59375 5.796875 
L 9.40625 5.796875 
C 13 9.6875 20 16.765625 28.5 24.9375 
C 34.59375 30.71875 41.703125 37.5 41.703125 47.390625 
C 41.703125 59.1875 32.296875 66 21.796875 66 
C 10.796875 66 4.09375 56.296875 4.09375 47.296875 
C 4.09375 43.390625 7 42.890625 8.203125 42.890625 
C 9.203125 42.890625 12.203125 43.484375 12.203125 46.984375 
C 12.203125 50.09375 9.59375 51 8.203125 51 
C 7.59375 51 7 50.890625 6.59375 50.6875 
C 8.5 59.1875 14.296875 63.390625 20.40625 63.390625 
C 29.09375 63.390625 34.796875 56.5 34.796875 47.390625 
C 34.796875 38.703125 29.703125 31.21875 24 24.734375 
L 4.09375 2.296875 
L 4.09375 0 
L 39.296875 0 
z
" id="CMR17-50"/>
      </defs>
      <g transform="translate(440.078156 334.776976)scale(0.18 -0.18)">
       <use transform="scale(0.996264)" xlink:href="#CMR17-50"/>
       <use transform="translate(45.690477 0)scale(0.996264)" xlink:href="#CMR17-48"/>
      </g>
     </g>
    </g>
    <g id="xtick_6">
     <g id="line2d_11">
      <path clip-path="url(#p4f8ec3c44b)" d="M 526.908753 315 
L 526.908753 43.2 
" style="fill:none;stroke:#b0b0b0;stroke-linecap:square;stroke-width:0.8;"/>
     </g>
     <g id="line2d_12">
      <g>
       <use style="stroke:#000000;stroke-width:0.8;" x="526.908753" xlink:href="#m41dc404400" y="315"/>
      </g>
     </g>
     <g id="text_6">
      <!-- $\mathdefault{25}$ -->
      <g transform="translate(518.684467 334.776976)scale(0.18 -0.18)">
       <use transform="scale(0.996264)" xlink:href="#CMR17-50"/>
       <use transform="translate(45.690477 0)scale(0.996264)" xlink:href="#CMR17-53"/>
      </g>
     </g>
    </g>
    <g id="xtick_7">
     <g id="line2d_13">
      <path clip-path="url(#p4f8ec3c44b)" d="M 605.515064 315 
L 605.515064 43.2 
" style="fill:none;stroke:#b0b0b0;stroke-linecap:square;stroke-width:0.8;"/>
     </g>
     <g id="line2d_14">
      <g>
       <use style="stroke:#000000;stroke-width:0.8;" x="605.515064" xlink:href="#m41dc404400" y="315"/>
      </g>
     </g>
     <g id="text_7">
      <!-- $\mathdefault{30}$ -->
      <defs>
       <path d="M 22.09375 34 
C 31 34 34.90625 26.140625 34.90625 17.09375 
C 34.90625 5.03125 28.5 0.390625 22.703125 0.390625 
C 17.40625 0.390625 8.796875 3.015625 6.09375 10.796875 
C 6.59375 10.59375 7.09375 10.59375 7.59375 10.59375 
C 10 10.59375 11.796875 12.1875 11.796875 14.796875 
C 11.796875 17.6875 9.59375 19 7.59375 19 
C 5.90625 19 3.296875 18.1875 3.296875 14.484375 
C 3.296875 5.234375 12.296875 -2 22.90625 -2 
C 34 -2 42.5 6.75 42.5 16.984375 
C 42.5 26.84375 34.5 34 25 35.09375 
C 32.59375 36.671875 39.90625 43.375 39.90625 52.390625 
C 39.90625 60.25 32 66 23 66 
C 13.90625 66 5.90625 60.34375 5.90625 52.296875 
C 5.90625 48.796875 8.5 48.1875 9.796875 48.1875 
C 11.90625 48.1875 13.703125 49.484375 13.703125 52.09375 
C 13.703125 54.6875 11.90625 56 9.796875 56 
C 9.40625 56 8.90625 56 8.5 55.796875 
C 11.40625 62.484375 19.296875 63.6875 22.796875 63.6875 
C 26.296875 63.6875 32.90625 61.96875 32.90625 52.296875 
C 32.90625 49.484375 32.5 44.546875 29.09375 40.21875 
C 26.09375 36.390625 22.703125 36.1875 19.40625 35.890625 
C 18.90625 35.890625 16.59375 35.6875 16.203125 35.6875 
C 15.5 35.59375 15.09375 35.5 15.09375 34.796875 
C 15.09375 34.09375 15.203125 34 17.203125 34 
z
" id="CMR17-51"/>
      </defs>
      <g transform="translate(597.290778 334.776976)scale(0.18 -0.18)">
       <use transform="scale(0.996264)" xlink:href="#CMR17-51"/>
       <use transform="translate(45.690477 0)scale(0.996264)" xlink:href="#CMR17-48"/>
      </g>
     </g>
    </g>
    <g id="xtick_8">
     <g id="line2d_15">
      <path clip-path="url(#p4f8ec3c44b)" d="M 684.121375 315 
L 684.121375 43.2 
" style="fill:none;stroke:#b0b0b0;stroke-linecap:square;stroke-width:0.8;"/>
     </g>
     <g id="line2d_16">
      <g>
       <use style="stroke:#000000;stroke-width:0.8;" x="684.121375" xlink:href="#m41dc404400" y="315"/>
      </g>
     </g>
     <g id="text_8">
      <!-- $\mathdefault{35}$ -->
      <g transform="translate(675.897089 334.776976)scale(0.18 -0.18)">
       <use transform="scale(0.996264)" xlink:href="#CMR17-51"/>
       <use transform="translate(45.690477 0)scale(0.996264)" xlink:href="#CMR17-53"/>
      </g>
     </g>
    </g>
    <g id="xtick_9">
     <g id="line2d_17">
      <path clip-path="url(#p4f8ec3c44b)" d="M 762.727686 315 
L 762.727686 43.2 
" style="fill:none;stroke:#b0b0b0;stroke-linecap:square;stroke-width:0.8;"/>
     </g>
     <g id="line2d_18">
      <g>
       <use style="stroke:#000000;stroke-width:0.8;" x="762.727686" xlink:href="#m41dc404400" y="315"/>
      </g>
     </g>
     <g id="text_9">
      <!-- $\mathdefault{40}$ -->
      <defs>
       <path d="M 33.59375 64.796875 
C 33.59375 66.890625 33.5 67 31.703125 67 
L 2 19.59375 
L 2 17 
L 27.796875 17 
L 27.796875 7.1875 
C 27.796875 3.59375 27.59375 2.59375 20.59375 2.59375 
L 18.703125 2.59375 
L 18.703125 0 
C 21.90625 0.1875 27.296875 0.1875 30.703125 0.1875 
C 34.09375 0.1875 39.5 0.1875 42.703125 0 
L 42.703125 2.59375 
L 40.796875 2.59375 
C 33.796875 2.59375 33.59375 3.59375 33.59375 7.1875 
L 33.59375 17 
L 43.796875 17 
L 43.796875 19.59375 
L 33.59375 19.59375 
z
M 28.09375 58.171875 
L 28.09375 19.59375 
L 4 19.59375 
z
" id="CMR17-52"/>
      </defs>
      <g transform="translate(754.5034 334.776976)scale(0.18 -0.18)">
       <use transform="scale(0.996264)" xlink:href="#CMR17-52"/>
       <use transform="translate(45.690477 0)scale(0.996264)" xlink:href="#CMR17-48"/>
      </g>
     </g>
    </g>
    <g id="text_10">
     <!-- Zeit $t$ [s] -->
     <defs>
      <path d="M 58.09375 73 
L 5.59375 73 
L 5.59375 64.796875 
L 46.59375 64.796875 
L 2.796875 8.1875 
L 2.796875 0 
L 58.296875 0 
L 58.296875 8.1875 
L 14.5 8.1875 
L 58.09375 64.59375 
z
" id="Nimbus_Sans_L_Regular-90"/>
      <path d="M 51.296875 23.1875 
C 51.296875 31.21875 50.703125 36.109375 49.203125 40.078125 
C 45.796875 48.796875 37.796875 54 28 54 
C 13.40625 54 4 42.71875 4 25.296875 
C 4 8.515625 13.09375 -2 27.796875 -2 
C 39.796875 -2 48.09375 4.796875 50.203125 15.90625 
L 41.796875 15.90625 
C 39.5 9.1875 34.796875 5.6875 28.09375 5.6875 
C 22.796875 5.6875 18.296875 8.03125 15.5 12.296875 
C 13.5 15.21875 12.796875 18.140625 12.703125 23.1875 
z
M 12.90625 30 
C 13.59375 39.875 19.5 46.296875 27.90625 46.296875 
C 36.09375 46.296875 42.40625 39.359375 42.40625 30.609375 
C 42.40625 30.40625 42.40625 30.203125 42.296875 30 
z
" id="Nimbus_Sans_L_Regular-101"/>
      <path d="M 15 52.46875 
L 6.703125 52.46875 
L 6.703125 0 
L 15 0 
z
M 15 73 
L 6.59375 73 
L 6.59375 62.484375 
L 15 62.484375 
z
" id="Nimbus_Sans_L_Regular-105"/>
      <path d="M 25.40625 52 
L 16.796875 52 
L 16.796875 66.390625 
L 8.5 66.390625 
L 8.5 52 
L 1.40625 52 
L 1.40625 45.1875 
L 8.5 45.1875 
L 8.5 6.28125 
C 8.5 1 12.09375 -2 18.59375 -2 
C 20.59375 -2 22.59375 -1.8125 25.40625 -1.3125 
L 25.40625 5.6875 
C 24.296875 5.390625 23 5.296875 21.40625 5.296875 
C 17.796875 5.296875 16.796875 6.28125 16.796875 9.90625 
L 16.796875 45.1875 
L 25.40625 45.1875 
z
" id="Nimbus_Sans_L_Regular-116"/>
      <path d="M 20.09375 40.09375 
L 29.296875 40.09375 
C 31.203125 40.09375 32.203125 40.09375 32.203125 41.890625 
C 32.203125 43 31.59375 43 29.59375 43 
L 20.796875 43 
L 24.5 57.25 
C 24.90625 58.625 24.90625 58.8125 24.90625 59.5 
C 24.90625 61.09375 23.59375 62 22.296875 62 
C 21.5 62 19.203125 61.6875 18.40625 58.53125 
L 14.5 43 
L 5.09375 43 
C 3.09375 43 2.203125 43 2.203125 41.09375 
C 2.203125 40.09375 2.90625 40.09375 4.796875 40.09375 
L 13.703125 40.09375 
L 7.09375 13.765625 
C 6.296875 10.265625 6 9.265625 6 7.96875 
C 6 3.28125 9.296875 -1 14.90625 -1 
C 25 -1 30.40625 13.5625 30.40625 14.265625 
C 30.40625 14.859375 30 15.15625 29.40625 15.15625 
C 29.203125 15.15625 28.796875 15.15625 28.59375 14.75 
C 28.5 14.65625 28.40625 14.5625 27.703125 12.96875 
C 25.59375 7.96875 21 1 15.203125 1 
C 12.203125 1 12 3.484375 12 5.6875 
C 12 5.78125 12 7.671875 12.296875 8.875 
z
" id="CMMI12-116"/>
      <path d="M 25 73 
L 6.40625 73 
L 6.40625 -21.203125 
L 25 -21.203125 
L 25 -14 
L 14.703125 -14 
L 14.703125 65.796875 
L 25 65.796875 
z
" id="Nimbus_Sans_L_Regular-91"/>
      <path d="M 43.796875 37.9375 
C 43.703125 48.1875 36.90625 54 24.796875 54 
C 12.59375 54 4.703125 47.6875 4.703125 38.03125 
C 4.703125 29.875 8.90625 25.984375 21.296875 23 
L 29.09375 21.109375 
C 34.90625 19.71875 37.203125 17.640625 37.203125 13.859375 
C 37.203125 8.96875 32.296875 5.6875 25 5.6875 
C 20.5 5.6875 16.703125 6.984375 14.59375 9.171875 
C 13.296875 10.671875 12.703125 12.15625 12.203125 15.84375 
L 3.40625 15.84375 
C 3.796875 3.796875 10.59375 -2 24.296875 -2 
C 37.5 -2 45.90625 4.5 45.90625 14.546875 
C 45.90625 22.3125 41.5 26.59375 31.09375 29.078125 
L 23.09375 30.96875 
C 16.296875 32.5625 13.40625 34.75 13.40625 38.421875 
C 13.40625 43.203125 17.703125 46.296875 24.5 46.296875 
C 31.203125 46.296875 34.796875 43.40625 35 37.9375 
z
" id="Nimbus_Sans_L_Regular-115"/>
      <path d="M 2.296875 -21.203125 
L 20.90625 -21.203125 
L 20.90625 73 
L 2.296875 73 
L 2.296875 65.796875 
L 12.59375 65.796875 
L 12.59375 -14 
L 2.296875 -14 
z
" id="Nimbus_Sans_L_Regular-93"/>
     </defs>
     <g transform="translate(415.657871 353.244026)scale(0.15 -0.15)">
      <use transform="scale(0.996264)" xlink:href="#Nimbus_Sans_L_Regular-90"/>
      <use transform="translate(60.871631 0)scale(0.996264)" xlink:href="#Nimbus_Sans_L_Regular-101"/>
      <use transform="translate(116.263308 0)scale(0.996264)" xlink:href="#Nimbus_Sans_L_Regular-105"/>
      <use transform="translate(138.380092 0)scale(0.996264)" xlink:href="#Nimbus_Sans_L_Regular-116"/>
      <use transform="translate(193.770431 0)scale(0.996264)" xlink:href="#CMMI12-116"/>
      <use transform="translate(256.691931 0)scale(0.996264)" xlink:href="#Nimbus_Sans_L_Regular-91"/>
      <use transform="translate(284.387101 0)scale(0.996264)" xlink:href="#Nimbus_Sans_L_Regular-115"/>
      <use transform="translate(334.200301 0)scale(0.996264)" xlink:href="#Nimbus_Sans_L_Regular-93"/>
     </g>
    </g>
   </g>
   <g id="matplotlib.axis_2">
    <g id="ytick_1">
     <g id="line2d_19">
      <path clip-path="url(#p4f8ec3c44b)" d="M 108 301.769246 
L 777.6 301.769246 
" style="fill:none;stroke:#b0b0b0;stroke-linecap:square;stroke-width:0.8;"/>
     </g>
     <g id="line2d_20">
      <defs>
       <path d="M 0 0 
L -3.5 0 
" id="m1136103f4c" style="stroke:#000000;stroke-width:0.8;"/>
      </defs>
      <g>
       <use style="stroke:#000000;stroke-width:0.8;" x="108" xlink:href="#m1136103f4c" y="301.769246"/>
      </g>
     </g>
     <g id="text_11">
      <!-- $\mathdefault{25}$ -->
      <g transform="translate(84.551428 308.157734)scale(0.18 -0.18)">
       <use transform="scale(0.996264)" xlink:href="#CMR17-50"/>
       <use transform="translate(45.690477 0)scale(0.996264)" xlink:href="#CMR17-53"/>
      </g>
     </g>
    </g>
    <g id="ytick_2">
     <g id="line2d_21">
      <path clip-path="url(#p4f8ec3c44b)" d="M 108 257.958801 
L 777.6 257.958801 
" style="fill:none;stroke:#b0b0b0;stroke-linecap:square;stroke-width:0.8;"/>
     </g>
     <g id="line2d_22">
      <g>
       <use style="stroke:#000000;stroke-width:0.8;" x="108" xlink:href="#m1136103f4c" y="257.958801"/>
      </g>
     </g>
     <g id="text_12">
      <!-- $\mathdefault{30}$ -->
      <g transform="translate(84.551428 264.347289)scale(0.18 -0.18)">
       <use transform="scale(0.996264)" xlink:href="#CMR17-51"/>
       <use transform="translate(45.690477 0)scale(0.996264)" xlink:href="#CMR17-48"/>
      </g>
     </g>
    </g>
    <g id="ytick_3">
     <g id="line2d_23">
      <path clip-path="url(#p4f8ec3c44b)" d="M 108 214.148356 
L 777.6 214.148356 
" style="fill:none;stroke:#b0b0b0;stroke-linecap:square;stroke-width:0.8;"/>
     </g>
     <g id="line2d_24">
      <g>
       <use style="stroke:#000000;stroke-width:0.8;" x="108" xlink:href="#m1136103f4c" y="214.148356"/>
      </g>
     </g>
     <g id="text_13">
      <!-- $\mathdefault{35}$ -->
      <g transform="translate(84.551428 220.536844)scale(0.18 -0.18)">
       <use transform="scale(0.996264)" xlink:href="#CMR17-51"/>
       <use transform="translate(45.690477 0)scale(0.996264)" xlink:href="#CMR17-53"/>
      </g>
     </g>
    </g>
    <g id="ytick_4">
     <g id="line2d_25">
      <path clip-path="url(#p4f8ec3c44b)" d="M 108 170.337911 
L 777.6 170.337911 
" style="fill:none;stroke:#b0b0b0;stroke-linecap:square;stroke-width:0.8;"/>
     </g>
     <g id="line2d_26">
      <g>
       <use style="stroke:#000000;stroke-width:0.8;" x="108" xlink:href="#m1136103f4c" y="170.337911"/>
      </g>
     </g>
     <g id="text_14">
      <!-- $\mathdefault{40}$ -->
      <g transform="translate(84.551428 176.726399)scale(0.18 -0.18)">
       <use transform="scale(0.996264)" xlink:href="#CMR17-52"/>
       <use transform="translate(45.690477 0)scale(0.996264)" xlink:href="#CMR17-48"/>
      </g>
     </g>
    </g>
    <g id="ytick_5">
     <g id="line2d_27">
      <path clip-path="url(#p4f8ec3c44b)" d="M 108 126.527466 
L 777.6 126.527466 
" style="fill:none;stroke:#b0b0b0;stroke-linecap:square;stroke-width:0.8;"/>
     </g>
     <g id="line2d_28">
      <g>
       <use style="stroke:#000000;stroke-width:0.8;" x="108" xlink:href="#m1136103f4c" y="126.527466"/>
      </g>
     </g>
     <g id="text_15">
      <!-- $\mathdefault{45}$ -->
      <g transform="translate(84.551428 132.915954)scale(0.18 -0.18)">
       <use transform="scale(0.996264)" xlink:href="#CMR17-52"/>
       <use transform="translate(45.690477 0)scale(0.996264)" xlink:href="#CMR17-53"/>
      </g>
     </g>
    </g>
    <g id="ytick_6">
     <g id="line2d_29">
      <path clip-path="url(#p4f8ec3c44b)" d="M 108 82.717021 
L 777.6 82.717021 
" style="fill:none;stroke:#b0b0b0;stroke-linecap:square;stroke-width:0.8;"/>
     </g>
     <g id="line2d_30">
      <g>
       <use style="stroke:#000000;stroke-width:0.8;" x="108" xlink:href="#m1136103f4c" y="82.717021"/>
      </g>
     </g>
     <g id="text_16">
      <!-- $\mathdefault{50}$ -->
      <g transform="translate(84.551428 89.10551)scale(0.18 -0.18)">
       <use transform="scale(0.996264)" xlink:href="#CMR17-53"/>
       <use transform="translate(45.690477 0)scale(0.996264)" xlink:href="#CMR17-48"/>
      </g>
     </g>
    </g>
    <g id="text_17">
     <!-- Temperatur $T_W$ [°C] -->
     <defs>
      <path d="M 35.40625 64.796875 
L 59.296875 64.796875 
L 59.296875 73 
L 2.09375 73 
L 2.09375 64.796875 
L 26.09375 64.796875 
L 26.09375 0 
L 35.40625 0 
z
" id="Nimbus_Sans_L_Regular-84"/>
      <path d="M 7 52 
L 7 0 
L 15.40625 0 
L 15.40625 32.640625 
C 15.40625 40.578125 20.90625 46.6875 27.703125 46.6875 
C 33.90625 46.6875 37.40625 42.875 37.40625 36.171875 
L 37.40625 0 
L 45.796875 0 
L 45.796875 32.953125 
C 45.796875 40.578125 51.296875 46.6875 58.09375 46.6875 
C 64.203125 46.6875 67.796875 42.78125 67.796875 36.171875 
L 67.796875 0 
L 76.203125 0 
L 76.203125 39.375 
C 76.203125 48.796875 70.796875 54 61 54 
C 54 54 49.796875 51.890625 44.90625 45.984375 
C 41.796875 51.59375 37.59375 54 30.796875 54 
C 23.796875 54 19.203125 51.390625 14.703125 45.09375 
L 14.703125 52 
z
" id="Nimbus_Sans_L_Regular-109"/>
      <path d="M 5.40625 -22 
L 13.796875 -22 
L 13.796875 5.796875 
C 18.203125 0.390625 23.09375 -2 29.90625 -2 
C 43.40625 -2 52.296875 8.875 52.296875 25.5 
C 52.296875 43 43.703125 54 29.796875 54 
C 22.703125 54 17 50.796875 13.09375 44.59375 
L 13.09375 52.484375 
L 5.40625 52.484375 
z
M 28.40625 46.1875 
C 37.59375 46.1875 43.59375 38.125 43.59375 25.6875 
C 43.59375 13.859375 37.5 5.796875 28.40625 5.796875 
C 19.59375 5.796875 13.796875 13.75 13.796875 25.984375 
C 13.796875 38.234375 19.59375 46.1875 28.40625 46.1875 
z
" id="Nimbus_Sans_L_Regular-112"/>
      <path d="M 6.90625 52 
L 6.90625 0 
L 15.296875 0 
L 15.296875 26.984375 
C 15.296875 34.421875 17.203125 39.28125 21.203125 42.15625 
C 23.796875 44.046875 26.296875 44.640625 32.09375 44.734375 
L 32.09375 53.1875 
C 30.703125 53.890625 30 54 28.90625 54 
C 23.5 54 19.40625 50.796875 14.59375 42.96875 
L 14.59375 52 
z
" id="Nimbus_Sans_L_Regular-114"/>
      <path d="M 53.5 5.1875 
C 52.59375 5 52.203125 5 51.703125 5 
C 48.796875 5 47.203125 6.484375 47.203125 9.078125 
L 47.203125 39.71875 
C 47.203125 48.984375 40.40625 54 27.5 54 
C 19.90625 54 13.59375 51.796875 10.09375 47.890625 
C 7.703125 45.203125 6.703125 42.21875 6.5 37.03125 
L 14.90625 37.03125 
C 15.59375 43.40625 19.40625 46.296875 27.203125 46.296875 
C 34.703125 46.296875 38.90625 43.5 38.90625 38.53125 
L 38.90625 36.34375 
C 38.90625 32.859375 36.796875 31.359375 30.203125 30.5625 
C 18.40625 29.078125 16.59375 28.671875 13.40625 27.390625 
C 7.296875 24.890625 4.203125 20.21875 4.203125 13.453125 
C 4.203125 4 10.796875 -2 21.40625 -2 
C 28 -2 33.296875 0.296875 39.203125 5.6875 
C 39.796875 0.390625 42.40625 -2 47.796875 -2 
C 49.5 -2 50.796875 -1.8125 53.5 -1.109375 
z
M 38.90625 16.734375 
C 38.90625 13.953125 38.09375 12.265625 35.59375 9.96875 
C 32.203125 6.890625 28.09375 5.296875 23.203125 5.296875 
C 16.703125 5.296875 12.90625 8.375 12.90625 13.65625 
C 12.90625 19.125 16.59375 21.90625 25.5 23.203125 
C 34.296875 24.40625 36.09375 24.796875 38.90625 26.09375 
z
" id="Nimbus_Sans_L_Regular-97"/>
      <path d="M 48.203125 0.296875 
L 48.203125 52 
L 39.90625 52 
L 39.90625 22.71875 
C 39.90625 12.1875 34.296875 5.296875 25.59375 5.296875 
C 19 5.296875 14.796875 9.234375 14.796875 15.4375 
L 14.796875 52 
L 6.5 52 
L 6.5 12.1875 
C 6.5 3.59375 13 -2 23.203125 -2 
C 30.90625 -2 35.796875 0.6875 40.703125 7.5625 
L 40.703125 0.296875 
z
" id="Nimbus_Sans_L_Regular-117"/>
      <path d="M 41.703125 60.71875 
C 42.296875 63.09375 42.5 64 44 64.390625 
C 44.796875 64.59375 48.09375 64.59375 50.203125 64.59375 
C 60.203125 64.59375 64.90625 64.203125 64.90625 56.4375 
C 64.90625 54.9375 64.5 51.15625 63.90625 47.46875 
L 63.796875 46.28125 
C 63.796875 45.890625 64.203125 45.28125 64.796875 45.28125 
C 65.796875 45.28125 65.796875 45.78125 66.09375 47.375 
L 69 64.984375 
C 69.203125 65.890625 69.203125 66.09375 69.203125 66.390625 
C 69.203125 67.484375 68.59375 67.484375 66.59375 67.484375 
L 11.90625 67.484375 
C 9.59375 67.484375 9.5 67.390625 8.90625 65.59375 
L 2.796875 47.671875 
C 2.703125 47.46875 2.40625 46.375 2.40625 46.28125 
C 2.40625 45.78125 2.796875 45.28125 3.40625 45.28125 
C 4.203125 45.28125 4.40625 45.6875 4.796875 46.984375 
C 9 59.015625 11.09375 64.59375 24.40625 64.59375 
L 31.09375 64.59375 
C 33.5 64.59375 34.5 64.59375 34.5 63.5 
C 34.5 63.203125 34.5 63 34 61.203125 
L 20.59375 7.765625 
C 19.59375 3.890625 19.40625 2.890625 8.796875 2.890625 
C 6.296875 2.890625 5.59375 2.890625 5.59375 1 
C 5.59375 0 6.703125 0 7.203125 0 
C 9.703125 0 12.296875 0.1875 14.796875 0.1875 
L 30.40625 0.1875 
C 32.90625 0.1875 35.59375 0 38.09375 0 
C 39.203125 0 40.203125 0 40.203125 1.890625 
C 40.203125 2.890625 39.5 2.890625 36.90625 2.890625 
C 27.90625 2.890625 27.90625 3.78125 27.90625 5.28125 
C 27.90625 5.375 27.90625 6.078125 28.296875 7.671875 
z
" id="CMMI12-84"/>
      <path d="M 90.296875 56.9375 
C 92.59375 60.8125 94.796875 64.484375 100.796875 65.09375 
C 101.703125 65.1875 102.59375 65.296875 102.59375 66.890625 
C 102.59375 68 101.703125 68 101.40625 68 
C 101.203125 68 100.5 67.796875 93.90625 67.796875 
C 90.90625 67.796875 87.796875 68 84.90625 68 
C 84.296875 68 83.09375 68 83.09375 66.09375 
C 83.09375 65.1875 83.90625 65.09375 84.5 65.09375 
C 86.5 64.984375 89.703125 64.390625 89.703125 61.3125 
C 89.703125 60.015625 89.296875 59.328125 88.296875 57.640625 
L 61 10.125 
L 57.40625 61.90625 
C 57.40625 63.09375 58.5 64.984375 64.09375 65.09375 
C 65.40625 65.09375 66.40625 65.09375 66.40625 66.984375 
C 66.40625 68 65.40625 68 64.90625 68 
C 61.40625 68 57.703125 67.796875 54.09375 67.796875 
L 48.90625 67.796875 
C 47.40625 67.796875 45.59375 68 44.09375 68 
C 43.5 68 42.296875 68 42.296875 66.09375 
C 42.296875 65.09375 43 65.09375 44.703125 65.09375 
C 49.296875 65.09375 49.296875 64.984375 49.703125 58.921875 
L 50 55.34375 
L 24.09375 10.125 
L 20.40625 61.40625 
C 20.40625 62.5 20.40625 64.984375 27.203125 65.09375 
C 28.296875 65.09375 29.40625 65.09375 29.40625 66.890625 
C 29.40625 68 28.5 68 27.90625 68 
C 24.40625 68 20.703125 67.796875 17.09375 67.796875 
L 11.90625 67.796875 
C 10.40625 67.796875 8.59375 68 7.09375 68 
C 6.5 68 5.296875 68 5.296875 66.09375 
C 5.296875 65.09375 6.09375 65.09375 7.5 65.09375 
C 12.203125 65.09375 12.296875 64.484375 12.5 61.3125 
L 16.90625 0.296875 
C 17 -1.40625 17.09375 -2 18.296875 -2 
C 19.296875 -2 19.5 -1.609375 20.40625 -0.109375 
L 50.203125 51.671875 
L 53.90625 0.296875 
C 54 -1.40625 54.09375 -2 55.296875 -2 
C 56.296875 -2 56.59375 -1.5 57.40625 -0.109375 
z
" id="CMMI12-87"/>
      <path d="M 30.296875 69 
C 21.90625 69 15.09375 62.171875 15.09375 53.6875 
C 15.09375 45.21875 21.90625 38.296875 30.09375 38.296875 
C 38.59375 38.296875 45.40625 45.015625 45.40625 53.6875 
C 45.40625 62.171875 38.59375 69 30.296875 69 
z
M 30.296875 63.296875 
C 35.5 63.296875 39.703125 59 39.703125 53.6875 
C 39.703125 48.28125 35.5 44 30.09375 44 
C 25.09375 44 20.796875 48.390625 20.796875 53.6875 
C 20.796875 58.90625 25.09375 63.296875 30.296875 63.296875 
z
" id="Nimbus_Sans_L_Regular-176"/>
      <path d="M 66.203125 50.296875 
C 63.296875 66.1875 54.09375 74 38.09375 74 
C 28.296875 74 20.40625 70.890625 15 64.90625 
C 8.40625 57.75 4.796875 47.421875 4.796875 35.6875 
C 4.796875 23.78125 8.5 13.546875 15.40625 6.484375 
C 21 0.6875 28.203125 -2 37.703125 -2 
C 55.5 -2 65.5 7.578125 67.703125 26.75 
L 58.09375 26.75 
C 57.296875 21.78125 56.296875 18.40625 54.796875 15.53125 
C 51.796875 9.5625 45.59375 6.1875 37.796875 6.1875 
C 23.296875 6.1875 14.09375 17.71875 14.09375 35.796875 
C 14.09375 54.375 22.90625 65.796875 37 65.796875 
C 42.90625 65.796875 48.40625 64 51.40625 61.21875 
C 54.09375 58.734375 55.59375 55.65625 56.703125 50.296875 
z
" id="Nimbus_Sans_L_Regular-67"/>
     </defs>
     <g transform="translate(77.368449 243.638947)rotate(-90)scale(0.15 -0.15)">
      <use transform="scale(0.996264)" xlink:href="#Nimbus_Sans_L_Regular-84"/>
      <use transform="translate(48.916949 0)scale(0.996264)" xlink:href="#Nimbus_Sans_L_Regular-101"/>
      <use transform="translate(104.308626 0)scale(0.996264)" xlink:href="#Nimbus_Sans_L_Regular-109"/>
      <use transform="translate(187.297056 0)scale(0.996264)" xlink:href="#Nimbus_Sans_L_Regular-112"/>
      <use transform="translate(242.688733 0)scale(0.996264)" xlink:href="#Nimbus_Sans_L_Regular-101"/>
      <use transform="translate(298.08041 0)scale(0.996264)" xlink:href="#Nimbus_Sans_L_Regular-114"/>
      <use transform="translate(330.259543 0)scale(0.996264)" xlink:href="#Nimbus_Sans_L_Regular-97"/>
      <use transform="translate(385.65122 0)scale(0.996264)" xlink:href="#Nimbus_Sans_L_Regular-116"/>
      <use transform="translate(413.34639 0)scale(0.996264)" xlink:href="#Nimbus_Sans_L_Regular-117"/>
      <use transform="translate(468.738067 0)scale(0.996264)" xlink:href="#Nimbus_Sans_L_Regular-114"/>
      <use transform="translate(529.608466 0)scale(0.996264)" xlink:href="#CMMI12-84"/>
      <use transform="translate(586.78351 -14.943915)scale(0.697382)" xlink:href="#CMMI12-87"/>
      <use transform="translate(688.92763 0)scale(0.996264)" xlink:href="#Nimbus_Sans_L_Regular-91"/>
      <use transform="translate(716.622799 0)scale(0.996264)" xlink:href="#Nimbus_Sans_L_Regular-176"/>
      <use transform="translate(756.473314 0)scale(0.996264)" xlink:href="#Nimbus_Sans_L_Regular-67"/>
      <use transform="translate(828.403299 0)scale(0.996264)" xlink:href="#Nimbus_Sans_L_Regular-93"/>
     </g>
    </g>
   </g>
   <g id="LineCollection_1">
    <path clip-path="url(#p4f8ec3c44b)" d="M 138.436364 294.759574 
L 138.750789 294.759574 
" style="fill:none;stroke:#118ab2;stroke-width:1.5;"/>
    <path clip-path="url(#p4f8ec3c44b)" d="M 165.162509 293.883366 
L 165.476935 293.883366 
" style="fill:none;stroke:#118ab2;stroke-width:1.5;"/>
    <path clip-path="url(#p4f8ec3c44b)" d="M 180.883772 293.007157 
L 181.198197 293.007157 
" style="fill:none;stroke:#118ab2;stroke-width:1.5;"/>
    <path clip-path="url(#p4f8ec3c44b)" d="M 196.605034 294.759574 
L 196.919459 294.759574 
" style="fill:none;stroke:#118ab2;stroke-width:1.5;"/>
    <path clip-path="url(#p4f8ec3c44b)" d="M 212.326296 293.883366 
L 212.640721 293.883366 
" style="fill:none;stroke:#118ab2;stroke-width:1.5;"/>
    <path clip-path="url(#p4f8ec3c44b)" d="M 228.047558 294.759574 
L 228.361983 294.759574 
" style="fill:none;stroke:#118ab2;stroke-width:1.5;"/>
    <path clip-path="url(#p4f8ec3c44b)" d="M 243.76882 294.759574 
L 244.083246 294.759574 
" style="fill:none;stroke:#118ab2;stroke-width:1.5;"/>
    <path clip-path="url(#p4f8ec3c44b)" d="M 259.490083 296.511992 
L 259.804508 296.511992 
" style="fill:none;stroke:#118ab2;stroke-width:1.5;"/>
    <path clip-path="url(#p4f8ec3c44b)" d="M 275.211345 301.769246 
L 275.52577 301.769246 
" style="fill:none;stroke:#118ab2;stroke-width:1.5;"/>
    <path clip-path="url(#p4f8ec3c44b)" d="M 290.932607 288.626112 
L 291.247032 288.626112 
" style="fill:none;stroke:#118ab2;stroke-width:1.5;"/>
    <path clip-path="url(#p4f8ec3c44b)" d="M 306.653869 263.216054 
L 306.968295 263.216054 
" style="fill:none;stroke:#118ab2;stroke-width:1.5;"/>
    <path clip-path="url(#p4f8ec3c44b)" d="M 322.375131 252.701547 
L 322.689557 252.701547 
" style="fill:none;stroke:#118ab2;stroke-width:1.5;"/>
    <path clip-path="url(#p4f8ec3c44b)" d="M 338.096394 65.192843 
L 338.410819 65.192843 
" style="fill:none;stroke:#118ab2;stroke-width:1.5;"/>
    <path clip-path="url(#p4f8ec3c44b)" d="M 353.817656 61.688008 
L 354.132081 61.688008 
" style="fill:none;stroke:#118ab2;stroke-width:1.5;"/>
    <path clip-path="url(#p4f8ec3c44b)" d="M 369.538918 67.82147 
L 369.853343 67.82147 
" style="fill:none;stroke:#118ab2;stroke-width:1.5;"/>
    <path clip-path="url(#p4f8ec3c44b)" d="M 385.26018 64.316634 
L 385.574606 64.316634 
" style="fill:none;stroke:#118ab2;stroke-width:1.5;"/>
    <path clip-path="url(#p4f8ec3c44b)" d="M 400.981443 64.316634 
L 401.295868 64.316634 
" style="fill:none;stroke:#118ab2;stroke-width:1.5;"/>
    <path clip-path="url(#p4f8ec3c44b)" d="M 416.702705 67.82147 
L 417.01713 67.82147 
" style="fill:none;stroke:#118ab2;stroke-width:1.5;"/>
    <path clip-path="url(#p4f8ec3c44b)" d="M 432.423967 65.192843 
L 432.738392 65.192843 
" style="fill:none;stroke:#118ab2;stroke-width:1.5;"/>
    <path clip-path="url(#p4f8ec3c44b)" d="M 448.145229 66.069052 
L 448.459654 66.069052 
" style="fill:none;stroke:#118ab2;stroke-width:1.5;"/>
    <path clip-path="url(#p4f8ec3c44b)" d="M 463.866491 64.316634 
L 464.180917 64.316634 
" style="fill:none;stroke:#118ab2;stroke-width:1.5;"/>
    <path clip-path="url(#p4f8ec3c44b)" d="M 479.587754 66.945261 
L 479.902179 66.945261 
" style="fill:none;stroke:#118ab2;stroke-width:1.5;"/>
    <path clip-path="url(#p4f8ec3c44b)" d="M 495.309016 67.82147 
L 495.623441 67.82147 
" style="fill:none;stroke:#118ab2;stroke-width:1.5;"/>
    <path clip-path="url(#p4f8ec3c44b)" d="M 511.030278 56.430754 
L 511.344703 56.430754 
" style="fill:none;stroke:#118ab2;stroke-width:1.5;"/>
    <path clip-path="url(#p4f8ec3c44b)" d="M 526.75154 60.811799 
L 527.065965 60.811799 
" style="fill:none;stroke:#118ab2;stroke-width:1.5;"/>
    <path clip-path="url(#p4f8ec3c44b)" d="M 542.472802 63.440426 
L 542.787228 63.440426 
" style="fill:none;stroke:#118ab2;stroke-width:1.5;"/>
    <path clip-path="url(#p4f8ec3c44b)" d="M 558.194065 63.440426 
L 558.50849 63.440426 
" style="fill:none;stroke:#118ab2;stroke-width:1.5;"/>
    <path clip-path="url(#p4f8ec3c44b)" d="M 573.915327 65.192843 
L 574.229752 65.192843 
" style="fill:none;stroke:#118ab2;stroke-width:1.5;"/>
    <path clip-path="url(#p4f8ec3c44b)" d="M 589.636589 65.192843 
L 589.951014 65.192843 
" style="fill:none;stroke:#118ab2;stroke-width:1.5;"/>
    <path clip-path="url(#p4f8ec3c44b)" d="M 605.357851 59.059381 
L 605.672276 59.059381 
" style="fill:none;stroke:#118ab2;stroke-width:1.5;"/>
    <path clip-path="url(#p4f8ec3c44b)" d="M 621.079113 71.326306 
L 621.393539 71.326306 
" style="fill:none;stroke:#118ab2;stroke-width:1.5;"/>
    <path clip-path="url(#p4f8ec3c44b)" d="M 636.800376 62.564217 
L 637.114801 62.564217 
" style="fill:none;stroke:#118ab2;stroke-width:1.5;"/>
    <path clip-path="url(#p4f8ec3c44b)" d="M 652.521638 67.82147 
L 652.836063 67.82147 
" style="fill:none;stroke:#118ab2;stroke-width:1.5;"/>
    <path clip-path="url(#p4f8ec3c44b)" d="M 668.2429 68.697679 
L 668.557325 68.697679 
" style="fill:none;stroke:#118ab2;stroke-width:1.5;"/>
    <path clip-path="url(#p4f8ec3c44b)" d="M 683.964162 60.811799 
L 684.278588 60.811799 
" style="fill:none;stroke:#118ab2;stroke-width:1.5;"/>
    <path clip-path="url(#p4f8ec3c44b)" d="M 699.685424 64.316634 
L 699.99985 64.316634 
" style="fill:none;stroke:#118ab2;stroke-width:1.5;"/>
    <path clip-path="url(#p4f8ec3c44b)" d="M 715.406687 67.82147 
L 715.721112 67.82147 
" style="fill:none;stroke:#118ab2;stroke-width:1.5;"/>
    <path clip-path="url(#p4f8ec3c44b)" d="M 731.127949 70.450097 
L 731.442374 70.450097 
" style="fill:none;stroke:#118ab2;stroke-width:1.5;"/>
    <path clip-path="url(#p4f8ec3c44b)" d="M 746.849211 62.564217 
L 747.163636 62.564217 
" style="fill:none;stroke:#118ab2;stroke-width:1.5;"/>
   </g>
   <g id="LineCollection_2">
    <path clip-path="url(#p4f8ec3c44b)" d="M 138.593576 295.635783 
L 138.593576 293.883366 
" style="fill:none;stroke:#118ab2;stroke-width:1.5;"/>
    <path clip-path="url(#p4f8ec3c44b)" d="M 165.319722 294.759574 
L 165.319722 293.007157 
" style="fill:none;stroke:#118ab2;stroke-width:1.5;"/>
    <path clip-path="url(#p4f8ec3c44b)" d="M 181.040984 293.883366 
L 181.040984 292.130948 
" style="fill:none;stroke:#118ab2;stroke-width:1.5;"/>
    <path clip-path="url(#p4f8ec3c44b)" d="M 196.762246 295.635783 
L 196.762246 293.883366 
" style="fill:none;stroke:#118ab2;stroke-width:1.5;"/>
    <path clip-path="url(#p4f8ec3c44b)" d="M 212.483509 294.759574 
L 212.483509 293.007157 
" style="fill:none;stroke:#118ab2;stroke-width:1.5;"/>
    <path clip-path="url(#p4f8ec3c44b)" d="M 228.204771 295.635783 
L 228.204771 293.883366 
" style="fill:none;stroke:#118ab2;stroke-width:1.5;"/>
    <path clip-path="url(#p4f8ec3c44b)" d="M 243.926033 295.635783 
L 243.926033 293.883366 
" style="fill:none;stroke:#118ab2;stroke-width:1.5;"/>
    <path clip-path="url(#p4f8ec3c44b)" d="M 259.647295 297.388201 
L 259.647295 295.635783 
" style="fill:none;stroke:#118ab2;stroke-width:1.5;"/>
    <path clip-path="url(#p4f8ec3c44b)" d="M 275.368557 302.645455 
L 275.368557 300.893037 
" style="fill:none;stroke:#118ab2;stroke-width:1.5;"/>
    <path clip-path="url(#p4f8ec3c44b)" d="M 291.08982 289.502321 
L 291.08982 287.749903 
" style="fill:none;stroke:#118ab2;stroke-width:1.5;"/>
    <path clip-path="url(#p4f8ec3c44b)" d="M 306.811082 264.092263 
L 306.811082 262.339845 
" style="fill:none;stroke:#118ab2;stroke-width:1.5;"/>
    <path clip-path="url(#p4f8ec3c44b)" d="M 322.532344 253.577756 
L 322.532344 251.825338 
" style="fill:none;stroke:#118ab2;stroke-width:1.5;"/>
    <path clip-path="url(#p4f8ec3c44b)" d="M 338.253606 66.069052 
L 338.253606 64.316634 
" style="fill:none;stroke:#118ab2;stroke-width:1.5;"/>
    <path clip-path="url(#p4f8ec3c44b)" d="M 353.974869 62.564217 
L 353.974869 60.811799 
" style="fill:none;stroke:#118ab2;stroke-width:1.5;"/>
    <path clip-path="url(#p4f8ec3c44b)" d="M 369.696131 68.697679 
L 369.696131 66.945261 
" style="fill:none;stroke:#118ab2;stroke-width:1.5;"/>
    <path clip-path="url(#p4f8ec3c44b)" d="M 385.417393 65.192843 
L 385.417393 63.440426 
" style="fill:none;stroke:#118ab2;stroke-width:1.5;"/>
    <path clip-path="url(#p4f8ec3c44b)" d="M 401.138655 65.192843 
L 401.138655 63.440426 
" style="fill:none;stroke:#118ab2;stroke-width:1.5;"/>
    <path clip-path="url(#p4f8ec3c44b)" d="M 416.859917 68.697679 
L 416.859917 66.945261 
" style="fill:none;stroke:#118ab2;stroke-width:1.5;"/>
    <path clip-path="url(#p4f8ec3c44b)" d="M 432.58118 66.069052 
L 432.58118 64.316634 
" style="fill:none;stroke:#118ab2;stroke-width:1.5;"/>
    <path clip-path="url(#p4f8ec3c44b)" d="M 448.302442 66.945261 
L 448.302442 65.192843 
" style="fill:none;stroke:#118ab2;stroke-width:1.5;"/>
    <path clip-path="url(#p4f8ec3c44b)" d="M 464.023704 65.192843 
L 464.023704 63.440426 
" style="fill:none;stroke:#118ab2;stroke-width:1.5;"/>
    <path clip-path="url(#p4f8ec3c44b)" d="M 479.744966 67.82147 
L 479.744966 66.069052 
" style="fill:none;stroke:#118ab2;stroke-width:1.5;"/>
    <path clip-path="url(#p4f8ec3c44b)" d="M 495.466228 68.697679 
L 495.466228 66.945261 
" style="fill:none;stroke:#118ab2;stroke-width:1.5;"/>
    <path clip-path="url(#p4f8ec3c44b)" d="M 511.187491 57.306963 
L 511.187491 55.554545 
" style="fill:none;stroke:#118ab2;stroke-width:1.5;"/>
    <path clip-path="url(#p4f8ec3c44b)" d="M 526.908753 61.688008 
L 526.908753 59.93559 
" style="fill:none;stroke:#118ab2;stroke-width:1.5;"/>
    <path clip-path="url(#p4f8ec3c44b)" d="M 542.630015 64.316634 
L 542.630015 62.564217 
" style="fill:none;stroke:#118ab2;stroke-width:1.5;"/>
    <path clip-path="url(#p4f8ec3c44b)" d="M 558.351277 64.316634 
L 558.351277 62.564217 
" style="fill:none;stroke:#118ab2;stroke-width:1.5;"/>
    <path clip-path="url(#p4f8ec3c44b)" d="M 574.072539 66.069052 
L 574.072539 64.316634 
" style="fill:none;stroke:#118ab2;stroke-width:1.5;"/>
    <path clip-path="url(#p4f8ec3c44b)" d="M 589.793802 66.069052 
L 589.793802 64.316634 
" style="fill:none;stroke:#118ab2;stroke-width:1.5;"/>
    <path clip-path="url(#p4f8ec3c44b)" d="M 605.515064 59.93559 
L 605.515064 58.183172 
" style="fill:none;stroke:#118ab2;stroke-width:1.5;"/>
    <path clip-path="url(#p4f8ec3c44b)" d="M 621.236326 72.202515 
L 621.236326 70.450097 
" style="fill:none;stroke:#118ab2;stroke-width:1.5;"/>
    <path clip-path="url(#p4f8ec3c44b)" d="M 636.957588 63.440426 
L 636.957588 61.688008 
" style="fill:none;stroke:#118ab2;stroke-width:1.5;"/>
    <path clip-path="url(#p4f8ec3c44b)" d="M 652.67885 68.697679 
L 652.67885 66.945261 
" style="fill:none;stroke:#118ab2;stroke-width:1.5;"/>
    <path clip-path="url(#p4f8ec3c44b)" d="M 668.400113 69.573888 
L 668.400113 67.82147 
" style="fill:none;stroke:#118ab2;stroke-width:1.5;"/>
    <path clip-path="url(#p4f8ec3c44b)" d="M 684.121375 61.688008 
L 684.121375 59.93559 
" style="fill:none;stroke:#118ab2;stroke-width:1.5;"/>
    <path clip-path="url(#p4f8ec3c44b)" d="M 699.842637 65.192843 
L 699.842637 63.440426 
" style="fill:none;stroke:#118ab2;stroke-width:1.5;"/>
    <path clip-path="url(#p4f8ec3c44b)" d="M 715.563899 68.697679 
L 715.563899 66.945261 
" style="fill:none;stroke:#118ab2;stroke-width:1.5;"/>
    <path clip-path="url(#p4f8ec3c44b)" d="M 731.285162 71.326306 
L 731.285162 69.573888 
" style="fill:none;stroke:#118ab2;stroke-width:1.5;"/>
    <path clip-path="url(#p4f8ec3c44b)" d="M 747.006424 63.440426 
L 747.006424 61.688008 
" style="fill:none;stroke:#118ab2;stroke-width:1.5;"/>
   </g>
   <g id="line2d_31">
    <defs>
     <path d="M 0 1.5 
C 0.397805 1.5 0.77937 1.341951 1.06066 1.06066 
C 1.341951 0.77937 1.5 0.397805 1.5 0 
C 1.5 -0.397805 1.341951 -0.77937 1.06066 -1.06066 
C 0.77937 -1.341951 0.397805 -1.5 0 -1.5 
C -0.397805 -1.5 -0.77937 -1.341951 -1.06066 -1.06066 
C -1.341951 -0.77937 -1.5 -0.397805 -1.5 0 
C -1.5 0.397805 -1.341951 0.77937 -1.06066 1.06066 
C -0.77937 1.341951 -0.397805 1.5 0 1.5 
z
" id="me43432cc2d" style="stroke:#118ab2;"/>
    </defs>
    <g clip-path="url(#p4f8ec3c44b)">
     <use style="fill:#118ab2;stroke:#118ab2;" x="138.593576" xlink:href="#me43432cc2d" y="294.759574"/>
     <use style="fill:#118ab2;stroke:#118ab2;" x="165.319722" xlink:href="#me43432cc2d" y="293.883366"/>
     <use style="fill:#118ab2;stroke:#118ab2;" x="181.040984" xlink:href="#me43432cc2d" y="293.007157"/>
     <use style="fill:#118ab2;stroke:#118ab2;" x="196.762246" xlink:href="#me43432cc2d" y="294.759574"/>
     <use style="fill:#118ab2;stroke:#118ab2;" x="212.483509" xlink:href="#me43432cc2d" y="293.883366"/>
     <use style="fill:#118ab2;stroke:#118ab2;" x="228.204771" xlink:href="#me43432cc2d" y="294.759574"/>
     <use style="fill:#118ab2;stroke:#118ab2;" x="243.926033" xlink:href="#me43432cc2d" y="294.759574"/>
     <use style="fill:#118ab2;stroke:#118ab2;" x="259.647295" xlink:href="#me43432cc2d" y="296.511992"/>
     <use style="fill:#118ab2;stroke:#118ab2;" x="275.368557" xlink:href="#me43432cc2d" y="301.769246"/>
     <use style="fill:#118ab2;stroke:#118ab2;" x="291.08982" xlink:href="#me43432cc2d" y="288.626112"/>
     <use style="fill:#118ab2;stroke:#118ab2;" x="306.811082" xlink:href="#me43432cc2d" y="263.216054"/>
     <use style="fill:#118ab2;stroke:#118ab2;" x="322.532344" xlink:href="#me43432cc2d" y="252.701547"/>
     <use style="fill:#118ab2;stroke:#118ab2;" x="338.253606" xlink:href="#me43432cc2d" y="65.192843"/>
     <use style="fill:#118ab2;stroke:#118ab2;" x="353.974869" xlink:href="#me43432cc2d" y="61.688008"/>
     <use style="fill:#118ab2;stroke:#118ab2;" x="369.696131" xlink:href="#me43432cc2d" y="67.82147"/>
     <use style="fill:#118ab2;stroke:#118ab2;" x="385.417393" xlink:href="#me43432cc2d" y="64.316634"/>
     <use style="fill:#118ab2;stroke:#118ab2;" x="401.138655" xlink:href="#me43432cc2d" y="64.316634"/>
     <use style="fill:#118ab2;stroke:#118ab2;" x="416.859917" xlink:href="#me43432cc2d" y="67.82147"/>
     <use style="fill:#118ab2;stroke:#118ab2;" x="432.58118" xlink:href="#me43432cc2d" y="65.192843"/>
     <use style="fill:#118ab2;stroke:#118ab2;" x="448.302442" xlink:href="#me43432cc2d" y="66.069052"/>
     <use style="fill:#118ab2;stroke:#118ab2;" x="464.023704" xlink:href="#me43432cc2d" y="64.316634"/>
     <use style="fill:#118ab2;stroke:#118ab2;" x="479.744966" xlink:href="#me43432cc2d" y="66.945261"/>
     <use style="fill:#118ab2;stroke:#118ab2;" x="495.466228" xlink:href="#me43432cc2d" y="67.82147"/>
     <use style="fill:#118ab2;stroke:#118ab2;" x="511.187491" xlink:href="#me43432cc2d" y="56.430754"/>
     <use style="fill:#118ab2;stroke:#118ab2;" x="526.908753" xlink:href="#me43432cc2d" y="60.811799"/>
     <use style="fill:#118ab2;stroke:#118ab2;" x="542.630015" xlink:href="#me43432cc2d" y="63.440426"/>
     <use style="fill:#118ab2;stroke:#118ab2;" x="558.351277" xlink:href="#me43432cc2d" y="63.440426"/>
     <use style="fill:#118ab2;stroke:#118ab2;" x="574.072539" xlink:href="#me43432cc2d" y="65.192843"/>
     <use style="fill:#118ab2;stroke:#118ab2;" x="589.793802" xlink:href="#me43432cc2d" y="65.192843"/>
     <use style="fill:#118ab2;stroke:#118ab2;" x="605.515064" xlink:href="#me43432cc2d" y="59.059381"/>
     <use style="fill:#118ab2;stroke:#118ab2;" x="621.236326" xlink:href="#me43432cc2d" y="71.326306"/>
     <use style="fill:#118ab2;stroke:#118ab2;" x="636.957588" xlink:href="#me43432cc2d" y="62.564217"/>
     <use style="fill:#118ab2;stroke:#118ab2;" x="652.67885" xlink:href="#me43432cc2d" y="67.82147"/>
     <use style="fill:#118ab2;stroke:#118ab2;" x="668.400113" xlink:href="#me43432cc2d" y="68.697679"/>
     <use style="fill:#118ab2;stroke:#118ab2;" x="684.121375" xlink:href="#me43432cc2d" y="60.811799"/>
     <use style="fill:#118ab2;stroke:#118ab2;" x="699.842637" xlink:href="#me43432cc2d" y="64.316634"/>
     <use style="fill:#118ab2;stroke:#118ab2;" x="715.563899" xlink:href="#me43432cc2d" y="67.82147"/>
     <use style="fill:#118ab2;stroke:#118ab2;" x="731.285162" xlink:href="#me43432cc2d" y="70.450097"/>
     <use style="fill:#118ab2;stroke:#118ab2;" x="747.006424" xlink:href="#me43432cc2d" y="62.564217"/>
    </g>
   </g>
   <g id="patch_3">
    <path d="M 108 315 
L 108 43.2 
" style="fill:none;stroke:#000000;stroke-linecap:square;stroke-linejoin:miter;stroke-width:0.8;"/>
   </g>
   <g id="patch_4">
    <path d="M 777.6 315 
L 777.6 43.2 
" style="fill:none;stroke:#000000;stroke-linecap:square;stroke-linejoin:miter;stroke-width:0.8;"/>
   </g>
   <g id="patch_5">
    <path d="M 108 315 
L 777.6 315 
" style="fill:none;stroke:#000000;stroke-linecap:square;stroke-linejoin:miter;stroke-width:0.8;"/>
   </g>
   <g id="patch_6">
    <path d="M 108 43.2 
L 777.6 43.2 
" style="fill:none;stroke:#000000;stroke-linecap:square;stroke-linejoin:miter;stroke-width:0.8;"/>
   </g>
   <g id="text_18">
    <!-- Wassertemperatur im Verlauf der Zeit -->
    <defs>
     <path d="M 74.40625 0 
L 92.90625 73 
L 82.5 73 
L 69.09375 13.703125 
L 52.5 73 
L 42.5 73 
L 26.296875 13.703125 
L 12.59375 73 
L 2.203125 73 
L 20.90625 0 
L 31.09375 0 
L 47.40625 59.96875 
L 64.203125 0 
z
" id="Nimbus_Sans_L_Regular-87"/>
     <path d="M 39.203125 0 
L 64.5 73 
L 54.59375 73 
L 34.40625 11.203125 
L 13 73 
L 3 73 
L 29.203125 0 
z
" id="Nimbus_Sans_L_Regular-86"/>
     <path d="M 15.203125 73 
L 6.796875 73 
L 6.796875 0 
L 15.203125 0 
z
" id="Nimbus_Sans_L_Regular-108"/>
     <path d="M 25.796875 52 
L 17.09375 52 
L 17.09375 60.3125 
C 17.09375 63.859375 19.09375 65.6875 22.90625 65.6875 
C 23.59375 65.6875 23.90625 65.6875 25.796875 65.59375 
L 25.796875 72.484375 
C 23.90625 72.890625 22.796875 73 21.09375 73 
C 13.40625 73 8.796875 68.59375 8.796875 61.015625 
L 8.796875 52 
L 1.796875 52 
L 1.796875 45.1875 
L 8.796875 45.1875 
L 8.796875 0 
L 17.09375 0 
L 17.09375 45.1875 
L 25.796875 45.1875 
z
" id="Nimbus_Sans_L_Regular-102"/>
     <path d="M 49.5 73 
L 41.203125 73 
L 41.203125 45.890625 
C 37.703125 51.1875 32.09375 54 25.09375 54 
C 11.5 54 2.59375 43.109375 2.59375 26.484375 
C 2.59375 8.875 11.296875 -2 25.40625 -2 
C 32.59375 -2 37.59375 0.6875 42.09375 7.1875 
L 42.09375 0.296875 
L 49.5 0.296875 
z
M 26.5 46.1875 
C 35.5 46.1875 41.203125 38.234375 41.203125 25.796875 
C 41.203125 13.75 35.40625 5.796875 26.59375 5.796875 
C 17.40625 5.796875 11.296875 13.859375 11.296875 25.984375 
C 11.296875 38.125 17.40625 46.1875 26.5 46.1875 
z
" id="Nimbus_Sans_L_Regular-100"/>
    </defs>
    <g transform="translate(293.995993 37.2)scale(0.18 -0.18)">
     <use transform="scale(0.996264)" xlink:href="#Nimbus_Sans_L_Regular-87"/>
     <use transform="translate(90.062656 0)scale(0.996264)" xlink:href="#Nimbus_Sans_L_Regular-97"/>
     <use transform="translate(145.454333 0)scale(0.996264)" xlink:href="#Nimbus_Sans_L_Regular-115"/>
     <use transform="translate(195.267533 0)scale(0.996264)" xlink:href="#Nimbus_Sans_L_Regular-115"/>
     <use transform="translate(245.080734 0)scale(0.996264)" xlink:href="#Nimbus_Sans_L_Regular-101"/>
     <use transform="translate(300.472411 0)scale(0.996264)" xlink:href="#Nimbus_Sans_L_Regular-114"/>
     <use transform="translate(337.631739 0)scale(0.996264)" xlink:href="#Nimbus_Sans_L_Regular-116"/>
     <use transform="translate(365.326908 0)scale(0.996264)" xlink:href="#Nimbus_Sans_L_Regular-101"/>
     <use transform="translate(420.718585 0)scale(0.996264)" xlink:href="#Nimbus_Sans_L_Regular-109"/>
     <use transform="translate(503.707015 0)scale(0.996264)" xlink:href="#Nimbus_Sans_L_Regular-112"/>
     <use transform="translate(559.098692 0)scale(0.996264)" xlink:href="#Nimbus_Sans_L_Regular-101"/>
     <use transform="translate(614.490369 0)scale(0.996264)" xlink:href="#Nimbus_Sans_L_Regular-114"/>
     <use transform="translate(646.669502 0)scale(0.996264)" xlink:href="#Nimbus_Sans_L_Regular-97"/>
     <use transform="translate(702.061179 0)scale(0.996264)" xlink:href="#Nimbus_Sans_L_Regular-116"/>
     <use transform="translate(729.756349 0)scale(0.996264)" xlink:href="#Nimbus_Sans_L_Regular-117"/>
     <use transform="translate(785.148026 0)scale(0.996264)" xlink:href="#Nimbus_Sans_L_Regular-114"/>
     <use transform="translate(846.018425 0)scale(0.996264)" xlink:href="#Nimbus_Sans_L_Regular-105"/>
     <use transform="translate(868.13521 0)scale(0.996264)" xlink:href="#Nimbus_Sans_L_Regular-109"/>
     <use transform="translate(978.818809 0)scale(0.996264)" xlink:href="#Nimbus_Sans_L_Regular-86"/>
     <use transform="translate(1037.299397 0)scale(0.996264)" xlink:href="#Nimbus_Sans_L_Regular-101"/>
     <use transform="translate(1092.691074 0)scale(0.996264)" xlink:href="#Nimbus_Sans_L_Regular-114"/>
     <use transform="translate(1127.359681 0)scale(0.996264)" xlink:href="#Nimbus_Sans_L_Regular-108"/>
     <use transform="translate(1149.476466 0)scale(0.996264)" xlink:href="#Nimbus_Sans_L_Regular-97"/>
     <use transform="translate(1204.868143 0)scale(0.996264)" xlink:href="#Nimbus_Sans_L_Regular-117"/>
     <use transform="translate(1260.25982 0)scale(0.996264)" xlink:href="#Nimbus_Sans_L_Regular-102"/>
     <use transform="translate(1315.650159 0)scale(0.996264)" xlink:href="#Nimbus_Sans_L_Regular-100"/>
     <use transform="translate(1371.041836 0)scale(0.996264)" xlink:href="#Nimbus_Sans_L_Regular-101"/>
     <use transform="translate(1426.433513 0)scale(0.996264)" xlink:href="#Nimbus_Sans_L_Regular-114"/>
     <use transform="translate(1487.303912 0)scale(0.996264)" xlink:href="#Nimbus_Sans_L_Regular-90"/>
     <use transform="translate(1548.175543 0)scale(0.996264)" xlink:href="#Nimbus_Sans_L_Regular-101"/>
     <use transform="translate(1603.56722 0)scale(0.996264)" xlink:href="#Nimbus_Sans_L_Regular-105"/>
     <use transform="translate(1625.684004 0)scale(0.996264)" xlink:href="#Nimbus_Sans_L_Regular-116"/>
    </g>
   </g>
   <g id="legend_1">
    <g id="patch_7">
     <path d="M 396.192161 307.5 
L 767.1 307.5 
Q 770.1 307.5 770.1 304.5 
L 770.1 284.66954 
Q 770.1 281.66954 767.1 281.66954 
L 396.192161 281.66954 
Q 393.192161 281.66954 393.192161 284.66954 
L 393.192161 304.5 
Q 393.192161 307.5 396.192161 307.5 
z
" style="fill:#ffffff;opacity:0.8;stroke:#cccccc;stroke-linejoin:miter;"/>
    </g>
    <g id="LineCollection_3">
     <path d="M 406.692161 293.06702 
L 421.692161 293.06702 
" style="fill:none;stroke:#118ab2;stroke-width:1.5;"/>
    </g>
    <g id="LineCollection_4">
     <path d="M 414.192161 300.56702 
L 414.192161 285.56702 
" style="fill:none;stroke:#118ab2;stroke-width:1.5;"/>
    </g>
    <g id="line2d_32"/>
    <g id="line2d_33">
     <g>
      <use style="fill:#118ab2;stroke:#118ab2;" x="414.192161" xlink:href="#me43432cc2d" y="293.06702"/>
     </g>
    </g>
    <g id="text_19">
     <!-- Messwerte der Temperatur im Abstand von $50$ms -->
     <defs>
      <path d="M 46.796875 0 
L 67.296875 61.171875 
L 67.296875 0 
L 76.09375 0 
L 76.09375 73 
L 63.203125 73 
L 42 9.40625 
L 20.40625 73 
L 7.5 73 
L 7.5 0 
L 16.296875 0 
L 16.296875 61.171875 
L 37 0 
z
" id="Nimbus_Sans_L_Regular-77"/>
      <path d="M 55.40625 0 
L 70.796875 52 
L 61.40625 52 
L 51 11.515625 
L 40.703125 52 
L 30.5 52 
L 20.5 11.515625 
L 9.796875 52 
L 0.59375 52 
L 15.796875 0 
L 25.203125 0 
L 35.296875 40.765625 
L 45.90625 0 
z
" id="Nimbus_Sans_L_Regular-119"/>
      <path d="M 47.40625 22 
L 54.90625 0 
L 65.296875 0 
L 39.703125 73 
L 27.703125 73 
L 1.703125 0 
L 11.59375 0 
L 19.296875 22 
z
M 44.796875 29.796875 
L 21.59375 29.796875 
L 33.59375 63 
z
" id="Nimbus_Sans_L_Regular-65"/>
      <path d="M 5.40625 73 
L 5.40625 0.296875 
L 12.90625 0.296875 
L 12.90625 6.984375 
C 16.90625 0.890625 22.203125 -2 29.5 -2 
C 43.296875 -2 52.296875 9.28125 52.296875 26.59375 
C 52.296875 43.5 43.703125 54 29.90625 54 
C 22.703125 54 17.59375 51.296875 13.703125 45.390625 
L 13.703125 73 
z
M 28.296875 46.1875 
C 37.59375 46.1875 43.59375 38.125 43.59375 25.6875 
C 43.59375 13.859375 37.40625 5.796875 28.296875 5.796875 
C 19.5 5.796875 13.703125 13.75 13.703125 25.984375 
C 13.703125 38.234375 19.5 46.1875 28.296875 46.1875 
z
" id="Nimbus_Sans_L_Regular-98"/>
      <path d="M 7 52 
L 7 0 
L 15.40625 0 
L 15.40625 28.671875 
C 15.40625 39.671875 21 46.6875 29.59375 46.6875 
C 36.203125 46.6875 40.40625 42.6875 40.40625 36.375 
L 40.40625 0 
L 48.703125 0 
L 48.703125 39.671875 
C 48.703125 48.390625 42.203125 54 32.09375 54 
C 24.296875 54 19.296875 50.984375 14.703125 43.6875 
L 14.703125 52 
z
" id="Nimbus_Sans_L_Regular-110"/>
      <path d="M 28.5 0 
L 48.59375 52 
L 39.203125 52 
L 24.40625 9.828125 
L 10.40625 52 
L 1 52 
L 19.40625 0 
z
" id="Nimbus_Sans_L_Regular-118"/>
      <path d="M 27.203125 54 
C 12.5 54 3.59375 43.5 3.59375 25.984375 
C 3.59375 8.484375 12.40625 -2 27.296875 -2 
C 42 -2 51 8.484375 51 25.59375 
C 51 43.609375 42.296875 54 27.203125 54 
z
M 27.296875 46.296875 
C 36.703125 46.296875 42.296875 38.625 42.296875 25.6875 
C 42.296875 13.453125 36.5 5.6875 27.296875 5.6875 
C 18 5.6875 12.296875 13.359375 12.296875 25.984375 
C 12.296875 38.53125 18 46.296875 27.296875 46.296875 
z
" id="Nimbus_Sans_L_Regular-111"/>
     </defs>
     <g transform="translate(441.192161 298.31702)scale(0.15 -0.15)">
      <use transform="scale(0.996264)" xlink:href="#Nimbus_Sans_L_Regular-77"/>
      <use transform="translate(82.98843 0)scale(0.996264)" xlink:href="#Nimbus_Sans_L_Regular-101"/>
      <use transform="translate(138.380107 0)scale(0.996264)" xlink:href="#Nimbus_Sans_L_Regular-115"/>
      <use transform="translate(188.193308 0)scale(0.996264)" xlink:href="#Nimbus_Sans_L_Regular-115"/>
      <use transform="translate(235.0184 0)scale(0.996264)" xlink:href="#Nimbus_Sans_L_Regular-119"/>
      <use transform="translate(305.952288 0)scale(0.996264)" xlink:href="#Nimbus_Sans_L_Regular-101"/>
      <use transform="translate(361.343965 0)scale(0.996264)" xlink:href="#Nimbus_Sans_L_Regular-114"/>
      <use transform="translate(398.503293 0)scale(0.996264)" xlink:href="#Nimbus_Sans_L_Regular-116"/>
      <use transform="translate(426.198463 0)scale(0.996264)" xlink:href="#Nimbus_Sans_L_Regular-101"/>
      <use transform="translate(509.285309 0)scale(0.996264)" xlink:href="#Nimbus_Sans_L_Regular-100"/>
      <use transform="translate(564.676986 0)scale(0.996264)" xlink:href="#Nimbus_Sans_L_Regular-101"/>
      <use transform="translate(620.068663 0)scale(0.996264)" xlink:href="#Nimbus_Sans_L_Regular-114"/>
      <use transform="translate(680.939063 0)scale(0.996264)" xlink:href="#Nimbus_Sans_L_Regular-84"/>
      <use transform="translate(729.856012 0)scale(0.996264)" xlink:href="#Nimbus_Sans_L_Regular-101"/>
      <use transform="translate(785.247689 0)scale(0.996264)" xlink:href="#Nimbus_Sans_L_Regular-109"/>
      <use transform="translate(868.236119 0)scale(0.996264)" xlink:href="#Nimbus_Sans_L_Regular-112"/>
      <use transform="translate(923.627796 0)scale(0.996264)" xlink:href="#Nimbus_Sans_L_Regular-101"/>
      <use transform="translate(979.019473 0)scale(0.996264)" xlink:href="#Nimbus_Sans_L_Regular-114"/>
      <use transform="translate(1011.198606 0)scale(0.996264)" xlink:href="#Nimbus_Sans_L_Regular-97"/>
      <use transform="translate(1066.590283 0)scale(0.996264)" xlink:href="#Nimbus_Sans_L_Regular-116"/>
      <use transform="translate(1094.285452 0)scale(0.996264)" xlink:href="#Nimbus_Sans_L_Regular-117"/>
      <use transform="translate(1149.677129 0)scale(0.996264)" xlink:href="#Nimbus_Sans_L_Regular-114"/>
      <use transform="translate(1210.547529 0)scale(0.996264)" xlink:href="#Nimbus_Sans_L_Regular-105"/>
      <use transform="translate(1232.664313 0)scale(0.996264)" xlink:href="#Nimbus_Sans_L_Regular-109"/>
      <use transform="translate(1343.347913 0)scale(0.996264)" xlink:href="#Nimbus_Sans_L_Regular-65"/>
      <use transform="translate(1409.797944 0)scale(0.996264)" xlink:href="#Nimbus_Sans_L_Regular-98"/>
      <use transform="translate(1465.189621 0)scale(0.996264)" xlink:href="#Nimbus_Sans_L_Regular-115"/>
      <use transform="translate(1515.002821 0)scale(0.996264)" xlink:href="#Nimbus_Sans_L_Regular-116"/>
      <use transform="translate(1542.697991 0)scale(0.996264)" xlink:href="#Nimbus_Sans_L_Regular-97"/>
      <use transform="translate(1598.089668 0)scale(0.996264)" xlink:href="#Nimbus_Sans_L_Regular-110"/>
      <use transform="translate(1653.481345 0)scale(0.996264)" xlink:href="#Nimbus_Sans_L_Regular-100"/>
      <use transform="translate(1736.568192 0)scale(0.996264)" xlink:href="#Nimbus_Sans_L_Regular-118"/>
      <use transform="translate(1783.890762 0)scale(0.996264)" xlink:href="#Nimbus_Sans_L_Regular-111"/>
      <use transform="translate(1839.282439 0)scale(0.996264)" xlink:href="#Nimbus_Sans_L_Regular-110"/>
      <use transform="translate(1922.369286 0)scale(0.996264)" xlink:href="#CMR17-53"/>
      <use transform="translate(1968.059763 0)scale(0.996264)" xlink:href="#CMR17-48"/>
      <use transform="translate(2013.75024 0)scale(0.996264)" xlink:href="#Nimbus_Sans_L_Regular-109"/>
      <use transform="translate(2096.73867 0)scale(0.996264)" xlink:href="#Nimbus_Sans_L_Regular-115"/>
     </g>
    </g>
   </g>
  </g>
 </g>
 <defs>
  <clipPath id="p4f8ec3c44b">
   <rect height="271.8" width="669.6" x="108" y="43.2"/>
  </clipPath>
 </defs>
</svg>
