<?xml version="1.0" encoding="utf-8" standalone="no"?>
<!DOCTYPE svg PUBLIC "-//W3C//DTD SVG 1.1//EN"
  "http://www.w3.org/Graphics/SVG/1.1/DTD/svg11.dtd">
<!-- Created with matplotlib (https://matplotlib.org/) -->
<svg height="432pt" version="1.1" viewBox="0 0 720 432" width="720pt" xmlns="http://www.w3.org/2000/svg" xmlns:xlink="http://www.w3.org/1999/xlink">
 <defs>
  <style type="text/css">
*{stroke-linecap:butt;stroke-linejoin:round;}
  </style>
 </defs>
 <g id="figure_1">
  <g id="patch_1">
   <path d="M 0 432 
L 720 432 
L 720 0 
L 0 0 
z
" style="fill:#ffffff;"/>
  </g>
  <g id="axes_1">
   <g id="patch_2">
    <path d="M 90 378 
L 648 378 
L 648 51.84 
L 90 51.84 
z
" style="fill:#ffffff;"/>
   </g>
   <g id="matplotlib.axis_1">
    <g id="xtick_1">
     <g id="line2d_1">
      <path clip-path="url(#p5f9bae2989)" d="M 94.227273 378 
L 94.227273 51.84 
" style="fill:none;stroke:#b0b0b0;stroke-linecap:square;stroke-width:0.8;"/>
     </g>
     <g id="line2d_2">
      <defs>
       <path d="M 0 0 
L 0 3.5 
" id="m08759e605d" style="stroke:#000000;stroke-width:0.8;"/>
      </defs>
      <g>
       <use style="stroke:#000000;stroke-width:0.8;" x="94.227273" xlink:href="#m08759e605d" y="378"/>
      </g>
     </g>
     <g id="text_1">
      <!-- $\mathdefault{0}$ -->
      <defs>
       <path d="M 42 31.84375 
C 42 37.96875 41.90625 48.421875 37.703125 56.453125 
C 34 63.484375 28.09375 66 22.90625 66 
C 18.09375 66 12 63.78125 8.203125 56.5625 
C 4.203125 49.015625 3.796875 39.671875 3.796875 31.84375 
C 3.796875 26.109375 3.90625 17.375 7 9.734375 
C 11.296875 -0.609375 19 -2 22.90625 -2 
C 27.5 -2 34.5 -0.109375 38.59375 9.4375 
C 41.59375 16.375 42 24.5 42 31.84375 
z
M 22.90625 -0.40625 
C 16.5 -0.40625 12.703125 5.125 11.296875 12.75 
C 10.203125 18.6875 10.203125 27.328125 10.203125 32.953125 
C 10.203125 40.6875 10.203125 47.109375 11.5 53.234375 
C 13.40625 61.78125 19 64.390625 22.90625 64.390625 
C 27 64.390625 32.296875 61.671875 34.203125 53.4375 
C 35.5 47.71875 35.59375 40.984375 35.59375 32.953125 
C 35.59375 26.421875 35.59375 18.375 34.40625 12.453125 
C 32.296875 1.5 26.40625 -0.40625 22.90625 -0.40625 
z
" id="CMR17-48"/>
      </defs>
      <g transform="translate(90.11513 397.776976)scale(0.18 -0.18)">
       <use transform="scale(0.996264)" xlink:href="#CMR17-48"/>
      </g>
     </g>
    </g>
    <g id="xtick_2">
     <g id="line2d_3">
      <path clip-path="url(#p5f9bae2989)" d="M 199.909091 378 
L 199.909091 51.84 
" style="fill:none;stroke:#b0b0b0;stroke-linecap:square;stroke-width:0.8;"/>
     </g>
     <g id="line2d_4">
      <g>
       <use style="stroke:#000000;stroke-width:0.8;" x="199.909091" xlink:href="#m08759e605d" y="378"/>
      </g>
     </g>
     <g id="text_2">
      <!-- $\mathdefault{1}$ -->
      <defs>
       <path d="M 26.59375 63.796875 
C 26.59375 65.890625 26.5 66 25.09375 66 
C 21.203125 61.359375 15.296875 59.890625 9.703125 59.6875 
C 9.40625 59.6875 8.90625 59.6875 8.796875 59.5 
C 8.703125 59.296875 8.703125 59.09375 8.703125 57 
C 11.796875 57 17 57.59375 21 59.984375 
L 21 7.296875 
C 21 3.796875 20.796875 2.59375 12.203125 2.59375 
L 9.203125 2.59375 
L 9.203125 0 
C 14 0.09375 19 0.1875 23.796875 0.1875 
C 28.59375 0.1875 33.59375 0.09375 38.40625 0 
L 38.40625 2.59375 
L 35.40625 2.59375 
C 26.796875 2.59375 26.59375 3.6875 26.59375 7.296875 
z
" id="CMR17-49"/>
      </defs>
      <g transform="translate(195.796948 397.776976)scale(0.18 -0.18)">
       <use transform="scale(0.996264)" xlink:href="#CMR17-49"/>
      </g>
     </g>
    </g>
    <g id="xtick_3">
     <g id="line2d_5">
      <path clip-path="url(#p5f9bae2989)" d="M 305.590909 378 
L 305.590909 51.84 
" style="fill:none;stroke:#b0b0b0;stroke-linecap:square;stroke-width:0.8;"/>
     </g>
     <g id="line2d_6">
      <g>
       <use style="stroke:#000000;stroke-width:0.8;" x="305.590909" xlink:href="#m08759e605d" y="378"/>
      </g>
     </g>
     <g id="text_3">
      <!-- $\mathdefault{2}$ -->
      <defs>
       <path d="M 41.703125 15.46875 
L 39.90625 15.46875 
C 38.90625 8.390625 38.09375 7.1875 37.703125 6.59375 
C 37.203125 5.796875 30 5.796875 28.59375 5.796875 
L 9.40625 5.796875 
C 13 9.6875 20 16.765625 28.5 24.9375 
C 34.59375 30.71875 41.703125 37.5 41.703125 47.390625 
C 41.703125 59.1875 32.296875 66 21.796875 66 
C 10.796875 66 4.09375 56.296875 4.09375 47.296875 
C 4.09375 43.390625 7 42.890625 8.203125 42.890625 
C 9.203125 42.890625 12.203125 43.484375 12.203125 46.984375 
C 12.203125 50.09375 9.59375 51 8.203125 51 
C 7.59375 51 7 50.890625 6.59375 50.6875 
C 8.5 59.1875 14.296875 63.390625 20.40625 63.390625 
C 29.09375 63.390625 34.796875 56.5 34.796875 47.390625 
C 34.796875 38.703125 29.703125 31.21875 24 24.734375 
L 4.09375 2.296875 
L 4.09375 0 
L 39.296875 0 
z
" id="CMR17-50"/>
      </defs>
      <g transform="translate(301.478766 397.776976)scale(0.18 -0.18)">
       <use transform="scale(0.996264)" xlink:href="#CMR17-50"/>
      </g>
     </g>
    </g>
    <g id="xtick_4">
     <g id="line2d_7">
      <path clip-path="url(#p5f9bae2989)" d="M 411.272727 378 
L 411.272727 51.84 
" style="fill:none;stroke:#b0b0b0;stroke-linecap:square;stroke-width:0.8;"/>
     </g>
     <g id="line2d_8">
      <g>
       <use style="stroke:#000000;stroke-width:0.8;" x="411.272727" xlink:href="#m08759e605d" y="378"/>
      </g>
     </g>
     <g id="text_4">
      <!-- $\mathdefault{3}$ -->
      <defs>
       <path d="M 22.09375 34 
C 31 34 34.90625 26.140625 34.90625 17.09375 
C 34.90625 5.03125 28.5 0.390625 22.703125 0.390625 
C 17.40625 0.390625 8.796875 3.015625 6.09375 10.796875 
C 6.59375 10.59375 7.09375 10.59375 7.59375 10.59375 
C 10 10.59375 11.796875 12.1875 11.796875 14.796875 
C 11.796875 17.6875 9.59375 19 7.59375 19 
C 5.90625 19 3.296875 18.1875 3.296875 14.484375 
C 3.296875 5.234375 12.296875 -2 22.90625 -2 
C 34 -2 42.5 6.75 42.5 16.984375 
C 42.5 26.84375 34.5 34 25 35.09375 
C 32.59375 36.671875 39.90625 43.375 39.90625 52.390625 
C 39.90625 60.25 32 66 23 66 
C 13.90625 66 5.90625 60.34375 5.90625 52.296875 
C 5.90625 48.796875 8.5 48.1875 9.796875 48.1875 
C 11.90625 48.1875 13.703125 49.484375 13.703125 52.09375 
C 13.703125 54.6875 11.90625 56 9.796875 56 
C 9.40625 56 8.90625 56 8.5 55.796875 
C 11.40625 62.484375 19.296875 63.6875 22.796875 63.6875 
C 26.296875 63.6875 32.90625 61.96875 32.90625 52.296875 
C 32.90625 49.484375 32.5 44.546875 29.09375 40.21875 
C 26.09375 36.390625 22.703125 36.1875 19.40625 35.890625 
C 18.90625 35.890625 16.59375 35.6875 16.203125 35.6875 
C 15.5 35.59375 15.09375 35.5 15.09375 34.796875 
C 15.09375 34.09375 15.203125 34 17.203125 34 
z
" id="CMR17-51"/>
      </defs>
      <g transform="translate(407.160584 397.776976)scale(0.18 -0.18)">
       <use transform="scale(0.996264)" xlink:href="#CMR17-51"/>
      </g>
     </g>
    </g>
    <g id="xtick_5">
     <g id="line2d_9">
      <path clip-path="url(#p5f9bae2989)" d="M 516.954545 378 
L 516.954545 51.84 
" style="fill:none;stroke:#b0b0b0;stroke-linecap:square;stroke-width:0.8;"/>
     </g>
     <g id="line2d_10">
      <g>
       <use style="stroke:#000000;stroke-width:0.8;" x="516.954545" xlink:href="#m08759e605d" y="378"/>
      </g>
     </g>
     <g id="text_5">
      <!-- $\mathdefault{4}$ -->
      <defs>
       <path d="M 33.59375 64.796875 
C 33.59375 66.890625 33.5 67 31.703125 67 
L 2 19.59375 
L 2 17 
L 27.796875 17 
L 27.796875 7.1875 
C 27.796875 3.59375 27.59375 2.59375 20.59375 2.59375 
L 18.703125 2.59375 
L 18.703125 0 
C 21.90625 0.1875 27.296875 0.1875 30.703125 0.1875 
C 34.09375 0.1875 39.5 0.1875 42.703125 0 
L 42.703125 2.59375 
L 40.796875 2.59375 
C 33.796875 2.59375 33.59375 3.59375 33.59375 7.1875 
L 33.59375 17 
L 43.796875 17 
L 43.796875 19.59375 
L 33.59375 19.59375 
z
M 28.09375 58.171875 
L 28.09375 19.59375 
L 4 19.59375 
z
" id="CMR17-52"/>
      </defs>
      <g transform="translate(512.842403 397.776976)scale(0.18 -0.18)">
       <use transform="scale(0.996264)" xlink:href="#CMR17-52"/>
      </g>
     </g>
    </g>
    <g id="xtick_6">
     <g id="line2d_11">
      <path clip-path="url(#p5f9bae2989)" d="M 622.636364 378 
L 622.636364 51.84 
" style="fill:none;stroke:#b0b0b0;stroke-linecap:square;stroke-width:0.8;"/>
     </g>
     <g id="line2d_12">
      <g>
       <use style="stroke:#000000;stroke-width:0.8;" x="622.636364" xlink:href="#m08759e605d" y="378"/>
      </g>
     </g>
     <g id="text_6">
      <!-- $\mathdefault{5}$ -->
      <defs>
       <path d="M 11.40625 58.59375 
C 12.40625 58.1875 16.5 56.890625 20.703125 56.890625 
C 30 56.890625 35.09375 61.890625 38 64.6875 
C 38 65.484375 38 66 37.40625 66 
C 37.296875 66 37.09375 66 36.296875 65.59375 
C 32.796875 64.09375 28.703125 63 23.703125 63 
C 20.703125 63 16.203125 63.359375 11.296875 65.484375 
C 10.203125 66 10 66 9.90625 66 
C 9.40625 66 9.296875 65.890625 9.296875 63.90625 
L 9.296875 34.859375 
C 9.296875 33.015625 9.296875 32.5 10.296875 32.5 
C 10.796875 32.5 11 32.703125 11.5 33.421875 
C 14.703125 38.046875 19.09375 40 24.09375 40 
C 27.59375 40 35.09375 37.734375 35.09375 20.203125 
C 35.09375 16.984375 35.09375 11.1875 32.09375 6.59375 
C 29.59375 2.484375 25.703125 0.390625 21.40625 0.390625 
C 14.796875 0.390625 8.09375 4.984375 6.296875 12.6875 
C 6.703125 12.59375 7.5 12.390625 7.90625 12.390625 
C 9.203125 12.390625 11.703125 13.09375 11.703125 16.1875 
C 11.703125 18.890625 9.796875 20 7.90625 20 
C 5.59375 20 4.09375 18.59375 4.09375 15.796875 
C 4.09375 7.09375 11 -2 21.59375 -2 
C 31.90625 -2 41.703125 6.890625 41.703125 19.796875 
C 41.703125 32.09375 33.90625 41.59375 24.203125 41.59375 
C 19.09375 41.59375 14.796875 39.6875 11.40625 36 
z
" id="CMR17-53"/>
      </defs>
      <g transform="translate(618.524221 397.776976)scale(0.18 -0.18)">
       <use transform="scale(0.996264)" xlink:href="#CMR17-53"/>
      </g>
     </g>
    </g>
    <g id="text_7">
     <!-- $\beta$ -->
     <defs>
      <path d="M 56.59375 58.421875 
C 56.59375 64.546875 51.5 71 42.40625 71 
C 29.5 71 21.296875 54.84375 18.703125 44.21875 
L 2.90625 -18 
C 2.703125 -18.8125 3.296875 -19 3.796875 -19 
C 4.5 -19 5 -18.90625 5.09375 -18.40625 
L 12.09375 9.25 
C 13.09375 3.609375 18.59375 -1 24.5 -1 
C 38.796875 -1 52.296875 10.265625 52.296875 25.28125 
C 52.296875 29.109375 51.40625 32.9375 49.296875 36.15625 
C 48.09375 38.078125 46.59375 39.484375 45 40.609375 
C 52.203125 44.109375 56.59375 50.34375 56.59375 58.421875 
z
M 39.203125 40.703125 
C 37.59375 40.171875 36 40 34.09375 40 
C 32.703125 40 31.40625 39.890625 29.59375 40.4375 
C 30.59375 41.046875 32.09375 41.234375 34.203125 41.234375 
C 36 41.234375 37.796875 41.046875 39.203125 40.703125 
z
M 51.40625 59.34375 
C 51.40625 53.71875 48.703125 45.546875 42.203125 41.9375 
C 40.296875 42.546875 37.703125 43 35.5 43 
C 33.40625 43 27.40625 43.203125 27.40625 40.34375 
C 27.40625 37.671875 32.90625 37.96875 34.59375 37.96875 
C 37.203125 37.96875 39.5 38.578125 41.90625 39.28125 
C 45.09375 36.671875 46.5 33.234375 46.5 28.203125 
C 46.5 22.359375 44.90625 17.625 43 13.28125 
C 39.703125 5.828125 31.90625 1 25 1 
C 17.703125 1 13.90625 6.84375 13.90625 13.6875 
C 13.90625 14.59375 13.90625 15.90625 14.296875 17.421875 
L 20.796875 43.5 
C 24.09375 56.890625 32.5 68.953125 42.203125 68.953125 
C 49.40625 68.953125 51.40625 63.84375 51.40625 59.34375 
z
" id="CMMI12-12"/>
     </defs>
     <g transform="translate(364.594341 416.953858)scale(0.16 -0.16)">
      <use transform="scale(0.996264)" xlink:href="#CMMI12-12"/>
     </g>
    </g>
   </g>
   <g id="matplotlib.axis_2">
    <g id="ytick_1">
     <g id="line2d_13">
      <path clip-path="url(#p5f9bae2989)" d="M 90 373.058182 
L 648 373.058182 
" style="fill:none;stroke:#b0b0b0;stroke-linecap:square;stroke-width:0.8;"/>
     </g>
     <g id="line2d_14">
      <defs>
       <path d="M 0 0 
L -3.5 0 
" id="m15d05c9958" style="stroke:#000000;stroke-width:0.8;"/>
      </defs>
      <g>
       <use style="stroke:#000000;stroke-width:0.8;" x="90" xlink:href="#m15d05c9958" y="373.058182"/>
      </g>
     </g>
     <g id="text_8">
      <!-- $\mathdefault{1}$ -->
      <g transform="translate(74.775714 379.44667)scale(0.18 -0.18)">
       <use transform="scale(0.996264)" xlink:href="#CMR17-49"/>
      </g>
     </g>
    </g>
    <g id="ytick_2">
     <g id="line2d_15">
      <path clip-path="url(#p5f9bae2989)" d="M 90 323.64 
L 648 323.64 
" style="fill:none;stroke:#b0b0b0;stroke-linecap:square;stroke-width:0.8;"/>
     </g>
     <g id="line2d_16">
      <g>
       <use style="stroke:#000000;stroke-width:0.8;" x="90" xlink:href="#m15d05c9958" y="323.64"/>
      </g>
     </g>
     <g id="text_9">
      <!-- $\mathdefault{2}$ -->
      <g transform="translate(74.775714 330.028488)scale(0.18 -0.18)">
       <use transform="scale(0.996264)" xlink:href="#CMR17-50"/>
      </g>
     </g>
    </g>
    <g id="ytick_3">
     <g id="line2d_17">
      <path clip-path="url(#p5f9bae2989)" d="M 90 274.221818 
L 648 274.221818 
" style="fill:none;stroke:#b0b0b0;stroke-linecap:square;stroke-width:0.8;"/>
     </g>
     <g id="line2d_18">
      <g>
       <use style="stroke:#000000;stroke-width:0.8;" x="90" xlink:href="#m15d05c9958" y="274.221818"/>
      </g>
     </g>
     <g id="text_10">
      <!-- $\mathdefault{3}$ -->
      <g transform="translate(74.775714 280.610306)scale(0.18 -0.18)">
       <use transform="scale(0.996264)" xlink:href="#CMR17-51"/>
      </g>
     </g>
    </g>
    <g id="ytick_4">
     <g id="line2d_19">
      <path clip-path="url(#p5f9bae2989)" d="M 90 224.803636 
L 648 224.803636 
" style="fill:none;stroke:#b0b0b0;stroke-linecap:square;stroke-width:0.8;"/>
     </g>
     <g id="line2d_20">
      <g>
       <use style="stroke:#000000;stroke-width:0.8;" x="90" xlink:href="#m15d05c9958" y="224.803636"/>
      </g>
     </g>
     <g id="text_11">
      <!-- $\mathdefault{4}$ -->
      <g transform="translate(74.775714 231.192125)scale(0.18 -0.18)">
       <use transform="scale(0.996264)" xlink:href="#CMR17-52"/>
      </g>
     </g>
    </g>
    <g id="ytick_5">
     <g id="line2d_21">
      <path clip-path="url(#p5f9bae2989)" d="M 90 175.385455 
L 648 175.385455 
" style="fill:none;stroke:#b0b0b0;stroke-linecap:square;stroke-width:0.8;"/>
     </g>
     <g id="line2d_22">
      <g>
       <use style="stroke:#000000;stroke-width:0.8;" x="90" xlink:href="#m15d05c9958" y="175.385455"/>
      </g>
     </g>
     <g id="text_12">
      <!-- $\mathdefault{5}$ -->
      <g transform="translate(74.775714 181.773943)scale(0.18 -0.18)">
       <use transform="scale(0.996264)" xlink:href="#CMR17-53"/>
      </g>
     </g>
    </g>
    <g id="ytick_6">
     <g id="line2d_23">
      <path clip-path="url(#p5f9bae2989)" d="M 90 125.967273 
L 648 125.967273 
" style="fill:none;stroke:#b0b0b0;stroke-linecap:square;stroke-width:0.8;"/>
     </g>
     <g id="line2d_24">
      <g>
       <use style="stroke:#000000;stroke-width:0.8;" x="90" xlink:href="#m15d05c9958" y="125.967273"/>
      </g>
     </g>
     <g id="text_13">
      <!-- $\mathdefault{6}$ -->
      <defs>
       <path d="M 10.59375 34.34375 
C 10.59375 58 21.796875 63.6875 28.296875 63.6875 
C 30.40625 63.6875 35.5 63.265625 37.5 59.09375 
C 35.90625 59.09375 32.90625 59.09375 32.90625 55.59375 
C 32.90625 52.890625 35.09375 52 36.5 52 
C 37.40625 52 40.09375 52.390625 40.09375 55.796875 
C 40.09375 62.296875 35.09375 66 28.203125 66 
C 16.296875 66 3.796875 53.296875 3.796875 31.421875 
C 3.796875 4.015625 15.09375 -2 23.09375 -2 
C 32.796875 -2 42 6.734375 42 20.234375 
C 42 32.828125 33.90625 42 23.703125 42 
C 17.59375 42 13.09375 37.96875 10.59375 30.921875 
z
M 23.09375 0.390625 
C 10.796875 0.390625 10.796875 18.9375 10.796875 22.65625 
C 10.796875 29.90625 14.203125 40.390625 23.5 40.390625 
C 25.203125 40.390625 30.09375 40.390625 33.40625 33.4375 
C 35.203125 29.515625 35.203125 25.375 35.203125 20.34375 
C 35.203125 14.90625 35.203125 10.875 33.09375 6.84375 
C 30.90625 2.703125 27.703125 0.390625 23.09375 0.390625 
z
" id="CMR17-54"/>
      </defs>
      <g transform="translate(74.775714 132.355761)scale(0.18 -0.18)">
       <use transform="scale(0.996264)" xlink:href="#CMR17-54"/>
      </g>
     </g>
    </g>
    <g id="ytick_7">
     <g id="line2d_25">
      <path clip-path="url(#p5f9bae2989)" d="M 90 76.549091 
L 648 76.549091 
" style="fill:none;stroke:#b0b0b0;stroke-linecap:square;stroke-width:0.8;"/>
     </g>
     <g id="line2d_26">
      <g>
       <use style="stroke:#000000;stroke-width:0.8;" x="90" xlink:href="#m15d05c9958" y="76.549091"/>
      </g>
     </g>
     <g id="text_14">
      <!-- $\mathdefault{7}$ -->
      <defs>
       <path d="M 45.09375 61.796875 
L 45.09375 64 
L 21.59375 64 
C 9.90625 64 9.703125 65.09375 9.296875 67 
L 7.5 67 
L 4.59375 48.5 
L 6.40625 48.5 
C 6.703125 50.40625 7.40625 55.5 8.59375 57.390625 
C 9.203125 58.1875 16.59375 58.1875 18.296875 58.1875 
L 40.296875 58.1875 
L 29.203125 41.71875 
C 21.796875 30.640625 16.703125 15.671875 16.703125 2.59375 
C 16.703125 1.390625 16.703125 -2 20.296875 -2 
C 23.90625 -2 23.90625 1.390625 23.90625 2.6875 
L 23.90625 7.28125 
C 23.90625 23.65625 26.703125 34.4375 31.296875 41.3125 
z
" id="CMR17-55"/>
      </defs>
      <g transform="translate(74.775714 82.937579)scale(0.18 -0.18)">
       <use transform="scale(0.996264)" xlink:href="#CMR17-55"/>
      </g>
     </g>
    </g>
    <g id="text_15">
     <!-- Jeweilige Abhängigkeit -->
     <defs>
      <path d="M 33.296875 73 
L 33.296875 21.84375 
C 33.296875 16.0625 32.703125 12.765625 31 10.28125 
C 29.203125 7.484375 25.796875 5.796875 22.09375 5.796875 
C 15.09375 5.796875 11.203125 10.484375 11.203125 18.953125 
L 11.203125 23.640625 
L 1.703125 23.640625 
L 1.703125 17.25 
C 1.703125 5.5 9.5 -2 22 -2 
C 34.703125 -2 42.59375 5.890625 42.59375 18.453125 
L 42.59375 73 
z
" id="Nimbus_Sans_L_Regular-74"/>
      <path d="M 51.296875 23.1875 
C 51.296875 31.21875 50.703125 36.109375 49.203125 40.078125 
C 45.796875 48.796875 37.796875 54 28 54 
C 13.40625 54 4 42.71875 4 25.296875 
C 4 8.515625 13.09375 -2 27.796875 -2 
C 39.796875 -2 48.09375 4.796875 50.203125 15.90625 
L 41.796875 15.90625 
C 39.5 9.1875 34.796875 5.6875 28.09375 5.6875 
C 22.796875 5.6875 18.296875 8.03125 15.5 12.296875 
C 13.5 15.21875 12.796875 18.140625 12.703125 23.1875 
z
M 12.90625 30 
C 13.59375 39.875 19.5 46.296875 27.90625 46.296875 
C 36.09375 46.296875 42.40625 39.359375 42.40625 30.609375 
C 42.40625 30.40625 42.40625 30.203125 42.296875 30 
z
" id="Nimbus_Sans_L_Regular-101"/>
      <path d="M 55.40625 0 
L 70.796875 52 
L 61.40625 52 
L 51 11.515625 
L 40.703125 52 
L 30.5 52 
L 20.5 11.515625 
L 9.796875 52 
L 0.59375 52 
L 15.796875 0 
L 25.203125 0 
L 35.296875 40.765625 
L 45.90625 0 
z
" id="Nimbus_Sans_L_Regular-119"/>
      <path d="M 15 52.46875 
L 6.703125 52.46875 
L 6.703125 0 
L 15 0 
z
M 15 73 
L 6.59375 73 
L 6.59375 62.484375 
L 15 62.484375 
z
" id="Nimbus_Sans_L_Regular-105"/>
      <path d="M 15.203125 73 
L 6.796875 73 
L 6.796875 0 
L 15.203125 0 
z
" id="Nimbus_Sans_L_Regular-108"/>
      <path d="M 41.203125 52.484375 
L 41.203125 44.890625 
C 37 51.09375 31.90625 54 25.203125 54 
C 11.90625 54 2.90625 42.40625 2.90625 25.5 
C 2.90625 16.9375 5.203125 9.96875 9.5 5 
C 13.40625 0.59375 19 -2 24.5 -2 
C 31.09375 -2 35.703125 0.796875 40.40625 7.390625 
L 40.40625 4.6875 
C 40.40625 -2.421875 39.5 -6.890625 37.40625 -9.90625 
C 35.203125 -13.140625 30.90625 -15 25.796875 -15 
C 22 -15 18.59375 -13.96875 16.296875 -12.09375 
C 14.40625 -10.53125 13.59375 -9.078125 13.09375 -5.859375 
L 4.59375 -5.859375 
C 5.5 -16.109375 13.203125 -22 25.5 -22 
C 33.296875 -22 40 -19.5 43.40625 -15.3125 
C 47.40625 -10.328125 48.90625 -3.46875 48.90625 8.875 
L 48.90625 52.484375 
z
M 26.09375 46.296875 
C 35.09375 46.296875 40.40625 38.734375 40.40625 25.6875 
C 40.40625 13.25 35 5.6875 26.203125 5.6875 
C 17.09375 5.6875 11.59375 13.359375 11.59375 25.984375 
C 11.59375 38.53125 17.203125 46.296875 26.09375 46.296875 
z
" id="Nimbus_Sans_L_Regular-103"/>
      <path d="M 47.40625 22 
L 54.90625 0 
L 65.296875 0 
L 39.703125 73 
L 27.703125 73 
L 1.703125 0 
L 11.59375 0 
L 19.296875 22 
z
M 44.796875 29.796875 
L 21.59375 29.796875 
L 33.59375 63 
z
" id="Nimbus_Sans_L_Regular-65"/>
      <path d="M 5.40625 73 
L 5.40625 0.296875 
L 12.90625 0.296875 
L 12.90625 6.984375 
C 16.90625 0.890625 22.203125 -2 29.5 -2 
C 43.296875 -2 52.296875 9.28125 52.296875 26.59375 
C 52.296875 43.5 43.703125 54 29.90625 54 
C 22.703125 54 17.59375 51.296875 13.703125 45.390625 
L 13.703125 73 
z
M 28.296875 46.1875 
C 37.59375 46.1875 43.59375 38.125 43.59375 25.6875 
C 43.59375 13.859375 37.40625 5.796875 28.296875 5.796875 
C 19.5 5.796875 13.703125 13.75 13.703125 25.984375 
C 13.703125 38.234375 19.5 46.1875 28.296875 46.1875 
z
" id="Nimbus_Sans_L_Regular-98"/>
      <path d="M 7 73 
L 7 0 
L 15.296875 0 
L 15.296875 28.953125 
C 15.296875 39.671875 20.90625 46.6875 29.5 46.6875 
C 32.203125 46.6875 34.90625 45.78125 36.90625 44.28125 
C 39.296875 42.578125 40.296875 40.078125 40.296875 36.375 
L 40.296875 0 
L 48.59375 0 
L 48.59375 39.671875 
C 48.59375 48.484375 42.296875 54 32.09375 54 
C 24.703125 54 20.203125 51.6875 15.296875 45.28125 
L 15.296875 73 
z
" id="Nimbus_Sans_L_Regular-104"/>
      <path d="M 13.40625 71.296875 
L 3 71.296875 
L 3 61 
L 13.40625 61 
z
M 29.59375 71.296875 
L 19.203125 71.296875 
L 19.203125 61 
L 29.59375 61 
z
" id="Nimbus_Sans_L_Regular-168"/>
      <path d="M 53.5 5.1875 
C 52.59375 5 52.203125 5 51.703125 5 
C 48.796875 5 47.203125 6.484375 47.203125 9.078125 
L 47.203125 39.71875 
C 47.203125 48.984375 40.40625 54 27.5 54 
C 19.90625 54 13.59375 51.796875 10.09375 47.890625 
C 7.703125 45.203125 6.703125 42.21875 6.5 37.03125 
L 14.90625 37.03125 
C 15.59375 43.40625 19.40625 46.296875 27.203125 46.296875 
C 34.703125 46.296875 38.90625 43.5 38.90625 38.53125 
L 38.90625 36.34375 
C 38.90625 32.859375 36.796875 31.359375 30.203125 30.5625 
C 18.40625 29.078125 16.59375 28.671875 13.40625 27.390625 
C 7.296875 24.890625 4.203125 20.21875 4.203125 13.453125 
C 4.203125 4 10.796875 -2 21.40625 -2 
C 28 -2 33.296875 0.296875 39.203125 5.6875 
C 39.796875 0.390625 42.40625 -2 47.796875 -2 
C 49.5 -2 50.796875 -1.8125 53.5 -1.109375 
z
M 38.90625 16.734375 
C 38.90625 13.953125 38.09375 12.265625 35.59375 9.96875 
C 32.203125 6.890625 28.09375 5.296875 23.203125 5.296875 
C 16.703125 5.296875 12.90625 8.375 12.90625 13.65625 
C 12.90625 19.125 16.59375 21.90625 25.5 23.203125 
C 34.296875 24.40625 36.09375 24.796875 38.90625 26.09375 
z
" id="Nimbus_Sans_L_Regular-97"/>
      <path d="M 7 52 
L 7 0 
L 15.40625 0 
L 15.40625 28.671875 
C 15.40625 39.671875 21 46.6875 29.59375 46.6875 
C 36.203125 46.6875 40.40625 42.6875 40.40625 36.375 
L 40.40625 0 
L 48.703125 0 
L 48.703125 39.671875 
C 48.703125 48.390625 42.203125 54 32.09375 54 
C 24.296875 54 19.296875 50.984375 14.703125 43.6875 
L 14.703125 52 
z
" id="Nimbus_Sans_L_Regular-110"/>
      <path d="M 14.09375 73 
L 5.796875 73 
L 5.796875 0 
L 14.09375 0 
L 14.09375 20.421875 
L 22.203125 28.4375 
L 39.90625 0 
L 50.203125 0 
L 28.796875 34.34375 
L 47 52.46875 
L 36.296875 52.46875 
L 14.09375 30.234375 
z
" id="Nimbus_Sans_L_Regular-107"/>
      <path d="M 25.40625 52 
L 16.796875 52 
L 16.796875 66.390625 
L 8.5 66.390625 
L 8.5 52 
L 1.40625 52 
L 1.40625 45.1875 
L 8.5 45.1875 
L 8.5 6.28125 
C 8.5 1 12.09375 -2 18.59375 -2 
C 20.59375 -2 22.59375 -1.8125 25.40625 -1.3125 
L 25.40625 5.6875 
C 24.296875 5.390625 23 5.296875 21.40625 5.296875 
C 17.796875 5.296875 16.796875 6.28125 16.796875 9.90625 
L 16.796875 45.1875 
L 25.40625 45.1875 
z
" id="Nimbus_Sans_L_Regular-116"/>
     </defs>
     <g transform="translate(67.380533 295.584731)rotate(-90)scale(0.16 -0.16)">
      <use transform="scale(0.996264)" xlink:href="#Nimbus_Sans_L_Regular-74"/>
      <use transform="translate(49.8132 0)scale(0.996264)" xlink:href="#Nimbus_Sans_L_Regular-101"/>
      <use transform="translate(103.212866 0)scale(0.996264)" xlink:href="#Nimbus_Sans_L_Regular-119"/>
      <use transform="translate(174.146754 0)scale(0.996264)" xlink:href="#Nimbus_Sans_L_Regular-101"/>
      <use transform="translate(229.538431 0)scale(0.996264)" xlink:href="#Nimbus_Sans_L_Regular-105"/>
      <use transform="translate(251.655216 0)scale(0.996264)" xlink:href="#Nimbus_Sans_L_Regular-108"/>
      <use transform="translate(273.772 0)scale(0.996264)" xlink:href="#Nimbus_Sans_L_Regular-105"/>
      <use transform="translate(295.888784 0)scale(0.996264)" xlink:href="#Nimbus_Sans_L_Regular-103"/>
      <use transform="translate(351.280461 0)scale(0.996264)" xlink:href="#Nimbus_Sans_L_Regular-101"/>
      <use transform="translate(434.367308 0)scale(0.996264)" xlink:href="#Nimbus_Sans_L_Regular-65"/>
      <use transform="translate(500.817339 0)scale(0.996264)" xlink:href="#Nimbus_Sans_L_Regular-98"/>
      <use transform="translate(556.209016 0)scale(0.996264)" xlink:href="#Nimbus_Sans_L_Regular-104"/>
      <use transform="translate(622.708924 1.842456)scale(0.996264)" xlink:href="#Nimbus_Sans_L_Regular-168"/>
      <use transform="translate(611.600693 0)scale(0.996264)" xlink:href="#Nimbus_Sans_L_Regular-97"/>
      <use transform="translate(666.99237 0)scale(0.996264)" xlink:href="#Nimbus_Sans_L_Regular-110"/>
      <use transform="translate(722.384047 0)scale(0.996264)" xlink:href="#Nimbus_Sans_L_Regular-103"/>
      <use transform="translate(777.775724 0)scale(0.996264)" xlink:href="#Nimbus_Sans_L_Regular-105"/>
      <use transform="translate(799.892508 0)scale(0.996264)" xlink:href="#Nimbus_Sans_L_Regular-103"/>
      <use transform="translate(855.284185 0)scale(0.996264)" xlink:href="#Nimbus_Sans_L_Regular-107"/>
      <use transform="translate(903.105374 0)scale(0.996264)" xlink:href="#Nimbus_Sans_L_Regular-101"/>
      <use transform="translate(958.497051 0)scale(0.996264)" xlink:href="#Nimbus_Sans_L_Regular-105"/>
      <use transform="translate(980.613836 0)scale(0.996264)" xlink:href="#Nimbus_Sans_L_Regular-116"/>
     </g>
    </g>
   </g>
   <g id="line2d_27">
    <path clip-path="url(#p5f9bae2989)" d="M 115.363636 363.174545 
L 120.487603 360.778512 
L 125.61157 358.382479 
L 130.735537 355.986446 
L 135.859504 353.590413 
L 140.983471 351.19438 
L 146.107438 348.798347 
L 151.231405 346.402314 
L 156.355372 344.006281 
L 161.479339 341.610248 
L 166.603306 339.214215 
L 171.727273 336.818182 
L 176.85124 334.422149 
L 181.975207 332.026116 
L 187.099174 329.630083 
L 192.22314 327.23405 
L 197.347107 324.838017 
L 202.471074 322.441983 
L 207.595041 320.04595 
L 212.719008 317.649917 
L 217.842975 315.253884 
L 222.966942 312.857851 
L 228.090909 310.461818 
L 233.214876 308.065785 
L 238.338843 305.669752 
L 243.46281 303.273719 
L 248.586777 300.877686 
L 253.710744 298.481653 
L 258.834711 296.08562 
L 263.958678 293.689587 
L 269.082645 291.293554 
L 274.206612 288.897521 
L 279.330579 286.501488 
L 284.454545 284.105455 
L 289.578512 281.709421 
L 294.702479 279.313388 
L 299.826446 276.917355 
L 304.950413 274.521322 
L 310.07438 272.125289 
L 315.198347 269.729256 
L 320.322314 267.333223 
L 325.446281 264.93719 
L 330.570248 262.541157 
L 335.694215 260.145124 
L 340.818182 257.749091 
L 345.942149 255.353058 
L 351.066116 252.957025 
L 356.190083 250.560992 
L 361.31405 248.164959 
L 366.438017 245.768926 
L 371.561983 243.372893 
L 376.68595 240.97686 
L 381.809917 238.580826 
L 386.933884 236.184793 
L 392.057851 233.78876 
L 397.181818 231.392727 
L 402.305785 228.996694 
L 407.429752 226.600661 
L 412.553719 224.204628 
L 417.677686 221.808595 
L 422.801653 219.412562 
L 427.92562 217.016529 
L 433.049587 214.620496 
L 438.173554 212.224463 
L 443.297521 209.82843 
L 448.421488 207.432397 
L 453.545455 205.036364 
L 458.669421 202.640331 
L 463.793388 200.244298 
L 468.917355 197.848264 
L 474.041322 195.452231 
L 479.165289 193.056198 
L 484.289256 190.660165 
L 489.413223 188.264132 
L 494.53719 185.868099 
L 499.661157 183.472066 
L 504.785124 181.076033 
L 509.909091 178.68 
L 515.033058 176.283967 
L 520.157025 173.887934 
L 525.280992 171.491901 
L 530.404959 169.095868 
L 535.528926 166.699835 
L 540.652893 164.303802 
L 545.77686 161.907769 
L 550.900826 159.511736 
L 556.024793 157.115702 
L 561.14876 154.719669 
L 566.272727 152.323636 
L 571.396694 149.927603 
L 576.520661 147.53157 
L 581.644628 145.135537 
L 586.768595 142.739504 
L 591.892562 140.343471 
L 597.016529 137.947438 
L 602.140496 135.551405 
L 607.264463 133.155372 
L 612.38843 130.759339 
L 617.512397 128.363306 
L 622.636364 125.967273 
" style="fill:none;stroke:#ff0000;stroke-linecap:square;stroke-width:1.5;"/>
   </g>
   <g id="line2d_28">
    <path clip-path="url(#p5f9bae2989)" d="M 115.363636 125.967273 
L 120.487603 174.180133 
L 125.61157 206.650019 
L 130.735537 230.00555 
L 135.859504 247.612028 
L 140.983471 261.359552 
L 146.107438 272.391515 
L 151.231405 281.440204 
L 156.355372 288.996326 
L 161.479339 295.401039 
L 166.603306 300.89889 
L 171.727273 305.669752 
L 176.85124 309.848879 
L 181.975207 313.539934 
L 187.099174 316.823699 
L 192.22314 319.764064 
L 197.347107 322.412219 
L 202.471074 324.809661 
L 207.595041 326.990385 
L 212.719008 328.982506 
L 217.842975 330.809477 
L 222.966942 332.491018 
L 228.090909 334.043828 
L 233.214876 335.482145 
L 238.338843 336.818182 
L 243.46281 338.062474 
L 248.586777 339.224157 
L 253.710744 340.311194 
L 258.834711 341.330555 
L 263.958678 342.28837 
L 269.082645 343.19005 
L 274.206612 344.040388 
L 279.330579 344.843649 
L 284.454545 345.603636 
L 289.578512 346.323756 
L 294.702479 347.007064 
L 299.826446 347.656313 
L 304.950413 348.273987 
L 310.07438 348.862336 
L 315.198347 349.423399 
L 320.322314 349.959032 
L 325.446281 350.470924 
L 330.570248 350.960621 
L 335.694215 351.429535 
L 340.818182 351.878961 
L 345.942149 352.31009 
L 351.066116 352.724017 
L 356.190083 353.121752 
L 361.31405 353.504225 
L 366.438017 353.872299 
L 371.561983 354.226773 
L 376.68595 354.568386 
L 381.809917 354.897825 
L 386.933884 355.215731 
L 392.057851 355.522698 
L 397.181818 355.819281 
L 402.305785 356.105999 
L 407.429752 356.383335 
L 412.553719 356.651743 
L 417.677686 356.911647 
L 422.801653 357.163445 
L 427.92562 357.40751 
L 433.049587 357.644193 
L 438.173554 357.873824 
L 443.297521 358.096714 
L 448.421488 358.313155 
L 453.545455 358.523422 
L 458.669421 358.727778 
L 463.793388 358.926466 
L 468.917355 359.11972 
L 474.041322 359.30776 
L 479.165289 359.490794 
L 484.289256 359.669019 
L 489.413223 359.842623 
L 494.53719 360.011782 
L 499.661157 360.176665 
L 504.785124 360.337433 
L 509.909091 360.494237 
L 515.033058 360.647223 
L 520.157025 360.796528 
L 525.280992 360.942283 
L 530.404959 361.084614 
L 535.528926 361.223639 
L 540.652893 361.359473 
L 545.77686 361.492224 
L 550.900826 361.621997 
L 556.024793 361.748889 
L 561.14876 361.872997 
L 566.272727 361.99441 
L 571.396694 362.113215 
L 576.520661 362.229497 
L 581.644628 362.343333 
L 586.768595 362.454801 
L 591.892562 362.563973 
L 597.016529 362.670921 
L 602.140496 362.77571 
L 607.264463 362.878407 
L 612.38843 362.979072 
L 617.512397 363.077766 
L 622.636364 363.174545 
" style="fill:none;stroke:#008000;stroke-linecap:square;stroke-width:1.5;"/>
   </g>
   <g id="line2d_29">
    <path clip-path="url(#p5f9bae2989)" d="M 115.363636 66.665455 
L 120.487603 112.482282 
L 125.61157 142.556134 
L 130.735537 163.515633 
L 135.859504 178.726078 
L 140.983471 190.077568 
L 146.107438 198.713499 
L 151.231405 205.366155 
L 156.355372 210.526244 
L 161.479339 214.534923 
L 166.603306 217.636741 
L 171.727273 220.01157 
L 176.85124 221.794665 
L 181.975207 223.089686 
L 187.099174 223.977418 
L 192.22314 224.52175 
L 197.347107 224.773872 
L 202.471074 224.775281 
L 207.595041 224.559972 
L 212.719008 224.15606 
L 217.842975 223.586998 
L 222.966942 222.872505 
L 228.090909 222.029282 
L 233.214876 221.071566 
L 238.338843 220.01157 
L 243.46281 218.859829 
L 248.586777 217.625479 
L 253.710744 216.316483 
L 258.834711 214.939812 
L 263.958678 213.501594 
L 269.082645 212.00724 
L 274.206612 210.461545 
L 279.330579 208.868773 
L 284.454545 207.232727 
L 289.578512 205.556813 
L 294.702479 203.844088 
L 299.826446 202.097304 
L 304.950413 200.318946 
L 310.07438 198.511262 
L 315.198347 196.676292 
L 320.322314 194.815891 
L 325.446281 192.931751 
L 330.570248 191.025414 
L 335.694215 189.098295 
L 340.818182 187.151688 
L 345.942149 185.186784 
L 351.066116 183.204678 
L 356.190083 181.20638 
L 361.31405 179.19282 
L 366.438017 177.164861 
L 371.561983 175.123302 
L 376.68595 173.068882 
L 381.809917 171.002288 
L 386.933884 168.924161 
L 392.057851 166.835095 
L 397.181818 164.735645 
L 402.305785 162.626329 
L 407.429752 160.507633 
L 412.553719 158.380008 
L 417.677686 156.243879 
L 422.801653 154.099643 
L 427.92562 151.947675 
L 433.049587 149.788325 
L 438.173554 147.621923 
L 443.297521 145.44878 
L 448.421488 143.269188 
L 453.545455 141.083422 
L 458.669421 138.891745 
L 463.793388 136.6944 
L 468.917355 134.491621 
L 474.041322 132.283628 
L 479.165289 130.070629 
L 484.289256 127.852821 
L 489.413223 125.630391 
L 494.53719 123.403517 
L 499.661157 121.172368 
L 504.785124 118.937102 
L 509.909091 116.697874 
L 515.033058 114.454826 
L 520.157025 112.208098 
L 525.280992 109.95782 
L 530.404959 107.704118 
L 535.528926 105.44711 
L 540.652893 103.186911 
L 545.77686 100.923629 
L 550.900826 98.657369 
L 556.024793 96.388228 
L 561.14876 94.116302 
L 566.272727 91.841682 
L 571.396694 89.564455 
L 576.520661 87.284703 
L 581.644628 85.002506 
L 586.768595 82.717941 
L 591.892562 80.431081 
L 597.016529 78.141995 
L 602.140496 75.850752 
L 607.264463 73.557415 
L 612.38843 71.262047 
L 617.512397 68.964708 
L 622.636364 66.665455 
" style="fill:none;stroke:#0000ff;stroke-linecap:square;stroke-width:1.5;"/>
   </g>
   <g id="patch_3">
    <path d="M 90 378 
L 90 51.84 
" style="fill:none;stroke:#000000;stroke-linecap:square;stroke-linejoin:miter;stroke-width:0.8;"/>
   </g>
   <g id="patch_4">
    <path d="M 648 378 
L 648 51.84 
" style="fill:none;stroke:#000000;stroke-linecap:square;stroke-linejoin:miter;stroke-width:0.8;"/>
   </g>
   <g id="patch_5">
    <path d="M 90 378 
L 648 378 
" style="fill:none;stroke:#000000;stroke-linecap:square;stroke-linejoin:miter;stroke-width:0.8;"/>
   </g>
   <g id="patch_6">
    <path d="M 90 51.84 
L 648 51.84 
" style="fill:none;stroke:#000000;stroke-linecap:square;stroke-linejoin:miter;stroke-width:0.8;"/>
   </g>
   <g id="text_16">
    <!-- $\frac{b}{f}(\beta), \frac{g}{f}(\beta), \frac{e}{f}(\beta)$ -->
    <defs>
     <path d="M 23.09375 66.484375 
C 23.203125 66.890625 23.40625 67.484375 23.40625 67.984375 
C 23.40625 69 22.40625 69 22.203125 69 
C 22.09375 69 18.5 68.6875 16.703125 68.484375 
C 15 68.390625 13.5 68.1875 11.703125 68.09375 
C 9.296875 67.890625 8.59375 67.796875 8.59375 65.984375 
C 8.59375 64.984375 9.59375 64.984375 10.59375 64.984375 
C 15.703125 64.984375 15.703125 64.109375 15.703125 63.125 
C 15.703125 62.421875 14.90625 59.5625 14.5 57.796875 
L 12.09375 48.328125 
C 11.09375 44.390625 5.40625 21.75 5 19.953125 
C 4.5 17.453125 4.5 15.75 4.5 14.453125 
C 4.5 4.28125 10.203125 -1 16.703125 -1 
C 28.296875 -1 40.296875 13.859375 40.296875 28.328125 
C 40.296875 37.5 35.09375 44 27.59375 44 
C 22.40625 44 17.703125 39.703125 15.796875 37.703125 
z
M 16.796875 1 
C 13.59375 1 10.09375 3.390625 10.09375 11.171875 
C 10.09375 14.453125 10.40625 16.359375 12.203125 23.34375 
C 12.5 24.640625 14.09375 31.015625 14.5 32.3125 
C 14.703125 33.109375 20.59375 41.984375 27.40625 41.984375 
C 31.796875 41.984375 33.796875 37.609375 33.796875 32.421875 
C 33.796875 27.625 31 16.359375 28.5 11.171875 
C 26 5.78125 21.40625 1 16.796875 1 
z
" id="CMMI12-98"/>
     <path d="M 44.59375 40.09375 
C 46.59375 40.09375 47.40625 40.09375 47.40625 41.984375 
C 47.40625 43 46.59375 43 44.796875 43 
L 36.703125 43 
C 38.59375 53.09375 40 60.09375 40.796875 63.296875 
C 41.40625 65.6875 43.5 67.984375 46.09375 67.984375 
C 48.203125 67.984375 50.296875 67.09375 51.296875 66.1875 
C 47.40625 65.796875 46.203125 62.890625 46.203125 61.1875 
C 46.203125 59.1875 47.703125 58 49.59375 58 
C 51.59375 58 54.59375 59.6875 54.59375 63.5 
C 54.59375 67.6875 50.40625 70 46 70 
C 41.703125 70 37.5 66.796875 35.5 62.890625 
C 33.703125 59.390625 32.703125 55.828125 30.40625 43 
L 23.703125 43 
C 21.796875 43 20.796875 43 20.796875 41.1875 
C 20.796875 40.09375 21.40625 40.09375 23.40625 40.09375 
L 29.796875 40.09375 
C 28 30.890625 23.90625 8.515625 21.59375 -2.0625 
C 19.90625 -10.703125 18.40625 -18 13.40625 -18 
C 13.09375 -18 10.203125 -18 8.40625 -16.109375 
C 13.5 -15.703125 13.5 -11.3125 13.5 -11.203125 
C 13.5 -9.203125 12 -8 10.09375 -8 
C 8.09375 -8 5.09375 -9.703125 5.09375 -13.515625 
C 5.09375 -17.8125 9.5 -20 13.40625 -20 
C 23.59375 -20 27.796875 -1.765625 28.90625 3.171875 
C 30.703125 10.796875 35.59375 37.125 36.09375 40.09375 
z
" id="CMMI12-102"/>
     <path d="M 30.59375 -24.40625 
C 30.59375 -24.3125 30.59375 -24.109375 30.296875 -23.8125 
C 25.703125 -19.109375 13.40625 -6.296875 13.40625 24.9375 
C 13.40625 56.171875 25.5 68.875 30.40625 73.890625 
C 30.40625 73.984375 30.59375 74.1875 30.59375 74.484375 
C 30.59375 74.796875 30.296875 75 29.90625 75 
C 28.796875 75 20.296875 67.578125 15.40625 56.5625 
C 10.40625 45.453125 9 34.65625 9 25.046875 
C 9 17.828125 9.703125 5.625 15.703125 -7.296875 
C 20.5 -17.703125 28.703125 -25 29.90625 -25 
C 30.40625 -25 30.59375 -24.8125 30.59375 -24.40625 
z
" id="CMR17-40"/>
     <path d="M 26.296875 24.9375 
C 26.296875 32.140625 25.59375 44.359375 19.59375 57.265625 
C 14.796875 67.6875 6.59375 75 5.40625 75 
C 5.09375 75 4.703125 74.890625 4.703125 74.390625 
C 4.703125 74.1875 4.796875 74.09375 4.90625 73.890625 
C 9.703125 68.875 21.90625 56.171875 21.90625 25.046875 
C 21.90625 -6.1875 9.796875 -18.90625 4.90625 -23.90625 
C 4.796875 -24.109375 4.703125 -24.203125 4.703125 -24.40625 
C 4.703125 -24.90625 5.09375 -25 5.40625 -25 
C 6.5 -25 15 -17.609375 19.90625 -6.59375 
C 24.90625 4.515625 26.296875 15.328125 26.296875 24.9375 
z
" id="CMR17-41"/>
     <path d="M 19.5 -0.40625 
C 19.5 5.390625 17.59375 9.6875 13.5 9.6875 
C 10.296875 9.6875 8.703125 7.09375 8.703125 4.890625 
C 8.703125 2.6875 10.203125 0 13.59375 0 
C 14.90625 0 16 0.390625 16.90625 1.296875 
C 17.09375 1.5 17.203125 1.5 17.296875 1.5 
C 17.5 1.5 17.5 0.09375 17.5 -0.40625 
C 17.5 -3.640625 16.90625 -10.03125 11.09375 -16.421875 
C 10 -17.609375 10 -17.8125 10 -18 
C 10 -18.5 10.5 -19 11 -19 
C 11.796875 -19 19.5 -11.703125 19.5 -0.40625 
z
" id="CMMI12-59"/>
     <path d="M 33.796875 12.671875 
C 33.40625 11.0625 33.203125 10.671875 31.90625 9.171875 
C 27.796875 3.890625 23.59375 2 20.5 2 
C 17.203125 2 14.09375 4.578125 14.09375 11.46875 
C 14.09375 16.75 17.09375 27.921875 19.296875 32.421875 
C 22.203125 38 26.703125 41.984375 30.90625 41.984375 
C 37.5 41.984375 38.796875 33.8125 38.796875 33.21875 
L 38.5 31.8125 
z
M 40 37.40625 
C 38.703125 40.296875 35.90625 44 30.90625 44 
C 20 44 7.59375 30.328125 7.59375 15.453125 
C 7.59375 5.078125 13.90625 0 20.296875 0 
C 25.59375 0 30.296875 4.1875 32.09375 6.1875 
L 29.90625 -2.75 
C 28.5 -8.125 27.90625 -10.578125 24.296875 -14 
C 20.203125 -18 16.40625 -18 14.203125 -18 
C 11.203125 -18 8.703125 -17.8125 6.203125 -17.03125 
C 9.40625 -16.15625 10.203125 -13.40625 10.203125 -12.328125 
C 10.203125 -10.765625 9 -9.203125 6.796875 -9.203125 
C 4.40625 -9.203125 1.796875 -11.15625 1.796875 -14.390625 
C 1.796875 -18.40625 5.90625 -20 14.40625 -20 
C 27.296875 -20 34 -11.84375 35.296875 -6.5625 
L 46.40625 37.90625 
C 46.703125 39.09375 46.703125 39.296875 46.703125 39.5 
C 46.703125 40.890625 45.59375 42 44.09375 42 
C 41.703125 42 40.296875 40 40 37.3125 
z
" id="CMMI12-103"/>
     <path d="M 17.90625 23 
C 20.59375 23 27.40625 23.1875 32.203125 25 
C 39.796875 27.90625 40.5 33.75 40.5 35.546875 
C 40.5 39.984375 36.703125 44 30.09375 44 
C 19.59375 44 4.5 34.453125 4.5 16.65625 
C 4.5 6.25 10.5 -1 19.59375 -1 
C 33.203125 -1 41.796875 9.515625 41.796875 10.796875 
C 41.796875 11.390625 41.203125 11.890625 40.796875 11.890625 
C 40.5 11.890625 40.40625 11.796875 39.5 10.90625 
C 33.09375 2.484375 23.59375 1 19.796875 1 
C 14.09375 1 11.09375 5.453125 11.09375 12.78125 
C 11.09375 14.171875 11.09375 16.65625 12.59375 23 
z
M 13.09375 25 
C 17.40625 40.484375 26.90625 41.984375 30.09375 41.984375 
C 34.5 41.984375 37.5 39.375 37.5 35.546875 
C 37.5 25 21.5 25 17.296875 25 
z
" id="CMMI12-101"/>
    </defs>
    <g transform="translate(308.009871 42.640261)scale(0.192 -0.192)">
     <use transform="translate(6.035518 39.226102)scale(0.697382)" xlink:href="#CMMI12-98"/>
     <use transform="translate(0 -34.355253)scale(0.697382)" xlink:href="#CMMI12-102"/>
     <use transform="translate(42.299537 0)scale(0.996264)" xlink:href="#CMR17-40"/>
     <use transform="translate(77.580305 0)scale(0.996264)" xlink:href="#CMMI12-12"/>
     <use transform="translate(138.174321 0)scale(0.996264)" xlink:href="#CMR17-41"/>
     <use transform="translate(173.455088 0)scale(0.996264)" xlink:href="#CMMI12-59"/>
     <use transform="translate(221.304355 44.444174)scale(0.697382)" xlink:href="#CMMI12-103"/>
     <use transform="translate(218.352185 -34.355253)scale(0.697382)" xlink:href="#CMMI12-102"/>
     <use transform="translate(260.651722 0)scale(0.996264)" xlink:href="#CMR17-40"/>
     <use transform="translate(295.932489 0)scale(0.996264)" xlink:href="#CMMI12-12"/>
     <use transform="translate(356.526505 0)scale(0.996264)" xlink:href="#CMR17-41"/>
     <use transform="translate(391.807273 0)scale(0.996264)" xlink:href="#CMMI12-59"/>
     <use transform="translate(441.43226 39.226102)scale(0.697382)" xlink:href="#CMMI12-101"/>
     <use transform="translate(436.704369 -34.355253)scale(0.697382)" xlink:href="#CMMI12-102"/>
     <use transform="translate(479.003906 0)scale(0.996264)" xlink:href="#CMR17-40"/>
     <use transform="translate(514.284674 0)scale(0.996264)" xlink:href="#CMMI12-12"/>
     <use transform="translate(574.87869 0)scale(0.996264)" xlink:href="#CMR17-41"/>
     <path d="M 0 22.914133 
L 41.104023 22.914133 
L 41.104023 26.899083 
L 0 26.899083 
L 0 22.914133 
z
"/>
     <path d="M 218.352185 22.914133 
L 259.456208 22.914133 
L 259.456208 26.899083 
L 218.352185 26.899083 
L 218.352185 22.914133 
z
"/>
     <path d="M 436.704369 22.914133 
L 477.808392 22.914133 
L 477.808392 26.899083 
L 436.704369 26.899083 
L 436.704369 22.914133 
z
"/>
    </g>
   </g>
   <g id="legend_1">
    <g id="patch_7">
     <path d="M 578.936101 259.468418 
L 636.8 259.468418 
Q 640 259.468418 640 256.268418 
L 640 173.571582 
Q 640 170.371582 636.8 170.371582 
L 578.936101 170.371582 
Q 575.736101 170.371582 575.736101 173.571582 
L 575.736101 256.268418 
Q 575.736101 259.468418 578.936101 259.468418 
z
" style="fill:#ffffff;opacity:0.8;stroke:#cccccc;stroke-linejoin:miter;"/>
    </g>
    <g id="line2d_30">
     <path d="M 582.136101 185.196442 
L 614.136101 185.196442 
" style="fill:none;stroke:#ff0000;stroke-linecap:square;stroke-width:1.5;"/>
    </g>
    <g id="line2d_31"/>
    <g id="text_17">
     <!-- $\frac{b}{f}$ -->
     <g transform="translate(626.936101 190.796442)scale(0.16 -0.16)">
      <use transform="translate(6.035518 39.226102)scale(0.697382)" xlink:href="#CMMI12-98"/>
      <use transform="translate(0 -34.355253)scale(0.697382)" xlink:href="#CMMI12-102"/>
      <path d="M 0 22.914133 
L 41.104023 22.914133 
L 41.104023 26.899083 
L 0 26.899083 
L 0 22.914133 
z
"/>
     </g>
    </g>
    <g id="line2d_32">
     <path d="M 582.136101 212.778162 
L 614.136101 212.778162 
" style="fill:none;stroke:#008000;stroke-linecap:square;stroke-width:1.5;"/>
    </g>
    <g id="line2d_33"/>
    <g id="text_18">
     <!-- $\frac{g}{f}$  -->
     <g transform="translate(626.936101 218.378162)scale(0.16 -0.16)">
      <use transform="translate(2.952171 44.444174)scale(0.697382)" xlink:href="#CMMI12-103"/>
      <use transform="translate(0 -34.355253)scale(0.697382)" xlink:href="#CMMI12-102"/>
      <path d="M 0 22.914133 
L 41.104023 22.914133 
L 41.104023 26.899083 
L 0 26.899083 
L 0 22.914133 
z
"/>
     </g>
    </g>
    <g id="line2d_34">
     <path d="M 582.136101 239.801946 
L 614.136101 239.801946 
" style="fill:none;stroke:#0000ff;stroke-linecap:square;stroke-width:1.5;"/>
    </g>
    <g id="line2d_35"/>
    <g id="text_19">
     <!-- $\frac{e}{f}$  -->
     <g transform="translate(626.936101 245.401946)scale(0.16 -0.16)">
      <use transform="translate(4.727891 39.226102)scale(0.697382)" xlink:href="#CMMI12-101"/>
      <use transform="translate(0 -34.355253)scale(0.697382)" xlink:href="#CMMI12-102"/>
      <path d="M 0 22.914133 
L 41.104023 22.914133 
L 41.104023 26.899083 
L 0 26.899083 
L 0 22.914133 
z
"/>
     </g>
    </g>
   </g>
  </g>
 </g>
 <defs>
  <clipPath id="p5f9bae2989">
   <rect height="326.16" width="558" x="90" y="51.84"/>
  </clipPath>
 </defs>
</svg>
