<?xml version="1.0" encoding="utf-8" standalone="no"?>
<!DOCTYPE svg PUBLIC "-//W3C//DTD SVG 1.1//EN"
  "http://www.w3.org/Graphics/SVG/1.1/DTD/svg11.dtd">
<!-- Created with matplotlib (https://matplotlib.org/) -->
<svg height="432pt" version="1.1" viewBox="0 0 720 432" width="720pt" xmlns="http://www.w3.org/2000/svg" xmlns:xlink="http://www.w3.org/1999/xlink">
 <defs>
  <style type="text/css">
*{stroke-linecap:butt;stroke-linejoin:round;}
  </style>
 </defs>
 <g id="figure_1">
  <g id="patch_1">
   <path d="M 0 432 
L 720 432 
L 720 0 
L 0 0 
z
" style="fill:#ffffff;"/>
  </g>
  <g id="axes_1">
   <g id="patch_2">
    <path d="M 90 378 
L 648 378 
L 648 51.84 
L 90 51.84 
z
" style="fill:#ffffff;"/>
   </g>
   <g id="matplotlib.axis_1">
    <g id="xtick_1">
     <g id="line2d_1">
      <path clip-path="url(#pcc852c7482)" d="M 161.479339 378 
L 161.479339 51.84 
" style="fill:none;stroke:#b0b0b0;stroke-linecap:square;stroke-width:0.8;"/>
     </g>
     <g id="line2d_2">
      <defs>
       <path d="M 0 0 
L 0 3.5 
" id="mc4da34877e" style="stroke:#000000;stroke-width:0.8;"/>
      </defs>
      <g>
       <use style="stroke:#000000;stroke-width:0.8;" x="161.479339" xlink:href="#mc4da34877e" y="378"/>
      </g>
     </g>
     <g id="text_1">
      <!-- $\mathdefault{1}$ -->
      <defs>
       <path d="M 26.59375 63.796875 
C 26.59375 65.890625 26.5 66 25.09375 66 
C 21.203125 61.359375 15.296875 59.890625 9.703125 59.6875 
C 9.40625 59.6875 8.90625 59.6875 8.796875 59.5 
C 8.703125 59.296875 8.703125 59.09375 8.703125 57 
C 11.796875 57 17 57.59375 21 59.984375 
L 21 7.296875 
C 21 3.796875 20.796875 2.59375 12.203125 2.59375 
L 9.203125 2.59375 
L 9.203125 0 
C 14 0.09375 19 0.1875 23.796875 0.1875 
C 28.59375 0.1875 33.59375 0.09375 38.40625 0 
L 38.40625 2.59375 
L 35.40625 2.59375 
C 26.796875 2.59375 26.59375 3.6875 26.59375 7.296875 
z
" id="CMR17-49"/>
      </defs>
      <g transform="translate(157.367196 397.776976)scale(0.18 -0.18)">
       <use transform="scale(0.996264)" xlink:href="#CMR17-49"/>
      </g>
     </g>
    </g>
    <g id="xtick_2">
     <g id="line2d_3">
      <path clip-path="url(#pcc852c7482)" d="M 276.768595 378 
L 276.768595 51.84 
" style="fill:none;stroke:#b0b0b0;stroke-linecap:square;stroke-width:0.8;"/>
     </g>
     <g id="line2d_4">
      <g>
       <use style="stroke:#000000;stroke-width:0.8;" x="276.768595" xlink:href="#mc4da34877e" y="378"/>
      </g>
     </g>
     <g id="text_2">
      <!-- $\mathdefault{2}$ -->
      <defs>
       <path d="M 41.703125 15.46875 
L 39.90625 15.46875 
C 38.90625 8.390625 38.09375 7.1875 37.703125 6.59375 
C 37.203125 5.796875 30 5.796875 28.59375 5.796875 
L 9.40625 5.796875 
C 13 9.6875 20 16.765625 28.5 24.9375 
C 34.59375 30.71875 41.703125 37.5 41.703125 47.390625 
C 41.703125 59.1875 32.296875 66 21.796875 66 
C 10.796875 66 4.09375 56.296875 4.09375 47.296875 
C 4.09375 43.390625 7 42.890625 8.203125 42.890625 
C 9.203125 42.890625 12.203125 43.484375 12.203125 46.984375 
C 12.203125 50.09375 9.59375 51 8.203125 51 
C 7.59375 51 7 50.890625 6.59375 50.6875 
C 8.5 59.1875 14.296875 63.390625 20.40625 63.390625 
C 29.09375 63.390625 34.796875 56.5 34.796875 47.390625 
C 34.796875 38.703125 29.703125 31.21875 24 24.734375 
L 4.09375 2.296875 
L 4.09375 0 
L 39.296875 0 
z
" id="CMR17-50"/>
      </defs>
      <g transform="translate(272.656452 397.776976)scale(0.18 -0.18)">
       <use transform="scale(0.996264)" xlink:href="#CMR17-50"/>
      </g>
     </g>
    </g>
    <g id="xtick_3">
     <g id="line2d_5">
      <path clip-path="url(#pcc852c7482)" d="M 392.057851 378 
L 392.057851 51.84 
" style="fill:none;stroke:#b0b0b0;stroke-linecap:square;stroke-width:0.8;"/>
     </g>
     <g id="line2d_6">
      <g>
       <use style="stroke:#000000;stroke-width:0.8;" x="392.057851" xlink:href="#mc4da34877e" y="378"/>
      </g>
     </g>
     <g id="text_3">
      <!-- $\mathdefault{3}$ -->
      <defs>
       <path d="M 22.09375 34 
C 31 34 34.90625 26.140625 34.90625 17.09375 
C 34.90625 5.03125 28.5 0.390625 22.703125 0.390625 
C 17.40625 0.390625 8.796875 3.015625 6.09375 10.796875 
C 6.59375 10.59375 7.09375 10.59375 7.59375 10.59375 
C 10 10.59375 11.796875 12.1875 11.796875 14.796875 
C 11.796875 17.6875 9.59375 19 7.59375 19 
C 5.90625 19 3.296875 18.1875 3.296875 14.484375 
C 3.296875 5.234375 12.296875 -2 22.90625 -2 
C 34 -2 42.5 6.75 42.5 16.984375 
C 42.5 26.84375 34.5 34 25 35.09375 
C 32.59375 36.671875 39.90625 43.375 39.90625 52.390625 
C 39.90625 60.25 32 66 23 66 
C 13.90625 66 5.90625 60.34375 5.90625 52.296875 
C 5.90625 48.796875 8.5 48.1875 9.796875 48.1875 
C 11.90625 48.1875 13.703125 49.484375 13.703125 52.09375 
C 13.703125 54.6875 11.90625 56 9.796875 56 
C 9.40625 56 8.90625 56 8.5 55.796875 
C 11.40625 62.484375 19.296875 63.6875 22.796875 63.6875 
C 26.296875 63.6875 32.90625 61.96875 32.90625 52.296875 
C 32.90625 49.484375 32.5 44.546875 29.09375 40.21875 
C 26.09375 36.390625 22.703125 36.1875 19.40625 35.890625 
C 18.90625 35.890625 16.59375 35.6875 16.203125 35.6875 
C 15.5 35.59375 15.09375 35.5 15.09375 34.796875 
C 15.09375 34.09375 15.203125 34 17.203125 34 
z
" id="CMR17-51"/>
      </defs>
      <g transform="translate(387.945708 397.776976)scale(0.18 -0.18)">
       <use transform="scale(0.996264)" xlink:href="#CMR17-51"/>
      </g>
     </g>
    </g>
    <g id="xtick_4">
     <g id="line2d_7">
      <path clip-path="url(#pcc852c7482)" d="M 507.347107 378 
L 507.347107 51.84 
" style="fill:none;stroke:#b0b0b0;stroke-linecap:square;stroke-width:0.8;"/>
     </g>
     <g id="line2d_8">
      <g>
       <use style="stroke:#000000;stroke-width:0.8;" x="507.347107" xlink:href="#mc4da34877e" y="378"/>
      </g>
     </g>
     <g id="text_4">
      <!-- $\mathdefault{4}$ -->
      <defs>
       <path d="M 33.59375 64.796875 
C 33.59375 66.890625 33.5 67 31.703125 67 
L 2 19.59375 
L 2 17 
L 27.796875 17 
L 27.796875 7.1875 
C 27.796875 3.59375 27.59375 2.59375 20.59375 2.59375 
L 18.703125 2.59375 
L 18.703125 0 
C 21.90625 0.1875 27.296875 0.1875 30.703125 0.1875 
C 34.09375 0.1875 39.5 0.1875 42.703125 0 
L 42.703125 2.59375 
L 40.796875 2.59375 
C 33.796875 2.59375 33.59375 3.59375 33.59375 7.1875 
L 33.59375 17 
L 43.796875 17 
L 43.796875 19.59375 
L 33.59375 19.59375 
z
M 28.09375 58.171875 
L 28.09375 19.59375 
L 4 19.59375 
z
" id="CMR17-52"/>
      </defs>
      <g transform="translate(503.234964 397.776976)scale(0.18 -0.18)">
       <use transform="scale(0.996264)" xlink:href="#CMR17-52"/>
      </g>
     </g>
    </g>
    <g id="xtick_5">
     <g id="line2d_9">
      <path clip-path="url(#pcc852c7482)" d="M 622.636364 378 
L 622.636364 51.84 
" style="fill:none;stroke:#b0b0b0;stroke-linecap:square;stroke-width:0.8;"/>
     </g>
     <g id="line2d_10">
      <g>
       <use style="stroke:#000000;stroke-width:0.8;" x="622.636364" xlink:href="#mc4da34877e" y="378"/>
      </g>
     </g>
     <g id="text_5">
      <!-- $\mathdefault{5}$ -->
      <defs>
       <path d="M 11.40625 58.59375 
C 12.40625 58.1875 16.5 56.890625 20.703125 56.890625 
C 30 56.890625 35.09375 61.890625 38 64.6875 
C 38 65.484375 38 66 37.40625 66 
C 37.296875 66 37.09375 66 36.296875 65.59375 
C 32.796875 64.09375 28.703125 63 23.703125 63 
C 20.703125 63 16.203125 63.359375 11.296875 65.484375 
C 10.203125 66 10 66 9.90625 66 
C 9.40625 66 9.296875 65.890625 9.296875 63.90625 
L 9.296875 34.859375 
C 9.296875 33.015625 9.296875 32.5 10.296875 32.5 
C 10.796875 32.5 11 32.703125 11.5 33.421875 
C 14.703125 38.046875 19.09375 40 24.09375 40 
C 27.59375 40 35.09375 37.734375 35.09375 20.203125 
C 35.09375 16.984375 35.09375 11.1875 32.09375 6.59375 
C 29.59375 2.484375 25.703125 0.390625 21.40625 0.390625 
C 14.796875 0.390625 8.09375 4.984375 6.296875 12.6875 
C 6.703125 12.59375 7.5 12.390625 7.90625 12.390625 
C 9.203125 12.390625 11.703125 13.09375 11.703125 16.1875 
C 11.703125 18.890625 9.796875 20 7.90625 20 
C 5.59375 20 4.09375 18.59375 4.09375 15.796875 
C 4.09375 7.09375 11 -2 21.59375 -2 
C 31.90625 -2 41.703125 6.890625 41.703125 19.796875 
C 41.703125 32.09375 33.90625 41.59375 24.203125 41.59375 
C 19.09375 41.59375 14.796875 39.6875 11.40625 36 
z
" id="CMR17-53"/>
      </defs>
      <g transform="translate(618.524221 397.776976)scale(0.18 -0.18)">
       <use transform="scale(0.996264)" xlink:href="#CMR17-53"/>
      </g>
     </g>
    </g>
    <g id="text_6">
     <!-- $\beta$ -->
     <defs>
      <path d="M 56.59375 58.421875 
C 56.59375 64.546875 51.5 71 42.40625 71 
C 29.5 71 21.296875 54.84375 18.703125 44.21875 
L 2.90625 -18 
C 2.703125 -18.8125 3.296875 -19 3.796875 -19 
C 4.5 -19 5 -18.90625 5.09375 -18.40625 
L 12.09375 9.25 
C 13.09375 3.609375 18.59375 -1 24.5 -1 
C 38.796875 -1 52.296875 10.265625 52.296875 25.28125 
C 52.296875 29.109375 51.40625 32.9375 49.296875 36.15625 
C 48.09375 38.078125 46.59375 39.484375 45 40.609375 
C 52.203125 44.109375 56.59375 50.34375 56.59375 58.421875 
z
M 39.203125 40.703125 
C 37.59375 40.171875 36 40 34.09375 40 
C 32.703125 40 31.40625 39.890625 29.59375 40.4375 
C 30.59375 41.046875 32.09375 41.234375 34.203125 41.234375 
C 36 41.234375 37.796875 41.046875 39.203125 40.703125 
z
M 51.40625 59.34375 
C 51.40625 53.71875 48.703125 45.546875 42.203125 41.9375 
C 40.296875 42.546875 37.703125 43 35.5 43 
C 33.40625 43 27.40625 43.203125 27.40625 40.34375 
C 27.40625 37.671875 32.90625 37.96875 34.59375 37.96875 
C 37.203125 37.96875 39.5 38.578125 41.90625 39.28125 
C 45.09375 36.671875 46.5 33.234375 46.5 28.203125 
C 46.5 22.359375 44.90625 17.625 43 13.28125 
C 39.703125 5.828125 31.90625 1 25 1 
C 17.703125 1 13.90625 6.84375 13.90625 13.6875 
C 13.90625 14.59375 13.90625 15.90625 14.296875 17.421875 
L 20.796875 43.5 
C 24.09375 56.890625 32.5 68.953125 42.203125 68.953125 
C 49.40625 68.953125 51.40625 63.84375 51.40625 59.34375 
z
" id="CMMI12-12"/>
     </defs>
     <g transform="translate(364.594341 416.953858)scale(0.16 -0.16)">
      <use transform="scale(0.996264)" xlink:href="#CMMI12-12"/>
     </g>
    </g>
   </g>
   <g id="matplotlib.axis_2">
    <g id="ytick_1">
     <g id="line2d_11">
      <path clip-path="url(#pcc852c7482)" d="M 90 373.058182 
L 648 373.058182 
" style="fill:none;stroke:#b0b0b0;stroke-linecap:square;stroke-width:0.8;"/>
     </g>
     <g id="line2d_12">
      <defs>
       <path d="M 0 0 
L -3.5 0 
" id="m2a8148b6a1" style="stroke:#000000;stroke-width:0.8;"/>
      </defs>
      <g>
       <use style="stroke:#000000;stroke-width:0.8;" x="90" xlink:href="#m2a8148b6a1" y="373.058182"/>
      </g>
     </g>
     <g id="text_7">
      <!-- $\mathdefault{1}$ -->
      <g transform="translate(74.775714 379.44667)scale(0.18 -0.18)">
       <use transform="scale(0.996264)" xlink:href="#CMR17-49"/>
      </g>
     </g>
    </g>
    <g id="ytick_2">
     <g id="line2d_13">
      <path clip-path="url(#pcc852c7482)" d="M 90 323.64 
L 648 323.64 
" style="fill:none;stroke:#b0b0b0;stroke-linecap:square;stroke-width:0.8;"/>
     </g>
     <g id="line2d_14">
      <g>
       <use style="stroke:#000000;stroke-width:0.8;" x="90" xlink:href="#m2a8148b6a1" y="323.64"/>
      </g>
     </g>
     <g id="text_8">
      <!-- $\mathdefault{2}$ -->
      <g transform="translate(74.775714 330.028488)scale(0.18 -0.18)">
       <use transform="scale(0.996264)" xlink:href="#CMR17-50"/>
      </g>
     </g>
    </g>
    <g id="ytick_3">
     <g id="line2d_15">
      <path clip-path="url(#pcc852c7482)" d="M 90 274.221818 
L 648 274.221818 
" style="fill:none;stroke:#b0b0b0;stroke-linecap:square;stroke-width:0.8;"/>
     </g>
     <g id="line2d_16">
      <g>
       <use style="stroke:#000000;stroke-width:0.8;" x="90" xlink:href="#m2a8148b6a1" y="274.221818"/>
      </g>
     </g>
     <g id="text_9">
      <!-- $\mathdefault{3}$ -->
      <g transform="translate(74.775714 280.610306)scale(0.18 -0.18)">
       <use transform="scale(0.996264)" xlink:href="#CMR17-51"/>
      </g>
     </g>
    </g>
    <g id="ytick_4">
     <g id="line2d_17">
      <path clip-path="url(#pcc852c7482)" d="M 90 224.803636 
L 648 224.803636 
" style="fill:none;stroke:#b0b0b0;stroke-linecap:square;stroke-width:0.8;"/>
     </g>
     <g id="line2d_18">
      <g>
       <use style="stroke:#000000;stroke-width:0.8;" x="90" xlink:href="#m2a8148b6a1" y="224.803636"/>
      </g>
     </g>
     <g id="text_10">
      <!-- $\mathdefault{4}$ -->
      <g transform="translate(74.775714 231.192125)scale(0.18 -0.18)">
       <use transform="scale(0.996264)" xlink:href="#CMR17-52"/>
      </g>
     </g>
    </g>
    <g id="ytick_5">
     <g id="line2d_19">
      <path clip-path="url(#pcc852c7482)" d="M 90 175.385455 
L 648 175.385455 
" style="fill:none;stroke:#b0b0b0;stroke-linecap:square;stroke-width:0.8;"/>
     </g>
     <g id="line2d_20">
      <g>
       <use style="stroke:#000000;stroke-width:0.8;" x="90" xlink:href="#m2a8148b6a1" y="175.385455"/>
      </g>
     </g>
     <g id="text_11">
      <!-- $\mathdefault{5}$ -->
      <g transform="translate(74.775714 181.773943)scale(0.18 -0.18)">
       <use transform="scale(0.996264)" xlink:href="#CMR17-53"/>
      </g>
     </g>
    </g>
    <g id="ytick_6">
     <g id="line2d_21">
      <path clip-path="url(#pcc852c7482)" d="M 90 125.967273 
L 648 125.967273 
" style="fill:none;stroke:#b0b0b0;stroke-linecap:square;stroke-width:0.8;"/>
     </g>
     <g id="line2d_22">
      <g>
       <use style="stroke:#000000;stroke-width:0.8;" x="90" xlink:href="#m2a8148b6a1" y="125.967273"/>
      </g>
     </g>
     <g id="text_12">
      <!-- $\mathdefault{6}$ -->
      <defs>
       <path d="M 10.59375 34.34375 
C 10.59375 58 21.796875 63.6875 28.296875 63.6875 
C 30.40625 63.6875 35.5 63.265625 37.5 59.09375 
C 35.90625 59.09375 32.90625 59.09375 32.90625 55.59375 
C 32.90625 52.890625 35.09375 52 36.5 52 
C 37.40625 52 40.09375 52.390625 40.09375 55.796875 
C 40.09375 62.296875 35.09375 66 28.203125 66 
C 16.296875 66 3.796875 53.296875 3.796875 31.421875 
C 3.796875 4.015625 15.09375 -2 23.09375 -2 
C 32.796875 -2 42 6.734375 42 20.234375 
C 42 32.828125 33.90625 42 23.703125 42 
C 17.59375 42 13.09375 37.96875 10.59375 30.921875 
z
M 23.09375 0.390625 
C 10.796875 0.390625 10.796875 18.9375 10.796875 22.65625 
C 10.796875 29.90625 14.203125 40.390625 23.5 40.390625 
C 25.203125 40.390625 30.09375 40.390625 33.40625 33.4375 
C 35.203125 29.515625 35.203125 25.375 35.203125 20.34375 
C 35.203125 14.90625 35.203125 10.875 33.09375 6.84375 
C 30.90625 2.703125 27.703125 0.390625 23.09375 0.390625 
z
" id="CMR17-54"/>
      </defs>
      <g transform="translate(74.775714 132.355761)scale(0.18 -0.18)">
       <use transform="scale(0.996264)" xlink:href="#CMR17-54"/>
      </g>
     </g>
    </g>
    <g id="ytick_7">
     <g id="line2d_23">
      <path clip-path="url(#pcc852c7482)" d="M 90 76.549091 
L 648 76.549091 
" style="fill:none;stroke:#b0b0b0;stroke-linecap:square;stroke-width:0.8;"/>
     </g>
     <g id="line2d_24">
      <g>
       <use style="stroke:#000000;stroke-width:0.8;" x="90" xlink:href="#m2a8148b6a1" y="76.549091"/>
      </g>
     </g>
     <g id="text_13">
      <!-- $\mathdefault{7}$ -->
      <defs>
       <path d="M 45.09375 61.796875 
L 45.09375 64 
L 21.59375 64 
C 9.90625 64 9.703125 65.09375 9.296875 67 
L 7.5 67 
L 4.59375 48.5 
L 6.40625 48.5 
C 6.703125 50.40625 7.40625 55.5 8.59375 57.390625 
C 9.203125 58.1875 16.59375 58.1875 18.296875 58.1875 
L 40.296875 58.1875 
L 29.203125 41.71875 
C 21.796875 30.640625 16.703125 15.671875 16.703125 2.59375 
C 16.703125 1.390625 16.703125 -2 20.296875 -2 
C 23.90625 -2 23.90625 1.390625 23.90625 2.6875 
L 23.90625 7.28125 
C 23.90625 23.65625 26.703125 34.4375 31.296875 41.3125 
z
" id="CMR17-55"/>
      </defs>
      <g transform="translate(74.775714 82.937579)scale(0.18 -0.18)">
       <use transform="scale(0.996264)" xlink:href="#CMR17-55"/>
      </g>
     </g>
    </g>
    <g id="text_14">
     <!-- $\frac{b}{f}(\beta), \frac{g}{f}(\beta), \frac{e}{f}(\beta)$ -->
     <defs>
      <path d="M 23.09375 66.484375 
C 23.203125 66.890625 23.40625 67.484375 23.40625 67.984375 
C 23.40625 69 22.40625 69 22.203125 69 
C 22.09375 69 18.5 68.6875 16.703125 68.484375 
C 15 68.390625 13.5 68.1875 11.703125 68.09375 
C 9.296875 67.890625 8.59375 67.796875 8.59375 65.984375 
C 8.59375 64.984375 9.59375 64.984375 10.59375 64.984375 
C 15.703125 64.984375 15.703125 64.109375 15.703125 63.125 
C 15.703125 62.421875 14.90625 59.5625 14.5 57.796875 
L 12.09375 48.328125 
C 11.09375 44.390625 5.40625 21.75 5 19.953125 
C 4.5 17.453125 4.5 15.75 4.5 14.453125 
C 4.5 4.28125 10.203125 -1 16.703125 -1 
C 28.296875 -1 40.296875 13.859375 40.296875 28.328125 
C 40.296875 37.5 35.09375 44 27.59375 44 
C 22.40625 44 17.703125 39.703125 15.796875 37.703125 
z
M 16.796875 1 
C 13.59375 1 10.09375 3.390625 10.09375 11.171875 
C 10.09375 14.453125 10.40625 16.359375 12.203125 23.34375 
C 12.5 24.640625 14.09375 31.015625 14.5 32.3125 
C 14.703125 33.109375 20.59375 41.984375 27.40625 41.984375 
C 31.796875 41.984375 33.796875 37.609375 33.796875 32.421875 
C 33.796875 27.625 31 16.359375 28.5 11.171875 
C 26 5.78125 21.40625 1 16.796875 1 
z
" id="CMMI12-98"/>
      <path d="M 44.59375 40.09375 
C 46.59375 40.09375 47.40625 40.09375 47.40625 41.984375 
C 47.40625 43 46.59375 43 44.796875 43 
L 36.703125 43 
C 38.59375 53.09375 40 60.09375 40.796875 63.296875 
C 41.40625 65.6875 43.5 67.984375 46.09375 67.984375 
C 48.203125 67.984375 50.296875 67.09375 51.296875 66.1875 
C 47.40625 65.796875 46.203125 62.890625 46.203125 61.1875 
C 46.203125 59.1875 47.703125 58 49.59375 58 
C 51.59375 58 54.59375 59.6875 54.59375 63.5 
C 54.59375 67.6875 50.40625 70 46 70 
C 41.703125 70 37.5 66.796875 35.5 62.890625 
C 33.703125 59.390625 32.703125 55.828125 30.40625 43 
L 23.703125 43 
C 21.796875 43 20.796875 43 20.796875 41.1875 
C 20.796875 40.09375 21.40625 40.09375 23.40625 40.09375 
L 29.796875 40.09375 
C 28 30.890625 23.90625 8.515625 21.59375 -2.0625 
C 19.90625 -10.703125 18.40625 -18 13.40625 -18 
C 13.09375 -18 10.203125 -18 8.40625 -16.109375 
C 13.5 -15.703125 13.5 -11.3125 13.5 -11.203125 
C 13.5 -9.203125 12 -8 10.09375 -8 
C 8.09375 -8 5.09375 -9.703125 5.09375 -13.515625 
C 5.09375 -17.8125 9.5 -20 13.40625 -20 
C 23.59375 -20 27.796875 -1.765625 28.90625 3.171875 
C 30.703125 10.796875 35.59375 37.125 36.09375 40.09375 
z
" id="CMMI12-102"/>
      <path d="M 30.59375 -24.40625 
C 30.59375 -24.3125 30.59375 -24.109375 30.296875 -23.8125 
C 25.703125 -19.109375 13.40625 -6.296875 13.40625 24.9375 
C 13.40625 56.171875 25.5 68.875 30.40625 73.890625 
C 30.40625 73.984375 30.59375 74.1875 30.59375 74.484375 
C 30.59375 74.796875 30.296875 75 29.90625 75 
C 28.796875 75 20.296875 67.578125 15.40625 56.5625 
C 10.40625 45.453125 9 34.65625 9 25.046875 
C 9 17.828125 9.703125 5.625 15.703125 -7.296875 
C 20.5 -17.703125 28.703125 -25 29.90625 -25 
C 30.40625 -25 30.59375 -24.8125 30.59375 -24.40625 
z
" id="CMR17-40"/>
      <path d="M 26.296875 24.9375 
C 26.296875 32.140625 25.59375 44.359375 19.59375 57.265625 
C 14.796875 67.6875 6.59375 75 5.40625 75 
C 5.09375 75 4.703125 74.890625 4.703125 74.390625 
C 4.703125 74.1875 4.796875 74.09375 4.90625 73.890625 
C 9.703125 68.875 21.90625 56.171875 21.90625 25.046875 
C 21.90625 -6.1875 9.796875 -18.90625 4.90625 -23.90625 
C 4.796875 -24.109375 4.703125 -24.203125 4.703125 -24.40625 
C 4.703125 -24.90625 5.09375 -25 5.40625 -25 
C 6.5 -25 15 -17.609375 19.90625 -6.59375 
C 24.90625 4.515625 26.296875 15.328125 26.296875 24.9375 
z
" id="CMR17-41"/>
      <path d="M 19.5 -0.40625 
C 19.5 5.390625 17.59375 9.6875 13.5 9.6875 
C 10.296875 9.6875 8.703125 7.09375 8.703125 4.890625 
C 8.703125 2.6875 10.203125 0 13.59375 0 
C 14.90625 0 16 0.390625 16.90625 1.296875 
C 17.09375 1.5 17.203125 1.5 17.296875 1.5 
C 17.5 1.5 17.5 0.09375 17.5 -0.40625 
C 17.5 -3.640625 16.90625 -10.03125 11.09375 -16.421875 
C 10 -17.609375 10 -17.8125 10 -18 
C 10 -18.5 10.5 -19 11 -19 
C 11.796875 -19 19.5 -11.703125 19.5 -0.40625 
z
" id="CMMI12-59"/>
      <path d="M 33.796875 12.671875 
C 33.40625 11.0625 33.203125 10.671875 31.90625 9.171875 
C 27.796875 3.890625 23.59375 2 20.5 2 
C 17.203125 2 14.09375 4.578125 14.09375 11.46875 
C 14.09375 16.75 17.09375 27.921875 19.296875 32.421875 
C 22.203125 38 26.703125 41.984375 30.90625 41.984375 
C 37.5 41.984375 38.796875 33.8125 38.796875 33.21875 
L 38.5 31.8125 
z
M 40 37.40625 
C 38.703125 40.296875 35.90625 44 30.90625 44 
C 20 44 7.59375 30.328125 7.59375 15.453125 
C 7.59375 5.078125 13.90625 0 20.296875 0 
C 25.59375 0 30.296875 4.1875 32.09375 6.1875 
L 29.90625 -2.75 
C 28.5 -8.125 27.90625 -10.578125 24.296875 -14 
C 20.203125 -18 16.40625 -18 14.203125 -18 
C 11.203125 -18 8.703125 -17.8125 6.203125 -17.03125 
C 9.40625 -16.15625 10.203125 -13.40625 10.203125 -12.328125 
C 10.203125 -10.765625 9 -9.203125 6.796875 -9.203125 
C 4.40625 -9.203125 1.796875 -11.15625 1.796875 -14.390625 
C 1.796875 -18.40625 5.90625 -20 14.40625 -20 
C 27.296875 -20 34 -11.84375 35.296875 -6.5625 
L 46.40625 37.90625 
C 46.703125 39.09375 46.703125 39.296875 46.703125 39.5 
C 46.703125 40.890625 45.59375 42 44.09375 42 
C 41.703125 42 40.296875 40 40 37.3125 
z
" id="CMMI12-103"/>
      <path d="M 17.90625 23 
C 20.59375 23 27.40625 23.1875 32.203125 25 
C 39.796875 27.90625 40.5 33.75 40.5 35.546875 
C 40.5 39.984375 36.703125 44 30.09375 44 
C 19.59375 44 4.5 34.453125 4.5 16.65625 
C 4.5 6.25 10.5 -1 19.59375 -1 
C 33.203125 -1 41.796875 9.515625 41.796875 10.796875 
C 41.796875 11.390625 41.203125 11.890625 40.796875 11.890625 
C 40.5 11.890625 40.40625 11.796875 39.5 10.90625 
C 33.09375 2.484375 23.59375 1 19.796875 1 
C 14.09375 1 11.09375 5.453125 11.09375 12.78125 
C 11.09375 14.171875 11.09375 16.65625 12.59375 23 
z
M 13.09375 25 
C 17.40625 40.484375 26.90625 41.984375 30.09375 41.984375 
C 34.5 41.984375 37.5 39.375 37.5 35.546875 
C 37.5 25 21.5 25 17.296875 25 
z
" id="CMMI12-101"/>
     </defs>
     <g transform="translate(63.109242 267.648743)rotate(-90)scale(0.16 -0.16)">
      <use transform="translate(6.035518 39.226102)scale(0.697382)" xlink:href="#CMMI12-98"/>
      <use transform="translate(0 -34.355253)scale(0.697382)" xlink:href="#CMMI12-102"/>
      <use transform="translate(42.299537 0)scale(0.996264)" xlink:href="#CMR17-40"/>
      <use transform="translate(77.580305 0)scale(0.996264)" xlink:href="#CMMI12-12"/>
      <use transform="translate(138.174321 0)scale(0.996264)" xlink:href="#CMR17-41"/>
      <use transform="translate(173.455088 0)scale(0.996264)" xlink:href="#CMMI12-59"/>
      <use transform="translate(221.304355 44.444174)scale(0.697382)" xlink:href="#CMMI12-103"/>
      <use transform="translate(218.352185 -34.355253)scale(0.697382)" xlink:href="#CMMI12-102"/>
      <use transform="translate(260.651722 0)scale(0.996264)" xlink:href="#CMR17-40"/>
      <use transform="translate(295.932489 0)scale(0.996264)" xlink:href="#CMMI12-12"/>
      <use transform="translate(356.526505 0)scale(0.996264)" xlink:href="#CMR17-41"/>
      <use transform="translate(391.807273 0)scale(0.996264)" xlink:href="#CMMI12-59"/>
      <use transform="translate(441.43226 39.226102)scale(0.697382)" xlink:href="#CMMI12-101"/>
      <use transform="translate(436.704369 -34.355253)scale(0.697382)" xlink:href="#CMMI12-102"/>
      <use transform="translate(479.003906 0)scale(0.996264)" xlink:href="#CMR17-40"/>
      <use transform="translate(514.284674 0)scale(0.996264)" xlink:href="#CMMI12-12"/>
      <use transform="translate(574.87869 0)scale(0.996264)" xlink:href="#CMR17-41"/>
      <path d="M 0 22.914133 
L 41.104023 22.914133 
L 41.104023 26.899083 
L 0 26.899083 
L 0 22.914133 
z
"/>
      <path d="M 218.352185 22.914133 
L 259.456208 22.914133 
L 259.456208 26.899083 
L 218.352185 26.899083 
L 218.352185 22.914133 
z
"/>
      <path d="M 436.704369 22.914133 
L 477.808392 22.914133 
L 477.808392 26.899083 
L 436.704369 26.899083 
L 436.704369 22.914133 
z
"/>
     </g>
    </g>
   </g>
   <g id="line2d_25">
    <path clip-path="url(#pcc852c7482)" d="M 115.363636 343.407273 
L 120.487603 341.210909 
L 125.61157 339.014545 
L 130.735537 336.818182 
L 135.859504 334.621818 
L 140.983471 332.425455 
L 146.107438 330.229091 
L 151.231405 328.032727 
L 156.355372 325.836364 
L 161.479339 323.64 
L 166.603306 321.443636 
L 171.727273 319.247273 
L 176.85124 317.050909 
L 181.975207 314.854545 
L 187.099174 312.658182 
L 192.22314 310.461818 
L 197.347107 308.265455 
L 202.471074 306.069091 
L 207.595041 303.872727 
L 212.719008 301.676364 
L 217.842975 299.48 
L 222.966942 297.283636 
L 228.090909 295.087273 
L 233.214876 292.890909 
L 238.338843 290.694545 
L 243.46281 288.498182 
L 248.586777 286.301818 
L 253.710744 284.105455 
L 258.834711 281.909091 
L 263.958678 279.712727 
L 269.082645 277.516364 
L 274.206612 275.32 
L 279.330579 273.123636 
L 284.454545 270.927273 
L 289.578512 268.730909 
L 294.702479 266.534545 
L 299.826446 264.338182 
L 304.950413 262.141818 
L 310.07438 259.945455 
L 315.198347 257.749091 
L 320.322314 255.552727 
L 325.446281 253.356364 
L 330.570248 251.16 
L 335.694215 248.963636 
L 340.818182 246.767273 
L 345.942149 244.570909 
L 351.066116 242.374545 
L 356.190083 240.178182 
L 361.31405 237.981818 
L 366.438017 235.785455 
L 371.561983 233.589091 
L 376.68595 231.392727 
L 381.809917 229.196364 
L 386.933884 227 
L 392.057851 224.803636 
L 397.181818 222.607273 
L 402.305785 220.410909 
L 407.429752 218.214545 
L 412.553719 216.018182 
L 417.677686 213.821818 
L 422.801653 211.625455 
L 427.92562 209.429091 
L 433.049587 207.232727 
L 438.173554 205.036364 
L 443.297521 202.84 
L 448.421488 200.643636 
L 453.545455 198.447273 
L 458.669421 196.250909 
L 463.793388 194.054545 
L 468.917355 191.858182 
L 474.041322 189.661818 
L 479.165289 187.465455 
L 484.289256 185.269091 
L 489.413223 183.072727 
L 494.53719 180.876364 
L 499.661157 178.68 
L 504.785124 176.483636 
L 509.909091 174.287273 
L 515.033058 172.090909 
L 520.157025 169.894545 
L 525.280992 167.698182 
L 530.404959 165.501818 
L 535.528926 163.305455 
L 540.652893 161.109091 
L 545.77686 158.912727 
L 550.900826 156.716364 
L 556.024793 154.52 
L 561.14876 152.323636 
L 566.272727 150.127273 
L 571.396694 147.930909 
L 576.520661 145.734545 
L 581.644628 143.538182 
L 586.768595 141.341818 
L 591.892562 139.145455 
L 597.016529 136.949091 
L 602.140496 134.752727 
L 607.264463 132.556364 
L 612.38843 130.36 
L 617.512397 128.163636 
L 622.636364 125.967273 
" style="fill:none;stroke:#094d92;stroke-linecap:square;stroke-width:1.5;"/>
   </g>
   <g id="line2d_26">
    <path clip-path="url(#pcc852c7482)" d="M 115.363636 290.694545 
L 120.487603 296.374796 
L 125.61157 301.322111 
L 130.735537 305.669752 
L 135.859504 309.520519 
L 140.983471 312.954988 
L 146.107438 316.037203 
L 151.231405 318.818714 
L 156.355372 321.34148 
L 161.479339 323.64 
L 166.603306 325.742901 
L 171.727273 327.674137 
L 176.85124 329.453904 
L 181.975207 331.099348 
L 187.099174 332.625124 
L 192.22314 334.043828 
L 197.347107 335.366348 
L 202.471074 336.602146 
L 207.595041 337.759481 
L 212.719008 338.845594 
L 217.842975 339.866866 
L 222.966942 340.828933 
L 228.090909 341.736799 
L 233.214876 342.594919 
L 238.338843 343.407273 
L 243.46281 344.177426 
L 248.586777 344.908585 
L 253.710744 345.603636 
L 258.834711 346.265192 
L 263.958678 346.895615 
L 269.082645 347.497053 
L 274.206612 348.071461 
L 279.330579 348.620619 
L 284.454545 349.146158 
L 289.578512 349.649569 
L 294.702479 350.132221 
L 299.826446 350.595372 
L 304.950413 351.04018 
L 310.07438 351.467714 
L 315.198347 351.878961 
L 320.322314 352.274834 
L 325.446281 352.65618 
L 330.570248 353.023784 
L 335.694215 353.378375 
L 340.818182 353.720632 
L 345.942149 354.051189 
L 351.066116 354.370634 
L 356.190083 354.679519 
L 361.31405 354.978359 
L 366.438017 355.267636 
L 371.561983 355.547802 
L 376.68595 355.819281 
L 381.809917 356.082471 
L 386.933884 356.337744 
L 392.057851 356.585455 
L 397.181818 356.825932 
L 402.305785 357.05949 
L 407.429752 357.286422 
L 412.553719 357.507006 
L 417.677686 357.721505 
L 422.801653 357.930167 
L 427.92562 358.133228 
L 433.049587 358.330909 
L 438.173554 358.523422 
L 443.297521 358.710968 
L 448.421488 358.893735 
L 453.545455 359.071904 
L 458.669421 359.245647 
L 463.793388 359.415125 
L 468.917355 359.580496 
L 474.041322 359.741905 
L 479.165289 359.899494 
L 484.289256 360.053397 
L 489.413223 360.203741 
L 494.53719 360.350649 
L 499.661157 360.494237 
L 504.785124 360.634617 
L 509.909091 360.771894 
L 515.033058 360.90617 
L 520.157025 361.037543 
L 525.280992 361.166106 
L 530.404959 361.291948 
L 535.528926 361.415155 
L 540.652893 361.535808 
L 545.77686 361.653986 
L 550.900826 361.769765 
L 556.024793 361.883216 
L 561.14876 361.99441 
L 566.272727 362.103412 
L 571.396694 362.210288 
L 576.520661 362.315099 
L 581.644628 362.417903 
L 586.768595 362.518759 
L 591.892562 362.617721 
L 597.016529 362.714841 
L 602.140496 362.810172 
L 607.264463 362.903761 
L 612.38843 362.995656 
L 617.512397 363.085903 
L 622.636364 363.174545 
" style="fill:none;stroke:#68b684;stroke-linecap:square;stroke-width:1.5;"/>
   </g>
   <g id="line2d_27">
    <path clip-path="url(#pcc852c7482)" d="M 115.363636 211.625455 
L 120.487603 215.109342 
L 125.61157 217.860293 
L 130.735537 220.01157 
L 135.859504 221.665974 
L 140.983471 222.904079 
L 146.107438 223.78993 
L 151.231405 224.375078 
L 156.355372 224.70148 
L 161.479339 224.803636 
L 166.603306 224.710174 
L 171.727273 224.445046 
L 176.85124 224.028449 
L 181.975207 223.47753 
L 187.099174 222.806942 
L 192.22314 222.029282 
L 197.347107 221.155439 
L 202.471074 220.194873 
L 207.595041 219.155844 
L 212.719008 218.045594 
L 217.842975 216.870502 
L 222.966942 215.636206 
L 228.090909 214.347708 
L 233.214876 213.009465 
L 238.338843 211.625455 
L 243.46281 210.199244 
L 248.586777 208.734039 
L 253.710744 207.232727 
L 258.834711 205.697919 
L 263.958678 204.131979 
L 269.082645 202.537053 
L 274.206612 200.915097 
L 279.330579 199.267892 
L 284.454545 197.597067 
L 289.578512 195.904115 
L 294.702479 194.190403 
L 299.826446 192.45719 
L 304.950413 190.705635 
L 310.07438 188.936805 
L 315.198347 187.151688 
L 320.322314 185.351198 
L 325.446281 183.53618 
L 330.570248 181.70742 
L 335.694215 179.865648 
L 340.818182 178.011542 
L 345.942149 176.145734 
L 351.066116 174.268816 
L 356.190083 172.381337 
L 361.31405 170.483814 
L 366.438017 168.576727 
L 371.561983 166.66053 
L 376.68595 164.735645 
L 381.809917 162.802471 
L 386.933884 160.861381 
L 392.057851 158.912727 
L 397.181818 156.956841 
L 402.305785 154.994035 
L 407.429752 153.024603 
L 412.553719 151.048824 
L 417.677686 149.066959 
L 422.801653 147.079258 
L 427.92562 145.085955 
L 433.049587 143.087273 
L 438.173554 141.083422 
L 443.297521 139.074604 
L 448.421488 137.061008 
L 453.545455 135.042813 
L 458.669421 133.020192 
L 463.793388 130.993307 
L 468.917355 128.962314 
L 474.041322 126.92736 
L 479.165289 124.888585 
L 484.289256 122.846124 
L 489.413223 120.800105 
L 494.53719 118.750649 
L 499.661157 116.697874 
L 504.785124 114.641889 
L 509.909091 112.582803 
L 515.033058 110.520715 
L 520.157025 108.455725 
L 525.280992 106.387924 
L 530.404959 104.317403 
L 535.528926 102.244246 
L 540.652893 100.168535 
L 545.77686 98.09035 
L 550.900826 96.009765 
L 556.024793 93.926852 
L 561.14876 91.841682 
L 566.272727 89.754322 
L 571.396694 87.664834 
L 576.520661 85.573281 
L 581.644628 83.479722 
L 586.768595 81.384214 
L 591.892562 79.286812 
L 597.016529 77.187569 
L 602.140496 75.086535 
L 607.264463 72.983761 
L 612.38843 70.879292 
L 617.512397 68.773176 
L 622.636364 66.665455 
" style="fill:none;stroke:#1c1018;stroke-linecap:square;stroke-width:1.5;"/>
   </g>
   <g id="patch_3">
    <path d="M 90 378 
L 90 51.84 
" style="fill:none;stroke:#000000;stroke-linecap:square;stroke-linejoin:miter;stroke-width:0.8;"/>
   </g>
   <g id="patch_4">
    <path d="M 648 378 
L 648 51.84 
" style="fill:none;stroke:#000000;stroke-linecap:square;stroke-linejoin:miter;stroke-width:0.8;"/>
   </g>
   <g id="patch_5">
    <path d="M 90 378 
L 648 378 
" style="fill:none;stroke:#000000;stroke-linecap:square;stroke-linejoin:miter;stroke-width:0.8;"/>
   </g>
   <g id="patch_6">
    <path d="M 90 51.84 
L 648 51.84 
" style="fill:none;stroke:#000000;stroke-linecap:square;stroke-linejoin:miter;stroke-width:0.8;"/>
   </g>
   <g id="text_15">
    <!-- Erwartete Werte für $\frac{b}{f}(\beta), \frac{g}{f}(\beta), \frac{e}{f}(\beta)$ -->
    <defs>
     <path d="M 18.296875 33 
L 58 33 
L 58 41.1875 
L 18.296875 41.1875 
L 18.296875 64.796875 
L 59.5 64.796875 
L 59.5 73 
L 9 73 
L 9 0 
L 61.296875 0 
L 61.296875 8.1875 
L 18.296875 8.1875 
z
" id="Nimbus_Sans_L_Regular-69"/>
     <path d="M 6.90625 52 
L 6.90625 0 
L 15.296875 0 
L 15.296875 26.984375 
C 15.296875 34.421875 17.203125 39.28125 21.203125 42.15625 
C 23.796875 44.046875 26.296875 44.640625 32.09375 44.734375 
L 32.09375 53.1875 
C 30.703125 53.890625 30 54 28.90625 54 
C 23.5 54 19.40625 50.796875 14.59375 42.96875 
L 14.59375 52 
z
" id="Nimbus_Sans_L_Regular-114"/>
     <path d="M 55.40625 0 
L 70.796875 52 
L 61.40625 52 
L 51 11.515625 
L 40.703125 52 
L 30.5 52 
L 20.5 11.515625 
L 9.796875 52 
L 0.59375 52 
L 15.796875 0 
L 25.203125 0 
L 35.296875 40.765625 
L 45.90625 0 
z
" id="Nimbus_Sans_L_Regular-119"/>
     <path d="M 53.5 5.1875 
C 52.59375 5 52.203125 5 51.703125 5 
C 48.796875 5 47.203125 6.484375 47.203125 9.078125 
L 47.203125 39.71875 
C 47.203125 48.984375 40.40625 54 27.5 54 
C 19.90625 54 13.59375 51.796875 10.09375 47.890625 
C 7.703125 45.203125 6.703125 42.21875 6.5 37.03125 
L 14.90625 37.03125 
C 15.59375 43.40625 19.40625 46.296875 27.203125 46.296875 
C 34.703125 46.296875 38.90625 43.5 38.90625 38.53125 
L 38.90625 36.34375 
C 38.90625 32.859375 36.796875 31.359375 30.203125 30.5625 
C 18.40625 29.078125 16.59375 28.671875 13.40625 27.390625 
C 7.296875 24.890625 4.203125 20.21875 4.203125 13.453125 
C 4.203125 4 10.796875 -2 21.40625 -2 
C 28 -2 33.296875 0.296875 39.203125 5.6875 
C 39.796875 0.390625 42.40625 -2 47.796875 -2 
C 49.5 -2 50.796875 -1.8125 53.5 -1.109375 
z
M 38.90625 16.734375 
C 38.90625 13.953125 38.09375 12.265625 35.59375 9.96875 
C 32.203125 6.890625 28.09375 5.296875 23.203125 5.296875 
C 16.703125 5.296875 12.90625 8.375 12.90625 13.65625 
C 12.90625 19.125 16.59375 21.90625 25.5 23.203125 
C 34.296875 24.40625 36.09375 24.796875 38.90625 26.09375 
z
" id="Nimbus_Sans_L_Regular-97"/>
     <path d="M 25.40625 52 
L 16.796875 52 
L 16.796875 66.390625 
L 8.5 66.390625 
L 8.5 52 
L 1.40625 52 
L 1.40625 45.1875 
L 8.5 45.1875 
L 8.5 6.28125 
C 8.5 1 12.09375 -2 18.59375 -2 
C 20.59375 -2 22.59375 -1.8125 25.40625 -1.3125 
L 25.40625 5.6875 
C 24.296875 5.390625 23 5.296875 21.40625 5.296875 
C 17.796875 5.296875 16.796875 6.28125 16.796875 9.90625 
L 16.796875 45.1875 
L 25.40625 45.1875 
z
" id="Nimbus_Sans_L_Regular-116"/>
     <path d="M 51.296875 23.1875 
C 51.296875 31.21875 50.703125 36.109375 49.203125 40.078125 
C 45.796875 48.796875 37.796875 54 28 54 
C 13.40625 54 4 42.71875 4 25.296875 
C 4 8.515625 13.09375 -2 27.796875 -2 
C 39.796875 -2 48.09375 4.796875 50.203125 15.90625 
L 41.796875 15.90625 
C 39.5 9.1875 34.796875 5.6875 28.09375 5.6875 
C 22.796875 5.6875 18.296875 8.03125 15.5 12.296875 
C 13.5 15.21875 12.796875 18.140625 12.703125 23.1875 
z
M 12.90625 30 
C 13.59375 39.875 19.5 46.296875 27.90625 46.296875 
C 36.09375 46.296875 42.40625 39.359375 42.40625 30.609375 
C 42.40625 30.40625 42.40625 30.203125 42.296875 30 
z
" id="Nimbus_Sans_L_Regular-101"/>
     <path d="M 74.40625 0 
L 92.90625 73 
L 82.5 73 
L 69.09375 13.703125 
L 52.5 73 
L 42.5 73 
L 26.296875 13.703125 
L 12.59375 73 
L 2.203125 73 
L 20.90625 0 
L 31.09375 0 
L 47.40625 59.96875 
L 64.203125 0 
z
" id="Nimbus_Sans_L_Regular-87"/>
     <path d="M 25.796875 52 
L 17.09375 52 
L 17.09375 60.3125 
C 17.09375 63.859375 19.09375 65.6875 22.90625 65.6875 
C 23.59375 65.6875 23.90625 65.6875 25.796875 65.59375 
L 25.796875 72.484375 
C 23.90625 72.890625 22.796875 73 21.09375 73 
C 13.40625 73 8.796875 68.59375 8.796875 61.015625 
L 8.796875 52 
L 1.796875 52 
L 1.796875 45.1875 
L 8.796875 45.1875 
L 8.796875 0 
L 17.09375 0 
L 17.09375 45.1875 
L 25.796875 45.1875 
z
" id="Nimbus_Sans_L_Regular-102"/>
     <path d="M 13.40625 71.296875 
L 3 71.296875 
L 3 61 
L 13.40625 61 
z
M 29.59375 71.296875 
L 19.203125 71.296875 
L 19.203125 61 
L 29.59375 61 
z
" id="Nimbus_Sans_L_Regular-168"/>
     <path d="M 48.203125 0.296875 
L 48.203125 52 
L 39.90625 52 
L 39.90625 22.71875 
C 39.90625 12.1875 34.296875 5.296875 25.59375 5.296875 
C 19 5.296875 14.796875 9.234375 14.796875 15.4375 
L 14.796875 52 
L 6.5 52 
L 6.5 12.1875 
C 6.5 3.59375 13 -2 23.203125 -2 
C 30.90625 -2 35.796875 0.6875 40.703125 7.5625 
L 40.703125 0.296875 
z
" id="Nimbus_Sans_L_Regular-117"/>
    </defs>
    <g transform="translate(221.508461 42.640261)scale(0.192 -0.192)">
     <use transform="scale(0.996264)" xlink:href="#Nimbus_Sans_L_Regular-69"/>
     <use transform="translate(66.450031 0)scale(0.996264)" xlink:href="#Nimbus_Sans_L_Regular-114"/>
     <use transform="translate(99.625261 0)scale(0.996264)" xlink:href="#Nimbus_Sans_L_Regular-119"/>
     <use transform="translate(170.061853 0)scale(0.996264)" xlink:href="#Nimbus_Sans_L_Regular-97"/>
     <use transform="translate(225.45353 0)scale(0.996264)" xlink:href="#Nimbus_Sans_L_Regular-114"/>
     <use transform="translate(262.612858 0)scale(0.996264)" xlink:href="#Nimbus_Sans_L_Regular-116"/>
     <use transform="translate(290.308028 0)scale(0.996264)" xlink:href="#Nimbus_Sans_L_Regular-101"/>
     <use transform="translate(345.699705 0)scale(0.996264)" xlink:href="#Nimbus_Sans_L_Regular-116"/>
     <use transform="translate(373.394874 0)scale(0.996264)" xlink:href="#Nimbus_Sans_L_Regular-101"/>
     <use transform="translate(456.481721 0)scale(0.996264)" xlink:href="#Nimbus_Sans_L_Regular-87"/>
     <use transform="translate(547.540382 0)scale(0.996264)" xlink:href="#Nimbus_Sans_L_Regular-101"/>
     <use transform="translate(602.932059 0)scale(0.996264)" xlink:href="#Nimbus_Sans_L_Regular-114"/>
     <use transform="translate(640.091387 0)scale(0.996264)" xlink:href="#Nimbus_Sans_L_Regular-116"/>
     <use transform="translate(667.786557 0)scale(0.996264)" xlink:href="#Nimbus_Sans_L_Regular-101"/>
     <use transform="translate(750.873403 0)scale(0.996264)" xlink:href="#Nimbus_Sans_L_Regular-102"/>
     <use transform="translate(789.676804 -0.249309)scale(0.996264)" xlink:href="#Nimbus_Sans_L_Regular-168"/>
     <use transform="translate(778.568573 0)scale(0.996264)" xlink:href="#Nimbus_Sans_L_Regular-117"/>
     <use transform="translate(833.96025 0)scale(0.996264)" xlink:href="#Nimbus_Sans_L_Regular-114"/>
     <use transform="translate(902.061681 39.226102)scale(0.697382)" xlink:href="#CMMI12-98"/>
     <use transform="translate(896.026163 -34.355253)scale(0.697382)" xlink:href="#CMMI12-102"/>
     <use transform="translate(938.3257 0)scale(0.996264)" xlink:href="#CMR17-40"/>
     <use transform="translate(973.606468 0)scale(0.996264)" xlink:href="#CMMI12-12"/>
     <use transform="translate(1034.200484 0)scale(0.996264)" xlink:href="#CMR17-41"/>
     <use transform="translate(1069.481251 0)scale(0.996264)" xlink:href="#CMMI12-59"/>
     <use transform="translate(1117.330518 44.444174)scale(0.697382)" xlink:href="#CMMI12-103"/>
     <use transform="translate(1114.378347 -34.355253)scale(0.697382)" xlink:href="#CMMI12-102"/>
     <use transform="translate(1156.677885 0)scale(0.996264)" xlink:href="#CMR17-40"/>
     <use transform="translate(1191.958652 0)scale(0.996264)" xlink:href="#CMMI12-12"/>
     <use transform="translate(1252.552668 0)scale(0.996264)" xlink:href="#CMR17-41"/>
     <use transform="translate(1287.833436 0)scale(0.996264)" xlink:href="#CMMI12-59"/>
     <use transform="translate(1337.458423 39.226102)scale(0.697382)" xlink:href="#CMMI12-101"/>
     <use transform="translate(1332.730532 -34.355253)scale(0.697382)" xlink:href="#CMMI12-102"/>
     <use transform="translate(1375.030069 0)scale(0.996264)" xlink:href="#CMR17-40"/>
     <use transform="translate(1410.310837 0)scale(0.996264)" xlink:href="#CMMI12-12"/>
     <use transform="translate(1470.904853 0)scale(0.996264)" xlink:href="#CMR17-41"/>
     <path d="M 896.026163 22.914133 
L 937.130186 22.914133 
L 937.130186 26.899083 
L 896.026163 26.899083 
L 896.026163 22.914133 
z
"/>
     <path d="M 1114.378347 22.914133 
L 1155.482371 22.914133 
L 1155.482371 26.899083 
L 1114.378347 26.899083 
L 1114.378347 22.914133 
z
"/>
     <path d="M 1332.730532 22.914133 
L 1373.834555 22.914133 
L 1373.834555 26.899083 
L 1332.730532 26.899083 
L 1332.730532 22.914133 
z
"/>
    </g>
   </g>
   <g id="legend_1">
    <g id="patch_7">
     <path d="M 101.2 149.574612 
L 244.499071 149.574612 
Q 247.699071 149.574612 247.699071 146.374612 
L 247.699071 63.04 
Q 247.699071 59.84 244.499071 59.84 
L 101.2 59.84 
Q 98 59.84 98 63.04 
L 98 146.374612 
Q 98 149.574612 101.2 149.574612 
z
" style="fill:#ffffff;opacity:0.8;stroke:#cccccc;stroke-linejoin:miter;"/>
    </g>
    <g id="line2d_28">
     <path d="M 104.4 74.66486 
L 136.4 74.66486 
" style="fill:none;stroke:#094d92;stroke-linecap:square;stroke-width:1.5;"/>
    </g>
    <g id="line2d_29"/>
    <g id="text_16">
     <!-- $\frac{b}{f}(\beta)$ erwartet -->
     <g transform="translate(149.2 80.26486)scale(0.16 -0.16)">
      <use transform="translate(6.035518 39.226102)scale(0.697382)" xlink:href="#CMMI12-98"/>
      <use transform="translate(0 -34.355253)scale(0.697382)" xlink:href="#CMMI12-102"/>
      <use transform="translate(42.299537 0)scale(0.996264)" xlink:href="#CMR17-40"/>
      <use transform="translate(77.580305 0)scale(0.996264)" xlink:href="#CMMI12-12"/>
      <use transform="translate(138.174321 0)scale(0.996264)" xlink:href="#CMR17-41"/>
      <use transform="translate(201.150258 0)scale(0.996264)" xlink:href="#Nimbus_Sans_L_Regular-101"/>
      <use transform="translate(256.541935 0)scale(0.996264)" xlink:href="#Nimbus_Sans_L_Regular-114"/>
      <use transform="translate(289.717165 0)scale(0.996264)" xlink:href="#Nimbus_Sans_L_Regular-119"/>
      <use transform="translate(360.153757 0)scale(0.996264)" xlink:href="#Nimbus_Sans_L_Regular-97"/>
      <use transform="translate(415.545434 0)scale(0.996264)" xlink:href="#Nimbus_Sans_L_Regular-114"/>
      <use transform="translate(452.704762 0)scale(0.996264)" xlink:href="#Nimbus_Sans_L_Regular-116"/>
      <use transform="translate(480.399932 0)scale(0.996264)" xlink:href="#Nimbus_Sans_L_Regular-101"/>
      <use transform="translate(535.791608 0)scale(0.996264)" xlink:href="#Nimbus_Sans_L_Regular-116"/>
      <path d="M 0 22.914133 
L 41.104023 22.914133 
L 41.104023 26.899083 
L 0 26.899083 
L 0 22.914133 
z
"/>
     </g>
    </g>
    <g id="line2d_30">
     <path d="M 104.4 102.2865 
L 136.4 102.2865 
" style="fill:none;stroke:#68b684;stroke-linecap:square;stroke-width:1.5;"/>
    </g>
    <g id="line2d_31"/>
    <g id="text_17">
     <!-- $\frac{g}{f}(\beta)$ erwartet -->
     <g transform="translate(149.2 107.8865)scale(0.16 -0.16)">
      <use transform="translate(2.952171 44.444174)scale(0.697382)" xlink:href="#CMMI12-103"/>
      <use transform="translate(0 -34.355253)scale(0.697382)" xlink:href="#CMMI12-102"/>
      <use transform="translate(42.299537 0)scale(0.996264)" xlink:href="#CMR17-40"/>
      <use transform="translate(77.580305 0)scale(0.996264)" xlink:href="#CMMI12-12"/>
      <use transform="translate(138.174321 0)scale(0.996264)" xlink:href="#CMR17-41"/>
      <use transform="translate(201.150258 0)scale(0.996264)" xlink:href="#Nimbus_Sans_L_Regular-101"/>
      <use transform="translate(256.541935 0)scale(0.996264)" xlink:href="#Nimbus_Sans_L_Regular-114"/>
      <use transform="translate(289.717165 0)scale(0.996264)" xlink:href="#Nimbus_Sans_L_Regular-119"/>
      <use transform="translate(360.153757 0)scale(0.996264)" xlink:href="#Nimbus_Sans_L_Regular-97"/>
      <use transform="translate(415.545434 0)scale(0.996264)" xlink:href="#Nimbus_Sans_L_Regular-114"/>
      <use transform="translate(452.704762 0)scale(0.996264)" xlink:href="#Nimbus_Sans_L_Regular-116"/>
      <use transform="translate(480.399932 0)scale(0.996264)" xlink:href="#Nimbus_Sans_L_Regular-101"/>
      <use transform="translate(535.791608 0)scale(0.996264)" xlink:href="#Nimbus_Sans_L_Regular-116"/>
      <path d="M 0 22.914133 
L 41.104023 22.914133 
L 41.104023 26.899083 
L 0 26.899083 
L 0 22.914133 
z
"/>
     </g>
    </g>
    <g id="line2d_32">
     <path d="M 104.4 129.90814 
L 136.4 129.90814 
" style="fill:none;stroke:#1c1018;stroke-linecap:square;stroke-width:1.5;"/>
    </g>
    <g id="line2d_33"/>
    <g id="text_18">
     <!-- $\frac{e}{f}(\beta)$ erwartet -->
     <g transform="translate(149.2 135.50814)scale(0.16 -0.16)">
      <use transform="translate(4.727891 39.226102)scale(0.697382)" xlink:href="#CMMI12-101"/>
      <use transform="translate(0 -34.355253)scale(0.697382)" xlink:href="#CMMI12-102"/>
      <use transform="translate(42.299537 0)scale(0.996264)" xlink:href="#CMR17-40"/>
      <use transform="translate(77.580305 0)scale(0.996264)" xlink:href="#CMMI12-12"/>
      <use transform="translate(138.174321 0)scale(0.996264)" xlink:href="#CMR17-41"/>
      <use transform="translate(201.150258 0)scale(0.996264)" xlink:href="#Nimbus_Sans_L_Regular-101"/>
      <use transform="translate(256.541935 0)scale(0.996264)" xlink:href="#Nimbus_Sans_L_Regular-114"/>
      <use transform="translate(289.717165 0)scale(0.996264)" xlink:href="#Nimbus_Sans_L_Regular-119"/>
      <use transform="translate(360.153757 0)scale(0.996264)" xlink:href="#Nimbus_Sans_L_Regular-97"/>
      <use transform="translate(415.545434 0)scale(0.996264)" xlink:href="#Nimbus_Sans_L_Regular-114"/>
      <use transform="translate(452.704762 0)scale(0.996264)" xlink:href="#Nimbus_Sans_L_Regular-116"/>
      <use transform="translate(480.399932 0)scale(0.996264)" xlink:href="#Nimbus_Sans_L_Regular-101"/>
      <use transform="translate(535.791608 0)scale(0.996264)" xlink:href="#Nimbus_Sans_L_Regular-116"/>
      <path d="M 0 22.914133 
L 41.104023 22.914133 
L 41.104023 26.899083 
L 0 26.899083 
L 0 22.914133 
z
"/>
     </g>
    </g>
   </g>
  </g>
 </g>
 <defs>
  <clipPath id="pcc852c7482">
   <rect height="326.16" width="558" x="90" y="51.84"/>
  </clipPath>
 </defs>
</svg>
