<?xml version="1.0" encoding="utf-8" standalone="no"?>
<!DOCTYPE svg PUBLIC "-//W3C//DTD SVG 1.1//EN"
  "http://www.w3.org/Graphics/SVG/1.1/DTD/svg11.dtd">
<!-- Created with matplotlib (https://matplotlib.org/) -->
<svg height="720pt" version="1.1" viewBox="0 0 864 720" width="864pt" xmlns="http://www.w3.org/2000/svg" xmlns:xlink="http://www.w3.org/1999/xlink">
 <defs>
  <style type="text/css">
*{stroke-linecap:butt;stroke-linejoin:round;}
  </style>
 </defs>
 <g id="figure_1">
  <g id="patch_1">
   <path d="M 0 720 
L 864 720 
L 864 0 
L 0 0 
z
" style="fill:#ffffff;"/>
  </g>
  <g id="axes_1">
   <g id="patch_2">
    <path d="M 108 333.490909 
L 777.6 333.490909 
L 777.6 86.4 
L 108 86.4 
z
" style="fill:#ffffff;"/>
   </g>
   <g id="matplotlib.axis_1">
    <g id="xtick_1">
     <g id="line2d_1">
      <path clip-path="url(#pb01dee0d07)" d="M 122.016978 333.490909 
L 122.016978 86.4 
" style="fill:none;stroke:#b0b0b0;stroke-linecap:square;stroke-width:0.8;"/>
     </g>
     <g id="line2d_2">
      <defs>
       <path d="M 0 0 
L 0 3.5 
" id="m799994e6f0" style="stroke:#000000;stroke-width:0.8;"/>
      </defs>
      <g>
       <use style="stroke:#000000;stroke-width:0.8;" x="122.016978" xlink:href="#m799994e6f0" y="333.490909"/>
      </g>
     </g>
    </g>
    <g id="xtick_2">
     <g id="line2d_3">
      <path clip-path="url(#pb01dee0d07)" d="M 225.553382 333.490909 
L 225.553382 86.4 
" style="fill:none;stroke:#b0b0b0;stroke-linecap:square;stroke-width:0.8;"/>
     </g>
     <g id="line2d_4">
      <g>
       <use style="stroke:#000000;stroke-width:0.8;" x="225.553382" xlink:href="#m799994e6f0" y="333.490909"/>
      </g>
     </g>
    </g>
    <g id="xtick_3">
     <g id="line2d_5">
      <path clip-path="url(#pb01dee0d07)" d="M 329.089786 333.490909 
L 329.089786 86.4 
" style="fill:none;stroke:#b0b0b0;stroke-linecap:square;stroke-width:0.8;"/>
     </g>
     <g id="line2d_6">
      <g>
       <use style="stroke:#000000;stroke-width:0.8;" x="329.089786" xlink:href="#m799994e6f0" y="333.490909"/>
      </g>
     </g>
    </g>
    <g id="xtick_4">
     <g id="line2d_7">
      <path clip-path="url(#pb01dee0d07)" d="M 432.626191 333.490909 
L 432.626191 86.4 
" style="fill:none;stroke:#b0b0b0;stroke-linecap:square;stroke-width:0.8;"/>
     </g>
     <g id="line2d_8">
      <g>
       <use style="stroke:#000000;stroke-width:0.8;" x="432.626191" xlink:href="#m799994e6f0" y="333.490909"/>
      </g>
     </g>
    </g>
    <g id="xtick_5">
     <g id="line2d_9">
      <path clip-path="url(#pb01dee0d07)" d="M 536.162595 333.490909 
L 536.162595 86.4 
" style="fill:none;stroke:#b0b0b0;stroke-linecap:square;stroke-width:0.8;"/>
     </g>
     <g id="line2d_10">
      <g>
       <use style="stroke:#000000;stroke-width:0.8;" x="536.162595" xlink:href="#m799994e6f0" y="333.490909"/>
      </g>
     </g>
    </g>
    <g id="xtick_6">
     <g id="line2d_11">
      <path clip-path="url(#pb01dee0d07)" d="M 639.698999 333.490909 
L 639.698999 86.4 
" style="fill:none;stroke:#b0b0b0;stroke-linecap:square;stroke-width:0.8;"/>
     </g>
     <g id="line2d_12">
      <g>
       <use style="stroke:#000000;stroke-width:0.8;" x="639.698999" xlink:href="#m799994e6f0" y="333.490909"/>
      </g>
     </g>
    </g>
    <g id="xtick_7">
     <g id="line2d_13">
      <path clip-path="url(#pb01dee0d07)" d="M 743.235404 333.490909 
L 743.235404 86.4 
" style="fill:none;stroke:#b0b0b0;stroke-linecap:square;stroke-width:0.8;"/>
     </g>
     <g id="line2d_14">
      <g>
       <use style="stroke:#000000;stroke-width:0.8;" x="743.235404" xlink:href="#m799994e6f0" y="333.490909"/>
      </g>
     </g>
    </g>
   </g>
   <g id="matplotlib.axis_2">
    <g id="ytick_1">
     <g id="line2d_15">
      <path clip-path="url(#pb01dee0d07)" d="M 108 286.60425 
L 777.6 286.60425 
" style="fill:none;stroke:#b0b0b0;stroke-linecap:square;stroke-width:0.8;"/>
     </g>
     <g id="line2d_16">
      <defs>
       <path d="M 0 0 
L -3.5 0 
" id="m80b3e954e9" style="stroke:#000000;stroke-width:0.8;"/>
      </defs>
      <g>
       <use style="stroke:#000000;stroke-width:0.8;" x="108" xlink:href="#m80b3e954e9" y="286.60425"/>
      </g>
     </g>
     <g id="text_1">
      <!-- $\mathdefault{2}$ -->
      <defs>
       <path d="M 41.703125 15.46875 
L 39.90625 15.46875 
C 38.90625 8.390625 38.09375 7.1875 37.703125 6.59375 
C 37.203125 5.796875 30 5.796875 28.59375 5.796875 
L 9.40625 5.796875 
C 13 9.6875 20 16.765625 28.5 24.9375 
C 34.59375 30.71875 41.703125 37.5 41.703125 47.390625 
C 41.703125 59.1875 32.296875 66 21.796875 66 
C 10.796875 66 4.09375 56.296875 4.09375 47.296875 
C 4.09375 43.390625 7 42.890625 8.203125 42.890625 
C 9.203125 42.890625 12.203125 43.484375 12.203125 46.984375 
C 12.203125 50.09375 9.59375 51 8.203125 51 
C 7.59375 51 7 50.890625 6.59375 50.6875 
C 8.5 59.1875 14.296875 63.390625 20.40625 63.390625 
C 29.09375 63.390625 34.796875 56.5 34.796875 47.390625 
C 34.796875 38.703125 29.703125 31.21875 24 24.734375 
L 4.09375 2.296875 
L 4.09375 0 
L 39.296875 0 
z
" id="CMR17-50"/>
      </defs>
      <g transform="translate(92.775714 292.992739)scale(0.18 -0.18)">
       <use transform="scale(0.996264)" xlink:href="#CMR17-50"/>
      </g>
     </g>
    </g>
    <g id="ytick_2">
     <g id="line2d_17">
      <path clip-path="url(#pb01dee0d07)" d="M 108 236.686895 
L 777.6 236.686895 
" style="fill:none;stroke:#b0b0b0;stroke-linecap:square;stroke-width:0.8;"/>
     </g>
     <g id="line2d_18">
      <g>
       <use style="stroke:#000000;stroke-width:0.8;" x="108" xlink:href="#m80b3e954e9" y="236.686895"/>
      </g>
     </g>
     <g id="text_2">
      <!-- $\mathdefault{3}$ -->
      <defs>
       <path d="M 22.09375 34 
C 31 34 34.90625 26.140625 34.90625 17.09375 
C 34.90625 5.03125 28.5 0.390625 22.703125 0.390625 
C 17.40625 0.390625 8.796875 3.015625 6.09375 10.796875 
C 6.59375 10.59375 7.09375 10.59375 7.59375 10.59375 
C 10 10.59375 11.796875 12.1875 11.796875 14.796875 
C 11.796875 17.6875 9.59375 19 7.59375 19 
C 5.90625 19 3.296875 18.1875 3.296875 14.484375 
C 3.296875 5.234375 12.296875 -2 22.90625 -2 
C 34 -2 42.5 6.75 42.5 16.984375 
C 42.5 26.84375 34.5 34 25 35.09375 
C 32.59375 36.671875 39.90625 43.375 39.90625 52.390625 
C 39.90625 60.25 32 66 23 66 
C 13.90625 66 5.90625 60.34375 5.90625 52.296875 
C 5.90625 48.796875 8.5 48.1875 9.796875 48.1875 
C 11.90625 48.1875 13.703125 49.484375 13.703125 52.09375 
C 13.703125 54.6875 11.90625 56 9.796875 56 
C 9.40625 56 8.90625 56 8.5 55.796875 
C 11.40625 62.484375 19.296875 63.6875 22.796875 63.6875 
C 26.296875 63.6875 32.90625 61.96875 32.90625 52.296875 
C 32.90625 49.484375 32.5 44.546875 29.09375 40.21875 
C 26.09375 36.390625 22.703125 36.1875 19.40625 35.890625 
C 18.90625 35.890625 16.59375 35.6875 16.203125 35.6875 
C 15.5 35.59375 15.09375 35.5 15.09375 34.796875 
C 15.09375 34.09375 15.203125 34 17.203125 34 
z
" id="CMR17-51"/>
      </defs>
      <g transform="translate(92.775714 243.075383)scale(0.18 -0.18)">
       <use transform="scale(0.996264)" xlink:href="#CMR17-51"/>
      </g>
     </g>
    </g>
    <g id="ytick_3">
     <g id="line2d_19">
      <path clip-path="url(#pb01dee0d07)" d="M 108 186.76954 
L 777.6 186.76954 
" style="fill:none;stroke:#b0b0b0;stroke-linecap:square;stroke-width:0.8;"/>
     </g>
     <g id="line2d_20">
      <g>
       <use style="stroke:#000000;stroke-width:0.8;" x="108" xlink:href="#m80b3e954e9" y="186.76954"/>
      </g>
     </g>
     <g id="text_3">
      <!-- $\mathdefault{4}$ -->
      <defs>
       <path d="M 33.59375 64.796875 
C 33.59375 66.890625 33.5 67 31.703125 67 
L 2 19.59375 
L 2 17 
L 27.796875 17 
L 27.796875 7.1875 
C 27.796875 3.59375 27.59375 2.59375 20.59375 2.59375 
L 18.703125 2.59375 
L 18.703125 0 
C 21.90625 0.1875 27.296875 0.1875 30.703125 0.1875 
C 34.09375 0.1875 39.5 0.1875 42.703125 0 
L 42.703125 2.59375 
L 40.796875 2.59375 
C 33.796875 2.59375 33.59375 3.59375 33.59375 7.1875 
L 33.59375 17 
L 43.796875 17 
L 43.796875 19.59375 
L 33.59375 19.59375 
z
M 28.09375 58.171875 
L 28.09375 19.59375 
L 4 19.59375 
z
" id="CMR17-52"/>
      </defs>
      <g transform="translate(92.775714 193.158028)scale(0.18 -0.18)">
       <use transform="scale(0.996264)" xlink:href="#CMR17-52"/>
      </g>
     </g>
    </g>
    <g id="ytick_4">
     <g id="line2d_21">
      <path clip-path="url(#pb01dee0d07)" d="M 108 136.852184 
L 777.6 136.852184 
" style="fill:none;stroke:#b0b0b0;stroke-linecap:square;stroke-width:0.8;"/>
     </g>
     <g id="line2d_22">
      <g>
       <use style="stroke:#000000;stroke-width:0.8;" x="108" xlink:href="#m80b3e954e9" y="136.852184"/>
      </g>
     </g>
     <g id="text_4">
      <!-- $\mathdefault{5}$ -->
      <defs>
       <path d="M 11.40625 58.59375 
C 12.40625 58.1875 16.5 56.890625 20.703125 56.890625 
C 30 56.890625 35.09375 61.890625 38 64.6875 
C 38 65.484375 38 66 37.40625 66 
C 37.296875 66 37.09375 66 36.296875 65.59375 
C 32.796875 64.09375 28.703125 63 23.703125 63 
C 20.703125 63 16.203125 63.359375 11.296875 65.484375 
C 10.203125 66 10 66 9.90625 66 
C 9.40625 66 9.296875 65.890625 9.296875 63.90625 
L 9.296875 34.859375 
C 9.296875 33.015625 9.296875 32.5 10.296875 32.5 
C 10.796875 32.5 11 32.703125 11.5 33.421875 
C 14.703125 38.046875 19.09375 40 24.09375 40 
C 27.59375 40 35.09375 37.734375 35.09375 20.203125 
C 35.09375 16.984375 35.09375 11.1875 32.09375 6.59375 
C 29.59375 2.484375 25.703125 0.390625 21.40625 0.390625 
C 14.796875 0.390625 8.09375 4.984375 6.296875 12.6875 
C 6.703125 12.59375 7.5 12.390625 7.90625 12.390625 
C 9.203125 12.390625 11.703125 13.09375 11.703125 16.1875 
C 11.703125 18.890625 9.796875 20 7.90625 20 
C 5.59375 20 4.09375 18.59375 4.09375 15.796875 
C 4.09375 7.09375 11 -2 21.59375 -2 
C 31.90625 -2 41.703125 6.890625 41.703125 19.796875 
C 41.703125 32.09375 33.90625 41.59375 24.203125 41.59375 
C 19.09375 41.59375 14.796875 39.6875 11.40625 36 
z
" id="CMR17-53"/>
      </defs>
      <g transform="translate(92.775714 143.240672)scale(0.18 -0.18)">
       <use transform="scale(0.996264)" xlink:href="#CMR17-53"/>
      </g>
     </g>
    </g>
    <g id="ytick_5">
     <g id="line2d_23">
      <path clip-path="url(#pb01dee0d07)" d="M 108 86.934829 
L 777.6 86.934829 
" style="fill:none;stroke:#b0b0b0;stroke-linecap:square;stroke-width:0.8;"/>
     </g>
     <g id="line2d_24">
      <g>
       <use style="stroke:#000000;stroke-width:0.8;" x="108" xlink:href="#m80b3e954e9" y="86.934829"/>
      </g>
     </g>
     <g id="text_5">
      <!-- $\mathdefault{6}$ -->
      <defs>
       <path d="M 10.59375 34.34375 
C 10.59375 58 21.796875 63.6875 28.296875 63.6875 
C 30.40625 63.6875 35.5 63.265625 37.5 59.09375 
C 35.90625 59.09375 32.90625 59.09375 32.90625 55.59375 
C 32.90625 52.890625 35.09375 52 36.5 52 
C 37.40625 52 40.09375 52.390625 40.09375 55.796875 
C 40.09375 62.296875 35.09375 66 28.203125 66 
C 16.296875 66 3.796875 53.296875 3.796875 31.421875 
C 3.796875 4.015625 15.09375 -2 23.09375 -2 
C 32.796875 -2 42 6.734375 42 20.234375 
C 42 32.828125 33.90625 42 23.703125 42 
C 17.59375 42 13.09375 37.96875 10.59375 30.921875 
z
M 23.09375 0.390625 
C 10.796875 0.390625 10.796875 18.9375 10.796875 22.65625 
C 10.796875 29.90625 14.203125 40.390625 23.5 40.390625 
C 25.203125 40.390625 30.09375 40.390625 33.40625 33.4375 
C 35.203125 29.515625 35.203125 25.375 35.203125 20.34375 
C 35.203125 14.90625 35.203125 10.875 33.09375 6.84375 
C 30.90625 2.703125 27.703125 0.390625 23.09375 0.390625 
z
" id="CMR17-54"/>
      </defs>
      <g transform="translate(92.775714 93.323317)scale(0.18 -0.18)">
       <use transform="scale(0.996264)" xlink:href="#CMR17-54"/>
      </g>
     </g>
    </g>
    <g id="text_6">
     <!-- $\frac{b}{f}(\beta), \frac{g}{f}(\beta), \frac{e}{f}(\beta)$ -->
     <defs>
      <path d="M 23.09375 66.484375 
C 23.203125 66.890625 23.40625 67.484375 23.40625 67.984375 
C 23.40625 69 22.40625 69 22.203125 69 
C 22.09375 69 18.5 68.6875 16.703125 68.484375 
C 15 68.390625 13.5 68.1875 11.703125 68.09375 
C 9.296875 67.890625 8.59375 67.796875 8.59375 65.984375 
C 8.59375 64.984375 9.59375 64.984375 10.59375 64.984375 
C 15.703125 64.984375 15.703125 64.109375 15.703125 63.125 
C 15.703125 62.421875 14.90625 59.5625 14.5 57.796875 
L 12.09375 48.328125 
C 11.09375 44.390625 5.40625 21.75 5 19.953125 
C 4.5 17.453125 4.5 15.75 4.5 14.453125 
C 4.5 4.28125 10.203125 -1 16.703125 -1 
C 28.296875 -1 40.296875 13.859375 40.296875 28.328125 
C 40.296875 37.5 35.09375 44 27.59375 44 
C 22.40625 44 17.703125 39.703125 15.796875 37.703125 
z
M 16.796875 1 
C 13.59375 1 10.09375 3.390625 10.09375 11.171875 
C 10.09375 14.453125 10.40625 16.359375 12.203125 23.34375 
C 12.5 24.640625 14.09375 31.015625 14.5 32.3125 
C 14.703125 33.109375 20.59375 41.984375 27.40625 41.984375 
C 31.796875 41.984375 33.796875 37.609375 33.796875 32.421875 
C 33.796875 27.625 31 16.359375 28.5 11.171875 
C 26 5.78125 21.40625 1 16.796875 1 
z
" id="CMMI12-98"/>
      <path d="M 44.59375 40.09375 
C 46.59375 40.09375 47.40625 40.09375 47.40625 41.984375 
C 47.40625 43 46.59375 43 44.796875 43 
L 36.703125 43 
C 38.59375 53.09375 40 60.09375 40.796875 63.296875 
C 41.40625 65.6875 43.5 67.984375 46.09375 67.984375 
C 48.203125 67.984375 50.296875 67.09375 51.296875 66.1875 
C 47.40625 65.796875 46.203125 62.890625 46.203125 61.1875 
C 46.203125 59.1875 47.703125 58 49.59375 58 
C 51.59375 58 54.59375 59.6875 54.59375 63.5 
C 54.59375 67.6875 50.40625 70 46 70 
C 41.703125 70 37.5 66.796875 35.5 62.890625 
C 33.703125 59.390625 32.703125 55.828125 30.40625 43 
L 23.703125 43 
C 21.796875 43 20.796875 43 20.796875 41.1875 
C 20.796875 40.09375 21.40625 40.09375 23.40625 40.09375 
L 29.796875 40.09375 
C 28 30.890625 23.90625 8.515625 21.59375 -2.0625 
C 19.90625 -10.703125 18.40625 -18 13.40625 -18 
C 13.09375 -18 10.203125 -18 8.40625 -16.109375 
C 13.5 -15.703125 13.5 -11.3125 13.5 -11.203125 
C 13.5 -9.203125 12 -8 10.09375 -8 
C 8.09375 -8 5.09375 -9.703125 5.09375 -13.515625 
C 5.09375 -17.8125 9.5 -20 13.40625 -20 
C 23.59375 -20 27.796875 -1.765625 28.90625 3.171875 
C 30.703125 10.796875 35.59375 37.125 36.09375 40.09375 
z
" id="CMMI12-102"/>
      <path d="M 30.59375 -24.40625 
C 30.59375 -24.3125 30.59375 -24.109375 30.296875 -23.8125 
C 25.703125 -19.109375 13.40625 -6.296875 13.40625 24.9375 
C 13.40625 56.171875 25.5 68.875 30.40625 73.890625 
C 30.40625 73.984375 30.59375 74.1875 30.59375 74.484375 
C 30.59375 74.796875 30.296875 75 29.90625 75 
C 28.796875 75 20.296875 67.578125 15.40625 56.5625 
C 10.40625 45.453125 9 34.65625 9 25.046875 
C 9 17.828125 9.703125 5.625 15.703125 -7.296875 
C 20.5 -17.703125 28.703125 -25 29.90625 -25 
C 30.40625 -25 30.59375 -24.8125 30.59375 -24.40625 
z
" id="CMR17-40"/>
      <path d="M 56.59375 58.421875 
C 56.59375 64.546875 51.5 71 42.40625 71 
C 29.5 71 21.296875 54.84375 18.703125 44.21875 
L 2.90625 -18 
C 2.703125 -18.8125 3.296875 -19 3.796875 -19 
C 4.5 -19 5 -18.90625 5.09375 -18.40625 
L 12.09375 9.25 
C 13.09375 3.609375 18.59375 -1 24.5 -1 
C 38.796875 -1 52.296875 10.265625 52.296875 25.28125 
C 52.296875 29.109375 51.40625 32.9375 49.296875 36.15625 
C 48.09375 38.078125 46.59375 39.484375 45 40.609375 
C 52.203125 44.109375 56.59375 50.34375 56.59375 58.421875 
z
M 39.203125 40.703125 
C 37.59375 40.171875 36 40 34.09375 40 
C 32.703125 40 31.40625 39.890625 29.59375 40.4375 
C 30.59375 41.046875 32.09375 41.234375 34.203125 41.234375 
C 36 41.234375 37.796875 41.046875 39.203125 40.703125 
z
M 51.40625 59.34375 
C 51.40625 53.71875 48.703125 45.546875 42.203125 41.9375 
C 40.296875 42.546875 37.703125 43 35.5 43 
C 33.40625 43 27.40625 43.203125 27.40625 40.34375 
C 27.40625 37.671875 32.90625 37.96875 34.59375 37.96875 
C 37.203125 37.96875 39.5 38.578125 41.90625 39.28125 
C 45.09375 36.671875 46.5 33.234375 46.5 28.203125 
C 46.5 22.359375 44.90625 17.625 43 13.28125 
C 39.703125 5.828125 31.90625 1 25 1 
C 17.703125 1 13.90625 6.84375 13.90625 13.6875 
C 13.90625 14.59375 13.90625 15.90625 14.296875 17.421875 
L 20.796875 43.5 
C 24.09375 56.890625 32.5 68.953125 42.203125 68.953125 
C 49.40625 68.953125 51.40625 63.84375 51.40625 59.34375 
z
" id="CMMI12-12"/>
      <path d="M 26.296875 24.9375 
C 26.296875 32.140625 25.59375 44.359375 19.59375 57.265625 
C 14.796875 67.6875 6.59375 75 5.40625 75 
C 5.09375 75 4.703125 74.890625 4.703125 74.390625 
C 4.703125 74.1875 4.796875 74.09375 4.90625 73.890625 
C 9.703125 68.875 21.90625 56.171875 21.90625 25.046875 
C 21.90625 -6.1875 9.796875 -18.90625 4.90625 -23.90625 
C 4.796875 -24.109375 4.703125 -24.203125 4.703125 -24.40625 
C 4.703125 -24.90625 5.09375 -25 5.40625 -25 
C 6.5 -25 15 -17.609375 19.90625 -6.59375 
C 24.90625 4.515625 26.296875 15.328125 26.296875 24.9375 
z
" id="CMR17-41"/>
      <path d="M 19.5 -0.40625 
C 19.5 5.390625 17.59375 9.6875 13.5 9.6875 
C 10.296875 9.6875 8.703125 7.09375 8.703125 4.890625 
C 8.703125 2.6875 10.203125 0 13.59375 0 
C 14.90625 0 16 0.390625 16.90625 1.296875 
C 17.09375 1.5 17.203125 1.5 17.296875 1.5 
C 17.5 1.5 17.5 0.09375 17.5 -0.40625 
C 17.5 -3.640625 16.90625 -10.03125 11.09375 -16.421875 
C 10 -17.609375 10 -17.8125 10 -18 
C 10 -18.5 10.5 -19 11 -19 
C 11.796875 -19 19.5 -11.703125 19.5 -0.40625 
z
" id="CMMI12-59"/>
      <path d="M 33.796875 12.671875 
C 33.40625 11.0625 33.203125 10.671875 31.90625 9.171875 
C 27.796875 3.890625 23.59375 2 20.5 2 
C 17.203125 2 14.09375 4.578125 14.09375 11.46875 
C 14.09375 16.75 17.09375 27.921875 19.296875 32.421875 
C 22.203125 38 26.703125 41.984375 30.90625 41.984375 
C 37.5 41.984375 38.796875 33.8125 38.796875 33.21875 
L 38.5 31.8125 
z
M 40 37.40625 
C 38.703125 40.296875 35.90625 44 30.90625 44 
C 20 44 7.59375 30.328125 7.59375 15.453125 
C 7.59375 5.078125 13.90625 0 20.296875 0 
C 25.59375 0 30.296875 4.1875 32.09375 6.1875 
L 29.90625 -2.75 
C 28.5 -8.125 27.90625 -10.578125 24.296875 -14 
C 20.203125 -18 16.40625 -18 14.203125 -18 
C 11.203125 -18 8.703125 -17.8125 6.203125 -17.03125 
C 9.40625 -16.15625 10.203125 -13.40625 10.203125 -12.328125 
C 10.203125 -10.765625 9 -9.203125 6.796875 -9.203125 
C 4.40625 -9.203125 1.796875 -11.15625 1.796875 -14.390625 
C 1.796875 -18.40625 5.90625 -20 14.40625 -20 
C 27.296875 -20 34 -11.84375 35.296875 -6.5625 
L 46.40625 37.90625 
C 46.703125 39.09375 46.703125 39.296875 46.703125 39.5 
C 46.703125 40.890625 45.59375 42 44.09375 42 
C 41.703125 42 40.296875 40 40 37.3125 
z
" id="CMMI12-103"/>
      <path d="M 17.90625 23 
C 20.59375 23 27.40625 23.1875 32.203125 25 
C 39.796875 27.90625 40.5 33.75 40.5 35.546875 
C 40.5 39.984375 36.703125 44 30.09375 44 
C 19.59375 44 4.5 34.453125 4.5 16.65625 
C 4.5 6.25 10.5 -1 19.59375 -1 
C 33.203125 -1 41.796875 9.515625 41.796875 10.796875 
C 41.796875 11.390625 41.203125 11.890625 40.796875 11.890625 
C 40.5 11.890625 40.40625 11.796875 39.5 10.90625 
C 33.09375 2.484375 23.59375 1 19.796875 1 
C 14.09375 1 11.09375 5.453125 11.09375 12.78125 
C 11.09375 14.171875 11.09375 16.65625 12.59375 23 
z
M 13.09375 25 
C 17.40625 40.484375 26.90625 41.984375 30.09375 41.984375 
C 34.5 41.984375 37.5 39.375 37.5 35.546875 
C 37.5 25 21.5 25 17.296875 25 
z
" id="CMMI12-101"/>
     </defs>
     <g transform="translate(80.150952 267.310543)rotate(-90)scale(0.18 -0.18)">
      <use transform="translate(6.035518 39.226102)scale(0.697382)" xlink:href="#CMMI12-98"/>
      <use transform="translate(0 -34.355253)scale(0.697382)" xlink:href="#CMMI12-102"/>
      <use transform="translate(42.299537 0)scale(0.996264)" xlink:href="#CMR17-40"/>
      <use transform="translate(77.580305 0)scale(0.996264)" xlink:href="#CMMI12-12"/>
      <use transform="translate(138.174321 0)scale(0.996264)" xlink:href="#CMR17-41"/>
      <use transform="translate(173.455088 0)scale(0.996264)" xlink:href="#CMMI12-59"/>
      <use transform="translate(221.304355 44.444174)scale(0.697382)" xlink:href="#CMMI12-103"/>
      <use transform="translate(218.352185 -34.355253)scale(0.697382)" xlink:href="#CMMI12-102"/>
      <use transform="translate(260.651722 0)scale(0.996264)" xlink:href="#CMR17-40"/>
      <use transform="translate(295.932489 0)scale(0.996264)" xlink:href="#CMMI12-12"/>
      <use transform="translate(356.526505 0)scale(0.996264)" xlink:href="#CMR17-41"/>
      <use transform="translate(391.807273 0)scale(0.996264)" xlink:href="#CMMI12-59"/>
      <use transform="translate(441.43226 39.226102)scale(0.697382)" xlink:href="#CMMI12-101"/>
      <use transform="translate(436.704369 -34.355253)scale(0.697382)" xlink:href="#CMMI12-102"/>
      <use transform="translate(479.003906 0)scale(0.996264)" xlink:href="#CMR17-40"/>
      <use transform="translate(514.284674 0)scale(0.996264)" xlink:href="#CMMI12-12"/>
      <use transform="translate(574.87869 0)scale(0.996264)" xlink:href="#CMR17-41"/>
      <path d="M 0 22.914133 
L 41.104023 22.914133 
L 41.104023 26.899083 
L 0 26.899083 
L 0 22.914133 
z
"/>
      <path d="M 218.352185 22.914133 
L 259.456208 22.914133 
L 259.456208 26.899083 
L 218.352185 26.899083 
L 218.352185 22.914133 
z
"/>
      <path d="M 436.704369 22.914133 
L 477.808392 22.914133 
L 477.808392 26.899083 
L 436.704369 26.899083 
L 436.704369 22.914133 
z
"/>
     </g>
    </g>
   </g>
   <g id="line2d_25">
    <path clip-path="url(#pb01dee0d07)" d="M 142.724258 306.571192 
L 148.790028 305.108967 
L 154.855797 303.646741 
L 160.921566 302.184516 
L 166.987335 300.72229 
L 173.053104 299.260065 
L 179.118873 297.797839 
L 185.184642 296.335614 
L 191.250412 294.873388 
L 197.316181 293.411162 
L 203.38195 291.948937 
L 209.447719 290.486711 
L 215.513488 289.024486 
L 221.579257 287.56226 
L 227.645026 286.100035 
L 233.710796 284.637809 
L 239.776565 283.175583 
L 245.842334 281.713358 
L 251.908103 280.251132 
L 257.973872 278.788907 
L 264.039641 277.326681 
L 270.10541 275.864456 
L 276.17118 274.40223 
L 282.236949 272.940005 
L 288.302718 271.477779 
L 294.368487 270.015553 
L 300.434256 268.553328 
L 306.500025 267.091102 
L 312.565794 265.628877 
L 318.631564 264.166651 
L 324.697333 262.704426 
L 330.763102 261.2422 
L 336.828871 259.779974 
L 342.89464 258.317749 
L 348.960409 256.855523 
L 355.026178 255.393298 
L 361.091948 253.931072 
L 367.157717 252.468847 
L 373.223486 251.006621 
L 379.289255 249.544396 
L 385.355024 248.08217 
L 391.420793 246.619944 
L 397.486562 245.157719 
L 403.552332 243.695493 
L 409.618101 242.233268 
L 415.68387 240.771042 
L 421.749639 239.308817 
L 427.815408 237.846591 
L 433.881177 236.384365 
L 439.946946 234.92214 
L 446.012716 233.459914 
L 452.078485 231.997689 
L 458.144254 230.535463 
L 464.210023 229.073238 
L 470.275792 227.611012 
L 476.341561 226.148787 
L 482.40733 224.686561 
L 488.4731 223.224335 
L 494.538869 221.76211 
L 500.604638 220.299884 
L 506.670407 218.837659 
L 512.736176 217.375433 
L 518.801945 215.913208 
L 524.867714 214.450982 
L 530.933484 212.988757 
L 536.999253 211.526531 
L 543.065022 210.064305 
L 549.130791 208.60208 
L 555.19656 207.139854 
L 561.262329 205.677629 
L 567.328098 204.215403 
L 573.393868 202.753178 
L 579.459637 201.290952 
L 585.525406 199.828726 
L 591.591175 198.366501 
L 597.656944 196.904275 
L 603.722713 195.44205 
L 609.788482 193.979824 
L 615.854252 192.517599 
L 621.920021 191.055373 
L 627.98579 189.593148 
L 634.051559 188.130922 
L 640.117328 186.668696 
L 646.183097 185.206471 
L 652.248866 183.744245 
L 658.314636 182.28202 
L 664.380405 180.819794 
L 670.446174 179.357569 
L 676.511943 177.895343 
L 682.577712 176.433117 
L 688.643481 174.970892 
L 694.709251 173.508666 
L 700.77502 172.046441 
L 706.840789 170.584215 
L 712.906558 169.12199 
L 718.972327 167.659764 
L 725.038096 166.197539 
L 731.103865 164.735313 
L 737.169635 163.273087 
L 743.235404 161.810862 
" style="fill:none;stroke:#094d92;stroke-linecap:square;stroke-width:1.5;"/>
   </g>
   <g id="line2d_26">
    <path clip-path="url(#pb01dee0d07)" d="M 142.724258 253.326013 
L 148.790028 257.198681 
L 154.855797 260.726848 
L 160.921566 263.954525 
L 166.987335 266.918533 
L 173.053104 269.649912 
L 179.118873 272.175015 
L 185.184642 274.516359 
L 191.250412 276.693298 
L 197.316181 278.722563 
L 203.38195 280.618685 
L 209.447719 282.394353 
L 215.513488 284.060691 
L 221.579257 285.627495 
L 227.645026 287.103424 
L 233.710796 288.496162 
L 239.776565 289.812549 
L 245.842334 291.058697 
L 251.908103 292.240081 
L 257.973872 293.361622 
L 264.039641 294.427754 
L 270.10541 295.442485 
L 276.17118 296.409445 
L 282.236949 297.331929 
L 288.302718 298.212938 
L 294.368487 299.055206 
L 300.434256 299.861233 
L 306.500025 300.633311 
L 312.565794 301.373539 
L 318.631564 302.083848 
L 324.697333 302.766017 
L 330.763102 303.421685 
L 336.828871 304.052367 
L 342.89464 304.659464 
L 348.960409 305.244275 
L 355.026178 305.808006 
L 361.091948 306.351775 
L 367.157717 306.876626 
L 373.223486 307.383527 
L 379.289255 307.873384 
L 385.355024 308.347044 
L 391.420793 308.805295 
L 397.486562 309.248878 
L 403.552332 309.678487 
L 409.618101 310.09477 
L 415.68387 310.49834 
L 421.749639 310.889769 
L 427.815408 311.269597 
L 433.881177 311.638332 
L 439.946946 311.996453 
L 446.012716 312.344413 
L 452.078485 312.682637 
L 458.144254 313.011529 
L 464.210023 313.331469 
L 470.275792 313.642818 
L 476.341561 313.945917 
L 482.40733 314.241091 
L 488.4731 314.528645 
L 494.538869 314.808872 
L 500.604638 315.082047 
L 506.670407 315.348434 
L 512.736176 315.608283 
L 518.801945 315.861831 
L 524.867714 316.109304 
L 530.933484 316.350919 
L 536.999253 316.586881 
L 543.065022 316.817386 
L 549.130791 317.042622 
L 555.19656 317.262766 
L 561.262329 317.47799 
L 567.328098 317.688457 
L 573.393868 317.894323 
L 579.459637 318.095736 
L 585.525406 318.292841 
L 591.591175 318.485773 
L 597.656944 318.674664 
L 603.722713 318.859639 
L 609.788482 319.04082 
L 615.854252 319.218321 
L 621.920021 319.392253 
L 627.98579 319.562724 
L 634.051559 319.729835 
L 640.117328 319.893684 
L 646.183097 320.054367 
L 652.248866 320.211975 
L 658.314636 320.366594 
L 664.380405 320.518308 
L 670.446174 320.6672 
L 676.511943 320.813347 
L 682.577712 320.956824 
L 688.643481 321.097704 
L 694.709251 321.236056 
L 700.77502 321.371948 
L 706.840789 321.505446 
L 712.906558 321.636611 
L 718.972327 321.765505 
L 725.038096 321.892185 
L 731.103865 322.016709 
L 737.169635 322.139131 
L 743.235404 322.259504 
" style="fill:none;stroke:#68b684;stroke-linecap:square;stroke-width:1.5;"/>
   </g>
   <g id="line2d_27">
    <path clip-path="url(#pb01dee0d07)" d="M 142.724258 173.458245 
L 148.790028 175.868687 
L 154.855797 177.934629 
L 160.921566 179.70008 
L 166.987335 181.201862 
L 173.053104 182.471015 
L 179.118873 183.533893 
L 185.184642 184.413011 
L 191.250412 185.127725 
L 197.316181 185.694764 
L 203.38195 186.128661 
L 209.447719 186.442103 
L 215.513488 186.646215 
L 221.579257 186.750794 
L 227.645026 186.764497 
L 233.710796 186.69501 
L 239.776565 186.549172 
L 245.842334 186.333094 
L 251.908103 186.052252 
L 257.973872 185.711567 
L 264.039641 185.315474 
L 270.10541 184.86798 
L 276.17118 184.372714 
L 282.236949 183.832973 
L 288.302718 183.251756 
L 294.368487 182.631798 
L 300.434256 181.9756 
L 306.500025 181.285452 
L 312.565794 180.563455 
L 318.631564 179.811538 
L 324.697333 179.031482 
L 330.763102 178.224924 
L 336.828871 177.39338 
L 342.89464 176.538252 
L 348.960409 175.660838 
L 355.026178 174.762343 
L 361.091948 173.843887 
L 367.157717 172.906511 
L 373.223486 171.951187 
L 379.289255 170.978819 
L 385.355024 169.990253 
L 391.420793 168.986278 
L 397.486562 167.967636 
L 403.552332 166.935019 
L 409.618101 165.889077 
L 415.68387 164.830421 
L 421.749639 163.759624 
L 427.815408 162.677227 
L 433.881177 161.583736 
L 439.946946 160.479632 
L 446.012716 159.365366 
L 452.078485 158.241365 
L 458.144254 157.108031 
L 464.210023 155.965745 
L 470.275792 154.814869 
L 476.341561 153.655743 
L 482.40733 152.488691 
L 488.4731 151.31402 
L 494.538869 150.132021 
L 500.604638 148.942971 
L 506.670407 147.747132 
L 512.736176 146.544755 
L 518.801945 145.336077 
L 524.867714 144.121325 
L 530.933484 142.900715 
L 536.999253 141.674451 
L 543.065022 140.442731 
L 549.130791 139.205741 
L 555.19656 137.96366 
L 561.262329 136.716658 
L 567.328098 135.464899 
L 573.393868 134.208539 
L 579.459637 132.947727 
L 585.525406 131.682606 
L 591.591175 130.413313 
L 597.656944 129.139978 
L 603.722713 127.862728 
L 609.788482 126.581683 
L 615.854252 125.296958 
L 621.920021 124.008665 
L 627.98579 122.71691 
L 634.051559 121.421796 
L 640.117328 120.12342 
L 646.183097 118.821877 
L 652.248866 117.517259 
L 658.314636 116.209652 
L 664.380405 114.899142 
L 670.446174 113.585808 
L 676.511943 112.269729 
L 682.577712 110.95098 
L 688.643481 109.629635 
L 694.709251 108.305761 
L 700.77502 106.979428 
L 706.840789 105.6507 
L 712.906558 104.31964 
L 718.972327 102.986308 
L 725.038096 101.650763 
L 731.103865 100.313061 
L 737.169635 98.973258 
L 743.235404 97.631405 
" style="fill:none;stroke:#1c1018;stroke-linecap:square;stroke-width:1.5;"/>
   </g>
   <g id="patch_3">
    <path d="M 108 333.490909 
L 108 86.4 
" style="fill:none;stroke:#000000;stroke-linecap:square;stroke-linejoin:miter;stroke-width:0.8;"/>
   </g>
   <g id="patch_4">
    <path d="M 777.6 333.490909 
L 777.6 86.4 
" style="fill:none;stroke:#000000;stroke-linecap:square;stroke-linejoin:miter;stroke-width:0.8;"/>
   </g>
   <g id="patch_5">
    <path d="M 108 333.490909 
L 777.6 333.490909 
" style="fill:none;stroke:#000000;stroke-linecap:square;stroke-linejoin:miter;stroke-width:0.8;"/>
   </g>
   <g id="patch_6">
    <path d="M 108 86.4 
L 777.6 86.4 
" style="fill:none;stroke:#000000;stroke-linecap:square;stroke-linejoin:miter;stroke-width:0.8;"/>
   </g>
   <g id="text_7">
    <!-- Erwartete Werte für $\frac{b}{f}(\beta), \frac{g}{f}(\beta), \frac{e}{f}(\beta)$ -->
    <defs>
     <path d="M 18.296875 33 
L 58 33 
L 58 41.1875 
L 18.296875 41.1875 
L 18.296875 64.796875 
L 59.5 64.796875 
L 59.5 73 
L 9 73 
L 9 0 
L 61.296875 0 
L 61.296875 8.1875 
L 18.296875 8.1875 
z
" id="Nimbus_Sans_L_Regular-69"/>
     <path d="M 6.90625 52 
L 6.90625 0 
L 15.296875 0 
L 15.296875 26.984375 
C 15.296875 34.421875 17.203125 39.28125 21.203125 42.15625 
C 23.796875 44.046875 26.296875 44.640625 32.09375 44.734375 
L 32.09375 53.1875 
C 30.703125 53.890625 30 54 28.90625 54 
C 23.5 54 19.40625 50.796875 14.59375 42.96875 
L 14.59375 52 
z
" id="Nimbus_Sans_L_Regular-114"/>
     <path d="M 55.40625 0 
L 70.796875 52 
L 61.40625 52 
L 51 11.515625 
L 40.703125 52 
L 30.5 52 
L 20.5 11.515625 
L 9.796875 52 
L 0.59375 52 
L 15.796875 0 
L 25.203125 0 
L 35.296875 40.765625 
L 45.90625 0 
z
" id="Nimbus_Sans_L_Regular-119"/>
     <path d="M 53.5 5.1875 
C 52.59375 5 52.203125 5 51.703125 5 
C 48.796875 5 47.203125 6.484375 47.203125 9.078125 
L 47.203125 39.71875 
C 47.203125 48.984375 40.40625 54 27.5 54 
C 19.90625 54 13.59375 51.796875 10.09375 47.890625 
C 7.703125 45.203125 6.703125 42.21875 6.5 37.03125 
L 14.90625 37.03125 
C 15.59375 43.40625 19.40625 46.296875 27.203125 46.296875 
C 34.703125 46.296875 38.90625 43.5 38.90625 38.53125 
L 38.90625 36.34375 
C 38.90625 32.859375 36.796875 31.359375 30.203125 30.5625 
C 18.40625 29.078125 16.59375 28.671875 13.40625 27.390625 
C 7.296875 24.890625 4.203125 20.21875 4.203125 13.453125 
C 4.203125 4 10.796875 -2 21.40625 -2 
C 28 -2 33.296875 0.296875 39.203125 5.6875 
C 39.796875 0.390625 42.40625 -2 47.796875 -2 
C 49.5 -2 50.796875 -1.8125 53.5 -1.109375 
z
M 38.90625 16.734375 
C 38.90625 13.953125 38.09375 12.265625 35.59375 9.96875 
C 32.203125 6.890625 28.09375 5.296875 23.203125 5.296875 
C 16.703125 5.296875 12.90625 8.375 12.90625 13.65625 
C 12.90625 19.125 16.59375 21.90625 25.5 23.203125 
C 34.296875 24.40625 36.09375 24.796875 38.90625 26.09375 
z
" id="Nimbus_Sans_L_Regular-97"/>
     <path d="M 25.40625 52 
L 16.796875 52 
L 16.796875 66.390625 
L 8.5 66.390625 
L 8.5 52 
L 1.40625 52 
L 1.40625 45.1875 
L 8.5 45.1875 
L 8.5 6.28125 
C 8.5 1 12.09375 -2 18.59375 -2 
C 20.59375 -2 22.59375 -1.8125 25.40625 -1.3125 
L 25.40625 5.6875 
C 24.296875 5.390625 23 5.296875 21.40625 5.296875 
C 17.796875 5.296875 16.796875 6.28125 16.796875 9.90625 
L 16.796875 45.1875 
L 25.40625 45.1875 
z
" id="Nimbus_Sans_L_Regular-116"/>
     <path d="M 51.296875 23.1875 
C 51.296875 31.21875 50.703125 36.109375 49.203125 40.078125 
C 45.796875 48.796875 37.796875 54 28 54 
C 13.40625 54 4 42.71875 4 25.296875 
C 4 8.515625 13.09375 -2 27.796875 -2 
C 39.796875 -2 48.09375 4.796875 50.203125 15.90625 
L 41.796875 15.90625 
C 39.5 9.1875 34.796875 5.6875 28.09375 5.6875 
C 22.796875 5.6875 18.296875 8.03125 15.5 12.296875 
C 13.5 15.21875 12.796875 18.140625 12.703125 23.1875 
z
M 12.90625 30 
C 13.59375 39.875 19.5 46.296875 27.90625 46.296875 
C 36.09375 46.296875 42.40625 39.359375 42.40625 30.609375 
C 42.40625 30.40625 42.40625 30.203125 42.296875 30 
z
" id="Nimbus_Sans_L_Regular-101"/>
     <path d="M 74.40625 0 
L 92.90625 73 
L 82.5 73 
L 69.09375 13.703125 
L 52.5 73 
L 42.5 73 
L 26.296875 13.703125 
L 12.59375 73 
L 2.203125 73 
L 20.90625 0 
L 31.09375 0 
L 47.40625 59.96875 
L 64.203125 0 
z
" id="Nimbus_Sans_L_Regular-87"/>
     <path d="M 25.796875 52 
L 17.09375 52 
L 17.09375 60.3125 
C 17.09375 63.859375 19.09375 65.6875 22.90625 65.6875 
C 23.59375 65.6875 23.90625 65.6875 25.796875 65.59375 
L 25.796875 72.484375 
C 23.90625 72.890625 22.796875 73 21.09375 73 
C 13.40625 73 8.796875 68.59375 8.796875 61.015625 
L 8.796875 52 
L 1.796875 52 
L 1.796875 45.1875 
L 8.796875 45.1875 
L 8.796875 0 
L 17.09375 0 
L 17.09375 45.1875 
L 25.796875 45.1875 
z
" id="Nimbus_Sans_L_Regular-102"/>
     <path d="M 13.40625 71.296875 
L 3 71.296875 
L 3 61 
L 13.40625 61 
z
M 29.59375 71.296875 
L 19.203125 71.296875 
L 19.203125 61 
L 29.59375 61 
z
" id="Nimbus_Sans_L_Regular-168"/>
     <path d="M 48.203125 0.296875 
L 48.203125 52 
L 39.90625 52 
L 39.90625 22.71875 
C 39.90625 12.1875 34.296875 5.296875 25.59375 5.296875 
C 19 5.296875 14.796875 9.234375 14.796875 15.4375 
L 14.796875 52 
L 6.5 52 
L 6.5 12.1875 
C 6.5 3.59375 13 -2 23.203125 -2 
C 30.90625 -2 35.796875 0.6875 40.703125 7.5625 
L 40.703125 0.296875 
z
" id="Nimbus_Sans_L_Regular-117"/>
    </defs>
    <g transform="translate(277.32023 80.4)scale(0.216 -0.216)">
     <use transform="scale(0.996264)" xlink:href="#Nimbus_Sans_L_Regular-69"/>
     <use transform="translate(66.450031 0)scale(0.996264)" xlink:href="#Nimbus_Sans_L_Regular-114"/>
     <use transform="translate(99.625261 0)scale(0.996264)" xlink:href="#Nimbus_Sans_L_Regular-119"/>
     <use transform="translate(170.061853 0)scale(0.996264)" xlink:href="#Nimbus_Sans_L_Regular-97"/>
     <use transform="translate(225.45353 0)scale(0.996264)" xlink:href="#Nimbus_Sans_L_Regular-114"/>
     <use transform="translate(262.612858 0)scale(0.996264)" xlink:href="#Nimbus_Sans_L_Regular-116"/>
     <use transform="translate(290.308028 0)scale(0.996264)" xlink:href="#Nimbus_Sans_L_Regular-101"/>
     <use transform="translate(345.699705 0)scale(0.996264)" xlink:href="#Nimbus_Sans_L_Regular-116"/>
     <use transform="translate(373.394874 0)scale(0.996264)" xlink:href="#Nimbus_Sans_L_Regular-101"/>
     <use transform="translate(456.481721 0)scale(0.996264)" xlink:href="#Nimbus_Sans_L_Regular-87"/>
     <use transform="translate(547.540382 0)scale(0.996264)" xlink:href="#Nimbus_Sans_L_Regular-101"/>
     <use transform="translate(602.932059 0)scale(0.996264)" xlink:href="#Nimbus_Sans_L_Regular-114"/>
     <use transform="translate(640.091387 0)scale(0.996264)" xlink:href="#Nimbus_Sans_L_Regular-116"/>
     <use transform="translate(667.786557 0)scale(0.996264)" xlink:href="#Nimbus_Sans_L_Regular-101"/>
     <use transform="translate(750.873403 0)scale(0.996264)" xlink:href="#Nimbus_Sans_L_Regular-102"/>
     <use transform="translate(789.676804 -0.249309)scale(0.996264)" xlink:href="#Nimbus_Sans_L_Regular-168"/>
     <use transform="translate(778.568573 0)scale(0.996264)" xlink:href="#Nimbus_Sans_L_Regular-117"/>
     <use transform="translate(833.96025 0)scale(0.996264)" xlink:href="#Nimbus_Sans_L_Regular-114"/>
     <use transform="translate(902.061681 39.226102)scale(0.697382)" xlink:href="#CMMI12-98"/>
     <use transform="translate(896.026163 -34.355253)scale(0.697382)" xlink:href="#CMMI12-102"/>
     <use transform="translate(938.3257 0)scale(0.996264)" xlink:href="#CMR17-40"/>
     <use transform="translate(973.606468 0)scale(0.996264)" xlink:href="#CMMI12-12"/>
     <use transform="translate(1034.200484 0)scale(0.996264)" xlink:href="#CMR17-41"/>
     <use transform="translate(1069.481251 0)scale(0.996264)" xlink:href="#CMMI12-59"/>
     <use transform="translate(1117.330518 44.444174)scale(0.697382)" xlink:href="#CMMI12-103"/>
     <use transform="translate(1114.378347 -34.355253)scale(0.697382)" xlink:href="#CMMI12-102"/>
     <use transform="translate(1156.677885 0)scale(0.996264)" xlink:href="#CMR17-40"/>
     <use transform="translate(1191.958652 0)scale(0.996264)" xlink:href="#CMMI12-12"/>
     <use transform="translate(1252.552668 0)scale(0.996264)" xlink:href="#CMR17-41"/>
     <use transform="translate(1287.833436 0)scale(0.996264)" xlink:href="#CMMI12-59"/>
     <use transform="translate(1337.458423 39.226102)scale(0.697382)" xlink:href="#CMMI12-101"/>
     <use transform="translate(1332.730532 -34.355253)scale(0.697382)" xlink:href="#CMMI12-102"/>
     <use transform="translate(1375.030069 0)scale(0.996264)" xlink:href="#CMR17-40"/>
     <use transform="translate(1410.310837 0)scale(0.996264)" xlink:href="#CMMI12-12"/>
     <use transform="translate(1470.904853 0)scale(0.996264)" xlink:href="#CMR17-41"/>
     <path d="M 896.026163 22.914133 
L 937.130186 22.914133 
L 937.130186 26.899083 
L 896.026163 26.899083 
L 896.026163 22.914133 
z
"/>
     <path d="M 1114.378347 22.914133 
L 1155.482371 22.914133 
L 1155.482371 26.899083 
L 1114.378347 26.899083 
L 1114.378347 22.914133 
z
"/>
     <path d="M 1332.730532 22.914133 
L 1373.834555 22.914133 
L 1373.834555 26.899083 
L 1332.730532 26.899083 
L 1332.730532 22.914133 
z
"/>
    </g>
   </g>
   <g id="legend_1">
    <g id="patch_7">
     <path d="M 120.6 196.31907 
L 280.607826 196.31907 
Q 284.207826 196.31907 284.207826 192.71907 
L 284.207826 99 
Q 284.207826 95.4 280.607826 95.4 
L 120.6 95.4 
Q 117 95.4 117 99 
L 117 192.71907 
Q 117 196.31907 120.6 196.31907 
z
" style="fill:#ffffff;opacity:0.8;stroke:#cccccc;stroke-linejoin:miter;"/>
    </g>
    <g id="line2d_28">
     <path d="M 124.2 112.077945 
L 160.2 112.077945 
" style="fill:none;stroke:#094d92;stroke-linecap:square;stroke-width:1.5;"/>
    </g>
    <g id="line2d_29"/>
    <g id="text_8">
     <!-- $\frac{b}{f}(\beta)$ erwartet -->
     <g transform="translate(174.6 118.377945)scale(0.18 -0.18)">
      <use transform="translate(6.035518 39.226102)scale(0.697382)" xlink:href="#CMMI12-98"/>
      <use transform="translate(0 -34.355253)scale(0.697382)" xlink:href="#CMMI12-102"/>
      <use transform="translate(42.299537 0)scale(0.996264)" xlink:href="#CMR17-40"/>
      <use transform="translate(77.580305 0)scale(0.996264)" xlink:href="#CMMI12-12"/>
      <use transform="translate(138.174321 0)scale(0.996264)" xlink:href="#CMR17-41"/>
      <use transform="translate(201.150258 0)scale(0.996264)" xlink:href="#Nimbus_Sans_L_Regular-101"/>
      <use transform="translate(256.541935 0)scale(0.996264)" xlink:href="#Nimbus_Sans_L_Regular-114"/>
      <use transform="translate(289.717165 0)scale(0.996264)" xlink:href="#Nimbus_Sans_L_Regular-119"/>
      <use transform="translate(360.153757 0)scale(0.996264)" xlink:href="#Nimbus_Sans_L_Regular-97"/>
      <use transform="translate(415.545434 0)scale(0.996264)" xlink:href="#Nimbus_Sans_L_Regular-114"/>
      <use transform="translate(452.704762 0)scale(0.996264)" xlink:href="#Nimbus_Sans_L_Regular-116"/>
      <use transform="translate(480.399932 0)scale(0.996264)" xlink:href="#Nimbus_Sans_L_Regular-101"/>
      <use transform="translate(535.791608 0)scale(0.996264)" xlink:href="#Nimbus_Sans_L_Regular-116"/>
      <path d="M 0 22.914133 
L 41.104023 22.914133 
L 41.104023 26.899083 
L 0 26.899083 
L 0 22.914133 
z
"/>
     </g>
    </g>
    <g id="line2d_30">
     <path d="M 124.2 143.136127 
L 160.2 143.136127 
" style="fill:none;stroke:#68b684;stroke-linecap:square;stroke-width:1.5;"/>
    </g>
    <g id="line2d_31"/>
    <g id="text_9">
     <!-- $\frac{g}{f}(\beta)$ erwartet -->
     <g transform="translate(174.6 149.436127)scale(0.18 -0.18)">
      <use transform="translate(2.952171 44.444174)scale(0.697382)" xlink:href="#CMMI12-103"/>
      <use transform="translate(0 -34.355253)scale(0.697382)" xlink:href="#CMMI12-102"/>
      <use transform="translate(42.299537 0)scale(0.996264)" xlink:href="#CMR17-40"/>
      <use transform="translate(77.580305 0)scale(0.996264)" xlink:href="#CMMI12-12"/>
      <use transform="translate(138.174321 0)scale(0.996264)" xlink:href="#CMR17-41"/>
      <use transform="translate(201.150258 0)scale(0.996264)" xlink:href="#Nimbus_Sans_L_Regular-101"/>
      <use transform="translate(256.541935 0)scale(0.996264)" xlink:href="#Nimbus_Sans_L_Regular-114"/>
      <use transform="translate(289.717165 0)scale(0.996264)" xlink:href="#Nimbus_Sans_L_Regular-119"/>
      <use transform="translate(360.153757 0)scale(0.996264)" xlink:href="#Nimbus_Sans_L_Regular-97"/>
      <use transform="translate(415.545434 0)scale(0.996264)" xlink:href="#Nimbus_Sans_L_Regular-114"/>
      <use transform="translate(452.704762 0)scale(0.996264)" xlink:href="#Nimbus_Sans_L_Regular-116"/>
      <use transform="translate(480.399932 0)scale(0.996264)" xlink:href="#Nimbus_Sans_L_Regular-101"/>
      <use transform="translate(535.791608 0)scale(0.996264)" xlink:href="#Nimbus_Sans_L_Regular-116"/>
      <path d="M 0 22.914133 
L 41.104023 22.914133 
L 41.104023 26.899083 
L 0 26.899083 
L 0 22.914133 
z
"/>
     </g>
    </g>
    <g id="line2d_32">
     <path d="M 124.2 174.194308 
L 160.2 174.194308 
" style="fill:none;stroke:#1c1018;stroke-linecap:square;stroke-width:1.5;"/>
    </g>
    <g id="line2d_33"/>
    <g id="text_10">
     <!-- $\frac{e}{f}(\beta)$ erwartet -->
     <g transform="translate(174.6 180.494308)scale(0.18 -0.18)">
      <use transform="translate(4.727891 39.226102)scale(0.697382)" xlink:href="#CMMI12-101"/>
      <use transform="translate(0 -34.355253)scale(0.697382)" xlink:href="#CMMI12-102"/>
      <use transform="translate(42.299537 0)scale(0.996264)" xlink:href="#CMR17-40"/>
      <use transform="translate(77.580305 0)scale(0.996264)" xlink:href="#CMMI12-12"/>
      <use transform="translate(138.174321 0)scale(0.996264)" xlink:href="#CMR17-41"/>
      <use transform="translate(201.150258 0)scale(0.996264)" xlink:href="#Nimbus_Sans_L_Regular-101"/>
      <use transform="translate(256.541935 0)scale(0.996264)" xlink:href="#Nimbus_Sans_L_Regular-114"/>
      <use transform="translate(289.717165 0)scale(0.996264)" xlink:href="#Nimbus_Sans_L_Regular-119"/>
      <use transform="translate(360.153757 0)scale(0.996264)" xlink:href="#Nimbus_Sans_L_Regular-97"/>
      <use transform="translate(415.545434 0)scale(0.996264)" xlink:href="#Nimbus_Sans_L_Regular-114"/>
      <use transform="translate(452.704762 0)scale(0.996264)" xlink:href="#Nimbus_Sans_L_Regular-116"/>
      <use transform="translate(480.399932 0)scale(0.996264)" xlink:href="#Nimbus_Sans_L_Regular-101"/>
      <use transform="translate(535.791608 0)scale(0.996264)" xlink:href="#Nimbus_Sans_L_Regular-116"/>
      <path d="M 0 22.914133 
L 41.104023 22.914133 
L 41.104023 26.899083 
L 0 26.899083 
L 0 22.914133 
z
"/>
     </g>
    </g>
   </g>
  </g>
  <g id="axes_2">
   <g id="patch_8">
    <path d="M 108 630 
L 777.6 630 
L 777.6 382.909091 
L 108 382.909091 
z
" style="fill:#ffffff;"/>
   </g>
   <g id="matplotlib.axis_3">
    <g id="xtick_8">
     <g id="line2d_34">
      <path clip-path="url(#p9421aebbfe)" d="M 122.016978 630 
L 122.016978 382.909091 
" style="fill:none;stroke:#b0b0b0;stroke-linecap:square;stroke-width:0.8;"/>
     </g>
     <g id="line2d_35">
      <g>
       <use style="stroke:#000000;stroke-width:0.8;" x="122.016978" xlink:href="#m799994e6f0" y="630"/>
      </g>
     </g>
     <g id="text_11">
      <!-- $\mathdefault{0.5}$ -->
      <defs>
       <path d="M 42 31.84375 
C 42 37.96875 41.90625 48.421875 37.703125 56.453125 
C 34 63.484375 28.09375 66 22.90625 66 
C 18.09375 66 12 63.78125 8.203125 56.5625 
C 4.203125 49.015625 3.796875 39.671875 3.796875 31.84375 
C 3.796875 26.109375 3.90625 17.375 7 9.734375 
C 11.296875 -0.609375 19 -2 22.90625 -2 
C 27.5 -2 34.5 -0.109375 38.59375 9.4375 
C 41.59375 16.375 42 24.5 42 31.84375 
z
M 22.90625 -0.40625 
C 16.5 -0.40625 12.703125 5.125 11.296875 12.75 
C 10.203125 18.6875 10.203125 27.328125 10.203125 32.953125 
C 10.203125 40.6875 10.203125 47.109375 11.5 53.234375 
C 13.40625 61.78125 19 64.390625 22.90625 64.390625 
C 27 64.390625 32.296875 61.671875 34.203125 53.4375 
C 35.5 47.71875 35.59375 40.984375 35.59375 32.953125 
C 35.59375 26.421875 35.59375 18.375 34.40625 12.453125 
C 32.296875 1.5 26.40625 -0.40625 22.90625 -0.40625 
z
" id="CMR17-48"/>
       <path d="M 18.40625 4.796875 
C 18.40625 7.6875 16 9.6875 13.59375 9.6875 
C 10.703125 9.6875 8.703125 7.296875 8.703125 4.890625 
C 8.703125 2 11.09375 0 13.5 0 
C 16.40625 0 18.40625 2.390625 18.40625 4.796875 
z
" id="CMMI12-58"/>
      </defs>
      <g transform="translate(111.353946 649.776976)scale(0.18 -0.18)">
       <use transform="scale(0.996264)" xlink:href="#CMR17-48"/>
       <use transform="translate(45.690477 0)scale(0.996264)" xlink:href="#CMMI12-58"/>
       <use transform="translate(72.787654 0)scale(0.996264)" xlink:href="#CMR17-53"/>
      </g>
     </g>
    </g>
    <g id="xtick_9">
     <g id="line2d_36">
      <path clip-path="url(#p9421aebbfe)" d="M 225.553382 630 
L 225.553382 382.909091 
" style="fill:none;stroke:#b0b0b0;stroke-linecap:square;stroke-width:0.8;"/>
     </g>
     <g id="line2d_37">
      <g>
       <use style="stroke:#000000;stroke-width:0.8;" x="225.553382" xlink:href="#m799994e6f0" y="630"/>
      </g>
     </g>
     <g id="text_12">
      <!-- $\mathdefault{1.0}$ -->
      <defs>
       <path d="M 26.59375 63.796875 
C 26.59375 65.890625 26.5 66 25.09375 66 
C 21.203125 61.359375 15.296875 59.890625 9.703125 59.6875 
C 9.40625 59.6875 8.90625 59.6875 8.796875 59.5 
C 8.703125 59.296875 8.703125 59.09375 8.703125 57 
C 11.796875 57 17 57.59375 21 59.984375 
L 21 7.296875 
C 21 3.796875 20.796875 2.59375 12.203125 2.59375 
L 9.203125 2.59375 
L 9.203125 0 
C 14 0.09375 19 0.1875 23.796875 0.1875 
C 28.59375 0.1875 33.59375 0.09375 38.40625 0 
L 38.40625 2.59375 
L 35.40625 2.59375 
C 26.796875 2.59375 26.59375 3.6875 26.59375 7.296875 
z
" id="CMR17-49"/>
      </defs>
      <g transform="translate(214.89035 649.776976)scale(0.18 -0.18)">
       <use transform="scale(0.996264)" xlink:href="#CMR17-49"/>
       <use transform="translate(45.690477 0)scale(0.996264)" xlink:href="#CMMI12-58"/>
       <use transform="translate(72.787654 0)scale(0.996264)" xlink:href="#CMR17-48"/>
      </g>
     </g>
    </g>
    <g id="xtick_10">
     <g id="line2d_38">
      <path clip-path="url(#p9421aebbfe)" d="M 329.089786 630 
L 329.089786 382.909091 
" style="fill:none;stroke:#b0b0b0;stroke-linecap:square;stroke-width:0.8;"/>
     </g>
     <g id="line2d_39">
      <g>
       <use style="stroke:#000000;stroke-width:0.8;" x="329.089786" xlink:href="#m799994e6f0" y="630"/>
      </g>
     </g>
     <g id="text_13">
      <!-- $\mathdefault{1.5}$ -->
      <g transform="translate(318.426754 649.776976)scale(0.18 -0.18)">
       <use transform="scale(0.996264)" xlink:href="#CMR17-49"/>
       <use transform="translate(45.690477 0)scale(0.996264)" xlink:href="#CMMI12-58"/>
       <use transform="translate(72.787654 0)scale(0.996264)" xlink:href="#CMR17-53"/>
      </g>
     </g>
    </g>
    <g id="xtick_11">
     <g id="line2d_40">
      <path clip-path="url(#p9421aebbfe)" d="M 432.626191 630 
L 432.626191 382.909091 
" style="fill:none;stroke:#b0b0b0;stroke-linecap:square;stroke-width:0.8;"/>
     </g>
     <g id="line2d_41">
      <g>
       <use style="stroke:#000000;stroke-width:0.8;" x="432.626191" xlink:href="#m799994e6f0" y="630"/>
      </g>
     </g>
     <g id="text_14">
      <!-- $\mathdefault{2.0}$ -->
      <g transform="translate(421.963159 649.776976)scale(0.18 -0.18)">
       <use transform="scale(0.996264)" xlink:href="#CMR17-50"/>
       <use transform="translate(45.690477 0)scale(0.996264)" xlink:href="#CMMI12-58"/>
       <use transform="translate(72.787654 0)scale(0.996264)" xlink:href="#CMR17-48"/>
      </g>
     </g>
    </g>
    <g id="xtick_12">
     <g id="line2d_42">
      <path clip-path="url(#p9421aebbfe)" d="M 536.162595 630 
L 536.162595 382.909091 
" style="fill:none;stroke:#b0b0b0;stroke-linecap:square;stroke-width:0.8;"/>
     </g>
     <g id="line2d_43">
      <g>
       <use style="stroke:#000000;stroke-width:0.8;" x="536.162595" xlink:href="#m799994e6f0" y="630"/>
      </g>
     </g>
     <g id="text_15">
      <!-- $\mathdefault{2.5}$ -->
      <g transform="translate(525.499563 649.776976)scale(0.18 -0.18)">
       <use transform="scale(0.996264)" xlink:href="#CMR17-50"/>
       <use transform="translate(45.690477 0)scale(0.996264)" xlink:href="#CMMI12-58"/>
       <use transform="translate(72.787654 0)scale(0.996264)" xlink:href="#CMR17-53"/>
      </g>
     </g>
    </g>
    <g id="xtick_13">
     <g id="line2d_44">
      <path clip-path="url(#p9421aebbfe)" d="M 639.698999 630 
L 639.698999 382.909091 
" style="fill:none;stroke:#b0b0b0;stroke-linecap:square;stroke-width:0.8;"/>
     </g>
     <g id="line2d_45">
      <g>
       <use style="stroke:#000000;stroke-width:0.8;" x="639.698999" xlink:href="#m799994e6f0" y="630"/>
      </g>
     </g>
     <g id="text_16">
      <!-- $\mathdefault{3.0}$ -->
      <g transform="translate(629.035967 649.776976)scale(0.18 -0.18)">
       <use transform="scale(0.996264)" xlink:href="#CMR17-51"/>
       <use transform="translate(45.690477 0)scale(0.996264)" xlink:href="#CMMI12-58"/>
       <use transform="translate(72.787654 0)scale(0.996264)" xlink:href="#CMR17-48"/>
      </g>
     </g>
    </g>
    <g id="xtick_14">
     <g id="line2d_46">
      <path clip-path="url(#p9421aebbfe)" d="M 743.235404 630 
L 743.235404 382.909091 
" style="fill:none;stroke:#b0b0b0;stroke-linecap:square;stroke-width:0.8;"/>
     </g>
     <g id="line2d_47">
      <g>
       <use style="stroke:#000000;stroke-width:0.8;" x="743.235404" xlink:href="#m799994e6f0" y="630"/>
      </g>
     </g>
     <g id="text_17">
      <!-- $\mathdefault{3.5}$ -->
      <g transform="translate(732.572372 649.776976)scale(0.18 -0.18)">
       <use transform="scale(0.996264)" xlink:href="#CMR17-51"/>
       <use transform="translate(45.690477 0)scale(0.996264)" xlink:href="#CMMI12-58"/>
       <use transform="translate(72.787654 0)scale(0.996264)" xlink:href="#CMR17-53"/>
      </g>
     </g>
    </g>
    <g id="text_18">
     <!-- $\beta$ -->
     <g transform="translate(437.843634 670.373522)scale(0.18 -0.18)">
      <use transform="scale(0.996264)" xlink:href="#CMMI12-12"/>
     </g>
    </g>
   </g>
   <g id="matplotlib.axis_4">
    <g id="ytick_6">
     <g id="line2d_48">
      <path clip-path="url(#p9421aebbfe)" d="M 108 586.952138 
L 777.6 586.952138 
" style="fill:none;stroke:#b0b0b0;stroke-linecap:square;stroke-width:0.8;"/>
     </g>
     <g id="line2d_49">
      <g>
       <use style="stroke:#000000;stroke-width:0.8;" x="108" xlink:href="#m80b3e954e9" y="586.952138"/>
      </g>
     </g>
     <g id="text_19">
      <!-- $\mathdefault{2}$ -->
      <g transform="translate(92.775714 593.340626)scale(0.18 -0.18)">
       <use transform="scale(0.996264)" xlink:href="#CMR17-50"/>
      </g>
     </g>
    </g>
    <g id="ytick_7">
     <g id="line2d_50">
      <path clip-path="url(#p9421aebbfe)" d="M 108 542.283101 
L 777.6 542.283101 
" style="fill:none;stroke:#b0b0b0;stroke-linecap:square;stroke-width:0.8;"/>
     </g>
     <g id="line2d_51">
      <g>
       <use style="stroke:#000000;stroke-width:0.8;" x="108" xlink:href="#m80b3e954e9" y="542.283101"/>
      </g>
     </g>
     <g id="text_20">
      <!-- $\mathdefault{3}$ -->
      <g transform="translate(92.775714 548.67159)scale(0.18 -0.18)">
       <use transform="scale(0.996264)" xlink:href="#CMR17-51"/>
      </g>
     </g>
    </g>
    <g id="ytick_8">
     <g id="line2d_52">
      <path clip-path="url(#p9421aebbfe)" d="M 108 497.614065 
L 777.6 497.614065 
" style="fill:none;stroke:#b0b0b0;stroke-linecap:square;stroke-width:0.8;"/>
     </g>
     <g id="line2d_53">
      <g>
       <use style="stroke:#000000;stroke-width:0.8;" x="108" xlink:href="#m80b3e954e9" y="497.614065"/>
      </g>
     </g>
     <g id="text_21">
      <!-- $\mathdefault{4}$ -->
      <g transform="translate(92.775714 504.002553)scale(0.18 -0.18)">
       <use transform="scale(0.996264)" xlink:href="#CMR17-52"/>
      </g>
     </g>
    </g>
    <g id="ytick_9">
     <g id="line2d_54">
      <path clip-path="url(#p9421aebbfe)" d="M 108 452.945029 
L 777.6 452.945029 
" style="fill:none;stroke:#b0b0b0;stroke-linecap:square;stroke-width:0.8;"/>
     </g>
     <g id="line2d_55">
      <g>
       <use style="stroke:#000000;stroke-width:0.8;" x="108" xlink:href="#m80b3e954e9" y="452.945029"/>
      </g>
     </g>
     <g id="text_22">
      <!-- $\mathdefault{5}$ -->
      <g transform="translate(92.775714 459.333517)scale(0.18 -0.18)">
       <use transform="scale(0.996264)" xlink:href="#CMR17-53"/>
      </g>
     </g>
    </g>
    <g id="ytick_10">
     <g id="line2d_56">
      <path clip-path="url(#p9421aebbfe)" d="M 108 408.275993 
L 777.6 408.275993 
" style="fill:none;stroke:#b0b0b0;stroke-linecap:square;stroke-width:0.8;"/>
     </g>
     <g id="line2d_57">
      <g>
       <use style="stroke:#000000;stroke-width:0.8;" x="108" xlink:href="#m80b3e954e9" y="408.275993"/>
      </g>
     </g>
     <g id="text_23">
      <!-- $\mathdefault{6}$ -->
      <g transform="translate(92.775714 414.664481)scale(0.18 -0.18)">
       <use transform="scale(0.996264)" xlink:href="#CMR17-54"/>
      </g>
     </g>
    </g>
    <g id="text_24">
     <!-- $\frac{b}{f}(\beta), \frac{g}{f}(\beta), \frac{e}{f}(\beta)$ -->
     <g transform="translate(80.150952 563.819634)rotate(-90)scale(0.18 -0.18)">
      <use transform="translate(6.035518 39.226102)scale(0.697382)" xlink:href="#CMMI12-98"/>
      <use transform="translate(0 -34.355253)scale(0.697382)" xlink:href="#CMMI12-102"/>
      <use transform="translate(42.299537 0)scale(0.996264)" xlink:href="#CMR17-40"/>
      <use transform="translate(77.580305 0)scale(0.996264)" xlink:href="#CMMI12-12"/>
      <use transform="translate(138.174321 0)scale(0.996264)" xlink:href="#CMR17-41"/>
      <use transform="translate(173.455088 0)scale(0.996264)" xlink:href="#CMMI12-59"/>
      <use transform="translate(221.304355 44.444174)scale(0.697382)" xlink:href="#CMMI12-103"/>
      <use transform="translate(218.352185 -34.355253)scale(0.697382)" xlink:href="#CMMI12-102"/>
      <use transform="translate(260.651722 0)scale(0.996264)" xlink:href="#CMR17-40"/>
      <use transform="translate(295.932489 0)scale(0.996264)" xlink:href="#CMMI12-12"/>
      <use transform="translate(356.526505 0)scale(0.996264)" xlink:href="#CMR17-41"/>
      <use transform="translate(391.807273 0)scale(0.996264)" xlink:href="#CMMI12-59"/>
      <use transform="translate(441.43226 39.226102)scale(0.697382)" xlink:href="#CMMI12-101"/>
      <use transform="translate(436.704369 -34.355253)scale(0.697382)" xlink:href="#CMMI12-102"/>
      <use transform="translate(479.003906 0)scale(0.996264)" xlink:href="#CMR17-40"/>
      <use transform="translate(514.284674 0)scale(0.996264)" xlink:href="#CMMI12-12"/>
      <use transform="translate(574.87869 0)scale(0.996264)" xlink:href="#CMR17-41"/>
      <path d="M 0 22.914133 
L 41.104023 22.914133 
L 41.104023 26.899083 
L 0 26.899083 
L 0 22.914133 
z
"/>
      <path d="M 218.352185 22.914133 
L 259.456208 22.914133 
L 259.456208 26.899083 
L 218.352185 26.899083 
L 218.352185 22.914133 
z
"/>
      <path d="M 436.704369 22.914133 
L 477.808392 22.914133 
L 477.808392 26.899083 
L 436.704369 26.899083 
L 436.704369 22.914133 
z
"/>
     </g>
    </g>
   </g>
   <g id="LineCollection_1">
    <path clip-path="url(#p9421aebbfe)" d="M 726.882802 452.945029 
L 747.163636 452.945029 
" style="fill:none;stroke:#094d92;stroke-width:1.5;"/>
    <path clip-path="url(#p9421aebbfe)" d="M 528.574075 512.503744 
L 543.751115 512.503744 
" style="fill:none;stroke:#094d92;stroke-width:1.5;"/>
    <path clip-path="url(#p9421aebbfe)" d="M 412.69496 542.283101 
L 424.947713 542.283101 
" style="fill:none;stroke:#094d92;stroke-width:1.5;"/>
    <path clip-path="url(#p9421aebbfe)" d="M 339.822556 560.150716 
L 350.214371 560.150716 
" style="fill:none;stroke:#094d92;stroke-width:1.5;"/>
    <path clip-path="url(#p9421aebbfe)" d="M 283.167027 572.062459 
L 292.183422 572.062459 
" style="fill:none;stroke:#094d92;stroke-width:1.5;"/>
    <path clip-path="url(#p9421aebbfe)" d="M 249.126235 580.570847 
L 257.199944 580.570847 
" style="fill:none;stroke:#094d92;stroke-width:1.5;"/>
    <path clip-path="url(#p9421aebbfe)" d="M 223.181298 586.952138 
L 230.513876 586.952138 
" style="fill:none;stroke:#094d92;stroke-width:1.5;"/>
    <path clip-path="url(#p9421aebbfe)" d="M 199.059594 591.915364 
L 205.760307 591.915364 
" style="fill:none;stroke:#094d92;stroke-width:1.5;"/>
    <path clip-path="url(#p9421aebbfe)" d="M 182.189524 595.885945 
L 188.388926 595.885945 
" style="fill:none;stroke:#094d92;stroke-width:1.5;"/>
    <path clip-path="url(#p9421aebbfe)" d="M 169.259719 599.134602 
L 175.04107 599.134602 
" style="fill:none;stroke:#094d92;stroke-width:1.5;"/>
    <path clip-path="url(#p9421aebbfe)" d="M 156.585741 601.841816 
L 161.994425 601.841816 
" style="fill:none;stroke:#094d92;stroke-width:1.5;"/>
    <path clip-path="url(#p9421aebbfe)" d="M 147.080475 604.132536 
L 152.172896 604.132536 
" style="fill:none;stroke:#094d92;stroke-width:1.5;"/>
    <path clip-path="url(#p9421aebbfe)" d="M 138.436364 606.09601 
L 143.247193 606.09601 
" style="fill:none;stroke:#094d92;stroke-width:1.5;"/>
   </g>
   <g id="LineCollection_2">
    <path clip-path="url(#p9421aebbfe)" d="M 737.023219 453.476431 
L 737.023219 452.413627 
" style="fill:none;stroke:#094d92;stroke-width:1.5;"/>
    <path clip-path="url(#p9421aebbfe)" d="M 536.162595 513.04856 
L 536.162595 511.958928 
" style="fill:none;stroke:#094d92;stroke-width:1.5;"/>
    <path clip-path="url(#p9421aebbfe)" d="M 418.821337 542.852241 
L 418.821337 541.713961 
" style="fill:none;stroke:#094d92;stroke-width:1.5;"/>
    <path clip-path="url(#p9421aebbfe)" d="M 345.018464 560.746923 
L 345.018464 559.554508 
" style="fill:none;stroke:#094d92;stroke-width:1.5;"/>
    <path clip-path="url(#p9421aebbfe)" d="M 287.675225 572.697275 
L 287.675225 571.427642 
" style="fill:none;stroke:#094d92;stroke-width:1.5;"/>
    <path clip-path="url(#p9421aebbfe)" d="M 253.16309 581.229552 
L 253.16309 579.912141 
" style="fill:none;stroke:#094d92;stroke-width:1.5;"/>
    <path clip-path="url(#p9421aebbfe)" d="M 226.847587 587.632452 
L 226.847587 586.271823 
" style="fill:none;stroke:#094d92;stroke-width:1.5;"/>
    <path clip-path="url(#p9421aebbfe)" d="M 202.40995 592.627118 
L 202.40995 591.20361 
" style="fill:none;stroke:#094d92;stroke-width:1.5;"/>
    <path clip-path="url(#p9421aebbfe)" d="M 185.289225 596.618131 
L 185.289225 595.153759 
" style="fill:none;stroke:#094d92;stroke-width:1.5;"/>
    <path clip-path="url(#p9421aebbfe)" d="M 172.150394 599.880986 
L 172.150394 598.388218 
" style="fill:none;stroke:#094d92;stroke-width:1.5;"/>
    <path clip-path="url(#p9421aebbfe)" d="M 159.290083 602.609459 
L 159.290083 601.074173 
" style="fill:none;stroke:#094d92;stroke-width:1.5;"/>
    <path clip-path="url(#p9421aebbfe)" d="M 149.626685 604.913078 
L 149.626685 603.351994 
" style="fill:none;stroke:#094d92;stroke-width:1.5;"/>
    <path clip-path="url(#p9421aebbfe)" d="M 140.841778 606.890716 
L 140.841778 605.301304 
" style="fill:none;stroke:#094d92;stroke-width:1.5;"/>
   </g>
   <g id="LineCollection_3">
    <path clip-path="url(#p9421aebbfe)" d="M 726.882802 618.237193 
L 747.163636 618.237193 
" style="fill:none;stroke:#68b684;stroke-width:1.5;"/>
    <path clip-path="url(#p9421aebbfe)" d="M 528.574075 613.295415 
L 543.751115 613.295415 
" style="fill:none;stroke:#68b684;stroke-width:1.5;"/>
    <path clip-path="url(#p9421aebbfe)" d="M 412.69496 608.111155 
L 424.947713 608.111155 
" style="fill:none;stroke:#68b684;stroke-width:1.5;"/>
    <path clip-path="url(#p9421aebbfe)" d="M 339.822556 603.032991 
L 350.214371 603.032991 
" style="fill:none;stroke:#68b684;stroke-width:1.5;"/>
    <path clip-path="url(#p9421aebbfe)" d="M 283.167027 596.586636 
L 292.183422 596.586636 
" style="fill:none;stroke:#68b684;stroke-width:1.5;"/>
    <path clip-path="url(#p9421aebbfe)" d="M 249.126235 591.915364 
L 257.199944 591.915364 
" style="fill:none;stroke:#68b684;stroke-width:1.5;"/>
    <path clip-path="url(#p9421aebbfe)" d="M 223.181298 587.503607 
L 230.513876 587.503607 
" style="fill:none;stroke:#68b684;stroke-width:1.5;"/>
    <path clip-path="url(#p9421aebbfe)" d="M 199.059594 581.289865 
L 205.760307 581.289865 
" style="fill:none;stroke:#68b684;stroke-width:1.5;"/>
    <path clip-path="url(#p9421aebbfe)" d="M 182.189524 576.643898 
L 188.388926 576.643898 
" style="fill:none;stroke:#68b684;stroke-width:1.5;"/>
    <path clip-path="url(#p9421aebbfe)" d="M 169.259719 573.038831 
L 175.04107 573.038831 
" style="fill:none;stroke:#68b684;stroke-width:1.5;"/>
    <path clip-path="url(#p9421aebbfe)" d="M 156.585741 567.808265 
L 161.994425 567.808265 
" style="fill:none;stroke:#68b684;stroke-width:1.5;"/>
    <path clip-path="url(#p9421aebbfe)" d="M 147.080475 564.196213 
L 152.172896 564.196213 
" style="fill:none;stroke:#68b684;stroke-width:1.5;"/>
    <path clip-path="url(#p9421aebbfe)" d="M 138.436364 560.150716 
L 143.247193 560.150716 
" style="fill:none;stroke:#68b684;stroke-width:1.5;"/>
   </g>
   <g id="LineCollection_4">
    <path clip-path="url(#p9421aebbfe)" d="M 737.023219 618.768595 
L 737.023219 617.705791 
" style="fill:none;stroke:#68b684;stroke-width:1.5;"/>
    <path clip-path="url(#p9421aebbfe)" d="M 536.162595 613.840232 
L 536.162595 612.750599 
" style="fill:none;stroke:#68b684;stroke-width:1.5;"/>
    <path clip-path="url(#p9421aebbfe)" d="M 418.821337 608.680295 
L 418.821337 607.542015 
" style="fill:none;stroke:#68b684;stroke-width:1.5;"/>
    <path clip-path="url(#p9421aebbfe)" d="M 345.018464 603.629198 
L 345.018464 602.436783 
" style="fill:none;stroke:#68b684;stroke-width:1.5;"/>
    <path clip-path="url(#p9421aebbfe)" d="M 287.675225 597.221452 
L 287.675225 595.951819 
" style="fill:none;stroke:#68b684;stroke-width:1.5;"/>
    <path clip-path="url(#p9421aebbfe)" d="M 253.16309 592.574069 
L 253.16309 591.256659 
" style="fill:none;stroke:#68b684;stroke-width:1.5;"/>
    <path clip-path="url(#p9421aebbfe)" d="M 226.847587 588.183922 
L 226.847587 586.823293 
" style="fill:none;stroke:#68b684;stroke-width:1.5;"/>
    <path clip-path="url(#p9421aebbfe)" d="M 202.40995 582.001619 
L 202.40995 580.578111 
" style="fill:none;stroke:#68b684;stroke-width:1.5;"/>
    <path clip-path="url(#p9421aebbfe)" d="M 185.289225 577.376084 
L 185.289225 575.911713 
" style="fill:none;stroke:#68b684;stroke-width:1.5;"/>
    <path clip-path="url(#p9421aebbfe)" d="M 172.150394 573.785215 
L 172.150394 572.292448 
" style="fill:none;stroke:#68b684;stroke-width:1.5;"/>
    <path clip-path="url(#p9421aebbfe)" d="M 159.290083 568.575908 
L 159.290083 567.040622 
" style="fill:none;stroke:#68b684;stroke-width:1.5;"/>
    <path clip-path="url(#p9421aebbfe)" d="M 149.626685 564.976756 
L 149.626685 563.415671 
" style="fill:none;stroke:#68b684;stroke-width:1.5;"/>
    <path clip-path="url(#p9421aebbfe)" d="M 140.841778 560.945422 
L 140.841778 559.35601 
" style="fill:none;stroke:#68b684;stroke-width:1.5;"/>
   </g>
   <g id="LineCollection_5">
    <path clip-path="url(#p9421aebbfe)" d="M 726.882802 394.892012 
L 747.163636 394.892012 
" style="fill:none;stroke:#1c1018;stroke-width:1.5;"/>
    <path clip-path="url(#p9421aebbfe)" d="M 528.574075 449.508949 
L 543.751115 449.508949 
" style="fill:none;stroke:#1c1018;stroke-width:1.5;"/>
    <path clip-path="url(#p9421aebbfe)" d="M 412.69496 474.104046 
L 424.947713 474.104046 
" style="fill:none;stroke:#1c1018;stroke-width:1.5;"/>
    <path clip-path="url(#p9421aebbfe)" d="M 339.822556 486.893497 
L 350.214371 486.893497 
" style="fill:none;stroke:#1c1018;stroke-width:1.5;"/>
    <path clip-path="url(#p9421aebbfe)" d="M 283.167027 492.358885 
L 292.183422 492.358885 
" style="fill:none;stroke:#1c1018;stroke-width:1.5;"/>
    <path clip-path="url(#p9421aebbfe)" d="M 249.126235 496.196001 
L 257.199944 496.196001 
" style="fill:none;stroke:#1c1018;stroke-width:1.5;"/>
    <path clip-path="url(#p9421aebbfe)" d="M 223.181298 498.165535 
L 230.513876 498.165535 
" style="fill:none;stroke:#1c1018;stroke-width:1.5;"/>
    <path clip-path="url(#p9421aebbfe)" d="M 199.059594 496.915019 
L 205.760307 496.915019 
" style="fill:none;stroke:#1c1018;stroke-width:1.5;"/>
    <path clip-path="url(#p9421aebbfe)" d="M 182.189524 496.239633 
L 188.388926 496.239633 
" style="fill:none;stroke:#1c1018;stroke-width:1.5;"/>
    <path clip-path="url(#p9421aebbfe)" d="M 169.259719 495.883223 
L 175.04107 495.883223 
" style="fill:none;stroke:#1c1018;stroke-width:1.5;"/>
    <path clip-path="url(#p9421aebbfe)" d="M 156.585741 493.359871 
L 161.994425 493.359871 
" style="fill:none;stroke:#1c1018;stroke-width:1.5;"/>
    <path clip-path="url(#p9421aebbfe)" d="M 147.080475 492.03854 
L 152.172896 492.03854 
" style="fill:none;stroke:#1c1018;stroke-width:1.5;"/>
    <path clip-path="url(#p9421aebbfe)" d="M 138.436364 489.956516 
L 143.247193 489.956516 
" style="fill:none;stroke:#1c1018;stroke-width:1.5;"/>
   </g>
   <g id="LineCollection_6">
    <path clip-path="url(#p9421aebbfe)" d="M 737.023219 395.643528 
L 737.023219 394.140496 
" style="fill:none;stroke:#1c1018;stroke-width:1.5;"/>
    <path clip-path="url(#p9421aebbfe)" d="M 536.162595 450.279436 
L 536.162595 448.738463 
" style="fill:none;stroke:#1c1018;stroke-width:1.5;"/>
    <path clip-path="url(#p9421aebbfe)" d="M 418.821337 474.908932 
L 418.821337 473.299161 
" style="fill:none;stroke:#1c1018;stroke-width:1.5;"/>
    <path clip-path="url(#p9421aebbfe)" d="M 345.018464 487.736662 
L 345.018464 486.050332 
" style="fill:none;stroke:#1c1018;stroke-width:1.5;"/>
    <path clip-path="url(#p9421aebbfe)" d="M 287.675225 493.256651 
L 287.675225 491.461118 
" style="fill:none;stroke:#1c1018;stroke-width:1.5;"/>
    <path clip-path="url(#p9421aebbfe)" d="M 253.16309 497.12755 
L 253.16309 495.264451 
" style="fill:none;stroke:#1c1018;stroke-width:1.5;"/>
    <path clip-path="url(#p9421aebbfe)" d="M 226.847587 499.127645 
L 226.847587 497.203425 
" style="fill:none;stroke:#1c1018;stroke-width:1.5;"/>
    <path clip-path="url(#p9421aebbfe)" d="M 202.40995 497.921592 
L 202.40995 495.908447 
" style="fill:none;stroke:#1c1018;stroke-width:1.5;"/>
    <path clip-path="url(#p9421aebbfe)" d="M 185.289225 497.2751 
L 185.289225 495.204166 
" style="fill:none;stroke:#1c1018;stroke-width:1.5;"/>
    <path clip-path="url(#p9421aebbfe)" d="M 172.150394 496.938769 
L 172.150394 494.827677 
" style="fill:none;stroke:#1c1018;stroke-width:1.5;"/>
    <path clip-path="url(#p9421aebbfe)" d="M 159.290083 494.445483 
L 159.290083 492.27426 
" style="fill:none;stroke:#1c1018;stroke-width:1.5;"/>
    <path clip-path="url(#p9421aebbfe)" d="M 149.626685 493.142393 
L 149.626685 490.934686 
" style="fill:none;stroke:#1c1018;stroke-width:1.5;"/>
    <path clip-path="url(#p9421aebbfe)" d="M 140.841778 491.0804 
L 140.841778 488.832632 
" style="fill:none;stroke:#1c1018;stroke-width:1.5;"/>
   </g>
   <g id="line2d_58">
    <path clip-path="url(#p9421aebbfe)" d="M 737.023219 452.945029 
L 536.162595 512.503744 
L 418.821337 542.283101 
L 345.018464 560.150716 
L 287.675225 572.062459 
L 253.16309 580.570847 
L 226.847587 586.952138 
L 202.40995 591.915364 
L 185.289225 595.885945 
L 172.150394 599.134602 
L 159.290083 601.841816 
L 149.626685 604.132536 
L 140.841778 606.09601 
" style="fill:none;stroke:#094d92;stroke-linecap:square;stroke-width:1.5;"/>
   </g>
   <g id="line2d_59">
    <path clip-path="url(#p9421aebbfe)" d="M 737.023219 618.237193 
L 536.162595 613.295415 
L 418.821337 608.111155 
L 345.018464 603.032991 
L 287.675225 596.586636 
L 253.16309 591.915364 
L 226.847587 587.503607 
L 202.40995 581.289865 
L 185.289225 576.643898 
L 172.150394 573.038831 
L 159.290083 567.808265 
L 149.626685 564.196213 
L 140.841778 560.150716 
" style="fill:none;stroke:#68b684;stroke-linecap:square;stroke-width:1.5;"/>
   </g>
   <g id="line2d_60">
    <path clip-path="url(#p9421aebbfe)" d="M 737.023219 394.892012 
L 536.162595 449.508949 
L 418.821337 474.104046 
L 345.018464 486.893497 
L 287.675225 492.358885 
L 253.16309 496.196001 
L 226.847587 498.165535 
L 202.40995 496.915019 
L 185.289225 496.239633 
L 172.150394 495.883223 
L 159.290083 493.359871 
L 149.626685 492.03854 
L 140.841778 489.956516 
" style="fill:none;stroke:#1c1018;stroke-linecap:square;stroke-width:1.5;"/>
   </g>
   <g id="patch_9">
    <path d="M 108 630 
L 108 382.909091 
" style="fill:none;stroke:#000000;stroke-linecap:square;stroke-linejoin:miter;stroke-width:0.8;"/>
   </g>
   <g id="patch_10">
    <path d="M 777.6 630 
L 777.6 382.909091 
" style="fill:none;stroke:#000000;stroke-linecap:square;stroke-linejoin:miter;stroke-width:0.8;"/>
   </g>
   <g id="patch_11">
    <path d="M 108 630 
L 777.6 630 
" style="fill:none;stroke:#000000;stroke-linecap:square;stroke-linejoin:miter;stroke-width:0.8;"/>
   </g>
   <g id="patch_12">
    <path d="M 108 382.909091 
L 777.6 382.909091 
" style="fill:none;stroke:#000000;stroke-linecap:square;stroke-linejoin:miter;stroke-width:0.8;"/>
   </g>
   <g id="text_25">
    <!-- Mit $f_{nom}$ errechnete Werte für $\frac{b}{f}(\beta), \frac{g}{f}(\beta), \frac{e}{f}(\beta)$ -->
    <defs>
     <path d="M 46.796875 0 
L 67.296875 61.171875 
L 67.296875 0 
L 76.09375 0 
L 76.09375 73 
L 63.203125 73 
L 42 9.40625 
L 20.40625 73 
L 7.5 73 
L 7.5 0 
L 16.296875 0 
L 16.296875 61.171875 
L 37 0 
z
" id="Nimbus_Sans_L_Regular-77"/>
     <path d="M 15 52.46875 
L 6.703125 52.46875 
L 6.703125 0 
L 15 0 
z
M 15 73 
L 6.59375 73 
L 6.59375 62.484375 
L 15 62.484375 
z
" id="Nimbus_Sans_L_Regular-105"/>
     <path d="M 20.59375 29.21875 
C 20.796875 29.828125 23.296875 34.8125 27 38 
C 29.59375 40.390625 33 41.984375 36.90625 41.984375 
C 40.90625 41.984375 42.296875 39 42.296875 35.015625 
C 42.296875 29.328125 38.203125 17.953125 36.203125 12.5625 
C 35.296875 10.171875 34.796875 8.875 34.796875 7.078125 
C 34.796875 2.59375 37.90625 -1 42.703125 -1 
C 52 -1 55.5 13.65625 55.5 14.265625 
C 55.5 14.765625 55.09375 15.15625 54.5 15.15625 
C 53.59375 15.15625 53.5 14.859375 53 13.15625 
C 50.703125 4.984375 46.90625 1 43 1 
C 42 1 40.40625 1.09375 40.40625 4.28125 
C 40.40625 6.78125 41.5 9.765625 42.09375 11.171875 
C 44.09375 16.65625 48.296875 27.828125 48.296875 33.515625 
C 48.296875 39.5 44.796875 44 37.203125 44 
C 28.296875 44 23.59375 37.703125 21.796875 35.203125 
C 21.5 40.890625 17.40625 44 13 44 
C 9.796875 44 7.59375 42.09375 5.90625 38.703125 
C 4.09375 35.109375 2.703125 29.125 2.703125 28.71875 
C 2.703125 28.328125 3.09375 27.828125 3.796875 27.828125 
C 4.59375 27.828125 4.703125 27.921875 5.296875 30.21875 
C 6.90625 36.3125 8.703125 41.984375 12.703125 41.984375 
C 15 41.984375 15.796875 40.390625 15.796875 37.40625 
C 15.796875 35.203125 14.796875 31.3125 14.09375 28.234375 
L 11.296875 17.453125 
C 10.90625 15.5625 9.796875 11.0625 9.296875 9.265625 
C 8.59375 6.671875 7.5 1.984375 7.5 1.484375 
C 7.5 0.09375 8.59375 -1 10.09375 -1 
C 11.296875 -1 12.703125 -0.40625 13.5 1.09375 
C 13.703125 1.59375 14.59375 5.078125 15.09375 7.078125 
L 17.296875 16.0625 
z
" id="CMMI12-110"/>
     <path d="M 45.59375 27.421875 
C 45.59375 36.90625 39.40625 44 30.296875 44 
C 17.09375 44 4.09375 29.625 4.09375 15.5625 
C 4.09375 6.078125 10.296875 -1 19.40625 -1 
C 32.703125 -1 45.59375 13.359375 45.59375 27.421875 
z
M 19.5 1 
C 14.5 1 10.796875 4.984375 10.796875 11.96875 
C 10.796875 16.5625 13.203125 26.734375 16 31.71875 
C 20.5 39.40625 26.09375 41.984375 30.203125 41.984375 
C 35.09375 41.984375 38.90625 38 38.90625 31.015625 
C 38.90625 27.03125 36.796875 16.359375 33 10.265625 
C 28.90625 3.59375 23.40625 1 19.5 1 
z
" id="CMMI12-111"/>
     <path d="M 20.59375 29.21875 
C 20.796875 29.828125 23.296875 34.8125 27 38 
C 29.59375 40.390625 33 41.984375 36.90625 41.984375 
C 40.90625 41.984375 42.296875 39 42.296875 35.015625 
C 42.296875 34.40625 42.296875 32.421875 41.09375 27.734375 
L 38.59375 17.453125 
C 37.796875 14.453125 35.90625 7.078125 35.703125 5.984375 
C 35.296875 4.484375 34.703125 1.890625 34.703125 1.484375 
C 34.703125 0.09375 35.796875 -1 37.296875 -1 
C 40.296875 -1 40.796875 1.296875 41.703125 4.890625 
L 47.703125 28.71875 
C 47.90625 29.53125 53.09375 41.984375 64.09375 41.984375 
C 68.09375 41.984375 69.5 39 69.5 35.015625 
C 69.5 29.421875 65.59375 18.546875 63.40625 12.5625 
C 62.5 10.171875 62 8.875 62 7.078125 
C 62 2.59375 65.09375 -1 69.90625 -1 
C 79.203125 -1 82.703125 13.65625 82.703125 14.265625 
C 82.703125 14.765625 82.296875 15.15625 81.703125 15.15625 
C 80.796875 15.15625 80.703125 14.859375 80.203125 13.15625 
C 77.90625 5.1875 74.203125 1 70.203125 1 
C 69.203125 1 67.59375 1.09375 67.59375 4.28125 
C 67.59375 6.875 68.796875 10.078125 69.203125 11.171875 
C 71 15.953125 75.5 27.734375 75.5 33.515625 
C 75.5 39.5 72 44 64.40625 44 
C 57.703125 44 52.296875 40.203125 48.296875 34.3125 
C 48 39.703125 44.703125 44 37.203125 44 
C 28.296875 44 23.59375 37.703125 21.796875 35.203125 
C 21.5 40.890625 17.40625 44 13 44 
C 10.09375 44 7.796875 42.59375 5.90625 38.796875 
C 4.09375 35.203125 2.703125 29.125 2.703125 28.71875 
C 2.703125 28.328125 3.09375 27.828125 3.796875 27.828125 
C 4.59375 27.828125 4.703125 27.921875 5.296875 30.21875 
C 6.796875 36.109375 8.703125 41.984375 12.703125 41.984375 
C 15 41.984375 15.796875 40.390625 15.796875 37.40625 
C 15.796875 35.203125 14.796875 31.3125 14.09375 28.234375 
L 11.296875 17.453125 
C 10.90625 15.5625 9.796875 11.0625 9.296875 9.265625 
C 8.59375 6.671875 7.5 1.984375 7.5 1.484375 
C 7.5 0.09375 8.59375 -1 10.09375 -1 
C 11.296875 -1 12.703125 -0.40625 13.5 1.09375 
C 13.703125 1.59375 14.59375 5.078125 15.09375 7.078125 
L 17.296875 16.0625 
z
" id="CMMI12-109"/>
     <path d="M 47.09375 34.953125 
C 46.703125 40.015625 45.59375 43.296875 43.59375 46.1875 
C 40 51.09375 33.703125 54 26.40625 54 
C 12.296875 54 3.09375 42.8125 3.09375 25.5 
C 3.09375 8.671875 12.09375 -2 26.296875 -2 
C 38.796875 -2 46.703125 5.5 47.703125 18.234375 
L 39.296875 18.234375 
C 37.90625 9.875 33.59375 5.6875 26.5 5.6875 
C 17.296875 5.6875 11.796875 13.15625 11.796875 25.5 
C 11.796875 38.53125 17.203125 46.296875 26.296875 46.296875 
C 33.296875 46.296875 37.703125 42.203125 38.703125 34.953125 
z
" id="Nimbus_Sans_L_Regular-99"/>
     <path d="M 7 73 
L 7 0 
L 15.296875 0 
L 15.296875 28.953125 
C 15.296875 39.671875 20.90625 46.6875 29.5 46.6875 
C 32.203125 46.6875 34.90625 45.78125 36.90625 44.28125 
C 39.296875 42.578125 40.296875 40.078125 40.296875 36.375 
L 40.296875 0 
L 48.59375 0 
L 48.59375 39.671875 
C 48.59375 48.484375 42.296875 54 32.09375 54 
C 24.703125 54 20.203125 51.6875 15.296875 45.28125 
L 15.296875 73 
z
" id="Nimbus_Sans_L_Regular-104"/>
     <path d="M 7 52 
L 7 0 
L 15.40625 0 
L 15.40625 28.671875 
C 15.40625 39.671875 21 46.6875 29.59375 46.6875 
C 36.203125 46.6875 40.40625 42.6875 40.40625 36.375 
L 40.40625 0 
L 48.703125 0 
L 48.703125 39.671875 
C 48.703125 48.390625 42.203125 54 32.09375 54 
C 24.296875 54 19.296875 50.984375 14.703125 43.6875 
L 14.703125 52 
z
" id="Nimbus_Sans_L_Regular-110"/>
    </defs>
    <g transform="translate(232.033816 372.559383)scale(0.216 -0.216)">
     <use transform="scale(0.996264)" xlink:href="#Nimbus_Sans_L_Regular-77"/>
     <use transform="translate(82.98843 0)scale(0.996264)" xlink:href="#Nimbus_Sans_L_Regular-105"/>
     <use transform="translate(105.105215 0)scale(0.996264)" xlink:href="#Nimbus_Sans_L_Regular-116"/>
     <use transform="translate(160.495554 0)scale(0.996264)" xlink:href="#CMMI12-102"/>
     <use transform="translate(208.578791 -14.943915)scale(0.697382)" xlink:href="#CMMI12-110"/>
     <use transform="translate(249.339635 -14.943915)scale(0.697382)" xlink:href="#CMMI12-111"/>
     <use transform="translate(282.166196 -14.943915)scale(0.697382)" xlink:href="#CMMI12-109"/>
     <use transform="translate(370.088289 0)scale(0.996264)" xlink:href="#Nimbus_Sans_L_Regular-101"/>
     <use transform="translate(425.479966 0)scale(0.996264)" xlink:href="#Nimbus_Sans_L_Regular-114"/>
     <use transform="translate(458.655196 0)scale(0.996264)" xlink:href="#Nimbus_Sans_L_Regular-114"/>
     <use transform="translate(491.830425 0)scale(0.996264)" xlink:href="#Nimbus_Sans_L_Regular-101"/>
     <use transform="translate(547.222102 0)scale(0.996264)" xlink:href="#Nimbus_Sans_L_Regular-99"/>
     <use transform="translate(597.035303 0)scale(0.996264)" xlink:href="#Nimbus_Sans_L_Regular-104"/>
     <use transform="translate(652.42698 0)scale(0.996264)" xlink:href="#Nimbus_Sans_L_Regular-110"/>
     <use transform="translate(707.818657 0)scale(0.996264)" xlink:href="#Nimbus_Sans_L_Regular-101"/>
     <use transform="translate(763.210334 0)scale(0.996264)" xlink:href="#Nimbus_Sans_L_Regular-116"/>
     <use transform="translate(790.905503 0)scale(0.996264)" xlink:href="#Nimbus_Sans_L_Regular-101"/>
     <use transform="translate(873.99235 0)scale(0.996264)" xlink:href="#Nimbus_Sans_L_Regular-87"/>
     <use transform="translate(965.051011 0)scale(0.996264)" xlink:href="#Nimbus_Sans_L_Regular-101"/>
     <use transform="translate(1020.442688 0)scale(0.996264)" xlink:href="#Nimbus_Sans_L_Regular-114"/>
     <use transform="translate(1057.602016 0)scale(0.996264)" xlink:href="#Nimbus_Sans_L_Regular-116"/>
     <use transform="translate(1085.297186 0)scale(0.996264)" xlink:href="#Nimbus_Sans_L_Regular-101"/>
     <use transform="translate(1168.384032 0)scale(0.996264)" xlink:href="#Nimbus_Sans_L_Regular-102"/>
     <use transform="translate(1207.187433 -0.249309)scale(0.996264)" xlink:href="#Nimbus_Sans_L_Regular-168"/>
     <use transform="translate(1196.079202 0)scale(0.996264)" xlink:href="#Nimbus_Sans_L_Regular-117"/>
     <use transform="translate(1251.470879 0)scale(0.996264)" xlink:href="#Nimbus_Sans_L_Regular-114"/>
     <use transform="translate(1319.57231 39.226102)scale(0.697382)" xlink:href="#CMMI12-98"/>
     <use transform="translate(1313.536792 -34.355253)scale(0.697382)" xlink:href="#CMMI12-102"/>
     <use transform="translate(1355.836329 0)scale(0.996264)" xlink:href="#CMR17-40"/>
     <use transform="translate(1391.117097 0)scale(0.996264)" xlink:href="#CMMI12-12"/>
     <use transform="translate(1451.711113 0)scale(0.996264)" xlink:href="#CMR17-41"/>
     <use transform="translate(1486.99188 0)scale(0.996264)" xlink:href="#CMMI12-59"/>
     <use transform="translate(1534.841147 44.444174)scale(0.697382)" xlink:href="#CMMI12-103"/>
     <use transform="translate(1531.888977 -34.355253)scale(0.697382)" xlink:href="#CMMI12-102"/>
     <use transform="translate(1574.188514 0)scale(0.996264)" xlink:href="#CMR17-40"/>
     <use transform="translate(1609.469281 0)scale(0.996264)" xlink:href="#CMMI12-12"/>
     <use transform="translate(1670.063297 0)scale(0.996264)" xlink:href="#CMR17-41"/>
     <use transform="translate(1705.344065 0)scale(0.996264)" xlink:href="#CMMI12-59"/>
     <use transform="translate(1754.969052 39.226102)scale(0.697382)" xlink:href="#CMMI12-101"/>
     <use transform="translate(1750.241161 -34.355253)scale(0.697382)" xlink:href="#CMMI12-102"/>
     <use transform="translate(1792.540698 0)scale(0.996264)" xlink:href="#CMR17-40"/>
     <use transform="translate(1827.821466 0)scale(0.996264)" xlink:href="#CMMI12-12"/>
     <use transform="translate(1888.415482 0)scale(0.996264)" xlink:href="#CMR17-41"/>
     <path d="M 1313.536792 22.914133 
L 1354.640815 22.914133 
L 1354.640815 26.899083 
L 1313.536792 26.899083 
L 1313.536792 22.914133 
z
"/>
     <path d="M 1531.888977 22.914133 
L 1572.993 22.914133 
L 1572.993 26.899083 
L 1531.888977 26.899083 
L 1531.888977 22.914133 
z
"/>
     <path d="M 1750.241161 22.914133 
L 1791.345184 22.914133 
L 1791.345184 26.899083 
L 1750.241161 26.899083 
L 1750.241161 22.914133 
z
"/>
    </g>
   </g>
   <g id="legend_2">
    <g id="patch_13">
     <path d="M 527.441331 556.91408 
L 765 556.91408 
Q 768.6 556.91408 768.6 553.31408 
L 768.6 459.595011 
Q 768.6 455.995011 765 455.995011 
L 527.441331 455.995011 
Q 523.841331 455.995011 523.841331 459.595011 
L 523.841331 553.31408 
Q 523.841331 556.91408 527.441331 556.91408 
z
" style="fill:#ffffff;opacity:0.8;stroke:#cccccc;stroke-linejoin:miter;"/>
    </g>
    <g id="LineCollection_7">
     <path d="M 540.041331 472.672956 
L 558.041331 472.672956 
" style="fill:none;stroke:#094d92;stroke-width:1.5;"/>
    </g>
    <g id="LineCollection_8">
     <path d="M 549.041331 481.672956 
L 549.041331 463.672956 
" style="fill:none;stroke:#094d92;stroke-width:1.5;"/>
    </g>
    <g id="line2d_61">
     <path d="M 531.041331 472.672956 
L 567.041331 472.672956 
" style="fill:none;stroke:#094d92;stroke-linecap:square;stroke-width:1.5;"/>
    </g>
    <g id="line2d_62"/>
    <g id="text_26">
     <!-- $\frac{b}{f}(\beta)$ mit $f_{nom}$ errechnet -->
     <defs>
      <path d="M 7 52 
L 7 0 
L 15.40625 0 
L 15.40625 32.640625 
C 15.40625 40.578125 20.90625 46.6875 27.703125 46.6875 
C 33.90625 46.6875 37.40625 42.875 37.40625 36.171875 
L 37.40625 0 
L 45.796875 0 
L 45.796875 32.953125 
C 45.796875 40.578125 51.296875 46.6875 58.09375 46.6875 
C 64.203125 46.6875 67.796875 42.78125 67.796875 36.171875 
L 67.796875 0 
L 76.203125 0 
L 76.203125 39.375 
C 76.203125 48.796875 70.796875 54 61 54 
C 54 54 49.796875 51.890625 44.90625 45.984375 
C 41.796875 51.59375 37.59375 54 30.796875 54 
C 23.796875 54 19.203125 51.390625 14.703125 45.09375 
L 14.703125 52 
z
" id="Nimbus_Sans_L_Regular-109"/>
     </defs>
     <g transform="translate(581.441331 478.972956)scale(0.18 -0.18)">
      <use transform="translate(6.035518 39.226102)scale(0.697382)" xlink:href="#CMMI12-98"/>
      <use transform="translate(0 -34.355253)scale(0.697382)" xlink:href="#CMMI12-102"/>
      <use transform="translate(42.299537 0)scale(0.996264)" xlink:href="#CMR17-40"/>
      <use transform="translate(77.580305 0)scale(0.996264)" xlink:href="#CMMI12-12"/>
      <use transform="translate(138.174321 0)scale(0.996264)" xlink:href="#CMR17-41"/>
      <use transform="translate(201.150258 0)scale(0.996264)" xlink:href="#Nimbus_Sans_L_Regular-109"/>
      <use transform="translate(284.138688 0)scale(0.996264)" xlink:href="#Nimbus_Sans_L_Regular-105"/>
      <use transform="translate(306.255473 0)scale(0.996264)" xlink:href="#Nimbus_Sans_L_Regular-116"/>
      <use transform="translate(361.645812 0)scale(0.996264)" xlink:href="#CMMI12-102"/>
      <use transform="translate(409.72905 -14.943915)scale(0.697382)" xlink:href="#CMMI12-110"/>
      <use transform="translate(450.489893 -14.943915)scale(0.697382)" xlink:href="#CMMI12-111"/>
      <use transform="translate(483.316454 -14.943915)scale(0.697382)" xlink:href="#CMMI12-109"/>
      <use transform="translate(571.238547 0)scale(0.996264)" xlink:href="#Nimbus_Sans_L_Regular-101"/>
      <use transform="translate(626.630224 0)scale(0.996264)" xlink:href="#Nimbus_Sans_L_Regular-114"/>
      <use transform="translate(659.805454 0)scale(0.996264)" xlink:href="#Nimbus_Sans_L_Regular-114"/>
      <use transform="translate(692.980683 0)scale(0.996264)" xlink:href="#Nimbus_Sans_L_Regular-101"/>
      <use transform="translate(748.37236 0)scale(0.996264)" xlink:href="#Nimbus_Sans_L_Regular-99"/>
      <use transform="translate(798.185561 0)scale(0.996264)" xlink:href="#Nimbus_Sans_L_Regular-104"/>
      <use transform="translate(853.577238 0)scale(0.996264)" xlink:href="#Nimbus_Sans_L_Regular-110"/>
      <use transform="translate(908.968915 0)scale(0.996264)" xlink:href="#Nimbus_Sans_L_Regular-101"/>
      <use transform="translate(964.360592 0)scale(0.996264)" xlink:href="#Nimbus_Sans_L_Regular-116"/>
      <path d="M 0 22.914133 
L 41.104023 22.914133 
L 41.104023 26.899083 
L 0 26.899083 
L 0 22.914133 
z
"/>
     </g>
    </g>
    <g id="LineCollection_9">
     <path d="M 540.041331 503.731137 
L 558.041331 503.731137 
" style="fill:none;stroke:#68b684;stroke-width:1.5;"/>
    </g>
    <g id="LineCollection_10">
     <path d="M 549.041331 512.731137 
L 549.041331 494.731137 
" style="fill:none;stroke:#68b684;stroke-width:1.5;"/>
    </g>
    <g id="line2d_63">
     <path d="M 531.041331 503.731137 
L 567.041331 503.731137 
" style="fill:none;stroke:#68b684;stroke-linecap:square;stroke-width:1.5;"/>
    </g>
    <g id="line2d_64"/>
    <g id="text_27">
     <!-- $\frac{g}{f}(\beta)$ mit $f_{nom}$ errechnet -->
     <g transform="translate(581.441331 510.031137)scale(0.18 -0.18)">
      <use transform="translate(2.952171 44.444174)scale(0.697382)" xlink:href="#CMMI12-103"/>
      <use transform="translate(0 -34.355253)scale(0.697382)" xlink:href="#CMMI12-102"/>
      <use transform="translate(42.299537 0)scale(0.996264)" xlink:href="#CMR17-40"/>
      <use transform="translate(77.580305 0)scale(0.996264)" xlink:href="#CMMI12-12"/>
      <use transform="translate(138.174321 0)scale(0.996264)" xlink:href="#CMR17-41"/>
      <use transform="translate(201.150258 0)scale(0.996264)" xlink:href="#Nimbus_Sans_L_Regular-109"/>
      <use transform="translate(284.138688 0)scale(0.996264)" xlink:href="#Nimbus_Sans_L_Regular-105"/>
      <use transform="translate(306.255473 0)scale(0.996264)" xlink:href="#Nimbus_Sans_L_Regular-116"/>
      <use transform="translate(361.645812 0)scale(0.996264)" xlink:href="#CMMI12-102"/>
      <use transform="translate(409.72905 -14.943915)scale(0.697382)" xlink:href="#CMMI12-110"/>
      <use transform="translate(450.489893 -14.943915)scale(0.697382)" xlink:href="#CMMI12-111"/>
      <use transform="translate(483.316454 -14.943915)scale(0.697382)" xlink:href="#CMMI12-109"/>
      <use transform="translate(571.238547 0)scale(0.996264)" xlink:href="#Nimbus_Sans_L_Regular-101"/>
      <use transform="translate(626.630224 0)scale(0.996264)" xlink:href="#Nimbus_Sans_L_Regular-114"/>
      <use transform="translate(659.805454 0)scale(0.996264)" xlink:href="#Nimbus_Sans_L_Regular-114"/>
      <use transform="translate(692.980683 0)scale(0.996264)" xlink:href="#Nimbus_Sans_L_Regular-101"/>
      <use transform="translate(748.37236 0)scale(0.996264)" xlink:href="#Nimbus_Sans_L_Regular-99"/>
      <use transform="translate(798.185561 0)scale(0.996264)" xlink:href="#Nimbus_Sans_L_Regular-104"/>
      <use transform="translate(853.577238 0)scale(0.996264)" xlink:href="#Nimbus_Sans_L_Regular-110"/>
      <use transform="translate(908.968915 0)scale(0.996264)" xlink:href="#Nimbus_Sans_L_Regular-101"/>
      <use transform="translate(964.360592 0)scale(0.996264)" xlink:href="#Nimbus_Sans_L_Regular-116"/>
      <path d="M 0 22.914133 
L 41.104023 22.914133 
L 41.104023 26.899083 
L 0 26.899083 
L 0 22.914133 
z
"/>
     </g>
    </g>
    <g id="LineCollection_11">
     <path d="M 540.041331 534.789319 
L 558.041331 534.789319 
" style="fill:none;stroke:#1c1018;stroke-width:1.5;"/>
    </g>
    <g id="LineCollection_12">
     <path d="M 549.041331 543.789319 
L 549.041331 525.789319 
" style="fill:none;stroke:#1c1018;stroke-width:1.5;"/>
    </g>
    <g id="line2d_65">
     <path d="M 531.041331 534.789319 
L 567.041331 534.789319 
" style="fill:none;stroke:#1c1018;stroke-linecap:square;stroke-width:1.5;"/>
    </g>
    <g id="line2d_66"/>
    <g id="text_28">
     <!-- $\frac{e}{f}(\beta)$ mit $f_{nom}$ errechnet -->
     <g transform="translate(581.441331 541.089319)scale(0.18 -0.18)">
      <use transform="translate(4.727891 39.226102)scale(0.697382)" xlink:href="#CMMI12-101"/>
      <use transform="translate(0 -34.355253)scale(0.697382)" xlink:href="#CMMI12-102"/>
      <use transform="translate(42.299537 0)scale(0.996264)" xlink:href="#CMR17-40"/>
      <use transform="translate(77.580305 0)scale(0.996264)" xlink:href="#CMMI12-12"/>
      <use transform="translate(138.174321 0)scale(0.996264)" xlink:href="#CMR17-41"/>
      <use transform="translate(201.150258 0)scale(0.996264)" xlink:href="#Nimbus_Sans_L_Regular-109"/>
      <use transform="translate(284.138688 0)scale(0.996264)" xlink:href="#Nimbus_Sans_L_Regular-105"/>
      <use transform="translate(306.255473 0)scale(0.996264)" xlink:href="#Nimbus_Sans_L_Regular-116"/>
      <use transform="translate(361.645812 0)scale(0.996264)" xlink:href="#CMMI12-102"/>
      <use transform="translate(409.72905 -14.943915)scale(0.697382)" xlink:href="#CMMI12-110"/>
      <use transform="translate(450.489893 -14.943915)scale(0.697382)" xlink:href="#CMMI12-111"/>
      <use transform="translate(483.316454 -14.943915)scale(0.697382)" xlink:href="#CMMI12-109"/>
      <use transform="translate(571.238547 0)scale(0.996264)" xlink:href="#Nimbus_Sans_L_Regular-101"/>
      <use transform="translate(626.630224 0)scale(0.996264)" xlink:href="#Nimbus_Sans_L_Regular-114"/>
      <use transform="translate(659.805454 0)scale(0.996264)" xlink:href="#Nimbus_Sans_L_Regular-114"/>
      <use transform="translate(692.980683 0)scale(0.996264)" xlink:href="#Nimbus_Sans_L_Regular-101"/>
      <use transform="translate(748.37236 0)scale(0.996264)" xlink:href="#Nimbus_Sans_L_Regular-99"/>
      <use transform="translate(798.185561 0)scale(0.996264)" xlink:href="#Nimbus_Sans_L_Regular-104"/>
      <use transform="translate(853.577238 0)scale(0.996264)" xlink:href="#Nimbus_Sans_L_Regular-110"/>
      <use transform="translate(908.968915 0)scale(0.996264)" xlink:href="#Nimbus_Sans_L_Regular-101"/>
      <use transform="translate(964.360592 0)scale(0.996264)" xlink:href="#Nimbus_Sans_L_Regular-116"/>
      <path d="M 0 22.914133 
L 41.104023 22.914133 
L 41.104023 26.899083 
L 0 26.899083 
L 0 22.914133 
z
"/>
     </g>
    </g>
   </g>
  </g>
 </g>
 <defs>
  <clipPath id="pb01dee0d07">
   <rect height="247.090909" width="669.6" x="108" y="86.4"/>
  </clipPath>
  <clipPath id="p9421aebbfe">
   <rect height="247.090909" width="669.6" x="108" y="382.909091"/>
  </clipPath>
 </defs>
</svg>
