<?xml version="1.0" encoding="utf-8" standalone="no"?>
<!DOCTYPE svg PUBLIC "-//W3C//DTD SVG 1.1//EN"
  "http://www.w3.org/Graphics/SVG/1.1/DTD/svg11.dtd">
<!-- Created with matplotlib (https://matplotlib.org/) -->
<svg height="864pt" version="1.1" viewBox="0 0 720 864" width="720pt" xmlns="http://www.w3.org/2000/svg" xmlns:xlink="http://www.w3.org/1999/xlink">
 <defs>
  <style type="text/css">
*{stroke-linecap:butt;stroke-linejoin:round;}
  </style>
 </defs>
 <g id="figure_1">
  <g id="patch_1">
   <path d="M 0 864 
L 720 864 
L 720 0 
L 0 0 
z
" style="fill:#ffffff;"/>
  </g>
  <g id="axes_1">
   <g id="patch_2">
    <path d="M 90 400.189091 
L 648 400.189091 
L 648 103.68 
L 90 103.68 
z
" style="fill:#ffffff;"/>
   </g>
   <g id="matplotlib.axis_1">
    <g id="xtick_1">
     <g id="line2d_1">
      <path clip-path="url(#p7791f15ddb)" d="M 101.680815 400.189091 
L 101.680815 103.68 
" style="fill:none;stroke:#b0b0b0;stroke-linecap:square;stroke-width:0.8;"/>
     </g>
     <g id="line2d_2">
      <defs>
       <path d="M 0 0 
L 0 3.5 
" id="m36a5084841" style="stroke:#000000;stroke-width:0.8;"/>
      </defs>
      <g>
       <use style="stroke:#000000;stroke-width:0.8;" x="101.680815" xlink:href="#m36a5084841" y="400.189091"/>
      </g>
     </g>
    </g>
    <g id="xtick_2">
     <g id="line2d_3">
      <path clip-path="url(#p7791f15ddb)" d="M 187.961152 400.189091 
L 187.961152 103.68 
" style="fill:none;stroke:#b0b0b0;stroke-linecap:square;stroke-width:0.8;"/>
     </g>
     <g id="line2d_4">
      <g>
       <use style="stroke:#000000;stroke-width:0.8;" x="187.961152" xlink:href="#m36a5084841" y="400.189091"/>
      </g>
     </g>
    </g>
    <g id="xtick_3">
     <g id="line2d_5">
      <path clip-path="url(#p7791f15ddb)" d="M 274.241489 400.189091 
L 274.241489 103.68 
" style="fill:none;stroke:#b0b0b0;stroke-linecap:square;stroke-width:0.8;"/>
     </g>
     <g id="line2d_6">
      <g>
       <use style="stroke:#000000;stroke-width:0.8;" x="274.241489" xlink:href="#m36a5084841" y="400.189091"/>
      </g>
     </g>
    </g>
    <g id="xtick_4">
     <g id="line2d_7">
      <path clip-path="url(#p7791f15ddb)" d="M 360.521826 400.189091 
L 360.521826 103.68 
" style="fill:none;stroke:#b0b0b0;stroke-linecap:square;stroke-width:0.8;"/>
     </g>
     <g id="line2d_8">
      <g>
       <use style="stroke:#000000;stroke-width:0.8;" x="360.521826" xlink:href="#m36a5084841" y="400.189091"/>
      </g>
     </g>
    </g>
    <g id="xtick_5">
     <g id="line2d_9">
      <path clip-path="url(#p7791f15ddb)" d="M 446.802162 400.189091 
L 446.802162 103.68 
" style="fill:none;stroke:#b0b0b0;stroke-linecap:square;stroke-width:0.8;"/>
     </g>
     <g id="line2d_10">
      <g>
       <use style="stroke:#000000;stroke-width:0.8;" x="446.802162" xlink:href="#m36a5084841" y="400.189091"/>
      </g>
     </g>
    </g>
    <g id="xtick_6">
     <g id="line2d_11">
      <path clip-path="url(#p7791f15ddb)" d="M 533.082499 400.189091 
L 533.082499 103.68 
" style="fill:none;stroke:#b0b0b0;stroke-linecap:square;stroke-width:0.8;"/>
     </g>
     <g id="line2d_12">
      <g>
       <use style="stroke:#000000;stroke-width:0.8;" x="533.082499" xlink:href="#m36a5084841" y="400.189091"/>
      </g>
     </g>
    </g>
    <g id="xtick_7">
     <g id="line2d_13">
      <path clip-path="url(#p7791f15ddb)" d="M 619.362836 400.189091 
L 619.362836 103.68 
" style="fill:none;stroke:#b0b0b0;stroke-linecap:square;stroke-width:0.8;"/>
     </g>
     <g id="line2d_14">
      <g>
       <use style="stroke:#000000;stroke-width:0.8;" x="619.362836" xlink:href="#m36a5084841" y="400.189091"/>
      </g>
     </g>
    </g>
    <g id="text_1">
     <!-- $\beta$ -->
     <defs>
      <path d="M 56.59375 58.421875 
C 56.59375 64.546875 51.5 71 42.40625 71 
C 29.5 71 21.296875 54.84375 18.703125 44.21875 
L 2.90625 -18 
C 2.703125 -18.8125 3.296875 -19 3.796875 -19 
C 4.5 -19 5 -18.90625 5.09375 -18.40625 
L 12.09375 9.25 
C 13.09375 3.609375 18.59375 -1 24.5 -1 
C 38.796875 -1 52.296875 10.265625 52.296875 25.28125 
C 52.296875 29.109375 51.40625 32.9375 49.296875 36.15625 
C 48.09375 38.078125 46.59375 39.484375 45 40.609375 
C 52.203125 44.109375 56.59375 50.34375 56.59375 58.421875 
z
M 39.203125 40.703125 
C 37.59375 40.171875 36 40 34.09375 40 
C 32.703125 40 31.40625 39.890625 29.59375 40.4375 
C 30.59375 41.046875 32.09375 41.234375 34.203125 41.234375 
C 36 41.234375 37.796875 41.046875 39.203125 40.703125 
z
M 51.40625 59.34375 
C 51.40625 53.71875 48.703125 45.546875 42.203125 41.9375 
C 40.296875 42.546875 37.703125 43 35.5 43 
C 33.40625 43 27.40625 43.203125 27.40625 40.34375 
C 27.40625 37.671875 32.90625 37.96875 34.59375 37.96875 
C 37.203125 37.96875 39.5 38.578125 41.90625 39.28125 
C 45.09375 36.671875 46.5 33.234375 46.5 28.203125 
C 46.5 22.359375 44.90625 17.625 43 13.28125 
C 39.703125 5.828125 31.90625 1 25 1 
C 17.703125 1 13.90625 6.84375 13.90625 13.6875 
C 13.90625 14.59375 13.90625 15.90625 14.296875 17.421875 
L 20.796875 43.5 
C 24.09375 56.890625 32.5 68.953125 42.203125 68.953125 
C 49.40625 68.953125 51.40625 63.84375 51.40625 59.34375 
z
" id="CMMI12-12"/>
     </defs>
     <g transform="translate(364.594341 415.546403)scale(0.16 -0.16)">
      <use transform="scale(0.996264)" xlink:href="#CMMI12-12"/>
     </g>
    </g>
   </g>
   <g id="matplotlib.axis_2">
    <g id="ytick_1">
     <g id="line2d_15">
      <path clip-path="url(#p7791f15ddb)" d="M 90 343.9251 
L 648 343.9251 
" style="fill:none;stroke:#b0b0b0;stroke-linecap:square;stroke-width:0.8;"/>
     </g>
     <g id="line2d_16">
      <defs>
       <path d="M 0 0 
L -3.5 0 
" id="m11638505d8" style="stroke:#000000;stroke-width:0.8;"/>
      </defs>
      <g>
       <use style="stroke:#000000;stroke-width:0.8;" x="90" xlink:href="#m11638505d8" y="343.9251"/>
      </g>
     </g>
     <g id="text_2">
      <!-- $\mathdefault{2}$ -->
      <defs>
       <path d="M 41.703125 15.46875 
L 39.90625 15.46875 
C 38.90625 8.390625 38.09375 7.1875 37.703125 6.59375 
C 37.203125 5.796875 30 5.796875 28.59375 5.796875 
L 9.40625 5.796875 
C 13 9.6875 20 16.765625 28.5 24.9375 
C 34.59375 30.71875 41.703125 37.5 41.703125 47.390625 
C 41.703125 59.1875 32.296875 66 21.796875 66 
C 10.796875 66 4.09375 56.296875 4.09375 47.296875 
C 4.09375 43.390625 7 42.890625 8.203125 42.890625 
C 9.203125 42.890625 12.203125 43.484375 12.203125 46.984375 
C 12.203125 50.09375 9.59375 51 8.203125 51 
C 7.59375 51 7 50.890625 6.59375 50.6875 
C 8.5 59.1875 14.296875 63.390625 20.40625 63.390625 
C 29.09375 63.390625 34.796875 56.5 34.796875 47.390625 
C 34.796875 38.703125 29.703125 31.21875 24 24.734375 
L 4.09375 2.296875 
L 4.09375 0 
L 39.296875 0 
z
" id="CMR17-50"/>
      </defs>
      <g transform="translate(74.775714 350.313589)scale(0.18 -0.18)">
       <use transform="scale(0.996264)" xlink:href="#CMR17-50"/>
      </g>
     </g>
    </g>
    <g id="ytick_2">
     <g id="line2d_17">
      <path clip-path="url(#p7791f15ddb)" d="M 90 284.024274 
L 648 284.024274 
" style="fill:none;stroke:#b0b0b0;stroke-linecap:square;stroke-width:0.8;"/>
     </g>
     <g id="line2d_18">
      <g>
       <use style="stroke:#000000;stroke-width:0.8;" x="90" xlink:href="#m11638505d8" y="284.024274"/>
      </g>
     </g>
     <g id="text_3">
      <!-- $\mathdefault{3}$ -->
      <defs>
       <path d="M 22.09375 34 
C 31 34 34.90625 26.140625 34.90625 17.09375 
C 34.90625 5.03125 28.5 0.390625 22.703125 0.390625 
C 17.40625 0.390625 8.796875 3.015625 6.09375 10.796875 
C 6.59375 10.59375 7.09375 10.59375 7.59375 10.59375 
C 10 10.59375 11.796875 12.1875 11.796875 14.796875 
C 11.796875 17.6875 9.59375 19 7.59375 19 
C 5.90625 19 3.296875 18.1875 3.296875 14.484375 
C 3.296875 5.234375 12.296875 -2 22.90625 -2 
C 34 -2 42.5 6.75 42.5 16.984375 
C 42.5 26.84375 34.5 34 25 35.09375 
C 32.59375 36.671875 39.90625 43.375 39.90625 52.390625 
C 39.90625 60.25 32 66 23 66 
C 13.90625 66 5.90625 60.34375 5.90625 52.296875 
C 5.90625 48.796875 8.5 48.1875 9.796875 48.1875 
C 11.90625 48.1875 13.703125 49.484375 13.703125 52.09375 
C 13.703125 54.6875 11.90625 56 9.796875 56 
C 9.40625 56 8.90625 56 8.5 55.796875 
C 11.40625 62.484375 19.296875 63.6875 22.796875 63.6875 
C 26.296875 63.6875 32.90625 61.96875 32.90625 52.296875 
C 32.90625 49.484375 32.5 44.546875 29.09375 40.21875 
C 26.09375 36.390625 22.703125 36.1875 19.40625 35.890625 
C 18.90625 35.890625 16.59375 35.6875 16.203125 35.6875 
C 15.5 35.59375 15.09375 35.5 15.09375 34.796875 
C 15.09375 34.09375 15.203125 34 17.203125 34 
z
" id="CMR17-51"/>
      </defs>
      <g transform="translate(74.775714 290.412762)scale(0.18 -0.18)">
       <use transform="scale(0.996264)" xlink:href="#CMR17-51"/>
      </g>
     </g>
    </g>
    <g id="ytick_3">
     <g id="line2d_19">
      <path clip-path="url(#p7791f15ddb)" d="M 90 224.123447 
L 648 224.123447 
" style="fill:none;stroke:#b0b0b0;stroke-linecap:square;stroke-width:0.8;"/>
     </g>
     <g id="line2d_20">
      <g>
       <use style="stroke:#000000;stroke-width:0.8;" x="90" xlink:href="#m11638505d8" y="224.123447"/>
      </g>
     </g>
     <g id="text_4">
      <!-- $\mathdefault{4}$ -->
      <defs>
       <path d="M 33.59375 64.796875 
C 33.59375 66.890625 33.5 67 31.703125 67 
L 2 19.59375 
L 2 17 
L 27.796875 17 
L 27.796875 7.1875 
C 27.796875 3.59375 27.59375 2.59375 20.59375 2.59375 
L 18.703125 2.59375 
L 18.703125 0 
C 21.90625 0.1875 27.296875 0.1875 30.703125 0.1875 
C 34.09375 0.1875 39.5 0.1875 42.703125 0 
L 42.703125 2.59375 
L 40.796875 2.59375 
C 33.796875 2.59375 33.59375 3.59375 33.59375 7.1875 
L 33.59375 17 
L 43.796875 17 
L 43.796875 19.59375 
L 33.59375 19.59375 
z
M 28.09375 58.171875 
L 28.09375 19.59375 
L 4 19.59375 
z
" id="CMR17-52"/>
      </defs>
      <g transform="translate(74.775714 230.511936)scale(0.18 -0.18)">
       <use transform="scale(0.996264)" xlink:href="#CMR17-52"/>
      </g>
     </g>
    </g>
    <g id="ytick_4">
     <g id="line2d_21">
      <path clip-path="url(#p7791f15ddb)" d="M 90 164.222621 
L 648 164.222621 
" style="fill:none;stroke:#b0b0b0;stroke-linecap:square;stroke-width:0.8;"/>
     </g>
     <g id="line2d_22">
      <g>
       <use style="stroke:#000000;stroke-width:0.8;" x="90" xlink:href="#m11638505d8" y="164.222621"/>
      </g>
     </g>
     <g id="text_5">
      <!-- $\mathdefault{5}$ -->
      <defs>
       <path d="M 11.40625 58.59375 
C 12.40625 58.1875 16.5 56.890625 20.703125 56.890625 
C 30 56.890625 35.09375 61.890625 38 64.6875 
C 38 65.484375 38 66 37.40625 66 
C 37.296875 66 37.09375 66 36.296875 65.59375 
C 32.796875 64.09375 28.703125 63 23.703125 63 
C 20.703125 63 16.203125 63.359375 11.296875 65.484375 
C 10.203125 66 10 66 9.90625 66 
C 9.40625 66 9.296875 65.890625 9.296875 63.90625 
L 9.296875 34.859375 
C 9.296875 33.015625 9.296875 32.5 10.296875 32.5 
C 10.796875 32.5 11 32.703125 11.5 33.421875 
C 14.703125 38.046875 19.09375 40 24.09375 40 
C 27.59375 40 35.09375 37.734375 35.09375 20.203125 
C 35.09375 16.984375 35.09375 11.1875 32.09375 6.59375 
C 29.59375 2.484375 25.703125 0.390625 21.40625 0.390625 
C 14.796875 0.390625 8.09375 4.984375 6.296875 12.6875 
C 6.703125 12.59375 7.5 12.390625 7.90625 12.390625 
C 9.203125 12.390625 11.703125 13.09375 11.703125 16.1875 
C 11.703125 18.890625 9.796875 20 7.90625 20 
C 5.59375 20 4.09375 18.59375 4.09375 15.796875 
C 4.09375 7.09375 11 -2 21.59375 -2 
C 31.90625 -2 41.703125 6.890625 41.703125 19.796875 
C 41.703125 32.09375 33.90625 41.59375 24.203125 41.59375 
C 19.09375 41.59375 14.796875 39.6875 11.40625 36 
z
" id="CMR17-53"/>
      </defs>
      <g transform="translate(74.775714 170.611109)scale(0.18 -0.18)">
       <use transform="scale(0.996264)" xlink:href="#CMR17-53"/>
      </g>
     </g>
    </g>
    <g id="ytick_5">
     <g id="line2d_23">
      <path clip-path="url(#p7791f15ddb)" d="M 90 104.321795 
L 648 104.321795 
" style="fill:none;stroke:#b0b0b0;stroke-linecap:square;stroke-width:0.8;"/>
     </g>
     <g id="line2d_24">
      <g>
       <use style="stroke:#000000;stroke-width:0.8;" x="90" xlink:href="#m11638505d8" y="104.321795"/>
      </g>
     </g>
     <g id="text_6">
      <!-- $\mathdefault{6}$ -->
      <defs>
       <path d="M 10.59375 34.34375 
C 10.59375 58 21.796875 63.6875 28.296875 63.6875 
C 30.40625 63.6875 35.5 63.265625 37.5 59.09375 
C 35.90625 59.09375 32.90625 59.09375 32.90625 55.59375 
C 32.90625 52.890625 35.09375 52 36.5 52 
C 37.40625 52 40.09375 52.390625 40.09375 55.796875 
C 40.09375 62.296875 35.09375 66 28.203125 66 
C 16.296875 66 3.796875 53.296875 3.796875 31.421875 
C 3.796875 4.015625 15.09375 -2 23.09375 -2 
C 32.796875 -2 42 6.734375 42 20.234375 
C 42 32.828125 33.90625 42 23.703125 42 
C 17.59375 42 13.09375 37.96875 10.59375 30.921875 
z
M 23.09375 0.390625 
C 10.796875 0.390625 10.796875 18.9375 10.796875 22.65625 
C 10.796875 29.90625 14.203125 40.390625 23.5 40.390625 
C 25.203125 40.390625 30.09375 40.390625 33.40625 33.4375 
C 35.203125 29.515625 35.203125 25.375 35.203125 20.34375 
C 35.203125 14.90625 35.203125 10.875 33.09375 6.84375 
C 30.90625 2.703125 27.703125 0.390625 23.09375 0.390625 
z
" id="CMR17-54"/>
      </defs>
      <g transform="translate(74.775714 110.710283)scale(0.18 -0.18)">
       <use transform="scale(0.996264)" xlink:href="#CMR17-54"/>
      </g>
     </g>
    </g>
    <g id="text_7">
     <!-- $\frac{b}{f}(\beta), \frac{g}{f}(\beta), \frac{e}{f}(\beta)$ -->
     <defs>
      <path d="M 23.09375 66.484375 
C 23.203125 66.890625 23.40625 67.484375 23.40625 67.984375 
C 23.40625 69 22.40625 69 22.203125 69 
C 22.09375 69 18.5 68.6875 16.703125 68.484375 
C 15 68.390625 13.5 68.1875 11.703125 68.09375 
C 9.296875 67.890625 8.59375 67.796875 8.59375 65.984375 
C 8.59375 64.984375 9.59375 64.984375 10.59375 64.984375 
C 15.703125 64.984375 15.703125 64.109375 15.703125 63.125 
C 15.703125 62.421875 14.90625 59.5625 14.5 57.796875 
L 12.09375 48.328125 
C 11.09375 44.390625 5.40625 21.75 5 19.953125 
C 4.5 17.453125 4.5 15.75 4.5 14.453125 
C 4.5 4.28125 10.203125 -1 16.703125 -1 
C 28.296875 -1 40.296875 13.859375 40.296875 28.328125 
C 40.296875 37.5 35.09375 44 27.59375 44 
C 22.40625 44 17.703125 39.703125 15.796875 37.703125 
z
M 16.796875 1 
C 13.59375 1 10.09375 3.390625 10.09375 11.171875 
C 10.09375 14.453125 10.40625 16.359375 12.203125 23.34375 
C 12.5 24.640625 14.09375 31.015625 14.5 32.3125 
C 14.703125 33.109375 20.59375 41.984375 27.40625 41.984375 
C 31.796875 41.984375 33.796875 37.609375 33.796875 32.421875 
C 33.796875 27.625 31 16.359375 28.5 11.171875 
C 26 5.78125 21.40625 1 16.796875 1 
z
" id="CMMI12-98"/>
      <path d="M 44.59375 40.09375 
C 46.59375 40.09375 47.40625 40.09375 47.40625 41.984375 
C 47.40625 43 46.59375 43 44.796875 43 
L 36.703125 43 
C 38.59375 53.09375 40 60.09375 40.796875 63.296875 
C 41.40625 65.6875 43.5 67.984375 46.09375 67.984375 
C 48.203125 67.984375 50.296875 67.09375 51.296875 66.1875 
C 47.40625 65.796875 46.203125 62.890625 46.203125 61.1875 
C 46.203125 59.1875 47.703125 58 49.59375 58 
C 51.59375 58 54.59375 59.6875 54.59375 63.5 
C 54.59375 67.6875 50.40625 70 46 70 
C 41.703125 70 37.5 66.796875 35.5 62.890625 
C 33.703125 59.390625 32.703125 55.828125 30.40625 43 
L 23.703125 43 
C 21.796875 43 20.796875 43 20.796875 41.1875 
C 20.796875 40.09375 21.40625 40.09375 23.40625 40.09375 
L 29.796875 40.09375 
C 28 30.890625 23.90625 8.515625 21.59375 -2.0625 
C 19.90625 -10.703125 18.40625 -18 13.40625 -18 
C 13.09375 -18 10.203125 -18 8.40625 -16.109375 
C 13.5 -15.703125 13.5 -11.3125 13.5 -11.203125 
C 13.5 -9.203125 12 -8 10.09375 -8 
C 8.09375 -8 5.09375 -9.703125 5.09375 -13.515625 
C 5.09375 -17.8125 9.5 -20 13.40625 -20 
C 23.59375 -20 27.796875 -1.765625 28.90625 3.171875 
C 30.703125 10.796875 35.59375 37.125 36.09375 40.09375 
z
" id="CMMI12-102"/>
      <path d="M 30.59375 -24.40625 
C 30.59375 -24.3125 30.59375 -24.109375 30.296875 -23.8125 
C 25.703125 -19.109375 13.40625 -6.296875 13.40625 24.9375 
C 13.40625 56.171875 25.5 68.875 30.40625 73.890625 
C 30.40625 73.984375 30.59375 74.1875 30.59375 74.484375 
C 30.59375 74.796875 30.296875 75 29.90625 75 
C 28.796875 75 20.296875 67.578125 15.40625 56.5625 
C 10.40625 45.453125 9 34.65625 9 25.046875 
C 9 17.828125 9.703125 5.625 15.703125 -7.296875 
C 20.5 -17.703125 28.703125 -25 29.90625 -25 
C 30.40625 -25 30.59375 -24.8125 30.59375 -24.40625 
z
" id="CMR17-40"/>
      <path d="M 26.296875 24.9375 
C 26.296875 32.140625 25.59375 44.359375 19.59375 57.265625 
C 14.796875 67.6875 6.59375 75 5.40625 75 
C 5.09375 75 4.703125 74.890625 4.703125 74.390625 
C 4.703125 74.1875 4.796875 74.09375 4.90625 73.890625 
C 9.703125 68.875 21.90625 56.171875 21.90625 25.046875 
C 21.90625 -6.1875 9.796875 -18.90625 4.90625 -23.90625 
C 4.796875 -24.109375 4.703125 -24.203125 4.703125 -24.40625 
C 4.703125 -24.90625 5.09375 -25 5.40625 -25 
C 6.5 -25 15 -17.609375 19.90625 -6.59375 
C 24.90625 4.515625 26.296875 15.328125 26.296875 24.9375 
z
" id="CMR17-41"/>
      <path d="M 19.5 -0.40625 
C 19.5 5.390625 17.59375 9.6875 13.5 9.6875 
C 10.296875 9.6875 8.703125 7.09375 8.703125 4.890625 
C 8.703125 2.6875 10.203125 0 13.59375 0 
C 14.90625 0 16 0.390625 16.90625 1.296875 
C 17.09375 1.5 17.203125 1.5 17.296875 1.5 
C 17.5 1.5 17.5 0.09375 17.5 -0.40625 
C 17.5 -3.640625 16.90625 -10.03125 11.09375 -16.421875 
C 10 -17.609375 10 -17.8125 10 -18 
C 10 -18.5 10.5 -19 11 -19 
C 11.796875 -19 19.5 -11.703125 19.5 -0.40625 
z
" id="CMMI12-59"/>
      <path d="M 33.796875 12.671875 
C 33.40625 11.0625 33.203125 10.671875 31.90625 9.171875 
C 27.796875 3.890625 23.59375 2 20.5 2 
C 17.203125 2 14.09375 4.578125 14.09375 11.46875 
C 14.09375 16.75 17.09375 27.921875 19.296875 32.421875 
C 22.203125 38 26.703125 41.984375 30.90625 41.984375 
C 37.5 41.984375 38.796875 33.8125 38.796875 33.21875 
L 38.5 31.8125 
z
M 40 37.40625 
C 38.703125 40.296875 35.90625 44 30.90625 44 
C 20 44 7.59375 30.328125 7.59375 15.453125 
C 7.59375 5.078125 13.90625 0 20.296875 0 
C 25.59375 0 30.296875 4.1875 32.09375 6.1875 
L 29.90625 -2.75 
C 28.5 -8.125 27.90625 -10.578125 24.296875 -14 
C 20.203125 -18 16.40625 -18 14.203125 -18 
C 11.203125 -18 8.703125 -17.8125 6.203125 -17.03125 
C 9.40625 -16.15625 10.203125 -13.40625 10.203125 -12.328125 
C 10.203125 -10.765625 9 -9.203125 6.796875 -9.203125 
C 4.40625 -9.203125 1.796875 -11.15625 1.796875 -14.390625 
C 1.796875 -18.40625 5.90625 -20 14.40625 -20 
C 27.296875 -20 34 -11.84375 35.296875 -6.5625 
L 46.40625 37.90625 
C 46.703125 39.09375 46.703125 39.296875 46.703125 39.5 
C 46.703125 40.890625 45.59375 42 44.09375 42 
C 41.703125 42 40.296875 40 40 37.3125 
z
" id="CMMI12-103"/>
      <path d="M 17.90625 23 
C 20.59375 23 27.40625 23.1875 32.203125 25 
C 39.796875 27.90625 40.5 33.75 40.5 35.546875 
C 40.5 39.984375 36.703125 44 30.09375 44 
C 19.59375 44 4.5 34.453125 4.5 16.65625 
C 4.5 6.25 10.5 -1 19.59375 -1 
C 33.203125 -1 41.796875 9.515625 41.796875 10.796875 
C 41.796875 11.390625 41.203125 11.890625 40.796875 11.890625 
C 40.5 11.890625 40.40625 11.796875 39.5 10.90625 
C 33.09375 2.484375 23.59375 1 19.796875 1 
C 14.09375 1 11.09375 5.453125 11.09375 12.78125 
C 11.09375 14.171875 11.09375 16.65625 12.59375 23 
z
M 13.09375 25 
C 17.40625 40.484375 26.90625 41.984375 30.09375 41.984375 
C 34.5 41.984375 37.5 39.375 37.5 35.546875 
C 37.5 25 21.5 25 17.296875 25 
z
" id="CMMI12-101"/>
     </defs>
     <g transform="translate(63.109242 304.663288)rotate(-90)scale(0.16 -0.16)">
      <use transform="translate(6.035518 39.226102)scale(0.697382)" xlink:href="#CMMI12-98"/>
      <use transform="translate(0 -34.355253)scale(0.697382)" xlink:href="#CMMI12-102"/>
      <use transform="translate(42.299537 0)scale(0.996264)" xlink:href="#CMR17-40"/>
      <use transform="translate(77.580305 0)scale(0.996264)" xlink:href="#CMMI12-12"/>
      <use transform="translate(138.174321 0)scale(0.996264)" xlink:href="#CMR17-41"/>
      <use transform="translate(173.455088 0)scale(0.996264)" xlink:href="#CMMI12-59"/>
      <use transform="translate(221.304355 44.444174)scale(0.697382)" xlink:href="#CMMI12-103"/>
      <use transform="translate(218.352185 -34.355253)scale(0.697382)" xlink:href="#CMMI12-102"/>
      <use transform="translate(260.651722 0)scale(0.996264)" xlink:href="#CMR17-40"/>
      <use transform="translate(295.932489 0)scale(0.996264)" xlink:href="#CMMI12-12"/>
      <use transform="translate(356.526505 0)scale(0.996264)" xlink:href="#CMR17-41"/>
      <use transform="translate(391.807273 0)scale(0.996264)" xlink:href="#CMMI12-59"/>
      <use transform="translate(441.43226 39.226102)scale(0.697382)" xlink:href="#CMMI12-101"/>
      <use transform="translate(436.704369 -34.355253)scale(0.697382)" xlink:href="#CMMI12-102"/>
      <use transform="translate(479.003906 0)scale(0.996264)" xlink:href="#CMR17-40"/>
      <use transform="translate(514.284674 0)scale(0.996264)" xlink:href="#CMMI12-12"/>
      <use transform="translate(574.87869 0)scale(0.996264)" xlink:href="#CMR17-41"/>
      <path d="M 0 22.914133 
L 41.104023 22.914133 
L 41.104023 26.899083 
L 0 26.899083 
L 0 22.914133 
z
"/>
      <path d="M 218.352185 22.914133 
L 259.456208 22.914133 
L 259.456208 26.899083 
L 218.352185 26.899083 
L 218.352185 22.914133 
z
"/>
      <path d="M 436.704369 22.914133 
L 477.808392 22.914133 
L 477.808392 26.899083 
L 436.704369 26.899083 
L 436.704369 22.914133 
z
"/>
     </g>
    </g>
   </g>
   <g id="line2d_25">
    <path clip-path="url(#p7791f15ddb)" d="M 118.936882 367.885431 
L 123.99169 366.13076 
L 129.046497 364.37609 
L 134.101305 362.621419 
L 139.156112 360.866748 
L 144.21092 359.112078 
L 149.265728 357.357407 
L 154.320535 355.602736 
L 159.375343 353.848066 
L 164.430151 352.093395 
L 169.484958 350.338724 
L 174.539766 348.584054 
L 179.594573 346.829383 
L 184.649381 345.074712 
L 189.704189 343.320042 
L 194.758996 341.565371 
L 199.813804 339.8107 
L 204.868612 338.056029 
L 209.923419 336.301359 
L 214.978227 334.546688 
L 220.033034 332.792017 
L 225.087842 331.037347 
L 230.14265 329.282676 
L 235.197457 327.528005 
L 240.252265 325.773335 
L 245.307073 324.018664 
L 250.36188 322.263993 
L 255.416688 320.509323 
L 260.471495 318.754652 
L 265.526303 316.999981 
L 270.581111 315.245311 
L 275.635918 313.49064 
L 280.690726 311.735969 
L 285.745533 309.981299 
L 290.800341 308.226628 
L 295.855149 306.471957 
L 300.909956 304.717287 
L 305.964764 302.962616 
L 311.019572 301.207945 
L 316.074379 299.453275 
L 321.129187 297.698604 
L 326.183994 295.943933 
L 331.238802 294.189263 
L 336.29361 292.434592 
L 341.348417 290.679921 
L 346.403225 288.925251 
L 351.458033 287.17058 
L 356.51284 285.415909 
L 361.567648 283.661239 
L 366.622455 281.906568 
L 371.677263 280.151897 
L 376.732071 278.397227 
L 381.786878 276.642556 
L 386.841686 274.887885 
L 391.896493 273.133215 
L 396.951301 271.378544 
L 402.006109 269.623873 
L 407.060916 267.869203 
L 412.115724 266.114532 
L 417.170532 264.359861 
L 422.225339 262.605191 
L 427.280147 260.85052 
L 432.334954 259.095849 
L 437.389762 257.341178 
L 442.44457 255.586508 
L 447.499377 253.831837 
L 452.554185 252.077166 
L 457.608993 250.322496 
L 462.6638 248.567825 
L 467.718608 246.813154 
L 472.773415 245.058484 
L 477.828223 243.303813 
L 482.883031 241.549142 
L 487.937838 239.794472 
L 492.992646 238.039801 
L 498.047454 236.28513 
L 503.102261 234.53046 
L 508.157069 232.775789 
L 513.211876 231.021118 
L 518.266684 229.266448 
L 523.321492 227.511777 
L 528.376299 225.757106 
L 533.431107 224.002436 
L 538.485914 222.247765 
L 543.540722 220.493094 
L 548.59553 218.738424 
L 553.650337 216.983753 
L 558.705145 215.229082 
L 563.759953 213.474412 
L 568.81476 211.719741 
L 573.869568 209.96507 
L 578.924375 208.2104 
L 583.979183 206.455729 
L 589.033991 204.701058 
L 594.088798 202.946388 
L 599.143606 201.191717 
L 604.198414 199.437046 
L 609.253221 197.682376 
L 614.308029 195.927705 
L 619.362836 194.173034 
" style="fill:none;stroke:#094d92;stroke-linecap:square;stroke-width:1.5;"/>
   </g>
   <g id="line2d_26">
    <path clip-path="url(#p7791f15ddb)" d="M 118.936882 303.991216 
L 123.99169 308.638418 
L 129.046497 312.872218 
L 134.101305 316.74543 
L 139.156112 320.302239 
L 144.21092 323.579894 
L 149.265728 326.610018 
L 154.320535 329.41963 
L 159.375343 332.031958 
L 164.430151 334.467075 
L 169.484958 336.742422 
L 174.539766 338.873223 
L 179.594573 340.872829 
L 184.649381 342.752994 
L 189.704189 344.524109 
L 194.758996 346.195394 
L 199.813804 347.775059 
L 204.868612 349.270436 
L 209.923419 350.688097 
L 214.978227 352.033946 
L 220.033034 353.313305 
L 225.087842 354.530982 
L 230.14265 355.691334 
L 235.197457 356.798315 
L 240.252265 357.855525 
L 245.307073 358.866247 
L 250.36188 359.83348 
L 255.416688 360.759973 
L 260.471495 361.648247 
L 265.526303 362.500618 
L 270.581111 363.31922 
L 275.635918 364.106022 
L 280.690726 364.86284 
L 285.745533 365.591357 
L 290.800341 366.29313 
L 295.855149 366.969607 
L 300.909956 367.622131 
L 305.964764 368.251951 
L 311.019572 368.860232 
L 316.074379 369.448061 
L 321.129187 370.016452 
L 326.183994 370.566354 
L 331.238802 371.098654 
L 336.29361 371.614184 
L 341.348417 372.113725 
L 346.403225 372.598008 
L 351.458033 373.067722 
L 356.51284 373.523516 
L 361.567648 373.965998 
L 366.622455 374.395744 
L 371.677263 374.813296 
L 376.732071 375.219165 
L 381.786878 375.613834 
L 386.841686 375.997762 
L 391.896493 376.371381 
L 396.951301 376.735101 
L 402.006109 377.089309 
L 407.060916 377.434374 
L 412.115724 377.770646 
L 417.170532 378.098457 
L 422.225339 378.418121 
L 427.280147 378.729939 
L 432.334954 379.034197 
L 437.389762 379.331165 
L 442.44457 379.621103 
L 447.499377 379.904258 
L 452.554185 380.180864 
L 457.608993 380.451146 
L 462.6638 380.71532 
L 467.718608 380.973588 
L 472.773415 381.226149 
L 477.828223 381.473187 
L 482.883031 381.714883 
L 487.937838 381.951409 
L 492.992646 382.182927 
L 498.047454 382.409597 
L 503.102261 382.631567 
L 508.157069 382.848984 
L 513.211876 383.061985 
L 518.266684 383.270704 
L 523.321492 383.475269 
L 528.376299 383.675802 
L 533.431107 383.872421 
L 538.485914 384.065241 
L 543.540722 384.25437 
L 548.59553 384.439912 
L 553.650337 384.62197 
L 558.705145 384.80064 
L 563.759953 384.976016 
L 568.81476 385.148189 
L 573.869568 385.317244 
L 578.924375 385.483267 
L 583.979183 385.646338 
L 589.033991 385.806535 
L 594.088798 385.963933 
L 599.143606 386.118606 
L 604.198414 386.270622 
L 609.253221 386.420051 
L 614.308029 386.566958 
L 619.362836 386.711405 
" style="fill:none;stroke:#68b684;stroke-linecap:square;stroke-width:1.5;"/>
   </g>
   <g id="line2d_27">
    <path clip-path="url(#p7791f15ddb)" d="M 118.936882 208.149894 
L 123.99169 211.042425 
L 129.046497 213.521554 
L 134.101305 215.640096 
L 139.156112 217.442234 
L 144.21092 218.965218 
L 149.265728 220.240671 
L 154.320535 221.295613 
L 159.375343 222.15327 
L 164.430151 222.833717 
L 169.484958 223.354393 
L 174.539766 223.730524 
L 179.594573 223.975459 
L 184.649381 224.100952 
L 189.704189 224.117397 
L 194.758996 224.034012 
L 199.813804 223.859006 
L 204.868612 223.599713 
L 209.923419 223.262702 
L 214.978227 222.853881 
L 220.033034 222.378569 
L 225.087842 221.841576 
L 230.14265 221.247257 
L 235.197457 220.599567 
L 240.252265 219.902107 
L 245.307073 219.158157 
L 250.36188 218.37072 
L 255.416688 217.542543 
L 260.471495 216.676146 
L 265.526303 215.773846 
L 270.581111 214.837778 
L 275.635918 213.869909 
L 280.690726 212.872056 
L 285.745533 211.845902 
L 290.800341 210.793005 
L 295.855149 209.714811 
L 300.909956 208.612664 
L 305.964764 207.487813 
L 311.019572 206.341424 
L 316.074379 205.174583 
L 321.129187 203.988303 
L 326.183994 202.783534 
L 331.238802 201.561163 
L 336.29361 200.322023 
L 341.348417 199.066893 
L 346.403225 197.796505 
L 351.458033 196.511549 
L 356.51284 195.212672 
L 361.567648 193.900484 
L 366.622455 192.575559 
L 371.677263 191.23844 
L 376.732071 189.889638 
L 381.786878 188.529637 
L 386.841686 187.158894 
L 391.896493 185.777843 
L 396.951301 184.386891 
L 402.006109 182.986429 
L 407.060916 181.576824 
L 412.115724 180.158425 
L 417.170532 178.731565 
L 422.225339 177.296559 
L 427.280147 175.853706 
L 432.334954 174.403293 
L 437.389762 172.94559 
L 442.44457 171.480858 
L 447.499377 170.009341 
L 452.554185 168.531277 
L 457.608993 167.046889 
L 462.6638 165.556391 
L 467.718608 164.05999 
L 472.773415 162.557879 
L 477.828223 161.050247 
L 482.883031 159.537273 
L 487.937838 158.019127 
L 492.992646 156.495975 
L 498.047454 154.967974 
L 503.102261 153.435274 
L 508.157069 151.898019 
L 513.211876 150.35635 
L 518.266684 148.810398 
L 523.321492 147.260292 
L 528.376299 145.706155 
L 533.431107 144.148104 
L 538.485914 142.586253 
L 543.540722 141.020711 
L 548.59553 139.451583 
L 553.650337 137.87897 
L 558.705145 136.302969 
L 563.759953 134.723675 
L 568.81476 133.141177 
L 573.869568 131.555562 
L 578.924375 129.966914 
L 583.979183 128.375314 
L 589.033991 126.78084 
L 594.088798 125.183568 
L 599.143606 123.583569 
L 604.198414 121.980915 
L 609.253221 120.375674 
L 614.308029 118.767909 
L 619.362836 117.157686 
" style="fill:none;stroke:#1c1018;stroke-linecap:square;stroke-width:1.5;"/>
   </g>
   <g id="patch_3">
    <path d="M 90 400.189091 
L 90 103.68 
" style="fill:none;stroke:#000000;stroke-linecap:square;stroke-linejoin:miter;stroke-width:0.8;"/>
   </g>
   <g id="patch_4">
    <path d="M 648 400.189091 
L 648 103.68 
" style="fill:none;stroke:#000000;stroke-linecap:square;stroke-linejoin:miter;stroke-width:0.8;"/>
   </g>
   <g id="patch_5">
    <path d="M 90 400.189091 
L 648 400.189091 
" style="fill:none;stroke:#000000;stroke-linecap:square;stroke-linejoin:miter;stroke-width:0.8;"/>
   </g>
   <g id="patch_6">
    <path d="M 90 103.68 
L 648 103.68 
" style="fill:none;stroke:#000000;stroke-linecap:square;stroke-linejoin:miter;stroke-width:0.8;"/>
   </g>
   <g id="text_8">
    <!-- Erwartete Werte für $\frac{b}{f}(\beta), \frac{g}{f}(\beta), \frac{e}{f}(\beta)$ -->
    <defs>
     <path d="M 18.296875 33 
L 58 33 
L 58 41.1875 
L 18.296875 41.1875 
L 18.296875 64.796875 
L 59.5 64.796875 
L 59.5 73 
L 9 73 
L 9 0 
L 61.296875 0 
L 61.296875 8.1875 
L 18.296875 8.1875 
z
" id="Nimbus_Sans_L_Regular-69"/>
     <path d="M 6.90625 52 
L 6.90625 0 
L 15.296875 0 
L 15.296875 26.984375 
C 15.296875 34.421875 17.203125 39.28125 21.203125 42.15625 
C 23.796875 44.046875 26.296875 44.640625 32.09375 44.734375 
L 32.09375 53.1875 
C 30.703125 53.890625 30 54 28.90625 54 
C 23.5 54 19.40625 50.796875 14.59375 42.96875 
L 14.59375 52 
z
" id="Nimbus_Sans_L_Regular-114"/>
     <path d="M 55.40625 0 
L 70.796875 52 
L 61.40625 52 
L 51 11.515625 
L 40.703125 52 
L 30.5 52 
L 20.5 11.515625 
L 9.796875 52 
L 0.59375 52 
L 15.796875 0 
L 25.203125 0 
L 35.296875 40.765625 
L 45.90625 0 
z
" id="Nimbus_Sans_L_Regular-119"/>
     <path d="M 53.5 5.1875 
C 52.59375 5 52.203125 5 51.703125 5 
C 48.796875 5 47.203125 6.484375 47.203125 9.078125 
L 47.203125 39.71875 
C 47.203125 48.984375 40.40625 54 27.5 54 
C 19.90625 54 13.59375 51.796875 10.09375 47.890625 
C 7.703125 45.203125 6.703125 42.21875 6.5 37.03125 
L 14.90625 37.03125 
C 15.59375 43.40625 19.40625 46.296875 27.203125 46.296875 
C 34.703125 46.296875 38.90625 43.5 38.90625 38.53125 
L 38.90625 36.34375 
C 38.90625 32.859375 36.796875 31.359375 30.203125 30.5625 
C 18.40625 29.078125 16.59375 28.671875 13.40625 27.390625 
C 7.296875 24.890625 4.203125 20.21875 4.203125 13.453125 
C 4.203125 4 10.796875 -2 21.40625 -2 
C 28 -2 33.296875 0.296875 39.203125 5.6875 
C 39.796875 0.390625 42.40625 -2 47.796875 -2 
C 49.5 -2 50.796875 -1.8125 53.5 -1.109375 
z
M 38.90625 16.734375 
C 38.90625 13.953125 38.09375 12.265625 35.59375 9.96875 
C 32.203125 6.890625 28.09375 5.296875 23.203125 5.296875 
C 16.703125 5.296875 12.90625 8.375 12.90625 13.65625 
C 12.90625 19.125 16.59375 21.90625 25.5 23.203125 
C 34.296875 24.40625 36.09375 24.796875 38.90625 26.09375 
z
" id="Nimbus_Sans_L_Regular-97"/>
     <path d="M 25.40625 52 
L 16.796875 52 
L 16.796875 66.390625 
L 8.5 66.390625 
L 8.5 52 
L 1.40625 52 
L 1.40625 45.1875 
L 8.5 45.1875 
L 8.5 6.28125 
C 8.5 1 12.09375 -2 18.59375 -2 
C 20.59375 -2 22.59375 -1.8125 25.40625 -1.3125 
L 25.40625 5.6875 
C 24.296875 5.390625 23 5.296875 21.40625 5.296875 
C 17.796875 5.296875 16.796875 6.28125 16.796875 9.90625 
L 16.796875 45.1875 
L 25.40625 45.1875 
z
" id="Nimbus_Sans_L_Regular-116"/>
     <path d="M 51.296875 23.1875 
C 51.296875 31.21875 50.703125 36.109375 49.203125 40.078125 
C 45.796875 48.796875 37.796875 54 28 54 
C 13.40625 54 4 42.71875 4 25.296875 
C 4 8.515625 13.09375 -2 27.796875 -2 
C 39.796875 -2 48.09375 4.796875 50.203125 15.90625 
L 41.796875 15.90625 
C 39.5 9.1875 34.796875 5.6875 28.09375 5.6875 
C 22.796875 5.6875 18.296875 8.03125 15.5 12.296875 
C 13.5 15.21875 12.796875 18.140625 12.703125 23.1875 
z
M 12.90625 30 
C 13.59375 39.875 19.5 46.296875 27.90625 46.296875 
C 36.09375 46.296875 42.40625 39.359375 42.40625 30.609375 
C 42.40625 30.40625 42.40625 30.203125 42.296875 30 
z
" id="Nimbus_Sans_L_Regular-101"/>
     <path d="M 74.40625 0 
L 92.90625 73 
L 82.5 73 
L 69.09375 13.703125 
L 52.5 73 
L 42.5 73 
L 26.296875 13.703125 
L 12.59375 73 
L 2.203125 73 
L 20.90625 0 
L 31.09375 0 
L 47.40625 59.96875 
L 64.203125 0 
z
" id="Nimbus_Sans_L_Regular-87"/>
     <path d="M 25.796875 52 
L 17.09375 52 
L 17.09375 60.3125 
C 17.09375 63.859375 19.09375 65.6875 22.90625 65.6875 
C 23.59375 65.6875 23.90625 65.6875 25.796875 65.59375 
L 25.796875 72.484375 
C 23.90625 72.890625 22.796875 73 21.09375 73 
C 13.40625 73 8.796875 68.59375 8.796875 61.015625 
L 8.796875 52 
L 1.796875 52 
L 1.796875 45.1875 
L 8.796875 45.1875 
L 8.796875 0 
L 17.09375 0 
L 17.09375 45.1875 
L 25.796875 45.1875 
z
" id="Nimbus_Sans_L_Regular-102"/>
     <path d="M 13.40625 71.296875 
L 3 71.296875 
L 3 61 
L 13.40625 61 
z
M 29.59375 71.296875 
L 19.203125 71.296875 
L 19.203125 61 
L 29.59375 61 
z
" id="Nimbus_Sans_L_Regular-168"/>
     <path d="M 48.203125 0.296875 
L 48.203125 52 
L 39.90625 52 
L 39.90625 22.71875 
C 39.90625 12.1875 34.296875 5.296875 25.59375 5.296875 
C 19 5.296875 14.796875 9.234375 14.796875 15.4375 
L 14.796875 52 
L 6.5 52 
L 6.5 12.1875 
C 6.5 3.59375 13 -2 23.203125 -2 
C 30.90625 -2 35.796875 0.6875 40.703125 7.5625 
L 40.703125 0.296875 
z
" id="Nimbus_Sans_L_Regular-117"/>
    </defs>
    <g transform="translate(221.508461 97.68)scale(0.192 -0.192)">
     <use transform="scale(0.996264)" xlink:href="#Nimbus_Sans_L_Regular-69"/>
     <use transform="translate(66.450031 0)scale(0.996264)" xlink:href="#Nimbus_Sans_L_Regular-114"/>
     <use transform="translate(99.625261 0)scale(0.996264)" xlink:href="#Nimbus_Sans_L_Regular-119"/>
     <use transform="translate(170.061853 0)scale(0.996264)" xlink:href="#Nimbus_Sans_L_Regular-97"/>
     <use transform="translate(225.45353 0)scale(0.996264)" xlink:href="#Nimbus_Sans_L_Regular-114"/>
     <use transform="translate(262.612858 0)scale(0.996264)" xlink:href="#Nimbus_Sans_L_Regular-116"/>
     <use transform="translate(290.308028 0)scale(0.996264)" xlink:href="#Nimbus_Sans_L_Regular-101"/>
     <use transform="translate(345.699705 0)scale(0.996264)" xlink:href="#Nimbus_Sans_L_Regular-116"/>
     <use transform="translate(373.394874 0)scale(0.996264)" xlink:href="#Nimbus_Sans_L_Regular-101"/>
     <use transform="translate(456.481721 0)scale(0.996264)" xlink:href="#Nimbus_Sans_L_Regular-87"/>
     <use transform="translate(547.540382 0)scale(0.996264)" xlink:href="#Nimbus_Sans_L_Regular-101"/>
     <use transform="translate(602.932059 0)scale(0.996264)" xlink:href="#Nimbus_Sans_L_Regular-114"/>
     <use transform="translate(640.091387 0)scale(0.996264)" xlink:href="#Nimbus_Sans_L_Regular-116"/>
     <use transform="translate(667.786557 0)scale(0.996264)" xlink:href="#Nimbus_Sans_L_Regular-101"/>
     <use transform="translate(750.873403 0)scale(0.996264)" xlink:href="#Nimbus_Sans_L_Regular-102"/>
     <use transform="translate(789.676804 -0.249309)scale(0.996264)" xlink:href="#Nimbus_Sans_L_Regular-168"/>
     <use transform="translate(778.568573 0)scale(0.996264)" xlink:href="#Nimbus_Sans_L_Regular-117"/>
     <use transform="translate(833.96025 0)scale(0.996264)" xlink:href="#Nimbus_Sans_L_Regular-114"/>
     <use transform="translate(902.061681 39.226102)scale(0.697382)" xlink:href="#CMMI12-98"/>
     <use transform="translate(896.026163 -34.355253)scale(0.697382)" xlink:href="#CMMI12-102"/>
     <use transform="translate(938.3257 0)scale(0.996264)" xlink:href="#CMR17-40"/>
     <use transform="translate(973.606468 0)scale(0.996264)" xlink:href="#CMMI12-12"/>
     <use transform="translate(1034.200484 0)scale(0.996264)" xlink:href="#CMR17-41"/>
     <use transform="translate(1069.481251 0)scale(0.996264)" xlink:href="#CMMI12-59"/>
     <use transform="translate(1117.330518 44.444174)scale(0.697382)" xlink:href="#CMMI12-103"/>
     <use transform="translate(1114.378347 -34.355253)scale(0.697382)" xlink:href="#CMMI12-102"/>
     <use transform="translate(1156.677885 0)scale(0.996264)" xlink:href="#CMR17-40"/>
     <use transform="translate(1191.958652 0)scale(0.996264)" xlink:href="#CMMI12-12"/>
     <use transform="translate(1252.552668 0)scale(0.996264)" xlink:href="#CMR17-41"/>
     <use transform="translate(1287.833436 0)scale(0.996264)" xlink:href="#CMMI12-59"/>
     <use transform="translate(1337.458423 39.226102)scale(0.697382)" xlink:href="#CMMI12-101"/>
     <use transform="translate(1332.730532 -34.355253)scale(0.697382)" xlink:href="#CMMI12-102"/>
     <use transform="translate(1375.030069 0)scale(0.996264)" xlink:href="#CMR17-40"/>
     <use transform="translate(1410.310837 0)scale(0.996264)" xlink:href="#CMMI12-12"/>
     <use transform="translate(1470.904853 0)scale(0.996264)" xlink:href="#CMR17-41"/>
     <path d="M 896.026163 22.914133 
L 937.130186 22.914133 
L 937.130186 26.899083 
L 896.026163 26.899083 
L 896.026163 22.914133 
z
"/>
     <path d="M 1114.378347 22.914133 
L 1155.482371 22.914133 
L 1155.482371 26.899083 
L 1114.378347 26.899083 
L 1114.378347 22.914133 
z
"/>
     <path d="M 1332.730532 22.914133 
L 1373.834555 22.914133 
L 1373.834555 26.899083 
L 1332.730532 26.899083 
L 1332.730532 22.914133 
z
"/>
    </g>
   </g>
   <g id="legend_1">
    <g id="patch_7">
     <path d="M 101.2 201.414612 
L 244.499071 201.414612 
Q 247.699071 201.414612 247.699071 198.214612 
L 247.699071 114.88 
Q 247.699071 111.68 244.499071 111.68 
L 101.2 111.68 
Q 98 111.68 98 114.88 
L 98 198.214612 
Q 98 201.414612 101.2 201.414612 
z
" style="fill:#ffffff;opacity:0.8;stroke:#cccccc;stroke-linejoin:miter;"/>
    </g>
    <g id="line2d_28">
     <path d="M 104.4 126.50486 
L 136.4 126.50486 
" style="fill:none;stroke:#094d92;stroke-linecap:square;stroke-width:1.5;"/>
    </g>
    <g id="line2d_29"/>
    <g id="text_9">
     <!-- $\frac{b}{f}(\beta)$ erwartet -->
     <g transform="translate(149.2 132.10486)scale(0.16 -0.16)">
      <use transform="translate(6.035518 39.226102)scale(0.697382)" xlink:href="#CMMI12-98"/>
      <use transform="translate(0 -34.355253)scale(0.697382)" xlink:href="#CMMI12-102"/>
      <use transform="translate(42.299537 0)scale(0.996264)" xlink:href="#CMR17-40"/>
      <use transform="translate(77.580305 0)scale(0.996264)" xlink:href="#CMMI12-12"/>
      <use transform="translate(138.174321 0)scale(0.996264)" xlink:href="#CMR17-41"/>
      <use transform="translate(201.150258 0)scale(0.996264)" xlink:href="#Nimbus_Sans_L_Regular-101"/>
      <use transform="translate(256.541935 0)scale(0.996264)" xlink:href="#Nimbus_Sans_L_Regular-114"/>
      <use transform="translate(289.717165 0)scale(0.996264)" xlink:href="#Nimbus_Sans_L_Regular-119"/>
      <use transform="translate(360.153757 0)scale(0.996264)" xlink:href="#Nimbus_Sans_L_Regular-97"/>
      <use transform="translate(415.545434 0)scale(0.996264)" xlink:href="#Nimbus_Sans_L_Regular-114"/>
      <use transform="translate(452.704762 0)scale(0.996264)" xlink:href="#Nimbus_Sans_L_Regular-116"/>
      <use transform="translate(480.399932 0)scale(0.996264)" xlink:href="#Nimbus_Sans_L_Regular-101"/>
      <use transform="translate(535.791608 0)scale(0.996264)" xlink:href="#Nimbus_Sans_L_Regular-116"/>
      <path d="M 0 22.914133 
L 41.104023 22.914133 
L 41.104023 26.899083 
L 0 26.899083 
L 0 22.914133 
z
"/>
     </g>
    </g>
    <g id="line2d_30">
     <path d="M 104.4 154.1265 
L 136.4 154.1265 
" style="fill:none;stroke:#68b684;stroke-linecap:square;stroke-width:1.5;"/>
    </g>
    <g id="line2d_31"/>
    <g id="text_10">
     <!-- $\frac{g}{f}(\beta)$ erwartet -->
     <g transform="translate(149.2 159.7265)scale(0.16 -0.16)">
      <use transform="translate(2.952171 44.444174)scale(0.697382)" xlink:href="#CMMI12-103"/>
      <use transform="translate(0 -34.355253)scale(0.697382)" xlink:href="#CMMI12-102"/>
      <use transform="translate(42.299537 0)scale(0.996264)" xlink:href="#CMR17-40"/>
      <use transform="translate(77.580305 0)scale(0.996264)" xlink:href="#CMMI12-12"/>
      <use transform="translate(138.174321 0)scale(0.996264)" xlink:href="#CMR17-41"/>
      <use transform="translate(201.150258 0)scale(0.996264)" xlink:href="#Nimbus_Sans_L_Regular-101"/>
      <use transform="translate(256.541935 0)scale(0.996264)" xlink:href="#Nimbus_Sans_L_Regular-114"/>
      <use transform="translate(289.717165 0)scale(0.996264)" xlink:href="#Nimbus_Sans_L_Regular-119"/>
      <use transform="translate(360.153757 0)scale(0.996264)" xlink:href="#Nimbus_Sans_L_Regular-97"/>
      <use transform="translate(415.545434 0)scale(0.996264)" xlink:href="#Nimbus_Sans_L_Regular-114"/>
      <use transform="translate(452.704762 0)scale(0.996264)" xlink:href="#Nimbus_Sans_L_Regular-116"/>
      <use transform="translate(480.399932 0)scale(0.996264)" xlink:href="#Nimbus_Sans_L_Regular-101"/>
      <use transform="translate(535.791608 0)scale(0.996264)" xlink:href="#Nimbus_Sans_L_Regular-116"/>
      <path d="M 0 22.914133 
L 41.104023 22.914133 
L 41.104023 26.899083 
L 0 26.899083 
L 0 22.914133 
z
"/>
     </g>
    </g>
    <g id="line2d_32">
     <path d="M 104.4 181.74814 
L 136.4 181.74814 
" style="fill:none;stroke:#1c1018;stroke-linecap:square;stroke-width:1.5;"/>
    </g>
    <g id="line2d_33"/>
    <g id="text_11">
     <!-- $\frac{e}{f}(\beta)$ erwartet -->
     <g transform="translate(149.2 187.34814)scale(0.16 -0.16)">
      <use transform="translate(4.727891 39.226102)scale(0.697382)" xlink:href="#CMMI12-101"/>
      <use transform="translate(0 -34.355253)scale(0.697382)" xlink:href="#CMMI12-102"/>
      <use transform="translate(42.299537 0)scale(0.996264)" xlink:href="#CMR17-40"/>
      <use transform="translate(77.580305 0)scale(0.996264)" xlink:href="#CMMI12-12"/>
      <use transform="translate(138.174321 0)scale(0.996264)" xlink:href="#CMR17-41"/>
      <use transform="translate(201.150258 0)scale(0.996264)" xlink:href="#Nimbus_Sans_L_Regular-101"/>
      <use transform="translate(256.541935 0)scale(0.996264)" xlink:href="#Nimbus_Sans_L_Regular-114"/>
      <use transform="translate(289.717165 0)scale(0.996264)" xlink:href="#Nimbus_Sans_L_Regular-119"/>
      <use transform="translate(360.153757 0)scale(0.996264)" xlink:href="#Nimbus_Sans_L_Regular-97"/>
      <use transform="translate(415.545434 0)scale(0.996264)" xlink:href="#Nimbus_Sans_L_Regular-114"/>
      <use transform="translate(452.704762 0)scale(0.996264)" xlink:href="#Nimbus_Sans_L_Regular-116"/>
      <use transform="translate(480.399932 0)scale(0.996264)" xlink:href="#Nimbus_Sans_L_Regular-101"/>
      <use transform="translate(535.791608 0)scale(0.996264)" xlink:href="#Nimbus_Sans_L_Regular-116"/>
      <path d="M 0 22.914133 
L 41.104023 22.914133 
L 41.104023 26.899083 
L 0 26.899083 
L 0 22.914133 
z
"/>
     </g>
    </g>
   </g>
  </g>
  <g id="axes_2">
   <g id="patch_8">
    <path d="M 90 756 
L 648 756 
L 648 459.490909 
L 90 459.490909 
z
" style="fill:#ffffff;"/>
   </g>
   <g id="matplotlib.axis_3">
    <g id="xtick_8">
     <g id="line2d_34">
      <path clip-path="url(#p92a42748f5)" d="M 101.680815 756 
L 101.680815 459.490909 
" style="fill:none;stroke:#b0b0b0;stroke-linecap:square;stroke-width:0.8;"/>
     </g>
     <g id="line2d_35">
      <g>
       <use style="stroke:#000000;stroke-width:0.8;" x="101.680815" xlink:href="#m36a5084841" y="756"/>
      </g>
     </g>
     <g id="text_12">
      <!-- $\mathdefault{0.5}$ -->
      <defs>
       <path d="M 42 31.84375 
C 42 37.96875 41.90625 48.421875 37.703125 56.453125 
C 34 63.484375 28.09375 66 22.90625 66 
C 18.09375 66 12 63.78125 8.203125 56.5625 
C 4.203125 49.015625 3.796875 39.671875 3.796875 31.84375 
C 3.796875 26.109375 3.90625 17.375 7 9.734375 
C 11.296875 -0.609375 19 -2 22.90625 -2 
C 27.5 -2 34.5 -0.109375 38.59375 9.4375 
C 41.59375 16.375 42 24.5 42 31.84375 
z
M 22.90625 -0.40625 
C 16.5 -0.40625 12.703125 5.125 11.296875 12.75 
C 10.203125 18.6875 10.203125 27.328125 10.203125 32.953125 
C 10.203125 40.6875 10.203125 47.109375 11.5 53.234375 
C 13.40625 61.78125 19 64.390625 22.90625 64.390625 
C 27 64.390625 32.296875 61.671875 34.203125 53.4375 
C 35.5 47.71875 35.59375 40.984375 35.59375 32.953125 
C 35.59375 26.421875 35.59375 18.375 34.40625 12.453125 
C 32.296875 1.5 26.40625 -0.40625 22.90625 -0.40625 
z
" id="CMR17-48"/>
       <path d="M 18.40625 4.796875 
C 18.40625 7.6875 16 9.6875 13.59375 9.6875 
C 10.703125 9.6875 8.703125 7.296875 8.703125 4.890625 
C 8.703125 2 11.09375 0 13.5 0 
C 16.40625 0 18.40625 2.390625 18.40625 4.796875 
z
" id="CMMI12-58"/>
      </defs>
      <g transform="translate(91.017783 775.776976)scale(0.18 -0.18)">
       <use transform="scale(0.996264)" xlink:href="#CMR17-48"/>
       <use transform="translate(45.690477 0)scale(0.996264)" xlink:href="#CMMI12-58"/>
       <use transform="translate(72.787654 0)scale(0.996264)" xlink:href="#CMR17-53"/>
      </g>
     </g>
    </g>
    <g id="xtick_9">
     <g id="line2d_36">
      <path clip-path="url(#p92a42748f5)" d="M 187.961152 756 
L 187.961152 459.490909 
" style="fill:none;stroke:#b0b0b0;stroke-linecap:square;stroke-width:0.8;"/>
     </g>
     <g id="line2d_37">
      <g>
       <use style="stroke:#000000;stroke-width:0.8;" x="187.961152" xlink:href="#m36a5084841" y="756"/>
      </g>
     </g>
     <g id="text_13">
      <!-- $\mathdefault{1.0}$ -->
      <defs>
       <path d="M 26.59375 63.796875 
C 26.59375 65.890625 26.5 66 25.09375 66 
C 21.203125 61.359375 15.296875 59.890625 9.703125 59.6875 
C 9.40625 59.6875 8.90625 59.6875 8.796875 59.5 
C 8.703125 59.296875 8.703125 59.09375 8.703125 57 
C 11.796875 57 17 57.59375 21 59.984375 
L 21 7.296875 
C 21 3.796875 20.796875 2.59375 12.203125 2.59375 
L 9.203125 2.59375 
L 9.203125 0 
C 14 0.09375 19 0.1875 23.796875 0.1875 
C 28.59375 0.1875 33.59375 0.09375 38.40625 0 
L 38.40625 2.59375 
L 35.40625 2.59375 
C 26.796875 2.59375 26.59375 3.6875 26.59375 7.296875 
z
" id="CMR17-49"/>
      </defs>
      <g transform="translate(177.29812 775.776976)scale(0.18 -0.18)">
       <use transform="scale(0.996264)" xlink:href="#CMR17-49"/>
       <use transform="translate(45.690477 0)scale(0.996264)" xlink:href="#CMMI12-58"/>
       <use transform="translate(72.787654 0)scale(0.996264)" xlink:href="#CMR17-48"/>
      </g>
     </g>
    </g>
    <g id="xtick_10">
     <g id="line2d_38">
      <path clip-path="url(#p92a42748f5)" d="M 274.241489 756 
L 274.241489 459.490909 
" style="fill:none;stroke:#b0b0b0;stroke-linecap:square;stroke-width:0.8;"/>
     </g>
     <g id="line2d_39">
      <g>
       <use style="stroke:#000000;stroke-width:0.8;" x="274.241489" xlink:href="#m36a5084841" y="756"/>
      </g>
     </g>
     <g id="text_14">
      <!-- $\mathdefault{1.5}$ -->
      <g transform="translate(263.578457 775.776976)scale(0.18 -0.18)">
       <use transform="scale(0.996264)" xlink:href="#CMR17-49"/>
       <use transform="translate(45.690477 0)scale(0.996264)" xlink:href="#CMMI12-58"/>
       <use transform="translate(72.787654 0)scale(0.996264)" xlink:href="#CMR17-53"/>
      </g>
     </g>
    </g>
    <g id="xtick_11">
     <g id="line2d_40">
      <path clip-path="url(#p92a42748f5)" d="M 360.521826 756 
L 360.521826 459.490909 
" style="fill:none;stroke:#b0b0b0;stroke-linecap:square;stroke-width:0.8;"/>
     </g>
     <g id="line2d_41">
      <g>
       <use style="stroke:#000000;stroke-width:0.8;" x="360.521826" xlink:href="#m36a5084841" y="756"/>
      </g>
     </g>
     <g id="text_15">
      <!-- $\mathdefault{2.0}$ -->
      <g transform="translate(349.858794 775.776976)scale(0.18 -0.18)">
       <use transform="scale(0.996264)" xlink:href="#CMR17-50"/>
       <use transform="translate(45.690477 0)scale(0.996264)" xlink:href="#CMMI12-58"/>
       <use transform="translate(72.787654 0)scale(0.996264)" xlink:href="#CMR17-48"/>
      </g>
     </g>
    </g>
    <g id="xtick_12">
     <g id="line2d_42">
      <path clip-path="url(#p92a42748f5)" d="M 446.802162 756 
L 446.802162 459.490909 
" style="fill:none;stroke:#b0b0b0;stroke-linecap:square;stroke-width:0.8;"/>
     </g>
     <g id="line2d_43">
      <g>
       <use style="stroke:#000000;stroke-width:0.8;" x="446.802162" xlink:href="#m36a5084841" y="756"/>
      </g>
     </g>
     <g id="text_16">
      <!-- $\mathdefault{2.5}$ -->
      <g transform="translate(436.139131 775.776976)scale(0.18 -0.18)">
       <use transform="scale(0.996264)" xlink:href="#CMR17-50"/>
       <use transform="translate(45.690477 0)scale(0.996264)" xlink:href="#CMMI12-58"/>
       <use transform="translate(72.787654 0)scale(0.996264)" xlink:href="#CMR17-53"/>
      </g>
     </g>
    </g>
    <g id="xtick_13">
     <g id="line2d_44">
      <path clip-path="url(#p92a42748f5)" d="M 533.082499 756 
L 533.082499 459.490909 
" style="fill:none;stroke:#b0b0b0;stroke-linecap:square;stroke-width:0.8;"/>
     </g>
     <g id="line2d_45">
      <g>
       <use style="stroke:#000000;stroke-width:0.8;" x="533.082499" xlink:href="#m36a5084841" y="756"/>
      </g>
     </g>
     <g id="text_17">
      <!-- $\mathdefault{3.0}$ -->
      <g transform="translate(522.419468 775.776976)scale(0.18 -0.18)">
       <use transform="scale(0.996264)" xlink:href="#CMR17-51"/>
       <use transform="translate(45.690477 0)scale(0.996264)" xlink:href="#CMMI12-58"/>
       <use transform="translate(72.787654 0)scale(0.996264)" xlink:href="#CMR17-48"/>
      </g>
     </g>
    </g>
    <g id="xtick_14">
     <g id="line2d_46">
      <path clip-path="url(#p92a42748f5)" d="M 619.362836 756 
L 619.362836 459.490909 
" style="fill:none;stroke:#b0b0b0;stroke-linecap:square;stroke-width:0.8;"/>
     </g>
     <g id="line2d_47">
      <g>
       <use style="stroke:#000000;stroke-width:0.8;" x="619.362836" xlink:href="#m36a5084841" y="756"/>
      </g>
     </g>
     <g id="text_18">
      <!-- $\mathdefault{3.5}$ -->
      <g transform="translate(608.699805 775.776976)scale(0.18 -0.18)">
       <use transform="scale(0.996264)" xlink:href="#CMR17-51"/>
       <use transform="translate(45.690477 0)scale(0.996264)" xlink:href="#CMMI12-58"/>
       <use transform="translate(72.787654 0)scale(0.996264)" xlink:href="#CMR17-53"/>
      </g>
     </g>
    </g>
    <g id="text_19">
     <!-- $\beta$ -->
     <g transform="translate(364.594341 794.953858)scale(0.16 -0.16)">
      <use transform="scale(0.996264)" xlink:href="#CMMI12-12"/>
     </g>
    </g>
   </g>
   <g id="matplotlib.axis_4">
    <g id="ytick_6">
     <g id="line2d_48">
      <path clip-path="url(#p92a42748f5)" d="M 90 703.758414 
L 648 703.758414 
" style="fill:none;stroke:#b0b0b0;stroke-linecap:square;stroke-width:0.8;"/>
     </g>
     <g id="line2d_49">
      <g>
       <use style="stroke:#000000;stroke-width:0.8;" x="90" xlink:href="#m11638505d8" y="703.758414"/>
      </g>
     </g>
     <g id="text_20">
      <!-- $\mathdefault{2}$ -->
      <g transform="translate(74.775714 710.146902)scale(0.18 -0.18)">
       <use transform="scale(0.996264)" xlink:href="#CMR17-50"/>
      </g>
     </g>
    </g>
    <g id="ytick_7">
     <g id="line2d_50">
      <path clip-path="url(#p92a42748f5)" d="M 90 650.593755 
L 648 650.593755 
" style="fill:none;stroke:#b0b0b0;stroke-linecap:square;stroke-width:0.8;"/>
     </g>
     <g id="line2d_51">
      <g>
       <use style="stroke:#000000;stroke-width:0.8;" x="90" xlink:href="#m11638505d8" y="650.593755"/>
      </g>
     </g>
     <g id="text_21">
      <!-- $\mathdefault{3}$ -->
      <g transform="translate(74.775714 656.982243)scale(0.18 -0.18)">
       <use transform="scale(0.996264)" xlink:href="#CMR17-51"/>
      </g>
     </g>
    </g>
    <g id="ytick_8">
     <g id="line2d_52">
      <path clip-path="url(#p92a42748f5)" d="M 90 597.429096 
L 648 597.429096 
" style="fill:none;stroke:#b0b0b0;stroke-linecap:square;stroke-width:0.8;"/>
     </g>
     <g id="line2d_53">
      <g>
       <use style="stroke:#000000;stroke-width:0.8;" x="90" xlink:href="#m11638505d8" y="597.429096"/>
      </g>
     </g>
     <g id="text_22">
      <!-- $\mathdefault{4}$ -->
      <g transform="translate(74.775714 603.817584)scale(0.18 -0.18)">
       <use transform="scale(0.996264)" xlink:href="#CMR17-52"/>
      </g>
     </g>
    </g>
    <g id="ytick_9">
     <g id="line2d_54">
      <path clip-path="url(#p92a42748f5)" d="M 90 544.264437 
L 648 544.264437 
" style="fill:none;stroke:#b0b0b0;stroke-linecap:square;stroke-width:0.8;"/>
     </g>
     <g id="line2d_55">
      <g>
       <use style="stroke:#000000;stroke-width:0.8;" x="90" xlink:href="#m11638505d8" y="544.264437"/>
      </g>
     </g>
     <g id="text_23">
      <!-- $\mathdefault{5}$ -->
      <g transform="translate(74.775714 550.652925)scale(0.18 -0.18)">
       <use transform="scale(0.996264)" xlink:href="#CMR17-53"/>
      </g>
     </g>
    </g>
    <g id="ytick_10">
     <g id="line2d_56">
      <path clip-path="url(#p92a42748f5)" d="M 90 491.099778 
L 648 491.099778 
" style="fill:none;stroke:#b0b0b0;stroke-linecap:square;stroke-width:0.8;"/>
     </g>
     <g id="line2d_57">
      <g>
       <use style="stroke:#000000;stroke-width:0.8;" x="90" xlink:href="#m11638505d8" y="491.099778"/>
      </g>
     </g>
     <g id="text_24">
      <!-- $\mathdefault{6}$ -->
      <g transform="translate(74.775714 497.488266)scale(0.18 -0.18)">
       <use transform="scale(0.996264)" xlink:href="#CMR17-54"/>
      </g>
     </g>
    </g>
    <g id="text_25">
     <!-- $\frac{b}{f}(\beta), \frac{g}{f}(\beta), \frac{e}{f}(\beta)$ -->
     <g transform="translate(63.109242 660.474197)rotate(-90)scale(0.16 -0.16)">
      <use transform="translate(6.035518 39.226102)scale(0.697382)" xlink:href="#CMMI12-98"/>
      <use transform="translate(0 -34.355253)scale(0.697382)" xlink:href="#CMMI12-102"/>
      <use transform="translate(42.299537 0)scale(0.996264)" xlink:href="#CMR17-40"/>
      <use transform="translate(77.580305 0)scale(0.996264)" xlink:href="#CMMI12-12"/>
      <use transform="translate(138.174321 0)scale(0.996264)" xlink:href="#CMR17-41"/>
      <use transform="translate(173.455088 0)scale(0.996264)" xlink:href="#CMMI12-59"/>
      <use transform="translate(221.304355 44.444174)scale(0.697382)" xlink:href="#CMMI12-103"/>
      <use transform="translate(218.352185 -34.355253)scale(0.697382)" xlink:href="#CMMI12-102"/>
      <use transform="translate(260.651722 0)scale(0.996264)" xlink:href="#CMR17-40"/>
      <use transform="translate(295.932489 0)scale(0.996264)" xlink:href="#CMMI12-12"/>
      <use transform="translate(356.526505 0)scale(0.996264)" xlink:href="#CMR17-41"/>
      <use transform="translate(391.807273 0)scale(0.996264)" xlink:href="#CMMI12-59"/>
      <use transform="translate(441.43226 39.226102)scale(0.697382)" xlink:href="#CMMI12-101"/>
      <use transform="translate(436.704369 -34.355253)scale(0.697382)" xlink:href="#CMMI12-102"/>
      <use transform="translate(479.003906 0)scale(0.996264)" xlink:href="#CMR17-40"/>
      <use transform="translate(514.284674 0)scale(0.996264)" xlink:href="#CMMI12-12"/>
      <use transform="translate(574.87869 0)scale(0.996264)" xlink:href="#CMR17-41"/>
      <path d="M 0 22.914133 
L 41.104023 22.914133 
L 41.104023 26.899083 
L 0 26.899083 
L 0 22.914133 
z
"/>
      <path d="M 218.352185 22.914133 
L 259.456208 22.914133 
L 259.456208 26.899083 
L 218.352185 26.899083 
L 218.352185 22.914133 
z
"/>
      <path d="M 436.704369 22.914133 
L 477.808392 22.914133 
L 477.808392 26.899083 
L 436.704369 26.899083 
L 436.704369 22.914133 
z
"/>
     </g>
    </g>
   </g>
   <g id="LineCollection_1">
    <path clip-path="url(#p92a42748f5)" d="M 605.735669 544.264437 
L 622.636364 544.264437 
" style="fill:none;stroke:#094d92;stroke-width:1.5;"/>
    <path clip-path="url(#p92a42748f5)" d="M 440.478396 615.150649 
L 453.125929 615.150649 
" style="fill:none;stroke:#094d92;stroke-width:1.5;"/>
    <path clip-path="url(#p92a42748f5)" d="M 343.912467 650.593755 
L 354.123094 650.593755 
" style="fill:none;stroke:#094d92;stroke-width:1.5;"/>
    <path clip-path="url(#p92a42748f5)" d="M 283.185464 671.859619 
L 291.845309 671.859619 
" style="fill:none;stroke:#094d92;stroke-width:1.5;"/>
    <path clip-path="url(#p92a42748f5)" d="M 235.972523 686.036861 
L 243.486185 686.036861 
" style="fill:none;stroke:#094d92;stroke-width:1.5;"/>
    <path clip-path="url(#p92a42748f5)" d="M 207.605196 696.163463 
L 214.333287 696.163463 
" style="fill:none;stroke:#094d92;stroke-width:1.5;"/>
    <path clip-path="url(#p92a42748f5)" d="M 185.984415 703.758414 
L 192.094896 703.758414 
" style="fill:none;stroke:#094d92;stroke-width:1.5;"/>
    <path clip-path="url(#p92a42748f5)" d="M 165.882995 709.665599 
L 171.466922 709.665599 
" style="fill:none;stroke:#094d92;stroke-width:1.5;"/>
    <path clip-path="url(#p92a42748f5)" d="M 151.824603 714.391346 
L 156.990771 714.391346 
" style="fill:none;stroke:#094d92;stroke-width:1.5;"/>
    <path clip-path="url(#p92a42748f5)" d="M 141.049765 718.257867 
L 145.867558 718.257867 
" style="fill:none;stroke:#094d92;stroke-width:1.5;"/>
    <path clip-path="url(#p92a42748f5)" d="M 130.488117 721.479967 
L 134.995355 721.479967 
" style="fill:none;stroke:#094d92;stroke-width:1.5;"/>
    <path clip-path="url(#p92a42748f5)" d="M 122.567062 724.20636 
L 126.810747 724.20636 
" style="fill:none;stroke:#094d92;stroke-width:1.5;"/>
    <path clip-path="url(#p92a42748f5)" d="M 115.363636 726.543268 
L 119.372661 726.543268 
" style="fill:none;stroke:#094d92;stroke-width:1.5;"/>
   </g>
   <g id="LineCollection_2">
    <path clip-path="url(#p92a42748f5)" d="M 614.186016 543.591467 
L 614.186016 544.937407 
" style="fill:none;stroke:#094d92;stroke-width:1.5;"/>
    <path clip-path="url(#p92a42748f5)" d="M 446.802162 614.477679 
L 446.802162 615.823619 
" style="fill:none;stroke:#094d92;stroke-width:1.5;"/>
    <path clip-path="url(#p92a42748f5)" d="M 349.017781 649.920785 
L 349.017781 651.266726 
" style="fill:none;stroke:#094d92;stroke-width:1.5;"/>
    <path clip-path="url(#p92a42748f5)" d="M 287.515387 671.186648 
L 287.515387 672.532589 
" style="fill:none;stroke:#094d92;stroke-width:1.5;"/>
    <path clip-path="url(#p92a42748f5)" d="M 239.729354 685.363891 
L 239.729354 686.709832 
" style="fill:none;stroke:#094d92;stroke-width:1.5;"/>
    <path clip-path="url(#p92a42748f5)" d="M 210.969241 695.490493 
L 210.969241 696.836433 
" style="fill:none;stroke:#094d92;stroke-width:1.5;"/>
    <path clip-path="url(#p92a42748f5)" d="M 189.039656 703.085444 
L 189.039656 704.431385 
" style="fill:none;stroke:#094d92;stroke-width:1.5;"/>
    <path clip-path="url(#p92a42748f5)" d="M 168.674959 708.992628 
L 168.674959 710.338569 
" style="fill:none;stroke:#094d92;stroke-width:1.5;"/>
    <path clip-path="url(#p92a42748f5)" d="M 154.407687 713.718376 
L 154.407687 715.064316 
" style="fill:none;stroke:#094d92;stroke-width:1.5;"/>
    <path clip-path="url(#p92a42748f5)" d="M 143.458662 717.584896 
L 143.458662 718.930837 
" style="fill:none;stroke:#094d92;stroke-width:1.5;"/>
    <path clip-path="url(#p92a42748f5)" d="M 132.741736 720.806997 
L 132.741736 722.152938 
" style="fill:none;stroke:#094d92;stroke-width:1.5;"/>
    <path clip-path="url(#p92a42748f5)" d="M 124.688904 723.53339 
L 124.688904 724.87933 
" style="fill:none;stroke:#094d92;stroke-width:1.5;"/>
    <path clip-path="url(#p92a42748f5)" d="M 117.368149 725.870298 
L 117.368149 727.216238 
" style="fill:none;stroke:#094d92;stroke-width:1.5;"/>
   </g>
   <g id="LineCollection_3">
    <path clip-path="url(#p92a42748f5)" d="M 605.735669 740.993587 
L 622.636364 740.993587 
" style="fill:none;stroke:#68b684;stroke-width:1.5;"/>
    <path clip-path="url(#p92a42748f5)" d="M 440.478396 735.111931 
L 453.125929 735.111931 
" style="fill:none;stroke:#68b684;stroke-width:1.5;"/>
    <path clip-path="url(#p92a42748f5)" d="M 343.912467 728.941674 
L 354.123094 728.941674 
" style="fill:none;stroke:#68b684;stroke-width:1.5;"/>
    <path clip-path="url(#p92a42748f5)" d="M 283.185464 722.897691 
L 291.845309 722.897691 
" style="fill:none;stroke:#68b684;stroke-width:1.5;"/>
    <path clip-path="url(#p92a42748f5)" d="M 235.972523 715.225301 
L 243.486185 715.225301 
" style="fill:none;stroke:#68b684;stroke-width:1.5;"/>
    <path clip-path="url(#p92a42748f5)" d="M 207.605196 709.665599 
L 214.333287 709.665599 
" style="fill:none;stroke:#68b684;stroke-width:1.5;"/>
    <path clip-path="url(#p92a42748f5)" d="M 185.984415 704.414768 
L 192.094896 704.414768 
" style="fill:none;stroke:#68b684;stroke-width:1.5;"/>
    <path clip-path="url(#p92a42748f5)" d="M 165.882995 697.019232 
L 171.466922 697.019232 
" style="fill:none;stroke:#68b684;stroke-width:1.5;"/>
    <path clip-path="url(#p92a42748f5)" d="M 151.824603 691.489647 
L 156.990771 691.489647 
" style="fill:none;stroke:#68b684;stroke-width:1.5;"/>
    <path clip-path="url(#p92a42748f5)" d="M 141.049765 687.19893 
L 145.867558 687.19893 
" style="fill:none;stroke:#68b684;stroke-width:1.5;"/>
    <path clip-path="url(#p92a42748f5)" d="M 130.488117 680.97356 
L 134.995355 680.97356 
" style="fill:none;stroke:#68b684;stroke-width:1.5;"/>
    <path clip-path="url(#p92a42748f5)" d="M 122.567062 676.674531 
L 126.810747 676.674531 
" style="fill:none;stroke:#68b684;stroke-width:1.5;"/>
    <path clip-path="url(#p92a42748f5)" d="M 115.363636 671.859619 
L 119.372661 671.859619 
" style="fill:none;stroke:#68b684;stroke-width:1.5;"/>
   </g>
   <g id="LineCollection_4">
    <path clip-path="url(#p92a42748f5)" d="M 614.186016 739.464861 
L 614.186016 742.522314 
" style="fill:none;stroke:#68b684;stroke-width:1.5;"/>
    <path clip-path="url(#p92a42748f5)" d="M 446.802162 733.583205 
L 446.802162 736.640658 
" style="fill:none;stroke:#68b684;stroke-width:1.5;"/>
    <path clip-path="url(#p92a42748f5)" d="M 349.017781 727.412947 
L 349.017781 730.4704 
" style="fill:none;stroke:#68b684;stroke-width:1.5;"/>
    <path clip-path="url(#p92a42748f5)" d="M 287.515387 721.368965 
L 287.515387 724.426418 
" style="fill:none;stroke:#68b684;stroke-width:1.5;"/>
    <path clip-path="url(#p92a42748f5)" d="M 239.729354 713.696575 
L 239.729354 716.754028 
" style="fill:none;stroke:#68b684;stroke-width:1.5;"/>
    <path clip-path="url(#p92a42748f5)" d="M 210.969241 708.136872 
L 210.969241 711.194325 
" style="fill:none;stroke:#68b684;stroke-width:1.5;"/>
    <path clip-path="url(#p92a42748f5)" d="M 189.039656 702.886041 
L 189.039656 705.943495 
" style="fill:none;stroke:#68b684;stroke-width:1.5;"/>
    <path clip-path="url(#p92a42748f5)" d="M 168.674959 695.490505 
L 168.674959 698.547959 
" style="fill:none;stroke:#68b684;stroke-width:1.5;"/>
    <path clip-path="url(#p92a42748f5)" d="M 154.407687 689.96092 
L 154.407687 693.018373 
" style="fill:none;stroke:#68b684;stroke-width:1.5;"/>
    <path clip-path="url(#p92a42748f5)" d="M 143.458662 685.670204 
L 143.458662 688.727657 
" style="fill:none;stroke:#68b684;stroke-width:1.5;"/>
    <path clip-path="url(#p92a42748f5)" d="M 132.741736 679.444834 
L 132.741736 682.502287 
" style="fill:none;stroke:#68b684;stroke-width:1.5;"/>
    <path clip-path="url(#p92a42748f5)" d="M 124.688904 675.145805 
L 124.688904 678.203258 
" style="fill:none;stroke:#68b684;stroke-width:1.5;"/>
    <path clip-path="url(#p92a42748f5)" d="M 117.368149 670.330892 
L 117.368149 673.388345 
" style="fill:none;stroke:#68b684;stroke-width:1.5;"/>
   </g>
   <g id="LineCollection_5">
    <path clip-path="url(#p92a42748f5)" d="M 605.735669 475.170292 
L 622.636364 475.170292 
" style="fill:none;stroke:#1c1018;stroke-width:1.5;"/>
    <path clip-path="url(#p92a42748f5)" d="M 440.478396 540.174848 
L 453.125929 540.174848 
" style="fill:none;stroke:#1c1018;stroke-width:1.5;"/>
    <path clip-path="url(#p92a42748f5)" d="M 343.912467 569.447697 
L 354.123094 569.447697 
" style="fill:none;stroke:#1c1018;stroke-width:1.5;"/>
    <path clip-path="url(#p92a42748f5)" d="M 283.185464 584.669578 
L 291.845309 584.669578 
" style="fill:none;stroke:#1c1018;stroke-width:1.5;"/>
    <path clip-path="url(#p92a42748f5)" d="M 235.972523 591.17443 
L 243.486185 591.17443 
" style="fill:none;stroke:#1c1018;stroke-width:1.5;"/>
    <path clip-path="url(#p92a42748f5)" d="M 207.605196 595.741329 
L 214.333287 595.741329 
" style="fill:none;stroke:#1c1018;stroke-width:1.5;"/>
    <path clip-path="url(#p92a42748f5)" d="M 185.984415 598.08545 
L 192.094896 598.08545 
" style="fill:none;stroke:#1c1018;stroke-width:1.5;"/>
    <path clip-path="url(#p92a42748f5)" d="M 165.882995 596.597098 
L 171.466922 596.597098 
" style="fill:none;stroke:#1c1018;stroke-width:1.5;"/>
    <path clip-path="url(#p92a42748f5)" d="M 151.824603 595.79326 
L 156.990771 595.79326 
" style="fill:none;stroke:#1c1018;stroke-width:1.5;"/>
    <path clip-path="url(#p92a42748f5)" d="M 141.049765 595.369065 
L 145.867558 595.369065 
" style="fill:none;stroke:#1c1018;stroke-width:1.5;"/>
    <path clip-path="url(#p92a42748f5)" d="M 130.488117 592.365795 
L 134.995355 592.365795 
" style="fill:none;stroke:#1c1018;stroke-width:1.5;"/>
    <path clip-path="url(#p92a42748f5)" d="M 122.567062 590.793159 
L 126.810747 590.793159 
" style="fill:none;stroke:#1c1018;stroke-width:1.5;"/>
    <path clip-path="url(#p92a42748f5)" d="M 115.363636 588.315154 
L 119.372661 588.315154 
" style="fill:none;stroke:#1c1018;stroke-width:1.5;"/>
   </g>
   <g id="LineCollection_6">
    <path clip-path="url(#p92a42748f5)" d="M 614.186016 472.968595 
L 614.186016 477.371989 
" style="fill:none;stroke:#1c1018;stroke-width:1.5;"/>
    <path clip-path="url(#p92a42748f5)" d="M 446.802162 537.973151 
L 446.802162 542.376545 
" style="fill:none;stroke:#1c1018;stroke-width:1.5;"/>
    <path clip-path="url(#p92a42748f5)" d="M 349.017781 567.246 
L 349.017781 571.649394 
" style="fill:none;stroke:#1c1018;stroke-width:1.5;"/>
    <path clip-path="url(#p92a42748f5)" d="M 287.515387 582.467881 
L 287.515387 586.871275 
" style="fill:none;stroke:#1c1018;stroke-width:1.5;"/>
    <path clip-path="url(#p92a42748f5)" d="M 239.729354 588.972733 
L 239.729354 593.376127 
" style="fill:none;stroke:#1c1018;stroke-width:1.5;"/>
    <path clip-path="url(#p92a42748f5)" d="M 210.969241 593.539632 
L 210.969241 597.943026 
" style="fill:none;stroke:#1c1018;stroke-width:1.5;"/>
    <path clip-path="url(#p92a42748f5)" d="M 189.039656 595.883753 
L 189.039656 600.287147 
" style="fill:none;stroke:#1c1018;stroke-width:1.5;"/>
    <path clip-path="url(#p92a42748f5)" d="M 168.674959 594.395401 
L 168.674959 598.798795 
" style="fill:none;stroke:#1c1018;stroke-width:1.5;"/>
    <path clip-path="url(#p92a42748f5)" d="M 154.407687 593.591563 
L 154.407687 597.994957 
" style="fill:none;stroke:#1c1018;stroke-width:1.5;"/>
    <path clip-path="url(#p92a42748f5)" d="M 143.458662 593.167368 
L 143.458662 597.570762 
" style="fill:none;stroke:#1c1018;stroke-width:1.5;"/>
    <path clip-path="url(#p92a42748f5)" d="M 132.741736 590.164098 
L 132.741736 594.567492 
" style="fill:none;stroke:#1c1018;stroke-width:1.5;"/>
    <path clip-path="url(#p92a42748f5)" d="M 124.688904 588.591462 
L 124.688904 592.994856 
" style="fill:none;stroke:#1c1018;stroke-width:1.5;"/>
    <path clip-path="url(#p92a42748f5)" d="M 117.368149 586.113458 
L 117.368149 590.516851 
" style="fill:none;stroke:#1c1018;stroke-width:1.5;"/>
   </g>
   <g id="line2d_58">
    <path clip-path="url(#p92a42748f5)" d="M 614.186016 544.264437 
L 446.802162 615.150649 
L 349.017781 650.593755 
L 287.515387 671.859619 
L 239.729354 686.036861 
L 210.969241 696.163463 
L 189.039656 703.758414 
L 168.674959 709.665599 
L 154.407687 714.391346 
L 143.458662 718.257867 
L 132.741736 721.479967 
L 124.688904 724.20636 
L 117.368149 726.543268 
" style="fill:none;stroke:#094d92;stroke-linecap:square;stroke-width:1.5;"/>
   </g>
   <g id="line2d_59">
    <path clip-path="url(#p92a42748f5)" d="M 614.186016 740.993587 
L 446.802162 735.111931 
L 349.017781 728.941674 
L 287.515387 722.897691 
L 239.729354 715.225301 
L 210.969241 709.665599 
L 189.039656 704.414768 
L 168.674959 697.019232 
L 154.407687 691.489647 
L 143.458662 687.19893 
L 132.741736 680.97356 
L 124.688904 676.674531 
L 117.368149 671.859619 
" style="fill:none;stroke:#68b684;stroke-linecap:square;stroke-width:1.5;"/>
   </g>
   <g id="line2d_60">
    <path clip-path="url(#p92a42748f5)" d="M 614.186016 475.170292 
L 446.802162 540.174848 
L 349.017781 569.447697 
L 287.515387 584.669578 
L 239.729354 591.17443 
L 210.969241 595.741329 
L 189.039656 598.08545 
L 168.674959 596.597098 
L 154.407687 595.79326 
L 143.458662 595.369065 
L 132.741736 592.365795 
L 124.688904 590.793159 
L 117.368149 588.315154 
" style="fill:none;stroke:#1c1018;stroke-linecap:square;stroke-width:1.5;"/>
   </g>
   <g id="patch_9">
    <path d="M 90 756 
L 90 459.490909 
" style="fill:none;stroke:#000000;stroke-linecap:square;stroke-linejoin:miter;stroke-width:0.8;"/>
   </g>
   <g id="patch_10">
    <path d="M 648 756 
L 648 459.490909 
" style="fill:none;stroke:#000000;stroke-linecap:square;stroke-linejoin:miter;stroke-width:0.8;"/>
   </g>
   <g id="patch_11">
    <path d="M 90 756 
L 648 756 
" style="fill:none;stroke:#000000;stroke-linecap:square;stroke-linejoin:miter;stroke-width:0.8;"/>
   </g>
   <g id="patch_12">
    <path d="M 90 459.490909 
L 648 459.490909 
" style="fill:none;stroke:#000000;stroke-linecap:square;stroke-linejoin:miter;stroke-width:0.8;"/>
   </g>
   <g id="text_26">
    <!-- Mit $f_{nom}$ errechnete Werte für $\frac{b}{f}(\beta), \frac{g}{f}(\beta), \frac{e}{f}(\beta)$ -->
    <defs>
     <path d="M 46.796875 0 
L 67.296875 61.171875 
L 67.296875 0 
L 76.09375 0 
L 76.09375 73 
L 63.203125 73 
L 42 9.40625 
L 20.40625 73 
L 7.5 73 
L 7.5 0 
L 16.296875 0 
L 16.296875 61.171875 
L 37 0 
z
" id="Nimbus_Sans_L_Regular-77"/>
     <path d="M 15 52.46875 
L 6.703125 52.46875 
L 6.703125 0 
L 15 0 
z
M 15 73 
L 6.59375 73 
L 6.59375 62.484375 
L 15 62.484375 
z
" id="Nimbus_Sans_L_Regular-105"/>
     <path d="M 20.59375 29.21875 
C 20.796875 29.828125 23.296875 34.8125 27 38 
C 29.59375 40.390625 33 41.984375 36.90625 41.984375 
C 40.90625 41.984375 42.296875 39 42.296875 35.015625 
C 42.296875 29.328125 38.203125 17.953125 36.203125 12.5625 
C 35.296875 10.171875 34.796875 8.875 34.796875 7.078125 
C 34.796875 2.59375 37.90625 -1 42.703125 -1 
C 52 -1 55.5 13.65625 55.5 14.265625 
C 55.5 14.765625 55.09375 15.15625 54.5 15.15625 
C 53.59375 15.15625 53.5 14.859375 53 13.15625 
C 50.703125 4.984375 46.90625 1 43 1 
C 42 1 40.40625 1.09375 40.40625 4.28125 
C 40.40625 6.78125 41.5 9.765625 42.09375 11.171875 
C 44.09375 16.65625 48.296875 27.828125 48.296875 33.515625 
C 48.296875 39.5 44.796875 44 37.203125 44 
C 28.296875 44 23.59375 37.703125 21.796875 35.203125 
C 21.5 40.890625 17.40625 44 13 44 
C 9.796875 44 7.59375 42.09375 5.90625 38.703125 
C 4.09375 35.109375 2.703125 29.125 2.703125 28.71875 
C 2.703125 28.328125 3.09375 27.828125 3.796875 27.828125 
C 4.59375 27.828125 4.703125 27.921875 5.296875 30.21875 
C 6.90625 36.3125 8.703125 41.984375 12.703125 41.984375 
C 15 41.984375 15.796875 40.390625 15.796875 37.40625 
C 15.796875 35.203125 14.796875 31.3125 14.09375 28.234375 
L 11.296875 17.453125 
C 10.90625 15.5625 9.796875 11.0625 9.296875 9.265625 
C 8.59375 6.671875 7.5 1.984375 7.5 1.484375 
C 7.5 0.09375 8.59375 -1 10.09375 -1 
C 11.296875 -1 12.703125 -0.40625 13.5 1.09375 
C 13.703125 1.59375 14.59375 5.078125 15.09375 7.078125 
L 17.296875 16.0625 
z
" id="CMMI12-110"/>
     <path d="M 45.59375 27.421875 
C 45.59375 36.90625 39.40625 44 30.296875 44 
C 17.09375 44 4.09375 29.625 4.09375 15.5625 
C 4.09375 6.078125 10.296875 -1 19.40625 -1 
C 32.703125 -1 45.59375 13.359375 45.59375 27.421875 
z
M 19.5 1 
C 14.5 1 10.796875 4.984375 10.796875 11.96875 
C 10.796875 16.5625 13.203125 26.734375 16 31.71875 
C 20.5 39.40625 26.09375 41.984375 30.203125 41.984375 
C 35.09375 41.984375 38.90625 38 38.90625 31.015625 
C 38.90625 27.03125 36.796875 16.359375 33 10.265625 
C 28.90625 3.59375 23.40625 1 19.5 1 
z
" id="CMMI12-111"/>
     <path d="M 20.59375 29.21875 
C 20.796875 29.828125 23.296875 34.8125 27 38 
C 29.59375 40.390625 33 41.984375 36.90625 41.984375 
C 40.90625 41.984375 42.296875 39 42.296875 35.015625 
C 42.296875 34.40625 42.296875 32.421875 41.09375 27.734375 
L 38.59375 17.453125 
C 37.796875 14.453125 35.90625 7.078125 35.703125 5.984375 
C 35.296875 4.484375 34.703125 1.890625 34.703125 1.484375 
C 34.703125 0.09375 35.796875 -1 37.296875 -1 
C 40.296875 -1 40.796875 1.296875 41.703125 4.890625 
L 47.703125 28.71875 
C 47.90625 29.53125 53.09375 41.984375 64.09375 41.984375 
C 68.09375 41.984375 69.5 39 69.5 35.015625 
C 69.5 29.421875 65.59375 18.546875 63.40625 12.5625 
C 62.5 10.171875 62 8.875 62 7.078125 
C 62 2.59375 65.09375 -1 69.90625 -1 
C 79.203125 -1 82.703125 13.65625 82.703125 14.265625 
C 82.703125 14.765625 82.296875 15.15625 81.703125 15.15625 
C 80.796875 15.15625 80.703125 14.859375 80.203125 13.15625 
C 77.90625 5.1875 74.203125 1 70.203125 1 
C 69.203125 1 67.59375 1.09375 67.59375 4.28125 
C 67.59375 6.875 68.796875 10.078125 69.203125 11.171875 
C 71 15.953125 75.5 27.734375 75.5 33.515625 
C 75.5 39.5 72 44 64.40625 44 
C 57.703125 44 52.296875 40.203125 48.296875 34.3125 
C 48 39.703125 44.703125 44 37.203125 44 
C 28.296875 44 23.59375 37.703125 21.796875 35.203125 
C 21.5 40.890625 17.40625 44 13 44 
C 10.09375 44 7.796875 42.59375 5.90625 38.796875 
C 4.09375 35.203125 2.703125 29.125 2.703125 28.71875 
C 2.703125 28.328125 3.09375 27.828125 3.796875 27.828125 
C 4.59375 27.828125 4.703125 27.921875 5.296875 30.21875 
C 6.796875 36.109375 8.703125 41.984375 12.703125 41.984375 
C 15 41.984375 15.796875 40.390625 15.796875 37.40625 
C 15.796875 35.203125 14.796875 31.3125 14.09375 28.234375 
L 11.296875 17.453125 
C 10.90625 15.5625 9.796875 11.0625 9.296875 9.265625 
C 8.59375 6.671875 7.5 1.984375 7.5 1.484375 
C 7.5 0.09375 8.59375 -1 10.09375 -1 
C 11.296875 -1 12.703125 -0.40625 13.5 1.09375 
C 13.703125 1.59375 14.59375 5.078125 15.09375 7.078125 
L 17.296875 16.0625 
z
" id="CMMI12-109"/>
     <path d="M 47.09375 34.953125 
C 46.703125 40.015625 45.59375 43.296875 43.59375 46.1875 
C 40 51.09375 33.703125 54 26.40625 54 
C 12.296875 54 3.09375 42.8125 3.09375 25.5 
C 3.09375 8.671875 12.09375 -2 26.296875 -2 
C 38.796875 -2 46.703125 5.5 47.703125 18.234375 
L 39.296875 18.234375 
C 37.90625 9.875 33.59375 5.6875 26.5 5.6875 
C 17.296875 5.6875 11.796875 13.15625 11.796875 25.5 
C 11.796875 38.53125 17.203125 46.296875 26.296875 46.296875 
C 33.296875 46.296875 37.703125 42.203125 38.703125 34.953125 
z
" id="Nimbus_Sans_L_Regular-99"/>
     <path d="M 7 73 
L 7 0 
L 15.296875 0 
L 15.296875 28.953125 
C 15.296875 39.671875 20.90625 46.6875 29.5 46.6875 
C 32.203125 46.6875 34.90625 45.78125 36.90625 44.28125 
C 39.296875 42.578125 40.296875 40.078125 40.296875 36.375 
L 40.296875 0 
L 48.59375 0 
L 48.59375 39.671875 
C 48.59375 48.484375 42.296875 54 32.09375 54 
C 24.703125 54 20.203125 51.6875 15.296875 45.28125 
L 15.296875 73 
z
" id="Nimbus_Sans_L_Regular-104"/>
     <path d="M 7 52 
L 7 0 
L 15.40625 0 
L 15.40625 28.671875 
C 15.40625 39.671875 21 46.6875 29.59375 46.6875 
C 36.203125 46.6875 40.40625 42.6875 40.40625 36.375 
L 40.40625 0 
L 48.703125 0 
L 48.703125 39.671875 
C 48.703125 48.390625 42.203125 54 32.09375 54 
C 24.296875 54 19.296875 50.984375 14.703125 43.6875 
L 14.703125 52 
z
" id="Nimbus_Sans_L_Regular-110"/>
    </defs>
    <g transform="translate(181.226239 450.29117)scale(0.192 -0.192)">
     <use transform="scale(0.996264)" xlink:href="#Nimbus_Sans_L_Regular-77"/>
     <use transform="translate(82.98843 0)scale(0.996264)" xlink:href="#Nimbus_Sans_L_Regular-105"/>
     <use transform="translate(105.105215 0)scale(0.996264)" xlink:href="#Nimbus_Sans_L_Regular-116"/>
     <use transform="translate(160.495554 0)scale(0.996264)" xlink:href="#CMMI12-102"/>
     <use transform="translate(208.578791 -14.943915)scale(0.697382)" xlink:href="#CMMI12-110"/>
     <use transform="translate(249.339635 -14.943915)scale(0.697382)" xlink:href="#CMMI12-111"/>
     <use transform="translate(282.166196 -14.943915)scale(0.697382)" xlink:href="#CMMI12-109"/>
     <use transform="translate(370.088289 0)scale(0.996264)" xlink:href="#Nimbus_Sans_L_Regular-101"/>
     <use transform="translate(425.479966 0)scale(0.996264)" xlink:href="#Nimbus_Sans_L_Regular-114"/>
     <use transform="translate(458.655196 0)scale(0.996264)" xlink:href="#Nimbus_Sans_L_Regular-114"/>
     <use transform="translate(491.830425 0)scale(0.996264)" xlink:href="#Nimbus_Sans_L_Regular-101"/>
     <use transform="translate(547.222102 0)scale(0.996264)" xlink:href="#Nimbus_Sans_L_Regular-99"/>
     <use transform="translate(597.035303 0)scale(0.996264)" xlink:href="#Nimbus_Sans_L_Regular-104"/>
     <use transform="translate(652.42698 0)scale(0.996264)" xlink:href="#Nimbus_Sans_L_Regular-110"/>
     <use transform="translate(707.818657 0)scale(0.996264)" xlink:href="#Nimbus_Sans_L_Regular-101"/>
     <use transform="translate(763.210334 0)scale(0.996264)" xlink:href="#Nimbus_Sans_L_Regular-116"/>
     <use transform="translate(790.905503 0)scale(0.996264)" xlink:href="#Nimbus_Sans_L_Regular-101"/>
     <use transform="translate(873.99235 0)scale(0.996264)" xlink:href="#Nimbus_Sans_L_Regular-87"/>
     <use transform="translate(965.051011 0)scale(0.996264)" xlink:href="#Nimbus_Sans_L_Regular-101"/>
     <use transform="translate(1020.442688 0)scale(0.996264)" xlink:href="#Nimbus_Sans_L_Regular-114"/>
     <use transform="translate(1057.602016 0)scale(0.996264)" xlink:href="#Nimbus_Sans_L_Regular-116"/>
     <use transform="translate(1085.297186 0)scale(0.996264)" xlink:href="#Nimbus_Sans_L_Regular-101"/>
     <use transform="translate(1168.384032 0)scale(0.996264)" xlink:href="#Nimbus_Sans_L_Regular-102"/>
     <use transform="translate(1207.187433 -0.249309)scale(0.996264)" xlink:href="#Nimbus_Sans_L_Regular-168"/>
     <use transform="translate(1196.079202 0)scale(0.996264)" xlink:href="#Nimbus_Sans_L_Regular-117"/>
     <use transform="translate(1251.470879 0)scale(0.996264)" xlink:href="#Nimbus_Sans_L_Regular-114"/>
     <use transform="translate(1319.57231 39.226102)scale(0.697382)" xlink:href="#CMMI12-98"/>
     <use transform="translate(1313.536792 -34.355253)scale(0.697382)" xlink:href="#CMMI12-102"/>
     <use transform="translate(1355.836329 0)scale(0.996264)" xlink:href="#CMR17-40"/>
     <use transform="translate(1391.117097 0)scale(0.996264)" xlink:href="#CMMI12-12"/>
     <use transform="translate(1451.711113 0)scale(0.996264)" xlink:href="#CMR17-41"/>
     <use transform="translate(1486.99188 0)scale(0.996264)" xlink:href="#CMMI12-59"/>
     <use transform="translate(1534.841147 44.444174)scale(0.697382)" xlink:href="#CMMI12-103"/>
     <use transform="translate(1531.888977 -34.355253)scale(0.697382)" xlink:href="#CMMI12-102"/>
     <use transform="translate(1574.188514 0)scale(0.996264)" xlink:href="#CMR17-40"/>
     <use transform="translate(1609.469281 0)scale(0.996264)" xlink:href="#CMMI12-12"/>
     <use transform="translate(1670.063297 0)scale(0.996264)" xlink:href="#CMR17-41"/>
     <use transform="translate(1705.344065 0)scale(0.996264)" xlink:href="#CMMI12-59"/>
     <use transform="translate(1754.969052 39.226102)scale(0.697382)" xlink:href="#CMMI12-101"/>
     <use transform="translate(1750.241161 -34.355253)scale(0.697382)" xlink:href="#CMMI12-102"/>
     <use transform="translate(1792.540698 0)scale(0.996264)" xlink:href="#CMR17-40"/>
     <use transform="translate(1827.821466 0)scale(0.996264)" xlink:href="#CMMI12-12"/>
     <use transform="translate(1888.415482 0)scale(0.996264)" xlink:href="#CMR17-41"/>
     <path d="M 1313.536792 22.914133 
L 1354.640815 22.914133 
L 1354.640815 26.899083 
L 1313.536792 26.899083 
L 1313.536792 22.914133 
z
"/>
     <path d="M 1531.888977 22.914133 
L 1572.993 22.914133 
L 1572.993 26.899083 
L 1531.888977 26.899083 
L 1531.888977 22.914133 
z
"/>
     <path d="M 1750.241161 22.914133 
L 1791.345184 22.914133 
L 1791.345184 26.899083 
L 1750.241161 26.899083 
L 1750.241161 22.914133 
z
"/>
    </g>
   </g>
   <g id="legend_2">
    <g id="patch_13">
     <path d="M 101.2 557.225521 
L 314.060968 557.225521 
Q 317.260968 557.225521 317.260968 554.025521 
L 317.260968 470.690909 
Q 317.260968 467.490909 314.060968 467.490909 
L 101.2 467.490909 
Q 98 467.490909 98 470.690909 
L 98 554.025521 
Q 98 557.225521 101.2 557.225521 
z
" style="fill:#ffffff;opacity:0.8;stroke:#cccccc;stroke-linejoin:miter;"/>
    </g>
    <g id="LineCollection_7">
     <path d="M 112.4 482.315769 
L 128.4 482.315769 
" style="fill:none;stroke:#094d92;stroke-width:1.5;"/>
    </g>
    <g id="LineCollection_8">
     <path d="M 120.4 490.315769 
L 120.4 474.315769 
" style="fill:none;stroke:#094d92;stroke-width:1.5;"/>
    </g>
    <g id="line2d_61">
     <path d="M 104.4 482.315769 
L 136.4 482.315769 
" style="fill:none;stroke:#094d92;stroke-linecap:square;stroke-width:1.5;"/>
    </g>
    <g id="line2d_62"/>
    <g id="text_27">
     <!-- $\frac{b}{f}(\beta)$ mit $f_{nom}$ errechnet -->
     <defs>
      <path d="M 7 52 
L 7 0 
L 15.40625 0 
L 15.40625 32.640625 
C 15.40625 40.578125 20.90625 46.6875 27.703125 46.6875 
C 33.90625 46.6875 37.40625 42.875 37.40625 36.171875 
L 37.40625 0 
L 45.796875 0 
L 45.796875 32.953125 
C 45.796875 40.578125 51.296875 46.6875 58.09375 46.6875 
C 64.203125 46.6875 67.796875 42.78125 67.796875 36.171875 
L 67.796875 0 
L 76.203125 0 
L 76.203125 39.375 
C 76.203125 48.796875 70.796875 54 61 54 
C 54 54 49.796875 51.890625 44.90625 45.984375 
C 41.796875 51.59375 37.59375 54 30.796875 54 
C 23.796875 54 19.203125 51.390625 14.703125 45.09375 
L 14.703125 52 
z
" id="Nimbus_Sans_L_Regular-109"/>
     </defs>
     <g transform="translate(149.2 487.915769)scale(0.16 -0.16)">
      <use transform="translate(6.035518 39.226102)scale(0.697382)" xlink:href="#CMMI12-98"/>
      <use transform="translate(0 -34.355253)scale(0.697382)" xlink:href="#CMMI12-102"/>
      <use transform="translate(42.299537 0)scale(0.996264)" xlink:href="#CMR17-40"/>
      <use transform="translate(77.580305 0)scale(0.996264)" xlink:href="#CMMI12-12"/>
      <use transform="translate(138.174321 0)scale(0.996264)" xlink:href="#CMR17-41"/>
      <use transform="translate(201.150258 0)scale(0.996264)" xlink:href="#Nimbus_Sans_L_Regular-109"/>
      <use transform="translate(284.138688 0)scale(0.996264)" xlink:href="#Nimbus_Sans_L_Regular-105"/>
      <use transform="translate(306.255473 0)scale(0.996264)" xlink:href="#Nimbus_Sans_L_Regular-116"/>
      <use transform="translate(361.645812 0)scale(0.996264)" xlink:href="#CMMI12-102"/>
      <use transform="translate(409.72905 -14.943915)scale(0.697382)" xlink:href="#CMMI12-110"/>
      <use transform="translate(450.489893 -14.943915)scale(0.697382)" xlink:href="#CMMI12-111"/>
      <use transform="translate(483.316454 -14.943915)scale(0.697382)" xlink:href="#CMMI12-109"/>
      <use transform="translate(571.238547 0)scale(0.996264)" xlink:href="#Nimbus_Sans_L_Regular-101"/>
      <use transform="translate(626.630224 0)scale(0.996264)" xlink:href="#Nimbus_Sans_L_Regular-114"/>
      <use transform="translate(659.805454 0)scale(0.996264)" xlink:href="#Nimbus_Sans_L_Regular-114"/>
      <use transform="translate(692.980683 0)scale(0.996264)" xlink:href="#Nimbus_Sans_L_Regular-101"/>
      <use transform="translate(748.37236 0)scale(0.996264)" xlink:href="#Nimbus_Sans_L_Regular-99"/>
      <use transform="translate(798.185561 0)scale(0.996264)" xlink:href="#Nimbus_Sans_L_Regular-104"/>
      <use transform="translate(853.577238 0)scale(0.996264)" xlink:href="#Nimbus_Sans_L_Regular-110"/>
      <use transform="translate(908.968915 0)scale(0.996264)" xlink:href="#Nimbus_Sans_L_Regular-101"/>
      <use transform="translate(964.360592 0)scale(0.996264)" xlink:href="#Nimbus_Sans_L_Regular-116"/>
      <path d="M 0 22.914133 
L 41.104023 22.914133 
L 41.104023 26.899083 
L 0 26.899083 
L 0 22.914133 
z
"/>
     </g>
    </g>
    <g id="LineCollection_9">
     <path d="M 112.4 509.937409 
L 128.4 509.937409 
" style="fill:none;stroke:#68b684;stroke-width:1.5;"/>
    </g>
    <g id="LineCollection_10">
     <path d="M 120.4 517.937409 
L 120.4 501.937409 
" style="fill:none;stroke:#68b684;stroke-width:1.5;"/>
    </g>
    <g id="line2d_63">
     <path d="M 104.4 509.937409 
L 136.4 509.937409 
" style="fill:none;stroke:#68b684;stroke-linecap:square;stroke-width:1.5;"/>
    </g>
    <g id="line2d_64"/>
    <g id="text_28">
     <!-- $\frac{g}{f}(\beta)$ mit $f_{nom}$ errechnet -->
     <g transform="translate(149.2 515.537409)scale(0.16 -0.16)">
      <use transform="translate(2.952171 44.444174)scale(0.697382)" xlink:href="#CMMI12-103"/>
      <use transform="translate(0 -34.355253)scale(0.697382)" xlink:href="#CMMI12-102"/>
      <use transform="translate(42.299537 0)scale(0.996264)" xlink:href="#CMR17-40"/>
      <use transform="translate(77.580305 0)scale(0.996264)" xlink:href="#CMMI12-12"/>
      <use transform="translate(138.174321 0)scale(0.996264)" xlink:href="#CMR17-41"/>
      <use transform="translate(201.150258 0)scale(0.996264)" xlink:href="#Nimbus_Sans_L_Regular-109"/>
      <use transform="translate(284.138688 0)scale(0.996264)" xlink:href="#Nimbus_Sans_L_Regular-105"/>
      <use transform="translate(306.255473 0)scale(0.996264)" xlink:href="#Nimbus_Sans_L_Regular-116"/>
      <use transform="translate(361.645812 0)scale(0.996264)" xlink:href="#CMMI12-102"/>
      <use transform="translate(409.72905 -14.943915)scale(0.697382)" xlink:href="#CMMI12-110"/>
      <use transform="translate(450.489893 -14.943915)scale(0.697382)" xlink:href="#CMMI12-111"/>
      <use transform="translate(483.316454 -14.943915)scale(0.697382)" xlink:href="#CMMI12-109"/>
      <use transform="translate(571.238547 0)scale(0.996264)" xlink:href="#Nimbus_Sans_L_Regular-101"/>
      <use transform="translate(626.630224 0)scale(0.996264)" xlink:href="#Nimbus_Sans_L_Regular-114"/>
      <use transform="translate(659.805454 0)scale(0.996264)" xlink:href="#Nimbus_Sans_L_Regular-114"/>
      <use transform="translate(692.980683 0)scale(0.996264)" xlink:href="#Nimbus_Sans_L_Regular-101"/>
      <use transform="translate(748.37236 0)scale(0.996264)" xlink:href="#Nimbus_Sans_L_Regular-99"/>
      <use transform="translate(798.185561 0)scale(0.996264)" xlink:href="#Nimbus_Sans_L_Regular-104"/>
      <use transform="translate(853.577238 0)scale(0.996264)" xlink:href="#Nimbus_Sans_L_Regular-110"/>
      <use transform="translate(908.968915 0)scale(0.996264)" xlink:href="#Nimbus_Sans_L_Regular-101"/>
      <use transform="translate(964.360592 0)scale(0.996264)" xlink:href="#Nimbus_Sans_L_Regular-116"/>
      <path d="M 0 22.914133 
L 41.104023 22.914133 
L 41.104023 26.899083 
L 0 26.899083 
L 0 22.914133 
z
"/>
     </g>
    </g>
    <g id="LineCollection_11">
     <path d="M 112.4 537.559049 
L 128.4 537.559049 
" style="fill:none;stroke:#1c1018;stroke-width:1.5;"/>
    </g>
    <g id="LineCollection_12">
     <path d="M 120.4 545.559049 
L 120.4 529.559049 
" style="fill:none;stroke:#1c1018;stroke-width:1.5;"/>
    </g>
    <g id="line2d_65">
     <path d="M 104.4 537.559049 
L 136.4 537.559049 
" style="fill:none;stroke:#1c1018;stroke-linecap:square;stroke-width:1.5;"/>
    </g>
    <g id="line2d_66"/>
    <g id="text_29">
     <!-- $\frac{e}{f}(\beta)$ mit $f_{nom}$ errechnet -->
     <g transform="translate(149.2 543.159049)scale(0.16 -0.16)">
      <use transform="translate(4.727891 39.226102)scale(0.697382)" xlink:href="#CMMI12-101"/>
      <use transform="translate(0 -34.355253)scale(0.697382)" xlink:href="#CMMI12-102"/>
      <use transform="translate(42.299537 0)scale(0.996264)" xlink:href="#CMR17-40"/>
      <use transform="translate(77.580305 0)scale(0.996264)" xlink:href="#CMMI12-12"/>
      <use transform="translate(138.174321 0)scale(0.996264)" xlink:href="#CMR17-41"/>
      <use transform="translate(201.150258 0)scale(0.996264)" xlink:href="#Nimbus_Sans_L_Regular-109"/>
      <use transform="translate(284.138688 0)scale(0.996264)" xlink:href="#Nimbus_Sans_L_Regular-105"/>
      <use transform="translate(306.255473 0)scale(0.996264)" xlink:href="#Nimbus_Sans_L_Regular-116"/>
      <use transform="translate(361.645812 0)scale(0.996264)" xlink:href="#CMMI12-102"/>
      <use transform="translate(409.72905 -14.943915)scale(0.697382)" xlink:href="#CMMI12-110"/>
      <use transform="translate(450.489893 -14.943915)scale(0.697382)" xlink:href="#CMMI12-111"/>
      <use transform="translate(483.316454 -14.943915)scale(0.697382)" xlink:href="#CMMI12-109"/>
      <use transform="translate(571.238547 0)scale(0.996264)" xlink:href="#Nimbus_Sans_L_Regular-101"/>
      <use transform="translate(626.630224 0)scale(0.996264)" xlink:href="#Nimbus_Sans_L_Regular-114"/>
      <use transform="translate(659.805454 0)scale(0.996264)" xlink:href="#Nimbus_Sans_L_Regular-114"/>
      <use transform="translate(692.980683 0)scale(0.996264)" xlink:href="#Nimbus_Sans_L_Regular-101"/>
      <use transform="translate(748.37236 0)scale(0.996264)" xlink:href="#Nimbus_Sans_L_Regular-99"/>
      <use transform="translate(798.185561 0)scale(0.996264)" xlink:href="#Nimbus_Sans_L_Regular-104"/>
      <use transform="translate(853.577238 0)scale(0.996264)" xlink:href="#Nimbus_Sans_L_Regular-110"/>
      <use transform="translate(908.968915 0)scale(0.996264)" xlink:href="#Nimbus_Sans_L_Regular-101"/>
      <use transform="translate(964.360592 0)scale(0.996264)" xlink:href="#Nimbus_Sans_L_Regular-116"/>
      <path d="M 0 22.914133 
L 41.104023 22.914133 
L 41.104023 26.899083 
L 0 26.899083 
L 0 22.914133 
z
"/>
     </g>
    </g>
   </g>
  </g>
 </g>
 <defs>
  <clipPath id="p7791f15ddb">
   <rect height="296.509091" width="558" x="90" y="103.68"/>
  </clipPath>
  <clipPath id="p92a42748f5">
   <rect height="296.509091" width="558" x="90" y="459.490909"/>
  </clipPath>
 </defs>
</svg>
