<?xml version="1.0" encoding="utf-8" standalone="no"?>
<!DOCTYPE svg PUBLIC "-//W3C//DTD SVG 1.1//EN"
  "http://www.w3.org/Graphics/SVG/1.1/DTD/svg11.dtd">
<!-- Created with matplotlib (https://matplotlib.org/) -->
<svg height="360pt" version="1.1" viewBox="0 0 864 360" width="864pt" xmlns="http://www.w3.org/2000/svg" xmlns:xlink="http://www.w3.org/1999/xlink">
 <defs>
  <style type="text/css">
*{stroke-linecap:butt;stroke-linejoin:round;}
  </style>
 </defs>
 <g id="figure_1">
  <g id="patch_1">
   <path d="M 0 360 
L 864 360 
L 864 0 
L 0 0 
z
" style="fill:#ffffff;"/>
  </g>
  <g id="axes_1">
   <g id="patch_2">
    <path d="M 108 315 
L 777.6 315 
L 777.6 43.2 
L 108 43.2 
z
" style="fill:#ffffff;"/>
   </g>
   <g id="matplotlib.axis_1">
    <g id="xtick_1">
     <g id="line2d_1">
      <path clip-path="url(#pd88596f9b6)" d="M 138.436364 315 
L 138.436364 43.2 
" style="fill:none;stroke:#b0b0b0;stroke-linecap:square;stroke-width:0.8;"/>
     </g>
     <g id="line2d_2">
      <defs>
       <path d="M 0 0 
L 0 3.5 
" id="m9bde277fac" style="stroke:#000000;stroke-width:0.8;"/>
      </defs>
      <g>
       <use style="stroke:#000000;stroke-width:0.8;" x="138.436364" xlink:href="#m9bde277fac" y="315"/>
      </g>
     </g>
     <g id="text_1">
      <!-- $\mathdefault{0.4}$ -->
      <defs>
       <path d="M 42 31.84375 
C 42 37.96875 41.90625 48.421875 37.703125 56.453125 
C 34 63.484375 28.09375 66 22.90625 66 
C 18.09375 66 12 63.78125 8.203125 56.5625 
C 4.203125 49.015625 3.796875 39.671875 3.796875 31.84375 
C 3.796875 26.109375 3.90625 17.375 7 9.734375 
C 11.296875 -0.609375 19 -2 22.90625 -2 
C 27.5 -2 34.5 -0.109375 38.59375 9.4375 
C 41.59375 16.375 42 24.5 42 31.84375 
z
M 22.90625 -0.40625 
C 16.5 -0.40625 12.703125 5.125 11.296875 12.75 
C 10.203125 18.6875 10.203125 27.328125 10.203125 32.953125 
C 10.203125 40.6875 10.203125 47.109375 11.5 53.234375 
C 13.40625 61.78125 19 64.390625 22.90625 64.390625 
C 27 64.390625 32.296875 61.671875 34.203125 53.4375 
C 35.5 47.71875 35.59375 40.984375 35.59375 32.953125 
C 35.59375 26.421875 35.59375 18.375 34.40625 12.453125 
C 32.296875 1.5 26.40625 -0.40625 22.90625 -0.40625 
z
" id="CMR17-48"/>
       <path d="M 18.40625 4.796875 
C 18.40625 7.6875 16 9.6875 13.59375 9.6875 
C 10.703125 9.6875 8.703125 7.296875 8.703125 4.890625 
C 8.703125 2 11.09375 0 13.5 0 
C 16.40625 0 18.40625 2.390625 18.40625 4.796875 
z
" id="CMMI12-58"/>
       <path d="M 33.59375 64.796875 
C 33.59375 66.890625 33.5 67 31.703125 67 
L 2 19.59375 
L 2 17 
L 27.796875 17 
L 27.796875 7.1875 
C 27.796875 3.59375 27.59375 2.59375 20.59375 2.59375 
L 18.703125 2.59375 
L 18.703125 0 
C 21.90625 0.1875 27.296875 0.1875 30.703125 0.1875 
C 34.09375 0.1875 39.5 0.1875 42.703125 0 
L 42.703125 2.59375 
L 40.796875 2.59375 
C 33.796875 2.59375 33.59375 3.59375 33.59375 7.1875 
L 33.59375 17 
L 43.796875 17 
L 43.796875 19.59375 
L 33.59375 19.59375 
z
M 28.09375 58.171875 
L 28.09375 19.59375 
L 4 19.59375 
z
" id="CMR17-52"/>
      </defs>
      <g transform="translate(127.773332 334.776976)scale(0.18 -0.18)">
       <use transform="scale(0.996264)" xlink:href="#CMR17-48"/>
       <use transform="translate(45.690477 0)scale(0.996264)" xlink:href="#CMMI12-58"/>
       <use transform="translate(72.787654 0)scale(0.996264)" xlink:href="#CMR17-52"/>
      </g>
     </g>
    </g>
    <g id="xtick_2">
     <g id="line2d_3">
      <path clip-path="url(#pd88596f9b6)" d="M 249.11405 315 
L 249.11405 43.2 
" style="fill:none;stroke:#b0b0b0;stroke-linecap:square;stroke-width:0.8;"/>
     </g>
     <g id="line2d_4">
      <g>
       <use style="stroke:#000000;stroke-width:0.8;" x="249.11405" xlink:href="#m9bde277fac" y="315"/>
      </g>
     </g>
     <g id="text_2">
      <!-- $\mathdefault{0.6}$ -->
      <defs>
       <path d="M 10.59375 34.34375 
C 10.59375 58 21.796875 63.6875 28.296875 63.6875 
C 30.40625 63.6875 35.5 63.265625 37.5 59.09375 
C 35.90625 59.09375 32.90625 59.09375 32.90625 55.59375 
C 32.90625 52.890625 35.09375 52 36.5 52 
C 37.40625 52 40.09375 52.390625 40.09375 55.796875 
C 40.09375 62.296875 35.09375 66 28.203125 66 
C 16.296875 66 3.796875 53.296875 3.796875 31.421875 
C 3.796875 4.015625 15.09375 -2 23.09375 -2 
C 32.796875 -2 42 6.734375 42 20.234375 
C 42 32.828125 33.90625 42 23.703125 42 
C 17.59375 42 13.09375 37.96875 10.59375 30.921875 
z
M 23.09375 0.390625 
C 10.796875 0.390625 10.796875 18.9375 10.796875 22.65625 
C 10.796875 29.90625 14.203125 40.390625 23.5 40.390625 
C 25.203125 40.390625 30.09375 40.390625 33.40625 33.4375 
C 35.203125 29.515625 35.203125 25.375 35.203125 20.34375 
C 35.203125 14.90625 35.203125 10.875 33.09375 6.84375 
C 30.90625 2.703125 27.703125 0.390625 23.09375 0.390625 
z
" id="CMR17-54"/>
      </defs>
      <g transform="translate(238.451018 334.776976)scale(0.18 -0.18)">
       <use transform="scale(0.996264)" xlink:href="#CMR17-48"/>
       <use transform="translate(45.690477 0)scale(0.996264)" xlink:href="#CMMI12-58"/>
       <use transform="translate(72.787654 0)scale(0.996264)" xlink:href="#CMR17-54"/>
      </g>
     </g>
    </g>
    <g id="xtick_3">
     <g id="line2d_5">
      <path clip-path="url(#pd88596f9b6)" d="M 359.791736 315 
L 359.791736 43.2 
" style="fill:none;stroke:#b0b0b0;stroke-linecap:square;stroke-width:0.8;"/>
     </g>
     <g id="line2d_6">
      <g>
       <use style="stroke:#000000;stroke-width:0.8;" x="359.791736" xlink:href="#m9bde277fac" y="315"/>
      </g>
     </g>
     <g id="text_3">
      <!-- $\mathdefault{0.8}$ -->
      <defs>
       <path d="M 27.203125 35.765625 
C 33.5 38.96875 39.90625 43.796875 39.90625 51.53125 
C 39.90625 60.6875 31.09375 66 23 66 
C 13.90625 66 5.90625 59.375 5.90625 50.234375 
C 5.90625 47.71875 6.5 43.390625 10.40625 39.578125 
C 11.40625 38.578125 15.59375 35.5625 18.296875 33.65625 
C 13.796875 31.34375 3.296875 25.8125 3.296875 14.765625 
C 3.296875 4.40625 13.09375 -2 22.796875 -2 
C 33.5 -2 42.5 5.71875 42.5 15.96875 
C 42.5 25.109375 36.40625 29.328125 32.40625 32.046875 
z
M 14.09375 44.609375 
C 13.296875 45.109375 9.296875 48.21875 9.296875 52.9375 
C 9.296875 59.078125 15.59375 63.6875 22.796875 63.6875 
C 30.703125 63.6875 36.5 58.0625 36.5 51.53125 
C 36.5 42.1875 26.09375 36.859375 25.59375 36.859375 
C 25.5 36.859375 25.40625 36.859375 24.59375 37.46875 
z
M 32.5 24 
C 34 22.90625 38.796875 19.578125 38.796875 13.453125 
C 38.796875 6.015625 31.40625 0.390625 23 0.390625 
C 13.90625 0.390625 7 6.921875 7 14.859375 
C 7 22.796875 13.09375 29.4375 20 32.546875 
z
" id="CMR17-56"/>
      </defs>
      <g transform="translate(349.128704 334.776976)scale(0.18 -0.18)">
       <use transform="scale(0.996264)" xlink:href="#CMR17-48"/>
       <use transform="translate(45.690477 0)scale(0.996264)" xlink:href="#CMMI12-58"/>
       <use transform="translate(72.787654 0)scale(0.996264)" xlink:href="#CMR17-56"/>
      </g>
     </g>
    </g>
    <g id="xtick_4">
     <g id="line2d_7">
      <path clip-path="url(#pd88596f9b6)" d="M 470.469421 315 
L 470.469421 43.2 
" style="fill:none;stroke:#b0b0b0;stroke-linecap:square;stroke-width:0.8;"/>
     </g>
     <g id="line2d_8">
      <g>
       <use style="stroke:#000000;stroke-width:0.8;" x="470.469421" xlink:href="#m9bde277fac" y="315"/>
      </g>
     </g>
     <g id="text_4">
      <!-- $\mathdefault{1.0}$ -->
      <defs>
       <path d="M 26.59375 63.796875 
C 26.59375 65.890625 26.5 66 25.09375 66 
C 21.203125 61.359375 15.296875 59.890625 9.703125 59.6875 
C 9.40625 59.6875 8.90625 59.6875 8.796875 59.5 
C 8.703125 59.296875 8.703125 59.09375 8.703125 57 
C 11.796875 57 17 57.59375 21 59.984375 
L 21 7.296875 
C 21 3.796875 20.796875 2.59375 12.203125 2.59375 
L 9.203125 2.59375 
L 9.203125 0 
C 14 0.09375 19 0.1875 23.796875 0.1875 
C 28.59375 0.1875 33.59375 0.09375 38.40625 0 
L 38.40625 2.59375 
L 35.40625 2.59375 
C 26.796875 2.59375 26.59375 3.6875 26.59375 7.296875 
z
" id="CMR17-49"/>
      </defs>
      <g transform="translate(459.80639 334.776976)scale(0.18 -0.18)">
       <use transform="scale(0.996264)" xlink:href="#CMR17-49"/>
       <use transform="translate(45.690477 0)scale(0.996264)" xlink:href="#CMMI12-58"/>
       <use transform="translate(72.787654 0)scale(0.996264)" xlink:href="#CMR17-48"/>
      </g>
     </g>
    </g>
    <g id="xtick_5">
     <g id="line2d_9">
      <path clip-path="url(#pd88596f9b6)" d="M 581.147107 315 
L 581.147107 43.2 
" style="fill:none;stroke:#b0b0b0;stroke-linecap:square;stroke-width:0.8;"/>
     </g>
     <g id="line2d_10">
      <g>
       <use style="stroke:#000000;stroke-width:0.8;" x="581.147107" xlink:href="#m9bde277fac" y="315"/>
      </g>
     </g>
     <g id="text_5">
      <!-- $\mathdefault{1.2}$ -->
      <defs>
       <path d="M 41.703125 15.46875 
L 39.90625 15.46875 
C 38.90625 8.390625 38.09375 7.1875 37.703125 6.59375 
C 37.203125 5.796875 30 5.796875 28.59375 5.796875 
L 9.40625 5.796875 
C 13 9.6875 20 16.765625 28.5 24.9375 
C 34.59375 30.71875 41.703125 37.5 41.703125 47.390625 
C 41.703125 59.1875 32.296875 66 21.796875 66 
C 10.796875 66 4.09375 56.296875 4.09375 47.296875 
C 4.09375 43.390625 7 42.890625 8.203125 42.890625 
C 9.203125 42.890625 12.203125 43.484375 12.203125 46.984375 
C 12.203125 50.09375 9.59375 51 8.203125 51 
C 7.59375 51 7 50.890625 6.59375 50.6875 
C 8.5 59.1875 14.296875 63.390625 20.40625 63.390625 
C 29.09375 63.390625 34.796875 56.5 34.796875 47.390625 
C 34.796875 38.703125 29.703125 31.21875 24 24.734375 
L 4.09375 2.296875 
L 4.09375 0 
L 39.296875 0 
z
" id="CMR17-50"/>
      </defs>
      <g transform="translate(570.484076 334.776976)scale(0.18 -0.18)">
       <use transform="scale(0.996264)" xlink:href="#CMR17-49"/>
       <use transform="translate(45.690477 0)scale(0.996264)" xlink:href="#CMMI12-58"/>
       <use transform="translate(72.787654 0)scale(0.996264)" xlink:href="#CMR17-50"/>
      </g>
     </g>
    </g>
    <g id="xtick_6">
     <g id="line2d_11">
      <path clip-path="url(#pd88596f9b6)" d="M 691.824793 315 
L 691.824793 43.2 
" style="fill:none;stroke:#b0b0b0;stroke-linecap:square;stroke-width:0.8;"/>
     </g>
     <g id="line2d_12">
      <g>
       <use style="stroke:#000000;stroke-width:0.8;" x="691.824793" xlink:href="#m9bde277fac" y="315"/>
      </g>
     </g>
     <g id="text_6">
      <!-- $\mathdefault{1.4}$ -->
      <g transform="translate(681.161762 334.776976)scale(0.18 -0.18)">
       <use transform="scale(0.996264)" xlink:href="#CMR17-49"/>
       <use transform="translate(45.690477 0)scale(0.996264)" xlink:href="#CMMI12-58"/>
       <use transform="translate(72.787654 0)scale(0.996264)" xlink:href="#CMR17-52"/>
      </g>
     </g>
    </g>
    <g id="text_7">
     <!-- $\beta$ -->
     <defs>
      <path d="M 56.59375 58.421875 
C 56.59375 64.546875 51.5 71 42.40625 71 
C 29.5 71 21.296875 54.84375 18.703125 44.21875 
L 2.90625 -18 
C 2.703125 -18.8125 3.296875 -19 3.796875 -19 
C 4.5 -19 5 -18.90625 5.09375 -18.40625 
L 12.09375 9.25 
C 13.09375 3.609375 18.59375 -1 24.5 -1 
C 38.796875 -1 52.296875 10.265625 52.296875 25.28125 
C 52.296875 29.109375 51.40625 32.9375 49.296875 36.15625 
C 48.09375 38.078125 46.59375 39.484375 45 40.609375 
C 52.203125 44.109375 56.59375 50.34375 56.59375 58.421875 
z
M 39.203125 40.703125 
C 37.59375 40.171875 36 40 34.09375 40 
C 32.703125 40 31.40625 39.890625 29.59375 40.4375 
C 30.59375 41.046875 32.09375 41.234375 34.203125 41.234375 
C 36 41.234375 37.796875 41.046875 39.203125 40.703125 
z
M 51.40625 59.34375 
C 51.40625 53.71875 48.703125 45.546875 42.203125 41.9375 
C 40.296875 42.546875 37.703125 43 35.5 43 
C 33.40625 43 27.40625 43.203125 27.40625 40.34375 
C 27.40625 37.671875 32.90625 37.96875 34.59375 37.96875 
C 37.203125 37.96875 39.5 38.578125 41.90625 39.28125 
C 45.09375 36.671875 46.5 33.234375 46.5 28.203125 
C 46.5 22.359375 44.90625 17.625 43 13.28125 
C 39.703125 5.828125 31.90625 1 25 1 
C 17.703125 1 13.90625 6.84375 13.90625 13.6875 
C 13.90625 14.59375 13.90625 15.90625 14.296875 17.421875 
L 20.796875 43.5 
C 24.09375 56.890625 32.5 68.953125 42.203125 68.953125 
C 49.40625 68.953125 51.40625 63.84375 51.40625 59.34375 
z
" id="CMMI12-12"/>
     </defs>
     <g transform="translate(437.843634 355.373522)scale(0.18 -0.18)">
      <use transform="scale(0.996264)" xlink:href="#CMMI12-12"/>
     </g>
    </g>
   </g>
   <g id="matplotlib.axis_2">
    <g id="ytick_1">
     <g id="line2d_13">
      <path clip-path="url(#pd88596f9b6)" d="M 108 260.287013 
L 777.6 260.287013 
" style="fill:none;stroke:#b0b0b0;stroke-linecap:square;stroke-width:0.8;"/>
     </g>
     <g id="line2d_14">
      <defs>
       <path d="M 0 0 
L -3.5 0 
" id="m4fc8890b4c" style="stroke:#000000;stroke-width:0.8;"/>
      </defs>
      <g>
       <use style="stroke:#000000;stroke-width:0.8;" x="108" xlink:href="#m4fc8890b4c" y="260.287013"/>
      </g>
     </g>
     <g id="text_8">
      <!-- $\mathdefault{2}$ -->
      <g transform="translate(92.775714 266.675501)scale(0.18 -0.18)">
       <use transform="scale(0.996264)" xlink:href="#CMR17-50"/>
      </g>
     </g>
    </g>
    <g id="ytick_2">
     <g id="line2d_15">
      <path clip-path="url(#pd88596f9b6)" d="M 108 189.68961 
L 777.6 189.68961 
" style="fill:none;stroke:#b0b0b0;stroke-linecap:square;stroke-width:0.8;"/>
     </g>
     <g id="line2d_16">
      <g>
       <use style="stroke:#000000;stroke-width:0.8;" x="108" xlink:href="#m4fc8890b4c" y="189.68961"/>
      </g>
     </g>
     <g id="text_9">
      <!-- $\mathdefault{3}$ -->
      <defs>
       <path d="M 22.09375 34 
C 31 34 34.90625 26.140625 34.90625 17.09375 
C 34.90625 5.03125 28.5 0.390625 22.703125 0.390625 
C 17.40625 0.390625 8.796875 3.015625 6.09375 10.796875 
C 6.59375 10.59375 7.09375 10.59375 7.59375 10.59375 
C 10 10.59375 11.796875 12.1875 11.796875 14.796875 
C 11.796875 17.6875 9.59375 19 7.59375 19 
C 5.90625 19 3.296875 18.1875 3.296875 14.484375 
C 3.296875 5.234375 12.296875 -2 22.90625 -2 
C 34 -2 42.5 6.75 42.5 16.984375 
C 42.5 26.84375 34.5 34 25 35.09375 
C 32.59375 36.671875 39.90625 43.375 39.90625 52.390625 
C 39.90625 60.25 32 66 23 66 
C 13.90625 66 5.90625 60.34375 5.90625 52.296875 
C 5.90625 48.796875 8.5 48.1875 9.796875 48.1875 
C 11.90625 48.1875 13.703125 49.484375 13.703125 52.09375 
C 13.703125 54.6875 11.90625 56 9.796875 56 
C 9.40625 56 8.90625 56 8.5 55.796875 
C 11.40625 62.484375 19.296875 63.6875 22.796875 63.6875 
C 26.296875 63.6875 32.90625 61.96875 32.90625 52.296875 
C 32.90625 49.484375 32.5 44.546875 29.09375 40.21875 
C 26.09375 36.390625 22.703125 36.1875 19.40625 35.890625 
C 18.90625 35.890625 16.59375 35.6875 16.203125 35.6875 
C 15.5 35.59375 15.09375 35.5 15.09375 34.796875 
C 15.09375 34.09375 15.203125 34 17.203125 34 
z
" id="CMR17-51"/>
      </defs>
      <g transform="translate(92.775714 196.078099)scale(0.18 -0.18)">
       <use transform="scale(0.996264)" xlink:href="#CMR17-51"/>
      </g>
     </g>
    </g>
    <g id="ytick_3">
     <g id="line2d_17">
      <path clip-path="url(#pd88596f9b6)" d="M 108 119.092208 
L 777.6 119.092208 
" style="fill:none;stroke:#b0b0b0;stroke-linecap:square;stroke-width:0.8;"/>
     </g>
     <g id="line2d_18">
      <g>
       <use style="stroke:#000000;stroke-width:0.8;" x="108" xlink:href="#m4fc8890b4c" y="119.092208"/>
      </g>
     </g>
     <g id="text_10">
      <!-- $\mathdefault{4}$ -->
      <g transform="translate(92.775714 125.480696)scale(0.18 -0.18)">
       <use transform="scale(0.996264)" xlink:href="#CMR17-52"/>
      </g>
     </g>
    </g>
    <g id="ytick_4">
     <g id="line2d_19">
      <path clip-path="url(#pd88596f9b6)" d="M 108 48.494805 
L 777.6 48.494805 
" style="fill:none;stroke:#b0b0b0;stroke-linecap:square;stroke-width:0.8;"/>
     </g>
     <g id="line2d_20">
      <g>
       <use style="stroke:#000000;stroke-width:0.8;" x="108" xlink:href="#m4fc8890b4c" y="48.494805"/>
      </g>
     </g>
     <g id="text_11">
      <!-- $\mathdefault{5}$ -->
      <defs>
       <path d="M 11.40625 58.59375 
C 12.40625 58.1875 16.5 56.890625 20.703125 56.890625 
C 30 56.890625 35.09375 61.890625 38 64.6875 
C 38 65.484375 38 66 37.40625 66 
C 37.296875 66 37.09375 66 36.296875 65.59375 
C 32.796875 64.09375 28.703125 63 23.703125 63 
C 20.703125 63 16.203125 63.359375 11.296875 65.484375 
C 10.203125 66 10 66 9.90625 66 
C 9.40625 66 9.296875 65.890625 9.296875 63.90625 
L 9.296875 34.859375 
C 9.296875 33.015625 9.296875 32.5 10.296875 32.5 
C 10.796875 32.5 11 32.703125 11.5 33.421875 
C 14.703125 38.046875 19.09375 40 24.09375 40 
C 27.59375 40 35.09375 37.734375 35.09375 20.203125 
C 35.09375 16.984375 35.09375 11.1875 32.09375 6.59375 
C 29.59375 2.484375 25.703125 0.390625 21.40625 0.390625 
C 14.796875 0.390625 8.09375 4.984375 6.296875 12.6875 
C 6.703125 12.59375 7.5 12.390625 7.90625 12.390625 
C 9.203125 12.390625 11.703125 13.09375 11.703125 16.1875 
C 11.703125 18.890625 9.796875 20 7.90625 20 
C 5.59375 20 4.09375 18.59375 4.09375 15.796875 
C 4.09375 7.09375 11 -2 21.59375 -2 
C 31.90625 -2 41.703125 6.890625 41.703125 19.796875 
C 41.703125 32.09375 33.90625 41.59375 24.203125 41.59375 
C 19.09375 41.59375 14.796875 39.6875 11.40625 36 
z
" id="CMR17-53"/>
      </defs>
      <g transform="translate(92.775714 54.883293)scale(0.18 -0.18)">
       <use transform="scale(0.996264)" xlink:href="#CMR17-53"/>
      </g>
     </g>
    </g>
    <g id="text_12">
     <!-- $\frac{b}{f}(\beta), \frac{g}{f}(\beta), \frac{e}{f}(\beta)$ -->
     <defs>
      <path d="M 23.09375 66.484375 
C 23.203125 66.890625 23.40625 67.484375 23.40625 67.984375 
C 23.40625 69 22.40625 69 22.203125 69 
C 22.09375 69 18.5 68.6875 16.703125 68.484375 
C 15 68.390625 13.5 68.1875 11.703125 68.09375 
C 9.296875 67.890625 8.59375 67.796875 8.59375 65.984375 
C 8.59375 64.984375 9.59375 64.984375 10.59375 64.984375 
C 15.703125 64.984375 15.703125 64.109375 15.703125 63.125 
C 15.703125 62.421875 14.90625 59.5625 14.5 57.796875 
L 12.09375 48.328125 
C 11.09375 44.390625 5.40625 21.75 5 19.953125 
C 4.5 17.453125 4.5 15.75 4.5 14.453125 
C 4.5 4.28125 10.203125 -1 16.703125 -1 
C 28.296875 -1 40.296875 13.859375 40.296875 28.328125 
C 40.296875 37.5 35.09375 44 27.59375 44 
C 22.40625 44 17.703125 39.703125 15.796875 37.703125 
z
M 16.796875 1 
C 13.59375 1 10.09375 3.390625 10.09375 11.171875 
C 10.09375 14.453125 10.40625 16.359375 12.203125 23.34375 
C 12.5 24.640625 14.09375 31.015625 14.5 32.3125 
C 14.703125 33.109375 20.59375 41.984375 27.40625 41.984375 
C 31.796875 41.984375 33.796875 37.609375 33.796875 32.421875 
C 33.796875 27.625 31 16.359375 28.5 11.171875 
C 26 5.78125 21.40625 1 16.796875 1 
z
" id="CMMI12-98"/>
      <path d="M 44.59375 40.09375 
C 46.59375 40.09375 47.40625 40.09375 47.40625 41.984375 
C 47.40625 43 46.59375 43 44.796875 43 
L 36.703125 43 
C 38.59375 53.09375 40 60.09375 40.796875 63.296875 
C 41.40625 65.6875 43.5 67.984375 46.09375 67.984375 
C 48.203125 67.984375 50.296875 67.09375 51.296875 66.1875 
C 47.40625 65.796875 46.203125 62.890625 46.203125 61.1875 
C 46.203125 59.1875 47.703125 58 49.59375 58 
C 51.59375 58 54.59375 59.6875 54.59375 63.5 
C 54.59375 67.6875 50.40625 70 46 70 
C 41.703125 70 37.5 66.796875 35.5 62.890625 
C 33.703125 59.390625 32.703125 55.828125 30.40625 43 
L 23.703125 43 
C 21.796875 43 20.796875 43 20.796875 41.1875 
C 20.796875 40.09375 21.40625 40.09375 23.40625 40.09375 
L 29.796875 40.09375 
C 28 30.890625 23.90625 8.515625 21.59375 -2.0625 
C 19.90625 -10.703125 18.40625 -18 13.40625 -18 
C 13.09375 -18 10.203125 -18 8.40625 -16.109375 
C 13.5 -15.703125 13.5 -11.3125 13.5 -11.203125 
C 13.5 -9.203125 12 -8 10.09375 -8 
C 8.09375 -8 5.09375 -9.703125 5.09375 -13.515625 
C 5.09375 -17.8125 9.5 -20 13.40625 -20 
C 23.59375 -20 27.796875 -1.765625 28.90625 3.171875 
C 30.703125 10.796875 35.59375 37.125 36.09375 40.09375 
z
" id="CMMI12-102"/>
      <path d="M 30.59375 -24.40625 
C 30.59375 -24.3125 30.59375 -24.109375 30.296875 -23.8125 
C 25.703125 -19.109375 13.40625 -6.296875 13.40625 24.9375 
C 13.40625 56.171875 25.5 68.875 30.40625 73.890625 
C 30.40625 73.984375 30.59375 74.1875 30.59375 74.484375 
C 30.59375 74.796875 30.296875 75 29.90625 75 
C 28.796875 75 20.296875 67.578125 15.40625 56.5625 
C 10.40625 45.453125 9 34.65625 9 25.046875 
C 9 17.828125 9.703125 5.625 15.703125 -7.296875 
C 20.5 -17.703125 28.703125 -25 29.90625 -25 
C 30.40625 -25 30.59375 -24.8125 30.59375 -24.40625 
z
" id="CMR17-40"/>
      <path d="M 26.296875 24.9375 
C 26.296875 32.140625 25.59375 44.359375 19.59375 57.265625 
C 14.796875 67.6875 6.59375 75 5.40625 75 
C 5.09375 75 4.703125 74.890625 4.703125 74.390625 
C 4.703125 74.1875 4.796875 74.09375 4.90625 73.890625 
C 9.703125 68.875 21.90625 56.171875 21.90625 25.046875 
C 21.90625 -6.1875 9.796875 -18.90625 4.90625 -23.90625 
C 4.796875 -24.109375 4.703125 -24.203125 4.703125 -24.40625 
C 4.703125 -24.90625 5.09375 -25 5.40625 -25 
C 6.5 -25 15 -17.609375 19.90625 -6.59375 
C 24.90625 4.515625 26.296875 15.328125 26.296875 24.9375 
z
" id="CMR17-41"/>
      <path d="M 19.5 -0.40625 
C 19.5 5.390625 17.59375 9.6875 13.5 9.6875 
C 10.296875 9.6875 8.703125 7.09375 8.703125 4.890625 
C 8.703125 2.6875 10.203125 0 13.59375 0 
C 14.90625 0 16 0.390625 16.90625 1.296875 
C 17.09375 1.5 17.203125 1.5 17.296875 1.5 
C 17.5 1.5 17.5 0.09375 17.5 -0.40625 
C 17.5 -3.640625 16.90625 -10.03125 11.09375 -16.421875 
C 10 -17.609375 10 -17.8125 10 -18 
C 10 -18.5 10.5 -19 11 -19 
C 11.796875 -19 19.5 -11.703125 19.5 -0.40625 
z
" id="CMMI12-59"/>
      <path d="M 33.796875 12.671875 
C 33.40625 11.0625 33.203125 10.671875 31.90625 9.171875 
C 27.796875 3.890625 23.59375 2 20.5 2 
C 17.203125 2 14.09375 4.578125 14.09375 11.46875 
C 14.09375 16.75 17.09375 27.921875 19.296875 32.421875 
C 22.203125 38 26.703125 41.984375 30.90625 41.984375 
C 37.5 41.984375 38.796875 33.8125 38.796875 33.21875 
L 38.5 31.8125 
z
M 40 37.40625 
C 38.703125 40.296875 35.90625 44 30.90625 44 
C 20 44 7.59375 30.328125 7.59375 15.453125 
C 7.59375 5.078125 13.90625 0 20.296875 0 
C 25.59375 0 30.296875 4.1875 32.09375 6.1875 
L 29.90625 -2.75 
C 28.5 -8.125 27.90625 -10.578125 24.296875 -14 
C 20.203125 -18 16.40625 -18 14.203125 -18 
C 11.203125 -18 8.703125 -17.8125 6.203125 -17.03125 
C 9.40625 -16.15625 10.203125 -13.40625 10.203125 -12.328125 
C 10.203125 -10.765625 9 -9.203125 6.796875 -9.203125 
C 4.40625 -9.203125 1.796875 -11.15625 1.796875 -14.390625 
C 1.796875 -18.40625 5.90625 -20 14.40625 -20 
C 27.296875 -20 34 -11.84375 35.296875 -6.5625 
L 46.40625 37.90625 
C 46.703125 39.09375 46.703125 39.296875 46.703125 39.5 
C 46.703125 40.890625 45.59375 42 44.09375 42 
C 41.703125 42 40.296875 40 40 37.3125 
z
" id="CMMI12-103"/>
      <path d="M 17.90625 23 
C 20.59375 23 27.40625 23.1875 32.203125 25 
C 39.796875 27.90625 40.5 33.75 40.5 35.546875 
C 40.5 39.984375 36.703125 44 30.09375 44 
C 19.59375 44 4.5 34.453125 4.5 16.65625 
C 4.5 6.25 10.5 -1 19.59375 -1 
C 33.203125 -1 41.796875 9.515625 41.796875 10.796875 
C 41.796875 11.390625 41.203125 11.890625 40.796875 11.890625 
C 40.5 11.890625 40.40625 11.796875 39.5 10.90625 
C 33.09375 2.484375 23.59375 1 19.796875 1 
C 14.09375 1 11.09375 5.453125 11.09375 12.78125 
C 11.09375 14.171875 11.09375 16.65625 12.59375 23 
z
M 13.09375 25 
C 17.40625 40.484375 26.90625 41.984375 30.09375 41.984375 
C 34.5 41.984375 37.5 39.375 37.5 35.546875 
C 37.5 25 21.5 25 17.296875 25 
z
" id="CMMI12-101"/>
     </defs>
     <g transform="translate(80.150952 236.465089)rotate(-90)scale(0.18 -0.18)">
      <use transform="translate(6.035518 39.226102)scale(0.697382)" xlink:href="#CMMI12-98"/>
      <use transform="translate(0 -34.355253)scale(0.697382)" xlink:href="#CMMI12-102"/>
      <use transform="translate(42.299537 0)scale(0.996264)" xlink:href="#CMR17-40"/>
      <use transform="translate(77.580305 0)scale(0.996264)" xlink:href="#CMMI12-12"/>
      <use transform="translate(138.174321 0)scale(0.996264)" xlink:href="#CMR17-41"/>
      <use transform="translate(173.455088 0)scale(0.996264)" xlink:href="#CMMI12-59"/>
      <use transform="translate(221.304355 44.444174)scale(0.697382)" xlink:href="#CMMI12-103"/>
      <use transform="translate(218.352185 -34.355253)scale(0.697382)" xlink:href="#CMMI12-102"/>
      <use transform="translate(260.651722 0)scale(0.996264)" xlink:href="#CMR17-40"/>
      <use transform="translate(295.932489 0)scale(0.996264)" xlink:href="#CMMI12-12"/>
      <use transform="translate(356.526505 0)scale(0.996264)" xlink:href="#CMR17-41"/>
      <use transform="translate(391.807273 0)scale(0.996264)" xlink:href="#CMMI12-59"/>
      <use transform="translate(441.43226 39.226102)scale(0.697382)" xlink:href="#CMMI12-101"/>
      <use transform="translate(436.704369 -34.355253)scale(0.697382)" xlink:href="#CMMI12-102"/>
      <use transform="translate(479.003906 0)scale(0.996264)" xlink:href="#CMR17-40"/>
      <use transform="translate(514.284674 0)scale(0.996264)" xlink:href="#CMMI12-12"/>
      <use transform="translate(574.87869 0)scale(0.996264)" xlink:href="#CMR17-41"/>
      <path d="M 0 22.914133 
L 41.104023 22.914133 
L 41.104023 26.899083 
L 0 26.899083 
L 0 22.914133 
z
"/>
      <path d="M 218.352185 22.914133 
L 259.456208 22.914133 
L 259.456208 26.899083 
L 218.352185 26.899083 
L 218.352185 22.914133 
z
"/>
      <path d="M 436.704369 22.914133 
L 477.808392 22.914133 
L 477.808392 26.899083 
L 436.704369 26.899083 
L 436.704369 22.914133 
z
"/>
     </g>
    </g>
   </g>
   <g id="line2d_21">
    <path clip-path="url(#pd88596f9b6)" d="M 138.436364 302.645455 
L 144.585124 301.861039 
L 150.733884 301.076623 
L 156.882645 300.292208 
L 163.031405 299.507792 
L 169.180165 298.723377 
L 175.328926 297.938961 
L 181.477686 297.154545 
L 187.626446 296.37013 
L 193.775207 295.585714 
L 199.923967 294.801299 
L 206.072727 294.016883 
L 212.221488 293.232468 
L 218.370248 292.448052 
L 224.519008 291.663636 
L 230.667769 290.879221 
L 236.816529 290.094805 
L 242.965289 289.31039 
L 249.11405 288.525974 
L 255.26281 287.741558 
L 261.41157 286.957143 
L 267.560331 286.172727 
L 273.709091 285.388312 
L 279.857851 284.603896 
L 286.006612 283.819481 
L 292.155372 283.035065 
L 298.304132 282.250649 
L 304.452893 281.466234 
L 310.601653 280.681818 
L 316.750413 279.897403 
L 322.899174 279.112987 
L 329.047934 278.328571 
L 335.196694 277.544156 
L 341.345455 276.75974 
L 347.494215 275.975325 
L 353.642975 275.190909 
L 359.791736 274.406494 
L 365.940496 273.622078 
L 372.089256 272.837662 
L 378.238017 272.053247 
L 384.386777 271.268831 
L 390.535537 270.484416 
L 396.684298 269.7 
L 402.833058 268.915584 
L 408.981818 268.131169 
L 415.130579 267.346753 
L 421.279339 266.562338 
L 427.428099 265.777922 
L 433.57686 264.993506 
L 439.72562 264.209091 
L 445.87438 263.424675 
L 452.02314 262.64026 
L 458.171901 261.855844 
L 464.320661 261.071429 
L 470.469421 260.287013 
L 476.618182 259.502597 
L 482.766942 258.718182 
L 488.915702 257.933766 
L 495.064463 257.149351 
L 501.213223 256.364935 
L 507.361983 255.580519 
L 513.510744 254.796104 
L 519.659504 254.011688 
L 525.808264 253.227273 
L 531.957025 252.442857 
L 538.105785 251.658442 
L 544.254545 250.874026 
L 550.403306 250.08961 
L 556.552066 249.305195 
L 562.700826 248.520779 
L 568.849587 247.736364 
L 574.998347 246.951948 
L 581.147107 246.167532 
L 587.295868 245.383117 
L 593.444628 244.598701 
L 599.593388 243.814286 
L 605.742149 243.02987 
L 611.890909 242.245455 
L 618.039669 241.461039 
L 624.18843 240.676623 
L 630.33719 239.892208 
L 636.48595 239.107792 
L 642.634711 238.323377 
L 648.783471 237.538961 
L 654.932231 236.754545 
L 661.080992 235.97013 
L 667.229752 235.185714 
L 673.378512 234.401299 
L 679.527273 233.616883 
L 685.676033 232.832468 
L 691.824793 232.048052 
L 697.973554 231.263636 
L 704.122314 230.479221 
L 710.271074 229.694805 
L 716.419835 228.91039 
L 722.568595 228.125974 
L 728.717355 227.341558 
L 734.866116 226.557143 
L 741.014876 225.772727 
L 747.163636 224.988312 
" style="fill:none;stroke:#094d92;stroke-linecap:square;stroke-width:1.5;"/>
   </g>
   <g id="line2d_22">
    <path clip-path="url(#pd88596f9b6)" d="M 138.436364 154.390909 
L 144.585124 159.161004 
L 150.733884 163.680041 
L 156.882645 167.967333 
L 163.031405 172.04026 
L 169.180165 175.914507 
L 175.328926 179.604267 
L 181.477686 183.12241 
L 187.626446 186.480638 
L 193.775207 189.68961 
L 199.923967 192.759063 
L 206.072727 195.6979 
L 212.221488 198.514286 
L 218.370248 201.215717 
L 224.519008 203.809091 
L 230.667769 206.300764 
L 236.816529 208.696603 
L 242.965289 211.002034 
L 249.11405 213.222078 
L 255.26281 215.361393 
L 261.41157 217.424304 
L 267.560331 219.414833 
L 273.709091 221.336722 
L 279.857851 223.193462 
L 286.006612 224.988312 
L 292.155372 226.724313 
L 298.304132 228.404315 
L 304.452893 230.030983 
L 310.601653 231.606818 
L 316.750413 233.134166 
L 322.899174 234.61523 
L 329.047934 236.052084 
L 335.196694 237.446677 
L 341.345455 238.800847 
L 347.494215 240.116327 
L 353.642975 241.39475 
L 359.791736 242.637662 
L 365.940496 243.846522 
L 372.089256 245.02271 
L 378.238017 246.167532 
L 384.386777 247.282228 
L 390.535537 248.367971 
L 396.684298 249.425874 
L 402.833058 250.456995 
L 408.981818 251.462338 
L 415.130579 252.442857 
L 421.279339 253.399462 
L 427.428099 254.333015 
L 433.57686 255.244341 
L 439.72562 256.134225 
L 445.87438 257.003413 
L 452.02314 257.85262 
L 458.171901 258.682527 
L 464.320661 259.493784 
L 470.469421 260.287013 
L 476.618182 261.062809 
L 482.766942 261.821739 
L 488.915702 262.564349 
L 495.064463 263.291158 
L 501.213223 264.002666 
L 507.361983 264.699351 
L 513.510744 265.381671 
L 519.659504 266.050066 
L 525.808264 266.704959 
L 531.957025 267.346753 
L 538.105785 267.975839 
L 544.254545 268.59259 
L 550.403306 269.197365 
L 556.552066 269.790509 
L 562.700826 270.372356 
L 568.849587 270.943225 
L 574.998347 271.503423 
L 581.147107 272.053247 
L 587.295868 272.592982 
L 593.444628 273.122904 
L 599.593388 273.643278 
L 605.742149 274.15436 
L 611.890909 274.656396 
L 618.039669 275.149624 
L 624.18843 275.634274 
L 630.33719 276.110569 
L 636.48595 276.578721 
L 642.634711 277.038939 
L 648.783471 277.491422 
L 654.932231 277.936364 
L 661.080992 278.373951 
L 667.229752 278.804364 
L 673.378512 279.22778 
L 679.527273 279.644365 
L 685.676033 280.054286 
L 691.824793 280.457699 
L 697.973554 280.85476 
L 704.122314 281.245617 
L 710.271074 281.630414 
L 716.419835 282.009291 
L 722.568595 282.382383 
L 728.717355 282.749823 
L 734.866116 283.111737 
L 741.014876 283.46825 
L 747.163636 283.819481 
" style="fill:none;stroke:#68b684;stroke-linecap:square;stroke-width:1.5;"/>
   </g>
   <g id="line2d_23">
    <path clip-path="url(#pd88596f9b6)" d="M 138.436364 55.554545 
L 144.585124 59.540225 
L 150.733884 63.274846 
L 156.882645 66.777722 
L 163.031405 70.066234 
L 169.180165 73.156066 
L 175.328926 76.06141 
L 181.477686 78.795137 
L 187.626446 81.368949 
L 193.775207 83.793506 
L 199.923967 86.078543 
L 206.072727 88.232965 
L 212.221488 90.264935 
L 218.370248 92.181951 
L 224.519008 93.990909 
L 230.667769 95.698167 
L 236.816529 97.30959 
L 242.965289 98.830605 
L 249.11405 100.266234 
L 255.26281 101.621133 
L 261.41157 102.899629 
L 267.560331 104.105742 
L 273.709091 105.243215 
L 279.857851 106.31554 
L 286.006612 107.325974 
L 292.155372 108.27756 
L 298.304132 109.173146 
L 304.452893 110.015399 
L 310.601653 110.806818 
L 316.750413 111.54975 
L 322.899174 112.246399 
L 329.047934 112.898837 
L 335.196694 113.509015 
L 341.345455 114.078769 
L 347.494215 114.609833 
L 353.642975 115.103841 
L 359.791736 115.562338 
L 365.940496 115.986782 
L 372.089256 116.378554 
L 378.238017 116.738961 
L 384.386777 117.069241 
L 390.535537 117.370568 
L 396.684298 117.644056 
L 402.833058 117.890761 
L 408.981818 118.111688 
L 415.130579 118.307792 
L 421.279339 118.479981 
L 427.428099 118.629119 
L 433.57686 118.75603 
L 439.72562 118.861497 
L 445.87438 118.94627 
L 452.02314 119.011061 
L 458.171901 119.056553 
L 464.320661 119.083394 
L 470.469421 119.092208 
L 476.618182 119.083588 
L 482.766942 119.058103 
L 488.915702 119.016297 
L 495.064463 118.95869 
L 501.213223 118.885783 
L 507.361983 118.798052 
L 513.510744 118.695957 
L 519.659504 118.579936 
L 525.808264 118.450413 
L 531.957025 118.307792 
L 538.105785 118.152462 
L 544.254545 117.984798 
L 550.403306 117.805157 
L 556.552066 117.613886 
L 562.700826 117.411317 
L 568.849587 117.19777 
L 574.998347 116.973553 
L 581.147107 116.738961 
L 587.295868 116.494281 
L 593.444628 116.239787 
L 599.593388 115.975746 
L 605.742149 115.702412 
L 611.890909 115.420032 
L 618.039669 115.128845 
L 624.18843 114.82908 
L 630.33719 114.520958 
L 636.48595 114.204695 
L 642.634711 113.880497 
L 648.783471 113.548565 
L 654.932231 113.209091 
L 661.080992 112.862263 
L 667.229752 112.508261 
L 673.378512 112.14726 
L 679.527273 111.77943 
L 685.676033 111.404935 
L 691.824793 111.023933 
L 697.973554 110.636578 
L 704.122314 110.243019 
L 710.271074 109.843401 
L 716.419835 109.437862 
L 722.568595 109.026539 
L 728.717355 108.609563 
L 734.866116 108.187062 
L 741.014876 107.759159 
L 747.163636 107.325974 
" style="fill:none;stroke:#1c1018;stroke-linecap:square;stroke-width:1.5;"/>
   </g>
   <g id="patch_3">
    <path d="M 108 315 
L 108 43.2 
" style="fill:none;stroke:#000000;stroke-linecap:square;stroke-linejoin:miter;stroke-width:0.8;"/>
   </g>
   <g id="patch_4">
    <path d="M 777.6 315 
L 777.6 43.2 
" style="fill:none;stroke:#000000;stroke-linecap:square;stroke-linejoin:miter;stroke-width:0.8;"/>
   </g>
   <g id="patch_5">
    <path d="M 108 315 
L 777.6 315 
" style="fill:none;stroke:#000000;stroke-linecap:square;stroke-linejoin:miter;stroke-width:0.8;"/>
   </g>
   <g id="patch_6">
    <path d="M 108 43.2 
L 777.6 43.2 
" style="fill:none;stroke:#000000;stroke-linecap:square;stroke-linejoin:miter;stroke-width:0.8;"/>
   </g>
   <g id="text_13">
    <!-- Erwartete Werte für $\frac{b}{f}(\beta), \frac{g}{f}(\beta), \frac{e}{f}(\beta)$ -->
    <defs>
     <path d="M 18.296875 33 
L 58 33 
L 58 41.1875 
L 18.296875 41.1875 
L 18.296875 64.796875 
L 59.5 64.796875 
L 59.5 73 
L 9 73 
L 9 0 
L 61.296875 0 
L 61.296875 8.1875 
L 18.296875 8.1875 
z
" id="Nimbus_Sans_L_Regular-69"/>
     <path d="M 6.90625 52 
L 6.90625 0 
L 15.296875 0 
L 15.296875 26.984375 
C 15.296875 34.421875 17.203125 39.28125 21.203125 42.15625 
C 23.796875 44.046875 26.296875 44.640625 32.09375 44.734375 
L 32.09375 53.1875 
C 30.703125 53.890625 30 54 28.90625 54 
C 23.5 54 19.40625 50.796875 14.59375 42.96875 
L 14.59375 52 
z
" id="Nimbus_Sans_L_Regular-114"/>
     <path d="M 55.40625 0 
L 70.796875 52 
L 61.40625 52 
L 51 11.515625 
L 40.703125 52 
L 30.5 52 
L 20.5 11.515625 
L 9.796875 52 
L 0.59375 52 
L 15.796875 0 
L 25.203125 0 
L 35.296875 40.765625 
L 45.90625 0 
z
" id="Nimbus_Sans_L_Regular-119"/>
     <path d="M 53.5 5.1875 
C 52.59375 5 52.203125 5 51.703125 5 
C 48.796875 5 47.203125 6.484375 47.203125 9.078125 
L 47.203125 39.71875 
C 47.203125 48.984375 40.40625 54 27.5 54 
C 19.90625 54 13.59375 51.796875 10.09375 47.890625 
C 7.703125 45.203125 6.703125 42.21875 6.5 37.03125 
L 14.90625 37.03125 
C 15.59375 43.40625 19.40625 46.296875 27.203125 46.296875 
C 34.703125 46.296875 38.90625 43.5 38.90625 38.53125 
L 38.90625 36.34375 
C 38.90625 32.859375 36.796875 31.359375 30.203125 30.5625 
C 18.40625 29.078125 16.59375 28.671875 13.40625 27.390625 
C 7.296875 24.890625 4.203125 20.21875 4.203125 13.453125 
C 4.203125 4 10.796875 -2 21.40625 -2 
C 28 -2 33.296875 0.296875 39.203125 5.6875 
C 39.796875 0.390625 42.40625 -2 47.796875 -2 
C 49.5 -2 50.796875 -1.8125 53.5 -1.109375 
z
M 38.90625 16.734375 
C 38.90625 13.953125 38.09375 12.265625 35.59375 9.96875 
C 32.203125 6.890625 28.09375 5.296875 23.203125 5.296875 
C 16.703125 5.296875 12.90625 8.375 12.90625 13.65625 
C 12.90625 19.125 16.59375 21.90625 25.5 23.203125 
C 34.296875 24.40625 36.09375 24.796875 38.90625 26.09375 
z
" id="Nimbus_Sans_L_Regular-97"/>
     <path d="M 25.40625 52 
L 16.796875 52 
L 16.796875 66.390625 
L 8.5 66.390625 
L 8.5 52 
L 1.40625 52 
L 1.40625 45.1875 
L 8.5 45.1875 
L 8.5 6.28125 
C 8.5 1 12.09375 -2 18.59375 -2 
C 20.59375 -2 22.59375 -1.8125 25.40625 -1.3125 
L 25.40625 5.6875 
C 24.296875 5.390625 23 5.296875 21.40625 5.296875 
C 17.796875 5.296875 16.796875 6.28125 16.796875 9.90625 
L 16.796875 45.1875 
L 25.40625 45.1875 
z
" id="Nimbus_Sans_L_Regular-116"/>
     <path d="M 51.296875 23.1875 
C 51.296875 31.21875 50.703125 36.109375 49.203125 40.078125 
C 45.796875 48.796875 37.796875 54 28 54 
C 13.40625 54 4 42.71875 4 25.296875 
C 4 8.515625 13.09375 -2 27.796875 -2 
C 39.796875 -2 48.09375 4.796875 50.203125 15.90625 
L 41.796875 15.90625 
C 39.5 9.1875 34.796875 5.6875 28.09375 5.6875 
C 22.796875 5.6875 18.296875 8.03125 15.5 12.296875 
C 13.5 15.21875 12.796875 18.140625 12.703125 23.1875 
z
M 12.90625 30 
C 13.59375 39.875 19.5 46.296875 27.90625 46.296875 
C 36.09375 46.296875 42.40625 39.359375 42.40625 30.609375 
C 42.40625 30.40625 42.40625 30.203125 42.296875 30 
z
" id="Nimbus_Sans_L_Regular-101"/>
     <path d="M 74.40625 0 
L 92.90625 73 
L 82.5 73 
L 69.09375 13.703125 
L 52.5 73 
L 42.5 73 
L 26.296875 13.703125 
L 12.59375 73 
L 2.203125 73 
L 20.90625 0 
L 31.09375 0 
L 47.40625 59.96875 
L 64.203125 0 
z
" id="Nimbus_Sans_L_Regular-87"/>
     <path d="M 25.796875 52 
L 17.09375 52 
L 17.09375 60.3125 
C 17.09375 63.859375 19.09375 65.6875 22.90625 65.6875 
C 23.59375 65.6875 23.90625 65.6875 25.796875 65.59375 
L 25.796875 72.484375 
C 23.90625 72.890625 22.796875 73 21.09375 73 
C 13.40625 73 8.796875 68.59375 8.796875 61.015625 
L 8.796875 52 
L 1.796875 52 
L 1.796875 45.1875 
L 8.796875 45.1875 
L 8.796875 0 
L 17.09375 0 
L 17.09375 45.1875 
L 25.796875 45.1875 
z
" id="Nimbus_Sans_L_Regular-102"/>
     <path d="M 13.40625 71.296875 
L 3 71.296875 
L 3 61 
L 13.40625 61 
z
M 29.59375 71.296875 
L 19.203125 71.296875 
L 19.203125 61 
L 29.59375 61 
z
" id="Nimbus_Sans_L_Regular-168"/>
     <path d="M 48.203125 0.296875 
L 48.203125 52 
L 39.90625 52 
L 39.90625 22.71875 
C 39.90625 12.1875 34.296875 5.296875 25.59375 5.296875 
C 19 5.296875 14.796875 9.234375 14.796875 15.4375 
L 14.796875 52 
L 6.5 52 
L 6.5 12.1875 
C 6.5 3.59375 13 -2 23.203125 -2 
C 30.90625 -2 35.796875 0.6875 40.703125 7.5625 
L 40.703125 0.296875 
z
" id="Nimbus_Sans_L_Regular-117"/>
    </defs>
    <g transform="translate(277.32023 32.850292)scale(0.216 -0.216)">
     <use transform="scale(0.996264)" xlink:href="#Nimbus_Sans_L_Regular-69"/>
     <use transform="translate(66.450031 0)scale(0.996264)" xlink:href="#Nimbus_Sans_L_Regular-114"/>
     <use transform="translate(99.625261 0)scale(0.996264)" xlink:href="#Nimbus_Sans_L_Regular-119"/>
     <use transform="translate(170.061853 0)scale(0.996264)" xlink:href="#Nimbus_Sans_L_Regular-97"/>
     <use transform="translate(225.45353 0)scale(0.996264)" xlink:href="#Nimbus_Sans_L_Regular-114"/>
     <use transform="translate(262.612858 0)scale(0.996264)" xlink:href="#Nimbus_Sans_L_Regular-116"/>
     <use transform="translate(290.308028 0)scale(0.996264)" xlink:href="#Nimbus_Sans_L_Regular-101"/>
     <use transform="translate(345.699705 0)scale(0.996264)" xlink:href="#Nimbus_Sans_L_Regular-116"/>
     <use transform="translate(373.394874 0)scale(0.996264)" xlink:href="#Nimbus_Sans_L_Regular-101"/>
     <use transform="translate(456.481721 0)scale(0.996264)" xlink:href="#Nimbus_Sans_L_Regular-87"/>
     <use transform="translate(547.540382 0)scale(0.996264)" xlink:href="#Nimbus_Sans_L_Regular-101"/>
     <use transform="translate(602.932059 0)scale(0.996264)" xlink:href="#Nimbus_Sans_L_Regular-114"/>
     <use transform="translate(640.091387 0)scale(0.996264)" xlink:href="#Nimbus_Sans_L_Regular-116"/>
     <use transform="translate(667.786557 0)scale(0.996264)" xlink:href="#Nimbus_Sans_L_Regular-101"/>
     <use transform="translate(750.873403 0)scale(0.996264)" xlink:href="#Nimbus_Sans_L_Regular-102"/>
     <use transform="translate(789.676804 -0.249309)scale(0.996264)" xlink:href="#Nimbus_Sans_L_Regular-168"/>
     <use transform="translate(778.568573 0)scale(0.996264)" xlink:href="#Nimbus_Sans_L_Regular-117"/>
     <use transform="translate(833.96025 0)scale(0.996264)" xlink:href="#Nimbus_Sans_L_Regular-114"/>
     <use transform="translate(902.061681 39.226102)scale(0.697382)" xlink:href="#CMMI12-98"/>
     <use transform="translate(896.026163 -34.355253)scale(0.697382)" xlink:href="#CMMI12-102"/>
     <use transform="translate(938.3257 0)scale(0.996264)" xlink:href="#CMR17-40"/>
     <use transform="translate(973.606468 0)scale(0.996264)" xlink:href="#CMMI12-12"/>
     <use transform="translate(1034.200484 0)scale(0.996264)" xlink:href="#CMR17-41"/>
     <use transform="translate(1069.481251 0)scale(0.996264)" xlink:href="#CMMI12-59"/>
     <use transform="translate(1117.330518 44.444174)scale(0.697382)" xlink:href="#CMMI12-103"/>
     <use transform="translate(1114.378347 -34.355253)scale(0.697382)" xlink:href="#CMMI12-102"/>
     <use transform="translate(1156.677885 0)scale(0.996264)" xlink:href="#CMR17-40"/>
     <use transform="translate(1191.958652 0)scale(0.996264)" xlink:href="#CMMI12-12"/>
     <use transform="translate(1252.552668 0)scale(0.996264)" xlink:href="#CMR17-41"/>
     <use transform="translate(1287.833436 0)scale(0.996264)" xlink:href="#CMMI12-59"/>
     <use transform="translate(1337.458423 39.226102)scale(0.697382)" xlink:href="#CMMI12-101"/>
     <use transform="translate(1332.730532 -34.355253)scale(0.697382)" xlink:href="#CMMI12-102"/>
     <use transform="translate(1375.030069 0)scale(0.996264)" xlink:href="#CMR17-40"/>
     <use transform="translate(1410.310837 0)scale(0.996264)" xlink:href="#CMMI12-12"/>
     <use transform="translate(1470.904853 0)scale(0.996264)" xlink:href="#CMR17-41"/>
     <path d="M 896.026163 22.914133 
L 937.130186 22.914133 
L 937.130186 26.899083 
L 896.026163 26.899083 
L 896.026163 22.914133 
z
"/>
     <path d="M 1114.378347 22.914133 
L 1155.482371 22.914133 
L 1155.482371 26.899083 
L 1114.378347 26.899083 
L 1114.378347 22.914133 
z
"/>
     <path d="M 1332.730532 22.914133 
L 1373.834555 22.914133 
L 1373.834555 26.899083 
L 1332.730532 26.899083 
L 1332.730532 22.914133 
z
"/>
    </g>
   </g>
   <g id="legend_1">
    <g id="patch_7">
     <path d="M 379.007048 229.559535 
L 506.592952 229.559535 
Q 510.192952 229.559535 510.192952 225.959535 
L 510.192952 132.240465 
Q 510.192952 128.640465 506.592952 128.640465 
L 379.007048 128.640465 
Q 375.407048 128.640465 375.407048 132.240465 
L 375.407048 225.959535 
Q 375.407048 229.559535 379.007048 229.559535 
z
" style="fill:#ffffff;opacity:0.8;stroke:#cccccc;stroke-linejoin:miter;"/>
    </g>
    <g id="line2d_24">
     <path d="M 382.607048 145.31841 
L 418.607048 145.31841 
" style="fill:none;stroke:#094d92;stroke-linecap:square;stroke-width:1.5;"/>
    </g>
    <g id="line2d_25"/>
    <g id="text_14">
     <!-- $\frac{b}{f}(\beta)$ erw. -->
     <defs>
      <path d="M 19.09375 10.390625 
L 8.703125 10.390625 
L 8.703125 0 
L 19.09375 0 
z
" id="Nimbus_Sans_L_Regular-46"/>
     </defs>
     <g transform="translate(433.007048 151.61841)scale(0.18 -0.18)">
      <use transform="translate(6.035518 39.226102)scale(0.697382)" xlink:href="#CMMI12-98"/>
      <use transform="translate(0 -34.355253)scale(0.697382)" xlink:href="#CMMI12-102"/>
      <use transform="translate(42.299537 0)scale(0.996264)" xlink:href="#CMR17-40"/>
      <use transform="translate(77.580305 0)scale(0.996264)" xlink:href="#CMMI12-12"/>
      <use transform="translate(138.174321 0)scale(0.996264)" xlink:href="#CMR17-41"/>
      <use transform="translate(201.150258 0)scale(0.996264)" xlink:href="#Nimbus_Sans_L_Regular-101"/>
      <use transform="translate(256.541935 0)scale(0.996264)" xlink:href="#Nimbus_Sans_L_Regular-114"/>
      <use transform="translate(289.717165 0)scale(0.996264)" xlink:href="#Nimbus_Sans_L_Regular-119"/>
      <use transform="translate(355.669702 0)scale(0.996264)" xlink:href="#Nimbus_Sans_L_Regular-46"/>
      <path d="M 0 22.914133 
L 41.104023 22.914133 
L 41.104023 26.899083 
L 0 26.899083 
L 0 22.914133 
z
"/>
     </g>
    </g>
    <g id="line2d_26">
     <path d="M 382.607048 176.376592 
L 418.607048 176.376592 
" style="fill:none;stroke:#68b684;stroke-linecap:square;stroke-width:1.5;"/>
    </g>
    <g id="line2d_27"/>
    <g id="text_15">
     <!-- $\frac{g}{f}(\beta)$ erw. -->
     <g transform="translate(433.007048 182.676592)scale(0.18 -0.18)">
      <use transform="translate(2.952171 44.444174)scale(0.697382)" xlink:href="#CMMI12-103"/>
      <use transform="translate(0 -34.355253)scale(0.697382)" xlink:href="#CMMI12-102"/>
      <use transform="translate(42.299537 0)scale(0.996264)" xlink:href="#CMR17-40"/>
      <use transform="translate(77.580305 0)scale(0.996264)" xlink:href="#CMMI12-12"/>
      <use transform="translate(138.174321 0)scale(0.996264)" xlink:href="#CMR17-41"/>
      <use transform="translate(201.150258 0)scale(0.996264)" xlink:href="#Nimbus_Sans_L_Regular-101"/>
      <use transform="translate(256.541935 0)scale(0.996264)" xlink:href="#Nimbus_Sans_L_Regular-114"/>
      <use transform="translate(289.717165 0)scale(0.996264)" xlink:href="#Nimbus_Sans_L_Regular-119"/>
      <use transform="translate(355.669702 0)scale(0.996264)" xlink:href="#Nimbus_Sans_L_Regular-46"/>
      <path d="M 0 22.914133 
L 41.104023 22.914133 
L 41.104023 26.899083 
L 0 26.899083 
L 0 22.914133 
z
"/>
     </g>
    </g>
    <g id="line2d_28">
     <path d="M 382.607048 207.434773 
L 418.607048 207.434773 
" style="fill:none;stroke:#1c1018;stroke-linecap:square;stroke-width:1.5;"/>
    </g>
    <g id="line2d_29"/>
    <g id="text_16">
     <!-- $\frac{e}{f}(\beta)$ erw. -->
     <g transform="translate(433.007048 213.734773)scale(0.18 -0.18)">
      <use transform="translate(4.727891 39.226102)scale(0.697382)" xlink:href="#CMMI12-101"/>
      <use transform="translate(0 -34.355253)scale(0.697382)" xlink:href="#CMMI12-102"/>
      <use transform="translate(42.299537 0)scale(0.996264)" xlink:href="#CMR17-40"/>
      <use transform="translate(77.580305 0)scale(0.996264)" xlink:href="#CMMI12-12"/>
      <use transform="translate(138.174321 0)scale(0.996264)" xlink:href="#CMR17-41"/>
      <use transform="translate(201.150258 0)scale(0.996264)" xlink:href="#Nimbus_Sans_L_Regular-101"/>
      <use transform="translate(256.541935 0)scale(0.996264)" xlink:href="#Nimbus_Sans_L_Regular-114"/>
      <use transform="translate(289.717165 0)scale(0.996264)" xlink:href="#Nimbus_Sans_L_Regular-119"/>
      <use transform="translate(355.669702 0)scale(0.996264)" xlink:href="#Nimbus_Sans_L_Regular-46"/>
      <path d="M 0 22.914133 
L 41.104023 22.914133 
L 41.104023 26.899083 
L 0 26.899083 
L 0 22.914133 
z
"/>
     </g>
    </g>
   </g>
  </g>
 </g>
 <defs>
  <clipPath id="pd88596f9b6">
   <rect height="271.8" width="669.6" x="108" y="43.2"/>
  </clipPath>
 </defs>
</svg>
