<?xml version="1.0" encoding="utf-8" standalone="no"?>
<!DOCTYPE svg PUBLIC "-//W3C//DTD SVG 1.1//EN"
  "http://www.w3.org/Graphics/SVG/1.1/DTD/svg11.dtd">
<!-- Created with matplotlib (https://matplotlib.org/) -->
<svg height="360pt" version="1.1" viewBox="0 0 864 360" width="864pt" xmlns="http://www.w3.org/2000/svg" xmlns:xlink="http://www.w3.org/1999/xlink">
 <defs>
  <style type="text/css">
*{stroke-linecap:butt;stroke-linejoin:round;}
  </style>
 </defs>
 <g id="figure_1">
  <g id="patch_1">
   <path d="M 0 360 
L 864 360 
L 864 0 
L 0 0 
z
" style="fill:#ffffff;"/>
  </g>
  <g id="axes_1">
   <g id="patch_2">
    <path d="M 108 287.82 
L 777.6 287.82 
L 777.6 43.2 
L 108 43.2 
z
" style="fill:#ffffff;"/>
   </g>
   <g id="matplotlib.axis_1">
    <g id="xtick_1">
     <g id="line2d_1">
      <path clip-path="url(#pda08626754)" d="M 123.745735 287.82 
L 123.745735 43.2 
" style="fill:none;stroke:#b0b0b0;stroke-linecap:square;stroke-width:0.8;"/>
     </g>
     <g id="line2d_2">
      <defs>
       <path d="M 0 0 
L 0 3.5 
" id="m51207f0150" style="stroke:#000000;stroke-width:0.8;"/>
      </defs>
      <g>
       <use style="stroke:#000000;stroke-width:0.8;" x="123.745735" xlink:href="#m51207f0150" y="287.82"/>
      </g>
     </g>
    </g>
    <g id="xtick_2">
     <g id="line2d_3">
      <path clip-path="url(#pda08626754)" d="M 233.888721 287.82 
L 233.888721 43.2 
" style="fill:none;stroke:#b0b0b0;stroke-linecap:square;stroke-width:0.8;"/>
     </g>
     <g id="line2d_4">
      <g>
       <use style="stroke:#000000;stroke-width:0.8;" x="233.888721" xlink:href="#m51207f0150" y="287.82"/>
      </g>
     </g>
    </g>
    <g id="xtick_3">
     <g id="line2d_5">
      <path clip-path="url(#pda08626754)" d="M 344.031707 287.82 
L 344.031707 43.2 
" style="fill:none;stroke:#b0b0b0;stroke-linecap:square;stroke-width:0.8;"/>
     </g>
     <g id="line2d_6">
      <g>
       <use style="stroke:#000000;stroke-width:0.8;" x="344.031707" xlink:href="#m51207f0150" y="287.82"/>
      </g>
     </g>
    </g>
    <g id="xtick_4">
     <g id="line2d_7">
      <path clip-path="url(#pda08626754)" d="M 454.174692 287.82 
L 454.174692 43.2 
" style="fill:none;stroke:#b0b0b0;stroke-linecap:square;stroke-width:0.8;"/>
     </g>
     <g id="line2d_8">
      <g>
       <use style="stroke:#000000;stroke-width:0.8;" x="454.174692" xlink:href="#m51207f0150" y="287.82"/>
      </g>
     </g>
    </g>
    <g id="xtick_5">
     <g id="line2d_9">
      <path clip-path="url(#pda08626754)" d="M 564.317678 287.82 
L 564.317678 43.2 
" style="fill:none;stroke:#b0b0b0;stroke-linecap:square;stroke-width:0.8;"/>
     </g>
     <g id="line2d_10">
      <g>
       <use style="stroke:#000000;stroke-width:0.8;" x="564.317678" xlink:href="#m51207f0150" y="287.82"/>
      </g>
     </g>
    </g>
    <g id="xtick_6">
     <g id="line2d_11">
      <path clip-path="url(#pda08626754)" d="M 674.460663 287.82 
L 674.460663 43.2 
" style="fill:none;stroke:#b0b0b0;stroke-linecap:square;stroke-width:0.8;"/>
     </g>
     <g id="line2d_12">
      <g>
       <use style="stroke:#000000;stroke-width:0.8;" x="674.460663" xlink:href="#m51207f0150" y="287.82"/>
      </g>
     </g>
    </g>
   </g>
   <g id="matplotlib.axis_2">
    <g id="ytick_1">
     <g id="line2d_13">
      <path clip-path="url(#pda08626754)" d="M 108 239.34594 
L 777.6 239.34594 
" style="fill:none;stroke:#b0b0b0;stroke-linecap:square;stroke-width:0.8;"/>
     </g>
     <g id="line2d_14">
      <defs>
       <path d="M 0 0 
L -3.5 0 
" id="m3b29c61408" style="stroke:#000000;stroke-width:0.8;"/>
      </defs>
      <g>
       <use style="stroke:#000000;stroke-width:0.8;" x="108" xlink:href="#m3b29c61408" y="239.34594"/>
      </g>
     </g>
     <g id="text_1">
      <!-- $\mathdefault{2}$ -->
      <defs>
       <path d="M 41.703125 15.46875 
L 39.90625 15.46875 
C 38.90625 8.390625 38.09375 7.1875 37.703125 6.59375 
C 37.203125 5.796875 30 5.796875 28.59375 5.796875 
L 9.40625 5.796875 
C 13 9.6875 20 16.765625 28.5 24.9375 
C 34.59375 30.71875 41.703125 37.5 41.703125 47.390625 
C 41.703125 59.1875 32.296875 66 21.796875 66 
C 10.796875 66 4.09375 56.296875 4.09375 47.296875 
C 4.09375 43.390625 7 42.890625 8.203125 42.890625 
C 9.203125 42.890625 12.203125 43.484375 12.203125 46.984375 
C 12.203125 50.09375 9.59375 51 8.203125 51 
C 7.59375 51 7 50.890625 6.59375 50.6875 
C 8.5 59.1875 14.296875 63.390625 20.40625 63.390625 
C 29.09375 63.390625 34.796875 56.5 34.796875 47.390625 
C 34.796875 38.703125 29.703125 31.21875 24 24.734375 
L 4.09375 2.296875 
L 4.09375 0 
L 39.296875 0 
z
" id="CMR17-50"/>
      </defs>
      <g transform="translate(92.775714 245.734429)scale(0.18 -0.18)">
       <use transform="scale(0.996264)" xlink:href="#CMR17-50"/>
      </g>
     </g>
    </g>
    <g id="ytick_2">
     <g id="line2d_15">
      <path clip-path="url(#pda08626754)" d="M 108 173.310738 
L 777.6 173.310738 
" style="fill:none;stroke:#b0b0b0;stroke-linecap:square;stroke-width:0.8;"/>
     </g>
     <g id="line2d_16">
      <g>
       <use style="stroke:#000000;stroke-width:0.8;" x="108" xlink:href="#m3b29c61408" y="173.310738"/>
      </g>
     </g>
     <g id="text_2">
      <!-- $\mathdefault{3}$ -->
      <defs>
       <path d="M 22.09375 34 
C 31 34 34.90625 26.140625 34.90625 17.09375 
C 34.90625 5.03125 28.5 0.390625 22.703125 0.390625 
C 17.40625 0.390625 8.796875 3.015625 6.09375 10.796875 
C 6.59375 10.59375 7.09375 10.59375 7.59375 10.59375 
C 10 10.59375 11.796875 12.1875 11.796875 14.796875 
C 11.796875 17.6875 9.59375 19 7.59375 19 
C 5.90625 19 3.296875 18.1875 3.296875 14.484375 
C 3.296875 5.234375 12.296875 -2 22.90625 -2 
C 34 -2 42.5 6.75 42.5 16.984375 
C 42.5 26.84375 34.5 34 25 35.09375 
C 32.59375 36.671875 39.90625 43.375 39.90625 52.390625 
C 39.90625 60.25 32 66 23 66 
C 13.90625 66 5.90625 60.34375 5.90625 52.296875 
C 5.90625 48.796875 8.5 48.1875 9.796875 48.1875 
C 11.90625 48.1875 13.703125 49.484375 13.703125 52.09375 
C 13.703125 54.6875 11.90625 56 9.796875 56 
C 9.40625 56 8.90625 56 8.5 55.796875 
C 11.40625 62.484375 19.296875 63.6875 22.796875 63.6875 
C 26.296875 63.6875 32.90625 61.96875 32.90625 52.296875 
C 32.90625 49.484375 32.5 44.546875 29.09375 40.21875 
C 26.09375 36.390625 22.703125 36.1875 19.40625 35.890625 
C 18.90625 35.890625 16.59375 35.6875 16.203125 35.6875 
C 15.5 35.59375 15.09375 35.5 15.09375 34.796875 
C 15.09375 34.09375 15.203125 34 17.203125 34 
z
" id="CMR17-51"/>
      </defs>
      <g transform="translate(92.775714 179.699226)scale(0.18 -0.18)">
       <use transform="scale(0.996264)" xlink:href="#CMR17-51"/>
      </g>
     </g>
    </g>
    <g id="ytick_3">
     <g id="line2d_17">
      <path clip-path="url(#pda08626754)" d="M 108 107.275535 
L 777.6 107.275535 
" style="fill:none;stroke:#b0b0b0;stroke-linecap:square;stroke-width:0.8;"/>
     </g>
     <g id="line2d_18">
      <g>
       <use style="stroke:#000000;stroke-width:0.8;" x="108" xlink:href="#m3b29c61408" y="107.275535"/>
      </g>
     </g>
     <g id="text_3">
      <!-- $\mathdefault{4}$ -->
      <defs>
       <path d="M 33.59375 64.796875 
C 33.59375 66.890625 33.5 67 31.703125 67 
L 2 19.59375 
L 2 17 
L 27.796875 17 
L 27.796875 7.1875 
C 27.796875 3.59375 27.59375 2.59375 20.59375 2.59375 
L 18.703125 2.59375 
L 18.703125 0 
C 21.90625 0.1875 27.296875 0.1875 30.703125 0.1875 
C 34.09375 0.1875 39.5 0.1875 42.703125 0 
L 42.703125 2.59375 
L 40.796875 2.59375 
C 33.796875 2.59375 33.59375 3.59375 33.59375 7.1875 
L 33.59375 17 
L 43.796875 17 
L 43.796875 19.59375 
L 33.59375 19.59375 
z
M 28.09375 58.171875 
L 28.09375 19.59375 
L 4 19.59375 
z
" id="CMR17-52"/>
      </defs>
      <g transform="translate(92.775714 113.664024)scale(0.18 -0.18)">
       <use transform="scale(0.996264)" xlink:href="#CMR17-52"/>
      </g>
     </g>
    </g>
    <g id="text_4">
     <!-- $\frac{b}{f}(\beta), \frac{g}{f}(\beta), \frac{e}{f}(\beta)$ -->
     <defs>
      <path d="M 23.09375 66.484375 
C 23.203125 66.890625 23.40625 67.484375 23.40625 67.984375 
C 23.40625 69 22.40625 69 22.203125 69 
C 22.09375 69 18.5 68.6875 16.703125 68.484375 
C 15 68.390625 13.5 68.1875 11.703125 68.09375 
C 9.296875 67.890625 8.59375 67.796875 8.59375 65.984375 
C 8.59375 64.984375 9.59375 64.984375 10.59375 64.984375 
C 15.703125 64.984375 15.703125 64.109375 15.703125 63.125 
C 15.703125 62.421875 14.90625 59.5625 14.5 57.796875 
L 12.09375 48.328125 
C 11.09375 44.390625 5.40625 21.75 5 19.953125 
C 4.5 17.453125 4.5 15.75 4.5 14.453125 
C 4.5 4.28125 10.203125 -1 16.703125 -1 
C 28.296875 -1 40.296875 13.859375 40.296875 28.328125 
C 40.296875 37.5 35.09375 44 27.59375 44 
C 22.40625 44 17.703125 39.703125 15.796875 37.703125 
z
M 16.796875 1 
C 13.59375 1 10.09375 3.390625 10.09375 11.171875 
C 10.09375 14.453125 10.40625 16.359375 12.203125 23.34375 
C 12.5 24.640625 14.09375 31.015625 14.5 32.3125 
C 14.703125 33.109375 20.59375 41.984375 27.40625 41.984375 
C 31.796875 41.984375 33.796875 37.609375 33.796875 32.421875 
C 33.796875 27.625 31 16.359375 28.5 11.171875 
C 26 5.78125 21.40625 1 16.796875 1 
z
" id="CMMI12-98"/>
      <path d="M 44.59375 40.09375 
C 46.59375 40.09375 47.40625 40.09375 47.40625 41.984375 
C 47.40625 43 46.59375 43 44.796875 43 
L 36.703125 43 
C 38.59375 53.09375 40 60.09375 40.796875 63.296875 
C 41.40625 65.6875 43.5 67.984375 46.09375 67.984375 
C 48.203125 67.984375 50.296875 67.09375 51.296875 66.1875 
C 47.40625 65.796875 46.203125 62.890625 46.203125 61.1875 
C 46.203125 59.1875 47.703125 58 49.59375 58 
C 51.59375 58 54.59375 59.6875 54.59375 63.5 
C 54.59375 67.6875 50.40625 70 46 70 
C 41.703125 70 37.5 66.796875 35.5 62.890625 
C 33.703125 59.390625 32.703125 55.828125 30.40625 43 
L 23.703125 43 
C 21.796875 43 20.796875 43 20.796875 41.1875 
C 20.796875 40.09375 21.40625 40.09375 23.40625 40.09375 
L 29.796875 40.09375 
C 28 30.890625 23.90625 8.515625 21.59375 -2.0625 
C 19.90625 -10.703125 18.40625 -18 13.40625 -18 
C 13.09375 -18 10.203125 -18 8.40625 -16.109375 
C 13.5 -15.703125 13.5 -11.3125 13.5 -11.203125 
C 13.5 -9.203125 12 -8 10.09375 -8 
C 8.09375 -8 5.09375 -9.703125 5.09375 -13.515625 
C 5.09375 -17.8125 9.5 -20 13.40625 -20 
C 23.59375 -20 27.796875 -1.765625 28.90625 3.171875 
C 30.703125 10.796875 35.59375 37.125 36.09375 40.09375 
z
" id="CMMI12-102"/>
      <path d="M 30.59375 -24.40625 
C 30.59375 -24.3125 30.59375 -24.109375 30.296875 -23.8125 
C 25.703125 -19.109375 13.40625 -6.296875 13.40625 24.9375 
C 13.40625 56.171875 25.5 68.875 30.40625 73.890625 
C 30.40625 73.984375 30.59375 74.1875 30.59375 74.484375 
C 30.59375 74.796875 30.296875 75 29.90625 75 
C 28.796875 75 20.296875 67.578125 15.40625 56.5625 
C 10.40625 45.453125 9 34.65625 9 25.046875 
C 9 17.828125 9.703125 5.625 15.703125 -7.296875 
C 20.5 -17.703125 28.703125 -25 29.90625 -25 
C 30.40625 -25 30.59375 -24.8125 30.59375 -24.40625 
z
" id="CMR17-40"/>
      <path d="M 56.59375 58.421875 
C 56.59375 64.546875 51.5 71 42.40625 71 
C 29.5 71 21.296875 54.84375 18.703125 44.21875 
L 2.90625 -18 
C 2.703125 -18.8125 3.296875 -19 3.796875 -19 
C 4.5 -19 5 -18.90625 5.09375 -18.40625 
L 12.09375 9.25 
C 13.09375 3.609375 18.59375 -1 24.5 -1 
C 38.796875 -1 52.296875 10.265625 52.296875 25.28125 
C 52.296875 29.109375 51.40625 32.9375 49.296875 36.15625 
C 48.09375 38.078125 46.59375 39.484375 45 40.609375 
C 52.203125 44.109375 56.59375 50.34375 56.59375 58.421875 
z
M 39.203125 40.703125 
C 37.59375 40.171875 36 40 34.09375 40 
C 32.703125 40 31.40625 39.890625 29.59375 40.4375 
C 30.59375 41.046875 32.09375 41.234375 34.203125 41.234375 
C 36 41.234375 37.796875 41.046875 39.203125 40.703125 
z
M 51.40625 59.34375 
C 51.40625 53.71875 48.703125 45.546875 42.203125 41.9375 
C 40.296875 42.546875 37.703125 43 35.5 43 
C 33.40625 43 27.40625 43.203125 27.40625 40.34375 
C 27.40625 37.671875 32.90625 37.96875 34.59375 37.96875 
C 37.203125 37.96875 39.5 38.578125 41.90625 39.28125 
C 45.09375 36.671875 46.5 33.234375 46.5 28.203125 
C 46.5 22.359375 44.90625 17.625 43 13.28125 
C 39.703125 5.828125 31.90625 1 25 1 
C 17.703125 1 13.90625 6.84375 13.90625 13.6875 
C 13.90625 14.59375 13.90625 15.90625 14.296875 17.421875 
L 20.796875 43.5 
C 24.09375 56.890625 32.5 68.953125 42.203125 68.953125 
C 49.40625 68.953125 51.40625 63.84375 51.40625 59.34375 
z
" id="CMMI12-12"/>
      <path d="M 26.296875 24.9375 
C 26.296875 32.140625 25.59375 44.359375 19.59375 57.265625 
C 14.796875 67.6875 6.59375 75 5.40625 75 
C 5.09375 75 4.703125 74.890625 4.703125 74.390625 
C 4.703125 74.1875 4.796875 74.09375 4.90625 73.890625 
C 9.703125 68.875 21.90625 56.171875 21.90625 25.046875 
C 21.90625 -6.1875 9.796875 -18.90625 4.90625 -23.90625 
C 4.796875 -24.109375 4.703125 -24.203125 4.703125 -24.40625 
C 4.703125 -24.90625 5.09375 -25 5.40625 -25 
C 6.5 -25 15 -17.609375 19.90625 -6.59375 
C 24.90625 4.515625 26.296875 15.328125 26.296875 24.9375 
z
" id="CMR17-41"/>
      <path d="M 19.5 -0.40625 
C 19.5 5.390625 17.59375 9.6875 13.5 9.6875 
C 10.296875 9.6875 8.703125 7.09375 8.703125 4.890625 
C 8.703125 2.6875 10.203125 0 13.59375 0 
C 14.90625 0 16 0.390625 16.90625 1.296875 
C 17.09375 1.5 17.203125 1.5 17.296875 1.5 
C 17.5 1.5 17.5 0.09375 17.5 -0.40625 
C 17.5 -3.640625 16.90625 -10.03125 11.09375 -16.421875 
C 10 -17.609375 10 -17.8125 10 -18 
C 10 -18.5 10.5 -19 11 -19 
C 11.796875 -19 19.5 -11.703125 19.5 -0.40625 
z
" id="CMMI12-59"/>
      <path d="M 33.796875 12.671875 
C 33.40625 11.0625 33.203125 10.671875 31.90625 9.171875 
C 27.796875 3.890625 23.59375 2 20.5 2 
C 17.203125 2 14.09375 4.578125 14.09375 11.46875 
C 14.09375 16.75 17.09375 27.921875 19.296875 32.421875 
C 22.203125 38 26.703125 41.984375 30.90625 41.984375 
C 37.5 41.984375 38.796875 33.8125 38.796875 33.21875 
L 38.5 31.8125 
z
M 40 37.40625 
C 38.703125 40.296875 35.90625 44 30.90625 44 
C 20 44 7.59375 30.328125 7.59375 15.453125 
C 7.59375 5.078125 13.90625 0 20.296875 0 
C 25.59375 0 30.296875 4.1875 32.09375 6.1875 
L 29.90625 -2.75 
C 28.5 -8.125 27.90625 -10.578125 24.296875 -14 
C 20.203125 -18 16.40625 -18 14.203125 -18 
C 11.203125 -18 8.703125 -17.8125 6.203125 -17.03125 
C 9.40625 -16.15625 10.203125 -13.40625 10.203125 -12.328125 
C 10.203125 -10.765625 9 -9.203125 6.796875 -9.203125 
C 4.40625 -9.203125 1.796875 -11.15625 1.796875 -14.390625 
C 1.796875 -18.40625 5.90625 -20 14.40625 -20 
C 27.296875 -20 34 -11.84375 35.296875 -6.5625 
L 46.40625 37.90625 
C 46.703125 39.09375 46.703125 39.296875 46.703125 39.5 
C 46.703125 40.890625 45.59375 42 44.09375 42 
C 41.703125 42 40.296875 40 40 37.3125 
z
" id="CMMI12-103"/>
      <path d="M 17.90625 23 
C 20.59375 23 27.40625 23.1875 32.203125 25 
C 39.796875 27.90625 40.5 33.75 40.5 35.546875 
C 40.5 39.984375 36.703125 44 30.09375 44 
C 19.59375 44 4.5 34.453125 4.5 16.65625 
C 4.5 6.25 10.5 -1 19.59375 -1 
C 33.203125 -1 41.796875 9.515625 41.796875 10.796875 
C 41.796875 11.390625 41.203125 11.890625 40.796875 11.890625 
C 40.5 11.890625 40.40625 11.796875 39.5 10.90625 
C 33.09375 2.484375 23.59375 1 19.796875 1 
C 14.09375 1 11.09375 5.453125 11.09375 12.78125 
C 11.09375 14.171875 11.09375 16.65625 12.59375 23 
z
M 13.09375 25 
C 17.40625 40.484375 26.90625 41.984375 30.09375 41.984375 
C 34.5 41.984375 37.5 39.375 37.5 35.546875 
C 37.5 25 21.5 25 17.296875 25 
z
" id="CMMI12-101"/>
     </defs>
     <g transform="translate(80.150952 222.875089)rotate(-90)scale(0.18 -0.18)">
      <use transform="translate(6.035518 39.226102)scale(0.697382)" xlink:href="#CMMI12-98"/>
      <use transform="translate(0 -34.355253)scale(0.697382)" xlink:href="#CMMI12-102"/>
      <use transform="translate(42.299537 0)scale(0.996264)" xlink:href="#CMR17-40"/>
      <use transform="translate(77.580305 0)scale(0.996264)" xlink:href="#CMMI12-12"/>
      <use transform="translate(138.174321 0)scale(0.996264)" xlink:href="#CMR17-41"/>
      <use transform="translate(173.455088 0)scale(0.996264)" xlink:href="#CMMI12-59"/>
      <use transform="translate(221.304355 44.444174)scale(0.697382)" xlink:href="#CMMI12-103"/>
      <use transform="translate(218.352185 -34.355253)scale(0.697382)" xlink:href="#CMMI12-102"/>
      <use transform="translate(260.651722 0)scale(0.996264)" xlink:href="#CMR17-40"/>
      <use transform="translate(295.932489 0)scale(0.996264)" xlink:href="#CMMI12-12"/>
      <use transform="translate(356.526505 0)scale(0.996264)" xlink:href="#CMR17-41"/>
      <use transform="translate(391.807273 0)scale(0.996264)" xlink:href="#CMMI12-59"/>
      <use transform="translate(441.43226 39.226102)scale(0.697382)" xlink:href="#CMMI12-101"/>
      <use transform="translate(436.704369 -34.355253)scale(0.697382)" xlink:href="#CMMI12-102"/>
      <use transform="translate(479.003906 0)scale(0.996264)" xlink:href="#CMR17-40"/>
      <use transform="translate(514.284674 0)scale(0.996264)" xlink:href="#CMMI12-12"/>
      <use transform="translate(574.87869 0)scale(0.996264)" xlink:href="#CMR17-41"/>
      <path d="M 0 22.914133 
L 41.104023 22.914133 
L 41.104023 26.899083 
L 0 26.899083 
L 0 22.914133 
z
"/>
      <path d="M 218.352185 22.914133 
L 259.456208 22.914133 
L 259.456208 26.899083 
L 218.352185 26.899083 
L 218.352185 22.914133 
z
"/>
      <path d="M 436.704369 22.914133 
L 477.808392 22.914133 
L 477.808392 26.899083 
L 436.704369 26.899083 
L 436.704369 22.914133 
z
"/>
     </g>
    </g>
   </g>
   <g id="LineCollection_1">
    <path clip-path="url(#pda08626754)" d="M 613.534683 233.34274 
L 647.272255 233.34274 
" style="fill:none;stroke:#80ffdb;stroke-width:1.5;"/>
    <path clip-path="url(#pda08626754)" d="M 469.858773 245.800509 
L 498.568603 245.800509 
" style="fill:none;stroke:#80ffdb;stroke-width:1.5;"/>
    <path clip-path="url(#pda08626754)" d="M 381.880095 254.584833 
L 407.147721 254.584833 
" style="fill:none;stroke:#80ffdb;stroke-width:1.5;"/>
    <path clip-path="url(#pda08626754)" d="M 315.774781 261.111733 
L 338.398483 261.111733 
" style="fill:none;stroke:#80ffdb;stroke-width:1.5;"/>
    <path clip-path="url(#pda08626754)" d="M 266.888135 266.15231 
L 287.430225 266.15231 
" style="fill:none;stroke:#80ffdb;stroke-width:1.5;"/>
    <path clip-path="url(#pda08626754)" d="M 224.485265 270.162368 
L 243.292177 270.162368 
" style="fill:none;stroke:#80ffdb;stroke-width:1.5;"/>
    <path clip-path="url(#pda08626754)" d="M 190.786059 273.428625 
L 208.152017 273.428625 
" style="fill:none;stroke:#80ffdb;stroke-width:1.5;"/>
    <path clip-path="url(#pda08626754)" d="M 161.034151 276.140463 
L 177.163308 276.140463 
" style="fill:none;stroke:#80ffdb;stroke-width:1.5;"/>
   </g>
   <g id="LineCollection_2">
    <path clip-path="url(#pda08626754)" d="M 630.403469 234.723476 
L 630.403469 231.962004 
" style="fill:none;stroke:#80ffdb;stroke-width:1.5;"/>
    <path clip-path="url(#pda08626754)" d="M 484.213688 246.942471 
L 484.213688 244.658547 
" style="fill:none;stroke:#80ffdb;stroke-width:1.5;"/>
    <path clip-path="url(#pda08626754)" d="M 394.513908 255.558429 
L 394.513908 253.611237 
" style="fill:none;stroke:#80ffdb;stroke-width:1.5;"/>
    <path clip-path="url(#pda08626754)" d="M 327.086632 261.96023 
L 327.086632 260.263236 
" style="fill:none;stroke:#80ffdb;stroke-width:1.5;"/>
    <path clip-path="url(#pda08626754)" d="M 277.15918 266.904196 
L 277.15918 265.400424 
" style="fill:none;stroke:#80ffdb;stroke-width:1.5;"/>
    <path clip-path="url(#pda08626754)" d="M 233.888721 270.837395 
L 233.888721 269.487342 
" style="fill:none;stroke:#80ffdb;stroke-width:1.5;"/>
    <path clip-path="url(#pda08626754)" d="M 199.469038 274.041049 
L 199.469038 272.816202 
" style="fill:none;stroke:#80ffdb;stroke-width:1.5;"/>
    <path clip-path="url(#pda08626754)" d="M 169.09873 276.700909 
L 169.09873 275.580016 
" style="fill:none;stroke:#80ffdb;stroke-width:1.5;"/>
   </g>
   <g id="LineCollection_3">
    <path clip-path="url(#pda08626754)" d="M 613.534683 262.22088 
L 647.272255 262.22088 
" style="fill:none;stroke:#e0a458;stroke-width:1.5;"/>
    <path clip-path="url(#pda08626754)" d="M 469.858773 251.401413 
L 498.568603 251.401413 
" style="fill:none;stroke:#e0a458;stroke-width:1.5;"/>
    <path clip-path="url(#pda08626754)" d="M 381.880095 242.540347 
L 407.147721 242.540347 
" style="fill:none;stroke:#e0a458;stroke-width:1.5;"/>
    <path clip-path="url(#pda08626754)" d="M 315.774781 233.34274 
L 338.398483 233.34274 
" style="fill:none;stroke:#e0a458;stroke-width:1.5;"/>
    <path clip-path="url(#pda08626754)" d="M 266.888135 224.932165 
L 287.430225 224.932165 
" style="fill:none;stroke:#e0a458;stroke-width:1.5;"/>
    <path clip-path="url(#pda08626754)" d="M 224.485265 214.298105 
L 243.292177 214.298105 
" style="fill:none;stroke:#e0a458;stroke-width:1.5;"/>
    <path clip-path="url(#pda08626754)" d="M 190.786059 203.52736 
L 208.152017 203.52736 
" style="fill:none;stroke:#e0a458;stroke-width:1.5;"/>
    <path clip-path="url(#pda08626754)" d="M 161.034151 189.867669 
L 177.163308 189.867669 
" style="fill:none;stroke:#e0a458;stroke-width:1.5;"/>
   </g>
   <g id="LineCollection_4">
    <path clip-path="url(#pda08626754)" d="M 630.403469 264.070641 
L 630.403469 260.371118 
" style="fill:none;stroke:#e0a458;stroke-width:1.5;"/>
    <path clip-path="url(#pda08626754)" d="M 484.213688 253.714875 
L 484.213688 249.087952 
" style="fill:none;stroke:#e0a458;stroke-width:1.5;"/>
    <path clip-path="url(#pda08626754)" d="M 394.513908 245.233576 
L 394.513908 239.847119 
" style="fill:none;stroke:#e0a458;stroke-width:1.5;"/>
    <path clip-path="url(#pda08626754)" d="M 327.086632 236.43016 
L 327.086632 230.25532 
" style="fill:none;stroke:#e0a458;stroke-width:1.5;"/>
    <path clip-path="url(#pda08626754)" d="M 277.15918 228.380045 
L 277.15918 221.484285 
" style="fill:none;stroke:#e0a458;stroke-width:1.5;"/>
    <path clip-path="url(#pda08626754)" d="M 233.888721 218.201739 
L 233.888721 210.394471 
" style="fill:none;stroke:#e0a458;stroke-width:1.5;"/>
    <path clip-path="url(#pda08626754)" d="M 199.469038 207.892606 
L 199.469038 199.162114 
" style="fill:none;stroke:#e0a458;stroke-width:1.5;"/>
    <path clip-path="url(#pda08626754)" d="M 169.09873 194.818342 
L 169.09873 184.916996 
" style="fill:none;stroke:#e0a458;stroke-width:1.5;"/>
   </g>
   <g id="LineCollection_5">
    <path clip-path="url(#pda08626754)" d="M 613.534683 124.147275 
L 647.272255 124.147275 
" style="fill:none;stroke:#c04abc;stroke-width:1.5;"/>
    <path clip-path="url(#pda08626754)" d="M 469.858773 125.785577 
L 498.568603 125.785577 
" style="fill:none;stroke:#c04abc;stroke-width:1.5;"/>
    <path clip-path="url(#pda08626754)" d="M 381.880095 125.708835 
L 407.147721 125.708835 
" style="fill:none;stroke:#c04abc;stroke-width:1.5;"/>
    <path clip-path="url(#pda08626754)" d="M 315.774781 123.038128 
L 338.398483 123.038128 
" style="fill:none;stroke:#c04abc;stroke-width:1.5;"/>
    <path clip-path="url(#pda08626754)" d="M 266.888135 119.66813 
L 287.430225 119.66813 
" style="fill:none;stroke:#c04abc;stroke-width:1.5;"/>
    <path clip-path="url(#pda08626754)" d="M 224.485265 113.044128 
L 243.292177 113.044128 
" style="fill:none;stroke:#c04abc;stroke-width:1.5;"/>
    <path clip-path="url(#pda08626754)" d="M 190.786059 105.53964 
L 208.152017 105.53964 
" style="fill:none;stroke:#c04abc;stroke-width:1.5;"/>
    <path clip-path="url(#pda08626754)" d="M 161.034151 94.591787 
L 177.163308 94.591787 
" style="fill:none;stroke:#c04abc;stroke-width:1.5;"/>
   </g>
   <g id="LineCollection_6">
    <path clip-path="url(#pda08626754)" d="M 630.403469 127.890093 
L 630.403469 120.404456 
" style="fill:none;stroke:#c04abc;stroke-width:1.5;"/>
    <path clip-path="url(#pda08626754)" d="M 484.213688 129.503597 
L 484.213688 122.067557 
" style="fill:none;stroke:#c04abc;stroke-width:1.5;"/>
    <path clip-path="url(#pda08626754)" d="M 394.513908 129.428017 
L 394.513908 121.989653 
" style="fill:none;stroke:#c04abc;stroke-width:1.5;"/>
    <path clip-path="url(#pda08626754)" d="M 327.086632 126.797736 
L 327.086632 119.278521 
" style="fill:none;stroke:#c04abc;stroke-width:1.5;"/>
    <path clip-path="url(#pda08626754)" d="M 277.15918 123.478747 
L 277.15918 115.857512 
" style="fill:none;stroke:#c04abc;stroke-width:1.5;"/>
    <path clip-path="url(#pda08626754)" d="M 233.888721 116.955011 
L 233.888721 109.133245 
" style="fill:none;stroke:#c04abc;stroke-width:1.5;"/>
    <path clip-path="url(#pda08626754)" d="M 199.469038 109.564116 
L 199.469038 101.515165 
" style="fill:none;stroke:#c04abc;stroke-width:1.5;"/>
    <path clip-path="url(#pda08626754)" d="M 169.09873 98.781976 
L 169.09873 90.401598 
" style="fill:none;stroke:#c04abc;stroke-width:1.5;"/>
   </g>
   <g id="LineCollection_7">
    <path clip-path="url(#pda08626754)" d="M 711.900675 233.34274 
L 747.163636 233.34274 
" style="fill:none;stroke:#094d92;stroke-width:1.5;"/>
    <path clip-path="url(#pda08626754)" d="M 494.727337 245.800509 
L 523.765033 245.800509 
" style="fill:none;stroke:#094d92;stroke-width:1.5;"/>
    <path clip-path="url(#pda08626754)" d="M 372.75395 254.584833 
L 397.916702 254.584833 
" style="fill:none;stroke:#094d92;stroke-width:1.5;"/>
    <path clip-path="url(#pda08626754)" d="M 290.485757 261.111733 
L 312.852283 261.111733 
" style="fill:none;stroke:#094d92;stroke-width:1.5;"/>
    <path clip-path="url(#pda08626754)" d="M 247.309492 266.15231 
L 267.672087 266.15231 
" style="fill:none;stroke:#094d92;stroke-width:1.5;"/>
    <path clip-path="url(#pda08626754)" d="M 206.204062 270.162368 
L 224.859052 270.162368 
" style="fill:none;stroke:#094d92;stroke-width:1.5;"/>
    <path clip-path="url(#pda08626754)" d="M 170.212307 273.428625 
L 187.422149 273.428625 
" style="fill:none;stroke:#094d92;stroke-width:1.5;"/>
    <path clip-path="url(#pda08626754)" d="M 138.436364 276.140463 
L 154.408101 276.140463 
" style="fill:none;stroke:#094d92;stroke-width:1.5;"/>
   </g>
   <g id="LineCollection_8">
    <path clip-path="url(#pda08626754)" d="M 729.532156 234.723476 
L 729.532156 231.962004 
" style="fill:none;stroke:#094d92;stroke-width:1.5;"/>
    <path clip-path="url(#pda08626754)" d="M 509.246185 246.942471 
L 509.246185 244.658547 
" style="fill:none;stroke:#094d92;stroke-width:1.5;"/>
    <path clip-path="url(#pda08626754)" d="M 385.335326 255.558429 
L 385.335326 253.611237 
" style="fill:none;stroke:#094d92;stroke-width:1.5;"/>
    <path clip-path="url(#pda08626754)" d="M 301.66902 261.96023 
L 301.66902 260.263236 
" style="fill:none;stroke:#094d92;stroke-width:1.5;"/>
    <path clip-path="url(#pda08626754)" d="M 257.490789 266.904196 
L 257.490789 265.400424 
" style="fill:none;stroke:#094d92;stroke-width:1.5;"/>
    <path clip-path="url(#pda08626754)" d="M 215.531557 270.837395 
L 215.531557 269.487342 
" style="fill:none;stroke:#094d92;stroke-width:1.5;"/>
    <path clip-path="url(#pda08626754)" d="M 178.817228 274.041049 
L 178.817228 272.816202 
" style="fill:none;stroke:#094d92;stroke-width:1.5;"/>
    <path clip-path="url(#pda08626754)" d="M 146.422233 276.700909 
L 146.422233 275.580016 
" style="fill:none;stroke:#094d92;stroke-width:1.5;"/>
   </g>
   <g id="LineCollection_9">
    <path clip-path="url(#pda08626754)" d="M 711.900675 270.162368 
L 747.163636 270.162368 
" style="fill:none;stroke:#68b684;stroke-width:1.5;"/>
    <path clip-path="url(#pda08626754)" d="M 494.727337 255.322872 
L 523.765033 255.322872 
" style="fill:none;stroke:#68b684;stroke-width:1.5;"/>
    <path clip-path="url(#pda08626754)" d="M 372.75395 240.16119 
L 397.916702 240.16119 
" style="fill:none;stroke:#68b684;stroke-width:1.5;"/>
    <path clip-path="url(#pda08626754)" d="M 290.485757 223.008749 
L 312.852283 223.008749 
" style="fill:none;stroke:#68b684;stroke-width:1.5;"/>
    <path clip-path="url(#pda08626754)" d="M 247.309492 214.298105 
L 267.672087 214.298105 
" style="fill:none;stroke:#68b684;stroke-width:1.5;"/>
    <path clip-path="url(#pda08626754)" d="M 206.204062 200.42453 
L 224.859052 200.42453 
" style="fill:none;stroke:#68b684;stroke-width:1.5;"/>
    <path clip-path="url(#pda08626754)" d="M 170.212307 181.565138 
L 187.422149 181.565138 
" style="fill:none;stroke:#68b684;stroke-width:1.5;"/>
    <path clip-path="url(#pda08626754)" d="M 138.436364 154.443537 
L 154.408101 154.443537 
" style="fill:none;stroke:#68b684;stroke-width:1.5;"/>
   </g>
   <g id="LineCollection_10">
    <path clip-path="url(#pda08626754)" d="M 729.532156 271.671773 
L 729.532156 268.652963 
" style="fill:none;stroke:#68b684;stroke-width:1.5;"/>
    <path clip-path="url(#pda08626754)" d="M 509.246185 257.468268 
L 509.246185 253.177476 
" style="fill:none;stroke:#68b684;stroke-width:1.5;"/>
    <path clip-path="url(#pda08626754)" d="M 385.335326 242.956384 
L 385.335326 237.365995 
" style="fill:none;stroke:#68b684;stroke-width:1.5;"/>
    <path clip-path="url(#pda08626754)" d="M 301.66902 226.539062 
L 301.66902 219.478435 
" style="fill:none;stroke:#68b684;stroke-width:1.5;"/>
    <path clip-path="url(#pda08626754)" d="M 257.490789 218.201739 
L 257.490789 210.394471 
" style="fill:none;stroke:#68b684;stroke-width:1.5;"/>
    <path clip-path="url(#pda08626754)" d="M 215.531557 204.922757 
L 215.531557 195.926302 
" style="fill:none;stroke:#68b684;stroke-width:1.5;"/>
    <path clip-path="url(#pda08626754)" d="M 178.817228 186.871641 
L 178.817228 176.258636 
" style="fill:none;stroke:#68b684;stroke-width:1.5;"/>
    <path clip-path="url(#pda08626754)" d="M 146.422233 160.912416 
L 146.422233 147.974658 
" style="fill:none;stroke:#68b684;stroke-width:1.5;"/>
   </g>
   <g id="LineCollection_11">
    <path clip-path="url(#pda08626754)" d="M 711.900675 132.088763 
L 747.163636 132.088763 
" style="fill:none;stroke:#1c1018;stroke-width:1.5;"/>
    <path clip-path="url(#pda08626754)" d="M 494.727337 129.707036 
L 523.765033 129.707036 
" style="fill:none;stroke:#1c1018;stroke-width:1.5;"/>
    <path clip-path="url(#pda08626754)" d="M 372.75395 123.329678 
L 397.916702 123.329678 
" style="fill:none;stroke:#1c1018;stroke-width:1.5;"/>
    <path clip-path="url(#pda08626754)" d="M 290.485757 112.704137 
L 312.852283 112.704137 
" style="fill:none;stroke:#1c1018;stroke-width:1.5;"/>
    <path clip-path="url(#pda08626754)" d="M 247.309492 109.034069 
L 267.672087 109.034069 
" style="fill:none;stroke:#1c1018;stroke-width:1.5;"/>
    <path clip-path="url(#pda08626754)" d="M 206.204062 99.170552 
L 224.859052 99.170552 
" style="fill:none;stroke:#1c1018;stroke-width:1.5;"/>
    <path clip-path="url(#pda08626754)" d="M 170.212307 83.577418 
L 187.422149 83.577418 
" style="fill:none;stroke:#1c1018;stroke-width:1.5;"/>
    <path clip-path="url(#pda08626754)" d="M 138.436364 59.167655 
L 154.408101 59.167655 
" style="fill:none;stroke:#1c1018;stroke-width:1.5;"/>
   </g>
   <g id="LineCollection_12">
    <path clip-path="url(#pda08626754)" d="M 729.532156 135.805016 
L 729.532156 128.37251 
" style="fill:none;stroke:#1c1018;stroke-width:1.5;"/>
    <path clip-path="url(#pda08626754)" d="M 509.246185 133.460271 
L 509.246185 125.9538 
" style="fill:none;stroke:#1c1018;stroke-width:1.5;"/>
    <path clip-path="url(#pda08626754)" d="M 385.335326 127.181941 
L 385.335326 119.477415 
" style="fill:none;stroke:#1c1018;stroke-width:1.5;"/>
    <path clip-path="url(#pda08626754)" d="M 301.66902 116.721392 
L 301.66902 108.686882 
" style="fill:none;stroke:#1c1018;stroke-width:1.5;"/>
    <path clip-path="url(#pda08626754)" d="M 257.490789 113.108313 
L 257.490789 104.959826 
" style="fill:none;stroke:#1c1018;stroke-width:1.5;"/>
    <path clip-path="url(#pda08626754)" d="M 215.531557 103.397956 
L 215.531557 94.943149 
" style="fill:none;stroke:#1c1018;stroke-width:1.5;"/>
    <path clip-path="url(#pda08626754)" d="M 178.817228 88.04695 
L 178.817228 79.107887 
" style="fill:none;stroke:#1c1018;stroke-width:1.5;"/>
    <path clip-path="url(#pda08626754)" d="M 146.422233 64.016218 
L 146.422233 54.319091 
" style="fill:none;stroke:#1c1018;stroke-width:1.5;"/>
   </g>
   <g id="line2d_19">
    <path clip-path="url(#pda08626754)" d="M 630.403469 233.34274 
L 484.213688 245.800509 
L 394.513908 254.584833 
L 327.086632 261.111733 
L 277.15918 266.15231 
L 233.888721 270.162368 
L 199.469038 273.428625 
L 169.09873 276.140463 
" style="fill:none;stroke:#80ffdb;stroke-linecap:square;stroke-width:1.5;"/>
   </g>
   <g id="line2d_20">
    <path clip-path="url(#pda08626754)" d="M 630.403469 262.22088 
L 484.213688 251.401413 
L 394.513908 242.540347 
L 327.086632 233.34274 
L 277.15918 224.932165 
L 233.888721 214.298105 
L 199.469038 203.52736 
L 169.09873 189.867669 
" style="fill:none;stroke:#e0a458;stroke-linecap:square;stroke-width:1.5;"/>
   </g>
   <g id="line2d_21">
    <path clip-path="url(#pda08626754)" d="M 630.403469 124.147275 
L 484.213688 125.785577 
L 394.513908 125.708835 
L 327.086632 123.038128 
L 277.15918 119.66813 
L 233.888721 113.044128 
L 199.469038 105.53964 
L 169.09873 94.591787 
" style="fill:none;stroke:#c04abc;stroke-linecap:square;stroke-width:1.5;"/>
   </g>
   <g id="line2d_22">
    <path clip-path="url(#pda08626754)" d="M 729.532156 233.34274 
L 509.246185 245.800509 
L 385.335326 254.584833 
L 301.66902 261.111733 
L 257.490789 266.15231 
L 215.531557 270.162368 
L 178.817228 273.428625 
L 146.422233 276.140463 
" style="fill:none;stroke:#094d92;stroke-linecap:square;stroke-width:1.5;"/>
   </g>
   <g id="line2d_23">
    <path clip-path="url(#pda08626754)" d="M 729.532156 270.162368 
L 509.246185 255.322872 
L 385.335326 240.16119 
L 301.66902 223.008749 
L 257.490789 214.298105 
L 215.531557 200.42453 
L 178.817228 181.565138 
L 146.422233 154.443537 
" style="fill:none;stroke:#68b684;stroke-linecap:square;stroke-width:1.5;"/>
   </g>
   <g id="line2d_24">
    <path clip-path="url(#pda08626754)" d="M 729.532156 132.088763 
L 509.246185 129.707036 
L 385.335326 123.329678 
L 301.66902 112.704137 
L 257.490789 109.034069 
L 215.531557 99.170552 
L 178.817228 83.577418 
L 146.422233 59.167655 
" style="fill:none;stroke:#1c1018;stroke-linecap:square;stroke-width:1.5;"/>
   </g>
   <g id="patch_3">
    <path d="M 108 287.82 
L 108 43.2 
" style="fill:none;stroke:#000000;stroke-linecap:square;stroke-linejoin:miter;stroke-width:0.8;"/>
   </g>
   <g id="patch_4">
    <path d="M 777.6 287.82 
L 777.6 43.2 
" style="fill:none;stroke:#000000;stroke-linecap:square;stroke-linejoin:miter;stroke-width:0.8;"/>
   </g>
   <g id="patch_5">
    <path d="M 108 287.82 
L 777.6 287.82 
" style="fill:none;stroke:#000000;stroke-linecap:square;stroke-linejoin:miter;stroke-width:0.8;"/>
   </g>
   <g id="patch_6">
    <path d="M 108 43.2 
L 777.6 43.2 
" style="fill:none;stroke:#000000;stroke-linecap:square;stroke-linejoin:miter;stroke-width:0.8;"/>
   </g>
   <g id="text_5">
    <!-- Mit $f_{nom}$ errechnete Werte für $\frac{b}{f}(\beta), \frac{g}{f}(\beta), \frac{e}{f}(\beta)$ -->
    <defs>
     <path d="M 46.796875 0 
L 67.296875 61.171875 
L 67.296875 0 
L 76.09375 0 
L 76.09375 73 
L 63.203125 73 
L 42 9.40625 
L 20.40625 73 
L 7.5 73 
L 7.5 0 
L 16.296875 0 
L 16.296875 61.171875 
L 37 0 
z
" id="Nimbus_Sans_L_Regular-77"/>
     <path d="M 15 52.46875 
L 6.703125 52.46875 
L 6.703125 0 
L 15 0 
z
M 15 73 
L 6.59375 73 
L 6.59375 62.484375 
L 15 62.484375 
z
" id="Nimbus_Sans_L_Regular-105"/>
     <path d="M 25.40625 52 
L 16.796875 52 
L 16.796875 66.390625 
L 8.5 66.390625 
L 8.5 52 
L 1.40625 52 
L 1.40625 45.1875 
L 8.5 45.1875 
L 8.5 6.28125 
C 8.5 1 12.09375 -2 18.59375 -2 
C 20.59375 -2 22.59375 -1.8125 25.40625 -1.3125 
L 25.40625 5.6875 
C 24.296875 5.390625 23 5.296875 21.40625 5.296875 
C 17.796875 5.296875 16.796875 6.28125 16.796875 9.90625 
L 16.796875 45.1875 
L 25.40625 45.1875 
z
" id="Nimbus_Sans_L_Regular-116"/>
     <path d="M 20.59375 29.21875 
C 20.796875 29.828125 23.296875 34.8125 27 38 
C 29.59375 40.390625 33 41.984375 36.90625 41.984375 
C 40.90625 41.984375 42.296875 39 42.296875 35.015625 
C 42.296875 29.328125 38.203125 17.953125 36.203125 12.5625 
C 35.296875 10.171875 34.796875 8.875 34.796875 7.078125 
C 34.796875 2.59375 37.90625 -1 42.703125 -1 
C 52 -1 55.5 13.65625 55.5 14.265625 
C 55.5 14.765625 55.09375 15.15625 54.5 15.15625 
C 53.59375 15.15625 53.5 14.859375 53 13.15625 
C 50.703125 4.984375 46.90625 1 43 1 
C 42 1 40.40625 1.09375 40.40625 4.28125 
C 40.40625 6.78125 41.5 9.765625 42.09375 11.171875 
C 44.09375 16.65625 48.296875 27.828125 48.296875 33.515625 
C 48.296875 39.5 44.796875 44 37.203125 44 
C 28.296875 44 23.59375 37.703125 21.796875 35.203125 
C 21.5 40.890625 17.40625 44 13 44 
C 9.796875 44 7.59375 42.09375 5.90625 38.703125 
C 4.09375 35.109375 2.703125 29.125 2.703125 28.71875 
C 2.703125 28.328125 3.09375 27.828125 3.796875 27.828125 
C 4.59375 27.828125 4.703125 27.921875 5.296875 30.21875 
C 6.90625 36.3125 8.703125 41.984375 12.703125 41.984375 
C 15 41.984375 15.796875 40.390625 15.796875 37.40625 
C 15.796875 35.203125 14.796875 31.3125 14.09375 28.234375 
L 11.296875 17.453125 
C 10.90625 15.5625 9.796875 11.0625 9.296875 9.265625 
C 8.59375 6.671875 7.5 1.984375 7.5 1.484375 
C 7.5 0.09375 8.59375 -1 10.09375 -1 
C 11.296875 -1 12.703125 -0.40625 13.5 1.09375 
C 13.703125 1.59375 14.59375 5.078125 15.09375 7.078125 
L 17.296875 16.0625 
z
" id="CMMI12-110"/>
     <path d="M 45.59375 27.421875 
C 45.59375 36.90625 39.40625 44 30.296875 44 
C 17.09375 44 4.09375 29.625 4.09375 15.5625 
C 4.09375 6.078125 10.296875 -1 19.40625 -1 
C 32.703125 -1 45.59375 13.359375 45.59375 27.421875 
z
M 19.5 1 
C 14.5 1 10.796875 4.984375 10.796875 11.96875 
C 10.796875 16.5625 13.203125 26.734375 16 31.71875 
C 20.5 39.40625 26.09375 41.984375 30.203125 41.984375 
C 35.09375 41.984375 38.90625 38 38.90625 31.015625 
C 38.90625 27.03125 36.796875 16.359375 33 10.265625 
C 28.90625 3.59375 23.40625 1 19.5 1 
z
" id="CMMI12-111"/>
     <path d="M 20.59375 29.21875 
C 20.796875 29.828125 23.296875 34.8125 27 38 
C 29.59375 40.390625 33 41.984375 36.90625 41.984375 
C 40.90625 41.984375 42.296875 39 42.296875 35.015625 
C 42.296875 34.40625 42.296875 32.421875 41.09375 27.734375 
L 38.59375 17.453125 
C 37.796875 14.453125 35.90625 7.078125 35.703125 5.984375 
C 35.296875 4.484375 34.703125 1.890625 34.703125 1.484375 
C 34.703125 0.09375 35.796875 -1 37.296875 -1 
C 40.296875 -1 40.796875 1.296875 41.703125 4.890625 
L 47.703125 28.71875 
C 47.90625 29.53125 53.09375 41.984375 64.09375 41.984375 
C 68.09375 41.984375 69.5 39 69.5 35.015625 
C 69.5 29.421875 65.59375 18.546875 63.40625 12.5625 
C 62.5 10.171875 62 8.875 62 7.078125 
C 62 2.59375 65.09375 -1 69.90625 -1 
C 79.203125 -1 82.703125 13.65625 82.703125 14.265625 
C 82.703125 14.765625 82.296875 15.15625 81.703125 15.15625 
C 80.796875 15.15625 80.703125 14.859375 80.203125 13.15625 
C 77.90625 5.1875 74.203125 1 70.203125 1 
C 69.203125 1 67.59375 1.09375 67.59375 4.28125 
C 67.59375 6.875 68.796875 10.078125 69.203125 11.171875 
C 71 15.953125 75.5 27.734375 75.5 33.515625 
C 75.5 39.5 72 44 64.40625 44 
C 57.703125 44 52.296875 40.203125 48.296875 34.3125 
C 48 39.703125 44.703125 44 37.203125 44 
C 28.296875 44 23.59375 37.703125 21.796875 35.203125 
C 21.5 40.890625 17.40625 44 13 44 
C 10.09375 44 7.796875 42.59375 5.90625 38.796875 
C 4.09375 35.203125 2.703125 29.125 2.703125 28.71875 
C 2.703125 28.328125 3.09375 27.828125 3.796875 27.828125 
C 4.59375 27.828125 4.703125 27.921875 5.296875 30.21875 
C 6.796875 36.109375 8.703125 41.984375 12.703125 41.984375 
C 15 41.984375 15.796875 40.390625 15.796875 37.40625 
C 15.796875 35.203125 14.796875 31.3125 14.09375 28.234375 
L 11.296875 17.453125 
C 10.90625 15.5625 9.796875 11.0625 9.296875 9.265625 
C 8.59375 6.671875 7.5 1.984375 7.5 1.484375 
C 7.5 0.09375 8.59375 -1 10.09375 -1 
C 11.296875 -1 12.703125 -0.40625 13.5 1.09375 
C 13.703125 1.59375 14.59375 5.078125 15.09375 7.078125 
L 17.296875 16.0625 
z
" id="CMMI12-109"/>
     <path d="M 51.296875 23.1875 
C 51.296875 31.21875 50.703125 36.109375 49.203125 40.078125 
C 45.796875 48.796875 37.796875 54 28 54 
C 13.40625 54 4 42.71875 4 25.296875 
C 4 8.515625 13.09375 -2 27.796875 -2 
C 39.796875 -2 48.09375 4.796875 50.203125 15.90625 
L 41.796875 15.90625 
C 39.5 9.1875 34.796875 5.6875 28.09375 5.6875 
C 22.796875 5.6875 18.296875 8.03125 15.5 12.296875 
C 13.5 15.21875 12.796875 18.140625 12.703125 23.1875 
z
M 12.90625 30 
C 13.59375 39.875 19.5 46.296875 27.90625 46.296875 
C 36.09375 46.296875 42.40625 39.359375 42.40625 30.609375 
C 42.40625 30.40625 42.40625 30.203125 42.296875 30 
z
" id="Nimbus_Sans_L_Regular-101"/>
     <path d="M 6.90625 52 
L 6.90625 0 
L 15.296875 0 
L 15.296875 26.984375 
C 15.296875 34.421875 17.203125 39.28125 21.203125 42.15625 
C 23.796875 44.046875 26.296875 44.640625 32.09375 44.734375 
L 32.09375 53.1875 
C 30.703125 53.890625 30 54 28.90625 54 
C 23.5 54 19.40625 50.796875 14.59375 42.96875 
L 14.59375 52 
z
" id="Nimbus_Sans_L_Regular-114"/>
     <path d="M 47.09375 34.953125 
C 46.703125 40.015625 45.59375 43.296875 43.59375 46.1875 
C 40 51.09375 33.703125 54 26.40625 54 
C 12.296875 54 3.09375 42.8125 3.09375 25.5 
C 3.09375 8.671875 12.09375 -2 26.296875 -2 
C 38.796875 -2 46.703125 5.5 47.703125 18.234375 
L 39.296875 18.234375 
C 37.90625 9.875 33.59375 5.6875 26.5 5.6875 
C 17.296875 5.6875 11.796875 13.15625 11.796875 25.5 
C 11.796875 38.53125 17.203125 46.296875 26.296875 46.296875 
C 33.296875 46.296875 37.703125 42.203125 38.703125 34.953125 
z
" id="Nimbus_Sans_L_Regular-99"/>
     <path d="M 7 73 
L 7 0 
L 15.296875 0 
L 15.296875 28.953125 
C 15.296875 39.671875 20.90625 46.6875 29.5 46.6875 
C 32.203125 46.6875 34.90625 45.78125 36.90625 44.28125 
C 39.296875 42.578125 40.296875 40.078125 40.296875 36.375 
L 40.296875 0 
L 48.59375 0 
L 48.59375 39.671875 
C 48.59375 48.484375 42.296875 54 32.09375 54 
C 24.703125 54 20.203125 51.6875 15.296875 45.28125 
L 15.296875 73 
z
" id="Nimbus_Sans_L_Regular-104"/>
     <path d="M 7 52 
L 7 0 
L 15.40625 0 
L 15.40625 28.671875 
C 15.40625 39.671875 21 46.6875 29.59375 46.6875 
C 36.203125 46.6875 40.40625 42.6875 40.40625 36.375 
L 40.40625 0 
L 48.703125 0 
L 48.703125 39.671875 
C 48.703125 48.390625 42.203125 54 32.09375 54 
C 24.296875 54 19.296875 50.984375 14.703125 43.6875 
L 14.703125 52 
z
" id="Nimbus_Sans_L_Regular-110"/>
     <path d="M 74.40625 0 
L 92.90625 73 
L 82.5 73 
L 69.09375 13.703125 
L 52.5 73 
L 42.5 73 
L 26.296875 13.703125 
L 12.59375 73 
L 2.203125 73 
L 20.90625 0 
L 31.09375 0 
L 47.40625 59.96875 
L 64.203125 0 
z
" id="Nimbus_Sans_L_Regular-87"/>
     <path d="M 25.796875 52 
L 17.09375 52 
L 17.09375 60.3125 
C 17.09375 63.859375 19.09375 65.6875 22.90625 65.6875 
C 23.59375 65.6875 23.90625 65.6875 25.796875 65.59375 
L 25.796875 72.484375 
C 23.90625 72.890625 22.796875 73 21.09375 73 
C 13.40625 73 8.796875 68.59375 8.796875 61.015625 
L 8.796875 52 
L 1.796875 52 
L 1.796875 45.1875 
L 8.796875 45.1875 
L 8.796875 0 
L 17.09375 0 
L 17.09375 45.1875 
L 25.796875 45.1875 
z
" id="Nimbus_Sans_L_Regular-102"/>
     <path d="M 13.40625 71.296875 
L 3 71.296875 
L 3 61 
L 13.40625 61 
z
M 29.59375 71.296875 
L 19.203125 71.296875 
L 19.203125 61 
L 29.59375 61 
z
" id="Nimbus_Sans_L_Regular-168"/>
     <path d="M 48.203125 0.296875 
L 48.203125 52 
L 39.90625 52 
L 39.90625 22.71875 
C 39.90625 12.1875 34.296875 5.296875 25.59375 5.296875 
C 19 5.296875 14.796875 9.234375 14.796875 15.4375 
L 14.796875 52 
L 6.5 52 
L 6.5 12.1875 
C 6.5 3.59375 13 -2 23.203125 -2 
C 30.90625 -2 35.796875 0.6875 40.703125 7.5625 
L 40.703125 0.296875 
z
" id="Nimbus_Sans_L_Regular-117"/>
    </defs>
    <g transform="translate(232.033816 32.850292)scale(0.216 -0.216)">
     <use transform="scale(0.996264)" xlink:href="#Nimbus_Sans_L_Regular-77"/>
     <use transform="translate(82.98843 0)scale(0.996264)" xlink:href="#Nimbus_Sans_L_Regular-105"/>
     <use transform="translate(105.105215 0)scale(0.996264)" xlink:href="#Nimbus_Sans_L_Regular-116"/>
     <use transform="translate(160.495554 0)scale(0.996264)" xlink:href="#CMMI12-102"/>
     <use transform="translate(208.578791 -14.943915)scale(0.697382)" xlink:href="#CMMI12-110"/>
     <use transform="translate(249.339635 -14.943915)scale(0.697382)" xlink:href="#CMMI12-111"/>
     <use transform="translate(282.166196 -14.943915)scale(0.697382)" xlink:href="#CMMI12-109"/>
     <use transform="translate(370.088289 0)scale(0.996264)" xlink:href="#Nimbus_Sans_L_Regular-101"/>
     <use transform="translate(425.479966 0)scale(0.996264)" xlink:href="#Nimbus_Sans_L_Regular-114"/>
     <use transform="translate(458.655196 0)scale(0.996264)" xlink:href="#Nimbus_Sans_L_Regular-114"/>
     <use transform="translate(491.830425 0)scale(0.996264)" xlink:href="#Nimbus_Sans_L_Regular-101"/>
     <use transform="translate(547.222102 0)scale(0.996264)" xlink:href="#Nimbus_Sans_L_Regular-99"/>
     <use transform="translate(597.035303 0)scale(0.996264)" xlink:href="#Nimbus_Sans_L_Regular-104"/>
     <use transform="translate(652.42698 0)scale(0.996264)" xlink:href="#Nimbus_Sans_L_Regular-110"/>
     <use transform="translate(707.818657 0)scale(0.996264)" xlink:href="#Nimbus_Sans_L_Regular-101"/>
     <use transform="translate(763.210334 0)scale(0.996264)" xlink:href="#Nimbus_Sans_L_Regular-116"/>
     <use transform="translate(790.905503 0)scale(0.996264)" xlink:href="#Nimbus_Sans_L_Regular-101"/>
     <use transform="translate(873.99235 0)scale(0.996264)" xlink:href="#Nimbus_Sans_L_Regular-87"/>
     <use transform="translate(965.051011 0)scale(0.996264)" xlink:href="#Nimbus_Sans_L_Regular-101"/>
     <use transform="translate(1020.442688 0)scale(0.996264)" xlink:href="#Nimbus_Sans_L_Regular-114"/>
     <use transform="translate(1057.602016 0)scale(0.996264)" xlink:href="#Nimbus_Sans_L_Regular-116"/>
     <use transform="translate(1085.297186 0)scale(0.996264)" xlink:href="#Nimbus_Sans_L_Regular-101"/>
     <use transform="translate(1168.384032 0)scale(0.996264)" xlink:href="#Nimbus_Sans_L_Regular-102"/>
     <use transform="translate(1207.187433 -0.249309)scale(0.996264)" xlink:href="#Nimbus_Sans_L_Regular-168"/>
     <use transform="translate(1196.079202 0)scale(0.996264)" xlink:href="#Nimbus_Sans_L_Regular-117"/>
     <use transform="translate(1251.470879 0)scale(0.996264)" xlink:href="#Nimbus_Sans_L_Regular-114"/>
     <use transform="translate(1319.57231 39.226102)scale(0.697382)" xlink:href="#CMMI12-98"/>
     <use transform="translate(1313.536792 -34.355253)scale(0.697382)" xlink:href="#CMMI12-102"/>
     <use transform="translate(1355.836329 0)scale(0.996264)" xlink:href="#CMR17-40"/>
     <use transform="translate(1391.117097 0)scale(0.996264)" xlink:href="#CMMI12-12"/>
     <use transform="translate(1451.711113 0)scale(0.996264)" xlink:href="#CMR17-41"/>
     <use transform="translate(1486.99188 0)scale(0.996264)" xlink:href="#CMMI12-59"/>
     <use transform="translate(1534.841147 44.444174)scale(0.697382)" xlink:href="#CMMI12-103"/>
     <use transform="translate(1531.888977 -34.355253)scale(0.697382)" xlink:href="#CMMI12-102"/>
     <use transform="translate(1574.188514 0)scale(0.996264)" xlink:href="#CMR17-40"/>
     <use transform="translate(1609.469281 0)scale(0.996264)" xlink:href="#CMMI12-12"/>
     <use transform="translate(1670.063297 0)scale(0.996264)" xlink:href="#CMR17-41"/>
     <use transform="translate(1705.344065 0)scale(0.996264)" xlink:href="#CMMI12-59"/>
     <use transform="translate(1754.969052 39.226102)scale(0.697382)" xlink:href="#CMMI12-101"/>
     <use transform="translate(1750.241161 -34.355253)scale(0.697382)" xlink:href="#CMMI12-102"/>
     <use transform="translate(1792.540698 0)scale(0.996264)" xlink:href="#CMR17-40"/>
     <use transform="translate(1827.821466 0)scale(0.996264)" xlink:href="#CMMI12-12"/>
     <use transform="translate(1888.415482 0)scale(0.996264)" xlink:href="#CMR17-41"/>
     <path d="M 1313.536792 22.914133 
L 1354.640815 22.914133 
L 1354.640815 26.899083 
L 1313.536792 26.899083 
L 1313.536792 22.914133 
z
"/>
     <path d="M 1531.888977 22.914133 
L 1572.993 22.914133 
L 1572.993 26.899083 
L 1531.888977 26.899083 
L 1531.888977 22.914133 
z
"/>
     <path d="M 1750.241161 22.914133 
L 1791.345184 22.914133 
L 1791.345184 26.899083 
L 1750.241161 26.899083 
L 1750.241161 22.914133 
z
"/>
    </g>
   </g>
   <g id="legend_1">
    <g id="patch_7">
     <path d="M 121.158131 383.256414 
L 768.441869 383.256414 
Q 772.041869 383.256414 772.041869 379.656414 
L 772.041869 314.651 
Q 772.041869 311.051 768.441869 311.051 
L 121.158131 311.051 
Q 117.558131 311.051 117.558131 314.651 
L 117.558131 379.656414 
Q 117.558131 383.256414 121.158131 383.256414 
z
" style="fill:#4c4c4c;opacity:0.5;stroke:#4c4c4c;stroke-linejoin:miter;"/>
    </g>
    <g id="patch_8">
     <path d="M 119.158131 381.256414 
L 766.441869 381.256414 
Q 770.041869 381.256414 770.041869 377.656414 
L 770.041869 312.651 
Q 770.041869 309.051 766.441869 309.051 
L 119.158131 309.051 
Q 115.558131 309.051 115.558131 312.651 
L 115.558131 377.656414 
Q 115.558131 381.256414 119.158131 381.256414 
z
" style="fill:#ffffff;stroke:#cccccc;stroke-linejoin:miter;"/>
    </g>
    <g id="LineCollection_13">
     <path d="M 131.758131 325.728945 
L 149.758131 325.728945 
" style="fill:none;stroke:#80ffdb;stroke-width:1.5;"/>
    </g>
    <g id="LineCollection_14">
     <path d="M 140.758131 334.728945 
L 140.758131 316.728945 
" style="fill:none;stroke:#80ffdb;stroke-width:1.5;"/>
    </g>
    <g id="line2d_25">
     <path d="M 122.758131 325.728945 
L 158.758131 325.728945 
" style="fill:none;stroke:#80ffdb;stroke-linecap:square;stroke-width:1.5;"/>
    </g>
    <g id="line2d_26"/>
    <g id="text_6">
     <!-- NP $\frac{b}{f}(\beta)$ err. -->
     <defs>
      <path d="M 64.59375 73 
L 55.796875 73 
L 55.796875 13.3125 
L 17.703125 73 
L 7.59375 73 
L 7.59375 0 
L 16.40625 0 
L 16.40625 59.171875 
L 54.09375 0 
L 64.59375 0 
z
" id="Nimbus_Sans_L_Regular-78"/>
      <path d="M 18.40625 31 
L 41.296875 31 
C 47 31 51.5 32.6875 55.40625 36.1875 
C 59.796875 40.1875 61.703125 44.890625 61.703125 51.59375 
C 61.703125 65.296875 53.59375 73 39.203125 73 
L 9.09375 73 
L 9.09375 0 
L 18.40625 0 
z
M 18.40625 39.1875 
L 18.40625 64.796875 
L 37.796875 64.796875 
C 46.703125 64.796875 52 59.984375 52 51.984375 
C 52 44 46.703125 39.1875 37.796875 39.1875 
z
" id="Nimbus_Sans_L_Regular-80"/>
      <path d="M 19.09375 10.390625 
L 8.703125 10.390625 
L 8.703125 0 
L 19.09375 0 
z
" id="Nimbus_Sans_L_Regular-46"/>
     </defs>
     <g transform="translate(173.158131 332.028945)scale(0.18 -0.18)">
      <use transform="scale(0.996264)" xlink:href="#Nimbus_Sans_L_Regular-78"/>
      <use transform="translate(71.929985 0)scale(0.996264)" xlink:href="#Nimbus_Sans_L_Regular-80"/>
      <use transform="translate(173.306217 39.226102)scale(0.697382)" xlink:href="#CMMI12-98"/>
      <use transform="translate(167.270699 -34.355253)scale(0.697382)" xlink:href="#CMMI12-102"/>
      <use transform="translate(209.570236 0)scale(0.996264)" xlink:href="#CMR17-40"/>
      <use transform="translate(244.851004 0)scale(0.996264)" xlink:href="#CMMI12-12"/>
      <use transform="translate(305.44502 0)scale(0.996264)" xlink:href="#CMR17-41"/>
      <use transform="translate(368.420957 0)scale(0.996264)" xlink:href="#Nimbus_Sans_L_Regular-101"/>
      <use transform="translate(423.812634 0)scale(0.996264)" xlink:href="#Nimbus_Sans_L_Regular-114"/>
      <use transform="translate(456.987864 0)scale(0.996264)" xlink:href="#Nimbus_Sans_L_Regular-114"/>
      <use transform="translate(485.181743 0)scale(0.996264)" xlink:href="#Nimbus_Sans_L_Regular-46"/>
      <path d="M 167.270699 22.914133 
L 208.374723 22.914133 
L 208.374723 26.899083 
L 167.270699 26.899083 
L 167.270699 22.914133 
z
"/>
     </g>
    </g>
    <g id="LineCollection_15">
     <path d="M 131.758131 356.787127 
L 149.758131 356.787127 
" style="fill:none;stroke:#e0a458;stroke-width:1.5;"/>
    </g>
    <g id="LineCollection_16">
     <path d="M 140.758131 361 
L 140.758131 347.787127 
" style="fill:none;stroke:#e0a458;stroke-width:1.5;"/>
    </g>
    <g id="line2d_27">
     <path d="M 122.758131 356.787127 
L 158.758131 356.787127 
" style="fill:none;stroke:#e0a458;stroke-linecap:square;stroke-width:1.5;"/>
    </g>
    <g id="line2d_28"/>
    <g id="text_7">
     <!-- NP $\frac{g}{f}(\beta)$ err. -->
     <g transform="translate(173.158131 363.087127)scale(0.18 -0.18)">
      <use transform="scale(0.996264)" xlink:href="#Nimbus_Sans_L_Regular-78"/>
      <use transform="translate(71.929985 0)scale(0.996264)" xlink:href="#Nimbus_Sans_L_Regular-80"/>
      <use transform="translate(170.22287 44.444174)scale(0.697382)" xlink:href="#CMMI12-103"/>
      <use transform="translate(167.270699 -34.355253)scale(0.697382)" xlink:href="#CMMI12-102"/>
      <use transform="translate(209.570236 0)scale(0.996264)" xlink:href="#CMR17-40"/>
      <use transform="translate(244.851004 0)scale(0.996264)" xlink:href="#CMMI12-12"/>
      <use transform="translate(305.44502 0)scale(0.996264)" xlink:href="#CMR17-41"/>
      <use transform="translate(368.420957 0)scale(0.996264)" xlink:href="#Nimbus_Sans_L_Regular-101"/>
      <use transform="translate(423.812634 0)scale(0.996264)" xlink:href="#Nimbus_Sans_L_Regular-114"/>
      <use transform="translate(456.987864 0)scale(0.996264)" xlink:href="#Nimbus_Sans_L_Regular-114"/>
      <use transform="translate(485.181743 0)scale(0.996264)" xlink:href="#Nimbus_Sans_L_Regular-46"/>
      <path d="M 167.270699 22.914133 
L 208.374723 22.914133 
L 208.374723 26.899083 
L 167.270699 26.899083 
L 167.270699 22.914133 
z
"/>
     </g>
    </g>
    <g id="LineCollection_17">
     <path d="M 312.436515 325.728945 
L 330.436515 325.728945 
" style="fill:none;stroke:#c04abc;stroke-width:1.5;"/>
    </g>
    <g id="LineCollection_18">
     <path d="M 321.436515 334.728945 
L 321.436515 316.728945 
" style="fill:none;stroke:#c04abc;stroke-width:1.5;"/>
    </g>
    <g id="line2d_29">
     <path d="M 303.436515 325.728945 
L 339.436515 325.728945 
" style="fill:none;stroke:#c04abc;stroke-linecap:square;stroke-width:1.5;"/>
    </g>
    <g id="line2d_30"/>
    <g id="text_8">
     <!-- NP $\frac{e}{f}(\beta)$ err. -->
     <g transform="translate(353.836515 332.028945)scale(0.18 -0.18)">
      <use transform="scale(0.996264)" xlink:href="#Nimbus_Sans_L_Regular-78"/>
      <use transform="translate(71.929985 0)scale(0.996264)" xlink:href="#Nimbus_Sans_L_Regular-80"/>
      <use transform="translate(171.99859 39.226102)scale(0.697382)" xlink:href="#CMMI12-101"/>
      <use transform="translate(167.270699 -34.355253)scale(0.697382)" xlink:href="#CMMI12-102"/>
      <use transform="translate(209.570236 0)scale(0.996264)" xlink:href="#CMR17-40"/>
      <use transform="translate(244.851004 0)scale(0.996264)" xlink:href="#CMMI12-12"/>
      <use transform="translate(305.44502 0)scale(0.996264)" xlink:href="#CMR17-41"/>
      <use transform="translate(368.420957 0)scale(0.996264)" xlink:href="#Nimbus_Sans_L_Regular-101"/>
      <use transform="translate(423.812634 0)scale(0.996264)" xlink:href="#Nimbus_Sans_L_Regular-114"/>
      <use transform="translate(456.987864 0)scale(0.996264)" xlink:href="#Nimbus_Sans_L_Regular-114"/>
      <use transform="translate(485.181743 0)scale(0.996264)" xlink:href="#Nimbus_Sans_L_Regular-46"/>
      <path d="M 167.270699 22.914133 
L 208.374723 22.914133 
L 208.374723 26.899083 
L 167.270699 26.899083 
L 167.270699 22.914133 
z
"/>
     </g>
    </g>
    <g id="LineCollection_19">
     <path d="M 312.436515 359.131652 
L 330.436515 359.131652 
" style="fill:none;stroke:#094d92;stroke-width:1.5;"/>
    </g>
    <g id="LineCollection_20">
     <path d="M 321.436515 361 
L 321.436515 350.131652 
" style="fill:none;stroke:#094d92;stroke-width:1.5;"/>
    </g>
    <g id="line2d_31">
     <path d="M 303.436515 359.131652 
L 339.436515 359.131652 
" style="fill:none;stroke:#094d92;stroke-linecap:square;stroke-width:1.5;"/>
    </g>
    <g id="line2d_32"/>
    <g id="text_9">
     <!-- RP $\frac{b}{f}(\beta)$ mit $f_{nom}$ err. -->
     <defs>
      <path d="M 18.59375 31.796875 
L 42.59375 31.796875 
C 50.90625 31.796875 54.59375 27.734375 54.59375 18.609375 
L 54.5 12.03125 
C 54.5 7.46875 55.296875 3 56.59375 0 
L 67.90625 0 
L 67.90625 2.296875 
C 64.40625 4.734375 63.703125 7.359375 63.5 17.203125 
C 63.40625 29.359375 61.5 32.984375 53.59375 36.390625 
C 61.796875 40.390625 65.09375 45.421875 65.09375 53.625 
C 65.09375 66.09375 57.203125 73 42.90625 73 
L 9.296875 73 
L 9.296875 0 
L 18.59375 0 
z
M 18.59375 40 
L 18.59375 64.796875 
L 41.09375 64.796875 
C 46.296875 64.796875 49.296875 64 51.59375 62.03125 
C 54.09375 59.953125 55.40625 56.6875 55.40625 52.34375 
C 55.40625 43.84375 51 40 41.09375 40 
z
" id="Nimbus_Sans_L_Regular-82"/>
      <path d="M 7 52 
L 7 0 
L 15.40625 0 
L 15.40625 32.640625 
C 15.40625 40.578125 20.90625 46.6875 27.703125 46.6875 
C 33.90625 46.6875 37.40625 42.875 37.40625 36.171875 
L 37.40625 0 
L 45.796875 0 
L 45.796875 32.953125 
C 45.796875 40.578125 51.296875 46.6875 58.09375 46.6875 
C 64.203125 46.6875 67.796875 42.78125 67.796875 36.171875 
L 67.796875 0 
L 76.203125 0 
L 76.203125 39.375 
C 76.203125 48.796875 70.796875 54 61 54 
C 54 54 49.796875 51.890625 44.90625 45.984375 
C 41.796875 51.59375 37.59375 54 30.796875 54 
C 23.796875 54 19.203125 51.390625 14.703125 45.09375 
L 14.703125 52 
z
" id="Nimbus_Sans_L_Regular-109"/>
     </defs>
     <g transform="translate(353.836515 365.431652)scale(0.18 -0.18)">
      <use transform="scale(0.996264)" xlink:href="#Nimbus_Sans_L_Regular-82"/>
      <use transform="translate(71.929985 0)scale(0.996264)" xlink:href="#Nimbus_Sans_L_Regular-80"/>
      <use transform="translate(173.306217 39.226102)scale(0.697382)" xlink:href="#CMMI12-98"/>
      <use transform="translate(167.270699 -34.355253)scale(0.697382)" xlink:href="#CMMI12-102"/>
      <use transform="translate(209.570236 0)scale(0.996264)" xlink:href="#CMR17-40"/>
      <use transform="translate(244.851004 0)scale(0.996264)" xlink:href="#CMMI12-12"/>
      <use transform="translate(305.44502 0)scale(0.996264)" xlink:href="#CMR17-41"/>
      <use transform="translate(368.420957 0)scale(0.996264)" xlink:href="#Nimbus_Sans_L_Regular-109"/>
      <use transform="translate(451.409388 0)scale(0.996264)" xlink:href="#Nimbus_Sans_L_Regular-105"/>
      <use transform="translate(473.526172 0)scale(0.996264)" xlink:href="#Nimbus_Sans_L_Regular-116"/>
      <use transform="translate(528.916511 0)scale(0.996264)" xlink:href="#CMMI12-102"/>
      <use transform="translate(576.999749 -14.943915)scale(0.697382)" xlink:href="#CMMI12-110"/>
      <use transform="translate(617.760592 -14.943915)scale(0.697382)" xlink:href="#CMMI12-111"/>
      <use transform="translate(650.587154 -14.943915)scale(0.697382)" xlink:href="#CMMI12-109"/>
      <use transform="translate(738.509246 0)scale(0.996264)" xlink:href="#Nimbus_Sans_L_Regular-101"/>
      <use transform="translate(793.900923 0)scale(0.996264)" xlink:href="#Nimbus_Sans_L_Regular-114"/>
      <use transform="translate(827.076153 0)scale(0.996264)" xlink:href="#Nimbus_Sans_L_Regular-114"/>
      <use transform="translate(855.270032 0)scale(0.996264)" xlink:href="#Nimbus_Sans_L_Regular-46"/>
      <path d="M 167.270699 22.914133 
L 208.374723 22.914133 
L 208.374723 26.899083 
L 167.270699 26.899083 
L 167.270699 22.914133 
z
"/>
     </g>
    </g>
    <g id="LineCollection_21">
     <path d="M 560.139192 325.728945 
L 578.139192 325.728945 
" style="fill:none;stroke:#68b684;stroke-width:1.5;"/>
    </g>
    <g id="LineCollection_22">
     <path d="M 569.139192 334.728945 
L 569.139192 316.728945 
" style="fill:none;stroke:#68b684;stroke-width:1.5;"/>
    </g>
    <g id="line2d_33">
     <path d="M 551.139192 325.728945 
L 587.139192 325.728945 
" style="fill:none;stroke:#68b684;stroke-linecap:square;stroke-width:1.5;"/>
    </g>
    <g id="line2d_34"/>
    <g id="text_10">
     <!-- RP $\frac{g}{f}(\beta)$ mit $f_{nom}$ err. -->
     <g transform="translate(601.539192 332.028945)scale(0.18 -0.18)">
      <use transform="scale(0.996264)" xlink:href="#Nimbus_Sans_L_Regular-82"/>
      <use transform="translate(71.929985 0)scale(0.996264)" xlink:href="#Nimbus_Sans_L_Regular-80"/>
      <use transform="translate(170.22287 44.444174)scale(0.697382)" xlink:href="#CMMI12-103"/>
      <use transform="translate(167.270699 -34.355253)scale(0.697382)" xlink:href="#CMMI12-102"/>
      <use transform="translate(209.570236 0)scale(0.996264)" xlink:href="#CMR17-40"/>
      <use transform="translate(244.851004 0)scale(0.996264)" xlink:href="#CMMI12-12"/>
      <use transform="translate(305.44502 0)scale(0.996264)" xlink:href="#CMR17-41"/>
      <use transform="translate(368.420957 0)scale(0.996264)" xlink:href="#Nimbus_Sans_L_Regular-109"/>
      <use transform="translate(451.409388 0)scale(0.996264)" xlink:href="#Nimbus_Sans_L_Regular-105"/>
      <use transform="translate(473.526172 0)scale(0.996264)" xlink:href="#Nimbus_Sans_L_Regular-116"/>
      <use transform="translate(528.916511 0)scale(0.996264)" xlink:href="#CMMI12-102"/>
      <use transform="translate(576.999749 -14.943915)scale(0.697382)" xlink:href="#CMMI12-110"/>
      <use transform="translate(617.760592 -14.943915)scale(0.697382)" xlink:href="#CMMI12-111"/>
      <use transform="translate(650.587154 -14.943915)scale(0.697382)" xlink:href="#CMMI12-109"/>
      <use transform="translate(738.509246 0)scale(0.996264)" xlink:href="#Nimbus_Sans_L_Regular-101"/>
      <use transform="translate(793.900923 0)scale(0.996264)" xlink:href="#Nimbus_Sans_L_Regular-114"/>
      <use transform="translate(827.076153 0)scale(0.996264)" xlink:href="#Nimbus_Sans_L_Regular-114"/>
      <use transform="translate(855.270032 0)scale(0.996264)" xlink:href="#Nimbus_Sans_L_Regular-46"/>
      <path d="M 167.270699 22.914133 
L 208.374723 22.914133 
L 208.374723 26.899083 
L 167.270699 26.899083 
L 167.270699 22.914133 
z
"/>
     </g>
    </g>
    <g id="LineCollection_23">
     <path d="M 560.139192 356.787127 
L 578.139192 356.787127 
" style="fill:none;stroke:#1c1018;stroke-width:1.5;"/>
    </g>
    <g id="LineCollection_24">
     <path d="M 569.139192 361 
L 569.139192 347.787127 
" style="fill:none;stroke:#1c1018;stroke-width:1.5;"/>
    </g>
    <g id="line2d_35">
     <path d="M 551.139192 356.787127 
L 587.139192 356.787127 
" style="fill:none;stroke:#1c1018;stroke-linecap:square;stroke-width:1.5;"/>
    </g>
    <g id="line2d_36"/>
    <g id="text_11">
     <!-- RP $\frac{e}{f}(\beta)$ mit $f_{nom}$ err. -->
     <g transform="translate(601.539192 363.087127)scale(0.18 -0.18)">
      <use transform="scale(0.996264)" xlink:href="#Nimbus_Sans_L_Regular-82"/>
      <use transform="translate(71.929985 0)scale(0.996264)" xlink:href="#Nimbus_Sans_L_Regular-80"/>
      <use transform="translate(171.99859 39.226102)scale(0.697382)" xlink:href="#CMMI12-101"/>
      <use transform="translate(167.270699 -34.355253)scale(0.697382)" xlink:href="#CMMI12-102"/>
      <use transform="translate(209.570236 0)scale(0.996264)" xlink:href="#CMR17-40"/>
      <use transform="translate(244.851004 0)scale(0.996264)" xlink:href="#CMMI12-12"/>
      <use transform="translate(305.44502 0)scale(0.996264)" xlink:href="#CMR17-41"/>
      <use transform="translate(368.420957 0)scale(0.996264)" xlink:href="#Nimbus_Sans_L_Regular-109"/>
      <use transform="translate(451.409388 0)scale(0.996264)" xlink:href="#Nimbus_Sans_L_Regular-105"/>
      <use transform="translate(473.526172 0)scale(0.996264)" xlink:href="#Nimbus_Sans_L_Regular-116"/>
      <use transform="translate(528.916511 0)scale(0.996264)" xlink:href="#CMMI12-102"/>
      <use transform="translate(576.999749 -14.943915)scale(0.697382)" xlink:href="#CMMI12-110"/>
      <use transform="translate(617.760592 -14.943915)scale(0.697382)" xlink:href="#CMMI12-111"/>
      <use transform="translate(650.587154 -14.943915)scale(0.697382)" xlink:href="#CMMI12-109"/>
      <use transform="translate(738.509246 0)scale(0.996264)" xlink:href="#Nimbus_Sans_L_Regular-101"/>
      <use transform="translate(793.900923 0)scale(0.996264)" xlink:href="#Nimbus_Sans_L_Regular-114"/>
      <use transform="translate(827.076153 0)scale(0.996264)" xlink:href="#Nimbus_Sans_L_Regular-114"/>
      <use transform="translate(855.270032 0)scale(0.996264)" xlink:href="#Nimbus_Sans_L_Regular-46"/>
      <path d="M 167.270699 22.914133 
L 208.374723 22.914133 
L 208.374723 26.899083 
L 167.270699 26.899083 
L 167.270699 22.914133 
z
"/>
     </g>
    </g>
   </g>
  </g>
 </g>
 <defs>
  <clipPath id="pda08626754">
   <rect height="244.62" width="669.6" x="108" y="43.2"/>
  </clipPath>
 </defs>
</svg>
