<?xml version="1.0" encoding="utf-8" standalone="no"?>
<!DOCTYPE svg PUBLIC "-//W3C//DTD SVG 1.1//EN"
  "http://www.w3.org/Graphics/SVG/1.1/DTD/svg11.dtd">
<!-- Created with matplotlib (https://matplotlib.org/) -->
<svg height="720pt" version="1.1" viewBox="0 0 864 720" width="864pt" xmlns="http://www.w3.org/2000/svg" xmlns:xlink="http://www.w3.org/1999/xlink">
 <defs>
  <style type="text/css">
*{stroke-linecap:butt;stroke-linejoin:round;}
  </style>
 </defs>
 <g id="figure_1">
  <g id="patch_1">
   <path d="M 0 720 
L 864 720 
L 864 0 
L 0 0 
z
" style="fill:#ffffff;"/>
  </g>
  <g id="axes_1">
   <g id="patch_2">
    <path d="M 108 333.490909 
L 777.6 333.490909 
L 777.6 86.4 
L 108 86.4 
z
" style="fill:#ffffff;"/>
   </g>
   <g id="matplotlib.axis_1">
    <g id="xtick_1">
     <g id="line2d_1">
      <path clip-path="url(#p5dcea5f99d)" d="M 138.436364 333.490909 
L 138.436364 86.4 
" style="fill:none;stroke:#b0b0b0;stroke-linecap:square;stroke-width:0.8;"/>
     </g>
     <g id="line2d_2">
      <defs>
       <path d="M 0 0 
L 0 3.5 
" id="m31c6c9abc5" style="stroke:#000000;stroke-width:0.8;"/>
      </defs>
      <g>
       <use style="stroke:#000000;stroke-width:0.8;" x="138.436364" xlink:href="#m31c6c9abc5" y="333.490909"/>
      </g>
     </g>
    </g>
    <g id="xtick_2">
     <g id="line2d_3">
      <path clip-path="url(#p5dcea5f99d)" d="M 245.983868 333.490909 
L 245.983868 86.4 
" style="fill:none;stroke:#b0b0b0;stroke-linecap:square;stroke-width:0.8;"/>
     </g>
     <g id="line2d_4">
      <g>
       <use style="stroke:#000000;stroke-width:0.8;" x="245.983868" xlink:href="#m31c6c9abc5" y="333.490909"/>
      </g>
     </g>
    </g>
    <g id="xtick_3">
     <g id="line2d_5">
      <path clip-path="url(#p5dcea5f99d)" d="M 353.531372 333.490909 
L 353.531372 86.4 
" style="fill:none;stroke:#b0b0b0;stroke-linecap:square;stroke-width:0.8;"/>
     </g>
     <g id="line2d_6">
      <g>
       <use style="stroke:#000000;stroke-width:0.8;" x="353.531372" xlink:href="#m31c6c9abc5" y="333.490909"/>
      </g>
     </g>
    </g>
    <g id="xtick_4">
     <g id="line2d_7">
      <path clip-path="url(#p5dcea5f99d)" d="M 461.078876 333.490909 
L 461.078876 86.4 
" style="fill:none;stroke:#b0b0b0;stroke-linecap:square;stroke-width:0.8;"/>
     </g>
     <g id="line2d_8">
      <g>
       <use style="stroke:#000000;stroke-width:0.8;" x="461.078876" xlink:href="#m31c6c9abc5" y="333.490909"/>
      </g>
     </g>
    </g>
    <g id="xtick_5">
     <g id="line2d_9">
      <path clip-path="url(#p5dcea5f99d)" d="M 568.62638 333.490909 
L 568.62638 86.4 
" style="fill:none;stroke:#b0b0b0;stroke-linecap:square;stroke-width:0.8;"/>
     </g>
     <g id="line2d_10">
      <g>
       <use style="stroke:#000000;stroke-width:0.8;" x="568.62638" xlink:href="#m31c6c9abc5" y="333.490909"/>
      </g>
     </g>
    </g>
    <g id="xtick_6">
     <g id="line2d_11">
      <path clip-path="url(#p5dcea5f99d)" d="M 676.173884 333.490909 
L 676.173884 86.4 
" style="fill:none;stroke:#b0b0b0;stroke-linecap:square;stroke-width:0.8;"/>
     </g>
     <g id="line2d_12">
      <g>
       <use style="stroke:#000000;stroke-width:0.8;" x="676.173884" xlink:href="#m31c6c9abc5" y="333.490909"/>
      </g>
     </g>
    </g>
    <g id="text_1">
     <!-- $\beta$ -->
     <defs>
      <path d="M 56.59375 58.421875 
C 56.59375 64.546875 51.5 71 42.40625 71 
C 29.5 71 21.296875 54.84375 18.703125 44.21875 
L 2.90625 -18 
C 2.703125 -18.8125 3.296875 -19 3.796875 -19 
C 4.5 -19 5 -18.90625 5.09375 -18.40625 
L 12.09375 9.25 
C 13.09375 3.609375 18.59375 -1 24.5 -1 
C 38.796875 -1 52.296875 10.265625 52.296875 25.28125 
C 52.296875 29.109375 51.40625 32.9375 49.296875 36.15625 
C 48.09375 38.078125 46.59375 39.484375 45 40.609375 
C 52.203125 44.109375 56.59375 50.34375 56.59375 58.421875 
z
M 39.203125 40.703125 
C 37.59375 40.171875 36 40 34.09375 40 
C 32.703125 40 31.40625 39.890625 29.59375 40.4375 
C 30.59375 41.046875 32.09375 41.234375 34.203125 41.234375 
C 36 41.234375 37.796875 41.046875 39.203125 40.703125 
z
M 51.40625 59.34375 
C 51.40625 53.71875 48.703125 45.546875 42.203125 41.9375 
C 40.296875 42.546875 37.703125 43 35.5 43 
C 33.40625 43 27.40625 43.203125 27.40625 40.34375 
C 27.40625 37.671875 32.90625 37.96875 34.59375 37.96875 
C 37.203125 37.96875 39.5 38.578125 41.90625 39.28125 
C 45.09375 36.671875 46.5 33.234375 46.5 28.203125 
C 46.5 22.359375 44.90625 17.625 43 13.28125 
C 39.703125 5.828125 31.90625 1 25 1 
C 17.703125 1 13.90625 6.84375 13.90625 13.6875 
C 13.90625 14.59375 13.90625 15.90625 14.296875 17.421875 
L 20.796875 43.5 
C 24.09375 56.890625 32.5 68.953125 42.203125 68.953125 
C 49.40625 68.953125 51.40625 63.84375 51.40625 59.34375 
z
" id="CMMI12-12"/>
     </defs>
     <g transform="translate(437.843634 350.267886)scale(0.18 -0.18)">
      <use transform="scale(0.996264)" xlink:href="#CMMI12-12"/>
     </g>
    </g>
   </g>
   <g id="matplotlib.axis_2">
    <g id="ytick_1">
     <g id="line2d_13">
      <path clip-path="url(#p5dcea5f99d)" d="M 108 283.75183 
L 777.6 283.75183 
" style="fill:none;stroke:#b0b0b0;stroke-linecap:square;stroke-width:0.8;"/>
     </g>
     <g id="line2d_14">
      <defs>
       <path d="M 0 0 
L -3.5 0 
" id="mff9c687987" style="stroke:#000000;stroke-width:0.8;"/>
      </defs>
      <g>
       <use style="stroke:#000000;stroke-width:0.8;" x="108" xlink:href="#mff9c687987" y="283.75183"/>
      </g>
     </g>
     <g id="text_2">
      <!-- $\mathdefault{2}$ -->
      <defs>
       <path d="M 41.703125 15.46875 
L 39.90625 15.46875 
C 38.90625 8.390625 38.09375 7.1875 37.703125 6.59375 
C 37.203125 5.796875 30 5.796875 28.59375 5.796875 
L 9.40625 5.796875 
C 13 9.6875 20 16.765625 28.5 24.9375 
C 34.59375 30.71875 41.703125 37.5 41.703125 47.390625 
C 41.703125 59.1875 32.296875 66 21.796875 66 
C 10.796875 66 4.09375 56.296875 4.09375 47.296875 
C 4.09375 43.390625 7 42.890625 8.203125 42.890625 
C 9.203125 42.890625 12.203125 43.484375 12.203125 46.984375 
C 12.203125 50.09375 9.59375 51 8.203125 51 
C 7.59375 51 7 50.890625 6.59375 50.6875 
C 8.5 59.1875 14.296875 63.390625 20.40625 63.390625 
C 29.09375 63.390625 34.796875 56.5 34.796875 47.390625 
C 34.796875 38.703125 29.703125 31.21875 24 24.734375 
L 4.09375 2.296875 
L 4.09375 0 
L 39.296875 0 
z
" id="CMR17-50"/>
      </defs>
      <g transform="translate(92.775714 290.140318)scale(0.18 -0.18)">
       <use transform="scale(0.996264)" xlink:href="#CMR17-50"/>
      </g>
     </g>
    </g>
    <g id="ytick_2">
     <g id="line2d_15">
      <path clip-path="url(#p5dcea5f99d)" d="M 108 219.572373 
L 777.6 219.572373 
" style="fill:none;stroke:#b0b0b0;stroke-linecap:square;stroke-width:0.8;"/>
     </g>
     <g id="line2d_16">
      <g>
       <use style="stroke:#000000;stroke-width:0.8;" x="108" xlink:href="#mff9c687987" y="219.572373"/>
      </g>
     </g>
     <g id="text_3">
      <!-- $\mathdefault{3}$ -->
      <defs>
       <path d="M 22.09375 34 
C 31 34 34.90625 26.140625 34.90625 17.09375 
C 34.90625 5.03125 28.5 0.390625 22.703125 0.390625 
C 17.40625 0.390625 8.796875 3.015625 6.09375 10.796875 
C 6.59375 10.59375 7.09375 10.59375 7.59375 10.59375 
C 10 10.59375 11.796875 12.1875 11.796875 14.796875 
C 11.796875 17.6875 9.59375 19 7.59375 19 
C 5.90625 19 3.296875 18.1875 3.296875 14.484375 
C 3.296875 5.234375 12.296875 -2 22.90625 -2 
C 34 -2 42.5 6.75 42.5 16.984375 
C 42.5 26.84375 34.5 34 25 35.09375 
C 32.59375 36.671875 39.90625 43.375 39.90625 52.390625 
C 39.90625 60.25 32 66 23 66 
C 13.90625 66 5.90625 60.34375 5.90625 52.296875 
C 5.90625 48.796875 8.5 48.1875 9.796875 48.1875 
C 11.90625 48.1875 13.703125 49.484375 13.703125 52.09375 
C 13.703125 54.6875 11.90625 56 9.796875 56 
C 9.40625 56 8.90625 56 8.5 55.796875 
C 11.40625 62.484375 19.296875 63.6875 22.796875 63.6875 
C 26.296875 63.6875 32.90625 61.96875 32.90625 52.296875 
C 32.90625 49.484375 32.5 44.546875 29.09375 40.21875 
C 26.09375 36.390625 22.703125 36.1875 19.40625 35.890625 
C 18.90625 35.890625 16.59375 35.6875 16.203125 35.6875 
C 15.5 35.59375 15.09375 35.5 15.09375 34.796875 
C 15.09375 34.09375 15.203125 34 17.203125 34 
z
" id="CMR17-51"/>
      </defs>
      <g transform="translate(92.775714 225.960861)scale(0.18 -0.18)">
       <use transform="scale(0.996264)" xlink:href="#CMR17-51"/>
      </g>
     </g>
    </g>
    <g id="ytick_3">
     <g id="line2d_17">
      <path clip-path="url(#p5dcea5f99d)" d="M 108 155.392916 
L 777.6 155.392916 
" style="fill:none;stroke:#b0b0b0;stroke-linecap:square;stroke-width:0.8;"/>
     </g>
     <g id="line2d_18">
      <g>
       <use style="stroke:#000000;stroke-width:0.8;" x="108" xlink:href="#mff9c687987" y="155.392916"/>
      </g>
     </g>
     <g id="text_4">
      <!-- $\mathdefault{4}$ -->
      <defs>
       <path d="M 33.59375 64.796875 
C 33.59375 66.890625 33.5 67 31.703125 67 
L 2 19.59375 
L 2 17 
L 27.796875 17 
L 27.796875 7.1875 
C 27.796875 3.59375 27.59375 2.59375 20.59375 2.59375 
L 18.703125 2.59375 
L 18.703125 0 
C 21.90625 0.1875 27.296875 0.1875 30.703125 0.1875 
C 34.09375 0.1875 39.5 0.1875 42.703125 0 
L 42.703125 2.59375 
L 40.796875 2.59375 
C 33.796875 2.59375 33.59375 3.59375 33.59375 7.1875 
L 33.59375 17 
L 43.796875 17 
L 43.796875 19.59375 
L 33.59375 19.59375 
z
M 28.09375 58.171875 
L 28.09375 19.59375 
L 4 19.59375 
z
" id="CMR17-52"/>
      </defs>
      <g transform="translate(92.775714 161.781404)scale(0.18 -0.18)">
       <use transform="scale(0.996264)" xlink:href="#CMR17-52"/>
      </g>
     </g>
    </g>
    <g id="ytick_4">
     <g id="line2d_19">
      <path clip-path="url(#p5dcea5f99d)" d="M 108 91.213459 
L 777.6 91.213459 
" style="fill:none;stroke:#b0b0b0;stroke-linecap:square;stroke-width:0.8;"/>
     </g>
     <g id="line2d_20">
      <g>
       <use style="stroke:#000000;stroke-width:0.8;" x="108" xlink:href="#mff9c687987" y="91.213459"/>
      </g>
     </g>
     <g id="text_5">
      <!-- $\mathdefault{5}$ -->
      <defs>
       <path d="M 11.40625 58.59375 
C 12.40625 58.1875 16.5 56.890625 20.703125 56.890625 
C 30 56.890625 35.09375 61.890625 38 64.6875 
C 38 65.484375 38 66 37.40625 66 
C 37.296875 66 37.09375 66 36.296875 65.59375 
C 32.796875 64.09375 28.703125 63 23.703125 63 
C 20.703125 63 16.203125 63.359375 11.296875 65.484375 
C 10.203125 66 10 66 9.90625 66 
C 9.40625 66 9.296875 65.890625 9.296875 63.90625 
L 9.296875 34.859375 
C 9.296875 33.015625 9.296875 32.5 10.296875 32.5 
C 10.796875 32.5 11 32.703125 11.5 33.421875 
C 14.703125 38.046875 19.09375 40 24.09375 40 
C 27.59375 40 35.09375 37.734375 35.09375 20.203125 
C 35.09375 16.984375 35.09375 11.1875 32.09375 6.59375 
C 29.59375 2.484375 25.703125 0.390625 21.40625 0.390625 
C 14.796875 0.390625 8.09375 4.984375 6.296875 12.6875 
C 6.703125 12.59375 7.5 12.390625 7.90625 12.390625 
C 9.203125 12.390625 11.703125 13.09375 11.703125 16.1875 
C 11.703125 18.890625 9.796875 20 7.90625 20 
C 5.59375 20 4.09375 18.59375 4.09375 15.796875 
C 4.09375 7.09375 11 -2 21.59375 -2 
C 31.90625 -2 41.703125 6.890625 41.703125 19.796875 
C 41.703125 32.09375 33.90625 41.59375 24.203125 41.59375 
C 19.09375 41.59375 14.796875 39.6875 11.40625 36 
z
" id="CMR17-53"/>
      </defs>
      <g transform="translate(92.775714 97.601948)scale(0.18 -0.18)">
       <use transform="scale(0.996264)" xlink:href="#CMR17-53"/>
      </g>
     </g>
    </g>
    <g id="text_6">
     <!-- $\frac{b}{f}(\beta), \frac{g}{f}(\beta), \frac{e}{f}(\beta)$ -->
     <defs>
      <path d="M 23.09375 66.484375 
C 23.203125 66.890625 23.40625 67.484375 23.40625 67.984375 
C 23.40625 69 22.40625 69 22.203125 69 
C 22.09375 69 18.5 68.6875 16.703125 68.484375 
C 15 68.390625 13.5 68.1875 11.703125 68.09375 
C 9.296875 67.890625 8.59375 67.796875 8.59375 65.984375 
C 8.59375 64.984375 9.59375 64.984375 10.59375 64.984375 
C 15.703125 64.984375 15.703125 64.109375 15.703125 63.125 
C 15.703125 62.421875 14.90625 59.5625 14.5 57.796875 
L 12.09375 48.328125 
C 11.09375 44.390625 5.40625 21.75 5 19.953125 
C 4.5 17.453125 4.5 15.75 4.5 14.453125 
C 4.5 4.28125 10.203125 -1 16.703125 -1 
C 28.296875 -1 40.296875 13.859375 40.296875 28.328125 
C 40.296875 37.5 35.09375 44 27.59375 44 
C 22.40625 44 17.703125 39.703125 15.796875 37.703125 
z
M 16.796875 1 
C 13.59375 1 10.09375 3.390625 10.09375 11.171875 
C 10.09375 14.453125 10.40625 16.359375 12.203125 23.34375 
C 12.5 24.640625 14.09375 31.015625 14.5 32.3125 
C 14.703125 33.109375 20.59375 41.984375 27.40625 41.984375 
C 31.796875 41.984375 33.796875 37.609375 33.796875 32.421875 
C 33.796875 27.625 31 16.359375 28.5 11.171875 
C 26 5.78125 21.40625 1 16.796875 1 
z
" id="CMMI12-98"/>
      <path d="M 44.59375 40.09375 
C 46.59375 40.09375 47.40625 40.09375 47.40625 41.984375 
C 47.40625 43 46.59375 43 44.796875 43 
L 36.703125 43 
C 38.59375 53.09375 40 60.09375 40.796875 63.296875 
C 41.40625 65.6875 43.5 67.984375 46.09375 67.984375 
C 48.203125 67.984375 50.296875 67.09375 51.296875 66.1875 
C 47.40625 65.796875 46.203125 62.890625 46.203125 61.1875 
C 46.203125 59.1875 47.703125 58 49.59375 58 
C 51.59375 58 54.59375 59.6875 54.59375 63.5 
C 54.59375 67.6875 50.40625 70 46 70 
C 41.703125 70 37.5 66.796875 35.5 62.890625 
C 33.703125 59.390625 32.703125 55.828125 30.40625 43 
L 23.703125 43 
C 21.796875 43 20.796875 43 20.796875 41.1875 
C 20.796875 40.09375 21.40625 40.09375 23.40625 40.09375 
L 29.796875 40.09375 
C 28 30.890625 23.90625 8.515625 21.59375 -2.0625 
C 19.90625 -10.703125 18.40625 -18 13.40625 -18 
C 13.09375 -18 10.203125 -18 8.40625 -16.109375 
C 13.5 -15.703125 13.5 -11.3125 13.5 -11.203125 
C 13.5 -9.203125 12 -8 10.09375 -8 
C 8.09375 -8 5.09375 -9.703125 5.09375 -13.515625 
C 5.09375 -17.8125 9.5 -20 13.40625 -20 
C 23.59375 -20 27.796875 -1.765625 28.90625 3.171875 
C 30.703125 10.796875 35.59375 37.125 36.09375 40.09375 
z
" id="CMMI12-102"/>
      <path d="M 30.59375 -24.40625 
C 30.59375 -24.3125 30.59375 -24.109375 30.296875 -23.8125 
C 25.703125 -19.109375 13.40625 -6.296875 13.40625 24.9375 
C 13.40625 56.171875 25.5 68.875 30.40625 73.890625 
C 30.40625 73.984375 30.59375 74.1875 30.59375 74.484375 
C 30.59375 74.796875 30.296875 75 29.90625 75 
C 28.796875 75 20.296875 67.578125 15.40625 56.5625 
C 10.40625 45.453125 9 34.65625 9 25.046875 
C 9 17.828125 9.703125 5.625 15.703125 -7.296875 
C 20.5 -17.703125 28.703125 -25 29.90625 -25 
C 30.40625 -25 30.59375 -24.8125 30.59375 -24.40625 
z
" id="CMR17-40"/>
      <path d="M 26.296875 24.9375 
C 26.296875 32.140625 25.59375 44.359375 19.59375 57.265625 
C 14.796875 67.6875 6.59375 75 5.40625 75 
C 5.09375 75 4.703125 74.890625 4.703125 74.390625 
C 4.703125 74.1875 4.796875 74.09375 4.90625 73.890625 
C 9.703125 68.875 21.90625 56.171875 21.90625 25.046875 
C 21.90625 -6.1875 9.796875 -18.90625 4.90625 -23.90625 
C 4.796875 -24.109375 4.703125 -24.203125 4.703125 -24.40625 
C 4.703125 -24.90625 5.09375 -25 5.40625 -25 
C 6.5 -25 15 -17.609375 19.90625 -6.59375 
C 24.90625 4.515625 26.296875 15.328125 26.296875 24.9375 
z
" id="CMR17-41"/>
      <path d="M 19.5 -0.40625 
C 19.5 5.390625 17.59375 9.6875 13.5 9.6875 
C 10.296875 9.6875 8.703125 7.09375 8.703125 4.890625 
C 8.703125 2.6875 10.203125 0 13.59375 0 
C 14.90625 0 16 0.390625 16.90625 1.296875 
C 17.09375 1.5 17.203125 1.5 17.296875 1.5 
C 17.5 1.5 17.5 0.09375 17.5 -0.40625 
C 17.5 -3.640625 16.90625 -10.03125 11.09375 -16.421875 
C 10 -17.609375 10 -17.8125 10 -18 
C 10 -18.5 10.5 -19 11 -19 
C 11.796875 -19 19.5 -11.703125 19.5 -0.40625 
z
" id="CMMI12-59"/>
      <path d="M 33.796875 12.671875 
C 33.40625 11.0625 33.203125 10.671875 31.90625 9.171875 
C 27.796875 3.890625 23.59375 2 20.5 2 
C 17.203125 2 14.09375 4.578125 14.09375 11.46875 
C 14.09375 16.75 17.09375 27.921875 19.296875 32.421875 
C 22.203125 38 26.703125 41.984375 30.90625 41.984375 
C 37.5 41.984375 38.796875 33.8125 38.796875 33.21875 
L 38.5 31.8125 
z
M 40 37.40625 
C 38.703125 40.296875 35.90625 44 30.90625 44 
C 20 44 7.59375 30.328125 7.59375 15.453125 
C 7.59375 5.078125 13.90625 0 20.296875 0 
C 25.59375 0 30.296875 4.1875 32.09375 6.1875 
L 29.90625 -2.75 
C 28.5 -8.125 27.90625 -10.578125 24.296875 -14 
C 20.203125 -18 16.40625 -18 14.203125 -18 
C 11.203125 -18 8.703125 -17.8125 6.203125 -17.03125 
C 9.40625 -16.15625 10.203125 -13.40625 10.203125 -12.328125 
C 10.203125 -10.765625 9 -9.203125 6.796875 -9.203125 
C 4.40625 -9.203125 1.796875 -11.15625 1.796875 -14.390625 
C 1.796875 -18.40625 5.90625 -20 14.40625 -20 
C 27.296875 -20 34 -11.84375 35.296875 -6.5625 
L 46.40625 37.90625 
C 46.703125 39.09375 46.703125 39.296875 46.703125 39.5 
C 46.703125 40.890625 45.59375 42 44.09375 42 
C 41.703125 42 40.296875 40 40 37.3125 
z
" id="CMMI12-103"/>
      <path d="M 17.90625 23 
C 20.59375 23 27.40625 23.1875 32.203125 25 
C 39.796875 27.90625 40.5 33.75 40.5 35.546875 
C 40.5 39.984375 36.703125 44 30.09375 44 
C 19.59375 44 4.5 34.453125 4.5 16.65625 
C 4.5 6.25 10.5 -1 19.59375 -1 
C 33.203125 -1 41.796875 9.515625 41.796875 10.796875 
C 41.796875 11.390625 41.203125 11.890625 40.796875 11.890625 
C 40.5 11.890625 40.40625 11.796875 39.5 10.90625 
C 33.09375 2.484375 23.59375 1 19.796875 1 
C 14.09375 1 11.09375 5.453125 11.09375 12.78125 
C 11.09375 14.171875 11.09375 16.65625 12.59375 23 
z
M 13.09375 25 
C 17.40625 40.484375 26.90625 41.984375 30.09375 41.984375 
C 34.5 41.984375 37.5 39.375 37.5 35.546875 
C 37.5 25 21.5 25 17.296875 25 
z
" id="CMMI12-101"/>
     </defs>
     <g transform="translate(80.150952 267.310543)rotate(-90)scale(0.18 -0.18)">
      <use transform="translate(6.035518 39.226102)scale(0.697382)" xlink:href="#CMMI12-98"/>
      <use transform="translate(0 -34.355253)scale(0.697382)" xlink:href="#CMMI12-102"/>
      <use transform="translate(42.299537 0)scale(0.996264)" xlink:href="#CMR17-40"/>
      <use transform="translate(77.580305 0)scale(0.996264)" xlink:href="#CMMI12-12"/>
      <use transform="translate(138.174321 0)scale(0.996264)" xlink:href="#CMR17-41"/>
      <use transform="translate(173.455088 0)scale(0.996264)" xlink:href="#CMMI12-59"/>
      <use transform="translate(221.304355 44.444174)scale(0.697382)" xlink:href="#CMMI12-103"/>
      <use transform="translate(218.352185 -34.355253)scale(0.697382)" xlink:href="#CMMI12-102"/>
      <use transform="translate(260.651722 0)scale(0.996264)" xlink:href="#CMR17-40"/>
      <use transform="translate(295.932489 0)scale(0.996264)" xlink:href="#CMMI12-12"/>
      <use transform="translate(356.526505 0)scale(0.996264)" xlink:href="#CMR17-41"/>
      <use transform="translate(391.807273 0)scale(0.996264)" xlink:href="#CMMI12-59"/>
      <use transform="translate(441.43226 39.226102)scale(0.697382)" xlink:href="#CMMI12-101"/>
      <use transform="translate(436.704369 -34.355253)scale(0.697382)" xlink:href="#CMMI12-102"/>
      <use transform="translate(479.003906 0)scale(0.996264)" xlink:href="#CMR17-40"/>
      <use transform="translate(514.284674 0)scale(0.996264)" xlink:href="#CMMI12-12"/>
      <use transform="translate(574.87869 0)scale(0.996264)" xlink:href="#CMR17-41"/>
      <path d="M 0 22.914133 
L 41.104023 22.914133 
L 41.104023 26.899083 
L 0 26.899083 
L 0 22.914133 
z
"/>
      <path d="M 218.352185 22.914133 
L 259.456208 22.914133 
L 259.456208 26.899083 
L 218.352185 26.899083 
L 218.352185 22.914133 
z
"/>
      <path d="M 436.704369 22.914133 
L 477.808392 22.914133 
L 477.808392 26.899083 
L 436.704369 26.899083 
L 436.704369 22.914133 
z
"/>
     </g>
    </g>
   </g>
   <g id="line2d_21">
    <path clip-path="url(#p5dcea5f99d)" d="M 138.436364 322.259504 
L 144.411225 321.546399 
L 150.386086 320.833294 
L 156.360948 320.120189 
L 162.335809 319.407084 
L 168.31067 318.693979 
L 174.285532 317.980874 
L 180.260393 317.267769 
L 186.235254 316.554664 
L 192.210116 315.841558 
L 198.184977 315.128453 
L 204.159838 314.415348 
L 210.1347 313.702243 
L 216.109561 312.989138 
L 222.084422 312.276033 
L 228.059284 311.562928 
L 234.034145 310.849823 
L 240.009006 310.136718 
L 245.983868 309.423613 
L 251.958729 308.710508 
L 257.93359 307.997403 
L 263.908452 307.284298 
L 269.883313 306.571192 
L 275.858174 305.858087 
L 281.833036 305.144982 
L 287.807897 304.431877 
L 293.782758 303.718772 
L 299.75762 303.005667 
L 305.732481 302.292562 
L 311.707342 301.579457 
L 317.682204 300.866352 
L 323.657065 300.153247 
L 329.631926 299.440142 
L 335.606788 298.727037 
L 341.581649 298.013932 
L 347.55651 297.300826 
L 353.531372 296.587721 
L 359.506233 295.874616 
L 365.481094 295.161511 
L 371.455956 294.448406 
L 377.430817 293.735301 
L 383.405678 293.022196 
L 389.38054 292.309091 
L 395.355401 291.595986 
L 401.330262 290.882881 
L 407.305124 290.169776 
L 413.279985 289.456671 
L 419.254846 288.743566 
L 425.229708 288.03046 
L 431.204569 287.317355 
L 437.17943 286.60425 
L 443.154292 285.891145 
L 449.129153 285.17804 
L 455.104014 284.464935 
L 461.078876 283.75183 
L 467.053737 283.038725 
L 473.028598 282.32562 
L 479.00346 281.612515 
L 484.978321 280.89941 
L 490.953182 280.186305 
L 496.928044 279.4732 
L 502.902905 278.760094 
L 508.877766 278.046989 
L 514.852628 277.333884 
L 520.827489 276.620779 
L 526.80235 275.907674 
L 532.777212 275.194569 
L 538.752073 274.481464 
L 544.726934 273.768359 
L 550.701796 273.055254 
L 556.676657 272.342149 
L 562.651518 271.629044 
L 568.62638 270.915939 
L 574.601241 270.202834 
L 580.576102 269.489728 
L 586.550964 268.776623 
L 592.525825 268.063518 
L 598.500686 267.350413 
L 604.475548 266.637308 
L 610.450409 265.924203 
L 616.42527 265.211098 
L 622.400132 264.497993 
L 628.374993 263.784888 
L 634.349854 263.071783 
L 640.324716 262.358678 
L 646.299577 261.645573 
L 652.274438 260.932468 
L 658.2493 260.219362 
L 664.224161 259.506257 
L 670.199022 258.793152 
L 676.173884 258.080047 
L 682.148745 257.366942 
L 688.123606 256.653837 
L 694.098468 255.940732 
L 700.073329 255.227627 
L 706.04819 254.514522 
L 712.023052 253.801417 
L 717.997913 253.088312 
L 723.972774 252.375207 
L 729.947636 251.662102 
" style="fill:none;stroke:#094d92;stroke-linecap:square;stroke-width:1.5;"/>
   </g>
   <g id="line2d_22">
    <path clip-path="url(#p5dcea5f99d)" d="M 138.436364 187.482645 
L 144.411225 191.819094 
L 150.386086 195.92731 
L 156.360948 199.824848 
L 162.335809 203.527509 
L 168.31067 207.049552 
L 174.285532 210.403879 
L 180.260393 213.602191 
L 186.235254 216.655125 
L 192.210116 219.572373 
L 198.184977 222.362784 
L 204.159838 225.034455 
L 210.1347 227.594805 
L 216.109561 230.050652 
L 222.084422 232.408264 
L 228.059284 234.673422 
L 234.034145 236.851458 
L 240.009006 238.947303 
L 245.983868 240.965525 
L 251.958729 242.910357 
L 257.93359 244.785731 
L 263.908452 246.595302 
L 269.883313 248.342474 
L 275.858174 250.03042 
L 281.833036 251.662102 
L 287.807897 253.240285 
L 293.782758 254.767559 
L 299.75762 256.246348 
L 305.732481 257.678926 
L 311.707342 259.067423 
L 317.682204 260.413846 
L 323.657065 261.720076 
L 329.631926 262.987888 
L 335.606788 264.218952 
L 341.581649 265.414842 
L 347.55651 266.577046 
L 353.531372 267.706966 
L 359.506233 268.805929 
L 365.481094 269.875191 
L 371.455956 270.915939 
L 377.430817 271.929298 
L 383.405678 272.916337 
L 389.38054 273.878067 
L 395.355401 274.81545 
L 401.330262 275.729398 
L 407.305124 276.620779 
L 413.279985 277.49042 
L 419.254846 278.339105 
L 425.229708 279.167583 
L 431.204569 279.976568 
L 437.17943 280.766739 
L 443.154292 281.538745 
L 449.129153 282.293206 
L 455.104014 283.030712 
L 461.078876 283.75183 
L 467.053737 284.457099 
L 473.028598 285.147036 
L 479.00346 285.822135 
L 484.978321 286.482871 
L 490.953182 287.129696 
L 496.928044 287.763046 
L 502.902905 288.383337 
L 508.877766 288.990969 
L 514.852628 289.586326 
L 520.827489 290.169776 
L 526.80235 290.741672 
L 532.777212 291.302354 
L 538.752073 291.85215 
L 544.726934 292.391372 
L 550.701796 292.920324 
L 556.676657 293.439295 
L 562.651518 293.948566 
L 568.62638 294.448406 
L 574.601241 294.939075 
L 580.576102 295.420822 
L 586.550964 295.893889 
L 592.525825 296.358509 
L 598.500686 296.814905 
L 604.475548 297.263295 
L 610.450409 297.703886 
L 616.42527 298.136881 
L 622.400132 298.562474 
L 628.374993 298.980854 
L 634.349854 299.392202 
L 640.324716 299.796694 
L 646.299577 300.194501 
L 652.274438 300.585786 
L 658.2493 300.970709 
L 664.224161 301.349423 
L 670.199022 301.722078 
L 676.173884 302.088818 
L 682.148745 302.449782 
L 688.123606 302.805106 
L 694.098468 303.154922 
L 700.073329 303.499355 
L 706.04819 303.83853 
L 712.023052 304.172566 
L 717.997913 304.501579 
L 723.972774 304.825682 
L 729.947636 305.144982 
" style="fill:none;stroke:#68b684;stroke-linecap:square;stroke-width:1.5;"/>
   </g>
   <g id="line2d_23">
    <path clip-path="url(#p5dcea5f99d)" d="M 138.436364 97.631405 
L 144.411225 101.25475 
L 150.386086 104.64986 
L 156.360948 107.834293 
L 162.335809 110.823849 
L 168.31067 113.632787 
L 174.285532 116.274009 
L 180.260393 118.759216 
L 186.235254 121.099045 
L 192.210116 123.303188 
L 198.184977 125.380494 
L 204.159838 127.339059 
L 210.1347 129.186305 
L 216.109561 130.929046 
L 222.084422 132.573554 
L 228.059284 134.125606 
L 234.034145 135.590537 
L 240.009006 136.973277 
L 245.983868 138.278394 
L 251.958729 139.510121 
L 257.93359 140.67239 
L 263.908452 141.768856 
L 269.883313 142.802923 
L 275.858174 143.777764 
L 281.833036 144.69634 
L 287.807897 145.561418 
L 293.782758 146.375587 
L 299.75762 147.141272 
L 305.732481 147.860744 
L 311.707342 148.536137 
L 317.682204 149.169454 
L 323.657065 149.762579 
L 329.631926 150.317286 
L 335.606788 150.835245 
L 341.581649 151.31803 
L 347.55651 151.767128 
L 353.531372 152.183943 
L 359.506233 152.569802 
L 365.481094 152.925958 
L 371.455956 153.253601 
L 377.430817 153.553856 
L 383.405678 153.827789 
L 389.38054 154.076414 
L 395.355401 154.300692 
L 401.330262 154.501535 
L 407.305124 154.679811 
L 413.279985 154.836346 
L 419.254846 154.971926 
L 425.229708 155.0873 
L 431.204569 155.183179 
L 437.17943 155.260245 
L 443.154292 155.319147 
L 449.129153 155.360502 
L 455.104014 155.384904 
L 461.078876 155.392916 
L 467.053737 155.38508 
L 473.028598 155.361912 
L 479.00346 155.323906 
L 484.978321 155.271537 
L 490.953182 155.205257 
L 496.928044 155.125502 
L 502.902905 155.032688 
L 508.877766 154.927215 
L 514.852628 154.809467 
L 520.827489 154.679811 
L 526.80235 154.538602 
L 532.777212 154.38618 
L 538.752073 154.22287 
L 544.726934 154.048987 
L 550.701796 153.864834 
L 556.676657 153.6707 
L 562.651518 153.466866 
L 568.62638 153.253601 
L 574.601241 153.031164 
L 580.576102 152.799807 
L 586.550964 152.559769 
L 592.525825 152.311284 
L 598.500686 152.054575 
L 604.475548 151.789859 
L 610.450409 151.517345 
L 616.42527 151.237235 
L 622.400132 150.949723 
L 628.374993 150.654998 
L 634.349854 150.353241 
L 640.324716 150.044628 
L 646.299577 149.72933 
L 652.274438 149.40751 
L 658.2493 149.079327 
L 664.224161 148.744937 
L 670.199022 148.404486 
L 676.173884 148.058121 
L 682.148745 147.70598 
L 688.123606 147.3482 
L 694.098468 146.98491 
L 700.073329 146.616238 
L 706.04819 146.242308 
L 712.023052 145.863239 
L 717.997913 145.479147 
L 723.972774 145.090144 
L 729.947636 144.69634 
" style="fill:none;stroke:#1c1018;stroke-linecap:square;stroke-width:1.5;"/>
   </g>
   <g id="patch_3">
    <path d="M 108 333.490909 
L 108 86.4 
" style="fill:none;stroke:#000000;stroke-linecap:square;stroke-linejoin:miter;stroke-width:0.8;"/>
   </g>
   <g id="patch_4">
    <path d="M 777.6 333.490909 
L 777.6 86.4 
" style="fill:none;stroke:#000000;stroke-linecap:square;stroke-linejoin:miter;stroke-width:0.8;"/>
   </g>
   <g id="patch_5">
    <path d="M 108 333.490909 
L 777.6 333.490909 
" style="fill:none;stroke:#000000;stroke-linecap:square;stroke-linejoin:miter;stroke-width:0.8;"/>
   </g>
   <g id="patch_6">
    <path d="M 108 86.4 
L 777.6 86.4 
" style="fill:none;stroke:#000000;stroke-linecap:square;stroke-linejoin:miter;stroke-width:0.8;"/>
   </g>
   <g id="text_7">
    <!-- Erwartete Werte für $\frac{b}{f}(\beta), \frac{g}{f}(\beta), \frac{e}{f}(\beta)$ -->
    <defs>
     <path d="M 18.296875 33 
L 58 33 
L 58 41.1875 
L 18.296875 41.1875 
L 18.296875 64.796875 
L 59.5 64.796875 
L 59.5 73 
L 9 73 
L 9 0 
L 61.296875 0 
L 61.296875 8.1875 
L 18.296875 8.1875 
z
" id="Nimbus_Sans_L_Regular-69"/>
     <path d="M 6.90625 52 
L 6.90625 0 
L 15.296875 0 
L 15.296875 26.984375 
C 15.296875 34.421875 17.203125 39.28125 21.203125 42.15625 
C 23.796875 44.046875 26.296875 44.640625 32.09375 44.734375 
L 32.09375 53.1875 
C 30.703125 53.890625 30 54 28.90625 54 
C 23.5 54 19.40625 50.796875 14.59375 42.96875 
L 14.59375 52 
z
" id="Nimbus_Sans_L_Regular-114"/>
     <path d="M 55.40625 0 
L 70.796875 52 
L 61.40625 52 
L 51 11.515625 
L 40.703125 52 
L 30.5 52 
L 20.5 11.515625 
L 9.796875 52 
L 0.59375 52 
L 15.796875 0 
L 25.203125 0 
L 35.296875 40.765625 
L 45.90625 0 
z
" id="Nimbus_Sans_L_Regular-119"/>
     <path d="M 53.5 5.1875 
C 52.59375 5 52.203125 5 51.703125 5 
C 48.796875 5 47.203125 6.484375 47.203125 9.078125 
L 47.203125 39.71875 
C 47.203125 48.984375 40.40625 54 27.5 54 
C 19.90625 54 13.59375 51.796875 10.09375 47.890625 
C 7.703125 45.203125 6.703125 42.21875 6.5 37.03125 
L 14.90625 37.03125 
C 15.59375 43.40625 19.40625 46.296875 27.203125 46.296875 
C 34.703125 46.296875 38.90625 43.5 38.90625 38.53125 
L 38.90625 36.34375 
C 38.90625 32.859375 36.796875 31.359375 30.203125 30.5625 
C 18.40625 29.078125 16.59375 28.671875 13.40625 27.390625 
C 7.296875 24.890625 4.203125 20.21875 4.203125 13.453125 
C 4.203125 4 10.796875 -2 21.40625 -2 
C 28 -2 33.296875 0.296875 39.203125 5.6875 
C 39.796875 0.390625 42.40625 -2 47.796875 -2 
C 49.5 -2 50.796875 -1.8125 53.5 -1.109375 
z
M 38.90625 16.734375 
C 38.90625 13.953125 38.09375 12.265625 35.59375 9.96875 
C 32.203125 6.890625 28.09375 5.296875 23.203125 5.296875 
C 16.703125 5.296875 12.90625 8.375 12.90625 13.65625 
C 12.90625 19.125 16.59375 21.90625 25.5 23.203125 
C 34.296875 24.40625 36.09375 24.796875 38.90625 26.09375 
z
" id="Nimbus_Sans_L_Regular-97"/>
     <path d="M 25.40625 52 
L 16.796875 52 
L 16.796875 66.390625 
L 8.5 66.390625 
L 8.5 52 
L 1.40625 52 
L 1.40625 45.1875 
L 8.5 45.1875 
L 8.5 6.28125 
C 8.5 1 12.09375 -2 18.59375 -2 
C 20.59375 -2 22.59375 -1.8125 25.40625 -1.3125 
L 25.40625 5.6875 
C 24.296875 5.390625 23 5.296875 21.40625 5.296875 
C 17.796875 5.296875 16.796875 6.28125 16.796875 9.90625 
L 16.796875 45.1875 
L 25.40625 45.1875 
z
" id="Nimbus_Sans_L_Regular-116"/>
     <path d="M 51.296875 23.1875 
C 51.296875 31.21875 50.703125 36.109375 49.203125 40.078125 
C 45.796875 48.796875 37.796875 54 28 54 
C 13.40625 54 4 42.71875 4 25.296875 
C 4 8.515625 13.09375 -2 27.796875 -2 
C 39.796875 -2 48.09375 4.796875 50.203125 15.90625 
L 41.796875 15.90625 
C 39.5 9.1875 34.796875 5.6875 28.09375 5.6875 
C 22.796875 5.6875 18.296875 8.03125 15.5 12.296875 
C 13.5 15.21875 12.796875 18.140625 12.703125 23.1875 
z
M 12.90625 30 
C 13.59375 39.875 19.5 46.296875 27.90625 46.296875 
C 36.09375 46.296875 42.40625 39.359375 42.40625 30.609375 
C 42.40625 30.40625 42.40625 30.203125 42.296875 30 
z
" id="Nimbus_Sans_L_Regular-101"/>
     <path d="M 74.40625 0 
L 92.90625 73 
L 82.5 73 
L 69.09375 13.703125 
L 52.5 73 
L 42.5 73 
L 26.296875 13.703125 
L 12.59375 73 
L 2.203125 73 
L 20.90625 0 
L 31.09375 0 
L 47.40625 59.96875 
L 64.203125 0 
z
" id="Nimbus_Sans_L_Regular-87"/>
     <path d="M 25.796875 52 
L 17.09375 52 
L 17.09375 60.3125 
C 17.09375 63.859375 19.09375 65.6875 22.90625 65.6875 
C 23.59375 65.6875 23.90625 65.6875 25.796875 65.59375 
L 25.796875 72.484375 
C 23.90625 72.890625 22.796875 73 21.09375 73 
C 13.40625 73 8.796875 68.59375 8.796875 61.015625 
L 8.796875 52 
L 1.796875 52 
L 1.796875 45.1875 
L 8.796875 45.1875 
L 8.796875 0 
L 17.09375 0 
L 17.09375 45.1875 
L 25.796875 45.1875 
z
" id="Nimbus_Sans_L_Regular-102"/>
     <path d="M 13.40625 71.296875 
L 3 71.296875 
L 3 61 
L 13.40625 61 
z
M 29.59375 71.296875 
L 19.203125 71.296875 
L 19.203125 61 
L 29.59375 61 
z
" id="Nimbus_Sans_L_Regular-168"/>
     <path d="M 48.203125 0.296875 
L 48.203125 52 
L 39.90625 52 
L 39.90625 22.71875 
C 39.90625 12.1875 34.296875 5.296875 25.59375 5.296875 
C 19 5.296875 14.796875 9.234375 14.796875 15.4375 
L 14.796875 52 
L 6.5 52 
L 6.5 12.1875 
C 6.5 3.59375 13 -2 23.203125 -2 
C 30.90625 -2 35.796875 0.6875 40.703125 7.5625 
L 40.703125 0.296875 
z
" id="Nimbus_Sans_L_Regular-117"/>
    </defs>
    <g transform="translate(277.32023 80.4)scale(0.216 -0.216)">
     <use transform="scale(0.996264)" xlink:href="#Nimbus_Sans_L_Regular-69"/>
     <use transform="translate(66.450031 0)scale(0.996264)" xlink:href="#Nimbus_Sans_L_Regular-114"/>
     <use transform="translate(99.625261 0)scale(0.996264)" xlink:href="#Nimbus_Sans_L_Regular-119"/>
     <use transform="translate(170.061853 0)scale(0.996264)" xlink:href="#Nimbus_Sans_L_Regular-97"/>
     <use transform="translate(225.45353 0)scale(0.996264)" xlink:href="#Nimbus_Sans_L_Regular-114"/>
     <use transform="translate(262.612858 0)scale(0.996264)" xlink:href="#Nimbus_Sans_L_Regular-116"/>
     <use transform="translate(290.308028 0)scale(0.996264)" xlink:href="#Nimbus_Sans_L_Regular-101"/>
     <use transform="translate(345.699705 0)scale(0.996264)" xlink:href="#Nimbus_Sans_L_Regular-116"/>
     <use transform="translate(373.394874 0)scale(0.996264)" xlink:href="#Nimbus_Sans_L_Regular-101"/>
     <use transform="translate(456.481721 0)scale(0.996264)" xlink:href="#Nimbus_Sans_L_Regular-87"/>
     <use transform="translate(547.540382 0)scale(0.996264)" xlink:href="#Nimbus_Sans_L_Regular-101"/>
     <use transform="translate(602.932059 0)scale(0.996264)" xlink:href="#Nimbus_Sans_L_Regular-114"/>
     <use transform="translate(640.091387 0)scale(0.996264)" xlink:href="#Nimbus_Sans_L_Regular-116"/>
     <use transform="translate(667.786557 0)scale(0.996264)" xlink:href="#Nimbus_Sans_L_Regular-101"/>
     <use transform="translate(750.873403 0)scale(0.996264)" xlink:href="#Nimbus_Sans_L_Regular-102"/>
     <use transform="translate(789.676804 -0.249309)scale(0.996264)" xlink:href="#Nimbus_Sans_L_Regular-168"/>
     <use transform="translate(778.568573 0)scale(0.996264)" xlink:href="#Nimbus_Sans_L_Regular-117"/>
     <use transform="translate(833.96025 0)scale(0.996264)" xlink:href="#Nimbus_Sans_L_Regular-114"/>
     <use transform="translate(902.061681 39.226102)scale(0.697382)" xlink:href="#CMMI12-98"/>
     <use transform="translate(896.026163 -34.355253)scale(0.697382)" xlink:href="#CMMI12-102"/>
     <use transform="translate(938.3257 0)scale(0.996264)" xlink:href="#CMR17-40"/>
     <use transform="translate(973.606468 0)scale(0.996264)" xlink:href="#CMMI12-12"/>
     <use transform="translate(1034.200484 0)scale(0.996264)" xlink:href="#CMR17-41"/>
     <use transform="translate(1069.481251 0)scale(0.996264)" xlink:href="#CMMI12-59"/>
     <use transform="translate(1117.330518 44.444174)scale(0.697382)" xlink:href="#CMMI12-103"/>
     <use transform="translate(1114.378347 -34.355253)scale(0.697382)" xlink:href="#CMMI12-102"/>
     <use transform="translate(1156.677885 0)scale(0.996264)" xlink:href="#CMR17-40"/>
     <use transform="translate(1191.958652 0)scale(0.996264)" xlink:href="#CMMI12-12"/>
     <use transform="translate(1252.552668 0)scale(0.996264)" xlink:href="#CMR17-41"/>
     <use transform="translate(1287.833436 0)scale(0.996264)" xlink:href="#CMMI12-59"/>
     <use transform="translate(1337.458423 39.226102)scale(0.697382)" xlink:href="#CMMI12-101"/>
     <use transform="translate(1332.730532 -34.355253)scale(0.697382)" xlink:href="#CMMI12-102"/>
     <use transform="translate(1375.030069 0)scale(0.996264)" xlink:href="#CMR17-40"/>
     <use transform="translate(1410.310837 0)scale(0.996264)" xlink:href="#CMMI12-12"/>
     <use transform="translate(1470.904853 0)scale(0.996264)" xlink:href="#CMR17-41"/>
     <path d="M 896.026163 22.914133 
L 937.130186 22.914133 
L 937.130186 26.899083 
L 896.026163 26.899083 
L 896.026163 22.914133 
z
"/>
     <path d="M 1114.378347 22.914133 
L 1155.482371 22.914133 
L 1155.482371 26.899083 
L 1114.378347 26.899083 
L 1114.378347 22.914133 
z
"/>
     <path d="M 1332.730532 22.914133 
L 1373.834555 22.914133 
L 1373.834555 26.899083 
L 1332.730532 26.899083 
L 1332.730532 22.914133 
z
"/>
    </g>
   </g>
   <g id="legend_1">
    <g id="patch_7">
     <path d="M 379.007048 260.404989 
L 506.592952 260.404989 
Q 510.192952 260.404989 510.192952 256.804989 
L 510.192952 163.08592 
Q 510.192952 159.48592 506.592952 159.48592 
L 379.007048 159.48592 
Q 375.407048 159.48592 375.407048 163.08592 
L 375.407048 256.804989 
Q 375.407048 260.404989 379.007048 260.404989 
z
" style="fill:#ffffff;opacity:0.8;stroke:#cccccc;stroke-linejoin:miter;"/>
    </g>
    <g id="line2d_24">
     <path d="M 382.607048 176.163865 
L 418.607048 176.163865 
" style="fill:none;stroke:#094d92;stroke-linecap:square;stroke-width:1.5;"/>
    </g>
    <g id="line2d_25"/>
    <g id="text_8">
     <!-- $\frac{b}{f}(\beta)$ erw. -->
     <defs>
      <path d="M 19.09375 10.390625 
L 8.703125 10.390625 
L 8.703125 0 
L 19.09375 0 
z
" id="Nimbus_Sans_L_Regular-46"/>
     </defs>
     <g transform="translate(433.007048 182.463865)scale(0.18 -0.18)">
      <use transform="translate(6.035518 39.226102)scale(0.697382)" xlink:href="#CMMI12-98"/>
      <use transform="translate(0 -34.355253)scale(0.697382)" xlink:href="#CMMI12-102"/>
      <use transform="translate(42.299537 0)scale(0.996264)" xlink:href="#CMR17-40"/>
      <use transform="translate(77.580305 0)scale(0.996264)" xlink:href="#CMMI12-12"/>
      <use transform="translate(138.174321 0)scale(0.996264)" xlink:href="#CMR17-41"/>
      <use transform="translate(201.150258 0)scale(0.996264)" xlink:href="#Nimbus_Sans_L_Regular-101"/>
      <use transform="translate(256.541935 0)scale(0.996264)" xlink:href="#Nimbus_Sans_L_Regular-114"/>
      <use transform="translate(289.717165 0)scale(0.996264)" xlink:href="#Nimbus_Sans_L_Regular-119"/>
      <use transform="translate(355.669702 0)scale(0.996264)" xlink:href="#Nimbus_Sans_L_Regular-46"/>
      <path d="M 0 22.914133 
L 41.104023 22.914133 
L 41.104023 26.899083 
L 0 26.899083 
L 0 22.914133 
z
"/>
     </g>
    </g>
    <g id="line2d_26">
     <path d="M 382.607048 207.222046 
L 418.607048 207.222046 
" style="fill:none;stroke:#68b684;stroke-linecap:square;stroke-width:1.5;"/>
    </g>
    <g id="line2d_27"/>
    <g id="text_9">
     <!-- $\frac{g}{f}(\beta)$ erw. -->
     <g transform="translate(433.007048 213.522046)scale(0.18 -0.18)">
      <use transform="translate(2.952171 44.444174)scale(0.697382)" xlink:href="#CMMI12-103"/>
      <use transform="translate(0 -34.355253)scale(0.697382)" xlink:href="#CMMI12-102"/>
      <use transform="translate(42.299537 0)scale(0.996264)" xlink:href="#CMR17-40"/>
      <use transform="translate(77.580305 0)scale(0.996264)" xlink:href="#CMMI12-12"/>
      <use transform="translate(138.174321 0)scale(0.996264)" xlink:href="#CMR17-41"/>
      <use transform="translate(201.150258 0)scale(0.996264)" xlink:href="#Nimbus_Sans_L_Regular-101"/>
      <use transform="translate(256.541935 0)scale(0.996264)" xlink:href="#Nimbus_Sans_L_Regular-114"/>
      <use transform="translate(289.717165 0)scale(0.996264)" xlink:href="#Nimbus_Sans_L_Regular-119"/>
      <use transform="translate(355.669702 0)scale(0.996264)" xlink:href="#Nimbus_Sans_L_Regular-46"/>
      <path d="M 0 22.914133 
L 41.104023 22.914133 
L 41.104023 26.899083 
L 0 26.899083 
L 0 22.914133 
z
"/>
     </g>
    </g>
    <g id="line2d_28">
     <path d="M 382.607048 238.280228 
L 418.607048 238.280228 
" style="fill:none;stroke:#1c1018;stroke-linecap:square;stroke-width:1.5;"/>
    </g>
    <g id="line2d_29"/>
    <g id="text_10">
     <!-- $\frac{e}{f}(\beta)$ erw. -->
     <g transform="translate(433.007048 244.580228)scale(0.18 -0.18)">
      <use transform="translate(4.727891 39.226102)scale(0.697382)" xlink:href="#CMMI12-101"/>
      <use transform="translate(0 -34.355253)scale(0.697382)" xlink:href="#CMMI12-102"/>
      <use transform="translate(42.299537 0)scale(0.996264)" xlink:href="#CMR17-40"/>
      <use transform="translate(77.580305 0)scale(0.996264)" xlink:href="#CMMI12-12"/>
      <use transform="translate(138.174321 0)scale(0.996264)" xlink:href="#CMR17-41"/>
      <use transform="translate(201.150258 0)scale(0.996264)" xlink:href="#Nimbus_Sans_L_Regular-101"/>
      <use transform="translate(256.541935 0)scale(0.996264)" xlink:href="#Nimbus_Sans_L_Regular-114"/>
      <use transform="translate(289.717165 0)scale(0.996264)" xlink:href="#Nimbus_Sans_L_Regular-119"/>
      <use transform="translate(355.669702 0)scale(0.996264)" xlink:href="#Nimbus_Sans_L_Regular-46"/>
      <path d="M 0 22.914133 
L 41.104023 22.914133 
L 41.104023 26.899083 
L 0 26.899083 
L 0 22.914133 
z
"/>
     </g>
    </g>
   </g>
  </g>
  <g id="axes_2">
   <g id="patch_8">
    <path d="M 108 605.290909 
L 777.6 605.290909 
L 777.6 382.909091 
L 108 382.909091 
z
" style="fill:#ffffff;"/>
   </g>
   <g id="matplotlib.axis_3">
    <g id="xtick_7">
     <g id="line2d_30">
      <path clip-path="url(#p4f7ca3475f)" d="M 138.436364 605.290909 
L 138.436364 382.909091 
" style="fill:none;stroke:#b0b0b0;stroke-linecap:square;stroke-width:0.8;"/>
     </g>
     <g id="line2d_31">
      <g>
       <use style="stroke:#000000;stroke-width:0.8;" x="138.436364" xlink:href="#m31c6c9abc5" y="605.290909"/>
      </g>
     </g>
     <g id="text_11">
      <!-- $\mathdefault{0.4}$ -->
      <defs>
       <path d="M 42 31.84375 
C 42 37.96875 41.90625 48.421875 37.703125 56.453125 
C 34 63.484375 28.09375 66 22.90625 66 
C 18.09375 66 12 63.78125 8.203125 56.5625 
C 4.203125 49.015625 3.796875 39.671875 3.796875 31.84375 
C 3.796875 26.109375 3.90625 17.375 7 9.734375 
C 11.296875 -0.609375 19 -2 22.90625 -2 
C 27.5 -2 34.5 -0.109375 38.59375 9.4375 
C 41.59375 16.375 42 24.5 42 31.84375 
z
M 22.90625 -0.40625 
C 16.5 -0.40625 12.703125 5.125 11.296875 12.75 
C 10.203125 18.6875 10.203125 27.328125 10.203125 32.953125 
C 10.203125 40.6875 10.203125 47.109375 11.5 53.234375 
C 13.40625 61.78125 19 64.390625 22.90625 64.390625 
C 27 64.390625 32.296875 61.671875 34.203125 53.4375 
C 35.5 47.71875 35.59375 40.984375 35.59375 32.953125 
C 35.59375 26.421875 35.59375 18.375 34.40625 12.453125 
C 32.296875 1.5 26.40625 -0.40625 22.90625 -0.40625 
z
" id="CMR17-48"/>
       <path d="M 18.40625 4.796875 
C 18.40625 7.6875 16 9.6875 13.59375 9.6875 
C 10.703125 9.6875 8.703125 7.296875 8.703125 4.890625 
C 8.703125 2 11.09375 0 13.5 0 
C 16.40625 0 18.40625 2.390625 18.40625 4.796875 
z
" id="CMMI12-58"/>
      </defs>
      <g transform="translate(127.773332 625.067886)scale(0.18 -0.18)">
       <use transform="scale(0.996264)" xlink:href="#CMR17-48"/>
       <use transform="translate(45.690477 0)scale(0.996264)" xlink:href="#CMMI12-58"/>
       <use transform="translate(72.787654 0)scale(0.996264)" xlink:href="#CMR17-52"/>
      </g>
     </g>
    </g>
    <g id="xtick_8">
     <g id="line2d_32">
      <path clip-path="url(#p4f7ca3475f)" d="M 245.983868 605.290909 
L 245.983868 382.909091 
" style="fill:none;stroke:#b0b0b0;stroke-linecap:square;stroke-width:0.8;"/>
     </g>
     <g id="line2d_33">
      <g>
       <use style="stroke:#000000;stroke-width:0.8;" x="245.983868" xlink:href="#m31c6c9abc5" y="605.290909"/>
      </g>
     </g>
     <g id="text_12">
      <!-- $\mathdefault{0.6}$ -->
      <defs>
       <path d="M 10.59375 34.34375 
C 10.59375 58 21.796875 63.6875 28.296875 63.6875 
C 30.40625 63.6875 35.5 63.265625 37.5 59.09375 
C 35.90625 59.09375 32.90625 59.09375 32.90625 55.59375 
C 32.90625 52.890625 35.09375 52 36.5 52 
C 37.40625 52 40.09375 52.390625 40.09375 55.796875 
C 40.09375 62.296875 35.09375 66 28.203125 66 
C 16.296875 66 3.796875 53.296875 3.796875 31.421875 
C 3.796875 4.015625 15.09375 -2 23.09375 -2 
C 32.796875 -2 42 6.734375 42 20.234375 
C 42 32.828125 33.90625 42 23.703125 42 
C 17.59375 42 13.09375 37.96875 10.59375 30.921875 
z
M 23.09375 0.390625 
C 10.796875 0.390625 10.796875 18.9375 10.796875 22.65625 
C 10.796875 29.90625 14.203125 40.390625 23.5 40.390625 
C 25.203125 40.390625 30.09375 40.390625 33.40625 33.4375 
C 35.203125 29.515625 35.203125 25.375 35.203125 20.34375 
C 35.203125 14.90625 35.203125 10.875 33.09375 6.84375 
C 30.90625 2.703125 27.703125 0.390625 23.09375 0.390625 
z
" id="CMR17-54"/>
      </defs>
      <g transform="translate(235.320836 625.067886)scale(0.18 -0.18)">
       <use transform="scale(0.996264)" xlink:href="#CMR17-48"/>
       <use transform="translate(45.690477 0)scale(0.996264)" xlink:href="#CMMI12-58"/>
       <use transform="translate(72.787654 0)scale(0.996264)" xlink:href="#CMR17-54"/>
      </g>
     </g>
    </g>
    <g id="xtick_9">
     <g id="line2d_34">
      <path clip-path="url(#p4f7ca3475f)" d="M 353.531372 605.290909 
L 353.531372 382.909091 
" style="fill:none;stroke:#b0b0b0;stroke-linecap:square;stroke-width:0.8;"/>
     </g>
     <g id="line2d_35">
      <g>
       <use style="stroke:#000000;stroke-width:0.8;" x="353.531372" xlink:href="#m31c6c9abc5" y="605.290909"/>
      </g>
     </g>
     <g id="text_13">
      <!-- $\mathdefault{0.8}$ -->
      <defs>
       <path d="M 27.203125 35.765625 
C 33.5 38.96875 39.90625 43.796875 39.90625 51.53125 
C 39.90625 60.6875 31.09375 66 23 66 
C 13.90625 66 5.90625 59.375 5.90625 50.234375 
C 5.90625 47.71875 6.5 43.390625 10.40625 39.578125 
C 11.40625 38.578125 15.59375 35.5625 18.296875 33.65625 
C 13.796875 31.34375 3.296875 25.8125 3.296875 14.765625 
C 3.296875 4.40625 13.09375 -2 22.796875 -2 
C 33.5 -2 42.5 5.71875 42.5 15.96875 
C 42.5 25.109375 36.40625 29.328125 32.40625 32.046875 
z
M 14.09375 44.609375 
C 13.296875 45.109375 9.296875 48.21875 9.296875 52.9375 
C 9.296875 59.078125 15.59375 63.6875 22.796875 63.6875 
C 30.703125 63.6875 36.5 58.0625 36.5 51.53125 
C 36.5 42.1875 26.09375 36.859375 25.59375 36.859375 
C 25.5 36.859375 25.40625 36.859375 24.59375 37.46875 
z
M 32.5 24 
C 34 22.90625 38.796875 19.578125 38.796875 13.453125 
C 38.796875 6.015625 31.40625 0.390625 23 0.390625 
C 13.90625 0.390625 7 6.921875 7 14.859375 
C 7 22.796875 13.09375 29.4375 20 32.546875 
z
" id="CMR17-56"/>
      </defs>
      <g transform="translate(342.86834 625.067886)scale(0.18 -0.18)">
       <use transform="scale(0.996264)" xlink:href="#CMR17-48"/>
       <use transform="translate(45.690477 0)scale(0.996264)" xlink:href="#CMMI12-58"/>
       <use transform="translate(72.787654 0)scale(0.996264)" xlink:href="#CMR17-56"/>
      </g>
     </g>
    </g>
    <g id="xtick_10">
     <g id="line2d_36">
      <path clip-path="url(#p4f7ca3475f)" d="M 461.078876 605.290909 
L 461.078876 382.909091 
" style="fill:none;stroke:#b0b0b0;stroke-linecap:square;stroke-width:0.8;"/>
     </g>
     <g id="line2d_37">
      <g>
       <use style="stroke:#000000;stroke-width:0.8;" x="461.078876" xlink:href="#m31c6c9abc5" y="605.290909"/>
      </g>
     </g>
     <g id="text_14">
      <!-- $\mathdefault{1.0}$ -->
      <defs>
       <path d="M 26.59375 63.796875 
C 26.59375 65.890625 26.5 66 25.09375 66 
C 21.203125 61.359375 15.296875 59.890625 9.703125 59.6875 
C 9.40625 59.6875 8.90625 59.6875 8.796875 59.5 
C 8.703125 59.296875 8.703125 59.09375 8.703125 57 
C 11.796875 57 17 57.59375 21 59.984375 
L 21 7.296875 
C 21 3.796875 20.796875 2.59375 12.203125 2.59375 
L 9.203125 2.59375 
L 9.203125 0 
C 14 0.09375 19 0.1875 23.796875 0.1875 
C 28.59375 0.1875 33.59375 0.09375 38.40625 0 
L 38.40625 2.59375 
L 35.40625 2.59375 
C 26.796875 2.59375 26.59375 3.6875 26.59375 7.296875 
z
" id="CMR17-49"/>
      </defs>
      <g transform="translate(450.415844 625.067886)scale(0.18 -0.18)">
       <use transform="scale(0.996264)" xlink:href="#CMR17-49"/>
       <use transform="translate(45.690477 0)scale(0.996264)" xlink:href="#CMMI12-58"/>
       <use transform="translate(72.787654 0)scale(0.996264)" xlink:href="#CMR17-48"/>
      </g>
     </g>
    </g>
    <g id="xtick_11">
     <g id="line2d_38">
      <path clip-path="url(#p4f7ca3475f)" d="M 568.62638 605.290909 
L 568.62638 382.909091 
" style="fill:none;stroke:#b0b0b0;stroke-linecap:square;stroke-width:0.8;"/>
     </g>
     <g id="line2d_39">
      <g>
       <use style="stroke:#000000;stroke-width:0.8;" x="568.62638" xlink:href="#m31c6c9abc5" y="605.290909"/>
      </g>
     </g>
     <g id="text_15">
      <!-- $\mathdefault{1.2}$ -->
      <g transform="translate(557.963348 625.067886)scale(0.18 -0.18)">
       <use transform="scale(0.996264)" xlink:href="#CMR17-49"/>
       <use transform="translate(45.690477 0)scale(0.996264)" xlink:href="#CMMI12-58"/>
       <use transform="translate(72.787654 0)scale(0.996264)" xlink:href="#CMR17-50"/>
      </g>
     </g>
    </g>
    <g id="xtick_12">
     <g id="line2d_40">
      <path clip-path="url(#p4f7ca3475f)" d="M 676.173884 605.290909 
L 676.173884 382.909091 
" style="fill:none;stroke:#b0b0b0;stroke-linecap:square;stroke-width:0.8;"/>
     </g>
     <g id="line2d_41">
      <g>
       <use style="stroke:#000000;stroke-width:0.8;" x="676.173884" xlink:href="#m31c6c9abc5" y="605.290909"/>
      </g>
     </g>
     <g id="text_16">
      <!-- $\mathdefault{1.4}$ -->
      <g transform="translate(665.510852 625.067886)scale(0.18 -0.18)">
       <use transform="scale(0.996264)" xlink:href="#CMR17-49"/>
       <use transform="translate(45.690477 0)scale(0.996264)" xlink:href="#CMMI12-58"/>
       <use transform="translate(72.787654 0)scale(0.996264)" xlink:href="#CMR17-52"/>
      </g>
     </g>
    </g>
    <g id="text_17">
     <!-- $\beta$ -->
     <g transform="translate(437.843634 645.664431)scale(0.18 -0.18)">
      <use transform="scale(0.996264)" xlink:href="#CMMI12-12"/>
     </g>
    </g>
   </g>
   <g id="matplotlib.axis_4">
    <g id="ytick_5">
     <g id="line2d_42">
      <path clip-path="url(#p4f7ca3475f)" d="M 108 560.580001 
L 777.6 560.580001 
" style="fill:none;stroke:#b0b0b0;stroke-linecap:square;stroke-width:0.8;"/>
     </g>
     <g id="line2d_43">
      <g>
       <use style="stroke:#000000;stroke-width:0.8;" x="108" xlink:href="#mff9c687987" y="560.580001"/>
      </g>
     </g>
     <g id="text_18">
      <!-- $\mathdefault{2}$ -->
      <g transform="translate(92.775714 566.96849)scale(0.18 -0.18)">
       <use transform="scale(0.996264)" xlink:href="#CMR17-50"/>
      </g>
     </g>
    </g>
    <g id="ytick_6">
     <g id="line2d_44">
      <path clip-path="url(#p4f7ca3475f)" d="M 108 500.582712 
L 777.6 500.582712 
" style="fill:none;stroke:#b0b0b0;stroke-linecap:square;stroke-width:0.8;"/>
     </g>
     <g id="line2d_45">
      <g>
       <use style="stroke:#000000;stroke-width:0.8;" x="108" xlink:href="#mff9c687987" y="500.582712"/>
      </g>
     </g>
     <g id="text_19">
      <!-- $\mathdefault{3}$ -->
      <g transform="translate(92.775714 506.9712)scale(0.18 -0.18)">
       <use transform="scale(0.996264)" xlink:href="#CMR17-51"/>
      </g>
     </g>
    </g>
    <g id="ytick_7">
     <g id="line2d_46">
      <path clip-path="url(#p4f7ca3475f)" d="M 108 440.585423 
L 777.6 440.585423 
" style="fill:none;stroke:#b0b0b0;stroke-linecap:square;stroke-width:0.8;"/>
     </g>
     <g id="line2d_47">
      <g>
       <use style="stroke:#000000;stroke-width:0.8;" x="108" xlink:href="#mff9c687987" y="440.585423"/>
      </g>
     </g>
     <g id="text_20">
      <!-- $\mathdefault{4}$ -->
      <g transform="translate(92.775714 446.973911)scale(0.18 -0.18)">
       <use transform="scale(0.996264)" xlink:href="#CMR17-52"/>
      </g>
     </g>
    </g>
    <g id="text_21">
     <!-- $\frac{b}{f}(\beta), \frac{g}{f}(\beta), \frac{e}{f}(\beta)$ -->
     <g transform="translate(80.150952 551.465089)rotate(-90)scale(0.18 -0.18)">
      <use transform="translate(6.035518 39.226102)scale(0.697382)" xlink:href="#CMMI12-98"/>
      <use transform="translate(0 -34.355253)scale(0.697382)" xlink:href="#CMMI12-102"/>
      <use transform="translate(42.299537 0)scale(0.996264)" xlink:href="#CMR17-40"/>
      <use transform="translate(77.580305 0)scale(0.996264)" xlink:href="#CMMI12-12"/>
      <use transform="translate(138.174321 0)scale(0.996264)" xlink:href="#CMR17-41"/>
      <use transform="translate(173.455088 0)scale(0.996264)" xlink:href="#CMMI12-59"/>
      <use transform="translate(221.304355 44.444174)scale(0.697382)" xlink:href="#CMMI12-103"/>
      <use transform="translate(218.352185 -34.355253)scale(0.697382)" xlink:href="#CMMI12-102"/>
      <use transform="translate(260.651722 0)scale(0.996264)" xlink:href="#CMR17-40"/>
      <use transform="translate(295.932489 0)scale(0.996264)" xlink:href="#CMMI12-12"/>
      <use transform="translate(356.526505 0)scale(0.996264)" xlink:href="#CMR17-41"/>
      <use transform="translate(391.807273 0)scale(0.996264)" xlink:href="#CMMI12-59"/>
      <use transform="translate(441.43226 39.226102)scale(0.697382)" xlink:href="#CMMI12-101"/>
      <use transform="translate(436.704369 -34.355253)scale(0.697382)" xlink:href="#CMMI12-102"/>
      <use transform="translate(479.003906 0)scale(0.996264)" xlink:href="#CMR17-40"/>
      <use transform="translate(514.284674 0)scale(0.996264)" xlink:href="#CMMI12-12"/>
      <use transform="translate(574.87869 0)scale(0.996264)" xlink:href="#CMR17-41"/>
      <path d="M 0 22.914133 
L 41.104023 22.914133 
L 41.104023 26.899083 
L 0 26.899083 
L 0 22.914133 
z
"/>
      <path d="M 218.352185 22.914133 
L 259.456208 22.914133 
L 259.456208 26.899083 
L 218.352185 26.899083 
L 218.352185 22.914133 
z
"/>
      <path d="M 436.704369 22.914133 
L 477.808392 22.914133 
L 477.808392 26.899083 
L 436.704369 26.899083 
L 436.704369 22.914133 
z
"/>
     </g>
    </g>
   </g>
   <g id="LineCollection_1">
    <path clip-path="url(#p4f7ca3475f)" d="M 616.683603 555.125702 
L 649.626161 555.125702 
" style="fill:none;stroke:#80ffdb;stroke-width:1.5;"/>
    <path clip-path="url(#p4f7ca3475f)" d="M 476.393366 566.444398 
L 504.42666 566.444398 
" style="fill:none;stroke:#80ffdb;stroke-width:1.5;"/>
    <path clip-path="url(#p4f7ca3475f)" d="M 390.487876 574.42553 
L 415.160079 574.42553 
" style="fill:none;stroke:#80ffdb;stroke-width:1.5;"/>
    <path clip-path="url(#p4f7ca3475f)" d="M 325.940311 580.355644 
L 348.030893 580.355644 
" style="fill:none;stroke:#80ffdb;stroke-width:1.5;"/>
    <path clip-path="url(#p4f7ca3475f)" d="M 278.205661 584.935337 
L 298.263684 584.935337 
" style="fill:none;stroke:#80ffdb;stroke-width:1.5;"/>
    <path clip-path="url(#p4f7ca3475f)" d="M 236.802001 588.578736 
L 255.165735 588.578736 
" style="fill:none;stroke:#80ffdb;stroke-width:1.5;"/>
    <path clip-path="url(#p4f7ca3475f)" d="M 203.896905 591.546344 
L 220.85364 591.546344 
" style="fill:none;stroke:#80ffdb;stroke-width:1.5;"/>
    <path clip-path="url(#p4f7ca3475f)" d="M 174.846091 594.010225 
L 190.595169 594.010225 
" style="fill:none;stroke:#80ffdb;stroke-width:1.5;"/>
   </g>
   <g id="LineCollection_2">
    <path clip-path="url(#p4f7ca3475f)" d="M 633.154882 553.953283 
L 633.154882 556.298122 
" style="fill:none;stroke:#80ffdb;stroke-width:1.5;"/>
    <path clip-path="url(#p4f7ca3475f)" d="M 490.410013 565.271979 
L 490.410013 567.616817 
" style="fill:none;stroke:#80ffdb;stroke-width:1.5;"/>
    <path clip-path="url(#p4f7ca3475f)" d="M 402.823978 573.25311 
L 402.823978 575.597949 
" style="fill:none;stroke:#80ffdb;stroke-width:1.5;"/>
    <path clip-path="url(#p4f7ca3475f)" d="M 336.985602 579.183225 
L 336.985602 581.528064 
" style="fill:none;stroke:#80ffdb;stroke-width:1.5;"/>
    <path clip-path="url(#p4f7ca3475f)" d="M 288.234673 583.762917 
L 288.234673 586.107756 
" style="fill:none;stroke:#80ffdb;stroke-width:1.5;"/>
    <path clip-path="url(#p4f7ca3475f)" d="M 245.983868 587.406317 
L 245.983868 589.751156 
" style="fill:none;stroke:#80ffdb;stroke-width:1.5;"/>
    <path clip-path="url(#p4f7ca3475f)" d="M 212.375273 590.373925 
L 212.375273 592.718764 
" style="fill:none;stroke:#80ffdb;stroke-width:1.5;"/>
    <path clip-path="url(#p4f7ca3475f)" d="M 182.72063 592.837806 
L 182.72063 595.182645 
" style="fill:none;stroke:#80ffdb;stroke-width:1.5;"/>
   </g>
   <g id="LineCollection_3">
    <path clip-path="url(#p4f7ca3475f)" d="M 616.683603 581.363376 
L 649.626161 581.363376 
" style="fill:none;stroke:#e0a458;stroke-width:1.5;"/>
    <path clip-path="url(#p4f7ca3475f)" d="M 476.393366 571.533185 
L 504.42666 571.533185 
" style="fill:none;stroke:#e0a458;stroke-width:1.5;"/>
    <path clip-path="url(#p4f7ca3475f)" d="M 390.487876 563.482329 
L 415.160079 563.482329 
" style="fill:none;stroke:#e0a458;stroke-width:1.5;"/>
    <path clip-path="url(#p4f7ca3475f)" d="M 325.940311 555.125702 
L 348.030893 555.125702 
" style="fill:none;stroke:#e0a458;stroke-width:1.5;"/>
    <path clip-path="url(#p4f7ca3475f)" d="M 278.205661 547.484146 
L 298.263684 547.484146 
" style="fill:none;stroke:#e0a458;stroke-width:1.5;"/>
    <path clip-path="url(#p4f7ca3475f)" d="M 236.802001 537.822409 
L 255.165735 537.822409 
" style="fill:none;stroke:#e0a458;stroke-width:1.5;"/>
    <path clip-path="url(#p4f7ca3475f)" d="M 203.896905 528.036484 
L 220.85364 528.036484 
" style="fill:none;stroke:#e0a458;stroke-width:1.5;"/>
    <path clip-path="url(#p4f7ca3475f)" d="M 174.846091 515.625764 
L 190.595169 515.625764 
" style="fill:none;stroke:#e0a458;stroke-width:1.5;"/>
   </g>
   <g id="LineCollection_4">
    <path clip-path="url(#p4f7ca3475f)" d="M 633.154882 578.676876 
L 633.154882 584.049876 
" style="fill:none;stroke:#e0a458;stroke-width:1.5;"/>
    <path clip-path="url(#p4f7ca3475f)" d="M 490.410013 568.846685 
L 490.410013 574.219685 
" style="fill:none;stroke:#e0a458;stroke-width:1.5;"/>
    <path clip-path="url(#p4f7ca3475f)" d="M 402.823978 560.795829 
L 402.823978 566.168828 
" style="fill:none;stroke:#e0a458;stroke-width:1.5;"/>
    <path clip-path="url(#p4f7ca3475f)" d="M 336.985602 552.439202 
L 336.985602 557.812202 
" style="fill:none;stroke:#e0a458;stroke-width:1.5;"/>
    <path clip-path="url(#p4f7ca3475f)" d="M 288.234673 544.797646 
L 288.234673 550.170646 
" style="fill:none;stroke:#e0a458;stroke-width:1.5;"/>
    <path clip-path="url(#p4f7ca3475f)" d="M 245.983868 535.135909 
L 245.983868 540.508909 
" style="fill:none;stroke:#e0a458;stroke-width:1.5;"/>
    <path clip-path="url(#p4f7ca3475f)" d="M 212.375273 525.349985 
L 212.375273 530.722984 
" style="fill:none;stroke:#e0a458;stroke-width:1.5;"/>
    <path clip-path="url(#p4f7ca3475f)" d="M 182.72063 512.939264 
L 182.72063 518.312264 
" style="fill:none;stroke:#e0a458;stroke-width:1.5;"/>
   </g>
   <g id="LineCollection_5">
    <path clip-path="url(#p4f7ca3475f)" d="M 616.683603 455.914498 
L 649.626161 455.914498 
" style="fill:none;stroke:#c04abc;stroke-width:1.5;"/>
    <path clip-path="url(#p4f7ca3475f)" d="M 476.393366 457.403003 
L 504.42666 457.403003 
" style="fill:none;stroke:#c04abc;stroke-width:1.5;"/>
    <path clip-path="url(#p4f7ca3475f)" d="M 390.487876 457.333278 
L 415.160079 457.333278 
" style="fill:none;stroke:#c04abc;stroke-width:1.5;"/>
    <path clip-path="url(#p4f7ca3475f)" d="M 325.940311 454.906767 
L 348.030893 454.906767 
" style="fill:none;stroke:#c04abc;stroke-width:1.5;"/>
    <path clip-path="url(#p4f7ca3475f)" d="M 278.205661 451.844903 
L 298.263684 451.844903 
" style="fill:none;stroke:#c04abc;stroke-width:1.5;"/>
    <path clip-path="url(#p4f7ca3475f)" d="M 236.802001 445.826565 
L 255.165735 445.826565 
" style="fill:none;stroke:#c04abc;stroke-width:1.5;"/>
    <path clip-path="url(#p4f7ca3475f)" d="M 203.896905 439.008249 
L 220.85364 439.008249 
" style="fill:none;stroke:#c04abc;stroke-width:1.5;"/>
    <path clip-path="url(#p4f7ca3475f)" d="M 174.846091 429.061409 
L 190.595169 429.061409 
" style="fill:none;stroke:#c04abc;stroke-width:1.5;"/>
   </g>
   <g id="LineCollection_6">
    <path clip-path="url(#p4f7ca3475f)" d="M 633.154882 452.055579 
L 633.154882 459.773418 
" style="fill:none;stroke:#c04abc;stroke-width:1.5;"/>
    <path clip-path="url(#p4f7ca3475f)" d="M 490.410013 453.544084 
L 490.410013 461.261922 
" style="fill:none;stroke:#c04abc;stroke-width:1.5;"/>
    <path clip-path="url(#p4f7ca3475f)" d="M 402.823978 453.474359 
L 402.823978 461.192198 
" style="fill:none;stroke:#c04abc;stroke-width:1.5;"/>
    <path clip-path="url(#p4f7ca3475f)" d="M 336.985602 451.047847 
L 336.985602 458.765686 
" style="fill:none;stroke:#c04abc;stroke-width:1.5;"/>
    <path clip-path="url(#p4f7ca3475f)" d="M 288.234673 447.985984 
L 288.234673 455.703822 
" style="fill:none;stroke:#c04abc;stroke-width:1.5;"/>
    <path clip-path="url(#p4f7ca3475f)" d="M 245.983868 441.967646 
L 245.983868 449.685485 
" style="fill:none;stroke:#c04abc;stroke-width:1.5;"/>
    <path clip-path="url(#p4f7ca3475f)" d="M 212.375273 435.149329 
L 212.375273 442.867168 
" style="fill:none;stroke:#c04abc;stroke-width:1.5;"/>
    <path clip-path="url(#p4f7ca3475f)" d="M 182.72063 425.20249 
L 182.72063 432.920329 
" style="fill:none;stroke:#c04abc;stroke-width:1.5;"/>
   </g>
   <g id="LineCollection_7">
    <path clip-path="url(#p4f7ca3475f)" d="M 712.731635 555.125702 
L 747.163636 555.125702 
" style="fill:none;stroke:#094d92;stroke-width:1.5;"/>
    <path clip-path="url(#p4f7ca3475f)" d="M 500.675911 566.444398 
L 529.029344 566.444398 
" style="fill:none;stroke:#094d92;stroke-width:1.5;"/>
    <path clip-path="url(#p4f7ca3475f)" d="M 381.576785 574.42553 
L 406.146586 574.42553 
" style="fill:none;stroke:#094d92;stroke-width:1.5;"/>
    <path clip-path="url(#p4f7ca3475f)" d="M 301.247214 580.355644 
L 323.08668 580.355644 
" style="fill:none;stroke:#094d92;stroke-width:1.5;"/>
    <path clip-path="url(#p4f7ca3475f)" d="M 259.088382 584.935337 
L 278.97114 584.935337 
" style="fill:none;stroke:#094d92;stroke-width:1.5;"/>
    <path clip-path="url(#p4f7ca3475f)" d="M 218.951588 588.578736 
L 237.166979 588.578736 
" style="fill:none;stroke:#094d92;stroke-width:1.5;"/>
    <path clip-path="url(#p4f7ca3475f)" d="M 183.807967 591.546344 
L 200.612264 591.546344 
" style="fill:none;stroke:#094d92;stroke-width:1.5;"/>
    <path clip-path="url(#p4f7ca3475f)" d="M 152.780812 594.010225 
L 168.376181 594.010225 
" style="fill:none;stroke:#094d92;stroke-width:1.5;"/>
   </g>
   <g id="LineCollection_8">
    <path clip-path="url(#p4f7ca3475f)" d="M 729.947636 553.953283 
L 729.947636 556.298122 
" style="fill:none;stroke:#094d92;stroke-width:1.5;"/>
    <path clip-path="url(#p4f7ca3475f)" d="M 514.852628 565.271979 
L 514.852628 567.616817 
" style="fill:none;stroke:#094d92;stroke-width:1.5;"/>
    <path clip-path="url(#p4f7ca3475f)" d="M 393.861686 573.25311 
L 393.861686 575.597949 
" style="fill:none;stroke:#094d92;stroke-width:1.5;"/>
    <path clip-path="url(#p4f7ca3475f)" d="M 312.166947 579.183225 
L 312.166947 581.528064 
" style="fill:none;stroke:#094d92;stroke-width:1.5;"/>
    <path clip-path="url(#p4f7ca3475f)" d="M 269.029761 583.762917 
L 269.029761 586.107756 
" style="fill:none;stroke:#094d92;stroke-width:1.5;"/>
    <path clip-path="url(#p4f7ca3475f)" d="M 228.059284 587.406317 
L 228.059284 589.751156 
" style="fill:none;stroke:#094d92;stroke-width:1.5;"/>
    <path clip-path="url(#p4f7ca3475f)" d="M 192.210116 590.373925 
L 192.210116 592.718764 
" style="fill:none;stroke:#094d92;stroke-width:1.5;"/>
    <path clip-path="url(#p4f7ca3475f)" d="M 160.578497 592.837806 
L 160.578497 595.182645 
" style="fill:none;stroke:#094d92;stroke-width:1.5;"/>
   </g>
   <g id="LineCollection_9">
    <path clip-path="url(#p4f7ca3475f)" d="M 712.731635 588.578736 
L 747.163636 588.578736 
" style="fill:none;stroke:#68b684;stroke-width:1.5;"/>
    <path clip-path="url(#p4f7ca3475f)" d="M 500.675911 575.096086 
L 529.029344 575.096086 
" style="fill:none;stroke:#68b684;stroke-width:1.5;"/>
    <path clip-path="url(#p4f7ca3475f)" d="M 381.576785 561.320709 
L 406.146586 561.320709 
" style="fill:none;stroke:#68b684;stroke-width:1.5;"/>
    <path clip-path="url(#p4f7ca3475f)" d="M 301.247214 545.736597 
L 323.08668 545.736597 
" style="fill:none;stroke:#68b684;stroke-width:1.5;"/>
    <path clip-path="url(#p4f7ca3475f)" d="M 259.088382 537.822409 
L 278.97114 537.822409 
" style="fill:none;stroke:#68b684;stroke-width:1.5;"/>
    <path clip-path="url(#p4f7ca3475f)" d="M 218.951588 525.217361 
L 237.166979 525.217361 
" style="fill:none;stroke:#68b684;stroke-width:1.5;"/>
    <path clip-path="url(#p4f7ca3475f)" d="M 183.807967 508.082373 
L 200.612264 508.082373 
" style="fill:none;stroke:#68b684;stroke-width:1.5;"/>
    <path clip-path="url(#p4f7ca3475f)" d="M 152.780812 483.440629 
L 168.376181 483.440629 
" style="fill:none;stroke:#68b684;stroke-width:1.5;"/>
   </g>
   <g id="LineCollection_10">
    <path clip-path="url(#p4f7ca3475f)" d="M 729.947636 585.892236 
L 729.947636 591.265236 
" style="fill:none;stroke:#68b684;stroke-width:1.5;"/>
    <path clip-path="url(#p4f7ca3475f)" d="M 514.852628 572.409586 
L 514.852628 577.782586 
" style="fill:none;stroke:#68b684;stroke-width:1.5;"/>
    <path clip-path="url(#p4f7ca3475f)" d="M 393.861686 558.634209 
L 393.861686 564.007209 
" style="fill:none;stroke:#68b684;stroke-width:1.5;"/>
    <path clip-path="url(#p4f7ca3475f)" d="M 312.166947 543.050097 
L 312.166947 548.423097 
" style="fill:none;stroke:#68b684;stroke-width:1.5;"/>
    <path clip-path="url(#p4f7ca3475f)" d="M 269.029761 535.135909 
L 269.029761 540.508909 
" style="fill:none;stroke:#68b684;stroke-width:1.5;"/>
    <path clip-path="url(#p4f7ca3475f)" d="M 228.059284 522.530861 
L 228.059284 527.903861 
" style="fill:none;stroke:#68b684;stroke-width:1.5;"/>
    <path clip-path="url(#p4f7ca3475f)" d="M 192.210116 505.395873 
L 192.210116 510.768873 
" style="fill:none;stroke:#68b684;stroke-width:1.5;"/>
    <path clip-path="url(#p4f7ca3475f)" d="M 160.578497 480.754129 
L 160.578497 486.127129 
" style="fill:none;stroke:#68b684;stroke-width:1.5;"/>
   </g>
   <g id="LineCollection_11">
    <path clip-path="url(#p4f7ca3475f)" d="M 712.731635 463.129859 
L 747.163636 463.129859 
" style="fill:none;stroke:#1c1018;stroke-width:1.5;"/>
    <path clip-path="url(#p4f7ca3475f)" d="M 500.675911 460.965904 
L 529.029344 460.965904 
" style="fill:none;stroke:#1c1018;stroke-width:1.5;"/>
    <path clip-path="url(#p4f7ca3475f)" d="M 381.576785 455.171658 
L 406.146586 455.171658 
" style="fill:none;stroke:#1c1018;stroke-width:1.5;"/>
    <path clip-path="url(#p4f7ca3475f)" d="M 301.247214 445.517661 
L 323.08668 445.517661 
" style="fill:none;stroke:#1c1018;stroke-width:1.5;"/>
    <path clip-path="url(#p4f7ca3475f)" d="M 259.088382 442.183166 
L 278.97114 442.183166 
" style="fill:none;stroke:#1c1018;stroke-width:1.5;"/>
    <path clip-path="url(#p4f7ca3475f)" d="M 218.951588 433.221517 
L 237.166979 433.221517 
" style="fill:none;stroke:#1c1018;stroke-width:1.5;"/>
    <path clip-path="url(#p4f7ca3475f)" d="M 183.807967 419.054137 
L 200.612264 419.054137 
" style="fill:none;stroke:#1c1018;stroke-width:1.5;"/>
    <path clip-path="url(#p4f7ca3475f)" d="M 152.780812 396.876275 
L 168.376181 396.876275 
" style="fill:none;stroke:#1c1018;stroke-width:1.5;"/>
   </g>
   <g id="LineCollection_12">
    <path clip-path="url(#p4f7ca3475f)" d="M 729.947636 459.270939 
L 729.947636 466.988778 
" style="fill:none;stroke:#1c1018;stroke-width:1.5;"/>
    <path clip-path="url(#p4f7ca3475f)" d="M 514.852628 457.106985 
L 514.852628 464.824823 
" style="fill:none;stroke:#1c1018;stroke-width:1.5;"/>
    <path clip-path="url(#p4f7ca3475f)" d="M 393.861686 451.312739 
L 393.861686 459.030578 
" style="fill:none;stroke:#1c1018;stroke-width:1.5;"/>
    <path clip-path="url(#p4f7ca3475f)" d="M 312.166947 441.658742 
L 312.166947 449.376581 
" style="fill:none;stroke:#1c1018;stroke-width:1.5;"/>
    <path clip-path="url(#p4f7ca3475f)" d="M 269.029761 438.324246 
L 269.029761 446.042085 
" style="fill:none;stroke:#1c1018;stroke-width:1.5;"/>
    <path clip-path="url(#p4f7ca3475f)" d="M 228.059284 429.362598 
L 228.059284 437.080436 
" style="fill:none;stroke:#1c1018;stroke-width:1.5;"/>
    <path clip-path="url(#p4f7ca3475f)" d="M 192.210116 415.195218 
L 192.210116 422.913057 
" style="fill:none;stroke:#1c1018;stroke-width:1.5;"/>
    <path clip-path="url(#p4f7ca3475f)" d="M 160.578497 393.017355 
L 160.578497 400.735194 
" style="fill:none;stroke:#1c1018;stroke-width:1.5;"/>
   </g>
   <g id="line2d_48">
    <path clip-path="url(#p4f7ca3475f)" d="M 633.154882 555.125702 
L 490.410013 566.444398 
L 402.823978 574.42553 
L 336.985602 580.355644 
L 288.234673 584.935337 
L 245.983868 588.578736 
L 212.375273 591.546344 
L 182.72063 594.010225 
" style="fill:none;stroke:#80ffdb;stroke-linecap:square;stroke-width:1.5;"/>
   </g>
   <g id="line2d_49">
    <path clip-path="url(#p4f7ca3475f)" d="M 633.154882 581.363376 
L 490.410013 571.533185 
L 402.823978 563.482329 
L 336.985602 555.125702 
L 288.234673 547.484146 
L 245.983868 537.822409 
L 212.375273 528.036484 
L 182.72063 515.625764 
" style="fill:none;stroke:#e0a458;stroke-linecap:square;stroke-width:1.5;"/>
   </g>
   <g id="line2d_50">
    <path clip-path="url(#p4f7ca3475f)" d="M 633.154882 455.914498 
L 490.410013 457.403003 
L 402.823978 457.333278 
L 336.985602 454.906767 
L 288.234673 451.844903 
L 245.983868 445.826565 
L 212.375273 439.008249 
L 182.72063 429.061409 
" style="fill:none;stroke:#c04abc;stroke-linecap:square;stroke-width:1.5;"/>
   </g>
   <g id="line2d_51">
    <path clip-path="url(#p4f7ca3475f)" d="M 729.947636 555.125702 
L 514.852628 566.444398 
L 393.861686 574.42553 
L 312.166947 580.355644 
L 269.029761 584.935337 
L 228.059284 588.578736 
L 192.210116 591.546344 
L 160.578497 594.010225 
" style="fill:none;stroke:#094d92;stroke-linecap:square;stroke-width:1.5;"/>
   </g>
   <g id="line2d_52">
    <path clip-path="url(#p4f7ca3475f)" d="M 729.947636 588.578736 
L 514.852628 575.096086 
L 393.861686 561.320709 
L 312.166947 545.736597 
L 269.029761 537.822409 
L 228.059284 525.217361 
L 192.210116 508.082373 
L 160.578497 483.440629 
" style="fill:none;stroke:#68b684;stroke-linecap:square;stroke-width:1.5;"/>
   </g>
   <g id="line2d_53">
    <path clip-path="url(#p4f7ca3475f)" d="M 729.947636 463.129859 
L 514.852628 460.965904 
L 393.861686 455.171658 
L 312.166947 445.517661 
L 269.029761 442.183166 
L 228.059284 433.221517 
L 192.210116 419.054137 
L 160.578497 396.876275 
" style="fill:none;stroke:#1c1018;stroke-linecap:square;stroke-width:1.5;"/>
   </g>
   <g id="patch_9">
    <path d="M 108 605.290909 
L 108 382.909091 
" style="fill:none;stroke:#000000;stroke-linecap:square;stroke-linejoin:miter;stroke-width:0.8;"/>
   </g>
   <g id="patch_10">
    <path d="M 777.6 605.290909 
L 777.6 382.909091 
" style="fill:none;stroke:#000000;stroke-linecap:square;stroke-linejoin:miter;stroke-width:0.8;"/>
   </g>
   <g id="patch_11">
    <path d="M 108 605.290909 
L 777.6 605.290909 
" style="fill:none;stroke:#000000;stroke-linecap:square;stroke-linejoin:miter;stroke-width:0.8;"/>
   </g>
   <g id="patch_12">
    <path d="M 108 382.909091 
L 777.6 382.909091 
" style="fill:none;stroke:#000000;stroke-linecap:square;stroke-linejoin:miter;stroke-width:0.8;"/>
   </g>
   <g id="text_22">
    <!-- Mit $f_{nom}$ errechnete Werte für $\frac{b}{f}(\beta), \frac{g}{f}(\beta), \frac{e}{f}(\beta)$ -->
    <defs>
     <path d="M 46.796875 0 
L 67.296875 61.171875 
L 67.296875 0 
L 76.09375 0 
L 76.09375 73 
L 63.203125 73 
L 42 9.40625 
L 20.40625 73 
L 7.5 73 
L 7.5 0 
L 16.296875 0 
L 16.296875 61.171875 
L 37 0 
z
" id="Nimbus_Sans_L_Regular-77"/>
     <path d="M 15 52.46875 
L 6.703125 52.46875 
L 6.703125 0 
L 15 0 
z
M 15 73 
L 6.59375 73 
L 6.59375 62.484375 
L 15 62.484375 
z
" id="Nimbus_Sans_L_Regular-105"/>
     <path d="M 20.59375 29.21875 
C 20.796875 29.828125 23.296875 34.8125 27 38 
C 29.59375 40.390625 33 41.984375 36.90625 41.984375 
C 40.90625 41.984375 42.296875 39 42.296875 35.015625 
C 42.296875 29.328125 38.203125 17.953125 36.203125 12.5625 
C 35.296875 10.171875 34.796875 8.875 34.796875 7.078125 
C 34.796875 2.59375 37.90625 -1 42.703125 -1 
C 52 -1 55.5 13.65625 55.5 14.265625 
C 55.5 14.765625 55.09375 15.15625 54.5 15.15625 
C 53.59375 15.15625 53.5 14.859375 53 13.15625 
C 50.703125 4.984375 46.90625 1 43 1 
C 42 1 40.40625 1.09375 40.40625 4.28125 
C 40.40625 6.78125 41.5 9.765625 42.09375 11.171875 
C 44.09375 16.65625 48.296875 27.828125 48.296875 33.515625 
C 48.296875 39.5 44.796875 44 37.203125 44 
C 28.296875 44 23.59375 37.703125 21.796875 35.203125 
C 21.5 40.890625 17.40625 44 13 44 
C 9.796875 44 7.59375 42.09375 5.90625 38.703125 
C 4.09375 35.109375 2.703125 29.125 2.703125 28.71875 
C 2.703125 28.328125 3.09375 27.828125 3.796875 27.828125 
C 4.59375 27.828125 4.703125 27.921875 5.296875 30.21875 
C 6.90625 36.3125 8.703125 41.984375 12.703125 41.984375 
C 15 41.984375 15.796875 40.390625 15.796875 37.40625 
C 15.796875 35.203125 14.796875 31.3125 14.09375 28.234375 
L 11.296875 17.453125 
C 10.90625 15.5625 9.796875 11.0625 9.296875 9.265625 
C 8.59375 6.671875 7.5 1.984375 7.5 1.484375 
C 7.5 0.09375 8.59375 -1 10.09375 -1 
C 11.296875 -1 12.703125 -0.40625 13.5 1.09375 
C 13.703125 1.59375 14.59375 5.078125 15.09375 7.078125 
L 17.296875 16.0625 
z
" id="CMMI12-110"/>
     <path d="M 45.59375 27.421875 
C 45.59375 36.90625 39.40625 44 30.296875 44 
C 17.09375 44 4.09375 29.625 4.09375 15.5625 
C 4.09375 6.078125 10.296875 -1 19.40625 -1 
C 32.703125 -1 45.59375 13.359375 45.59375 27.421875 
z
M 19.5 1 
C 14.5 1 10.796875 4.984375 10.796875 11.96875 
C 10.796875 16.5625 13.203125 26.734375 16 31.71875 
C 20.5 39.40625 26.09375 41.984375 30.203125 41.984375 
C 35.09375 41.984375 38.90625 38 38.90625 31.015625 
C 38.90625 27.03125 36.796875 16.359375 33 10.265625 
C 28.90625 3.59375 23.40625 1 19.5 1 
z
" id="CMMI12-111"/>
     <path d="M 20.59375 29.21875 
C 20.796875 29.828125 23.296875 34.8125 27 38 
C 29.59375 40.390625 33 41.984375 36.90625 41.984375 
C 40.90625 41.984375 42.296875 39 42.296875 35.015625 
C 42.296875 34.40625 42.296875 32.421875 41.09375 27.734375 
L 38.59375 17.453125 
C 37.796875 14.453125 35.90625 7.078125 35.703125 5.984375 
C 35.296875 4.484375 34.703125 1.890625 34.703125 1.484375 
C 34.703125 0.09375 35.796875 -1 37.296875 -1 
C 40.296875 -1 40.796875 1.296875 41.703125 4.890625 
L 47.703125 28.71875 
C 47.90625 29.53125 53.09375 41.984375 64.09375 41.984375 
C 68.09375 41.984375 69.5 39 69.5 35.015625 
C 69.5 29.421875 65.59375 18.546875 63.40625 12.5625 
C 62.5 10.171875 62 8.875 62 7.078125 
C 62 2.59375 65.09375 -1 69.90625 -1 
C 79.203125 -1 82.703125 13.65625 82.703125 14.265625 
C 82.703125 14.765625 82.296875 15.15625 81.703125 15.15625 
C 80.796875 15.15625 80.703125 14.859375 80.203125 13.15625 
C 77.90625 5.1875 74.203125 1 70.203125 1 
C 69.203125 1 67.59375 1.09375 67.59375 4.28125 
C 67.59375 6.875 68.796875 10.078125 69.203125 11.171875 
C 71 15.953125 75.5 27.734375 75.5 33.515625 
C 75.5 39.5 72 44 64.40625 44 
C 57.703125 44 52.296875 40.203125 48.296875 34.3125 
C 48 39.703125 44.703125 44 37.203125 44 
C 28.296875 44 23.59375 37.703125 21.796875 35.203125 
C 21.5 40.890625 17.40625 44 13 44 
C 10.09375 44 7.796875 42.59375 5.90625 38.796875 
C 4.09375 35.203125 2.703125 29.125 2.703125 28.71875 
C 2.703125 28.328125 3.09375 27.828125 3.796875 27.828125 
C 4.59375 27.828125 4.703125 27.921875 5.296875 30.21875 
C 6.796875 36.109375 8.703125 41.984375 12.703125 41.984375 
C 15 41.984375 15.796875 40.390625 15.796875 37.40625 
C 15.796875 35.203125 14.796875 31.3125 14.09375 28.234375 
L 11.296875 17.453125 
C 10.90625 15.5625 9.796875 11.0625 9.296875 9.265625 
C 8.59375 6.671875 7.5 1.984375 7.5 1.484375 
C 7.5 0.09375 8.59375 -1 10.09375 -1 
C 11.296875 -1 12.703125 -0.40625 13.5 1.09375 
C 13.703125 1.59375 14.59375 5.078125 15.09375 7.078125 
L 17.296875 16.0625 
z
" id="CMMI12-109"/>
     <path d="M 47.09375 34.953125 
C 46.703125 40.015625 45.59375 43.296875 43.59375 46.1875 
C 40 51.09375 33.703125 54 26.40625 54 
C 12.296875 54 3.09375 42.8125 3.09375 25.5 
C 3.09375 8.671875 12.09375 -2 26.296875 -2 
C 38.796875 -2 46.703125 5.5 47.703125 18.234375 
L 39.296875 18.234375 
C 37.90625 9.875 33.59375 5.6875 26.5 5.6875 
C 17.296875 5.6875 11.796875 13.15625 11.796875 25.5 
C 11.796875 38.53125 17.203125 46.296875 26.296875 46.296875 
C 33.296875 46.296875 37.703125 42.203125 38.703125 34.953125 
z
" id="Nimbus_Sans_L_Regular-99"/>
     <path d="M 7 73 
L 7 0 
L 15.296875 0 
L 15.296875 28.953125 
C 15.296875 39.671875 20.90625 46.6875 29.5 46.6875 
C 32.203125 46.6875 34.90625 45.78125 36.90625 44.28125 
C 39.296875 42.578125 40.296875 40.078125 40.296875 36.375 
L 40.296875 0 
L 48.59375 0 
L 48.59375 39.671875 
C 48.59375 48.484375 42.296875 54 32.09375 54 
C 24.703125 54 20.203125 51.6875 15.296875 45.28125 
L 15.296875 73 
z
" id="Nimbus_Sans_L_Regular-104"/>
     <path d="M 7 52 
L 7 0 
L 15.40625 0 
L 15.40625 28.671875 
C 15.40625 39.671875 21 46.6875 29.59375 46.6875 
C 36.203125 46.6875 40.40625 42.6875 40.40625 36.375 
L 40.40625 0 
L 48.703125 0 
L 48.703125 39.671875 
C 48.703125 48.390625 42.203125 54 32.09375 54 
C 24.296875 54 19.296875 50.984375 14.703125 43.6875 
L 14.703125 52 
z
" id="Nimbus_Sans_L_Regular-110"/>
    </defs>
    <g transform="translate(232.033816 372.559383)scale(0.216 -0.216)">
     <use transform="scale(0.996264)" xlink:href="#Nimbus_Sans_L_Regular-77"/>
     <use transform="translate(82.98843 0)scale(0.996264)" xlink:href="#Nimbus_Sans_L_Regular-105"/>
     <use transform="translate(105.105215 0)scale(0.996264)" xlink:href="#Nimbus_Sans_L_Regular-116"/>
     <use transform="translate(160.495554 0)scale(0.996264)" xlink:href="#CMMI12-102"/>
     <use transform="translate(208.578791 -14.943915)scale(0.697382)" xlink:href="#CMMI12-110"/>
     <use transform="translate(249.339635 -14.943915)scale(0.697382)" xlink:href="#CMMI12-111"/>
     <use transform="translate(282.166196 -14.943915)scale(0.697382)" xlink:href="#CMMI12-109"/>
     <use transform="translate(370.088289 0)scale(0.996264)" xlink:href="#Nimbus_Sans_L_Regular-101"/>
     <use transform="translate(425.479966 0)scale(0.996264)" xlink:href="#Nimbus_Sans_L_Regular-114"/>
     <use transform="translate(458.655196 0)scale(0.996264)" xlink:href="#Nimbus_Sans_L_Regular-114"/>
     <use transform="translate(491.830425 0)scale(0.996264)" xlink:href="#Nimbus_Sans_L_Regular-101"/>
     <use transform="translate(547.222102 0)scale(0.996264)" xlink:href="#Nimbus_Sans_L_Regular-99"/>
     <use transform="translate(597.035303 0)scale(0.996264)" xlink:href="#Nimbus_Sans_L_Regular-104"/>
     <use transform="translate(652.42698 0)scale(0.996264)" xlink:href="#Nimbus_Sans_L_Regular-110"/>
     <use transform="translate(707.818657 0)scale(0.996264)" xlink:href="#Nimbus_Sans_L_Regular-101"/>
     <use transform="translate(763.210334 0)scale(0.996264)" xlink:href="#Nimbus_Sans_L_Regular-116"/>
     <use transform="translate(790.905503 0)scale(0.996264)" xlink:href="#Nimbus_Sans_L_Regular-101"/>
     <use transform="translate(873.99235 0)scale(0.996264)" xlink:href="#Nimbus_Sans_L_Regular-87"/>
     <use transform="translate(965.051011 0)scale(0.996264)" xlink:href="#Nimbus_Sans_L_Regular-101"/>
     <use transform="translate(1020.442688 0)scale(0.996264)" xlink:href="#Nimbus_Sans_L_Regular-114"/>
     <use transform="translate(1057.602016 0)scale(0.996264)" xlink:href="#Nimbus_Sans_L_Regular-116"/>
     <use transform="translate(1085.297186 0)scale(0.996264)" xlink:href="#Nimbus_Sans_L_Regular-101"/>
     <use transform="translate(1168.384032 0)scale(0.996264)" xlink:href="#Nimbus_Sans_L_Regular-102"/>
     <use transform="translate(1207.187433 -0.249309)scale(0.996264)" xlink:href="#Nimbus_Sans_L_Regular-168"/>
     <use transform="translate(1196.079202 0)scale(0.996264)" xlink:href="#Nimbus_Sans_L_Regular-117"/>
     <use transform="translate(1251.470879 0)scale(0.996264)" xlink:href="#Nimbus_Sans_L_Regular-114"/>
     <use transform="translate(1319.57231 39.226102)scale(0.697382)" xlink:href="#CMMI12-98"/>
     <use transform="translate(1313.536792 -34.355253)scale(0.697382)" xlink:href="#CMMI12-102"/>
     <use transform="translate(1355.836329 0)scale(0.996264)" xlink:href="#CMR17-40"/>
     <use transform="translate(1391.117097 0)scale(0.996264)" xlink:href="#CMMI12-12"/>
     <use transform="translate(1451.711113 0)scale(0.996264)" xlink:href="#CMR17-41"/>
     <use transform="translate(1486.99188 0)scale(0.996264)" xlink:href="#CMMI12-59"/>
     <use transform="translate(1534.841147 44.444174)scale(0.697382)" xlink:href="#CMMI12-103"/>
     <use transform="translate(1531.888977 -34.355253)scale(0.697382)" xlink:href="#CMMI12-102"/>
     <use transform="translate(1574.188514 0)scale(0.996264)" xlink:href="#CMR17-40"/>
     <use transform="translate(1609.469281 0)scale(0.996264)" xlink:href="#CMMI12-12"/>
     <use transform="translate(1670.063297 0)scale(0.996264)" xlink:href="#CMR17-41"/>
     <use transform="translate(1705.344065 0)scale(0.996264)" xlink:href="#CMMI12-59"/>
     <use transform="translate(1754.969052 39.226102)scale(0.697382)" xlink:href="#CMMI12-101"/>
     <use transform="translate(1750.241161 -34.355253)scale(0.697382)" xlink:href="#CMMI12-102"/>
     <use transform="translate(1792.540698 0)scale(0.996264)" xlink:href="#CMR17-40"/>
     <use transform="translate(1827.821466 0)scale(0.996264)" xlink:href="#CMMI12-12"/>
     <use transform="translate(1888.415482 0)scale(0.996264)" xlink:href="#CMR17-41"/>
     <path d="M 1313.536792 22.914133 
L 1354.640815 22.914133 
L 1354.640815 26.899083 
L 1313.536792 26.899083 
L 1313.536792 22.914133 
z
"/>
     <path d="M 1531.888977 22.914133 
L 1572.993 22.914133 
L 1572.993 26.899083 
L 1531.888977 26.899083 
L 1531.888977 22.914133 
z
"/>
     <path d="M 1750.241161 22.914133 
L 1791.345184 22.914133 
L 1791.345184 26.899083 
L 1750.241161 26.899083 
L 1750.241161 22.914133 
z
"/>
    </g>
   </g>
   <g id="legend_2">
    <g id="patch_13">
     <path d="M 121.158131 699.615414 
L 768.441869 699.615414 
Q 772.041869 699.615414 772.041869 696.015414 
L 772.041869 631.01 
Q 772.041869 627.41 768.441869 627.41 
L 121.158131 627.41 
Q 117.558131 627.41 117.558131 631.01 
L 117.558131 696.015414 
Q 117.558131 699.615414 121.158131 699.615414 
z
" style="fill:#4c4c4c;opacity:0.5;stroke:#4c4c4c;stroke-linejoin:miter;"/>
    </g>
    <g id="patch_14">
     <path d="M 119.158131 697.615414 
L 766.441869 697.615414 
Q 770.041869 697.615414 770.041869 694.015414 
L 770.041869 629.01 
Q 770.041869 625.41 766.441869 625.41 
L 119.158131 625.41 
Q 115.558131 625.41 115.558131 629.01 
L 115.558131 694.015414 
Q 115.558131 697.615414 119.158131 697.615414 
z
" style="fill:#ffffff;stroke:#cccccc;stroke-linejoin:miter;"/>
    </g>
    <g id="LineCollection_13">
     <path d="M 131.758131 642.087945 
L 149.758131 642.087945 
" style="fill:none;stroke:#80ffdb;stroke-width:1.5;"/>
    </g>
    <g id="LineCollection_14">
     <path d="M 140.758131 651.087945 
L 140.758131 633.087945 
" style="fill:none;stroke:#80ffdb;stroke-width:1.5;"/>
    </g>
    <g id="line2d_54">
     <path d="M 122.758131 642.087945 
L 158.758131 642.087945 
" style="fill:none;stroke:#80ffdb;stroke-linecap:square;stroke-width:1.5;"/>
    </g>
    <g id="line2d_55"/>
    <g id="text_23">
     <!-- NP $\frac{b}{f}(\beta)$ err. -->
     <defs>
      <path d="M 64.59375 73 
L 55.796875 73 
L 55.796875 13.3125 
L 17.703125 73 
L 7.59375 73 
L 7.59375 0 
L 16.40625 0 
L 16.40625 59.171875 
L 54.09375 0 
L 64.59375 0 
z
" id="Nimbus_Sans_L_Regular-78"/>
      <path d="M 18.40625 31 
L 41.296875 31 
C 47 31 51.5 32.6875 55.40625 36.1875 
C 59.796875 40.1875 61.703125 44.890625 61.703125 51.59375 
C 61.703125 65.296875 53.59375 73 39.203125 73 
L 9.09375 73 
L 9.09375 0 
L 18.40625 0 
z
M 18.40625 39.1875 
L 18.40625 64.796875 
L 37.796875 64.796875 
C 46.703125 64.796875 52 59.984375 52 51.984375 
C 52 44 46.703125 39.1875 37.796875 39.1875 
z
" id="Nimbus_Sans_L_Regular-80"/>
     </defs>
     <g transform="translate(173.158131 648.387945)scale(0.18 -0.18)">
      <use transform="scale(0.996264)" xlink:href="#Nimbus_Sans_L_Regular-78"/>
      <use transform="translate(71.929985 0)scale(0.996264)" xlink:href="#Nimbus_Sans_L_Regular-80"/>
      <use transform="translate(173.306217 39.226102)scale(0.697382)" xlink:href="#CMMI12-98"/>
      <use transform="translate(167.270699 -34.355253)scale(0.697382)" xlink:href="#CMMI12-102"/>
      <use transform="translate(209.570236 0)scale(0.996264)" xlink:href="#CMR17-40"/>
      <use transform="translate(244.851004 0)scale(0.996264)" xlink:href="#CMMI12-12"/>
      <use transform="translate(305.44502 0)scale(0.996264)" xlink:href="#CMR17-41"/>
      <use transform="translate(368.420957 0)scale(0.996264)" xlink:href="#Nimbus_Sans_L_Regular-101"/>
      <use transform="translate(423.812634 0)scale(0.996264)" xlink:href="#Nimbus_Sans_L_Regular-114"/>
      <use transform="translate(456.987864 0)scale(0.996264)" xlink:href="#Nimbus_Sans_L_Regular-114"/>
      <use transform="translate(485.181743 0)scale(0.996264)" xlink:href="#Nimbus_Sans_L_Regular-46"/>
      <path d="M 167.270699 22.914133 
L 208.374723 22.914133 
L 208.374723 26.899083 
L 167.270699 26.899083 
L 167.270699 22.914133 
z
"/>
     </g>
    </g>
    <g id="LineCollection_15">
     <path d="M 131.758131 673.146127 
L 149.758131 673.146127 
" style="fill:none;stroke:#e0a458;stroke-width:1.5;"/>
    </g>
    <g id="LineCollection_16">
     <path d="M 140.758131 682.146127 
L 140.758131 664.146127 
" style="fill:none;stroke:#e0a458;stroke-width:1.5;"/>
    </g>
    <g id="line2d_56">
     <path d="M 122.758131 673.146127 
L 158.758131 673.146127 
" style="fill:none;stroke:#e0a458;stroke-linecap:square;stroke-width:1.5;"/>
    </g>
    <g id="line2d_57"/>
    <g id="text_24">
     <!-- NP $\frac{g}{f}(\beta)$ err. -->
     <g transform="translate(173.158131 679.446127)scale(0.18 -0.18)">
      <use transform="scale(0.996264)" xlink:href="#Nimbus_Sans_L_Regular-78"/>
      <use transform="translate(71.929985 0)scale(0.996264)" xlink:href="#Nimbus_Sans_L_Regular-80"/>
      <use transform="translate(170.22287 44.444174)scale(0.697382)" xlink:href="#CMMI12-103"/>
      <use transform="translate(167.270699 -34.355253)scale(0.697382)" xlink:href="#CMMI12-102"/>
      <use transform="translate(209.570236 0)scale(0.996264)" xlink:href="#CMR17-40"/>
      <use transform="translate(244.851004 0)scale(0.996264)" xlink:href="#CMMI12-12"/>
      <use transform="translate(305.44502 0)scale(0.996264)" xlink:href="#CMR17-41"/>
      <use transform="translate(368.420957 0)scale(0.996264)" xlink:href="#Nimbus_Sans_L_Regular-101"/>
      <use transform="translate(423.812634 0)scale(0.996264)" xlink:href="#Nimbus_Sans_L_Regular-114"/>
      <use transform="translate(456.987864 0)scale(0.996264)" xlink:href="#Nimbus_Sans_L_Regular-114"/>
      <use transform="translate(485.181743 0)scale(0.996264)" xlink:href="#Nimbus_Sans_L_Regular-46"/>
      <path d="M 167.270699 22.914133 
L 208.374723 22.914133 
L 208.374723 26.899083 
L 167.270699 26.899083 
L 167.270699 22.914133 
z
"/>
     </g>
    </g>
    <g id="LineCollection_17">
     <path d="M 312.436515 642.087945 
L 330.436515 642.087945 
" style="fill:none;stroke:#c04abc;stroke-width:1.5;"/>
    </g>
    <g id="LineCollection_18">
     <path d="M 321.436515 651.087945 
L 321.436515 633.087945 
" style="fill:none;stroke:#c04abc;stroke-width:1.5;"/>
    </g>
    <g id="line2d_58">
     <path d="M 303.436515 642.087945 
L 339.436515 642.087945 
" style="fill:none;stroke:#c04abc;stroke-linecap:square;stroke-width:1.5;"/>
    </g>
    <g id="line2d_59"/>
    <g id="text_25">
     <!-- NP $\frac{e}{f}(\beta)$ err. -->
     <g transform="translate(353.836515 648.387945)scale(0.18 -0.18)">
      <use transform="scale(0.996264)" xlink:href="#Nimbus_Sans_L_Regular-78"/>
      <use transform="translate(71.929985 0)scale(0.996264)" xlink:href="#Nimbus_Sans_L_Regular-80"/>
      <use transform="translate(171.99859 39.226102)scale(0.697382)" xlink:href="#CMMI12-101"/>
      <use transform="translate(167.270699 -34.355253)scale(0.697382)" xlink:href="#CMMI12-102"/>
      <use transform="translate(209.570236 0)scale(0.996264)" xlink:href="#CMR17-40"/>
      <use transform="translate(244.851004 0)scale(0.996264)" xlink:href="#CMMI12-12"/>
      <use transform="translate(305.44502 0)scale(0.996264)" xlink:href="#CMR17-41"/>
      <use transform="translate(368.420957 0)scale(0.996264)" xlink:href="#Nimbus_Sans_L_Regular-101"/>
      <use transform="translate(423.812634 0)scale(0.996264)" xlink:href="#Nimbus_Sans_L_Regular-114"/>
      <use transform="translate(456.987864 0)scale(0.996264)" xlink:href="#Nimbus_Sans_L_Regular-114"/>
      <use transform="translate(485.181743 0)scale(0.996264)" xlink:href="#Nimbus_Sans_L_Regular-46"/>
      <path d="M 167.270699 22.914133 
L 208.374723 22.914133 
L 208.374723 26.899083 
L 167.270699 26.899083 
L 167.270699 22.914133 
z
"/>
     </g>
    </g>
    <g id="LineCollection_19">
     <path d="M 312.436515 675.490652 
L 330.436515 675.490652 
" style="fill:none;stroke:#094d92;stroke-width:1.5;"/>
    </g>
    <g id="LineCollection_20">
     <path d="M 321.436515 684.490652 
L 321.436515 666.490652 
" style="fill:none;stroke:#094d92;stroke-width:1.5;"/>
    </g>
    <g id="line2d_60">
     <path d="M 303.436515 675.490652 
L 339.436515 675.490652 
" style="fill:none;stroke:#094d92;stroke-linecap:square;stroke-width:1.5;"/>
    </g>
    <g id="line2d_61"/>
    <g id="text_26">
     <!-- RP $\frac{b}{f}(\beta)$ mit $f_{nom}$ err. -->
     <defs>
      <path d="M 18.59375 31.796875 
L 42.59375 31.796875 
C 50.90625 31.796875 54.59375 27.734375 54.59375 18.609375 
L 54.5 12.03125 
C 54.5 7.46875 55.296875 3 56.59375 0 
L 67.90625 0 
L 67.90625 2.296875 
C 64.40625 4.734375 63.703125 7.359375 63.5 17.203125 
C 63.40625 29.359375 61.5 32.984375 53.59375 36.390625 
C 61.796875 40.390625 65.09375 45.421875 65.09375 53.625 
C 65.09375 66.09375 57.203125 73 42.90625 73 
L 9.296875 73 
L 9.296875 0 
L 18.59375 0 
z
M 18.59375 40 
L 18.59375 64.796875 
L 41.09375 64.796875 
C 46.296875 64.796875 49.296875 64 51.59375 62.03125 
C 54.09375 59.953125 55.40625 56.6875 55.40625 52.34375 
C 55.40625 43.84375 51 40 41.09375 40 
z
" id="Nimbus_Sans_L_Regular-82"/>
      <path d="M 7 52 
L 7 0 
L 15.40625 0 
L 15.40625 32.640625 
C 15.40625 40.578125 20.90625 46.6875 27.703125 46.6875 
C 33.90625 46.6875 37.40625 42.875 37.40625 36.171875 
L 37.40625 0 
L 45.796875 0 
L 45.796875 32.953125 
C 45.796875 40.578125 51.296875 46.6875 58.09375 46.6875 
C 64.203125 46.6875 67.796875 42.78125 67.796875 36.171875 
L 67.796875 0 
L 76.203125 0 
L 76.203125 39.375 
C 76.203125 48.796875 70.796875 54 61 54 
C 54 54 49.796875 51.890625 44.90625 45.984375 
C 41.796875 51.59375 37.59375 54 30.796875 54 
C 23.796875 54 19.203125 51.390625 14.703125 45.09375 
L 14.703125 52 
z
" id="Nimbus_Sans_L_Regular-109"/>
     </defs>
     <g transform="translate(353.836515 681.790652)scale(0.18 -0.18)">
      <use transform="scale(0.996264)" xlink:href="#Nimbus_Sans_L_Regular-82"/>
      <use transform="translate(71.929985 0)scale(0.996264)" xlink:href="#Nimbus_Sans_L_Regular-80"/>
      <use transform="translate(173.306217 39.226102)scale(0.697382)" xlink:href="#CMMI12-98"/>
      <use transform="translate(167.270699 -34.355253)scale(0.697382)" xlink:href="#CMMI12-102"/>
      <use transform="translate(209.570236 0)scale(0.996264)" xlink:href="#CMR17-40"/>
      <use transform="translate(244.851004 0)scale(0.996264)" xlink:href="#CMMI12-12"/>
      <use transform="translate(305.44502 0)scale(0.996264)" xlink:href="#CMR17-41"/>
      <use transform="translate(368.420957 0)scale(0.996264)" xlink:href="#Nimbus_Sans_L_Regular-109"/>
      <use transform="translate(451.409388 0)scale(0.996264)" xlink:href="#Nimbus_Sans_L_Regular-105"/>
      <use transform="translate(473.526172 0)scale(0.996264)" xlink:href="#Nimbus_Sans_L_Regular-116"/>
      <use transform="translate(528.916511 0)scale(0.996264)" xlink:href="#CMMI12-102"/>
      <use transform="translate(576.999749 -14.943915)scale(0.697382)" xlink:href="#CMMI12-110"/>
      <use transform="translate(617.760592 -14.943915)scale(0.697382)" xlink:href="#CMMI12-111"/>
      <use transform="translate(650.587154 -14.943915)scale(0.697382)" xlink:href="#CMMI12-109"/>
      <use transform="translate(738.509246 0)scale(0.996264)" xlink:href="#Nimbus_Sans_L_Regular-101"/>
      <use transform="translate(793.900923 0)scale(0.996264)" xlink:href="#Nimbus_Sans_L_Regular-114"/>
      <use transform="translate(827.076153 0)scale(0.996264)" xlink:href="#Nimbus_Sans_L_Regular-114"/>
      <use transform="translate(855.270032 0)scale(0.996264)" xlink:href="#Nimbus_Sans_L_Regular-46"/>
      <path d="M 167.270699 22.914133 
L 208.374723 22.914133 
L 208.374723 26.899083 
L 167.270699 26.899083 
L 167.270699 22.914133 
z
"/>
     </g>
    </g>
    <g id="LineCollection_21">
     <path d="M 560.139192 642.087945 
L 578.139192 642.087945 
" style="fill:none;stroke:#68b684;stroke-width:1.5;"/>
    </g>
    <g id="LineCollection_22">
     <path d="M 569.139192 651.087945 
L 569.139192 633.087945 
" style="fill:none;stroke:#68b684;stroke-width:1.5;"/>
    </g>
    <g id="line2d_62">
     <path d="M 551.139192 642.087945 
L 587.139192 642.087945 
" style="fill:none;stroke:#68b684;stroke-linecap:square;stroke-width:1.5;"/>
    </g>
    <g id="line2d_63"/>
    <g id="text_27">
     <!-- RP $\frac{g}{f}(\beta)$ mit $f_{nom}$ err. -->
     <g transform="translate(601.539192 648.387945)scale(0.18 -0.18)">
      <use transform="scale(0.996264)" xlink:href="#Nimbus_Sans_L_Regular-82"/>
      <use transform="translate(71.929985 0)scale(0.996264)" xlink:href="#Nimbus_Sans_L_Regular-80"/>
      <use transform="translate(170.22287 44.444174)scale(0.697382)" xlink:href="#CMMI12-103"/>
      <use transform="translate(167.270699 -34.355253)scale(0.697382)" xlink:href="#CMMI12-102"/>
      <use transform="translate(209.570236 0)scale(0.996264)" xlink:href="#CMR17-40"/>
      <use transform="translate(244.851004 0)scale(0.996264)" xlink:href="#CMMI12-12"/>
      <use transform="translate(305.44502 0)scale(0.996264)" xlink:href="#CMR17-41"/>
      <use transform="translate(368.420957 0)scale(0.996264)" xlink:href="#Nimbus_Sans_L_Regular-109"/>
      <use transform="translate(451.409388 0)scale(0.996264)" xlink:href="#Nimbus_Sans_L_Regular-105"/>
      <use transform="translate(473.526172 0)scale(0.996264)" xlink:href="#Nimbus_Sans_L_Regular-116"/>
      <use transform="translate(528.916511 0)scale(0.996264)" xlink:href="#CMMI12-102"/>
      <use transform="translate(576.999749 -14.943915)scale(0.697382)" xlink:href="#CMMI12-110"/>
      <use transform="translate(617.760592 -14.943915)scale(0.697382)" xlink:href="#CMMI12-111"/>
      <use transform="translate(650.587154 -14.943915)scale(0.697382)" xlink:href="#CMMI12-109"/>
      <use transform="translate(738.509246 0)scale(0.996264)" xlink:href="#Nimbus_Sans_L_Regular-101"/>
      <use transform="translate(793.900923 0)scale(0.996264)" xlink:href="#Nimbus_Sans_L_Regular-114"/>
      <use transform="translate(827.076153 0)scale(0.996264)" xlink:href="#Nimbus_Sans_L_Regular-114"/>
      <use transform="translate(855.270032 0)scale(0.996264)" xlink:href="#Nimbus_Sans_L_Regular-46"/>
      <path d="M 167.270699 22.914133 
L 208.374723 22.914133 
L 208.374723 26.899083 
L 167.270699 26.899083 
L 167.270699 22.914133 
z
"/>
     </g>
    </g>
    <g id="LineCollection_23">
     <path d="M 560.139192 673.146127 
L 578.139192 673.146127 
" style="fill:none;stroke:#1c1018;stroke-width:1.5;"/>
    </g>
    <g id="LineCollection_24">
     <path d="M 569.139192 682.146127 
L 569.139192 664.146127 
" style="fill:none;stroke:#1c1018;stroke-width:1.5;"/>
    </g>
    <g id="line2d_64">
     <path d="M 551.139192 673.146127 
L 587.139192 673.146127 
" style="fill:none;stroke:#1c1018;stroke-linecap:square;stroke-width:1.5;"/>
    </g>
    <g id="line2d_65"/>
    <g id="text_28">
     <!-- RP $\frac{e}{f}(\beta)$ mit $f_{nom}$ err. -->
     <g transform="translate(601.539192 679.446127)scale(0.18 -0.18)">
      <use transform="scale(0.996264)" xlink:href="#Nimbus_Sans_L_Regular-82"/>
      <use transform="translate(71.929985 0)scale(0.996264)" xlink:href="#Nimbus_Sans_L_Regular-80"/>
      <use transform="translate(171.99859 39.226102)scale(0.697382)" xlink:href="#CMMI12-101"/>
      <use transform="translate(167.270699 -34.355253)scale(0.697382)" xlink:href="#CMMI12-102"/>
      <use transform="translate(209.570236 0)scale(0.996264)" xlink:href="#CMR17-40"/>
      <use transform="translate(244.851004 0)scale(0.996264)" xlink:href="#CMMI12-12"/>
      <use transform="translate(305.44502 0)scale(0.996264)" xlink:href="#CMR17-41"/>
      <use transform="translate(368.420957 0)scale(0.996264)" xlink:href="#Nimbus_Sans_L_Regular-109"/>
      <use transform="translate(451.409388 0)scale(0.996264)" xlink:href="#Nimbus_Sans_L_Regular-105"/>
      <use transform="translate(473.526172 0)scale(0.996264)" xlink:href="#Nimbus_Sans_L_Regular-116"/>
      <use transform="translate(528.916511 0)scale(0.996264)" xlink:href="#CMMI12-102"/>
      <use transform="translate(576.999749 -14.943915)scale(0.697382)" xlink:href="#CMMI12-110"/>
      <use transform="translate(617.760592 -14.943915)scale(0.697382)" xlink:href="#CMMI12-111"/>
      <use transform="translate(650.587154 -14.943915)scale(0.697382)" xlink:href="#CMMI12-109"/>
      <use transform="translate(738.509246 0)scale(0.996264)" xlink:href="#Nimbus_Sans_L_Regular-101"/>
      <use transform="translate(793.900923 0)scale(0.996264)" xlink:href="#Nimbus_Sans_L_Regular-114"/>
      <use transform="translate(827.076153 0)scale(0.996264)" xlink:href="#Nimbus_Sans_L_Regular-114"/>
      <use transform="translate(855.270032 0)scale(0.996264)" xlink:href="#Nimbus_Sans_L_Regular-46"/>
      <path d="M 167.270699 22.914133 
L 208.374723 22.914133 
L 208.374723 26.899083 
L 167.270699 26.899083 
L 167.270699 22.914133 
z
"/>
     </g>
    </g>
   </g>
  </g>
 </g>
 <defs>
  <clipPath id="p5dcea5f99d">
   <rect height="247.090909" width="669.6" x="108" y="86.4"/>
  </clipPath>
  <clipPath id="p4f7ca3475f">
   <rect height="222.381818" width="669.6" x="108" y="382.909091"/>
  </clipPath>
 </defs>
</svg>
