<?xml version="1.0" encoding="utf-8" standalone="no"?>
<!DOCTYPE svg PUBLIC "-//W3C//DTD SVG 1.1//EN"
  "http://www.w3.org/Graphics/SVG/1.1/DTD/svg11.dtd">
<!-- Created with matplotlib (https://matplotlib.org/) -->
<svg height="432pt" version="1.1" viewBox="0 0 720 432" width="720pt" xmlns="http://www.w3.org/2000/svg" xmlns:xlink="http://www.w3.org/1999/xlink">
 <defs>
  <style type="text/css">
*{stroke-linecap:butt;stroke-linejoin:round;}
  </style>
 </defs>
 <g id="figure_1">
  <g id="patch_1">
   <path d="M 0 432 
L 720 432 
L 720 0 
L 0 0 
z
" style="fill:#ffffff;"/>
  </g>
  <g id="axes_1">
   <g id="patch_2">
    <path d="M 90 378 
L 648 378 
L 648 51.84 
L 90 51.84 
z
" style="fill:#ffffff;"/>
   </g>
   <g id="matplotlib.axis_1">
    <g id="xtick_1">
     <g id="line2d_1">
      <path clip-path="url(#p352e2c25d9)" d="M 108.40603 378 
L 108.40603 51.84 
" style="fill:none;stroke:#b0b0b0;stroke-linecap:square;stroke-width:0.8;"/>
     </g>
     <g id="line2d_2">
      <defs>
       <path d="M 0 0 
L 0 3.5 
" id="m6cf66df42d" style="stroke:#000000;stroke-width:0.8;"/>
      </defs>
      <g>
       <use style="stroke:#000000;stroke-width:0.8;" x="108.40603" xlink:href="#m6cf66df42d" y="378"/>
      </g>
     </g>
     <g id="text_1">
      <!-- $\mathdefault{100}$ -->
      <defs>
       <path d="M 26.59375 63.796875 
C 26.59375 65.890625 26.5 66 25.09375 66 
C 21.203125 61.359375 15.296875 59.890625 9.703125 59.6875 
C 9.40625 59.6875 8.90625 59.6875 8.796875 59.5 
C 8.703125 59.296875 8.703125 59.09375 8.703125 57 
C 11.796875 57 17 57.59375 21 59.984375 
L 21 7.296875 
C 21 3.796875 20.796875 2.59375 12.203125 2.59375 
L 9.203125 2.59375 
L 9.203125 0 
C 14 0.09375 19 0.1875 23.796875 0.1875 
C 28.59375 0.1875 33.59375 0.09375 38.40625 0 
L 38.40625 2.59375 
L 35.40625 2.59375 
C 26.796875 2.59375 26.59375 3.6875 26.59375 7.296875 
z
" id="CMR17-49"/>
       <path d="M 42 31.84375 
C 42 37.96875 41.90625 48.421875 37.703125 56.453125 
C 34 63.484375 28.09375 66 22.90625 66 
C 18.09375 66 12 63.78125 8.203125 56.5625 
C 4.203125 49.015625 3.796875 39.671875 3.796875 31.84375 
C 3.796875 26.109375 3.90625 17.375 7 9.734375 
C 11.296875 -0.609375 19 -2 22.90625 -2 
C 27.5 -2 34.5 -0.109375 38.59375 9.4375 
C 41.59375 16.375 42 24.5 42 31.84375 
z
M 22.90625 -0.40625 
C 16.5 -0.40625 12.703125 5.125 11.296875 12.75 
C 10.203125 18.6875 10.203125 27.328125 10.203125 32.953125 
C 10.203125 40.6875 10.203125 47.109375 11.5 53.234375 
C 13.40625 61.78125 19 64.390625 22.90625 64.390625 
C 27 64.390625 32.296875 61.671875 34.203125 53.4375 
C 35.5 47.71875 35.59375 40.984375 35.59375 32.953125 
C 35.59375 26.421875 35.59375 18.375 34.40625 12.453125 
C 32.296875 1.5 26.40625 -0.40625 22.90625 -0.40625 
z
" id="CMR17-48"/>
      </defs>
      <g transform="translate(96.069602 397.776976)scale(0.18 -0.18)">
       <use transform="scale(0.996264)" xlink:href="#CMR17-49"/>
       <use transform="translate(45.690477 0)scale(0.996264)" xlink:href="#CMR17-48"/>
       <use transform="translate(91.380954 0)scale(0.996264)" xlink:href="#CMR17-48"/>
      </g>
     </g>
    </g>
    <g id="xtick_2">
     <g id="line2d_3">
      <path clip-path="url(#p352e2c25d9)" d="M 171.656994 378 
L 171.656994 51.84 
" style="fill:none;stroke:#b0b0b0;stroke-linecap:square;stroke-width:0.8;"/>
     </g>
     <g id="line2d_4">
      <g>
       <use style="stroke:#000000;stroke-width:0.8;" x="171.656994" xlink:href="#m6cf66df42d" y="378"/>
      </g>
     </g>
     <g id="text_2">
      <!-- $\mathdefault{200}$ -->
      <defs>
       <path d="M 41.703125 15.46875 
L 39.90625 15.46875 
C 38.90625 8.390625 38.09375 7.1875 37.703125 6.59375 
C 37.203125 5.796875 30 5.796875 28.59375 5.796875 
L 9.40625 5.796875 
C 13 9.6875 20 16.765625 28.5 24.9375 
C 34.59375 30.71875 41.703125 37.5 41.703125 47.390625 
C 41.703125 59.1875 32.296875 66 21.796875 66 
C 10.796875 66 4.09375 56.296875 4.09375 47.296875 
C 4.09375 43.390625 7 42.890625 8.203125 42.890625 
C 9.203125 42.890625 12.203125 43.484375 12.203125 46.984375 
C 12.203125 50.09375 9.59375 51 8.203125 51 
C 7.59375 51 7 50.890625 6.59375 50.6875 
C 8.5 59.1875 14.296875 63.390625 20.40625 63.390625 
C 29.09375 63.390625 34.796875 56.5 34.796875 47.390625 
C 34.796875 38.703125 29.703125 31.21875 24 24.734375 
L 4.09375 2.296875 
L 4.09375 0 
L 39.296875 0 
z
" id="CMR17-50"/>
      </defs>
      <g transform="translate(159.320565 397.776976)scale(0.18 -0.18)">
       <use transform="scale(0.996264)" xlink:href="#CMR17-50"/>
       <use transform="translate(45.690477 0)scale(0.996264)" xlink:href="#CMR17-48"/>
       <use transform="translate(91.380954 0)scale(0.996264)" xlink:href="#CMR17-48"/>
      </g>
     </g>
    </g>
    <g id="xtick_3">
     <g id="line2d_5">
      <path clip-path="url(#p352e2c25d9)" d="M 234.907957 378 
L 234.907957 51.84 
" style="fill:none;stroke:#b0b0b0;stroke-linecap:square;stroke-width:0.8;"/>
     </g>
     <g id="line2d_6">
      <g>
       <use style="stroke:#000000;stroke-width:0.8;" x="234.907957" xlink:href="#m6cf66df42d" y="378"/>
      </g>
     </g>
     <g id="text_3">
      <!-- $\mathdefault{300}$ -->
      <defs>
       <path d="M 22.09375 34 
C 31 34 34.90625 26.140625 34.90625 17.09375 
C 34.90625 5.03125 28.5 0.390625 22.703125 0.390625 
C 17.40625 0.390625 8.796875 3.015625 6.09375 10.796875 
C 6.59375 10.59375 7.09375 10.59375 7.59375 10.59375 
C 10 10.59375 11.796875 12.1875 11.796875 14.796875 
C 11.796875 17.6875 9.59375 19 7.59375 19 
C 5.90625 19 3.296875 18.1875 3.296875 14.484375 
C 3.296875 5.234375 12.296875 -2 22.90625 -2 
C 34 -2 42.5 6.75 42.5 16.984375 
C 42.5 26.84375 34.5 34 25 35.09375 
C 32.59375 36.671875 39.90625 43.375 39.90625 52.390625 
C 39.90625 60.25 32 66 23 66 
C 13.90625 66 5.90625 60.34375 5.90625 52.296875 
C 5.90625 48.796875 8.5 48.1875 9.796875 48.1875 
C 11.90625 48.1875 13.703125 49.484375 13.703125 52.09375 
C 13.703125 54.6875 11.90625 56 9.796875 56 
C 9.40625 56 8.90625 56 8.5 55.796875 
C 11.40625 62.484375 19.296875 63.6875 22.796875 63.6875 
C 26.296875 63.6875 32.90625 61.96875 32.90625 52.296875 
C 32.90625 49.484375 32.5 44.546875 29.09375 40.21875 
C 26.09375 36.390625 22.703125 36.1875 19.40625 35.890625 
C 18.90625 35.890625 16.59375 35.6875 16.203125 35.6875 
C 15.5 35.59375 15.09375 35.5 15.09375 34.796875 
C 15.09375 34.09375 15.203125 34 17.203125 34 
z
" id="CMR17-51"/>
      </defs>
      <g transform="translate(222.571529 397.776976)scale(0.18 -0.18)">
       <use transform="scale(0.996264)" xlink:href="#CMR17-51"/>
       <use transform="translate(45.690477 0)scale(0.996264)" xlink:href="#CMR17-48"/>
       <use transform="translate(91.380954 0)scale(0.996264)" xlink:href="#CMR17-48"/>
      </g>
     </g>
    </g>
    <g id="xtick_4">
     <g id="line2d_7">
      <path clip-path="url(#p352e2c25d9)" d="M 298.158921 378 
L 298.158921 51.84 
" style="fill:none;stroke:#b0b0b0;stroke-linecap:square;stroke-width:0.8;"/>
     </g>
     <g id="line2d_8">
      <g>
       <use style="stroke:#000000;stroke-width:0.8;" x="298.158921" xlink:href="#m6cf66df42d" y="378"/>
      </g>
     </g>
     <g id="text_4">
      <!-- $\mathdefault{400}$ -->
      <defs>
       <path d="M 33.59375 64.796875 
C 33.59375 66.890625 33.5 67 31.703125 67 
L 2 19.59375 
L 2 17 
L 27.796875 17 
L 27.796875 7.1875 
C 27.796875 3.59375 27.59375 2.59375 20.59375 2.59375 
L 18.703125 2.59375 
L 18.703125 0 
C 21.90625 0.1875 27.296875 0.1875 30.703125 0.1875 
C 34.09375 0.1875 39.5 0.1875 42.703125 0 
L 42.703125 2.59375 
L 40.796875 2.59375 
C 33.796875 2.59375 33.59375 3.59375 33.59375 7.1875 
L 33.59375 17 
L 43.796875 17 
L 43.796875 19.59375 
L 33.59375 19.59375 
z
M 28.09375 58.171875 
L 28.09375 19.59375 
L 4 19.59375 
z
" id="CMR17-52"/>
      </defs>
      <g transform="translate(285.822492 397.776976)scale(0.18 -0.18)">
       <use transform="scale(0.996264)" xlink:href="#CMR17-52"/>
       <use transform="translate(45.690477 0)scale(0.996264)" xlink:href="#CMR17-48"/>
       <use transform="translate(91.380954 0)scale(0.996264)" xlink:href="#CMR17-48"/>
      </g>
     </g>
    </g>
    <g id="xtick_5">
     <g id="line2d_9">
      <path clip-path="url(#p352e2c25d9)" d="M 361.409884 378 
L 361.409884 51.84 
" style="fill:none;stroke:#b0b0b0;stroke-linecap:square;stroke-width:0.8;"/>
     </g>
     <g id="line2d_10">
      <g>
       <use style="stroke:#000000;stroke-width:0.8;" x="361.409884" xlink:href="#m6cf66df42d" y="378"/>
      </g>
     </g>
     <g id="text_5">
      <!-- $\mathdefault{500}$ -->
      <defs>
       <path d="M 11.40625 58.59375 
C 12.40625 58.1875 16.5 56.890625 20.703125 56.890625 
C 30 56.890625 35.09375 61.890625 38 64.6875 
C 38 65.484375 38 66 37.40625 66 
C 37.296875 66 37.09375 66 36.296875 65.59375 
C 32.796875 64.09375 28.703125 63 23.703125 63 
C 20.703125 63 16.203125 63.359375 11.296875 65.484375 
C 10.203125 66 10 66 9.90625 66 
C 9.40625 66 9.296875 65.890625 9.296875 63.90625 
L 9.296875 34.859375 
C 9.296875 33.015625 9.296875 32.5 10.296875 32.5 
C 10.796875 32.5 11 32.703125 11.5 33.421875 
C 14.703125 38.046875 19.09375 40 24.09375 40 
C 27.59375 40 35.09375 37.734375 35.09375 20.203125 
C 35.09375 16.984375 35.09375 11.1875 32.09375 6.59375 
C 29.59375 2.484375 25.703125 0.390625 21.40625 0.390625 
C 14.796875 0.390625 8.09375 4.984375 6.296875 12.6875 
C 6.703125 12.59375 7.5 12.390625 7.90625 12.390625 
C 9.203125 12.390625 11.703125 13.09375 11.703125 16.1875 
C 11.703125 18.890625 9.796875 20 7.90625 20 
C 5.59375 20 4.09375 18.59375 4.09375 15.796875 
C 4.09375 7.09375 11 -2 21.59375 -2 
C 31.90625 -2 41.703125 6.890625 41.703125 19.796875 
C 41.703125 32.09375 33.90625 41.59375 24.203125 41.59375 
C 19.09375 41.59375 14.796875 39.6875 11.40625 36 
z
" id="CMR17-53"/>
      </defs>
      <g transform="translate(349.073456 397.776976)scale(0.18 -0.18)">
       <use transform="scale(0.996264)" xlink:href="#CMR17-53"/>
       <use transform="translate(45.690477 0)scale(0.996264)" xlink:href="#CMR17-48"/>
       <use transform="translate(91.380954 0)scale(0.996264)" xlink:href="#CMR17-48"/>
      </g>
     </g>
    </g>
    <g id="xtick_6">
     <g id="line2d_11">
      <path clip-path="url(#p352e2c25d9)" d="M 424.660848 378 
L 424.660848 51.84 
" style="fill:none;stroke:#b0b0b0;stroke-linecap:square;stroke-width:0.8;"/>
     </g>
     <g id="line2d_12">
      <g>
       <use style="stroke:#000000;stroke-width:0.8;" x="424.660848" xlink:href="#m6cf66df42d" y="378"/>
      </g>
     </g>
     <g id="text_6">
      <!-- $\mathdefault{600}$ -->
      <defs>
       <path d="M 10.59375 34.34375 
C 10.59375 58 21.796875 63.6875 28.296875 63.6875 
C 30.40625 63.6875 35.5 63.265625 37.5 59.09375 
C 35.90625 59.09375 32.90625 59.09375 32.90625 55.59375 
C 32.90625 52.890625 35.09375 52 36.5 52 
C 37.40625 52 40.09375 52.390625 40.09375 55.796875 
C 40.09375 62.296875 35.09375 66 28.203125 66 
C 16.296875 66 3.796875 53.296875 3.796875 31.421875 
C 3.796875 4.015625 15.09375 -2 23.09375 -2 
C 32.796875 -2 42 6.734375 42 20.234375 
C 42 32.828125 33.90625 42 23.703125 42 
C 17.59375 42 13.09375 37.96875 10.59375 30.921875 
z
M 23.09375 0.390625 
C 10.796875 0.390625 10.796875 18.9375 10.796875 22.65625 
C 10.796875 29.90625 14.203125 40.390625 23.5 40.390625 
C 25.203125 40.390625 30.09375 40.390625 33.40625 33.4375 
C 35.203125 29.515625 35.203125 25.375 35.203125 20.34375 
C 35.203125 14.90625 35.203125 10.875 33.09375 6.84375 
C 30.90625 2.703125 27.703125 0.390625 23.09375 0.390625 
z
" id="CMR17-54"/>
      </defs>
      <g transform="translate(412.324419 397.776976)scale(0.18 -0.18)">
       <use transform="scale(0.996264)" xlink:href="#CMR17-54"/>
       <use transform="translate(45.690477 0)scale(0.996264)" xlink:href="#CMR17-48"/>
       <use transform="translate(91.380954 0)scale(0.996264)" xlink:href="#CMR17-48"/>
      </g>
     </g>
    </g>
    <g id="xtick_7">
     <g id="line2d_13">
      <path clip-path="url(#p352e2c25d9)" d="M 487.911811 378 
L 487.911811 51.84 
" style="fill:none;stroke:#b0b0b0;stroke-linecap:square;stroke-width:0.8;"/>
     </g>
     <g id="line2d_14">
      <g>
       <use style="stroke:#000000;stroke-width:0.8;" x="487.911811" xlink:href="#m6cf66df42d" y="378"/>
      </g>
     </g>
     <g id="text_7">
      <!-- $\mathdefault{700}$ -->
      <defs>
       <path d="M 45.09375 61.796875 
L 45.09375 64 
L 21.59375 64 
C 9.90625 64 9.703125 65.09375 9.296875 67 
L 7.5 67 
L 4.59375 48.5 
L 6.40625 48.5 
C 6.703125 50.40625 7.40625 55.5 8.59375 57.390625 
C 9.203125 58.1875 16.59375 58.1875 18.296875 58.1875 
L 40.296875 58.1875 
L 29.203125 41.71875 
C 21.796875 30.640625 16.703125 15.671875 16.703125 2.59375 
C 16.703125 1.390625 16.703125 -2 20.296875 -2 
C 23.90625 -2 23.90625 1.390625 23.90625 2.6875 
L 23.90625 7.28125 
C 23.90625 23.65625 26.703125 34.4375 31.296875 41.3125 
z
" id="CMR17-55"/>
      </defs>
      <g transform="translate(475.575383 397.776976)scale(0.18 -0.18)">
       <use transform="scale(0.996264)" xlink:href="#CMR17-55"/>
       <use transform="translate(45.690477 0)scale(0.996264)" xlink:href="#CMR17-48"/>
       <use transform="translate(91.380954 0)scale(0.996264)" xlink:href="#CMR17-48"/>
      </g>
     </g>
    </g>
    <g id="xtick_8">
     <g id="line2d_15">
      <path clip-path="url(#p352e2c25d9)" d="M 551.162775 378 
L 551.162775 51.84 
" style="fill:none;stroke:#b0b0b0;stroke-linecap:square;stroke-width:0.8;"/>
     </g>
     <g id="line2d_16">
      <g>
       <use style="stroke:#000000;stroke-width:0.8;" x="551.162775" xlink:href="#m6cf66df42d" y="378"/>
      </g>
     </g>
     <g id="text_8">
      <!-- $\mathdefault{800}$ -->
      <defs>
       <path d="M 27.203125 35.765625 
C 33.5 38.96875 39.90625 43.796875 39.90625 51.53125 
C 39.90625 60.6875 31.09375 66 23 66 
C 13.90625 66 5.90625 59.375 5.90625 50.234375 
C 5.90625 47.71875 6.5 43.390625 10.40625 39.578125 
C 11.40625 38.578125 15.59375 35.5625 18.296875 33.65625 
C 13.796875 31.34375 3.296875 25.8125 3.296875 14.765625 
C 3.296875 4.40625 13.09375 -2 22.796875 -2 
C 33.5 -2 42.5 5.71875 42.5 15.96875 
C 42.5 25.109375 36.40625 29.328125 32.40625 32.046875 
z
M 14.09375 44.609375 
C 13.296875 45.109375 9.296875 48.21875 9.296875 52.9375 
C 9.296875 59.078125 15.59375 63.6875 22.796875 63.6875 
C 30.703125 63.6875 36.5 58.0625 36.5 51.53125 
C 36.5 42.1875 26.09375 36.859375 25.59375 36.859375 
C 25.5 36.859375 25.40625 36.859375 24.59375 37.46875 
z
M 32.5 24 
C 34 22.90625 38.796875 19.578125 38.796875 13.453125 
C 38.796875 6.015625 31.40625 0.390625 23 0.390625 
C 13.90625 0.390625 7 6.921875 7 14.859375 
C 7 22.796875 13.09375 29.4375 20 32.546875 
z
" id="CMR17-56"/>
      </defs>
      <g transform="translate(538.826346 397.776976)scale(0.18 -0.18)">
       <use transform="scale(0.996264)" xlink:href="#CMR17-56"/>
       <use transform="translate(45.690477 0)scale(0.996264)" xlink:href="#CMR17-48"/>
       <use transform="translate(91.380954 0)scale(0.996264)" xlink:href="#CMR17-48"/>
      </g>
     </g>
    </g>
    <g id="xtick_9">
     <g id="line2d_17">
      <path clip-path="url(#p352e2c25d9)" d="M 614.413738 378 
L 614.413738 51.84 
" style="fill:none;stroke:#b0b0b0;stroke-linecap:square;stroke-width:0.8;"/>
     </g>
     <g id="line2d_18">
      <g>
       <use style="stroke:#000000;stroke-width:0.8;" x="614.413738" xlink:href="#m6cf66df42d" y="378"/>
      </g>
     </g>
     <g id="text_9">
      <!-- $\mathdefault{900}$ -->
      <defs>
       <path d="M 35.203125 29.234375 
C 35.203125 7 26.09375 0.390625 18.59375 0.390625 
C 16.296875 0.390625 10.703125 0.671875 8.40625 4.390625 
C 11 4 12.90625 5.390625 12.90625 7.890625 
C 12.90625 10.59375 10.703125 11.5 9.296875 11.5 
C 8.40625 11.5 5.703125 11.09375 5.703125 7.6875 
C 5.703125 1.0625 11.59375 -2 18.796875 -2 
C 30.296875 -2 42 10.390625 42 32.65625 
C 42 60.265625 30.796875 66 23.203125 66 
C 13.296875 66 3.796875 57.25 3.796875 43.75 
C 3.796875 31.25 11.90625 22 22.09375 22 
C 30.5 22 34.203125 29.84375 35.203125 33.15625 
z
M 22.296875 23.59375 
C 19.59375 23.59375 15.796875 24.09375 12.703125 30.140625 
C 10.59375 34.078125 10.59375 38.703125 10.59375 43.640625 
C 10.59375 49.59375 10.59375 53.71875 13.40625 58.15625 
C 14.796875 60.265625 17.40625 63.6875 23.203125 63.6875 
C 35 63.6875 35 45.453125 35 41.421875 
C 35 34.265625 31.796875 23.59375 22.296875 23.59375 
z
" id="CMR17-57"/>
      </defs>
      <g transform="translate(602.07731 397.776976)scale(0.18 -0.18)">
       <use transform="scale(0.996264)" xlink:href="#CMR17-57"/>
       <use transform="translate(45.690477 0)scale(0.996264)" xlink:href="#CMR17-48"/>
       <use transform="translate(91.380954 0)scale(0.996264)" xlink:href="#CMR17-48"/>
      </g>
     </g>
    </g>
    <g id="text_10">
     <!-- $\varrho$ [mm] -->
     <defs>
      <path d="M 12.40625 10.171875 
C 14.296875 2.390625 19.40625 -1 24.90625 -1 
C 36.5 -1 49.09375 13.15625 49.09375 28.03125 
C 49.09375 38.703125 42.59375 44 35.703125 44 
C 27.703125 44 16.59375 36.015625 12.796875 21.25 
C 8.796875 5.484375 7.296875 -2.6875 7.296875 -7.75 
C 7.296875 -11.109375 7.296875 -17.40625 20.796875 -17.40625 
C 24.296875 -17.40625 27 -17.015625 30.40625 -17.015625 
C 32.5 -17.015625 34.59375 -17.015625 35 -17.8125 
C 35.09375 -18.015625 35 -18.3125 35.09375 -18.3125 
C 35.09375 -19.015625 35.5 -19.3125 36.09375 -19.3125 
C 36.703125 -19.3125 37.5 -19.3125 37.5 -16.703125 
C 37.5 -12 33.09375 -12 23.40625 -12 
C 12.296875 -12 10 -11.015625 10 -5.171875 
C 10 -0.609375 11.5 6.484375 12.40625 10.171875 
z
M 25 1 
C 19.59375 1 17.59375 6.578125 17.59375 11.46875 
C 17.59375 14.953125 19.296875 24.734375 22.90625 31.71875 
C 25.59375 37.109375 30.703125 41.984375 35.59375 41.984375 
C 40.09375 41.984375 42.59375 37.90625 42.59375 32.015625 
C 42.59375 26.9375 39.90625 17.046875 38.203125 12.859375 
C 35 5.578125 29.59375 1 25 1 
z
" id="CMMI12-37"/>
      <path d="M 25 73 
L 6.40625 73 
L 6.40625 -21.203125 
L 25 -21.203125 
L 25 -14 
L 14.703125 -14 
L 14.703125 65.796875 
L 25 65.796875 
z
" id="Nimbus_Sans_L_Regular-91"/>
      <path d="M 7 52 
L 7 0 
L 15.40625 0 
L 15.40625 32.640625 
C 15.40625 40.578125 20.90625 46.6875 27.703125 46.6875 
C 33.90625 46.6875 37.40625 42.875 37.40625 36.171875 
L 37.40625 0 
L 45.796875 0 
L 45.796875 32.953125 
C 45.796875 40.578125 51.296875 46.6875 58.09375 46.6875 
C 64.203125 46.6875 67.796875 42.78125 67.796875 36.171875 
L 67.796875 0 
L 76.203125 0 
L 76.203125 39.375 
C 76.203125 48.796875 70.796875 54 61 54 
C 54 54 49.796875 51.890625 44.90625 45.984375 
C 41.796875 51.59375 37.59375 54 30.796875 54 
C 23.796875 54 19.203125 51.390625 14.703125 45.09375 
L 14.703125 52 
z
" id="Nimbus_Sans_L_Regular-109"/>
      <path d="M 2.296875 -21.203125 
L 20.90625 -21.203125 
L 20.90625 73 
L 2.296875 73 
L 2.296875 65.796875 
L 12.59375 65.796875 
L 12.59375 -14 
L 2.296875 -14 
z
" id="Nimbus_Sans_L_Regular-93"/>
     </defs>
     <g transform="translate(345.049858 416.953858)scale(0.16 -0.16)">
      <use transform="scale(0.996264)" xlink:href="#CMMI12-37"/>
      <use transform="translate(78.009542 0)scale(0.996264)" xlink:href="#Nimbus_Sans_L_Regular-91"/>
      <use transform="translate(105.704712 0)scale(0.996264)" xlink:href="#Nimbus_Sans_L_Regular-109"/>
      <use transform="translate(188.693142 0)scale(0.996264)" xlink:href="#Nimbus_Sans_L_Regular-109"/>
      <use transform="translate(271.681573 0)scale(0.996264)" xlink:href="#Nimbus_Sans_L_Regular-93"/>
     </g>
    </g>
   </g>
   <g id="matplotlib.axis_2">
    <g id="ytick_1">
     <g id="line2d_19">
      <path clip-path="url(#p352e2c25d9)" d="M 90 327.379014 
L 648 327.379014 
" style="fill:none;stroke:#b0b0b0;stroke-linecap:square;stroke-width:0.8;"/>
     </g>
     <g id="line2d_20">
      <defs>
       <path d="M 0 0 
L -3.5 0 
" id="m9f8c4cb988" style="stroke:#000000;stroke-width:0.8;"/>
      </defs>
      <g>
       <use style="stroke:#000000;stroke-width:0.8;" x="90" xlink:href="#m9f8c4cb988" y="327.379014"/>
      </g>
     </g>
     <g id="text_11">
      <!-- $\mathdefault{3.4}$ -->
      <defs>
       <path d="M 18.40625 4.796875 
C 18.40625 7.6875 16 9.6875 13.59375 9.6875 
C 10.703125 9.6875 8.703125 7.296875 8.703125 4.890625 
C 8.703125 2 11.09375 0 13.5 0 
C 16.40625 0 18.40625 2.390625 18.40625 4.796875 
z
" id="CMMI12-58"/>
      </defs>
      <g transform="translate(61.673936 333.767502)scale(0.18 -0.18)">
       <use transform="scale(0.996264)" xlink:href="#CMR17-51"/>
       <use transform="translate(45.690477 0)scale(0.996264)" xlink:href="#CMMI12-58"/>
       <use transform="translate(72.787654 0)scale(0.996264)" xlink:href="#CMR17-52"/>
      </g>
     </g>
    </g>
    <g id="ytick_2">
     <g id="line2d_21">
      <path clip-path="url(#p352e2c25d9)" d="M 90 272.312293 
L 648 272.312293 
" style="fill:none;stroke:#b0b0b0;stroke-linecap:square;stroke-width:0.8;"/>
     </g>
     <g id="line2d_22">
      <g>
       <use style="stroke:#000000;stroke-width:0.8;" x="90" xlink:href="#m9f8c4cb988" y="272.312293"/>
      </g>
     </g>
     <g id="text_12">
      <!-- $\mathdefault{3.6}$ -->
      <g transform="translate(61.673936 278.700781)scale(0.18 -0.18)">
       <use transform="scale(0.996264)" xlink:href="#CMR17-51"/>
       <use transform="translate(45.690477 0)scale(0.996264)" xlink:href="#CMMI12-58"/>
       <use transform="translate(72.787654 0)scale(0.996264)" xlink:href="#CMR17-54"/>
      </g>
     </g>
    </g>
    <g id="ytick_3">
     <g id="line2d_23">
      <path clip-path="url(#p352e2c25d9)" d="M 90 217.245572 
L 648 217.245572 
" style="fill:none;stroke:#b0b0b0;stroke-linecap:square;stroke-width:0.8;"/>
     </g>
     <g id="line2d_24">
      <g>
       <use style="stroke:#000000;stroke-width:0.8;" x="90" xlink:href="#m9f8c4cb988" y="217.245572"/>
      </g>
     </g>
     <g id="text_13">
      <!-- $\mathdefault{3.8}$ -->
      <g transform="translate(61.673936 223.63406)scale(0.18 -0.18)">
       <use transform="scale(0.996264)" xlink:href="#CMR17-51"/>
       <use transform="translate(45.690477 0)scale(0.996264)" xlink:href="#CMMI12-58"/>
       <use transform="translate(72.787654 0)scale(0.996264)" xlink:href="#CMR17-56"/>
      </g>
     </g>
    </g>
    <g id="ytick_4">
     <g id="line2d_25">
      <path clip-path="url(#p352e2c25d9)" d="M 90 162.178851 
L 648 162.178851 
" style="fill:none;stroke:#b0b0b0;stroke-linecap:square;stroke-width:0.8;"/>
     </g>
     <g id="line2d_26">
      <g>
       <use style="stroke:#000000;stroke-width:0.8;" x="90" xlink:href="#m9f8c4cb988" y="162.178851"/>
      </g>
     </g>
     <g id="text_14">
      <!-- $\mathdefault{4.0}$ -->
      <g transform="translate(61.673936 168.567339)scale(0.18 -0.18)">
       <use transform="scale(0.996264)" xlink:href="#CMR17-52"/>
       <use transform="translate(45.690477 0)scale(0.996264)" xlink:href="#CMMI12-58"/>
       <use transform="translate(72.787654 0)scale(0.996264)" xlink:href="#CMR17-48"/>
      </g>
     </g>
    </g>
    <g id="ytick_5">
     <g id="line2d_27">
      <path clip-path="url(#p352e2c25d9)" d="M 90 107.11213 
L 648 107.11213 
" style="fill:none;stroke:#b0b0b0;stroke-linecap:square;stroke-width:0.8;"/>
     </g>
     <g id="line2d_28">
      <g>
       <use style="stroke:#000000;stroke-width:0.8;" x="90" xlink:href="#m9f8c4cb988" y="107.11213"/>
      </g>
     </g>
     <g id="text_15">
      <!-- $\mathdefault{4.2}$ -->
      <g transform="translate(61.673936 113.500618)scale(0.18 -0.18)">
       <use transform="scale(0.996264)" xlink:href="#CMR17-52"/>
       <use transform="translate(45.690477 0)scale(0.996264)" xlink:href="#CMMI12-58"/>
       <use transform="translate(72.787654 0)scale(0.996264)" xlink:href="#CMR17-50"/>
      </g>
     </g>
    </g>
    <g id="ytick_6">
     <g id="line2d_29">
      <path clip-path="url(#p352e2c25d9)" d="M 90 52.045409 
L 648 52.045409 
" style="fill:none;stroke:#b0b0b0;stroke-linecap:square;stroke-width:0.8;"/>
     </g>
     <g id="line2d_30">
      <g>
       <use style="stroke:#000000;stroke-width:0.8;" x="90" xlink:href="#m9f8c4cb988" y="52.045409"/>
      </g>
     </g>
     <g id="text_16">
      <!-- $\mathdefault{4.4}$ -->
      <g transform="translate(61.673936 58.433898)scale(0.18 -0.18)">
       <use transform="scale(0.996264)" xlink:href="#CMR17-52"/>
       <use transform="translate(45.690477 0)scale(0.996264)" xlink:href="#CMMI12-58"/>
       <use transform="translate(72.787654 0)scale(0.996264)" xlink:href="#CMR17-52"/>
      </g>
     </g>
    </g>
    <g id="text_17">
     <!-- $\omega_{geg} [\frac{1}{s}]$ -->
     <defs>
      <path d="M 59.40625 37.59375 
C 59.40625 40.5 58.59375 44.1875 55.09375 44.1875 
C 53.09375 44.1875 50.796875 41.6875 50.796875 39.6875 
C 50.796875 38.796875 51.203125 38.1875 52 37.296875 
C 53.5 35.59375 55.40625 32.890625 55.40625 28.1875 
C 55.40625 24.59375 53.203125 18.890625 51.59375 15.796875 
C 48.796875 10.296875 44.203125 5.59375 39 5.59375 
C 32.703125 5.59375 30.296875 9.59375 29.203125 15.1875 
C 30.296875 17.796875 32.59375 24.296875 32.59375 26.890625 
C 32.59375 28 32.203125 28.890625 30.90625 28.890625 
C 30.203125 28.890625 29.40625 28.5 28.90625 27.6875 
C 27.5 25.5 26.203125 17.59375 26.296875 15.5 
C 24.40625 11.796875 19 5.59375 12.59375 5.59375 
C 5.90625 5.59375 4.09375 11.5 4.09375 17.1875 
C 4.09375 27.59375 10.59375 36.6875 12.40625 39.1875 
C 13.40625 40.6875 14.09375 41.6875 14.09375 41.890625 
C 14.09375 42.59375 13.703125 43.6875 12.796875 43.6875 
C 11.203125 43.6875 10.703125 42.390625 9.90625 41.1875 
C 4.796875 33.296875 1.203125 22.1875 1.203125 12.59375 
C 1.203125 6.390625 3.5 -1 11 -1 
C 19.296875 -1 24.5 6.09375 26.59375 9.890625 
C 27.40625 4.296875 30.40625 -1 37.703125 -1 
C 45.296875 -1 50.09375 5.6875 53.703125 13.796875 
C 56.296875 19.59375 59.40625 32.09375 59.40625 37.59375 
z
" id="CMMI12-33"/>
      <path d="M 33.796875 12.671875 
C 33.40625 11.0625 33.203125 10.671875 31.90625 9.171875 
C 27.796875 3.890625 23.59375 2 20.5 2 
C 17.203125 2 14.09375 4.578125 14.09375 11.46875 
C 14.09375 16.75 17.09375 27.921875 19.296875 32.421875 
C 22.203125 38 26.703125 41.984375 30.90625 41.984375 
C 37.5 41.984375 38.796875 33.8125 38.796875 33.21875 
L 38.5 31.8125 
z
M 40 37.40625 
C 38.703125 40.296875 35.90625 44 30.90625 44 
C 20 44 7.59375 30.328125 7.59375 15.453125 
C 7.59375 5.078125 13.90625 0 20.296875 0 
C 25.59375 0 30.296875 4.1875 32.09375 6.1875 
L 29.90625 -2.75 
C 28.5 -8.125 27.90625 -10.578125 24.296875 -14 
C 20.203125 -18 16.40625 -18 14.203125 -18 
C 11.203125 -18 8.703125 -17.8125 6.203125 -17.03125 
C 9.40625 -16.15625 10.203125 -13.40625 10.203125 -12.328125 
C 10.203125 -10.765625 9 -9.203125 6.796875 -9.203125 
C 4.40625 -9.203125 1.796875 -11.15625 1.796875 -14.390625 
C 1.796875 -18.40625 5.90625 -20 14.40625 -20 
C 27.296875 -20 34 -11.84375 35.296875 -6.5625 
L 46.40625 37.90625 
C 46.703125 39.09375 46.703125 39.296875 46.703125 39.5 
C 46.703125 40.890625 45.59375 42 44.09375 42 
C 41.703125 42 40.296875 40 40 37.3125 
z
" id="CMMI12-103"/>
      <path d="M 17.90625 23 
C 20.59375 23 27.40625 23.1875 32.203125 25 
C 39.796875 27.90625 40.5 33.75 40.5 35.546875 
C 40.5 39.984375 36.703125 44 30.09375 44 
C 19.59375 44 4.5 34.453125 4.5 16.65625 
C 4.5 6.25 10.5 -1 19.59375 -1 
C 33.203125 -1 41.796875 9.515625 41.796875 10.796875 
C 41.796875 11.390625 41.203125 11.890625 40.796875 11.890625 
C 40.5 11.890625 40.40625 11.796875 39.5 10.90625 
C 33.09375 2.484375 23.59375 1 19.796875 1 
C 14.09375 1 11.09375 5.453125 11.09375 12.78125 
C 11.09375 14.171875 11.09375 16.65625 12.59375 23 
z
M 13.09375 25 
C 17.40625 40.484375 26.90625 41.984375 30.09375 41.984375 
C 34.5 41.984375 37.5 39.375 37.5 35.546875 
C 37.5 25 21.5 25 17.296875 25 
z
" id="CMMI12-101"/>
      <path d="M 23.5 -25 
L 23.5 -21.5 
L 14.09375 -21.5 
L 14.09375 71.484375 
L 23.5 71.484375 
L 23.5 75 
L 10.59375 75 
L 10.59375 -25 
z
" id="CMR17-91"/>
      <path d="M 22.796875 20.15625 
C 24.5 19.859375 27.203125 19.265625 27.796875 19.171875 
C 29.09375 18.765625 33.59375 17.171875 33.59375 12.390625 
C 33.59375 9.296875 30.796875 1 19.203125 1 
C 17.09375 1 9.59375 1.296875 7.59375 6.984375 
C 11.59375 6.46875 13.59375 9.59375 13.59375 11.796875 
C 13.59375 13.890625 12.203125 15 10.203125 15 
C 8 15 5.09375 13.296875 5.09375 8.796875 
C 5.09375 2.75 11.09375 -1 19.09375 -1 
C 34.296875 -1 38.796875 10.390625 38.796875 15.59375 
C 38.796875 17.078125 38.796875 19.859375 35.59375 23.046875 
C 33.09375 25.421875 30.703125 25.921875 25.296875 27.015625 
C 22.59375 27.609375 18.296875 28.5 18.296875 32.984375 
C 18.296875 34.984375 20.09375 41.984375 29.59375 41.984375 
C 33.796875 41.984375 37.90625 40.453125 38.90625 37 
C 34.5 37 34.296875 33.1875 34.296875 33.09375 
C 34.296875 30.984375 36.203125 30.390625 37.09375 30.390625 
C 38.5 30.390625 41.296875 31.484375 41.296875 35.6875 
C 41.296875 39.78125 37.5 44 29.703125 44 
C 16.59375 44 13.09375 33.890625 13.09375 29.796875 
C 13.09375 22.25 20.5 20.65625 22.796875 20.15625 
z
" id="CMMI12-115"/>
      <path d="M 14.296875 75 
L 1.40625 75 
L 1.40625 71.484375 
L 10.796875 71.484375 
L 10.796875 -21.5 
L 1.40625 -21.5 
L 1.40625 -25 
L 14.296875 -25 
z
" id="CMR17-93"/>
     </defs>
     <g transform="translate(52.177093 236.669327)rotate(-90)scale(0.16 -0.16)">
      <use transform="scale(0.996264)" xlink:href="#CMMI12-33"/>
      <use transform="translate(60.743753 -14.943915)scale(0.697382)" xlink:href="#CMMI12-103"/>
      <use transform="translate(95.943435 -14.943915)scale(0.697382)" xlink:href="#CMMI12-101"/>
      <use transform="translate(127.591691 -14.943915)scale(0.697382)" xlink:href="#CMMI12-103"/>
      <use transform="translate(163.289505 0)scale(0.996264)" xlink:href="#CMR17-91"/>
      <use transform="translate(189.446938 39.226102)scale(0.697382)" xlink:href="#CMR17-49"/>
      <use transform="translate(189.356077 -34.355253)scale(0.697382)" xlink:href="#CMMI12-115"/>
      <use transform="translate(222.716479 0)scale(0.996264)" xlink:href="#CMR17-93"/>
      <path d="M 189.356077 22.914133 
L 221.520966 22.914133 
L 221.520966 26.899083 
L 189.356077 26.899083 
L 189.356077 22.914133 
z
"/>
     </g>
    </g>
   </g>
   <g id="LineCollection_1">
    <path clip-path="url(#p352e2c25d9)" d="M 115.363636 341.126436 
L 116.628656 341.126436 
" style="fill:none;stroke:#094d92;"/>
    <path clip-path="url(#p352e2c25d9)" d="M 178.6146 332.935363 
L 179.879619 332.935363 
" style="fill:none;stroke:#094d92;"/>
    <path clip-path="url(#p352e2c25d9)" d="M 241.865563 319.838534 
L 243.130583 319.838534 
" style="fill:none;stroke:#094d92;"/>
    <path clip-path="url(#p352e2c25d9)" d="M 305.116527 302.036403 
L 306.381546 302.036403 
" style="fill:none;stroke:#094d92;"/>
    <path clip-path="url(#p352e2c25d9)" d="M 368.36749 279.784385 
L 369.63251 279.784385 
" style="fill:none;stroke:#094d92;"/>
    <path clip-path="url(#p352e2c25d9)" d="M 431.618454 253.376514 
L 432.883473 253.376514 
" style="fill:none;stroke:#094d92;"/>
    <path clip-path="url(#p352e2c25d9)" d="M 494.869417 223.129202 
L 496.134437 223.129202 
" style="fill:none;stroke:#094d92;"/>
    <path clip-path="url(#p352e2c25d9)" d="M 558.120381 189.366751 
L 559.3854 189.366751 
" style="fill:none;stroke:#094d92;"/>
    <path clip-path="url(#p352e2c25d9)" d="M 621.371344 152.409551 
L 622.636364 152.409551 
" style="fill:none;stroke:#094d92;"/>
   </g>
   <g id="LineCollection_2">
    <path clip-path="url(#p352e2c25d9)" d="M 115.996146 346.332217 
L 115.996146 335.920655 
" style="fill:none;stroke:#094d92;"/>
    <path clip-path="url(#p352e2c25d9)" d="M 179.247109 338.10343 
L 179.247109 327.767295 
" style="fill:none;stroke:#094d92;"/>
    <path clip-path="url(#p352e2c25d9)" d="M 242.498073 324.9649 
L 242.498073 314.712168 
" style="fill:none;stroke:#094d92;"/>
    <path clip-path="url(#p352e2c25d9)" d="M 305.749036 307.14201 
L 305.749036 296.930796 
" style="fill:none;stroke:#094d92;"/>
    <path clip-path="url(#p352e2c25d9)" d="M 369 284.919591 
L 369 274.649179 
" style="fill:none;stroke:#094d92;"/>
    <path clip-path="url(#p352e2c25d9)" d="M 432.250964 258.620235 
L 432.250964 248.132792 
" style="fill:none;stroke:#094d92;"/>
    <path clip-path="url(#p352e2c25d9)" d="M 495.501927 228.582116 
L 495.501927 217.676289 
" style="fill:none;stroke:#094d92;"/>
    <path clip-path="url(#p352e2c25d9)" d="M 558.752891 195.140235 
L 558.752891 183.593267 
" style="fill:none;stroke:#094d92;"/>
    <path clip-path="url(#p352e2c25d9)" d="M 622.003854 158.614008 
L 622.003854 146.205094 
" style="fill:none;stroke:#094d92;"/>
   </g>
   <g id="LineCollection_3">
    <path clip-path="url(#p352e2c25d9)" d="M 115.363636 338.394521 
L 116.628656 338.394521 
" style="fill:none;stroke:#419d78;"/>
    <path clip-path="url(#p352e2c25d9)" d="M 178.6146 323.821765 
L 179.879619 323.821765 
" style="fill:none;stroke:#419d78;"/>
    <path clip-path="url(#p352e2c25d9)" d="M 241.865563 304.016842 
L 243.130583 304.016842 
" style="fill:none;stroke:#419d78;"/>
    <path clip-path="url(#p352e2c25d9)" d="M 305.116527 291.618854 
L 306.381546 291.618854 
" style="fill:none;stroke:#419d78;"/>
    <path clip-path="url(#p352e2c25d9)" d="M 368.36749 252.424982 
L 369.63251 252.424982 
" style="fill:none;stroke:#419d78;"/>
    <path clip-path="url(#p352e2c25d9)" d="M 431.618454 214.409534 
L 432.883473 214.409534 
" style="fill:none;stroke:#419d78;"/>
    <path clip-path="url(#p352e2c25d9)" d="M 494.869417 185.649058 
L 496.134437 185.649058 
" style="fill:none;stroke:#419d78;"/>
    <path clip-path="url(#p352e2c25d9)" d="M 558.120381 130.591161 
L 559.3854 130.591161 
" style="fill:none;stroke:#419d78;"/>
    <path clip-path="url(#p352e2c25d9)" d="M 621.371344 91.445479 
L 622.636364 91.445479 
" style="fill:none;stroke:#419d78;"/>
   </g>
   <g id="LineCollection_4">
    <path clip-path="url(#p352e2c25d9)" d="M 115.996146 363.174545 
L 115.996146 313.614497 
" style="fill:none;stroke:#419d78;"/>
    <path clip-path="url(#p352e2c25d9)" d="M 179.247109 348.60179 
L 179.247109 299.041741 
" style="fill:none;stroke:#419d78;"/>
    <path clip-path="url(#p352e2c25d9)" d="M 242.498073 328.796866 
L 242.498073 279.236817 
" style="fill:none;stroke:#419d78;"/>
    <path clip-path="url(#p352e2c25d9)" d="M 305.749036 316.398878 
L 305.749036 266.83883 
" style="fill:none;stroke:#419d78;"/>
    <path clip-path="url(#p352e2c25d9)" d="M 369 277.205007 
L 369 227.644958 
" style="fill:none;stroke:#419d78;"/>
    <path clip-path="url(#p352e2c25d9)" d="M 432.250964 239.189559 
L 432.250964 189.62951 
" style="fill:none;stroke:#419d78;"/>
    <path clip-path="url(#p352e2c25d9)" d="M 495.501927 210.429083 
L 495.501927 160.869034 
" style="fill:none;stroke:#419d78;"/>
    <path clip-path="url(#p352e2c25d9)" d="M 558.752891 155.371186 
L 558.752891 105.811137 
" style="fill:none;stroke:#419d78;"/>
    <path clip-path="url(#p352e2c25d9)" d="M 622.003854 116.225503 
L 622.003854 66.665455 
" style="fill:none;stroke:#419d78;"/>
   </g>
   <g id="line2d_31">
    <defs>
     <path d="M 0 3 
L 0 -3 
" id="mff77691d4e" style="stroke:#094d92;"/>
    </defs>
    <g clip-path="url(#p352e2c25d9)">
     <use style="fill:#094d92;stroke:#094d92;" x="115.363636" xlink:href="#mff77691d4e" y="341.126436"/>
     <use style="fill:#094d92;stroke:#094d92;" x="178.6146" xlink:href="#mff77691d4e" y="332.935363"/>
     <use style="fill:#094d92;stroke:#094d92;" x="241.865563" xlink:href="#mff77691d4e" y="319.838534"/>
     <use style="fill:#094d92;stroke:#094d92;" x="305.116527" xlink:href="#mff77691d4e" y="302.036403"/>
     <use style="fill:#094d92;stroke:#094d92;" x="368.36749" xlink:href="#mff77691d4e" y="279.784385"/>
     <use style="fill:#094d92;stroke:#094d92;" x="431.618454" xlink:href="#mff77691d4e" y="253.376514"/>
     <use style="fill:#094d92;stroke:#094d92;" x="494.869417" xlink:href="#mff77691d4e" y="223.129202"/>
     <use style="fill:#094d92;stroke:#094d92;" x="558.120381" xlink:href="#mff77691d4e" y="189.366751"/>
     <use style="fill:#094d92;stroke:#094d92;" x="621.371344" xlink:href="#mff77691d4e" y="152.409551"/>
    </g>
   </g>
   <g id="line2d_32">
    <g clip-path="url(#p352e2c25d9)">
     <use style="fill:#094d92;stroke:#094d92;" x="116.628656" xlink:href="#mff77691d4e" y="341.126436"/>
     <use style="fill:#094d92;stroke:#094d92;" x="179.879619" xlink:href="#mff77691d4e" y="332.935363"/>
     <use style="fill:#094d92;stroke:#094d92;" x="243.130583" xlink:href="#mff77691d4e" y="319.838534"/>
     <use style="fill:#094d92;stroke:#094d92;" x="306.381546" xlink:href="#mff77691d4e" y="302.036403"/>
     <use style="fill:#094d92;stroke:#094d92;" x="369.63251" xlink:href="#mff77691d4e" y="279.784385"/>
     <use style="fill:#094d92;stroke:#094d92;" x="432.883473" xlink:href="#mff77691d4e" y="253.376514"/>
     <use style="fill:#094d92;stroke:#094d92;" x="496.134437" xlink:href="#mff77691d4e" y="223.129202"/>
     <use style="fill:#094d92;stroke:#094d92;" x="559.3854" xlink:href="#mff77691d4e" y="189.366751"/>
     <use style="fill:#094d92;stroke:#094d92;" x="622.636364" xlink:href="#mff77691d4e" y="152.409551"/>
    </g>
   </g>
   <g id="line2d_33">
    <defs>
     <path d="M 3 0 
L -3 -0 
" id="m8e67f1fa71" style="stroke:#094d92;"/>
    </defs>
    <g clip-path="url(#p352e2c25d9)">
     <use style="fill:#094d92;stroke:#094d92;" x="115.996146" xlink:href="#m8e67f1fa71" y="346.332217"/>
     <use style="fill:#094d92;stroke:#094d92;" x="179.247109" xlink:href="#m8e67f1fa71" y="338.10343"/>
     <use style="fill:#094d92;stroke:#094d92;" x="242.498073" xlink:href="#m8e67f1fa71" y="324.9649"/>
     <use style="fill:#094d92;stroke:#094d92;" x="305.749036" xlink:href="#m8e67f1fa71" y="307.14201"/>
     <use style="fill:#094d92;stroke:#094d92;" x="369" xlink:href="#m8e67f1fa71" y="284.919591"/>
     <use style="fill:#094d92;stroke:#094d92;" x="432.250964" xlink:href="#m8e67f1fa71" y="258.620235"/>
     <use style="fill:#094d92;stroke:#094d92;" x="495.501927" xlink:href="#m8e67f1fa71" y="228.582116"/>
     <use style="fill:#094d92;stroke:#094d92;" x="558.752891" xlink:href="#m8e67f1fa71" y="195.140235"/>
     <use style="fill:#094d92;stroke:#094d92;" x="622.003854" xlink:href="#m8e67f1fa71" y="158.614008"/>
    </g>
   </g>
   <g id="line2d_34">
    <g clip-path="url(#p352e2c25d9)">
     <use style="fill:#094d92;stroke:#094d92;" x="115.996146" xlink:href="#m8e67f1fa71" y="335.920655"/>
     <use style="fill:#094d92;stroke:#094d92;" x="179.247109" xlink:href="#m8e67f1fa71" y="327.767295"/>
     <use style="fill:#094d92;stroke:#094d92;" x="242.498073" xlink:href="#m8e67f1fa71" y="314.712168"/>
     <use style="fill:#094d92;stroke:#094d92;" x="305.749036" xlink:href="#m8e67f1fa71" y="296.930796"/>
     <use style="fill:#094d92;stroke:#094d92;" x="369" xlink:href="#m8e67f1fa71" y="274.649179"/>
     <use style="fill:#094d92;stroke:#094d92;" x="432.250964" xlink:href="#m8e67f1fa71" y="248.132792"/>
     <use style="fill:#094d92;stroke:#094d92;" x="495.501927" xlink:href="#m8e67f1fa71" y="217.676289"/>
     <use style="fill:#094d92;stroke:#094d92;" x="558.752891" xlink:href="#m8e67f1fa71" y="183.593267"/>
     <use style="fill:#094d92;stroke:#094d92;" x="622.003854" xlink:href="#m8e67f1fa71" y="146.205094"/>
    </g>
   </g>
   <g id="line2d_35">
    <defs>
     <path d="M 0 3 
L 0 -3 
" id="mf4e005f937" style="stroke:#419d78;"/>
    </defs>
    <g clip-path="url(#p352e2c25d9)">
     <use style="fill:#419d78;stroke:#419d78;" x="115.363636" xlink:href="#mf4e005f937" y="338.394521"/>
     <use style="fill:#419d78;stroke:#419d78;" x="178.6146" xlink:href="#mf4e005f937" y="323.821765"/>
     <use style="fill:#419d78;stroke:#419d78;" x="241.865563" xlink:href="#mf4e005f937" y="304.016842"/>
     <use style="fill:#419d78;stroke:#419d78;" x="305.116527" xlink:href="#mf4e005f937" y="291.618854"/>
     <use style="fill:#419d78;stroke:#419d78;" x="368.36749" xlink:href="#mf4e005f937" y="252.424982"/>
     <use style="fill:#419d78;stroke:#419d78;" x="431.618454" xlink:href="#mf4e005f937" y="214.409534"/>
     <use style="fill:#419d78;stroke:#419d78;" x="494.869417" xlink:href="#mf4e005f937" y="185.649058"/>
     <use style="fill:#419d78;stroke:#419d78;" x="558.120381" xlink:href="#mf4e005f937" y="130.591161"/>
     <use style="fill:#419d78;stroke:#419d78;" x="621.371344" xlink:href="#mf4e005f937" y="91.445479"/>
    </g>
   </g>
   <g id="line2d_36">
    <g clip-path="url(#p352e2c25d9)">
     <use style="fill:#419d78;stroke:#419d78;" x="116.628656" xlink:href="#mf4e005f937" y="338.394521"/>
     <use style="fill:#419d78;stroke:#419d78;" x="179.879619" xlink:href="#mf4e005f937" y="323.821765"/>
     <use style="fill:#419d78;stroke:#419d78;" x="243.130583" xlink:href="#mf4e005f937" y="304.016842"/>
     <use style="fill:#419d78;stroke:#419d78;" x="306.381546" xlink:href="#mf4e005f937" y="291.618854"/>
     <use style="fill:#419d78;stroke:#419d78;" x="369.63251" xlink:href="#mf4e005f937" y="252.424982"/>
     <use style="fill:#419d78;stroke:#419d78;" x="432.883473" xlink:href="#mf4e005f937" y="214.409534"/>
     <use style="fill:#419d78;stroke:#419d78;" x="496.134437" xlink:href="#mf4e005f937" y="185.649058"/>
     <use style="fill:#419d78;stroke:#419d78;" x="559.3854" xlink:href="#mf4e005f937" y="130.591161"/>
     <use style="fill:#419d78;stroke:#419d78;" x="622.636364" xlink:href="#mf4e005f937" y="91.445479"/>
    </g>
   </g>
   <g id="line2d_37">
    <defs>
     <path d="M 3 0 
L -3 -0 
" id="me2228ff64e" style="stroke:#419d78;"/>
    </defs>
    <g clip-path="url(#p352e2c25d9)">
     <use style="fill:#419d78;stroke:#419d78;" x="115.996146" xlink:href="#me2228ff64e" y="363.174545"/>
     <use style="fill:#419d78;stroke:#419d78;" x="179.247109" xlink:href="#me2228ff64e" y="348.60179"/>
     <use style="fill:#419d78;stroke:#419d78;" x="242.498073" xlink:href="#me2228ff64e" y="328.796866"/>
     <use style="fill:#419d78;stroke:#419d78;" x="305.749036" xlink:href="#me2228ff64e" y="316.398878"/>
     <use style="fill:#419d78;stroke:#419d78;" x="369" xlink:href="#me2228ff64e" y="277.205007"/>
     <use style="fill:#419d78;stroke:#419d78;" x="432.250964" xlink:href="#me2228ff64e" y="239.189559"/>
     <use style="fill:#419d78;stroke:#419d78;" x="495.501927" xlink:href="#me2228ff64e" y="210.429083"/>
     <use style="fill:#419d78;stroke:#419d78;" x="558.752891" xlink:href="#me2228ff64e" y="155.371186"/>
     <use style="fill:#419d78;stroke:#419d78;" x="622.003854" xlink:href="#me2228ff64e" y="116.225503"/>
    </g>
   </g>
   <g id="line2d_38">
    <g clip-path="url(#p352e2c25d9)">
     <use style="fill:#419d78;stroke:#419d78;" x="115.996146" xlink:href="#me2228ff64e" y="313.614497"/>
     <use style="fill:#419d78;stroke:#419d78;" x="179.247109" xlink:href="#me2228ff64e" y="299.041741"/>
     <use style="fill:#419d78;stroke:#419d78;" x="242.498073" xlink:href="#me2228ff64e" y="279.236817"/>
     <use style="fill:#419d78;stroke:#419d78;" x="305.749036" xlink:href="#me2228ff64e" y="266.83883"/>
     <use style="fill:#419d78;stroke:#419d78;" x="369" xlink:href="#me2228ff64e" y="227.644958"/>
     <use style="fill:#419d78;stroke:#419d78;" x="432.250964" xlink:href="#me2228ff64e" y="189.62951"/>
     <use style="fill:#419d78;stroke:#419d78;" x="495.501927" xlink:href="#me2228ff64e" y="160.869034"/>
     <use style="fill:#419d78;stroke:#419d78;" x="558.752891" xlink:href="#me2228ff64e" y="105.811137"/>
     <use style="fill:#419d78;stroke:#419d78;" x="622.003854" xlink:href="#me2228ff64e" y="66.665455"/>
    </g>
   </g>
   <g id="line2d_39">
    <defs>
     <path d="M 0 2 
C 0.530406 2 1.03916 1.789267 1.414214 1.414214 
C 1.789267 1.03916 2 0.530406 2 0 
C 2 -0.530406 1.789267 -1.03916 1.414214 -1.414214 
C 1.03916 -1.789267 0.530406 -2 0 -2 
C -0.530406 -2 -1.03916 -1.789267 -1.414214 -1.414214 
C -1.789267 -1.03916 -2 -0.530406 -2 0 
C -2 0.530406 -1.789267 1.03916 -1.414214 1.414214 
C -1.03916 1.789267 -0.530406 2 0 2 
z
" id="m838d4703ba" style="stroke:#094d92;"/>
    </defs>
    <g clip-path="url(#p352e2c25d9)">
     <use style="fill:#094d92;stroke:#094d92;" x="115.996146" xlink:href="#m838d4703ba" y="341.126436"/>
     <use style="fill:#094d92;stroke:#094d92;" x="179.247109" xlink:href="#m838d4703ba" y="332.935363"/>
     <use style="fill:#094d92;stroke:#094d92;" x="242.498073" xlink:href="#m838d4703ba" y="319.838534"/>
     <use style="fill:#094d92;stroke:#094d92;" x="305.749036" xlink:href="#m838d4703ba" y="302.036403"/>
     <use style="fill:#094d92;stroke:#094d92;" x="369" xlink:href="#m838d4703ba" y="279.784385"/>
     <use style="fill:#094d92;stroke:#094d92;" x="432.250964" xlink:href="#m838d4703ba" y="253.376514"/>
     <use style="fill:#094d92;stroke:#094d92;" x="495.501927" xlink:href="#m838d4703ba" y="223.129202"/>
     <use style="fill:#094d92;stroke:#094d92;" x="558.752891" xlink:href="#m838d4703ba" y="189.366751"/>
     <use style="fill:#094d92;stroke:#094d92;" x="622.003854" xlink:href="#m838d4703ba" y="152.409551"/>
    </g>
   </g>
   <g id="line2d_40">
    <defs>
     <path d="M 0 2 
C 0.530406 2 1.03916 1.789267 1.414214 1.414214 
C 1.789267 1.03916 2 0.530406 2 0 
C 2 -0.530406 1.789267 -1.03916 1.414214 -1.414214 
C 1.03916 -1.789267 0.530406 -2 0 -2 
C -0.530406 -2 -1.03916 -1.789267 -1.414214 -1.414214 
C -1.789267 -1.03916 -2 -0.530406 -2 0 
C -2 0.530406 -1.789267 1.03916 -1.414214 1.414214 
C -1.03916 1.789267 -0.530406 2 0 2 
z
" id="m7c93384d0b" style="stroke:#419d78;"/>
    </defs>
    <g clip-path="url(#p352e2c25d9)">
     <use style="fill:#419d78;stroke:#419d78;" x="115.996146" xlink:href="#m7c93384d0b" y="338.394521"/>
     <use style="fill:#419d78;stroke:#419d78;" x="179.247109" xlink:href="#m7c93384d0b" y="323.821765"/>
     <use style="fill:#419d78;stroke:#419d78;" x="242.498073" xlink:href="#m7c93384d0b" y="304.016842"/>
     <use style="fill:#419d78;stroke:#419d78;" x="305.749036" xlink:href="#m7c93384d0b" y="291.618854"/>
     <use style="fill:#419d78;stroke:#419d78;" x="369" xlink:href="#m7c93384d0b" y="252.424982"/>
     <use style="fill:#419d78;stroke:#419d78;" x="432.250964" xlink:href="#m7c93384d0b" y="214.409534"/>
     <use style="fill:#419d78;stroke:#419d78;" x="495.501927" xlink:href="#m7c93384d0b" y="185.649058"/>
     <use style="fill:#419d78;stroke:#419d78;" x="558.752891" xlink:href="#m7c93384d0b" y="130.591161"/>
     <use style="fill:#419d78;stroke:#419d78;" x="622.003854" xlink:href="#m7c93384d0b" y="91.445479"/>
    </g>
   </g>
   <g id="patch_3">
    <path d="M 90 378 
L 90 51.84 
" style="fill:none;stroke:#000000;stroke-linecap:square;stroke-linejoin:miter;stroke-width:0.8;"/>
   </g>
   <g id="patch_4">
    <path d="M 648 378 
L 648 51.84 
" style="fill:none;stroke:#000000;stroke-linecap:square;stroke-linejoin:miter;stroke-width:0.8;"/>
   </g>
   <g id="patch_5">
    <path d="M 90 378 
L 648 378 
" style="fill:none;stroke:#000000;stroke-linecap:square;stroke-linejoin:miter;stroke-width:0.8;"/>
   </g>
   <g id="patch_6">
    <path d="M 90 51.84 
L 648 51.84 
" style="fill:none;stroke:#000000;stroke-linecap:square;stroke-linejoin:miter;stroke-width:0.8;"/>
   </g>
   <g id="text_18">
    <!-- $\omega_{geg}$ Literaturvergleich -->
    <defs>
     <path d="M 17.296875 73 
L 8 73 
L 8 0 
L 53.296875 0 
L 53.296875 8.1875 
L 17.296875 8.1875 
z
" id="Nimbus_Sans_L_Regular-76"/>
     <path d="M 15 52.46875 
L 6.703125 52.46875 
L 6.703125 0 
L 15 0 
z
M 15 73 
L 6.59375 73 
L 6.59375 62.484375 
L 15 62.484375 
z
" id="Nimbus_Sans_L_Regular-105"/>
     <path d="M 25.40625 52 
L 16.796875 52 
L 16.796875 66.390625 
L 8.5 66.390625 
L 8.5 52 
L 1.40625 52 
L 1.40625 45.1875 
L 8.5 45.1875 
L 8.5 6.28125 
C 8.5 1 12.09375 -2 18.59375 -2 
C 20.59375 -2 22.59375 -1.8125 25.40625 -1.3125 
L 25.40625 5.6875 
C 24.296875 5.390625 23 5.296875 21.40625 5.296875 
C 17.796875 5.296875 16.796875 6.28125 16.796875 9.90625 
L 16.796875 45.1875 
L 25.40625 45.1875 
z
" id="Nimbus_Sans_L_Regular-116"/>
     <path d="M 51.296875 23.1875 
C 51.296875 31.21875 50.703125 36.109375 49.203125 40.078125 
C 45.796875 48.796875 37.796875 54 28 54 
C 13.40625 54 4 42.71875 4 25.296875 
C 4 8.515625 13.09375 -2 27.796875 -2 
C 39.796875 -2 48.09375 4.796875 50.203125 15.90625 
L 41.796875 15.90625 
C 39.5 9.1875 34.796875 5.6875 28.09375 5.6875 
C 22.796875 5.6875 18.296875 8.03125 15.5 12.296875 
C 13.5 15.21875 12.796875 18.140625 12.703125 23.1875 
z
M 12.90625 30 
C 13.59375 39.875 19.5 46.296875 27.90625 46.296875 
C 36.09375 46.296875 42.40625 39.359375 42.40625 30.609375 
C 42.40625 30.40625 42.40625 30.203125 42.296875 30 
z
" id="Nimbus_Sans_L_Regular-101"/>
     <path d="M 6.90625 52 
L 6.90625 0 
L 15.296875 0 
L 15.296875 26.984375 
C 15.296875 34.421875 17.203125 39.28125 21.203125 42.15625 
C 23.796875 44.046875 26.296875 44.640625 32.09375 44.734375 
L 32.09375 53.1875 
C 30.703125 53.890625 30 54 28.90625 54 
C 23.5 54 19.40625 50.796875 14.59375 42.96875 
L 14.59375 52 
z
" id="Nimbus_Sans_L_Regular-114"/>
     <path d="M 53.5 5.1875 
C 52.59375 5 52.203125 5 51.703125 5 
C 48.796875 5 47.203125 6.484375 47.203125 9.078125 
L 47.203125 39.71875 
C 47.203125 48.984375 40.40625 54 27.5 54 
C 19.90625 54 13.59375 51.796875 10.09375 47.890625 
C 7.703125 45.203125 6.703125 42.21875 6.5 37.03125 
L 14.90625 37.03125 
C 15.59375 43.40625 19.40625 46.296875 27.203125 46.296875 
C 34.703125 46.296875 38.90625 43.5 38.90625 38.53125 
L 38.90625 36.34375 
C 38.90625 32.859375 36.796875 31.359375 30.203125 30.5625 
C 18.40625 29.078125 16.59375 28.671875 13.40625 27.390625 
C 7.296875 24.890625 4.203125 20.21875 4.203125 13.453125 
C 4.203125 4 10.796875 -2 21.40625 -2 
C 28 -2 33.296875 0.296875 39.203125 5.6875 
C 39.796875 0.390625 42.40625 -2 47.796875 -2 
C 49.5 -2 50.796875 -1.8125 53.5 -1.109375 
z
M 38.90625 16.734375 
C 38.90625 13.953125 38.09375 12.265625 35.59375 9.96875 
C 32.203125 6.890625 28.09375 5.296875 23.203125 5.296875 
C 16.703125 5.296875 12.90625 8.375 12.90625 13.65625 
C 12.90625 19.125 16.59375 21.90625 25.5 23.203125 
C 34.296875 24.40625 36.09375 24.796875 38.90625 26.09375 
z
" id="Nimbus_Sans_L_Regular-97"/>
     <path d="M 48.203125 0.296875 
L 48.203125 52 
L 39.90625 52 
L 39.90625 22.71875 
C 39.90625 12.1875 34.296875 5.296875 25.59375 5.296875 
C 19 5.296875 14.796875 9.234375 14.796875 15.4375 
L 14.796875 52 
L 6.5 52 
L 6.5 12.1875 
C 6.5 3.59375 13 -2 23.203125 -2 
C 30.90625 -2 35.796875 0.6875 40.703125 7.5625 
L 40.703125 0.296875 
z
" id="Nimbus_Sans_L_Regular-117"/>
     <path d="M 28.5 0 
L 48.59375 52 
L 39.203125 52 
L 24.40625 9.828125 
L 10.40625 52 
L 1 52 
L 19.40625 0 
z
" id="Nimbus_Sans_L_Regular-118"/>
     <path d="M 41.203125 52.484375 
L 41.203125 44.890625 
C 37 51.09375 31.90625 54 25.203125 54 
C 11.90625 54 2.90625 42.40625 2.90625 25.5 
C 2.90625 16.9375 5.203125 9.96875 9.5 5 
C 13.40625 0.59375 19 -2 24.5 -2 
C 31.09375 -2 35.703125 0.796875 40.40625 7.390625 
L 40.40625 4.6875 
C 40.40625 -2.421875 39.5 -6.890625 37.40625 -9.90625 
C 35.203125 -13.140625 30.90625 -15 25.796875 -15 
C 22 -15 18.59375 -13.96875 16.296875 -12.09375 
C 14.40625 -10.53125 13.59375 -9.078125 13.09375 -5.859375 
L 4.59375 -5.859375 
C 5.5 -16.109375 13.203125 -22 25.5 -22 
C 33.296875 -22 40 -19.5 43.40625 -15.3125 
C 47.40625 -10.328125 48.90625 -3.46875 48.90625 8.875 
L 48.90625 52.484375 
z
M 26.09375 46.296875 
C 35.09375 46.296875 40.40625 38.734375 40.40625 25.6875 
C 40.40625 13.25 35 5.6875 26.203125 5.6875 
C 17.09375 5.6875 11.59375 13.359375 11.59375 25.984375 
C 11.59375 38.53125 17.203125 46.296875 26.09375 46.296875 
z
" id="Nimbus_Sans_L_Regular-103"/>
     <path d="M 15.203125 73 
L 6.796875 73 
L 6.796875 0 
L 15.203125 0 
z
" id="Nimbus_Sans_L_Regular-108"/>
     <path d="M 47.09375 34.953125 
C 46.703125 40.015625 45.59375 43.296875 43.59375 46.1875 
C 40 51.09375 33.703125 54 26.40625 54 
C 12.296875 54 3.09375 42.8125 3.09375 25.5 
C 3.09375 8.671875 12.09375 -2 26.296875 -2 
C 38.796875 -2 46.703125 5.5 47.703125 18.234375 
L 39.296875 18.234375 
C 37.90625 9.875 33.59375 5.6875 26.5 5.6875 
C 17.296875 5.6875 11.796875 13.15625 11.796875 25.5 
C 11.796875 38.53125 17.203125 46.296875 26.296875 46.296875 
C 33.296875 46.296875 37.703125 42.203125 38.703125 34.953125 
z
" id="Nimbus_Sans_L_Regular-99"/>
     <path d="M 7 73 
L 7 0 
L 15.296875 0 
L 15.296875 28.953125 
C 15.296875 39.671875 20.90625 46.6875 29.5 46.6875 
C 32.203125 46.6875 34.90625 45.78125 36.90625 44.28125 
C 39.296875 42.578125 40.296875 40.078125 40.296875 36.375 
L 40.296875 0 
L 48.59375 0 
L 48.59375 39.671875 
C 48.59375 48.484375 42.296875 54 32.09375 54 
C 24.703125 54 20.203125 51.6875 15.296875 45.28125 
L 15.296875 73 
z
" id="Nimbus_Sans_L_Regular-104"/>
    </defs>
    <g transform="translate(277.165675 45.84)scale(0.192 -0.192)">
     <use transform="scale(0.996264)" xlink:href="#CMMI12-33"/>
     <use transform="translate(60.743753 -14.943915)scale(0.697382)" xlink:href="#CMMI12-103"/>
     <use transform="translate(95.943435 -14.943915)scale(0.697382)" xlink:href="#CMMI12-101"/>
     <use transform="translate(127.591691 -14.943915)scale(0.697382)" xlink:href="#CMMI12-103"/>
     <use transform="translate(190.984674 0)scale(0.996264)" xlink:href="#Nimbus_Sans_L_Regular-76"/>
     <use transform="translate(246.376351 0)scale(0.996264)" xlink:href="#Nimbus_Sans_L_Regular-105"/>
     <use transform="translate(268.493135 0)scale(0.996264)" xlink:href="#Nimbus_Sans_L_Regular-116"/>
     <use transform="translate(296.188305 0)scale(0.996264)" xlink:href="#Nimbus_Sans_L_Regular-101"/>
     <use transform="translate(351.579982 0)scale(0.996264)" xlink:href="#Nimbus_Sans_L_Regular-114"/>
     <use transform="translate(383.759115 0)scale(0.996264)" xlink:href="#Nimbus_Sans_L_Regular-97"/>
     <use transform="translate(439.150792 0)scale(0.996264)" xlink:href="#Nimbus_Sans_L_Regular-116"/>
     <use transform="translate(466.845962 0)scale(0.996264)" xlink:href="#Nimbus_Sans_L_Regular-117"/>
     <use transform="translate(522.237639 0)scale(0.996264)" xlink:href="#Nimbus_Sans_L_Regular-114"/>
     <use transform="translate(558.400961 0)scale(0.996264)" xlink:href="#Nimbus_Sans_L_Regular-118"/>
     <use transform="translate(605.723532 0)scale(0.996264)" xlink:href="#Nimbus_Sans_L_Regular-101"/>
     <use transform="translate(661.115209 0)scale(0.996264)" xlink:href="#Nimbus_Sans_L_Regular-114"/>
     <use transform="translate(694.290439 0)scale(0.996264)" xlink:href="#Nimbus_Sans_L_Regular-103"/>
     <use transform="translate(749.682116 0)scale(0.996264)" xlink:href="#Nimbus_Sans_L_Regular-108"/>
     <use transform="translate(771.7989 0)scale(0.996264)" xlink:href="#Nimbus_Sans_L_Regular-101"/>
     <use transform="translate(827.190577 0)scale(0.996264)" xlink:href="#Nimbus_Sans_L_Regular-105"/>
     <use transform="translate(849.307361 0)scale(0.996264)" xlink:href="#Nimbus_Sans_L_Regular-99"/>
     <use transform="translate(899.120562 0)scale(0.996264)" xlink:href="#Nimbus_Sans_L_Regular-104"/>
    </g>
   </g>
   <g id="legend_1">
    <g id="patch_7">
     <path d="M 101.2 112.475937 
L 418.832336 112.475937 
Q 422.032336 112.475937 422.032336 109.275937 
L 422.032336 63.04 
Q 422.032336 59.84 418.832336 59.84 
L 101.2 59.84 
Q 98 59.84 98 63.04 
L 98 109.275937 
Q 98 112.475937 101.2 112.475937 
z
" style="fill:#ffffff;opacity:0.8;stroke:#cccccc;stroke-linejoin:miter;"/>
    </g>
    <g id="LineCollection_5">
     <path d="M 112.4 71.997312 
L 128.4 71.997312 
" style="fill:none;stroke:#094d92;"/>
    </g>
    <g id="LineCollection_6">
     <path d="M 120.4 79.997312 
L 120.4 63.997312 
" style="fill:none;stroke:#094d92;"/>
    </g>
    <g id="line2d_41">
     <g>
      <use style="fill:#094d92;stroke:#094d92;" x="112.4" xlink:href="#mff77691d4e" y="71.997312"/>
     </g>
    </g>
    <g id="line2d_42">
     <g>
      <use style="fill:#094d92;stroke:#094d92;" x="128.4" xlink:href="#mff77691d4e" y="71.997312"/>
     </g>
    </g>
    <g id="line2d_43">
     <g>
      <use style="fill:#094d92;stroke:#094d92;" x="120.4" xlink:href="#m8e67f1fa71" y="79.997312"/>
     </g>
    </g>
    <g id="line2d_44">
     <g>
      <use style="fill:#094d92;stroke:#094d92;" x="120.4" xlink:href="#m8e67f1fa71" y="63.997312"/>
     </g>
    </g>
    <g id="line2d_45"/>
    <g id="line2d_46">
     <g>
      <use style="fill:#094d92;stroke:#094d92;" x="120.4" xlink:href="#m838d4703ba" y="71.997312"/>
     </g>
    </g>
    <g id="text_19">
     <!-- Datenpunkte mit Fehlerbalken $\omega_{geg,erw}$ -->
     <defs>
      <path d="M 8.90625 0 
L 37 0 
C 55.40625 0 66.703125 13.796875 66.703125 36.546875 
C 66.703125 59.1875 55.5 73 37 73 
L 8.90625 73 
z
M 18.203125 8.1875 
L 18.203125 64.796875 
L 35.40625 64.796875 
C 49.796875 64.796875 57.40625 55.078125 57.40625 36.4375 
C 57.40625 18.015625 49.796875 8.1875 35.40625 8.1875 
z
" id="Nimbus_Sans_L_Regular-68"/>
      <path d="M 7 52 
L 7 0 
L 15.40625 0 
L 15.40625 28.671875 
C 15.40625 39.671875 21 46.6875 29.59375 46.6875 
C 36.203125 46.6875 40.40625 42.6875 40.40625 36.375 
L 40.40625 0 
L 48.703125 0 
L 48.703125 39.671875 
C 48.703125 48.390625 42.203125 54 32.09375 54 
C 24.296875 54 19.296875 50.984375 14.703125 43.6875 
L 14.703125 52 
z
" id="Nimbus_Sans_L_Regular-110"/>
      <path d="M 5.40625 -22 
L 13.796875 -22 
L 13.796875 5.796875 
C 18.203125 0.390625 23.09375 -2 29.90625 -2 
C 43.40625 -2 52.296875 8.875 52.296875 25.5 
C 52.296875 43 43.703125 54 29.796875 54 
C 22.703125 54 17 50.796875 13.09375 44.59375 
L 13.09375 52.484375 
L 5.40625 52.484375 
z
M 28.40625 46.1875 
C 37.59375 46.1875 43.59375 38.125 43.59375 25.6875 
C 43.59375 13.859375 37.5 5.796875 28.40625 5.796875 
C 19.59375 5.796875 13.796875 13.75 13.796875 25.984375 
C 13.796875 38.234375 19.59375 46.1875 28.40625 46.1875 
z
" id="Nimbus_Sans_L_Regular-112"/>
      <path d="M 14.09375 73 
L 5.796875 73 
L 5.796875 0 
L 14.09375 0 
L 14.09375 20.421875 
L 22.203125 28.4375 
L 39.90625 0 
L 50.203125 0 
L 28.796875 34.34375 
L 47 52.46875 
L 36.296875 52.46875 
L 14.09375 30.234375 
z
" id="Nimbus_Sans_L_Regular-107"/>
      <path d="M 18.296875 33 
L 53.09375 33 
L 53.09375 41.1875 
L 18.296875 41.1875 
L 18.296875 64.796875 
L 57.90625 64.796875 
L 57.90625 73 
L 9 73 
L 9 0 
L 18.296875 0 
z
" id="Nimbus_Sans_L_Regular-70"/>
      <path d="M 5.40625 73 
L 5.40625 0.296875 
L 12.90625 0.296875 
L 12.90625 6.984375 
C 16.90625 0.890625 22.203125 -2 29.5 -2 
C 43.296875 -2 52.296875 9.28125 52.296875 26.59375 
C 52.296875 43.5 43.703125 54 29.90625 54 
C 22.703125 54 17.59375 51.296875 13.703125 45.390625 
L 13.703125 73 
z
M 28.296875 46.1875 
C 37.59375 46.1875 43.59375 38.125 43.59375 25.6875 
C 43.59375 13.859375 37.40625 5.796875 28.296875 5.796875 
C 19.5 5.796875 13.703125 13.75 13.703125 25.984375 
C 13.703125 38.234375 19.5 46.1875 28.296875 46.1875 
z
" id="Nimbus_Sans_L_Regular-98"/>
      <path d="M 19.5 -0.40625 
C 19.5 5.390625 17.59375 9.6875 13.5 9.6875 
C 10.296875 9.6875 8.703125 7.09375 8.703125 4.890625 
C 8.703125 2.6875 10.203125 0 13.59375 0 
C 14.90625 0 16 0.390625 16.90625 1.296875 
C 17.09375 1.5 17.203125 1.5 17.296875 1.5 
C 17.5 1.5 17.5 0.09375 17.5 -0.40625 
C 17.5 -3.640625 16.90625 -10.03125 11.09375 -16.421875 
C 10 -17.609375 10 -17.8125 10 -18 
C 10 -18.5 10.5 -19 11 -19 
C 11.796875 -19 19.5 -11.703125 19.5 -0.40625 
z
" id="CMMI12-59"/>
      <path d="M 38.90625 41.140625 
C 35.796875 40.59375 34.203125 38.390625 34.203125 36.1875 
C 34.203125 33.796875 36.09375 32.984375 37.5 32.984375 
C 40.296875 32.984375 42.59375 35.390625 42.59375 38.390625 
C 42.59375 41.421875 39.5 44 34.5 44 
C 30.5 44 25.90625 42.1875 21.703125 36.484375 
C 21 41.5625 17 44 13 44 
C 9.09375 44 7.09375 41.28125 5.90625 39.1875 
C 4.203125 35.59375 2.703125 29.5625 2.703125 29.0625 
C 2.703125 28.65625 3.09375 28.140625 3.796875 28.140625 
C 4.59375 28.140625 4.703125 28.25 5.296875 30.578125 
C 6.796875 36.59375 8.703125 41.984375 12.703125 41.984375 
C 15.09375 41.984375 15.796875 40.6875 15.796875 37.796875 
C 15.796875 35.59375 14.796875 31.6875 14.09375 28.546875 
L 11.296875 17.65625 
C 10.90625 15.734375 9.796875 11.1875 9.296875 9.375 
C 8.59375 6.75 7.5 2 7.5 1.5 
C 7.5 0.09375 8.59375 -1 10.09375 -1 
C 11.203125 -1 13.09375 -0.3125 13.703125 1.703125 
C 14 2.5 17.703125 17.75 18.296875 20.078125 
C 18.796875 22.296875 19.40625 24.40625 19.90625 26.640625 
C 20.296875 28.046875 20.703125 29.65625 21 30.96875 
C 21.296875 31.875 24 36.796875 26.5 38.984375 
C 27.703125 40.09375 30.296875 41.984375 34.40625 41.984375 
C 36 41.984375 37.59375 41.78125 38.90625 41.140625 
z
" id="CMMI12-114"/>
      <path d="M 34.40625 6.078125 
C 36.59375 0.09375 42.796875 -1 46.59375 -1 
C 54.203125 -1 58.703125 5.578125 61.5 12.46875 
C 63.796875 18.25 67.5 31.421875 67.5 37.3125 
C 67.5 43.390625 64.40625 44 63.5 44 
C 61.09375 44 58.90625 41.59375 58.90625 39.59375 
C 58.90625 38.40625 59.59375 37.703125 60.09375 37.3125 
C 61 36.40625 63.59375 33.71875 63.59375 28.53125 
C 63.59375 25.140625 60.796875 15.75 58.703125 11.0625 
C 55.90625 4.984375 52.203125 1 47 1 
C 41.40625 1 39.59375 5.1875 39.59375 9.765625 
C 39.59375 12.65625 40.5 16.15625 40.90625 17.84375 
L 45.09375 34.609375 
C 45.59375 36.609375 46.5 40.09375 46.5 40.484375 
C 46.5 41.984375 45.296875 43 43.796875 43 
C 40.90625 43 40.203125 40.484375 39.59375 38.09375 
C 38.59375 34.203125 34.40625 17.34375 34 15.15625 
C 33.59375 13.453125 33.59375 12.359375 33.59375 10.171875 
C 33.59375 7.78125 30.40625 3.984375 30.296875 3.78125 
C 29.203125 2.6875 27.59375 1 24.5 1 
C 16.59375 1 16.59375 8.46875 16.59375 10.171875 
C 16.59375 13.359375 17.296875 17.75 21.796875 29.625 
C 23 32.71875 23.5 34.015625 23.5 36.015625 
C 23.5 40.203125 20.5 44 15.59375 44 
C 6.40625 44 2.703125 29.53125 2.703125 28.71875 
C 2.703125 28.328125 3.09375 27.828125 3.796875 27.828125 
C 4.703125 27.828125 4.796875 28.234375 5.203125 29.625 
C 7.703125 38.40625 11.59375 41.984375 15.296875 41.984375 
C 16.296875 41.984375 17.90625 41.890625 17.90625 38.703125 
C 17.90625 38.203125 17.90625 36.109375 16.203125 31.71875 
C 11.5 19.25 10.5 15.15625 10.5 11.375 
C 10.5 0.890625 19.09375 -1 24.203125 -1 
C 25.90625 -1 30.40625 -1 34.40625 6.078125 
z
" id="CMMI12-119"/>
     </defs>
     <g transform="translate(149.2 77.597312)scale(0.16 -0.16)">
      <use transform="scale(0.996264)" xlink:href="#Nimbus_Sans_L_Regular-68"/>
      <use transform="translate(71.929985 0)scale(0.996264)" xlink:href="#Nimbus_Sans_L_Regular-97"/>
      <use transform="translate(127.321662 0)scale(0.996264)" xlink:href="#Nimbus_Sans_L_Regular-116"/>
      <use transform="translate(155.016831 0)scale(0.996264)" xlink:href="#Nimbus_Sans_L_Regular-101"/>
      <use transform="translate(210.408508 0)scale(0.996264)" xlink:href="#Nimbus_Sans_L_Regular-110"/>
      <use transform="translate(265.800185 0)scale(0.996264)" xlink:href="#Nimbus_Sans_L_Regular-112"/>
      <use transform="translate(321.191862 0)scale(0.996264)" xlink:href="#Nimbus_Sans_L_Regular-117"/>
      <use transform="translate(376.583539 0)scale(0.996264)" xlink:href="#Nimbus_Sans_L_Regular-110"/>
      <use transform="translate(431.975216 0)scale(0.996264)" xlink:href="#Nimbus_Sans_L_Regular-107"/>
      <use transform="translate(481.788417 0)scale(0.996264)" xlink:href="#Nimbus_Sans_L_Regular-116"/>
      <use transform="translate(509.483586 0)scale(0.996264)" xlink:href="#Nimbus_Sans_L_Regular-101"/>
      <use transform="translate(592.570433 0)scale(0.996264)" xlink:href="#Nimbus_Sans_L_Regular-109"/>
      <use transform="translate(675.558863 0)scale(0.996264)" xlink:href="#Nimbus_Sans_L_Regular-105"/>
      <use transform="translate(697.675647 0)scale(0.996264)" xlink:href="#Nimbus_Sans_L_Regular-116"/>
      <use transform="translate(753.065987 0)scale(0.996264)" xlink:href="#Nimbus_Sans_L_Regular-70"/>
      <use transform="translate(810.949509 0)scale(0.996264)" xlink:href="#Nimbus_Sans_L_Regular-101"/>
      <use transform="translate(866.341186 0)scale(0.996264)" xlink:href="#Nimbus_Sans_L_Regular-104"/>
      <use transform="translate(921.732863 0)scale(0.996264)" xlink:href="#Nimbus_Sans_L_Regular-108"/>
      <use transform="translate(943.849648 0)scale(0.996264)" xlink:href="#Nimbus_Sans_L_Regular-101"/>
      <use transform="translate(999.241325 0)scale(0.996264)" xlink:href="#Nimbus_Sans_L_Regular-114"/>
      <use transform="translate(1032.416554 0)scale(0.996264)" xlink:href="#Nimbus_Sans_L_Regular-98"/>
      <use transform="translate(1087.808231 0)scale(0.996264)" xlink:href="#Nimbus_Sans_L_Regular-97"/>
      <use transform="translate(1143.199908 0)scale(0.996264)" xlink:href="#Nimbus_Sans_L_Regular-108"/>
      <use transform="translate(1165.316693 0)scale(0.996264)" xlink:href="#Nimbus_Sans_L_Regular-107"/>
      <use transform="translate(1213.137882 0)scale(0.996264)" xlink:href="#Nimbus_Sans_L_Regular-101"/>
      <use transform="translate(1268.529559 0)scale(0.996264)" xlink:href="#Nimbus_Sans_L_Regular-110"/>
      <use transform="translate(1351.616406 0)scale(0.996264)" xlink:href="#CMMI12-33"/>
      <use transform="translate(1412.360159 -14.943915)scale(0.697382)" xlink:href="#CMMI12-103"/>
      <use transform="translate(1447.55984 -14.943915)scale(0.697382)" xlink:href="#CMMI12-101"/>
      <use transform="translate(1479.208097 -14.943915)scale(0.697382)" xlink:href="#CMMI12-103"/>
      <use transform="translate(1514.407778 -14.943915)scale(0.697382)" xlink:href="#CMMI12-59"/>
      <use transform="translate(1533.375711 -14.943915)scale(0.697382)" xlink:href="#CMMI12-101"/>
      <use transform="translate(1565.023967 -14.943915)scale(0.697382)" xlink:href="#CMMI12-114"/>
      <use transform="translate(1597.693236 -14.943915)scale(0.697382)" xlink:href="#CMMI12-119"/>
     </g>
    </g>
    <g id="LineCollection_7">
     <path d="M 112.4 95.915281 
L 128.4 95.915281 
" style="fill:none;stroke:#419d78;"/>
    </g>
    <g id="LineCollection_8">
     <path d="M 120.4 103.915281 
L 120.4 87.915281 
" style="fill:none;stroke:#419d78;"/>
    </g>
    <g id="line2d_47">
     <g>
      <use style="fill:#419d78;stroke:#419d78;" x="112.4" xlink:href="#mf4e005f937" y="95.915281"/>
     </g>
    </g>
    <g id="line2d_48">
     <g>
      <use style="fill:#419d78;stroke:#419d78;" x="128.4" xlink:href="#mf4e005f937" y="95.915281"/>
     </g>
    </g>
    <g id="line2d_49">
     <g>
      <use style="fill:#419d78;stroke:#419d78;" x="120.4" xlink:href="#me2228ff64e" y="103.915281"/>
     </g>
    </g>
    <g id="line2d_50">
     <g>
      <use style="fill:#419d78;stroke:#419d78;" x="120.4" xlink:href="#me2228ff64e" y="87.915281"/>
     </g>
    </g>
    <g id="line2d_51"/>
    <g id="line2d_52">
     <g>
      <use style="fill:#419d78;stroke:#419d78;" x="120.4" xlink:href="#m7c93384d0b" y="95.915281"/>
     </g>
    </g>
    <g id="text_20">
     <!-- Datenpunkte mit Fehlerbalken $\omega_{geg,gem}$ -->
     <defs>
      <path d="M 20.59375 29.21875 
C 20.796875 29.828125 23.296875 34.8125 27 38 
C 29.59375 40.390625 33 41.984375 36.90625 41.984375 
C 40.90625 41.984375 42.296875 39 42.296875 35.015625 
C 42.296875 34.40625 42.296875 32.421875 41.09375 27.734375 
L 38.59375 17.453125 
C 37.796875 14.453125 35.90625 7.078125 35.703125 5.984375 
C 35.296875 4.484375 34.703125 1.890625 34.703125 1.484375 
C 34.703125 0.09375 35.796875 -1 37.296875 -1 
C 40.296875 -1 40.796875 1.296875 41.703125 4.890625 
L 47.703125 28.71875 
C 47.90625 29.53125 53.09375 41.984375 64.09375 41.984375 
C 68.09375 41.984375 69.5 39 69.5 35.015625 
C 69.5 29.421875 65.59375 18.546875 63.40625 12.5625 
C 62.5 10.171875 62 8.875 62 7.078125 
C 62 2.59375 65.09375 -1 69.90625 -1 
C 79.203125 -1 82.703125 13.65625 82.703125 14.265625 
C 82.703125 14.765625 82.296875 15.15625 81.703125 15.15625 
C 80.796875 15.15625 80.703125 14.859375 80.203125 13.15625 
C 77.90625 5.1875 74.203125 1 70.203125 1 
C 69.203125 1 67.59375 1.09375 67.59375 4.28125 
C 67.59375 6.875 68.796875 10.078125 69.203125 11.171875 
C 71 15.953125 75.5 27.734375 75.5 33.515625 
C 75.5 39.5 72 44 64.40625 44 
C 57.703125 44 52.296875 40.203125 48.296875 34.3125 
C 48 39.703125 44.703125 44 37.203125 44 
C 28.296875 44 23.59375 37.703125 21.796875 35.203125 
C 21.5 40.890625 17.40625 44 13 44 
C 10.09375 44 7.796875 42.59375 5.90625 38.796875 
C 4.09375 35.203125 2.703125 29.125 2.703125 28.71875 
C 2.703125 28.328125 3.09375 27.828125 3.796875 27.828125 
C 4.59375 27.828125 4.703125 27.921875 5.296875 30.21875 
C 6.796875 36.109375 8.703125 41.984375 12.703125 41.984375 
C 15 41.984375 15.796875 40.390625 15.796875 37.40625 
C 15.796875 35.203125 14.796875 31.3125 14.09375 28.234375 
L 11.296875 17.453125 
C 10.90625 15.5625 9.796875 11.0625 9.296875 9.265625 
C 8.59375 6.671875 7.5 1.984375 7.5 1.484375 
C 7.5 0.09375 8.59375 -1 10.09375 -1 
C 11.296875 -1 12.703125 -0.40625 13.5 1.09375 
C 13.703125 1.59375 14.59375 5.078125 15.09375 7.078125 
L 17.296875 16.0625 
z
" id="CMMI12-109"/>
     </defs>
     <g transform="translate(149.2 101.515281)scale(0.16 -0.16)">
      <use transform="scale(0.996264)" xlink:href="#Nimbus_Sans_L_Regular-68"/>
      <use transform="translate(71.929985 0)scale(0.996264)" xlink:href="#Nimbus_Sans_L_Regular-97"/>
      <use transform="translate(127.321662 0)scale(0.996264)" xlink:href="#Nimbus_Sans_L_Regular-116"/>
      <use transform="translate(155.016831 0)scale(0.996264)" xlink:href="#Nimbus_Sans_L_Regular-101"/>
      <use transform="translate(210.408508 0)scale(0.996264)" xlink:href="#Nimbus_Sans_L_Regular-110"/>
      <use transform="translate(265.800185 0)scale(0.996264)" xlink:href="#Nimbus_Sans_L_Regular-112"/>
      <use transform="translate(321.191862 0)scale(0.996264)" xlink:href="#Nimbus_Sans_L_Regular-117"/>
      <use transform="translate(376.583539 0)scale(0.996264)" xlink:href="#Nimbus_Sans_L_Regular-110"/>
      <use transform="translate(431.975216 0)scale(0.996264)" xlink:href="#Nimbus_Sans_L_Regular-107"/>
      <use transform="translate(481.788417 0)scale(0.996264)" xlink:href="#Nimbus_Sans_L_Regular-116"/>
      <use transform="translate(509.483586 0)scale(0.996264)" xlink:href="#Nimbus_Sans_L_Regular-101"/>
      <use transform="translate(592.570433 0)scale(0.996264)" xlink:href="#Nimbus_Sans_L_Regular-109"/>
      <use transform="translate(675.558863 0)scale(0.996264)" xlink:href="#Nimbus_Sans_L_Regular-105"/>
      <use transform="translate(697.675647 0)scale(0.996264)" xlink:href="#Nimbus_Sans_L_Regular-116"/>
      <use transform="translate(753.065987 0)scale(0.996264)" xlink:href="#Nimbus_Sans_L_Regular-70"/>
      <use transform="translate(810.949509 0)scale(0.996264)" xlink:href="#Nimbus_Sans_L_Regular-101"/>
      <use transform="translate(866.341186 0)scale(0.996264)" xlink:href="#Nimbus_Sans_L_Regular-104"/>
      <use transform="translate(921.732863 0)scale(0.996264)" xlink:href="#Nimbus_Sans_L_Regular-108"/>
      <use transform="translate(943.849648 0)scale(0.996264)" xlink:href="#Nimbus_Sans_L_Regular-101"/>
      <use transform="translate(999.241325 0)scale(0.996264)" xlink:href="#Nimbus_Sans_L_Regular-114"/>
      <use transform="translate(1032.416554 0)scale(0.996264)" xlink:href="#Nimbus_Sans_L_Regular-98"/>
      <use transform="translate(1087.808231 0)scale(0.996264)" xlink:href="#Nimbus_Sans_L_Regular-97"/>
      <use transform="translate(1143.199908 0)scale(0.996264)" xlink:href="#Nimbus_Sans_L_Regular-108"/>
      <use transform="translate(1165.316693 0)scale(0.996264)" xlink:href="#Nimbus_Sans_L_Regular-107"/>
      <use transform="translate(1213.137882 0)scale(0.996264)" xlink:href="#Nimbus_Sans_L_Regular-101"/>
      <use transform="translate(1268.529559 0)scale(0.996264)" xlink:href="#Nimbus_Sans_L_Regular-110"/>
      <use transform="translate(1351.616406 0)scale(0.996264)" xlink:href="#CMMI12-33"/>
      <use transform="translate(1412.360159 -14.943915)scale(0.697382)" xlink:href="#CMMI12-103"/>
      <use transform="translate(1447.55984 -14.943915)scale(0.697382)" xlink:href="#CMMI12-101"/>
      <use transform="translate(1479.208097 -14.943915)scale(0.697382)" xlink:href="#CMMI12-103"/>
      <use transform="translate(1514.407778 -14.943915)scale(0.697382)" xlink:href="#CMMI12-59"/>
      <use transform="translate(1533.375711 -14.943915)scale(0.697382)" xlink:href="#CMMI12-103"/>
      <use transform="translate(1568.575392 -14.943915)scale(0.697382)" xlink:href="#CMMI12-101"/>
      <use transform="translate(1600.223649 -14.943915)scale(0.697382)" xlink:href="#CMMI12-109"/>
     </g>
    </g>
   </g>
  </g>
 </g>
 <defs>
  <clipPath id="p352e2c25d9">
   <rect height="326.16" width="558" x="90" y="51.84"/>
  </clipPath>
 </defs>
</svg>
