<?xml version="1.0" encoding="utf-8" standalone="no"?>
<!DOCTYPE svg PUBLIC "-//W3C//DTD SVG 1.1//EN"
  "http://www.w3.org/Graphics/SVG/1.1/DTD/svg11.dtd">
<!-- Created with matplotlib (https://matplotlib.org/) -->
<svg height="720pt" version="1.1" viewBox="0 0 720 720" width="720pt" xmlns="http://www.w3.org/2000/svg" xmlns:xlink="http://www.w3.org/1999/xlink">
 <defs>
  <style type="text/css">
*{stroke-linecap:butt;stroke-linejoin:round;}
  </style>
 </defs>
 <g id="figure_1">
  <g id="patch_1">
   <path d="M 0 720 
L 720 720 
L 720 0 
L 0 0 
z
" style="fill:#ffffff;"/>
  </g>
  <g id="axes_1">
   <g id="patch_2">
    <path d="M 90 333.490909 
L 648 333.490909 
L 648 86.4 
L 90 86.4 
z
" style="fill:#ffffff;"/>
   </g>
   <g id="matplotlib.axis_1">
    <g id="xtick_1">
     <g id="line2d_1">
      <path clip-path="url(#pfa581c4354)" d="M 108.40603 333.490909 
L 108.40603 86.4 
" style="fill:none;stroke:#b0b0b0;stroke-linecap:square;stroke-width:0.8;"/>
     </g>
     <g id="line2d_2">
      <defs>
       <path d="M 0 0 
L 0 3.5 
" id="mb03f72ba94" style="stroke:#000000;stroke-width:0.8;"/>
      </defs>
      <g>
       <use style="stroke:#000000;stroke-width:0.8;" x="108.40603" xlink:href="#mb03f72ba94" y="333.490909"/>
      </g>
     </g>
    </g>
    <g id="xtick_2">
     <g id="line2d_3">
      <path clip-path="url(#pfa581c4354)" d="M 171.656994 333.490909 
L 171.656994 86.4 
" style="fill:none;stroke:#b0b0b0;stroke-linecap:square;stroke-width:0.8;"/>
     </g>
     <g id="line2d_4">
      <g>
       <use style="stroke:#000000;stroke-width:0.8;" x="171.656994" xlink:href="#mb03f72ba94" y="333.490909"/>
      </g>
     </g>
    </g>
    <g id="xtick_3">
     <g id="line2d_5">
      <path clip-path="url(#pfa581c4354)" d="M 234.907957 333.490909 
L 234.907957 86.4 
" style="fill:none;stroke:#b0b0b0;stroke-linecap:square;stroke-width:0.8;"/>
     </g>
     <g id="line2d_6">
      <g>
       <use style="stroke:#000000;stroke-width:0.8;" x="234.907957" xlink:href="#mb03f72ba94" y="333.490909"/>
      </g>
     </g>
    </g>
    <g id="xtick_4">
     <g id="line2d_7">
      <path clip-path="url(#pfa581c4354)" d="M 298.158921 333.490909 
L 298.158921 86.4 
" style="fill:none;stroke:#b0b0b0;stroke-linecap:square;stroke-width:0.8;"/>
     </g>
     <g id="line2d_8">
      <g>
       <use style="stroke:#000000;stroke-width:0.8;" x="298.158921" xlink:href="#mb03f72ba94" y="333.490909"/>
      </g>
     </g>
    </g>
    <g id="xtick_5">
     <g id="line2d_9">
      <path clip-path="url(#pfa581c4354)" d="M 361.409884 333.490909 
L 361.409884 86.4 
" style="fill:none;stroke:#b0b0b0;stroke-linecap:square;stroke-width:0.8;"/>
     </g>
     <g id="line2d_10">
      <g>
       <use style="stroke:#000000;stroke-width:0.8;" x="361.409884" xlink:href="#mb03f72ba94" y="333.490909"/>
      </g>
     </g>
    </g>
    <g id="xtick_6">
     <g id="line2d_11">
      <path clip-path="url(#pfa581c4354)" d="M 424.660848 333.490909 
L 424.660848 86.4 
" style="fill:none;stroke:#b0b0b0;stroke-linecap:square;stroke-width:0.8;"/>
     </g>
     <g id="line2d_12">
      <g>
       <use style="stroke:#000000;stroke-width:0.8;" x="424.660848" xlink:href="#mb03f72ba94" y="333.490909"/>
      </g>
     </g>
    </g>
    <g id="xtick_7">
     <g id="line2d_13">
      <path clip-path="url(#pfa581c4354)" d="M 487.911811 333.490909 
L 487.911811 86.4 
" style="fill:none;stroke:#b0b0b0;stroke-linecap:square;stroke-width:0.8;"/>
     </g>
     <g id="line2d_14">
      <g>
       <use style="stroke:#000000;stroke-width:0.8;" x="487.911811" xlink:href="#mb03f72ba94" y="333.490909"/>
      </g>
     </g>
    </g>
    <g id="xtick_8">
     <g id="line2d_15">
      <path clip-path="url(#pfa581c4354)" d="M 551.162775 333.490909 
L 551.162775 86.4 
" style="fill:none;stroke:#b0b0b0;stroke-linecap:square;stroke-width:0.8;"/>
     </g>
     <g id="line2d_16">
      <g>
       <use style="stroke:#000000;stroke-width:0.8;" x="551.162775" xlink:href="#mb03f72ba94" y="333.490909"/>
      </g>
     </g>
    </g>
    <g id="xtick_9">
     <g id="line2d_17">
      <path clip-path="url(#pfa581c4354)" d="M 614.413738 333.490909 
L 614.413738 86.4 
" style="fill:none;stroke:#b0b0b0;stroke-linecap:square;stroke-width:0.8;"/>
     </g>
     <g id="line2d_18">
      <g>
       <use style="stroke:#000000;stroke-width:0.8;" x="614.413738" xlink:href="#mb03f72ba94" y="333.490909"/>
      </g>
     </g>
    </g>
   </g>
   <g id="matplotlib.axis_2">
    <g id="ytick_1">
     <g id="line2d_19">
      <path clip-path="url(#pfa581c4354)" d="M 90 288.060862 
L 648 288.060862 
" style="fill:none;stroke:#b0b0b0;stroke-linecap:square;stroke-width:0.8;"/>
     </g>
     <g id="line2d_20">
      <defs>
       <path d="M 0 0 
L -3.5 0 
" id="mb806c5b229" style="stroke:#000000;stroke-width:0.8;"/>
      </defs>
      <g>
       <use style="stroke:#000000;stroke-width:0.8;" x="90" xlink:href="#mb806c5b229" y="288.060862"/>
      </g>
     </g>
     <g id="text_1">
      <!-- $\mathdefault{3.25}$ -->
      <defs>
       <path d="M 22.09375 34 
C 31 34 34.90625 26.140625 34.90625 17.09375 
C 34.90625 5.03125 28.5 0.390625 22.703125 0.390625 
C 17.40625 0.390625 8.796875 3.015625 6.09375 10.796875 
C 6.59375 10.59375 7.09375 10.59375 7.59375 10.59375 
C 10 10.59375 11.796875 12.1875 11.796875 14.796875 
C 11.796875 17.6875 9.59375 19 7.59375 19 
C 5.90625 19 3.296875 18.1875 3.296875 14.484375 
C 3.296875 5.234375 12.296875 -2 22.90625 -2 
C 34 -2 42.5 6.75 42.5 16.984375 
C 42.5 26.84375 34.5 34 25 35.09375 
C 32.59375 36.671875 39.90625 43.375 39.90625 52.390625 
C 39.90625 60.25 32 66 23 66 
C 13.90625 66 5.90625 60.34375 5.90625 52.296875 
C 5.90625 48.796875 8.5 48.1875 9.796875 48.1875 
C 11.90625 48.1875 13.703125 49.484375 13.703125 52.09375 
C 13.703125 54.6875 11.90625 56 9.796875 56 
C 9.40625 56 8.90625 56 8.5 55.796875 
C 11.40625 62.484375 19.296875 63.6875 22.796875 63.6875 
C 26.296875 63.6875 32.90625 61.96875 32.90625 52.296875 
C 32.90625 49.484375 32.5 44.546875 29.09375 40.21875 
C 26.09375 36.390625 22.703125 36.1875 19.40625 35.890625 
C 18.90625 35.890625 16.59375 35.6875 16.203125 35.6875 
C 15.5 35.59375 15.09375 35.5 15.09375 34.796875 
C 15.09375 34.09375 15.203125 34 17.203125 34 
z
" id="CMR17-51"/>
       <path d="M 18.40625 4.796875 
C 18.40625 7.6875 16 9.6875 13.59375 9.6875 
C 10.703125 9.6875 8.703125 7.296875 8.703125 4.890625 
C 8.703125 2 11.09375 0 13.5 0 
C 16.40625 0 18.40625 2.390625 18.40625 4.796875 
z
" id="CMMI12-58"/>
       <path d="M 41.703125 15.46875 
L 39.90625 15.46875 
C 38.90625 8.390625 38.09375 7.1875 37.703125 6.59375 
C 37.203125 5.796875 30 5.796875 28.59375 5.796875 
L 9.40625 5.796875 
C 13 9.6875 20 16.765625 28.5 24.9375 
C 34.59375 30.71875 41.703125 37.5 41.703125 47.390625 
C 41.703125 59.1875 32.296875 66 21.796875 66 
C 10.796875 66 4.09375 56.296875 4.09375 47.296875 
C 4.09375 43.390625 7 42.890625 8.203125 42.890625 
C 9.203125 42.890625 12.203125 43.484375 12.203125 46.984375 
C 12.203125 50.09375 9.59375 51 8.203125 51 
C 7.59375 51 7 50.890625 6.59375 50.6875 
C 8.5 59.1875 14.296875 63.390625 20.40625 63.390625 
C 29.09375 63.390625 34.796875 56.5 34.796875 47.390625 
C 34.796875 38.703125 29.703125 31.21875 24 24.734375 
L 4.09375 2.296875 
L 4.09375 0 
L 39.296875 0 
z
" id="CMR17-50"/>
       <path d="M 11.40625 58.59375 
C 12.40625 58.1875 16.5 56.890625 20.703125 56.890625 
C 30 56.890625 35.09375 61.890625 38 64.6875 
C 38 65.484375 38 66 37.40625 66 
C 37.296875 66 37.09375 66 36.296875 65.59375 
C 32.796875 64.09375 28.703125 63 23.703125 63 
C 20.703125 63 16.203125 63.359375 11.296875 65.484375 
C 10.203125 66 10 66 9.90625 66 
C 9.40625 66 9.296875 65.890625 9.296875 63.90625 
L 9.296875 34.859375 
C 9.296875 33.015625 9.296875 32.5 10.296875 32.5 
C 10.796875 32.5 11 32.703125 11.5 33.421875 
C 14.703125 38.046875 19.09375 40 24.09375 40 
C 27.59375 40 35.09375 37.734375 35.09375 20.203125 
C 35.09375 16.984375 35.09375 11.1875 32.09375 6.59375 
C 29.59375 2.484375 25.703125 0.390625 21.40625 0.390625 
C 14.796875 0.390625 8.09375 4.984375 6.296875 12.6875 
C 6.703125 12.59375 7.5 12.390625 7.90625 12.390625 
C 9.203125 12.390625 11.703125 13.09375 11.703125 16.1875 
C 11.703125 18.890625 9.796875 20 7.90625 20 
C 5.59375 20 4.09375 18.59375 4.09375 15.796875 
C 4.09375 7.09375 11 -2 21.59375 -2 
C 31.90625 -2 41.703125 6.890625 41.703125 19.796875 
C 41.703125 32.09375 33.90625 41.59375 24.203125 41.59375 
C 19.09375 41.59375 14.796875 39.6875 11.40625 36 
z
" id="CMR17-53"/>
      </defs>
      <g transform="translate(53.44965 294.44935)scale(0.18 -0.18)">
       <use transform="scale(0.996264)" xlink:href="#CMR17-51"/>
       <use transform="translate(45.690477 0)scale(0.996264)" xlink:href="#CMMI12-58"/>
       <use transform="translate(72.787654 0)scale(0.996264)" xlink:href="#CMR17-50"/>
       <use transform="translate(118.478131 0)scale(0.996264)" xlink:href="#CMR17-53"/>
      </g>
     </g>
    </g>
    <g id="ytick_2">
     <g id="line2d_21">
      <path clip-path="url(#pfa581c4354)" d="M 90 239.739649 
L 648 239.739649 
" style="fill:none;stroke:#b0b0b0;stroke-linecap:square;stroke-width:0.8;"/>
     </g>
     <g id="line2d_22">
      <g>
       <use style="stroke:#000000;stroke-width:0.8;" x="90" xlink:href="#mb806c5b229" y="239.739649"/>
      </g>
     </g>
     <g id="text_2">
      <!-- $\mathdefault{3.30}$ -->
      <defs>
       <path d="M 42 31.84375 
C 42 37.96875 41.90625 48.421875 37.703125 56.453125 
C 34 63.484375 28.09375 66 22.90625 66 
C 18.09375 66 12 63.78125 8.203125 56.5625 
C 4.203125 49.015625 3.796875 39.671875 3.796875 31.84375 
C 3.796875 26.109375 3.90625 17.375 7 9.734375 
C 11.296875 -0.609375 19 -2 22.90625 -2 
C 27.5 -2 34.5 -0.109375 38.59375 9.4375 
C 41.59375 16.375 42 24.5 42 31.84375 
z
M 22.90625 -0.40625 
C 16.5 -0.40625 12.703125 5.125 11.296875 12.75 
C 10.203125 18.6875 10.203125 27.328125 10.203125 32.953125 
C 10.203125 40.6875 10.203125 47.109375 11.5 53.234375 
C 13.40625 61.78125 19 64.390625 22.90625 64.390625 
C 27 64.390625 32.296875 61.671875 34.203125 53.4375 
C 35.5 47.71875 35.59375 40.984375 35.59375 32.953125 
C 35.59375 26.421875 35.59375 18.375 34.40625 12.453125 
C 32.296875 1.5 26.40625 -0.40625 22.90625 -0.40625 
z
" id="CMR17-48"/>
      </defs>
      <g transform="translate(53.44965 246.128137)scale(0.18 -0.18)">
       <use transform="scale(0.996264)" xlink:href="#CMR17-51"/>
       <use transform="translate(45.690477 0)scale(0.996264)" xlink:href="#CMMI12-58"/>
       <use transform="translate(72.787654 0)scale(0.996264)" xlink:href="#CMR17-51"/>
       <use transform="translate(118.478131 0)scale(0.996264)" xlink:href="#CMR17-48"/>
      </g>
     </g>
    </g>
    <g id="ytick_3">
     <g id="line2d_23">
      <path clip-path="url(#pfa581c4354)" d="M 90 191.418436 
L 648 191.418436 
" style="fill:none;stroke:#b0b0b0;stroke-linecap:square;stroke-width:0.8;"/>
     </g>
     <g id="line2d_24">
      <g>
       <use style="stroke:#000000;stroke-width:0.8;" x="90" xlink:href="#mb806c5b229" y="191.418436"/>
      </g>
     </g>
     <g id="text_3">
      <!-- $\mathdefault{3.35}$ -->
      <g transform="translate(53.44965 197.806924)scale(0.18 -0.18)">
       <use transform="scale(0.996264)" xlink:href="#CMR17-51"/>
       <use transform="translate(45.690477 0)scale(0.996264)" xlink:href="#CMMI12-58"/>
       <use transform="translate(72.787654 0)scale(0.996264)" xlink:href="#CMR17-51"/>
       <use transform="translate(118.478131 0)scale(0.996264)" xlink:href="#CMR17-53"/>
      </g>
     </g>
    </g>
    <g id="ytick_4">
     <g id="line2d_25">
      <path clip-path="url(#pfa581c4354)" d="M 90 143.097223 
L 648 143.097223 
" style="fill:none;stroke:#b0b0b0;stroke-linecap:square;stroke-width:0.8;"/>
     </g>
     <g id="line2d_26">
      <g>
       <use style="stroke:#000000;stroke-width:0.8;" x="90" xlink:href="#mb806c5b229" y="143.097223"/>
      </g>
     </g>
     <g id="text_4">
      <!-- $\mathdefault{3.40}$ -->
      <defs>
       <path d="M 33.59375 64.796875 
C 33.59375 66.890625 33.5 67 31.703125 67 
L 2 19.59375 
L 2 17 
L 27.796875 17 
L 27.796875 7.1875 
C 27.796875 3.59375 27.59375 2.59375 20.59375 2.59375 
L 18.703125 2.59375 
L 18.703125 0 
C 21.90625 0.1875 27.296875 0.1875 30.703125 0.1875 
C 34.09375 0.1875 39.5 0.1875 42.703125 0 
L 42.703125 2.59375 
L 40.796875 2.59375 
C 33.796875 2.59375 33.59375 3.59375 33.59375 7.1875 
L 33.59375 17 
L 43.796875 17 
L 43.796875 19.59375 
L 33.59375 19.59375 
z
M 28.09375 58.171875 
L 28.09375 19.59375 
L 4 19.59375 
z
" id="CMR17-52"/>
      </defs>
      <g transform="translate(53.44965 149.485711)scale(0.18 -0.18)">
       <use transform="scale(0.996264)" xlink:href="#CMR17-51"/>
       <use transform="translate(45.690477 0)scale(0.996264)" xlink:href="#CMMI12-58"/>
       <use transform="translate(72.787654 0)scale(0.996264)" xlink:href="#CMR17-52"/>
       <use transform="translate(118.478131 0)scale(0.996264)" xlink:href="#CMR17-48"/>
      </g>
     </g>
    </g>
    <g id="ytick_5">
     <g id="line2d_27">
      <path clip-path="url(#pfa581c4354)" d="M 90 94.77601 
L 648 94.77601 
" style="fill:none;stroke:#b0b0b0;stroke-linecap:square;stroke-width:0.8;"/>
     </g>
     <g id="line2d_28">
      <g>
       <use style="stroke:#000000;stroke-width:0.8;" x="90" xlink:href="#mb806c5b229" y="94.77601"/>
      </g>
     </g>
     <g id="text_5">
      <!-- $\mathdefault{3.45}$ -->
      <g transform="translate(53.44965 101.164498)scale(0.18 -0.18)">
       <use transform="scale(0.996264)" xlink:href="#CMR17-51"/>
       <use transform="translate(45.690477 0)scale(0.996264)" xlink:href="#CMMI12-58"/>
       <use transform="translate(72.787654 0)scale(0.996264)" xlink:href="#CMR17-52"/>
       <use transform="translate(118.478131 0)scale(0.996264)" xlink:href="#CMR17-53"/>
      </g>
     </g>
    </g>
    <g id="text_6">
     <!-- $\omega_{gl}$ [$\frac{1}{s}$] -->
     <defs>
      <path d="M 59.40625 37.59375 
C 59.40625 40.5 58.59375 44.1875 55.09375 44.1875 
C 53.09375 44.1875 50.796875 41.6875 50.796875 39.6875 
C 50.796875 38.796875 51.203125 38.1875 52 37.296875 
C 53.5 35.59375 55.40625 32.890625 55.40625 28.1875 
C 55.40625 24.59375 53.203125 18.890625 51.59375 15.796875 
C 48.796875 10.296875 44.203125 5.59375 39 5.59375 
C 32.703125 5.59375 30.296875 9.59375 29.203125 15.1875 
C 30.296875 17.796875 32.59375 24.296875 32.59375 26.890625 
C 32.59375 28 32.203125 28.890625 30.90625 28.890625 
C 30.203125 28.890625 29.40625 28.5 28.90625 27.6875 
C 27.5 25.5 26.203125 17.59375 26.296875 15.5 
C 24.40625 11.796875 19 5.59375 12.59375 5.59375 
C 5.90625 5.59375 4.09375 11.5 4.09375 17.1875 
C 4.09375 27.59375 10.59375 36.6875 12.40625 39.1875 
C 13.40625 40.6875 14.09375 41.6875 14.09375 41.890625 
C 14.09375 42.59375 13.703125 43.6875 12.796875 43.6875 
C 11.203125 43.6875 10.703125 42.390625 9.90625 41.1875 
C 4.796875 33.296875 1.203125 22.1875 1.203125 12.59375 
C 1.203125 6.390625 3.5 -1 11 -1 
C 19.296875 -1 24.5 6.09375 26.59375 9.890625 
C 27.40625 4.296875 30.40625 -1 37.703125 -1 
C 45.296875 -1 50.09375 5.6875 53.703125 13.796875 
C 56.296875 19.59375 59.40625 32.09375 59.40625 37.59375 
z
" id="CMMI12-33"/>
      <path d="M 33.796875 12.671875 
C 33.40625 11.0625 33.203125 10.671875 31.90625 9.171875 
C 27.796875 3.890625 23.59375 2 20.5 2 
C 17.203125 2 14.09375 4.578125 14.09375 11.46875 
C 14.09375 16.75 17.09375 27.921875 19.296875 32.421875 
C 22.203125 38 26.703125 41.984375 30.90625 41.984375 
C 37.5 41.984375 38.796875 33.8125 38.796875 33.21875 
L 38.5 31.8125 
z
M 40 37.40625 
C 38.703125 40.296875 35.90625 44 30.90625 44 
C 20 44 7.59375 30.328125 7.59375 15.453125 
C 7.59375 5.078125 13.90625 0 20.296875 0 
C 25.59375 0 30.296875 4.1875 32.09375 6.1875 
L 29.90625 -2.75 
C 28.5 -8.125 27.90625 -10.578125 24.296875 -14 
C 20.203125 -18 16.40625 -18 14.203125 -18 
C 11.203125 -18 8.703125 -17.8125 6.203125 -17.03125 
C 9.40625 -16.15625 10.203125 -13.40625 10.203125 -12.328125 
C 10.203125 -10.765625 9 -9.203125 6.796875 -9.203125 
C 4.40625 -9.203125 1.796875 -11.15625 1.796875 -14.390625 
C 1.796875 -18.40625 5.90625 -20 14.40625 -20 
C 27.296875 -20 34 -11.84375 35.296875 -6.5625 
L 46.40625 37.90625 
C 46.703125 39.09375 46.703125 39.296875 46.703125 39.5 
C 46.703125 40.890625 45.59375 42 44.09375 42 
C 41.703125 42 40.296875 40 40 37.3125 
z
" id="CMMI12-103"/>
      <path d="M 25.40625 66.484375 
C 25.5 66.890625 25.703125 67.484375 25.703125 67.984375 
C 25.703125 69 24.703125 69 24.5 69 
C 24.40625 69 20.796875 68.6875 19 68.484375 
C 17.296875 68.390625 15.796875 68.1875 14 68.09375 
C 11.59375 67.890625 10.90625 67.796875 10.90625 65.984375 
C 10.90625 64.984375 11.90625 64.984375 12.90625 64.984375 
C 18 64.984375 18 64.09375 18 63.109375 
C 18 62.703125 18 62.515625 17.5 60.71875 
L 5.09375 11.421875 
C 4.796875 10.328125 4.59375 9.53125 4.59375 7.953125 
C 4.59375 2.984375 8.296875 -1 13.40625 -1 
C 16.703125 -1 18.90625 1.1875 20.5 4.265625 
C 22.203125 7.546875 23.59375 13.8125 23.59375 14.203125 
C 23.59375 14.703125 23.203125 15.109375 22.59375 15.109375 
C 21.703125 15.109375 21.59375 14.609375 21.203125 13.109375 
C 19.40625 6.265625 17.59375 1 13.59375 1 
C 10.59375 1 10.59375 4.171875 10.59375 5.5625 
C 10.59375 5.96875 10.59375 8.046875 11.296875 10.828125 
z
" id="CMMI12-108"/>
      <path d="M 25 73 
L 6.40625 73 
L 6.40625 -21.203125 
L 25 -21.203125 
L 25 -14 
L 14.703125 -14 
L 14.703125 65.796875 
L 25 65.796875 
z
" id="Nimbus_Sans_L_Regular-91"/>
      <path d="M 26.59375 63.796875 
C 26.59375 65.890625 26.5 66 25.09375 66 
C 21.203125 61.359375 15.296875 59.890625 9.703125 59.6875 
C 9.40625 59.6875 8.90625 59.6875 8.796875 59.5 
C 8.703125 59.296875 8.703125 59.09375 8.703125 57 
C 11.796875 57 17 57.59375 21 59.984375 
L 21 7.296875 
C 21 3.796875 20.796875 2.59375 12.203125 2.59375 
L 9.203125 2.59375 
L 9.203125 0 
C 14 0.09375 19 0.1875 23.796875 0.1875 
C 28.59375 0.1875 33.59375 0.09375 38.40625 0 
L 38.40625 2.59375 
L 35.40625 2.59375 
C 26.796875 2.59375 26.59375 3.6875 26.59375 7.296875 
z
" id="CMR17-49"/>
      <path d="M 22.796875 20.15625 
C 24.5 19.859375 27.203125 19.265625 27.796875 19.171875 
C 29.09375 18.765625 33.59375 17.171875 33.59375 12.390625 
C 33.59375 9.296875 30.796875 1 19.203125 1 
C 17.09375 1 9.59375 1.296875 7.59375 6.984375 
C 11.59375 6.46875 13.59375 9.59375 13.59375 11.796875 
C 13.59375 13.890625 12.203125 15 10.203125 15 
C 8 15 5.09375 13.296875 5.09375 8.796875 
C 5.09375 2.75 11.09375 -1 19.09375 -1 
C 34.296875 -1 38.796875 10.390625 38.796875 15.59375 
C 38.796875 17.078125 38.796875 19.859375 35.59375 23.046875 
C 33.09375 25.421875 30.703125 25.921875 25.296875 27.015625 
C 22.59375 27.609375 18.296875 28.5 18.296875 32.984375 
C 18.296875 34.984375 20.09375 41.984375 29.59375 41.984375 
C 33.796875 41.984375 37.90625 40.453125 38.90625 37 
C 34.5 37 34.296875 33.1875 34.296875 33.09375 
C 34.296875 30.984375 36.203125 30.390625 37.09375 30.390625 
C 38.5 30.390625 41.296875 31.484375 41.296875 35.6875 
C 41.296875 39.78125 37.5 44 29.703125 44 
C 16.59375 44 13.09375 33.890625 13.09375 29.796875 
C 13.09375 22.25 20.5 20.65625 22.796875 20.15625 
z
" id="CMMI12-115"/>
      <path d="M 2.296875 -21.203125 
L 20.90625 -21.203125 
L 20.90625 73 
L 2.296875 73 
L 2.296875 65.796875 
L 12.59375 65.796875 
L 12.59375 -14 
L 2.296875 -14 
z
" id="Nimbus_Sans_L_Regular-93"/>
     </defs>
     <g transform="translate(43.952808 230.321566)rotate(-90)scale(0.16 -0.16)">
      <use transform="scale(0.996264)" xlink:href="#CMMI12-33"/>
      <use transform="translate(60.743753 -14.943915)scale(0.697382)" xlink:href="#CMMI12-103"/>
      <use transform="translate(95.943435 -14.943915)scale(0.697382)" xlink:href="#CMMI12-108"/>
      <use transform="translate(146.01052 0)scale(0.996264)" xlink:href="#Nimbus_Sans_L_Regular-91"/>
      <use transform="translate(174.992065 39.226102)scale(0.697382)" xlink:href="#CMR17-49"/>
      <use transform="translate(174.901204 -34.355253)scale(0.697382)" xlink:href="#CMMI12-115"/>
      <use transform="translate(208.261606 0)scale(0.996264)" xlink:href="#Nimbus_Sans_L_Regular-93"/>
      <path d="M 174.901204 22.914133 
L 207.066092 22.914133 
L 207.066092 26.899083 
L 174.901204 26.899083 
L 174.901204 22.914133 
z
"/>
     </g>
    </g>
   </g>
   <g id="LineCollection_1">
    <path clip-path="url(#pfa581c4354)" d="M 115.363636 236.393592 
L 116.628656 236.393592 
" style="fill:none;stroke:#094d92;"/>
    <path clip-path="url(#pfa581c4354)" d="M 178.6146 183.497317 
L 179.879619 183.497317 
" style="fill:none;stroke:#094d92;"/>
    <path clip-path="url(#pfa581c4354)" d="M 241.865563 188.692796 
L 243.130583 188.692796 
" style="fill:none;stroke:#094d92;"/>
    <path clip-path="url(#pfa581c4354)" d="M 305.116527 188.692796 
L 306.381546 188.692796 
" style="fill:none;stroke:#094d92;"/>
    <path clip-path="url(#pfa581c4354)" d="M 368.36749 217.822462 
L 369.63251 217.822462 
" style="fill:none;stroke:#094d92;"/>
    <path clip-path="url(#pfa581c4354)" d="M 431.618454 211.015642 
L 432.883473 211.015642 
" style="fill:none;stroke:#094d92;"/>
    <path clip-path="url(#pfa581c4354)" d="M 494.869417 190.420928 
L 496.134437 190.420928 
" style="fill:none;stroke:#094d92;"/>
    <path clip-path="url(#pfa581c4354)" d="M 558.120381 186.962819 
L 559.3854 186.962819 
" style="fill:none;stroke:#094d92;"/>
    <path clip-path="url(#pfa581c4354)" d="M 621.371344 193.871667 
L 622.636364 193.871667 
" style="fill:none;stroke:#094d92;"/>
   </g>
   <g id="LineCollection_2">
    <path clip-path="url(#pfa581c4354)" d="M 115.996146 322.259504 
L 115.996146 150.52768 
" style="fill:none;stroke:#094d92;"/>
    <path clip-path="url(#pfa581c4354)" d="M 179.247109 269.36323 
L 179.247109 97.631405 
" style="fill:none;stroke:#094d92;"/>
    <path clip-path="url(#pfa581c4354)" d="M 242.498073 274.558708 
L 242.498073 102.826884 
" style="fill:none;stroke:#094d92;"/>
    <path clip-path="url(#pfa581c4354)" d="M 305.749036 274.558708 
L 305.749036 102.826884 
" style="fill:none;stroke:#094d92;"/>
    <path clip-path="url(#pfa581c4354)" d="M 369 303.688374 
L 369 131.956549 
" style="fill:none;stroke:#094d92;"/>
    <path clip-path="url(#pfa581c4354)" d="M 432.250964 296.881554 
L 432.250964 125.149729 
" style="fill:none;stroke:#094d92;"/>
    <path clip-path="url(#pfa581c4354)" d="M 495.501927 276.28684 
L 495.501927 104.555015 
" style="fill:none;stroke:#094d92;"/>
    <path clip-path="url(#pfa581c4354)" d="M 558.752891 272.828731 
L 558.752891 101.096907 
" style="fill:none;stroke:#094d92;"/>
    <path clip-path="url(#pfa581c4354)" d="M 622.003854 279.737579 
L 622.003854 108.005755 
" style="fill:none;stroke:#094d92;"/>
   </g>
   <g id="line2d_29">
    <defs>
     <path d="M 0 3 
L 0 -3 
" id="m2e266eb5f4" style="stroke:#094d92;"/>
    </defs>
    <g clip-path="url(#pfa581c4354)">
     <use style="fill:#094d92;stroke:#094d92;" x="115.363636" xlink:href="#m2e266eb5f4" y="236.393592"/>
     <use style="fill:#094d92;stroke:#094d92;" x="178.6146" xlink:href="#m2e266eb5f4" y="183.497317"/>
     <use style="fill:#094d92;stroke:#094d92;" x="241.865563" xlink:href="#m2e266eb5f4" y="188.692796"/>
     <use style="fill:#094d92;stroke:#094d92;" x="305.116527" xlink:href="#m2e266eb5f4" y="188.692796"/>
     <use style="fill:#094d92;stroke:#094d92;" x="368.36749" xlink:href="#m2e266eb5f4" y="217.822462"/>
     <use style="fill:#094d92;stroke:#094d92;" x="431.618454" xlink:href="#m2e266eb5f4" y="211.015642"/>
     <use style="fill:#094d92;stroke:#094d92;" x="494.869417" xlink:href="#m2e266eb5f4" y="190.420928"/>
     <use style="fill:#094d92;stroke:#094d92;" x="558.120381" xlink:href="#m2e266eb5f4" y="186.962819"/>
     <use style="fill:#094d92;stroke:#094d92;" x="621.371344" xlink:href="#m2e266eb5f4" y="193.871667"/>
    </g>
   </g>
   <g id="line2d_30">
    <g clip-path="url(#pfa581c4354)">
     <use style="fill:#094d92;stroke:#094d92;" x="116.628656" xlink:href="#m2e266eb5f4" y="236.393592"/>
     <use style="fill:#094d92;stroke:#094d92;" x="179.879619" xlink:href="#m2e266eb5f4" y="183.497317"/>
     <use style="fill:#094d92;stroke:#094d92;" x="243.130583" xlink:href="#m2e266eb5f4" y="188.692796"/>
     <use style="fill:#094d92;stroke:#094d92;" x="306.381546" xlink:href="#m2e266eb5f4" y="188.692796"/>
     <use style="fill:#094d92;stroke:#094d92;" x="369.63251" xlink:href="#m2e266eb5f4" y="217.822462"/>
     <use style="fill:#094d92;stroke:#094d92;" x="432.883473" xlink:href="#m2e266eb5f4" y="211.015642"/>
     <use style="fill:#094d92;stroke:#094d92;" x="496.134437" xlink:href="#m2e266eb5f4" y="190.420928"/>
     <use style="fill:#094d92;stroke:#094d92;" x="559.3854" xlink:href="#m2e266eb5f4" y="186.962819"/>
     <use style="fill:#094d92;stroke:#094d92;" x="622.636364" xlink:href="#m2e266eb5f4" y="193.871667"/>
    </g>
   </g>
   <g id="line2d_31">
    <defs>
     <path d="M 3 0 
L -3 -0 
" id="mddc2be1167" style="stroke:#094d92;"/>
    </defs>
    <g clip-path="url(#pfa581c4354)">
     <use style="fill:#094d92;stroke:#094d92;" x="115.996146" xlink:href="#mddc2be1167" y="322.259504"/>
     <use style="fill:#094d92;stroke:#094d92;" x="179.247109" xlink:href="#mddc2be1167" y="269.36323"/>
     <use style="fill:#094d92;stroke:#094d92;" x="242.498073" xlink:href="#mddc2be1167" y="274.558708"/>
     <use style="fill:#094d92;stroke:#094d92;" x="305.749036" xlink:href="#mddc2be1167" y="274.558708"/>
     <use style="fill:#094d92;stroke:#094d92;" x="369" xlink:href="#mddc2be1167" y="303.688374"/>
     <use style="fill:#094d92;stroke:#094d92;" x="432.250964" xlink:href="#mddc2be1167" y="296.881554"/>
     <use style="fill:#094d92;stroke:#094d92;" x="495.501927" xlink:href="#mddc2be1167" y="276.28684"/>
     <use style="fill:#094d92;stroke:#094d92;" x="558.752891" xlink:href="#mddc2be1167" y="272.828731"/>
     <use style="fill:#094d92;stroke:#094d92;" x="622.003854" xlink:href="#mddc2be1167" y="279.737579"/>
    </g>
   </g>
   <g id="line2d_32">
    <g clip-path="url(#pfa581c4354)">
     <use style="fill:#094d92;stroke:#094d92;" x="115.996146" xlink:href="#mddc2be1167" y="150.52768"/>
     <use style="fill:#094d92;stroke:#094d92;" x="179.247109" xlink:href="#mddc2be1167" y="97.631405"/>
     <use style="fill:#094d92;stroke:#094d92;" x="242.498073" xlink:href="#mddc2be1167" y="102.826884"/>
     <use style="fill:#094d92;stroke:#094d92;" x="305.749036" xlink:href="#mddc2be1167" y="102.826884"/>
     <use style="fill:#094d92;stroke:#094d92;" x="369" xlink:href="#mddc2be1167" y="131.956549"/>
     <use style="fill:#094d92;stroke:#094d92;" x="432.250964" xlink:href="#mddc2be1167" y="125.149729"/>
     <use style="fill:#094d92;stroke:#094d92;" x="495.501927" xlink:href="#mddc2be1167" y="104.555015"/>
     <use style="fill:#094d92;stroke:#094d92;" x="558.752891" xlink:href="#mddc2be1167" y="101.096907"/>
     <use style="fill:#094d92;stroke:#094d92;" x="622.003854" xlink:href="#mddc2be1167" y="108.005755"/>
    </g>
   </g>
   <g id="line2d_33">
    <defs>
     <path d="M 0 2 
C 0.530406 2 1.03916 1.789267 1.414214 1.414214 
C 1.789267 1.03916 2 0.530406 2 0 
C 2 -0.530406 1.789267 -1.03916 1.414214 -1.414214 
C 1.03916 -1.789267 0.530406 -2 0 -2 
C -0.530406 -2 -1.03916 -1.789267 -1.414214 -1.414214 
C -1.789267 -1.03916 -2 -0.530406 -2 0 
C -2 0.530406 -1.789267 1.03916 -1.414214 1.414214 
C -1.03916 1.789267 -0.530406 2 0 2 
z
" id="m10de2e613b" style="stroke:#094d92;"/>
    </defs>
    <g clip-path="url(#pfa581c4354)">
     <use style="fill:#094d92;stroke:#094d92;" x="115.996146" xlink:href="#m10de2e613b" y="236.393592"/>
     <use style="fill:#094d92;stroke:#094d92;" x="179.247109" xlink:href="#m10de2e613b" y="183.497317"/>
     <use style="fill:#094d92;stroke:#094d92;" x="242.498073" xlink:href="#m10de2e613b" y="188.692796"/>
     <use style="fill:#094d92;stroke:#094d92;" x="305.749036" xlink:href="#m10de2e613b" y="188.692796"/>
     <use style="fill:#094d92;stroke:#094d92;" x="369" xlink:href="#m10de2e613b" y="217.822462"/>
     <use style="fill:#094d92;stroke:#094d92;" x="432.250964" xlink:href="#m10de2e613b" y="211.015642"/>
     <use style="fill:#094d92;stroke:#094d92;" x="495.501927" xlink:href="#m10de2e613b" y="190.420928"/>
     <use style="fill:#094d92;stroke:#094d92;" x="558.752891" xlink:href="#m10de2e613b" y="186.962819"/>
     <use style="fill:#094d92;stroke:#094d92;" x="622.003854" xlink:href="#m10de2e613b" y="193.871667"/>
    </g>
   </g>
   <g id="patch_3">
    <path d="M 90 333.490909 
L 90 86.4 
" style="fill:none;stroke:#000000;stroke-linecap:square;stroke-linejoin:miter;stroke-width:0.8;"/>
   </g>
   <g id="patch_4">
    <path d="M 648 333.490909 
L 648 86.4 
" style="fill:none;stroke:#000000;stroke-linecap:square;stroke-linejoin:miter;stroke-width:0.8;"/>
   </g>
   <g id="patch_5">
    <path d="M 90 333.490909 
L 648 333.490909 
" style="fill:none;stroke:#000000;stroke-linecap:square;stroke-linejoin:miter;stroke-width:0.8;"/>
   </g>
   <g id="patch_6">
    <path d="M 90 86.4 
L 648 86.4 
" style="fill:none;stroke:#000000;stroke-linecap:square;stroke-linejoin:miter;stroke-width:0.8;"/>
   </g>
   <g id="text_7">
    <!-- $\omega_{gl}(\varrho)$ -->
    <defs>
     <path d="M 30.59375 -24.40625 
C 30.59375 -24.3125 30.59375 -24.109375 30.296875 -23.8125 
C 25.703125 -19.109375 13.40625 -6.296875 13.40625 24.9375 
C 13.40625 56.171875 25.5 68.875 30.40625 73.890625 
C 30.40625 73.984375 30.59375 74.1875 30.59375 74.484375 
C 30.59375 74.796875 30.296875 75 29.90625 75 
C 28.796875 75 20.296875 67.578125 15.40625 56.5625 
C 10.40625 45.453125 9 34.65625 9 25.046875 
C 9 17.828125 9.703125 5.625 15.703125 -7.296875 
C 20.5 -17.703125 28.703125 -25 29.90625 -25 
C 30.40625 -25 30.59375 -24.8125 30.59375 -24.40625 
z
" id="CMR17-40"/>
     <path d="M 12.40625 10.171875 
C 14.296875 2.390625 19.40625 -1 24.90625 -1 
C 36.5 -1 49.09375 13.15625 49.09375 28.03125 
C 49.09375 38.703125 42.59375 44 35.703125 44 
C 27.703125 44 16.59375 36.015625 12.796875 21.25 
C 8.796875 5.484375 7.296875 -2.6875 7.296875 -7.75 
C 7.296875 -11.109375 7.296875 -17.40625 20.796875 -17.40625 
C 24.296875 -17.40625 27 -17.015625 30.40625 -17.015625 
C 32.5 -17.015625 34.59375 -17.015625 35 -17.8125 
C 35.09375 -18.015625 35 -18.3125 35.09375 -18.3125 
C 35.09375 -19.015625 35.5 -19.3125 36.09375 -19.3125 
C 36.703125 -19.3125 37.5 -19.3125 37.5 -16.703125 
C 37.5 -12 33.09375 -12 23.40625 -12 
C 12.296875 -12 10 -11.015625 10 -5.171875 
C 10 -0.609375 11.5 6.484375 12.40625 10.171875 
z
M 25 1 
C 19.59375 1 17.59375 6.578125 17.59375 11.46875 
C 17.59375 14.953125 19.296875 24.734375 22.90625 31.71875 
C 25.59375 37.109375 30.703125 41.984375 35.59375 41.984375 
C 40.09375 41.984375 42.59375 37.90625 42.59375 32.015625 
C 42.59375 26.9375 39.90625 17.046875 38.203125 12.859375 
C 35 5.578125 29.59375 1 25 1 
z
" id="CMMI12-37"/>
     <path d="M 26.296875 24.9375 
C 26.296875 32.140625 25.59375 44.359375 19.59375 57.265625 
C 14.796875 67.6875 6.59375 75 5.40625 75 
C 5.09375 75 4.703125 74.890625 4.703125 74.390625 
C 4.703125 74.1875 4.796875 74.09375 4.90625 73.890625 
C 9.703125 68.875 21.90625 56.171875 21.90625 25.046875 
C 21.90625 -6.1875 9.796875 -18.90625 4.90625 -23.90625 
C 4.796875 -24.109375 4.703125 -24.203125 4.703125 -24.40625 
C 4.703125 -24.90625 5.09375 -25 5.40625 -25 
C 6.5 -25 15 -17.609375 19.90625 -6.59375 
C 24.90625 4.515625 26.296875 15.328125 26.296875 24.9375 
z
" id="CMR17-41"/>
    </defs>
    <g transform="translate(345.836429 80.4)scale(0.192 -0.192)">
     <use transform="scale(0.996264)" xlink:href="#CMMI12-33"/>
     <use transform="translate(60.743753 -14.943915)scale(0.697382)" xlink:href="#CMMI12-103"/>
     <use transform="translate(95.943435 -14.943915)scale(0.697382)" xlink:href="#CMMI12-108"/>
     <use transform="translate(118.315351 0)scale(0.996264)" xlink:href="#CMR17-40"/>
     <use transform="translate(153.596118 0)scale(0.996264)" xlink:href="#CMMI12-37"/>
     <use transform="translate(203.910491 0)scale(0.996264)" xlink:href="#CMR17-41"/>
    </g>
   </g>
   <g id="legend_1">
    <g id="patch_7">
     <path d="M 101.2 325.490909 
L 408.336934 325.490909 
Q 411.536934 325.490909 411.536934 322.290909 
L 411.536934 299.375085 
Q 411.536934 296.175085 408.336934 296.175085 
L 101.2 296.175085 
Q 98 296.175085 98 299.375085 
L 98 322.290909 
Q 98 325.490909 101.2 325.490909 
z
" style="fill:#ffffff;opacity:0.8;stroke:#cccccc;stroke-linejoin:miter;"/>
    </g>
    <g id="LineCollection_3">
     <path d="M 112.4 308.930253 
L 128.4 308.930253 
" style="fill:none;stroke:#094d92;"/>
    </g>
    <g id="LineCollection_4">
     <path d="M 120.4 316.930253 
L 120.4 300.930253 
" style="fill:none;stroke:#094d92;"/>
    </g>
    <g id="line2d_34">
     <g>
      <use style="fill:#094d92;stroke:#094d92;" x="112.4" xlink:href="#m2e266eb5f4" y="308.930253"/>
     </g>
    </g>
    <g id="line2d_35">
     <g>
      <use style="fill:#094d92;stroke:#094d92;" x="128.4" xlink:href="#m2e266eb5f4" y="308.930253"/>
     </g>
    </g>
    <g id="line2d_36">
     <g>
      <use style="fill:#094d92;stroke:#094d92;" x="120.4" xlink:href="#mddc2be1167" y="316.930253"/>
     </g>
    </g>
    <g id="line2d_37">
     <g>
      <use style="fill:#094d92;stroke:#094d92;" x="120.4" xlink:href="#mddc2be1167" y="300.930253"/>
     </g>
    </g>
    <g id="line2d_38"/>
    <g id="line2d_39">
     <g>
      <use style="fill:#094d92;stroke:#094d92;" x="120.4" xlink:href="#m10de2e613b" y="308.930253"/>
     </g>
    </g>
    <g id="text_8">
     <!-- Datenpunkte mit Fehlerbalken $\omega_{gl}(\varrho)$ -->
     <defs>
      <path d="M 8.90625 0 
L 37 0 
C 55.40625 0 66.703125 13.796875 66.703125 36.546875 
C 66.703125 59.1875 55.5 73 37 73 
L 8.90625 73 
z
M 18.203125 8.1875 
L 18.203125 64.796875 
L 35.40625 64.796875 
C 49.796875 64.796875 57.40625 55.078125 57.40625 36.4375 
C 57.40625 18.015625 49.796875 8.1875 35.40625 8.1875 
z
" id="Nimbus_Sans_L_Regular-68"/>
      <path d="M 53.5 5.1875 
C 52.59375 5 52.203125 5 51.703125 5 
C 48.796875 5 47.203125 6.484375 47.203125 9.078125 
L 47.203125 39.71875 
C 47.203125 48.984375 40.40625 54 27.5 54 
C 19.90625 54 13.59375 51.796875 10.09375 47.890625 
C 7.703125 45.203125 6.703125 42.21875 6.5 37.03125 
L 14.90625 37.03125 
C 15.59375 43.40625 19.40625 46.296875 27.203125 46.296875 
C 34.703125 46.296875 38.90625 43.5 38.90625 38.53125 
L 38.90625 36.34375 
C 38.90625 32.859375 36.796875 31.359375 30.203125 30.5625 
C 18.40625 29.078125 16.59375 28.671875 13.40625 27.390625 
C 7.296875 24.890625 4.203125 20.21875 4.203125 13.453125 
C 4.203125 4 10.796875 -2 21.40625 -2 
C 28 -2 33.296875 0.296875 39.203125 5.6875 
C 39.796875 0.390625 42.40625 -2 47.796875 -2 
C 49.5 -2 50.796875 -1.8125 53.5 -1.109375 
z
M 38.90625 16.734375 
C 38.90625 13.953125 38.09375 12.265625 35.59375 9.96875 
C 32.203125 6.890625 28.09375 5.296875 23.203125 5.296875 
C 16.703125 5.296875 12.90625 8.375 12.90625 13.65625 
C 12.90625 19.125 16.59375 21.90625 25.5 23.203125 
C 34.296875 24.40625 36.09375 24.796875 38.90625 26.09375 
z
" id="Nimbus_Sans_L_Regular-97"/>
      <path d="M 25.40625 52 
L 16.796875 52 
L 16.796875 66.390625 
L 8.5 66.390625 
L 8.5 52 
L 1.40625 52 
L 1.40625 45.1875 
L 8.5 45.1875 
L 8.5 6.28125 
C 8.5 1 12.09375 -2 18.59375 -2 
C 20.59375 -2 22.59375 -1.8125 25.40625 -1.3125 
L 25.40625 5.6875 
C 24.296875 5.390625 23 5.296875 21.40625 5.296875 
C 17.796875 5.296875 16.796875 6.28125 16.796875 9.90625 
L 16.796875 45.1875 
L 25.40625 45.1875 
z
" id="Nimbus_Sans_L_Regular-116"/>
      <path d="M 51.296875 23.1875 
C 51.296875 31.21875 50.703125 36.109375 49.203125 40.078125 
C 45.796875 48.796875 37.796875 54 28 54 
C 13.40625 54 4 42.71875 4 25.296875 
C 4 8.515625 13.09375 -2 27.796875 -2 
C 39.796875 -2 48.09375 4.796875 50.203125 15.90625 
L 41.796875 15.90625 
C 39.5 9.1875 34.796875 5.6875 28.09375 5.6875 
C 22.796875 5.6875 18.296875 8.03125 15.5 12.296875 
C 13.5 15.21875 12.796875 18.140625 12.703125 23.1875 
z
M 12.90625 30 
C 13.59375 39.875 19.5 46.296875 27.90625 46.296875 
C 36.09375 46.296875 42.40625 39.359375 42.40625 30.609375 
C 42.40625 30.40625 42.40625 30.203125 42.296875 30 
z
" id="Nimbus_Sans_L_Regular-101"/>
      <path d="M 7 52 
L 7 0 
L 15.40625 0 
L 15.40625 28.671875 
C 15.40625 39.671875 21 46.6875 29.59375 46.6875 
C 36.203125 46.6875 40.40625 42.6875 40.40625 36.375 
L 40.40625 0 
L 48.703125 0 
L 48.703125 39.671875 
C 48.703125 48.390625 42.203125 54 32.09375 54 
C 24.296875 54 19.296875 50.984375 14.703125 43.6875 
L 14.703125 52 
z
" id="Nimbus_Sans_L_Regular-110"/>
      <path d="M 5.40625 -22 
L 13.796875 -22 
L 13.796875 5.796875 
C 18.203125 0.390625 23.09375 -2 29.90625 -2 
C 43.40625 -2 52.296875 8.875 52.296875 25.5 
C 52.296875 43 43.703125 54 29.796875 54 
C 22.703125 54 17 50.796875 13.09375 44.59375 
L 13.09375 52.484375 
L 5.40625 52.484375 
z
M 28.40625 46.1875 
C 37.59375 46.1875 43.59375 38.125 43.59375 25.6875 
C 43.59375 13.859375 37.5 5.796875 28.40625 5.796875 
C 19.59375 5.796875 13.796875 13.75 13.796875 25.984375 
C 13.796875 38.234375 19.59375 46.1875 28.40625 46.1875 
z
" id="Nimbus_Sans_L_Regular-112"/>
      <path d="M 48.203125 0.296875 
L 48.203125 52 
L 39.90625 52 
L 39.90625 22.71875 
C 39.90625 12.1875 34.296875 5.296875 25.59375 5.296875 
C 19 5.296875 14.796875 9.234375 14.796875 15.4375 
L 14.796875 52 
L 6.5 52 
L 6.5 12.1875 
C 6.5 3.59375 13 -2 23.203125 -2 
C 30.90625 -2 35.796875 0.6875 40.703125 7.5625 
L 40.703125 0.296875 
z
" id="Nimbus_Sans_L_Regular-117"/>
      <path d="M 14.09375 73 
L 5.796875 73 
L 5.796875 0 
L 14.09375 0 
L 14.09375 20.421875 
L 22.203125 28.4375 
L 39.90625 0 
L 50.203125 0 
L 28.796875 34.34375 
L 47 52.46875 
L 36.296875 52.46875 
L 14.09375 30.234375 
z
" id="Nimbus_Sans_L_Regular-107"/>
      <path d="M 7 52 
L 7 0 
L 15.40625 0 
L 15.40625 32.640625 
C 15.40625 40.578125 20.90625 46.6875 27.703125 46.6875 
C 33.90625 46.6875 37.40625 42.875 37.40625 36.171875 
L 37.40625 0 
L 45.796875 0 
L 45.796875 32.953125 
C 45.796875 40.578125 51.296875 46.6875 58.09375 46.6875 
C 64.203125 46.6875 67.796875 42.78125 67.796875 36.171875 
L 67.796875 0 
L 76.203125 0 
L 76.203125 39.375 
C 76.203125 48.796875 70.796875 54 61 54 
C 54 54 49.796875 51.890625 44.90625 45.984375 
C 41.796875 51.59375 37.59375 54 30.796875 54 
C 23.796875 54 19.203125 51.390625 14.703125 45.09375 
L 14.703125 52 
z
" id="Nimbus_Sans_L_Regular-109"/>
      <path d="M 15 52.46875 
L 6.703125 52.46875 
L 6.703125 0 
L 15 0 
z
M 15 73 
L 6.59375 73 
L 6.59375 62.484375 
L 15 62.484375 
z
" id="Nimbus_Sans_L_Regular-105"/>
      <path d="M 18.296875 33 
L 53.09375 33 
L 53.09375 41.1875 
L 18.296875 41.1875 
L 18.296875 64.796875 
L 57.90625 64.796875 
L 57.90625 73 
L 9 73 
L 9 0 
L 18.296875 0 
z
" id="Nimbus_Sans_L_Regular-70"/>
      <path d="M 7 73 
L 7 0 
L 15.296875 0 
L 15.296875 28.953125 
C 15.296875 39.671875 20.90625 46.6875 29.5 46.6875 
C 32.203125 46.6875 34.90625 45.78125 36.90625 44.28125 
C 39.296875 42.578125 40.296875 40.078125 40.296875 36.375 
L 40.296875 0 
L 48.59375 0 
L 48.59375 39.671875 
C 48.59375 48.484375 42.296875 54 32.09375 54 
C 24.703125 54 20.203125 51.6875 15.296875 45.28125 
L 15.296875 73 
z
" id="Nimbus_Sans_L_Regular-104"/>
      <path d="M 15.203125 73 
L 6.796875 73 
L 6.796875 0 
L 15.203125 0 
z
" id="Nimbus_Sans_L_Regular-108"/>
      <path d="M 6.90625 52 
L 6.90625 0 
L 15.296875 0 
L 15.296875 26.984375 
C 15.296875 34.421875 17.203125 39.28125 21.203125 42.15625 
C 23.796875 44.046875 26.296875 44.640625 32.09375 44.734375 
L 32.09375 53.1875 
C 30.703125 53.890625 30 54 28.90625 54 
C 23.5 54 19.40625 50.796875 14.59375 42.96875 
L 14.59375 52 
z
" id="Nimbus_Sans_L_Regular-114"/>
      <path d="M 5.40625 73 
L 5.40625 0.296875 
L 12.90625 0.296875 
L 12.90625 6.984375 
C 16.90625 0.890625 22.203125 -2 29.5 -2 
C 43.296875 -2 52.296875 9.28125 52.296875 26.59375 
C 52.296875 43.5 43.703125 54 29.90625 54 
C 22.703125 54 17.59375 51.296875 13.703125 45.390625 
L 13.703125 73 
z
M 28.296875 46.1875 
C 37.59375 46.1875 43.59375 38.125 43.59375 25.6875 
C 43.59375 13.859375 37.40625 5.796875 28.296875 5.796875 
C 19.5 5.796875 13.703125 13.75 13.703125 25.984375 
C 13.703125 38.234375 19.5 46.1875 28.296875 46.1875 
z
" id="Nimbus_Sans_L_Regular-98"/>
     </defs>
     <g transform="translate(149.2 314.530253)scale(0.16 -0.16)">
      <use transform="scale(0.996264)" xlink:href="#Nimbus_Sans_L_Regular-68"/>
      <use transform="translate(71.929985 0)scale(0.996264)" xlink:href="#Nimbus_Sans_L_Regular-97"/>
      <use transform="translate(127.321662 0)scale(0.996264)" xlink:href="#Nimbus_Sans_L_Regular-116"/>
      <use transform="translate(155.016831 0)scale(0.996264)" xlink:href="#Nimbus_Sans_L_Regular-101"/>
      <use transform="translate(210.408508 0)scale(0.996264)" xlink:href="#Nimbus_Sans_L_Regular-110"/>
      <use transform="translate(265.800185 0)scale(0.996264)" xlink:href="#Nimbus_Sans_L_Regular-112"/>
      <use transform="translate(321.191862 0)scale(0.996264)" xlink:href="#Nimbus_Sans_L_Regular-117"/>
      <use transform="translate(376.583539 0)scale(0.996264)" xlink:href="#Nimbus_Sans_L_Regular-110"/>
      <use transform="translate(431.975216 0)scale(0.996264)" xlink:href="#Nimbus_Sans_L_Regular-107"/>
      <use transform="translate(481.788417 0)scale(0.996264)" xlink:href="#Nimbus_Sans_L_Regular-116"/>
      <use transform="translate(509.483586 0)scale(0.996264)" xlink:href="#Nimbus_Sans_L_Regular-101"/>
      <use transform="translate(592.570433 0)scale(0.996264)" xlink:href="#Nimbus_Sans_L_Regular-109"/>
      <use transform="translate(675.558863 0)scale(0.996264)" xlink:href="#Nimbus_Sans_L_Regular-105"/>
      <use transform="translate(697.675647 0)scale(0.996264)" xlink:href="#Nimbus_Sans_L_Regular-116"/>
      <use transform="translate(753.065987 0)scale(0.996264)" xlink:href="#Nimbus_Sans_L_Regular-70"/>
      <use transform="translate(810.949509 0)scale(0.996264)" xlink:href="#Nimbus_Sans_L_Regular-101"/>
      <use transform="translate(866.341186 0)scale(0.996264)" xlink:href="#Nimbus_Sans_L_Regular-104"/>
      <use transform="translate(921.732863 0)scale(0.996264)" xlink:href="#Nimbus_Sans_L_Regular-108"/>
      <use transform="translate(943.849648 0)scale(0.996264)" xlink:href="#Nimbus_Sans_L_Regular-101"/>
      <use transform="translate(999.241325 0)scale(0.996264)" xlink:href="#Nimbus_Sans_L_Regular-114"/>
      <use transform="translate(1032.416554 0)scale(0.996264)" xlink:href="#Nimbus_Sans_L_Regular-98"/>
      <use transform="translate(1087.808231 0)scale(0.996264)" xlink:href="#Nimbus_Sans_L_Regular-97"/>
      <use transform="translate(1143.199908 0)scale(0.996264)" xlink:href="#Nimbus_Sans_L_Regular-108"/>
      <use transform="translate(1165.316693 0)scale(0.996264)" xlink:href="#Nimbus_Sans_L_Regular-107"/>
      <use transform="translate(1213.137882 0)scale(0.996264)" xlink:href="#Nimbus_Sans_L_Regular-101"/>
      <use transform="translate(1268.529559 0)scale(0.996264)" xlink:href="#Nimbus_Sans_L_Regular-110"/>
      <use transform="translate(1351.616406 0)scale(0.996264)" xlink:href="#CMMI12-33"/>
      <use transform="translate(1412.360159 -14.943915)scale(0.697382)" xlink:href="#CMMI12-103"/>
      <use transform="translate(1447.55984 -14.943915)scale(0.697382)" xlink:href="#CMMI12-108"/>
      <use transform="translate(1469.931756 0)scale(0.996264)" xlink:href="#CMR17-40"/>
      <use transform="translate(1505.212524 0)scale(0.996264)" xlink:href="#CMMI12-37"/>
      <use transform="translate(1555.526897 0)scale(0.996264)" xlink:href="#CMR17-41"/>
     </g>
    </g>
   </g>
  </g>
  <g id="axes_2">
   <g id="patch_8">
    <path d="M 90 630 
L 648 630 
L 648 382.909091 
L 90 382.909091 
z
" style="fill:#ffffff;"/>
   </g>
   <g id="matplotlib.axis_3">
    <g id="xtick_10">
     <g id="line2d_40">
      <path clip-path="url(#pe2388c0b95)" d="M 108.40603 630 
L 108.40603 382.909091 
" style="fill:none;stroke:#b0b0b0;stroke-linecap:square;stroke-width:0.8;"/>
     </g>
     <g id="line2d_41">
      <g>
       <use style="stroke:#000000;stroke-width:0.8;" x="108.40603" xlink:href="#mb03f72ba94" y="630"/>
      </g>
     </g>
     <g id="text_9">
      <!-- $\mathdefault{100}$ -->
      <g transform="translate(96.069602 649.776976)scale(0.18 -0.18)">
       <use transform="scale(0.996264)" xlink:href="#CMR17-49"/>
       <use transform="translate(45.690477 0)scale(0.996264)" xlink:href="#CMR17-48"/>
       <use transform="translate(91.380954 0)scale(0.996264)" xlink:href="#CMR17-48"/>
      </g>
     </g>
    </g>
    <g id="xtick_11">
     <g id="line2d_42">
      <path clip-path="url(#pe2388c0b95)" d="M 171.656994 630 
L 171.656994 382.909091 
" style="fill:none;stroke:#b0b0b0;stroke-linecap:square;stroke-width:0.8;"/>
     </g>
     <g id="line2d_43">
      <g>
       <use style="stroke:#000000;stroke-width:0.8;" x="171.656994" xlink:href="#mb03f72ba94" y="630"/>
      </g>
     </g>
     <g id="text_10">
      <!-- $\mathdefault{200}$ -->
      <g transform="translate(159.320565 649.776976)scale(0.18 -0.18)">
       <use transform="scale(0.996264)" xlink:href="#CMR17-50"/>
       <use transform="translate(45.690477 0)scale(0.996264)" xlink:href="#CMR17-48"/>
       <use transform="translate(91.380954 0)scale(0.996264)" xlink:href="#CMR17-48"/>
      </g>
     </g>
    </g>
    <g id="xtick_12">
     <g id="line2d_44">
      <path clip-path="url(#pe2388c0b95)" d="M 234.907957 630 
L 234.907957 382.909091 
" style="fill:none;stroke:#b0b0b0;stroke-linecap:square;stroke-width:0.8;"/>
     </g>
     <g id="line2d_45">
      <g>
       <use style="stroke:#000000;stroke-width:0.8;" x="234.907957" xlink:href="#mb03f72ba94" y="630"/>
      </g>
     </g>
     <g id="text_11">
      <!-- $\mathdefault{300}$ -->
      <g transform="translate(222.571529 649.776976)scale(0.18 -0.18)">
       <use transform="scale(0.996264)" xlink:href="#CMR17-51"/>
       <use transform="translate(45.690477 0)scale(0.996264)" xlink:href="#CMR17-48"/>
       <use transform="translate(91.380954 0)scale(0.996264)" xlink:href="#CMR17-48"/>
      </g>
     </g>
    </g>
    <g id="xtick_13">
     <g id="line2d_46">
      <path clip-path="url(#pe2388c0b95)" d="M 298.158921 630 
L 298.158921 382.909091 
" style="fill:none;stroke:#b0b0b0;stroke-linecap:square;stroke-width:0.8;"/>
     </g>
     <g id="line2d_47">
      <g>
       <use style="stroke:#000000;stroke-width:0.8;" x="298.158921" xlink:href="#mb03f72ba94" y="630"/>
      </g>
     </g>
     <g id="text_12">
      <!-- $\mathdefault{400}$ -->
      <g transform="translate(285.822492 649.776976)scale(0.18 -0.18)">
       <use transform="scale(0.996264)" xlink:href="#CMR17-52"/>
       <use transform="translate(45.690477 0)scale(0.996264)" xlink:href="#CMR17-48"/>
       <use transform="translate(91.380954 0)scale(0.996264)" xlink:href="#CMR17-48"/>
      </g>
     </g>
    </g>
    <g id="xtick_14">
     <g id="line2d_48">
      <path clip-path="url(#pe2388c0b95)" d="M 361.409884 630 
L 361.409884 382.909091 
" style="fill:none;stroke:#b0b0b0;stroke-linecap:square;stroke-width:0.8;"/>
     </g>
     <g id="line2d_49">
      <g>
       <use style="stroke:#000000;stroke-width:0.8;" x="361.409884" xlink:href="#mb03f72ba94" y="630"/>
      </g>
     </g>
     <g id="text_13">
      <!-- $\mathdefault{500}$ -->
      <g transform="translate(349.073456 649.776976)scale(0.18 -0.18)">
       <use transform="scale(0.996264)" xlink:href="#CMR17-53"/>
       <use transform="translate(45.690477 0)scale(0.996264)" xlink:href="#CMR17-48"/>
       <use transform="translate(91.380954 0)scale(0.996264)" xlink:href="#CMR17-48"/>
      </g>
     </g>
    </g>
    <g id="xtick_15">
     <g id="line2d_50">
      <path clip-path="url(#pe2388c0b95)" d="M 424.660848 630 
L 424.660848 382.909091 
" style="fill:none;stroke:#b0b0b0;stroke-linecap:square;stroke-width:0.8;"/>
     </g>
     <g id="line2d_51">
      <g>
       <use style="stroke:#000000;stroke-width:0.8;" x="424.660848" xlink:href="#mb03f72ba94" y="630"/>
      </g>
     </g>
     <g id="text_14">
      <!-- $\mathdefault{600}$ -->
      <defs>
       <path d="M 10.59375 34.34375 
C 10.59375 58 21.796875 63.6875 28.296875 63.6875 
C 30.40625 63.6875 35.5 63.265625 37.5 59.09375 
C 35.90625 59.09375 32.90625 59.09375 32.90625 55.59375 
C 32.90625 52.890625 35.09375 52 36.5 52 
C 37.40625 52 40.09375 52.390625 40.09375 55.796875 
C 40.09375 62.296875 35.09375 66 28.203125 66 
C 16.296875 66 3.796875 53.296875 3.796875 31.421875 
C 3.796875 4.015625 15.09375 -2 23.09375 -2 
C 32.796875 -2 42 6.734375 42 20.234375 
C 42 32.828125 33.90625 42 23.703125 42 
C 17.59375 42 13.09375 37.96875 10.59375 30.921875 
z
M 23.09375 0.390625 
C 10.796875 0.390625 10.796875 18.9375 10.796875 22.65625 
C 10.796875 29.90625 14.203125 40.390625 23.5 40.390625 
C 25.203125 40.390625 30.09375 40.390625 33.40625 33.4375 
C 35.203125 29.515625 35.203125 25.375 35.203125 20.34375 
C 35.203125 14.90625 35.203125 10.875 33.09375 6.84375 
C 30.90625 2.703125 27.703125 0.390625 23.09375 0.390625 
z
" id="CMR17-54"/>
      </defs>
      <g transform="translate(412.324419 649.776976)scale(0.18 -0.18)">
       <use transform="scale(0.996264)" xlink:href="#CMR17-54"/>
       <use transform="translate(45.690477 0)scale(0.996264)" xlink:href="#CMR17-48"/>
       <use transform="translate(91.380954 0)scale(0.996264)" xlink:href="#CMR17-48"/>
      </g>
     </g>
    </g>
    <g id="xtick_16">
     <g id="line2d_52">
      <path clip-path="url(#pe2388c0b95)" d="M 487.911811 630 
L 487.911811 382.909091 
" style="fill:none;stroke:#b0b0b0;stroke-linecap:square;stroke-width:0.8;"/>
     </g>
     <g id="line2d_53">
      <g>
       <use style="stroke:#000000;stroke-width:0.8;" x="487.911811" xlink:href="#mb03f72ba94" y="630"/>
      </g>
     </g>
     <g id="text_15">
      <!-- $\mathdefault{700}$ -->
      <defs>
       <path d="M 45.09375 61.796875 
L 45.09375 64 
L 21.59375 64 
C 9.90625 64 9.703125 65.09375 9.296875 67 
L 7.5 67 
L 4.59375 48.5 
L 6.40625 48.5 
C 6.703125 50.40625 7.40625 55.5 8.59375 57.390625 
C 9.203125 58.1875 16.59375 58.1875 18.296875 58.1875 
L 40.296875 58.1875 
L 29.203125 41.71875 
C 21.796875 30.640625 16.703125 15.671875 16.703125 2.59375 
C 16.703125 1.390625 16.703125 -2 20.296875 -2 
C 23.90625 -2 23.90625 1.390625 23.90625 2.6875 
L 23.90625 7.28125 
C 23.90625 23.65625 26.703125 34.4375 31.296875 41.3125 
z
" id="CMR17-55"/>
      </defs>
      <g transform="translate(475.575383 649.776976)scale(0.18 -0.18)">
       <use transform="scale(0.996264)" xlink:href="#CMR17-55"/>
       <use transform="translate(45.690477 0)scale(0.996264)" xlink:href="#CMR17-48"/>
       <use transform="translate(91.380954 0)scale(0.996264)" xlink:href="#CMR17-48"/>
      </g>
     </g>
    </g>
    <g id="xtick_17">
     <g id="line2d_54">
      <path clip-path="url(#pe2388c0b95)" d="M 551.162775 630 
L 551.162775 382.909091 
" style="fill:none;stroke:#b0b0b0;stroke-linecap:square;stroke-width:0.8;"/>
     </g>
     <g id="line2d_55">
      <g>
       <use style="stroke:#000000;stroke-width:0.8;" x="551.162775" xlink:href="#mb03f72ba94" y="630"/>
      </g>
     </g>
     <g id="text_16">
      <!-- $\mathdefault{800}$ -->
      <defs>
       <path d="M 27.203125 35.765625 
C 33.5 38.96875 39.90625 43.796875 39.90625 51.53125 
C 39.90625 60.6875 31.09375 66 23 66 
C 13.90625 66 5.90625 59.375 5.90625 50.234375 
C 5.90625 47.71875 6.5 43.390625 10.40625 39.578125 
C 11.40625 38.578125 15.59375 35.5625 18.296875 33.65625 
C 13.796875 31.34375 3.296875 25.8125 3.296875 14.765625 
C 3.296875 4.40625 13.09375 -2 22.796875 -2 
C 33.5 -2 42.5 5.71875 42.5 15.96875 
C 42.5 25.109375 36.40625 29.328125 32.40625 32.046875 
z
M 14.09375 44.609375 
C 13.296875 45.109375 9.296875 48.21875 9.296875 52.9375 
C 9.296875 59.078125 15.59375 63.6875 22.796875 63.6875 
C 30.703125 63.6875 36.5 58.0625 36.5 51.53125 
C 36.5 42.1875 26.09375 36.859375 25.59375 36.859375 
C 25.5 36.859375 25.40625 36.859375 24.59375 37.46875 
z
M 32.5 24 
C 34 22.90625 38.796875 19.578125 38.796875 13.453125 
C 38.796875 6.015625 31.40625 0.390625 23 0.390625 
C 13.90625 0.390625 7 6.921875 7 14.859375 
C 7 22.796875 13.09375 29.4375 20 32.546875 
z
" id="CMR17-56"/>
      </defs>
      <g transform="translate(538.826346 649.776976)scale(0.18 -0.18)">
       <use transform="scale(0.996264)" xlink:href="#CMR17-56"/>
       <use transform="translate(45.690477 0)scale(0.996264)" xlink:href="#CMR17-48"/>
       <use transform="translate(91.380954 0)scale(0.996264)" xlink:href="#CMR17-48"/>
      </g>
     </g>
    </g>
    <g id="xtick_18">
     <g id="line2d_56">
      <path clip-path="url(#pe2388c0b95)" d="M 614.413738 630 
L 614.413738 382.909091 
" style="fill:none;stroke:#b0b0b0;stroke-linecap:square;stroke-width:0.8;"/>
     </g>
     <g id="line2d_57">
      <g>
       <use style="stroke:#000000;stroke-width:0.8;" x="614.413738" xlink:href="#mb03f72ba94" y="630"/>
      </g>
     </g>
     <g id="text_17">
      <!-- $\mathdefault{900}$ -->
      <defs>
       <path d="M 35.203125 29.234375 
C 35.203125 7 26.09375 0.390625 18.59375 0.390625 
C 16.296875 0.390625 10.703125 0.671875 8.40625 4.390625 
C 11 4 12.90625 5.390625 12.90625 7.890625 
C 12.90625 10.59375 10.703125 11.5 9.296875 11.5 
C 8.40625 11.5 5.703125 11.09375 5.703125 7.6875 
C 5.703125 1.0625 11.59375 -2 18.796875 -2 
C 30.296875 -2 42 10.390625 42 32.65625 
C 42 60.265625 30.796875 66 23.203125 66 
C 13.296875 66 3.796875 57.25 3.796875 43.75 
C 3.796875 31.25 11.90625 22 22.09375 22 
C 30.5 22 34.203125 29.84375 35.203125 33.15625 
z
M 22.296875 23.59375 
C 19.59375 23.59375 15.796875 24.09375 12.703125 30.140625 
C 10.59375 34.078125 10.59375 38.703125 10.59375 43.640625 
C 10.59375 49.59375 10.59375 53.71875 13.40625 58.15625 
C 14.796875 60.265625 17.40625 63.6875 23.203125 63.6875 
C 35 63.6875 35 45.453125 35 41.421875 
C 35 34.265625 31.796875 23.59375 22.296875 23.59375 
z
" id="CMR17-57"/>
      </defs>
      <g transform="translate(602.07731 649.776976)scale(0.18 -0.18)">
       <use transform="scale(0.996264)" xlink:href="#CMR17-57"/>
       <use transform="translate(45.690477 0)scale(0.996264)" xlink:href="#CMR17-48"/>
       <use transform="translate(91.380954 0)scale(0.996264)" xlink:href="#CMR17-48"/>
      </g>
     </g>
    </g>
    <g id="text_18">
     <!-- $\varrho$ [mm] -->
     <g transform="translate(345.049858 668.953858)scale(0.16 -0.16)">
      <use transform="scale(0.996264)" xlink:href="#CMMI12-37"/>
      <use transform="translate(78.009542 0)scale(0.996264)" xlink:href="#Nimbus_Sans_L_Regular-91"/>
      <use transform="translate(105.704712 0)scale(0.996264)" xlink:href="#Nimbus_Sans_L_Regular-109"/>
      <use transform="translate(188.693142 0)scale(0.996264)" xlink:href="#Nimbus_Sans_L_Regular-109"/>
      <use transform="translate(271.681573 0)scale(0.996264)" xlink:href="#Nimbus_Sans_L_Regular-93"/>
     </g>
    </g>
   </g>
   <g id="matplotlib.axis_4">
    <g id="ytick_6">
     <g id="line2d_58">
      <path clip-path="url(#pe2388c0b95)" d="M 90 613.720012 
L 648 613.720012 
" style="fill:none;stroke:#b0b0b0;stroke-linecap:square;stroke-width:0.8;"/>
     </g>
     <g id="line2d_59">
      <g>
       <use style="stroke:#000000;stroke-width:0.8;" x="90" xlink:href="#mb806c5b229" y="613.720012"/>
      </g>
     </g>
     <g id="text_19">
      <!-- $\mathdefault{1.4}$ -->
      <g transform="translate(61.673936 620.1085)scale(0.18 -0.18)">
       <use transform="scale(0.996264)" xlink:href="#CMR17-49"/>
       <use transform="translate(45.690477 0)scale(0.996264)" xlink:href="#CMMI12-58"/>
       <use transform="translate(72.787654 0)scale(0.996264)" xlink:href="#CMR17-52"/>
      </g>
     </g>
    </g>
    <g id="ytick_7">
     <g id="line2d_60">
      <path clip-path="url(#pe2388c0b95)" d="M 90 535.137253 
L 648 535.137253 
" style="fill:none;stroke:#b0b0b0;stroke-linecap:square;stroke-width:0.8;"/>
     </g>
     <g id="line2d_61">
      <g>
       <use style="stroke:#000000;stroke-width:0.8;" x="90" xlink:href="#mb806c5b229" y="535.137253"/>
      </g>
     </g>
     <g id="text_20">
      <!-- $\mathdefault{1.6}$ -->
      <g transform="translate(61.673936 541.525741)scale(0.18 -0.18)">
       <use transform="scale(0.996264)" xlink:href="#CMR17-49"/>
       <use transform="translate(45.690477 0)scale(0.996264)" xlink:href="#CMMI12-58"/>
       <use transform="translate(72.787654 0)scale(0.996264)" xlink:href="#CMR17-54"/>
      </g>
     </g>
    </g>
    <g id="ytick_8">
     <g id="line2d_62">
      <path clip-path="url(#pe2388c0b95)" d="M 90 456.554493 
L 648 456.554493 
" style="fill:none;stroke:#b0b0b0;stroke-linecap:square;stroke-width:0.8;"/>
     </g>
     <g id="line2d_63">
      <g>
       <use style="stroke:#000000;stroke-width:0.8;" x="90" xlink:href="#mb806c5b229" y="456.554493"/>
      </g>
     </g>
     <g id="text_21">
      <!-- $\mathdefault{1.8}$ -->
      <g transform="translate(61.673936 462.942982)scale(0.18 -0.18)">
       <use transform="scale(0.996264)" xlink:href="#CMR17-49"/>
       <use transform="translate(45.690477 0)scale(0.996264)" xlink:href="#CMMI12-58"/>
       <use transform="translate(72.787654 0)scale(0.996264)" xlink:href="#CMR17-56"/>
      </g>
     </g>
    </g>
    <g id="text_22">
     <!-- $\omega_{geg}$ [$\frac{1}{s}$] -->
     <defs>
      <path d="M 17.90625 23 
C 20.59375 23 27.40625 23.1875 32.203125 25 
C 39.796875 27.90625 40.5 33.75 40.5 35.546875 
C 40.5 39.984375 36.703125 44 30.09375 44 
C 19.59375 44 4.5 34.453125 4.5 16.65625 
C 4.5 6.25 10.5 -1 19.59375 -1 
C 33.203125 -1 41.796875 9.515625 41.796875 10.796875 
C 41.796875 11.390625 41.203125 11.890625 40.796875 11.890625 
C 40.5 11.890625 40.40625 11.796875 39.5 10.90625 
C 33.09375 2.484375 23.59375 1 19.796875 1 
C 14.09375 1 11.09375 5.453125 11.09375 12.78125 
C 11.09375 14.171875 11.09375 16.65625 12.59375 23 
z
M 13.09375 25 
C 17.40625 40.484375 26.90625 41.984375 30.09375 41.984375 
C 34.5 41.984375 37.5 39.375 37.5 35.546875 
C 37.5 25 21.5 25 17.296875 25 
z
" id="CMMI12-101"/>
     </defs>
     <g transform="translate(52.177093 530.515167)rotate(-90)scale(0.16 -0.16)">
      <use transform="scale(0.996264)" xlink:href="#CMMI12-33"/>
      <use transform="translate(60.743753 -14.943915)scale(0.697382)" xlink:href="#CMMI12-103"/>
      <use transform="translate(95.943435 -14.943915)scale(0.697382)" xlink:href="#CMMI12-101"/>
      <use transform="translate(127.591691 -14.943915)scale(0.697382)" xlink:href="#CMMI12-103"/>
      <use transform="translate(190.984674 0)scale(0.996264)" xlink:href="#Nimbus_Sans_L_Regular-91"/>
      <use transform="translate(219.966219 39.226102)scale(0.697382)" xlink:href="#CMR17-49"/>
      <use transform="translate(219.875358 -34.355253)scale(0.697382)" xlink:href="#CMMI12-115"/>
      <use transform="translate(253.23576 0)scale(0.996264)" xlink:href="#Nimbus_Sans_L_Regular-93"/>
      <path d="M 219.875358 22.914133 
L 252.040246 22.914133 
L 252.040246 26.899083 
L 219.875358 26.899083 
L 219.875358 22.914133 
z
"/>
     </g>
    </g>
   </g>
   <g id="LineCollection_5">
    <path clip-path="url(#pe2388c0b95)" d="M 115.363636 429.050528 
L 116.628656 429.050528 
" style="fill:none;stroke:#419d78;"/>
    <path clip-path="url(#pe2388c0b95)" d="M 178.6146 440.445028 
L 179.879619 440.445028 
" style="fill:none;stroke:#419d78;"/>
    <path clip-path="url(#pe2388c0b95)" d="M 241.865563 455.375752 
L 243.130583 455.375752 
" style="fill:none;stroke:#419d78;"/>
    <path clip-path="url(#pe2388c0b95)" d="M 305.116527 464.412769 
L 306.381546 464.412769 
" style="fill:none;stroke:#419d78;"/>
    <path clip-path="url(#pe2388c0b95)" d="M 368.36749 491.523821 
L 369.63251 491.523821 
" style="fill:none;stroke:#419d78;"/>
    <path clip-path="url(#pe2388c0b95)" d="M 431.618454 515.884477 
L 432.883473 515.884477 
" style="fill:none;stroke:#419d78;"/>
    <path clip-path="url(#pe2388c0b95)" d="M 494.869417 533.172684 
L 496.134437 533.172684 
" style="fill:none;stroke:#419d78;"/>
    <path clip-path="url(#pe2388c0b95)" d="M 558.120381 563.81996 
L 559.3854 563.81996 
" style="fill:none;stroke:#419d78;"/>
    <path clip-path="url(#pe2388c0b95)" d="M 621.371344 583.858563 
L 622.636364 583.858563 
" style="fill:none;stroke:#419d78;"/>
   </g>
   <g id="LineCollection_6">
    <path clip-path="url(#pe2388c0b95)" d="M 115.996146 463.960559 
L 115.996146 394.140496 
" style="fill:none;stroke:#419d78;"/>
    <path clip-path="url(#pe2388c0b95)" d="M 179.247109 475.355059 
L 179.247109 405.534996 
" style="fill:none;stroke:#419d78;"/>
    <path clip-path="url(#pe2388c0b95)" d="M 242.498073 490.285784 
L 242.498073 420.46572 
" style="fill:none;stroke:#419d78;"/>
    <path clip-path="url(#pe2388c0b95)" d="M 305.749036 499.322801 
L 305.749036 429.502738 
" style="fill:none;stroke:#419d78;"/>
    <path clip-path="url(#pe2388c0b95)" d="M 369 526.433853 
L 369 456.61379 
" style="fill:none;stroke:#419d78;"/>
    <path clip-path="url(#pe2388c0b95)" d="M 432.250964 550.794508 
L 432.250964 480.974445 
" style="fill:none;stroke:#419d78;"/>
    <path clip-path="url(#pe2388c0b95)" d="M 495.501927 568.082715 
L 495.501927 498.262652 
" style="fill:none;stroke:#419d78;"/>
    <path clip-path="url(#pe2388c0b95)" d="M 558.752891 598.729991 
L 558.752891 528.909928 
" style="fill:none;stroke:#419d78;"/>
    <path clip-path="url(#pe2388c0b95)" d="M 622.003854 618.768595 
L 622.003854 548.948532 
" style="fill:none;stroke:#419d78;"/>
   </g>
   <g id="line2d_64">
    <defs>
     <path d="M 0 3 
L 0 -3 
" id="m53dab9942d" style="stroke:#419d78;"/>
    </defs>
    <g clip-path="url(#pe2388c0b95)">
     <use style="fill:#419d78;stroke:#419d78;" x="115.363636" xlink:href="#m53dab9942d" y="429.050528"/>
     <use style="fill:#419d78;stroke:#419d78;" x="178.6146" xlink:href="#m53dab9942d" y="440.445028"/>
     <use style="fill:#419d78;stroke:#419d78;" x="241.865563" xlink:href="#m53dab9942d" y="455.375752"/>
     <use style="fill:#419d78;stroke:#419d78;" x="305.116527" xlink:href="#m53dab9942d" y="464.412769"/>
     <use style="fill:#419d78;stroke:#419d78;" x="368.36749" xlink:href="#m53dab9942d" y="491.523821"/>
     <use style="fill:#419d78;stroke:#419d78;" x="431.618454" xlink:href="#m53dab9942d" y="515.884477"/>
     <use style="fill:#419d78;stroke:#419d78;" x="494.869417" xlink:href="#m53dab9942d" y="533.172684"/>
     <use style="fill:#419d78;stroke:#419d78;" x="558.120381" xlink:href="#m53dab9942d" y="563.81996"/>
     <use style="fill:#419d78;stroke:#419d78;" x="621.371344" xlink:href="#m53dab9942d" y="583.858563"/>
    </g>
   </g>
   <g id="line2d_65">
    <g clip-path="url(#pe2388c0b95)">
     <use style="fill:#419d78;stroke:#419d78;" x="116.628656" xlink:href="#m53dab9942d" y="429.050528"/>
     <use style="fill:#419d78;stroke:#419d78;" x="179.879619" xlink:href="#m53dab9942d" y="440.445028"/>
     <use style="fill:#419d78;stroke:#419d78;" x="243.130583" xlink:href="#m53dab9942d" y="455.375752"/>
     <use style="fill:#419d78;stroke:#419d78;" x="306.381546" xlink:href="#m53dab9942d" y="464.412769"/>
     <use style="fill:#419d78;stroke:#419d78;" x="369.63251" xlink:href="#m53dab9942d" y="491.523821"/>
     <use style="fill:#419d78;stroke:#419d78;" x="432.883473" xlink:href="#m53dab9942d" y="515.884477"/>
     <use style="fill:#419d78;stroke:#419d78;" x="496.134437" xlink:href="#m53dab9942d" y="533.172684"/>
     <use style="fill:#419d78;stroke:#419d78;" x="559.3854" xlink:href="#m53dab9942d" y="563.81996"/>
     <use style="fill:#419d78;stroke:#419d78;" x="622.636364" xlink:href="#m53dab9942d" y="583.858563"/>
    </g>
   </g>
   <g id="line2d_66">
    <defs>
     <path d="M 3 0 
L -3 -0 
" id="m91434042b6" style="stroke:#419d78;"/>
    </defs>
    <g clip-path="url(#pe2388c0b95)">
     <use style="fill:#419d78;stroke:#419d78;" x="115.996146" xlink:href="#m91434042b6" y="463.960559"/>
     <use style="fill:#419d78;stroke:#419d78;" x="179.247109" xlink:href="#m91434042b6" y="475.355059"/>
     <use style="fill:#419d78;stroke:#419d78;" x="242.498073" xlink:href="#m91434042b6" y="490.285784"/>
     <use style="fill:#419d78;stroke:#419d78;" x="305.749036" xlink:href="#m91434042b6" y="499.322801"/>
     <use style="fill:#419d78;stroke:#419d78;" x="369" xlink:href="#m91434042b6" y="526.433853"/>
     <use style="fill:#419d78;stroke:#419d78;" x="432.250964" xlink:href="#m91434042b6" y="550.794508"/>
     <use style="fill:#419d78;stroke:#419d78;" x="495.501927" xlink:href="#m91434042b6" y="568.082715"/>
     <use style="fill:#419d78;stroke:#419d78;" x="558.752891" xlink:href="#m91434042b6" y="598.729991"/>
     <use style="fill:#419d78;stroke:#419d78;" x="622.003854" xlink:href="#m91434042b6" y="618.768595"/>
    </g>
   </g>
   <g id="line2d_67">
    <g clip-path="url(#pe2388c0b95)">
     <use style="fill:#419d78;stroke:#419d78;" x="115.996146" xlink:href="#m91434042b6" y="394.140496"/>
     <use style="fill:#419d78;stroke:#419d78;" x="179.247109" xlink:href="#m91434042b6" y="405.534996"/>
     <use style="fill:#419d78;stroke:#419d78;" x="242.498073" xlink:href="#m91434042b6" y="420.46572"/>
     <use style="fill:#419d78;stroke:#419d78;" x="305.749036" xlink:href="#m91434042b6" y="429.502738"/>
     <use style="fill:#419d78;stroke:#419d78;" x="369" xlink:href="#m91434042b6" y="456.61379"/>
     <use style="fill:#419d78;stroke:#419d78;" x="432.250964" xlink:href="#m91434042b6" y="480.974445"/>
     <use style="fill:#419d78;stroke:#419d78;" x="495.501927" xlink:href="#m91434042b6" y="498.262652"/>
     <use style="fill:#419d78;stroke:#419d78;" x="558.752891" xlink:href="#m91434042b6" y="528.909928"/>
     <use style="fill:#419d78;stroke:#419d78;" x="622.003854" xlink:href="#m91434042b6" y="548.948532"/>
    </g>
   </g>
   <g id="line2d_68">
    <defs>
     <path d="M 0 2 
C 0.530406 2 1.03916 1.789267 1.414214 1.414214 
C 1.789267 1.03916 2 0.530406 2 0 
C 2 -0.530406 1.789267 -1.03916 1.414214 -1.414214 
C 1.03916 -1.789267 0.530406 -2 0 -2 
C -0.530406 -2 -1.03916 -1.789267 -1.414214 -1.414214 
C -1.789267 -1.03916 -2 -0.530406 -2 0 
C -2 0.530406 -1.789267 1.03916 -1.414214 1.414214 
C -1.03916 1.789267 -0.530406 2 0 2 
z
" id="mf21ce3e813" style="stroke:#419d78;"/>
    </defs>
    <g clip-path="url(#pe2388c0b95)">
     <use style="fill:#419d78;stroke:#419d78;" x="115.996146" xlink:href="#mf21ce3e813" y="429.050528"/>
     <use style="fill:#419d78;stroke:#419d78;" x="179.247109" xlink:href="#mf21ce3e813" y="440.445028"/>
     <use style="fill:#419d78;stroke:#419d78;" x="242.498073" xlink:href="#mf21ce3e813" y="455.375752"/>
     <use style="fill:#419d78;stroke:#419d78;" x="305.749036" xlink:href="#mf21ce3e813" y="464.412769"/>
     <use style="fill:#419d78;stroke:#419d78;" x="369" xlink:href="#mf21ce3e813" y="491.523821"/>
     <use style="fill:#419d78;stroke:#419d78;" x="432.250964" xlink:href="#mf21ce3e813" y="515.884477"/>
     <use style="fill:#419d78;stroke:#419d78;" x="495.501927" xlink:href="#mf21ce3e813" y="533.172684"/>
     <use style="fill:#419d78;stroke:#419d78;" x="558.752891" xlink:href="#mf21ce3e813" y="563.81996"/>
     <use style="fill:#419d78;stroke:#419d78;" x="622.003854" xlink:href="#mf21ce3e813" y="583.858563"/>
    </g>
   </g>
   <g id="patch_9">
    <path d="M 90 630 
L 90 382.909091 
" style="fill:none;stroke:#000000;stroke-linecap:square;stroke-linejoin:miter;stroke-width:0.8;"/>
   </g>
   <g id="patch_10">
    <path d="M 648 630 
L 648 382.909091 
" style="fill:none;stroke:#000000;stroke-linecap:square;stroke-linejoin:miter;stroke-width:0.8;"/>
   </g>
   <g id="patch_11">
    <path d="M 90 630 
L 648 630 
" style="fill:none;stroke:#000000;stroke-linecap:square;stroke-linejoin:miter;stroke-width:0.8;"/>
   </g>
   <g id="patch_12">
    <path d="M 90 382.909091 
L 648 382.909091 
" style="fill:none;stroke:#000000;stroke-linecap:square;stroke-linejoin:miter;stroke-width:0.8;"/>
   </g>
   <g id="text_23">
    <!-- $\omega_{geg}(\varrho)$ -->
    <g transform="translate(341.518917 376.909091)scale(0.192 -0.192)">
     <use transform="scale(0.996264)" xlink:href="#CMMI12-33"/>
     <use transform="translate(60.743753 -14.943915)scale(0.697382)" xlink:href="#CMMI12-103"/>
     <use transform="translate(95.943435 -14.943915)scale(0.697382)" xlink:href="#CMMI12-101"/>
     <use transform="translate(127.591691 -14.943915)scale(0.697382)" xlink:href="#CMMI12-103"/>
     <use transform="translate(163.289505 0)scale(0.996264)" xlink:href="#CMR17-40"/>
     <use transform="translate(198.570272 0)scale(0.996264)" xlink:href="#CMMI12-37"/>
     <use transform="translate(248.884645 0)scale(0.996264)" xlink:href="#CMR17-41"/>
    </g>
   </g>
   <g id="legend_2">
    <g id="patch_13">
     <path d="M 322.294047 420.224915 
L 636.8 420.224915 
Q 640 420.224915 640 417.024915 
L 640 394.109091 
Q 640 390.909091 636.8 390.909091 
L 322.294047 390.909091 
Q 319.094047 390.909091 319.094047 394.109091 
L 319.094047 417.024915 
Q 319.094047 420.224915 322.294047 420.224915 
z
" style="fill:#ffffff;opacity:0.8;stroke:#cccccc;stroke-linejoin:miter;"/>
    </g>
    <g id="LineCollection_7">
     <path d="M 333.494047 403.664259 
L 349.494047 403.664259 
" style="fill:none;stroke:#419d78;"/>
    </g>
    <g id="LineCollection_8">
     <path d="M 341.494047 411.664259 
L 341.494047 395.664259 
" style="fill:none;stroke:#419d78;"/>
    </g>
    <g id="line2d_69">
     <g>
      <use style="fill:#419d78;stroke:#419d78;" x="333.494047" xlink:href="#m53dab9942d" y="403.664259"/>
     </g>
    </g>
    <g id="line2d_70">
     <g>
      <use style="fill:#419d78;stroke:#419d78;" x="349.494047" xlink:href="#m53dab9942d" y="403.664259"/>
     </g>
    </g>
    <g id="line2d_71">
     <g>
      <use style="fill:#419d78;stroke:#419d78;" x="341.494047" xlink:href="#m91434042b6" y="411.664259"/>
     </g>
    </g>
    <g id="line2d_72">
     <g>
      <use style="fill:#419d78;stroke:#419d78;" x="341.494047" xlink:href="#m91434042b6" y="395.664259"/>
     </g>
    </g>
    <g id="line2d_73"/>
    <g id="line2d_74">
     <g>
      <use style="fill:#419d78;stroke:#419d78;" x="341.494047" xlink:href="#mf21ce3e813" y="403.664259"/>
     </g>
    </g>
    <g id="text_24">
     <!-- Datenpunkte mit Fehlerbalken $\omega_{geg}(\varrho)$ -->
     <g transform="translate(370.294047 409.264259)scale(0.16 -0.16)">
      <use transform="scale(0.996264)" xlink:href="#Nimbus_Sans_L_Regular-68"/>
      <use transform="translate(71.929985 0)scale(0.996264)" xlink:href="#Nimbus_Sans_L_Regular-97"/>
      <use transform="translate(127.321662 0)scale(0.996264)" xlink:href="#Nimbus_Sans_L_Regular-116"/>
      <use transform="translate(155.016831 0)scale(0.996264)" xlink:href="#Nimbus_Sans_L_Regular-101"/>
      <use transform="translate(210.408508 0)scale(0.996264)" xlink:href="#Nimbus_Sans_L_Regular-110"/>
      <use transform="translate(265.800185 0)scale(0.996264)" xlink:href="#Nimbus_Sans_L_Regular-112"/>
      <use transform="translate(321.191862 0)scale(0.996264)" xlink:href="#Nimbus_Sans_L_Regular-117"/>
      <use transform="translate(376.583539 0)scale(0.996264)" xlink:href="#Nimbus_Sans_L_Regular-110"/>
      <use transform="translate(431.975216 0)scale(0.996264)" xlink:href="#Nimbus_Sans_L_Regular-107"/>
      <use transform="translate(481.788417 0)scale(0.996264)" xlink:href="#Nimbus_Sans_L_Regular-116"/>
      <use transform="translate(509.483586 0)scale(0.996264)" xlink:href="#Nimbus_Sans_L_Regular-101"/>
      <use transform="translate(592.570433 0)scale(0.996264)" xlink:href="#Nimbus_Sans_L_Regular-109"/>
      <use transform="translate(675.558863 0)scale(0.996264)" xlink:href="#Nimbus_Sans_L_Regular-105"/>
      <use transform="translate(697.675647 0)scale(0.996264)" xlink:href="#Nimbus_Sans_L_Regular-116"/>
      <use transform="translate(753.065987 0)scale(0.996264)" xlink:href="#Nimbus_Sans_L_Regular-70"/>
      <use transform="translate(810.949509 0)scale(0.996264)" xlink:href="#Nimbus_Sans_L_Regular-101"/>
      <use transform="translate(866.341186 0)scale(0.996264)" xlink:href="#Nimbus_Sans_L_Regular-104"/>
      <use transform="translate(921.732863 0)scale(0.996264)" xlink:href="#Nimbus_Sans_L_Regular-108"/>
      <use transform="translate(943.849648 0)scale(0.996264)" xlink:href="#Nimbus_Sans_L_Regular-101"/>
      <use transform="translate(999.241325 0)scale(0.996264)" xlink:href="#Nimbus_Sans_L_Regular-114"/>
      <use transform="translate(1032.416554 0)scale(0.996264)" xlink:href="#Nimbus_Sans_L_Regular-98"/>
      <use transform="translate(1087.808231 0)scale(0.996264)" xlink:href="#Nimbus_Sans_L_Regular-97"/>
      <use transform="translate(1143.199908 0)scale(0.996264)" xlink:href="#Nimbus_Sans_L_Regular-108"/>
      <use transform="translate(1165.316693 0)scale(0.996264)" xlink:href="#Nimbus_Sans_L_Regular-107"/>
      <use transform="translate(1213.137882 0)scale(0.996264)" xlink:href="#Nimbus_Sans_L_Regular-101"/>
      <use transform="translate(1268.529559 0)scale(0.996264)" xlink:href="#Nimbus_Sans_L_Regular-110"/>
      <use transform="translate(1351.616406 0)scale(0.996264)" xlink:href="#CMMI12-33"/>
      <use transform="translate(1412.360159 -14.943915)scale(0.697382)" xlink:href="#CMMI12-103"/>
      <use transform="translate(1447.55984 -14.943915)scale(0.697382)" xlink:href="#CMMI12-101"/>
      <use transform="translate(1479.208097 -14.943915)scale(0.697382)" xlink:href="#CMMI12-103"/>
      <use transform="translate(1514.90591 0)scale(0.996264)" xlink:href="#CMR17-40"/>
      <use transform="translate(1550.186678 0)scale(0.996264)" xlink:href="#CMMI12-37"/>
      <use transform="translate(1600.501051 0)scale(0.996264)" xlink:href="#CMR17-41"/>
     </g>
    </g>
   </g>
  </g>
 </g>
 <defs>
  <clipPath id="pfa581c4354">
   <rect height="247.090909" width="558" x="90" y="86.4"/>
  </clipPath>
  <clipPath id="pe2388c0b95">
   <rect height="247.090909" width="558" x="90" y="382.909091"/>
  </clipPath>
 </defs>
</svg>
